<svg xmlns="http://www.w3.org/2000/svg" width="1274.7" height="264" viewBox="0 0 956 198" fill="currentColor"><path d="M326.4 2.5c-5 3-7.7 8.5-7.2 14.5.3 4.7.4 4.7-7.9 8.1-4.8 1.9-9.3 6-20.2 18.2a7 7 0 0 1-6 2.7c-2 0-4.2.4-5 .9-1.3.8-8-1.8-10.1-3.9-.3-.3-2.6-1.5-5.2-2.8l-4.8-2.3.6-5.8c1.2-11.2-5.3-17.9-16.3-16.8-5.6.6-11.7 4.3-12.8 7.8-.8 2.4-2.6 2.4-6.7-.1-1.8-1.1-4.2-2-5.3-2-1.2 0-2.6-.5-3.1-1a84 84 0 0 0-18.4-5.4 259 259 0 0 0-48.7 1.4c-15.9 3-25.9 5.7-31.1 8.4-6 3-7 2.9-7.7-.6-2.8-12.9-21.8-11.4-26.3 2.1-1.3 3.6 0 11.1 1.8 11.1q1 .2 1 2t-.7 2A55 55 0 0 0 73 53c0 .4-1.7.4-3.7-.1a16 16 0 0 0-6.1-.2c-1.7.4-3.4-.5-7.2-4.1-15-14.1-38.6-13.7-47.7.7C-2 65.6 3.9 85 19.2 85c6.9 0 14.8-4.9 14.8-9.1 0-2.1 2.8-3.3 4.5-1.9 2.6 2.2 6.5.1 6.5-3.4 0-5.9 1.8-5.2 7.1 2.6l2.7 4.1-2 3.6c-1.1 2-3.2 4.9-4.5 6.5-1.4 1.7-2.9 4-3.4 5.3q-2.1 5.3-6.3 1c-4.5-4.8-15.3-6.1-23.4-2.8l-6.4 2.5c-2.4.7-6.5 7.6-7.9 13.1-5.2 20.5 24.3 36.4 40.3 21.7l2.6-2.4 8.6 8.5c4.7 4.7 8.6 9.2 8.6 9.9 0 1.9-5.4 12.6-7.8 15.7l-2 2.4-1.6-3.1c-3.2-6.2-7.8-7.3-11.5-2.6-2.3 3-2.4 3-5.7-.1-6.2-5.8-17.4-2.8-21.9 5.8l-2.9 5.4 1.8 6.6c4.8 17.7 23.5 21.8 43.6 9.4a36 36 0 0 0 13.1-11.9c2.1-4.1 3.9-5 3.9-2 0 2.4 4.1 6.2 6.6 6.2 3 0 9.6-6.4 8.8-8.5-.9-2.2 3.1-1.2 6.2 1.6 1.1 1.1 2.5 1.9 3 1.9 3.3 0 5.8 5.1 5.9 12 0 7.7 1.3 9.8 8.4 13.3 5.1 2.6 15.1 1.6 15.1-1.5q0-.7 1.2-.8c.6 0 2.3-1.3 3.7-2.9l2.6-3 7 1.4c3.9.8 10.2 1.4 14 1.5q7 0 12.5 2.1c14.6 5.6 40.6.8 66.3-12.2 6-3 7.7-3 7.7 0 0 8 16.7 11.6 25.3 5.3 6.9-5 9.2-13.3 5.6-20.4l-2.1-4.1 5.4-4.9c11.7-11 18.8-12.4 18.8-4 0 2.8-2.6 2.9-4 .2s-2-2.5-5.8.8c-3.8 3.4-4 5.1-.9 8 4.3 4.1 12.7 1.1 12.7-4.4 0-3.4 1-3 5.5 2.7 2.4 3 6.8 6.6 10.8 9 3.7 2.2 6.5 4.5 6.1 5-1.3 2.1-.4 12.9 1.2 15.4 9 13.7 32 4.6 30-12-.5-4.9-.5-5.1 2.5-6.4 3.1-1.4 13.9-11.6 19.3-18.4 3.6-4.5 3.6-4.5 7.8-.6a50 50 0 0 0 5.8 4.7c1.4.9 4.6 3.3 7.1 5.4s5.1 3.8 5.7 3.8q2.5 0-.4 4.6c-9.5 14.4 17 29.2 26.8 14.9 2.6-3.9 2.8-4 7.1-2.1 3 1.2 12.9 3.9 23.7 6.4 3.1.7 7 .7 12.5 0a345 345 0 0 1 26.5-1.2c13.4-.2 20.8-.7 26.8-2 9.1-2 9.2-2 10.7 2.7 1.9 5.9 12.1 8.6 19.9 5.3 6.1-2.5 9.9-10.5 7.8-16.5-1-2.9-.9-3 4.1-5.7 2.9-1.4 8.5-5.1 12.6-8 7.7-5.5 9.1-5.8 9.1-2 0 5.9 10.3 8.5 14.1 3.6 4.4-5.8-1.7-12.4-8.1-8.7-5.3 3.2-4.8-1 .6-4.4l3.4-2.1 8.4 6.6c4.7 3.6 11 7.7 14.1 9.1 4.5 2.2 5.5 3 4.8 4.4-2.3 4.7-.9 14.2 2.5 17.1 8.8 7.3 18.1 5.6 24.7-4.3l3.5-5.2-1.5-5.5c-2-7.4-2-7.3 2.2-9.5 2-1.1 7.5-5.7 12.1-10.3 9.4-9.2 9.5-9.2 13.9-5.4l6 4.9 5.7 4.8c1.6 1.4 3.3 2.5 3.8 2.5 1.3 0 .9 3.3-.7 5.4-3 3.9-1.3 12.6 3.4 18 6.4 7.3 20.4 7.9 25.9 1 3.3-4.1 3.6-4.2 12.2-.4a43 43 0 0 0 26.5 4.9c14.1-1.8 20.6-2.2 22.8-1.1 6.8 3.2 9.8 3.6 23.7 3.7 13.2 0 15.3-.2 23-2.8l8.5-2.7 2 2.2c5.5 6.3 14.2 9 19.6 6.2 8.8-4.4 12.9-13.4 8.9-18.9-2.7-3.7-2.1-5.4 3.3-9.4 6.3-4.8 8.2-5.2 7.3-1.6-1.9 7.6 10.9 10 13.5 2.5 1.4-4 2.5-3.8 8.4 1.5 14.2 12.9 34.6 15.2 44.9 5.1 8.8-8.5 8.6-20.4-.4-27.9-5.3-4.5-17.4-4.5-21.1 0-1.5 1.8-3.9 1.7-3.9-.2 0-3.9-7.9-3.1-10 1l-1.7 3.4c-.3.5-7.3-7.1-8.4-9.1-1.8-3.4-1.8-3.4 8.6-15.6l2.9-3.4 3.6 3.9c6.4 7.2 22 10.6 26.1 5.7.6-.8 1.7-1.4 2.3-1.4 6.1 0 12-17.8 8.7-26.2-3.8-9.6-21.1-15.2-30-9.7-2.8 1.8-4.4.6-8-6.1a22 22 0 0 0-4.7-6.7c-3.4-1.3-3.8-4.4-.8-6.9 3.4-3 6.4-3.1 6.4-.4 0 4.5 6.5 8.9 10.2 6.9 1.8-.9 2.4-.8 3.7.9 6.6 8.6 22.9 2.1 25.1-10 3-16.4-11.4-26.2-32.7-22.2-4.8.9-17.8 7-21.7 10.3-1.4 1.2-1.9 1.1-3.4-.3q-3.2-2.7-7-.7c-1.4.7-2.9-.1-6.8-3.7a49 49 0 0 0-7.4-6c-6.7-3.6-8.6-5.9-7-8.9 6.7-12.2-12.9-24.2-25.5-15.6l-3.9 2.7-8.6-2.3a544 544 0 0 0-34.5-8.1 116 116 0 0 1-10.4-2.3 92 92 0 0 0-39.6.8c-8.2 2.1-9.5 2-9.5-.9 0-8.4-10-13.5-19.2-10-8.7 3.4-11.5 8.4-10.9 19.1.2 4.5 0 5.3-2.1 6.3-1.2.7-4.5 2.9-7.3 4.9a90 90 0 0 1-8.5 5.7 32 32 0 0 0-4.9 3.2q-1.4 1.2-3 .6a16 16 0 0 0-5.1-.8c-6.7-.2-7.5-2.1-2.7-6.5 4.5-4.3 8.6-3.3 8.7 2.1 0 2.8 3 2.2 3-.6 0-7.9-13.3-10.7-14.2-2.9-.3 3.2-2.2 3.8-2.6.8-.2-1.1-3.7-5.4-7.8-9.5-5.8-5.8-7.4-7.9-6.9-9.5 2.1-7.1 1.9-8.4-2-11.9C643.1-2.1 629 2.5 629 13q0 2-2.7 3.2c-14.6 5.8-28.7 16.5-31.4 23.5-1 2.8-2.6 3-3.4.4-.7-2.4-5.8-4.5-9-3.7s-5.9 4.9-5 7.6q1.2 4.4 3.8-1.5 3.3-6.5 7.6-.6c2.6 3.6 2.9 7.6.5 6.7-.9-.3-3.7-.6-6.2-.6-3.6 0-5.3-.6-7.4-2.5-1.5-1.4-3.2-2.5-3.8-2.5q-.9-.1-1-.8c0-.5-1.8-1.9-4.1-3.1-3.6-2-3.9-2.5-2.6-4 13.8-16.3-8.6-35.8-24-20.8-1.8 1.7-3.3 3.7-3.3 4.3q0 3.5-6.3.8l-8.2-3.5c-10.3-4.5-29.6-6-35.5-2.9-.9.5-9.3 1.1-18.6 1.4-12.6.5-18.8 1.1-24.4 2.7-12.9 3.5-13.6 3.5-15.4.1-7-13.6-32.4-3.3-27.4 11.1.7 1.8.7 3.2.2 3.4-1.8.6-15 9.3-21.2 13.9l-6.3 4.7-3-2.2q-3-2.4-5.5-1.7c-2 .5-2.8 0-5-3.6a82 82 0 0 0-8.6-10.4l-5.9-6.2 2.6-3.7c2.9-4.3 2.9-4.3 1.2-11-2.5-9.9-14.3-14.4-23.3-9m322.1 7.4c1.6 3.1-.2 10.1-2.5 10.1-2.6 0-.5 2.8 4 5.2 7.3 4.1 21 23.5 21 29.8a126 126 0 0 0 10.2 21 41 41 0 0 1 3.7 6.7 18 18 0 0 0 3.7 5.4c3.5 3.3.9 9-3.6 8-4.7-.9-15-18.6-22-37.4-13.5-36.9-43-38.3-59.7-2.9-3 6.4-4.3 7.1-7.7 3.9l-2.6-2.4 2.2-5.4c6.7-16.8 20.5-29.2 35.2-31.8 4.1-.7 4.1-.7 3.8-4.7-.7-8.8 10.4-13 14.3-5.5M341.1 8.1c2.9 4.5 1.9 12.2-1.9 14.7-2.1 1.4-2.3 1.3-3.3-1.7-1.3-3.8-5-4.2-7.4-.9-3.2 4.5-6.1-3.7-3.4-9.6 2.1-4.4 13.6-6.3 16-2.5m385.2 2c2.9 1.3 6.7 7.7 6.7 11.3 0 3.1-.5 3 6.7 1 33.5-9.3 51-6.5 67.3 10.8 4.7 4.9 11.5 22.6 9.5 24.7-2.7 2.7-8-.3-10-5.7A47 47 0 0 0 796 35c-14.4-13.8-61.3-7.3-92.8 12.7-2.8 1.9-6 3.7-7 4-.9.4-2.7 1.7-3.9 3a9 9 0 0 1-2.8 2.3c-.4 0-2.1 1.1-3.8 2.4-4.9 3.6-5.4 3.7-7.1 2-2.8-2.8-1.9-5.7 3.1-9.9 4.9-4.1 20.8-14.5 22.2-14.5.4 0 1.6-.9 2.6-2s2.3-2 2.8-2 2.5-1.1 4.3-2.5q3.4-2.6 5.7-2c2.7.7 5-1.5 4.5-4.2-.5-2.9-6.2-2.5-6.6.4-.6 4.2-3.7 1.9-4.8-3.5a9.9 9.9 0 0 1 13.9-11.1M558 15.6c6.8 3 7.5 10.5 1.4 15.3-3.3 2.6-4.4 2.6-4.4.3 0-5.5-7.1-6.4-7.8-1.1-.3 2.3 9 9.9 11.9 9.9q.8 0 .9.9c0 .5 1.2 1.4 2.8 2a32 32 0 0 1 11 7q.5 1 1.8 1.1c.7 0 2 1.3 2.8 2.8 1.9 3.7 9 8.6 11.2 7.8q1.8-.6 4.8 2.3c1.7 1.6 4.5 3.7 6.2 4.8 6.4 3.8 27.9 20.5 28.2 22 .4 1.6-3.5 6.3-5.2 6.2-.6 0-3.8-2.2-7.1-4.9s-8.9-7-12.5-9.4l-10.5-7.5a71 71 0 0 0-7.6-5 189 189 0 0 0-20.2-13.8c-7.8-4.8-14.4-9-14.7-9.3-.8-1-22.2-13.6-27-15.9a55 55 0 0 0-15.5-4.8c-1.6-.3-4.1-1.6-5.5-2.9a23 23 0 0 0-5.2-3.3c-1.6-.6-2.8-1.8-2.8-2.7 0-2.3 16.5-1.6 20.3.9 1.5.9 3.5 1.7 4.5 1.7s5.3 1.8 9.6 4c7.7 4 12.6 5.1 12.6 2.7 0-9.5 7.7-14.7 16-11.1m-135.6 2.9a12 12 0 0 1 3.2 5.5c.8 3.7.3 3.7 11.6 0 19.5-6.4 51.1-5.7 61.3 1.4a35 35 0 0 1 13.6 21.5c2.4 9.4 2.2 9.8-2.8 8.5-3.2-.8-3.8-1.4-4.5-4.7-5.8-27.9-46.6-31.5-91.8-7.9l-15 7.7a110 110 0 0 0-13.9 8.9c-8.4 6.3-10.7 6.8-12.2 2.9q-2.2-6.2 31.2-25.7l4.7-2.7-.5-6.2q-.4-6.2.9-7.7c4-4.6 10.2-5.2 14.2-1.5m-319.7 2.6 3.4 2.1-.5 6.3c-.4 5.1-.2 6.4 1 6.9 2.5.9 2.8.8 7.1-3.3 4.9-4.5 10.1-6.5 29.8-11.5 31-7.8 54.8 1.4 62.6 24.2 3.1 9 2.7 11.2-1.7 10.2q-5.4-1.2-5.4-4.6c0-3.1-8.3-16.5-11.1-18l-6-3.4c-5.6-3.1-22.1-3.5-33.4-.8-3.8.9-9.7 2.3-13 2.9-6.5 1.3-6.2 1.2-21.5 8.9a139 139 0 0 0-36.6 26.7c-4 4.1-5.8 4.1-7.4.3-1.9-4.5 5.1-13.4 17.5-22.5 2.2-1.7 4.4-3.6 4.8-4.3q1-1.2 3.2-.8c3.2.8 6.1-2.5 4.5-5.3-1.1-2.2-4.9-2.8-6.6-1.1-2.4 2.4-5.4-.1-5.4-4.4 0-5.6 3.3-8.8 10.9-10.5.2-.1 1.9.9 3.8 2m93.3-.6c.7.8 2.2 1.5 3.4 1.5s5.3 1 9.1 2.1l10.5 2.6c1.9.3 4.4 1.2 5.5 1.9 1.1.8 2.9 1.4 4.2 1.4 1.2 0 2.5.4 2.8 1 1.4 2.2 3.5.8 4.5-2.9 2.1-7.8 10.6-10.8 15.6-5.4 4.5 4.8 4.5 10 .1 12.1-4.3 2.1-3.5 2.9 10.4 9.7A78 78 0 0 1 279.3 55c2.5 2.6 4.8 4 6.1 3.8 1.2-.1 4 1 6.3 2.5a269.8 269.8 0 0 1 27.4 18.3c1.4 1.3 3 2.4 3.5 2.4 2.8 0 4.8 6.3 2.5 8.1-2.7 2.2-4.7 1.6-11.7-3.5l-12.9-9.4A335 335 0 0 0 241.3 44c-.7 0-2.1-.4-3.1-.9a90 90 0 0 0-17-7 78 78 0 0 0-13.9-4.6A44 44 0 0 1 193 19.4c0-1 1.9-.3 3 1.1m142.1 7.2c6.3 3.4 16.9 14 16.9 17 0 .5 1.1 2 2.5 3.3s2.5 2.8 2.5 3.4c0 1.7 23.1 37 28.1 42.8l3.1 3.7-2.2 3q-4.1 5.7-7.7.3a336.7 336.7 0 0 1-25.5-36.5c-13.1-25.7-26-33.4-42.4-25.1-5.5 2.8-7.3 4.6-14.4 14.1-1.3 1.8-2.9 3.3-3.6 3.3-15.3 0 6.6-24.9 26.4-30 2.3-.6 4.2-1.5 4.2-2 0-1.5 7.2.1 12.1 2.7m481.3-1.5c2.7.5 7.4 2.1 10.5 3.5a87 87 0 0 0 12.4 4.8q1.8.8 1.7-1.2c0-7.7 12-9.5 17.9-2.7 3.8 4.2 3.9 6.3.5 10.4-1.5 1.7-2.5 3.2-2.3 3.4l3.8 2.1c3 1.5 11.5 7.9 17.4 13q1.5 1.3 2.2 1.5c.2 0 2.5 2.2 5.1 5s5.2 5 5.8 5.1c1.2 0 12.8 12.9 13.4 14.9.2.6 1.4 2.2 2.7 3.6 4 4.3 5.1 8.1 3 10.4-2.8 3-3.7 2.5-9.1-4.8-5.8-7.9-28.3-31.2-30.1-31.2q-1.2 0-1.3-.8c0-.4-1.8-1.8-4-3.2s-4-2.8-4-3.2q-.1-.8-1.3-.8c-.8 0-2.2-.9-3.3-2.1a26 26 0 0 0-6.4-4.3l-11.8-6c-7.3-3.6-18.3-7.9-25.6-9.9-2.9-.8-4.1-1.8-5.2-4.4-.8-1.8-2-3.3-2.7-3.4q-.9 0 .8-.9c1.1-.5 2.7-.6 3.5-.4zm-652.5 7.5c-.8 1-2 2.2-2.7 2.6-6.5 4.2-9.9 29.6-9.6 70.9.2 24.5.2 24.7-4.6 24-3.6-.5-4-2.6-4.5-23.9-.7-37.2 4.8-71.4 12-74.4 4.2-1.7 10.9-1.1 9.4.8m303.9 1.5a51 51 0 0 0-8.7 20.3c-.6 2.3-1.1 19.1-1.2 39.9l-.1 35.8-4-.5c-5.5-.7-5.1 1.3-5.1-29.9.1-40.4 2.6-57.7 9.4-64.6 4.3-4.4 12.2-5.2 9.7-1m302.5-1.7A25 25 0 0 1 769 39c-3.7 3.9-8 11.6-8 14.6 0 .8-.4 2.3-1 3.3a618 618 0 0 0-2.4 57.6c-.2 12.2-.4 12.6-5.1 11.1-4.9-1.5-4.9-1.4-4.2-35 .8-39 2-45.2 10.5-54.4 4.2-4.6 16.1-6.8 14.5-2.7M146 37c0 1.2-4 3.4-4.7 2.6-.9-.8 1.7-3.6 3.3-3.6q1.3 0 1.4 1m343.7 6c.2 1.3.8 3 1.5 3.7q1.3 1.5-.5.7c-.8-.3-2.6.1-3.9 1-2.8 1.8-7.9 1.1-7.1-1q.4-1.3-.6-1.4c-1.5 0-1.4-1.8.2-3.4 4-4 9.7-3.8 10.4.4m-301.1-.3q3.1 2.8 1.4 3.1-1.3.4-1.8-.7a10 10 0 0 0-2.5-3.2q-1.8-1.7-1-1.9c.5 0 2.3 1.2 3.9 2.7m252.2.6c6.5 7.7-3.3 17.8-11.2 11.6C424 50.5 428 42 435.8 42c2.2 0 4.4.6 5 1.3M42.7 46.2c9.5 4.6 9.5 4.6 12.8 9.2 6.9 9.6 15.6 23.2 17.6 27.5a64 64 0 0 0 4.4 7.6c6.3 8.8 8.2 14.5 4.8 14.5-3.3-.1-11.1-9.5-19.2-23.1-4.4-7.5-8.9-14.7-10.1-16C44.1 55.5 40 53 31.6 53c-6.7 0-14.5 9.4-10.3 12.5.7.5 1.6 1.8 2 2.9q.8 1.6 2.1 1.3c3.5-1.4 5.3 1.9 3.2 5.7-7.2 13.5-25 .5-20.2-14.7C13.6 44.3 27 38.6 42.7 46.2m487.6-1.5q4.4 5 .3 9.6c-4.7 5.1-11.6 2.1-11.6-5 0-5.5 7.6-8.6 11.3-4.6M230 45.9c3 1.1 5.6 2.4 5.8 2.9.4 1.2-3 .6-7.5-1.4-1.7-.8-4.1-1.4-5.3-1.4q-1.8-.1-1.5-1c.9-1.4 2.3-1.3 8.5.9m-47.8.8c4.2 3.8 2.4 6.3-4.7 6.3-7.2 0-8-.9-4.4-5.4 2.4-3 6.3-3.4 9.1-.9m454.4.6c2.5 2.2 2.6 2.6 1.5 6-1.7 5-.8 6.1 4.4 5.4 3.3-.5 4.6-.2 5.9 1.2 3.2 3.5 1.7 5.6-5.9 7.9-2.5.7-2.9 1.3-2.7 3.4.3 2.6-2.1 5.8-6 7.9-2.5 1.4-7.2-4.5-5.7-7.3q2.7-5.2-4.1-4.2c-3.3.5-4.1.3-4.6-1.2a9 9 0 0 0-2.8-3.6l-2.1-1.7 2.4-2a9 9 0 0 1 6.3-2.1c3.9 0 3.9 0 3.3-3.4-.6-2.9-.3-3.6 2.7-5.9 4-3.3 4-3.3 7.4-.4m151.4-.5c1.8 1.5 2.2 2.5 1.6 4.6-.8 3.4-11.8 3.7-12.4.3-1.1-5.5 6.1-8.7 10.8-4.9m-457.1 3.6c1.9 2 2.2 3.2 1.7 6-.7 3.5-.6 3.6 2.3 3 3.3-.7 8 2 8.1 4.6s-5 6-7.6 5.4c-2.1-.5-2.4-.2-2.4 1.9q0 5.8-3.2 5.7c-3.1 0-4.6-2.8-3.8-6.7 1-4 .2-4.6-3.8-3.1-2.8 1.1-3.4 1-5.7-1.2-4.4-4.1-1.9-8.7 4.2-7.5 3.3.6 4.9-1.4 2.3-3-1.6-1-1.2-3.3 1-5.5 2.6-2.6 4.2-2.5 6.9.4m119.7-.2-.6 3q-.1.8-1.5.8c-1.5 0-2.1-4-.8-5.3 1.6-1.7 3.5-.6 2.9 1.5m289.7 1.9c2.4 3.3 1.5 5.2-3.8 7.9-6.3 3.2-10.5 1.6-10.5-4.2 0-6.8 10-9.4 14.3-3.7m-605.5.8c3.8 3.6 4 5.4.7 8.6-4.9 5-11.5 2.9-11.5-3.6 0-7.1 5.6-9.6 10.8-5m84.6-1.3c1.6.6 2.3 6.9.9 7.7-2.9 1.7-7.3-.6-7.3-3.7q-.2-6.6 6.4-4m333.4 2.1q1.2 1.3.8 2.1-.7.5-1.4-.4a7 7 0 0 0-2.9-1.8q-2.1-.8-2.3-1.7c0-1.3 4-.1 5.8 1.8m-135.3.8c3.4 3.3 3.3 7.4-.3 10.8-7.9 7.5-17-2.6-9.5-10.5q5-5.2 9.8-.3M829 54c2.6 2.6 2.5 4.3-.2 7.5s-6.1 1.5-7.2-3.6c-1.1-5.6 3.4-7.9 7.4-3.9m112.5.1c12.9 4.1 11.2 25.9-2.1 25.9-9.6 0-13-10.3-4.1-12.4q5.8-1.3-1.8-4.7c-6.1-2.7-14.5-.2-26.8 7.9l-3.8 2.5-2.4-2.3c-8.3-7.8 25.6-21.8 41-16.9m-690.6 1.3c.6.8 3.2 1.9 5.6 2.5q4.4 1.1 4.5 2.7c0 1.8.3 1.9-7.8-2.1q-9-4.3-4.8-4.5c.7 0 1.9.6 2.5 1.4m295.9 1.9c2.6 2.4 2.8 4.5.4 7.3-6.1 7.3-16-.5-10.1-8q3.7-4.5 9.7.7m-311.6-.6c2.6 2.9 3 5.9 1.3 7.7q-2.7 2.7-4 .6c-.3-.6-1.6-1-2.9-1-4.8 0-5.7-3.1-2-6.5q4.6-4.4 7.6-.8m262 .4A92 92 0 0 1 530 69.5c.8.7 2.6 1.6 4 2s2.7 1 3 1.4l4 2.4c1.9 1 5 3.1 6.9 4.7A61.5 61.5 0 0 1 564 94.9c0 .5-1.4 2-3.1 3.2l-3.1 2.2-5.1-5a84 84 0 0 0-19.2-15l-11.6-7.4c-1.5-1-4-2.1-5.5-2.4l-7.4-2.1-10-3a64 64 0 0 0-19-1.8c-13.9-.2-16.8-1.2-13.1-4.9 2.4-2.4 21.4-3.4 30.3-1.6m-459.4 2c3.4 1.2 4.8 3.5 3.2 5.4q-1.2 1.3.2 3.4c.9 1.6 1 2.3.1 3.2-1.6 1.6-4.4.4-3.7-1.6.7-1.8-5.1-8.5-7.3-8.5-1.4 0-1.7-1.2-.6-2.3 1-1 4.6-.8 8.1.4m678-.5c5.9 1.6 6 8.3.2 12.4-2.6 1.9-9 1.6-9-.4l-.9-3.4c-1.7-5.7 3.5-10.2 9.7-8.6m-511.7 1.6q5.2 1.2 5.7 3c.2 1 1.6 2.1 3.1 2.4 3.1.8 12 4.4 22 9.1 6.7 3.1 23.1 15.5 23.1 17.5s-6.1.6-9.2-2A82 82 0 0 0 242 85a28 28 0 0 1-4-3.2 102 102 0 0 0-23.5-10.3c-.5-.1-2.2-.6-3.7-1.3-8.1-3.4-34.9-5-47.1-2.7-3.3.6-3.7.5-3.7-1.3 0-4.3 4.5-5.4 21.6-5.4a43 43 0 0 0 12.4-.9c0-1.2 3.8-1.1 10.1.3m596.3.3c7.6.2 18.2 4 18.9 6.6.3 1 1.3 2.2 2.4 2.5A94 94 0 0 1 850 86.5c2.7 2.4 5.9 4.9 7 5.5 2.5 1.4 2.6 4.6.1 6-2.8 1.5-3.1 1.3-8.1-3.1-11.4-10.1-38.5-24.8-47.1-25.5l-4.5-.9c-5.6-1.5-7-1.7-20.4-2-11.7-.3-13.5-.5-13.8-2-.8-3.9 9-5.8 24.2-4.8zm43.2 2c3.1 4.8-1.2 9.8-6.4 7.3-3.7-1.8-4.4-7.4-1-8.7 3.8-1.6 5.7-1.2 7.4 1.4m-395.8 2.6c.3 3.7.3 3.7-7.5 7.4-17.6 8.3-30.1 20-50 46.9-8.8 11.8-9.5 12.5-11.8 10.6-2.6-2.2-1.6-5.3 4.5-13.8 3.3-4.6 6-8.6 6-8.8 0-2.9 26.7-31.4 29.4-31.4q1.5 0 1.6-.9c0-.5 3.5-2.9 7.8-5.4 17.2-9.9 19.5-10.4 20-4.6m-332.9-.3q3.3 4.8-.7 9.4c-3.3 3.8-12.2.1-12.2-5 0-7 8.9-10 12.9-4.4M90 64c0 1.1-4.2 5.2-4.8 4.6-.2-.2.4-1.6 1.3-3C88.2 63 90 62.2 90 64m160.3.9c1.6 1.6 1.1 7.4-.8 8.7-2.7 2-11-3.8-9.5-6.6 2-3.7 7.5-4.8 10.3-2.1m494.7 0c0 3.5-2.4 6.1-8.2 9-16.5 8.3-33.8 23-52.7 44.8l-5.4 6.3-3.1-1.8c-4.4-2.5-4.2-2.9 6.4-14.9 12.7-14.6 32.5-31.6 40-34.5 1.4-.5 3.4-1.7 4.5-2.7 1.1-.9 3.8-2.4 6-3.3l6.5-2.6c3.2-1.4 6-1.5 6-.3m-347.2 1.7c4.7 3.3 1.7 11.8-4.6 12.6-5.5.8-10.9-9.1-7-13 1.7-1.7 8.9-1.5 11.6.4m170.9 4.1c4.1 6.3-2.6 15-9.4 12-2.2-1-5.3-6.2-5.3-8.9 0-6 11.2-8.4 14.7-3.1m287.5-2c5.1 4.6-2 12.7-7.8 8.8-2.6-1.7-3.1-5.2-1.4-8.6 1.3-2.4 6.6-2.6 9.2-.2m71.6-.5c-.7 2.1-7.8 5.2-9 4-1.4-1.4.5-3.9 3.5-4.5q6.3-1.2 5.5.5m-786 2.5c-.2 2.1-1.4 3.3-4.8 5.2-2.5 1.3-6.3 3.5-8.5 4.9L115 89.5A218 218 0 0 0 86.3 121c-2.4 2.6-4.3 5.7-4.3 6.9 0 3.3-3.6 6.4-6 5.1-2.6-1.4-2.5-3 .2-7.7 2.3-4.2 9-14.5 9.8-15.3l4.5-5.5c4.5-5.6 12.3-13.5 18-18l6.3-5.3A11 11 0 0 1 118 79a75.8 75.8 0 0 1 22.3-10.9c1.4-.1 1.8.5 1.5 2.6m521.3.7c1.5 3.2-.5 5.7-20.8 25.5l-26.8 26.3a94 94 0 0 1-12.1 10.8c-2.1 0-4.5-3.6-3.7-5.6a880 880 0 0 1 45.7-45.5c3.2-3 7.9-7.3 10.3-9.7 5.1-4.9 5.9-5.1 7.4-1.8m-398.6 1.1c7 6.9-.8 14.1-8.4 7.7-3.3-2.8-3.4-2.8-1.8-5.9 2.6-5 6.4-5.6 10.2-1.8m20.9-.6c1.7 1.9 1.7 2.1-1.1 6.3-1.6 2.4-3.3 5-3.6 5.8q-1.4 3-5.2 7.9c-3.1 3.9-23.7 24-26.5 25.9-1.4.9-3.4 2.5-4.5 3.4-5.4 4.6-27.2 17.4-28.1 16.5-1.5-1.5-.5-6.1 1.7-7.9 2.6-2.1 12.8-9.4 16.4-11.8 11.4-7.6 27.2-23 35.5-34.5 10.4-14.6 11.8-15.6 15.4-11.6m70.1-.5c.8.7 1.7 2.5 2.1 4 .7 2.9.9 2.6-13.3 15.3a602 602 0 0 0-18.7 17.7c-16.1 15.7-25.4 23.9-26.5 23.2a25 25 0 0 1-3.1-3.5l-2-2.9 4.1-3.9 8.8-8.3c2.6-2.5 5.7-5.2 6.8-6.1a23 23 0 0 0 3.4-3.6c.8-1 2.3-2.6 3.5-3.4a485 485 0 0 0 25.2-22.6c8.7-8.2 7.9-7.7 9.7-5.9m127-.4q2.6 1-1.7.9c-2.1.1-3.8-.4-3.8-.9 0-1.2 2.7-1.2 5.5 0m8.5.5q0 1.4-2.5 1.5c-2.9 0-3.4-1.6-.7-2.3 3-.8 3.2-.7 3.2.8m208.6.6c2.2 2.4 2.1 7.5-.3 10.1-3.1 3.5-8.6 1.6-11.7-3.9-3-5.3 7.8-10.9 12-6.2m-501.1 9.2c1.2 17 .2 48.2-1.5 48.2q-1.4-.1-1.2-1.4c.3-1.5.3-30.3-.1-46.7-.3-13.3 1.8-13.3 2.8-.1m381.9-9.4c1.1 1.8-2.7 8.6-8.1 14.7q-8.6 9.8-.4-3.5c2.7-4.4 5.2-8.9 5.6-10 .7-2.2 2-2.7 2.9-1.2m-68.1 1.6 3.5 1.4.7 14.3c.9 20.9-1.2 56.8-3.6 59.2-.5.6-.9 2-.9 3.3 0 2.7-2.9 10.4-4.5 11.8-.6.5-1.9 2.3-2.9 3.8-4.4 7.1-10.5 6.1-7-1.1 8-16.7 11.4-49.4 9-86.7-.5-7.2.5-8.2 5.7-6m-302.3 1c.7.9 1.4 3.2 1.6 5.3 3.9 48.2-4.6 95.2-17.2 95.2-1.9 0-1.8-1.2 1-7.2 6.1-13.2 8.1-29.2 8.2-66.3l.3-27.8c.2-1.3 4.8-.7 6.1.8m595.7 2.7c1.5 4.3 2.1 16.2.8 16.8-1 .5-1.8-3.5-2.9-13.8-.6-6.7.3-8.1 2.1-3m-217 0c2.9 2.7 2.9 4.3-.2 8.4a18 18 0 0 0-2.5 3.8c0 .3-.8 1.4-1.7 2.5a101 101 0 0 1-15.6 16.6c-3.8 3.3-8.3 7.2-9.9 8.8-1.6 1.5-4.8 4-7.1 5.4A113.3 113.3 0 0 1 521 137c-2.5 0-1-7 1.8-8.1 15-5.9 27.4-13.8 40.8-26A116 116 0 0 0 583 78.3c0-.9 2.1-3.3 2.9-3.3.3 0 1.5 1 2.8 2.2m-492.3.9c6.6 5.2-.8 16-8.3 12-6.8-3.7-3.6-13.4 4.5-14 .6-.1 2.3.8 3.8 2m695.6-.5c.7.8.3 25.4-.4 26.2-.4.4-3.2.6-6.2.5-5.4-.3-5.4-.2-5.4 2.6 0 1.6-.2 3.6-.5 4.3-.5 1.2.9 1.4 6.7 1.4l7.3-.1.2 4c.2 5.9-.1 6.1-14.2 5.5l-12.7-.5.1-13.4c.2-16.1-.5-14.7 7.6-14.9 3.7-.1 7.1-.4 7.5-.7 1.2-.8.5-7-.8-6.8-9.3 2-14.7-.1-13.4-5.2.7-2.6 1.4-3.1 5.3-3.5a82 82 0 0 1 18.9.6m24.1 1.1c11 6.5 4.5 63.6-9 79.9-1.4 1.7-3.5 4.3-4.6 5.9-3.1 4.3-9.9 8.5-13.9 8.5-5.5 0-5.3-1.7 1.1-7.8 19.1-18.3 26.3-44.9 21.9-81-1-8-.6-8.5 4.5-5.5M186 90c.7 14.3.4 15-6 15-4.5 0-5 .2-5 2.2 0 3.7 1.2 4.5 6.5 4.4l5-.1v12h-10.3c-12.6.1-12.1.6-12.7-13.6-.5-13.4-.3-13.9 6.1-14.6l5-.6.9-3.5.7-3.3-5.6.5c-6 .6-6.6.2-7.3-4.8-.5-4.1 2.5-5.3 14.2-5.2l8 .1zm683.4-9.3c3.5 7.1-6.4 12-10.3 5.1-2.4-4.3-.3-7.8 4.9-7.8 3.3 0 4.2.4 5.4 2.7m18.8 2c1 .9 1.8 2.1 1.8 2.7 0 1.3-13.4 13.5-19.5 17.8l-7.5 6c-3.6 3-10.1 7.5-14.5 10.1L839 125l-8.9 4.9-7.3 4 .6-4.2c.6-3.9 2.9-7.7 4.6-7.7 1.5 0 24.8-15.1 30.4-19.7A71.4 71.4 0 0 0 876 89.2c9.3-8.8 9.5-9 12.2-6.5M364 85.2c0 .9.2 1.3 5 6.9 4.4 5.3 3.7 6.7-1 2-2.2-2.2-4-4.3-4-4.7 0-.3-.9-1.5-2-2.4-2.4-2.1-1.8-5.9.6-3.9.8.6 1.4 1.6 1.4 2.1m-304.1.2c1.2 2.2-7.3 19.8-10.8 22.6-.4.3-2.3 3-4.3 6-7.5 11.4-12.6 15-21.4 15-18.9 0-24.4-27.9-6.6-33.5 12.2-3.8 25.3 3.4 19.7 10.9-1.5 1.9-1.5 1.9-4.6-.3-9.6-7.1-19.1.5-14 11.4 4.8 10.2 13.8 4.4 28-18.1 10.9-17.3 11.8-18.2 14-14M303.5 87c4 4.2 2.8 4.5-2 .4-2.4-2-3.4-3.4-2.4-3.4.8 0 2.8 1.3 4.4 3m301.1 1.5c1.3 1.4 2.6 2.5 2.9 2.5 1 0 9.4 6.5 9.5 7.2.1 2.4-7.1-1.8-11-6.3-.3-.3-2.3-1.8-4.5-3.2-3.5-2.4-3.7-2.7-1.6-2.7 1.3 0 3.4 1.1 4.7 2.5m-127.8 1.1c.6.2 1.2 1.9 1.2 3.8q0 3.5 1.8 4.5c2.5 1.3 4.2-.4 4.2-4q.2-5.8 6.2-5.4l4 .4c4 .4 1.1 14.5-3.1 15.1-6.2.9-6.2 7-.1 7q4.8.1 4.7 9l-.2 5.5h-4.4c-4.9 0-5.6-.8-6.6-6.8-1-6.4-5.3-4.9-6.5 2.3-.5 3.4-.7 3.5-5 3.5h-4.5v-13l3.5-.5c6.6-1.1 8.7-5.3 3.3-6.6-5.9-1.4-7.3-3-7.3-8.7 0-7.3 1.5-8.4 8.8-6.1m-247 1.9c1.1 1.5 6.8 4.5 8.6 4.5q1.5.1 1.6 1.4c0 1.7-4.5 6.6-6.2 6.6-.7 0-2.8 1.4-4.6 3.1-5.2 4.9-6.5 3.5-5.8-5.9l.6-9.4c0-1.9 4.5-2.1 5.8-.3m81.2 1q2 2.3 1.6 2.5c-1.2 0-5.6-3.2-5.6-4.1 0-1.6 1.6-1 4 1.6m128.5 1.7c-.2 1.8-.3 7-.4 11.5-.1 7.6-.3 8.3-2.1 8.3q-1.8-.1-2-1t-1.5-1-1.5-.9c0-.5-1.3-1.4-3-2-1.6-.5-3-1.5-3-2q-.1-1-1.5-1.1t-1.5-1.5q0-1.4.8-1.5c.4 0 2.7-1.8 5.2-4.1 3.5-3.2 9.8-7.9 10.6-7.9zm-75.8 0c2.7 2.5 2.9 4.8.8 8.8-2.3 4.4-8.3 4.3-11.9-.2-5.3-6.8 4.7-14.6 11.1-8.6m375 8.4q.2 13.6-3.2 8.4c-.3-.5-2-1.6-3.8-2.5a29 29 0 0 1-6-3.8l-2.8-2.2 2.8-3c2.9-3.1 11.3-7.9 12.2-6.9.3.3.6 4.8.8 10m-204.2-7.2c2 2.3 6.7 5.6 7.5 5.1 1-.6 4.3 3.2 3.6 4.3-.3.5-3.6 2.4-7.3 4.3a52 52 0 0 0-8.1 4.6c-2.4 2.3-2.7 1.4-2.5-8.5.4-12.5 2.2-15.2 6.8-9.8m70.4 1.2c5.5 7-1.6 16.1-10.7 13.7-4.9-1.2-5.8-9.8-1.6-14.4 2.7-3 9.7-2.6 12.3.7m-469.4 10.5c0 11.8-.9 13-6.8 8.7a60 60 0 0 0-6.9-4.2c-4.9-2.2-4-4.5 3.9-10.6 8.9-6.9 9.8-6.4 9.8 6.1M838 99c3.8 3.7 3.8 4.6-.2 8.1-5.3 4.6-6.4 4-6.6-4.1-.3-8.2 1.4-9.3 6.8-4m101.2-1.3c17.2 6.6 12 30.3-6.6 30.3-10.1 0-19.7-9-13.6-12.7 2.4-1.6 5-.7 5 1.7 0 2.5 4.6 6 7.8 6 6.7 0 12.8-11.2 8.5-15.5-7.6-7.7-19-2.2-38.1 18.7-6 6.5-8.5 7.6-9 3.8-.3-2.5.5-3.5 16-21.2 8.5-9.7 21.4-14.5 30-11.1m-640.7 1.8c3 2.9 3 3.1.5 7.2-3.2 5.2-10.9 5.7-13.2.8-3.4-7.4 6.9-13.9 12.7-8m509 8.9c-1 12.7-3.4 12.1-2.8-.6.5-9.8.9-11.6 2.4-10.1q1.1 1 .4 10.7m-139-6.9c4.1 4 1.3 10.5-4.4 10.5-2.6 0-8.1-4.4-8.1-6.5 0-5 8.8-7.8 12.5-4m-320.1 4.7A558 558 0 0 0 383 139q1.1.2 2.8 1.7a118 118 0 0 0 19.6 13.6 194 194 0 0 0 28.9 15.8c2.8 1.5 9.9 3.7 14.7 4.4 6.2 1 14 5.8 14 8.6 0 2.3-22.4-1.6-32.4-5.6-8.2-3.3-9.5-3.2-10.2.5-.7 3.2-1.4 4-5.8 5.8-2.8 1.2-2.8 1.2-2.2-1.4 1.5-5.7-5.4-7.8-7.3-2.2q-2.1 5.7-4.1-2.8-1.6-6.7 2.1-9.2c2-1.4 1.1-5.2-1.2-5.2-.5 0-5.6-3.5-11.2-7.7s-11.8-8.9-13.7-10.1c-3.5-2.4-7-5.7-26.8-25.1a105 105 0 0 0-11-10.1c-2.6 0-3-4.9-.7-7.4 3.1-3.4 2.6-3.6 9.9 3.6m33.6 3.5q-.1 1.3-1.5 1.9-1.4.7-1.5 1.9c0 .6-.9 2-2 3s-2 2.4-2 3-.7 1.8-1.5 2.5q-1.6 1.5-1.5 0c0-1.7 4.1-8.3 5.7-9.3 1.7-1.1 1.6-4.2-.2-6.1a6 6 0 0 1-1.5-3.3c.1-2.1 6 4.2 6 6.4m-105 2.5c2.5 3.3 5 6.9 5.7 8.1s3.1 4 5.3 6.2 6.7 7.4 10 11.5c13.3 16.9 20.9 22 32.3 22 12.2 0 25.6-7.4 30.7-16.9 1.4-2.7 4.2-2.7 5.8 0 2.8 4.4-16.2 23.3-25.5 25.3-4 .9-4.1 2-.7 7 4.2 6.2-.9 15.6-8.6 15.6-1.9 0-2-.1-.6-1.6 1.9-1.9 2-3.5.3-5.8s-5.3-1.4-6.2 1.5c-.8 2.3-3.1 2.5-3.9.3-1.1-2.9-.6-9.9.9-11.8 2.4-3.2 1.8-4.3-3.7-6.1A51 51 0 0 1 296 149c-1.4-1.9-4.1-5.3-6-7.5l-4.5-5.6a314 314 0 0 0-14.3-20.4c-3.9-4.8-4.5-7.1-2.6-10 1.7-2.5 1.9-2.6 2.9-1 .5 1 3 4.4 5.5 7.7m368-7.1c0 2.6 22.2 20.1 24.4 19.3.6-.2 2.7 1.1 4.6 3 1.9 2 4.1 3.6 4.8 3.6.6 0 1.2 1.1 1.2 2.3q.1 3.8 33.2 28.2c17.4 12.8 42.8 22.7 42.8 16.6 0-2.5 3.1-2.9 5.4-.6q1.4 1.4 2.1 1.5t2.1 1.4c7.9 8-24.6 3.8-38.6-4.9-3.4-2.1-6.6-2.3-5.4-.3 1.4 2.2-7.3 8.8-11.6 8.8-2.6 0-2.5-.8.2-3.7l2.2-2.3-2.2-2.3c-2.6-2.5-5.5-1.5-6 2.2-.4 2.8-2.6 2.7-4.6-.4-2.2-3.3-2-7 .6-12.4 2-4.2 2.1-4.5.4-5.5-4-2.4-15.7-11.5-26-20.1l-16.9-14c-22.7-18.5-20.9-16.5-17.2-20 2.6-2.3 4.5-2.5 4.5-.4m-30.1.6a91 91 0 0 1-17.4 16.3c-2.1 0 15.1-17.8 17.4-17.9q1.6-.3 0 1.6m97.6 4.8a55 55 0 0 0 8.4 5.5q.9.2 2.1 1.5t2.8 1.5c.9 0 2.5.9 3.6 1.9a93 93 0 0 0 28.1 9.2l13 1.9c5.7.9 14.9.2 25.5-1.7q11.5-2.1 6.3 6.9c-2.9 5.1-48.5 3.9-59.1-1.6-1.7-.9-3.7-1.6-4.5-1.6-1.1 0-12.5-5.6-22.7-11.1a62 62 0 0 1-16-12.5c0-6.5 3.6-6.5 12.5.1m182.2-1.8c4 5.4-2 12.3-8 9.2-4.1-2.2-4.9-5.8-2.1-9.8 2-2.7 8-2.4 10.1.6m-865.9.5c2.2 1.9 1.4 3.8-1.7 3.8-5.6 0-7.7-2-4.9-4.8 1.2-1.2 4.3-.7 6.6 1m551 3.8c1.7 2.1 3.2 4.1 3.2 4.4 0 2.3 18.1 22.3 24.8 27.5 17.8 13.8 30.2 13.2 45.5-2l8.9-8.8 2.9 2.6c4.1 3.7 3.7 4.9-3.4 12.3a51 51 0 0 1-18.9 13.7c-3.2.6-3.4 1.7-.7 5.8 3.1 5 3.3 5.6 1.9 9.4-2.2 6.3-8.3 11.6-8 6.8.4-3.8.1-4.5-2-5.2-2.5-.8-5 1-5 3.7 0 4.1-3.4 1.5-4.3-3.4-1-5.1.8-9.2 4.4-10.3 2.7-.9 2.4-3.5-.3-3.5-2.9 0-9.5-2.3-11-3.8q-1.2-1.1-2.2-1.2c-1 0-7.1-3.9-11.6-7.5a233 233 0 0 1-21-22c-3-3.7-6.2-7.5-7.1-8.4-5.1-5.6-6.1-9.2-3.2-12.3 2.3-2.6 3.4-2.3 7.1 2.2m292.9-2.3c.3 1 2.3 3.8 4.4 6.3 2 2.5 6 7.9 8.7 12 5.2 7.7 12.2 16 20.2 23.7l8.5 8.3q6.8 6.7 8.2 1.9.6-2 2.2-1.3c3.9 1.6 4.8 1.5 5.3-.4.4-1.6 0-2.2-1.9-2.7-4.9-1.2-1.3-10.7 4.4-11.8 7.4-1.4 15.9 5 15 11.4-1.5 11-6.6 15.4-19.3 16.5-6.9.5-15.4-1.5-15.4-3.6q-.2-.8-1.7-1.4c-4.1-1.4-26-25.5-30.1-33.3-.7-1.2-1.8-2.7-2.5-3.5s-3.5-4.5-6.2-8.3c-2.6-3.9-5.5-7.8-6.3-8.8-1.4-1.6-1.3-2 .8-4.2q4.3-4.4 5.7-.8m63.7-1.1c.9.3 1.6 1.4 1.6 2.4 0 1.9-8.8 2.5-10.5.8-2.7-2.7 4.1-5.1 8.9-3.2M68.8 112c3.5 3.3 2.8 7.6-1.5 9.8-2.1 1.1-9.3-4.9-9.3-7.7 0-4 7.3-5.3 10.8-2.1m349.4 9.1c4.2 2.7 8.1 4.9 8.5 4.9.9 0 12 4.3 16.8 6.6a45 45 0 0 0 15.8 2.7c.4-.3 1.9.7 3.3 2.2l2.5 2.7 12.2-.6 18-1.2c6-.6 6.3-.4 4.7 2.6-1 1.8-2.2 2-17.9 3.5-22.4 2-53.7-6.8-75-21-7.5-5-9.4-9.7-4.3-10.7 1.8-.4 2.8.2 15.4 8.3M106.5 118a45 45 0 0 0 11.5 7 55 55 0 0 0 15 6.2l7 1.9c11.9 3.3 39.5 4.6 52.8 2.5 5.9-1 7.3 1.6 3.3 6.5-2.1 2.6-38.6 3.4-49.1 1-13.4-3-17.3-4.1-26-7.6a87 87 0 0 1-24.2-14.4c-2.6-2.2-2.6-2.5-1.2-5.2 2-3.9 3.3-3.7 10.9 2.1m163.9 4.3c4.3 6.2 5.6 9.7 3.9 9.7-1.1 0-5.6-5.8-7.6-9.6-.9-1.7-2.3-3.6-3.1-4.3-.9-.8-1.6-2-1.6-2.7 0-2.9 3.9.3 8.4 6.9m-207 7.4c2.7 2.9 5.5 5.3 6.3 5.3 1.8 0 9.3 7.5 9.3 9.3 0 9.3 63.6 42.1 66.6 34.3 1.1-2.8 6.4 1.9 6.4 5.8 0 1-13.5 0-17.7-1.4-1.5-.4-5-1.1-7.6-1.4l-4.8-.6.7 3.5c.5 2.9.2 3.8-2.1 6-3.5 3.2-3.7 3.1-5.5-.8-1.3-2.7-2-3.2-5-3.2-4.6 0-5-2.4-1-5.8 4.4-3.8 4.7-3.4-6.9-10.2a220 220 0 0 1-20.5-15.9l-13-11.8c-10.6-9.6-9.7-8.6-16.1-16.3-4.8-5.7-5.4-7.6-3.3-10.3.8-.9 2-.1 5.2 3.5a198 198 0 0 0 9 10M693 118.9c0 .5-1.3 2.1-3 3.4-1.6 1.4-3 3-3 3.6q0 1-1 1.1c-1.6 0-1.2-.8 2.2-5.1q4.6-5.8 4.8-3m-123.5 2.5 3.5 4.6a42 42 0 0 0 4.3 5.4c1.5 1.7 2.7 3.6 2.7 4.3s-1.2 2.4-2.7 3.7a56 56 0 0 1-10.5 8.6c-.3 0-2.1 1.2-3.8 2.6-3.5 3-9.8 6.4-11.7 6.4-2.5 0-1.3-1.8 2.3-3.5 8.8-4.2 27.2-19.5 23.4-19.5-1.3 0-5-3.7-5-4.9 0-.5-1.1-1.8-2.3-2.8-2.8-2.1-4.9-5.8-4-6.7s1.6-.7 3.8 1.8m132.4.1 5.1 4.5q4 3.6 1 1.9c-3.6-1.7-9-6-9-7q.1-2 2.9.6m-302.1 2.2c1 1 3.5 2.7 5.6 3.8s4.1 2.5 4.3 3.2q.6 1.2 2.3 1.3c2.1 0 8 3.1 8 4.2s-3.8 1-4.5-.1c-.3-.5-2.2-1.5-4.3-2.2-2-.6-4.7-2.3-5.9-3.5s-3.1-2.4-4.3-2.4q-1.8-.1-2-1t-1.4-1c-1.8 0-2.9-1.6-2.1-3q1.3-2.2 4.3.7m-64.9 1.7c1.8 2 2.1 3 1.5 6.1-.7 4-.9 3.9 3.9 2 1.8-.8 6.7 3.2 6.7 5.5 0 3.3-4.9 5.6-8.2 3.7q-5-2.7-2.6 2.8c1.1 2.5 1 3-1.5 5.1-5.2 4.4-11.3 1.5-10-4.7.6-3.1.5-3.1-2.6-2.4-2.6.6-3.6.2-6.2-2.5l-3.2-3.1 2.3-2.5c2.5-2.6 5.9-3.1 7.8-1.2s3.7-.4 2.3-3c-2.7-5.1 5.8-10.1 9.8-5.8m301.3-.7c1 .9 1.8 2.4 1.8 3.5q-.2 2 2.9 1.6c3.1-.2 6.1 1.6 6.1 3.7 0 1.8-2.7 3.8-5.3 3.9q-2.3 0-2.5 2.7c-.8 6.8-7.2 7.6-7.2.9 0-4.2-.8-4.7-4.1-2.9-2.3 1.2-5.9.3-5.9-1.5s2.9-4.1 5.4-4.1c1.6 0 2.1-.6 2.1-2.6 0-4.9 3.8-7.9 6.7-5.2m-370.7 8.7c1.7 5-4 10.1-8.9 7.8a6.4 6.4 0 0 1 4.9-11.8c1.8.7 3.4 2.4 4 4m137.2-1.2c2.3 1.8 1.5 6.5-1.3 8.7-3.2 2.5-3.8 2.6-5.8.6-.8-.8-1.9-1.5-2.4-1.5-1.7 0-2.5-6-1.2-8.5 1.3-2.4 7.5-2 10.7.7M698 131c2.9 2.9 1.8 8-1.6 8-6.5 0-10.5-8.4-4.6-9.3l3.5-.6c.4 0 1.6.8 2.7 1.9m16.5-1.1c.3.5 3 2.1 6 3.5 7.8 3.5 11.2 6 7 5a22 22 0 0 1-5.7-2.5 10 10 0 0 0-3.6-1.9c-1.5 0-7.2-3.4-7.2-4.3 0-1 2.8-.9 3.5.2m-147.2 3.9q3.5 5.8-4.2 9.7c-4.6 2.3-11.1-1.4-11.1-6.4 0-7.4 11.5-9.9 15.3-3.3m295.1 4.7c1.3 5.2-1.4 9.5-6 9.5-2.5 0-6.4-4-6.4-6.5 0-7.1 10.7-9.7 12.4-3m-581.3-.3c3 3.7 2.5 4.2-11.1 13.4-13.2 8.9-14.8 10.8-10.7 12.3 7.5 2.9 6.3 17-1.7 19.9-4 1.5-7.6 1.5-7.6.2q.1-1 1.3-1c3.4 0 5.2-2.7 3.8-5.4-2.1-3.8-6-3.6-6.7.4-.4 1.6-1 3-1.5 3-1.4 0-3-4-2.5-5.8 1.7-5.2-1.5-5.3-10.9-.6-30.6 15.5-58.7 19.1-72.5 9.2-6.9-5-9.8-8.6-10.5-13.2-.3-2.3-1.1-6.4-1.6-9.1-2-9.3-1-12.9 3.4-13.3 3.9-.3 4.3.2 3.8 5.5a92 92 0 0 0 7.4 24.9c3.9 6.6 12.4 8.7 19.8 4.8 1.8-.9 4.8-2 6.7-2.4l8.7-2.2c2.8-.8 6.5-1.3 8.1-1q2.8.4 9.8-3.1c3.8-1.9 8-3.8 9.4-4.2a39 39 0 0 0 8-4.5 351.7 351.7 0 0 0 42.2-28c1.6-2.6 2.5-2.5 4.9.2m135.2 1c5.1 2.6 6.2 8.3 2.5 11.8-4.3 4-11.5-.2-11.1-6.5q.8-9.3 8.6-5.3M710 139c3.4 1.8 4.4 4.8 2.5 7.6q-2.9 4.4-6.2.4c-1-1.1-2.3-2-2.9-2-2.2 0-2.4-3-.4-5 2.2-2.2 4.2-2.5 7-1m-610.6 1.9c3.7 4.1 0 12.6-3.8 8.8-.9-.9-3-2.4-4.6-3.4-3.6-2.1-3.8-3.6-.8-5.7 3-2.2 7.1-2 9.2.3m11.3-.8a18 18 0 0 0 6 2.4q4.8 1.2 5.2 3 .5 2-1.5 1l-4.9-1.9c-3.8-1.4-9.3-5.6-7.3-5.6a4 4 0 0 1 2.5 1.1m632 3.3c1.1 1-6.2-.1-8.6-1.3q-2-1.2-2.1-2.1c0-.9 9.4 2.1 10.7 3.4m-156.2-.7c3.4 3.9 3.2 4.2-3.8 9.3-19.2 13.8-26.9 18.4-33 19.5-4.1.8-4.8 2.8-1.7 4.5s4.9 5.9 3.8 9.1c-.8 2.4-5.8 5.9-5.8 4.1 0-1.2-3.9-5.2-5-5.2-.5 0-1.8 1-3 2.2q-3.8 4.4-3.2-3.7c.2-5.4-1.7-5.8-10.9-2.7-7.1 2.4-26.2 4.5-36.9 4.1-18.9-.9-33.3-13.3-34.2-29.4l-.3-6h4c3.5 0 4 .3 4.8 3 4 13.9 4.6 14.9 11.2 19.4 8.2 5.5 19.3 6.9 37.6 4.6 3.7-.5 25.9-6.9 29.4-8.5 19.7-9 31.7-15.6 35-19.4 1.2-1.3 8.8-7.6 9.3-7.6a15 15 0 0 1 2.7 2.7m-339.1-1.1c3.3 1.3 1.9 6.6-2.5 9.6-4.6 3.3-5.6 3.4-8.1 1.1-5.9-5.3 2.5-13.8 10.6-10.7m300 1.6c4 5.7.7 12.2-6 11.6-9.5-.8-8.5-13.8 1.1-13.8q3.5 0 4.9 2.2m209.3.4c1.7.5 2.3 1.6 2.8 5.7 1.8 13.6 12.7 28.8 18.5 25.7q1.8-1 5.2.4a40 40 0 0 0 8.6 2.1q5.2.8 5.2 2.1c0 1.1 2.3 1.4 11.3 1.4 16.7 0 31.2-5.2 50.5-18.2 7.9-5.3 8.4-5.7 16.3-12.7 5.4-4.8 5.4-4.8 7.5-1.6 1.9 3-.2 6.5-3.8 6.5-1 0-2.9 1-4.1 2.3s-5.2 4.7-8.9 7.6c-7.4 5.8-7.8 6.6-4.7 10.2 1.7 2 2 3.2 1.5 6.8-1 7.5-5.6 10.6-6.6 4.5-.6-3.3-3.9-4.4-6-1.9-2 2.4-4 1.8-4.7-1.5-.7-3.9-1.8-4.5-4.7-2.7-5.7 3.8-23.5 6.9-35.6 6.4-14.5-.7-35.2-6.2-36.8-10q-.4-.6-1.6-.7c-4.3 0-12.8-12.8-15-22.9-2.1-9.2-1.1-11.1 5.1-9.5M726 147c3.7 3.7 1.7 11-3 11-3 0-8-4.3-8-6.8 0-5 7.4-7.8 11-4.2m193.8 1c1.2 1.2 1.9 2.7 1.5 3.6q-.6 1.3-1 1c-.2-.2-1.7 0-3.3.4-4.1 1.2-5.7-1-3.5-4.4 2.1-3.1 3.4-3.2 6.3-.6m-480 1.3c1.7 1.4 1.5 7.7-.5 9.9-4.5 5-13.9-1.3-10.9-7.3a7.5 7.5 0 0 1 11.4-2.6m8.5 5.5c.2 4.4 1.2 9.3 2.1 11s1.2 3.3.7 3.6c-1.8 1.1-3.8-3.2-5-10.4-2-12.1-2-12-.1-12 1.4 0 1.8 1.3 2.3 7.8m326.2-6.8q4.6 0 1.9 1c-2.6 1-11.6.1-10.8-1.2.4-.5 1.6-.7 2.8-.4s3.9.6 6.1.6M71 152.9c0 2-6.1 12.2-9.5 15.9a12 12 0 0 0-2.5 3.3c0 .9-9.8 7.3-16 10.5-14.4 7.4-32.1-.8-29.6-13.8 2.3-12.2 18.7-13.4 17.1-1.3q-.5 5.2.4 6c.6.3 1.1 1.5 1.1 2.5 0 4.4 6.9 2.8 13.6-3.1A52.3 52.3 0 0 0 60 157.6c0-.4 1.4-2.7 3.1-5.1 3.3-4.6 7.9-4.3 7.9.4m457.3-3.5c3.4 2.6 1.1 11.1-3.3 11.7-8.2 1.2-11.2-8.4-3.6-11.7 3.9-1.7 4.7-1.7 6.9 0m318.1.8c5.3 7.6-4.7 15.9-10.9 9.2-2.7-3-3.1-5.1-1.2-7.5 3.3-4.3 9.7-5.2 12.1-1.7m-729.9 1.9c5.1 6.2 1.7 10.3-5.7 6.9-5.5-2.4-6.5-5.7-2.6-8.4 3.3-2.3 5.3-2 8.3 1.5m61.5-.3c0 1.3-5.7 3.3-7.6 2.5q-2.2-.6 2.7-1.8l4.7-1.4q.2 0 .2.7m51.8 1.9c2.3 3.1 1.4 5.1-3.8 7.7-5.7 2.9-8 1.9-8-3.4 0-5.9 8.2-8.9 11.8-4.3m257.5 2.3c1.7 2.7 1.6 3-.5 5.4-3.8 4.3-8.1 4.5-10.1.5-3.7-7.8 6.2-13.4 10.6-5.9m254.1-1.8c1.9 2.7 2.1 6.9.4 8.6-2.3 2.3-8.6 1.5-10.4-1.4-4.2-6.3 5.7-13.4 10-7.2m40 1c4.8 2.1 4.6 7.2-.3 10.1-3.7 2.1-4.3 2.1-6.9-.2-4.5-3.8-2.4-8.9 4.5-11 .1-.1 1.3.4 2.7 1.1m-30.3 10.1c2.3 4.7 2.4 5.7.4 5.7-1.5 0-3.7-4.2-3.3-6.4.1-.6-.4-2.3-1.2-3.8a7 7 0 0 1-.5-4.5q.8-2.4 1.7 1.7c.6 1.9 1.8 5.2 2.9 7.3m-704.7-5.1c3 4.5.5 8.9-3.2 5.5-1-1-2.8-1.7-4-1.7q-2 0-2.2-1c0-1 6.1-7.2 6.6-6.7.2.1 1.4 1.9 2.8 3.9m89.1-1.7c3.1 3 3.1 4.7.3 8-3.7 4.1-10.8 1.1-10.8-4.7 0-5.7 6.2-7.7 10.5-3.3m755.5.2q2.2 2.7 1 3.7-1 1.3-3.5-1.8c-2.2-2.8-2.4-2.8-4.1-1.1q-1.8 1.8-2.2.6c-1.3-3.9 5.9-5.1 8.8-1.4m-811.2 1.6c3.2 3.3 3.6 6.7.8 6.7-3.2 0-7.9-7.4-5.9-9.3 1.1-1.2 1.8-.8 5.1 2.6m747.6-1.2c3.2 2.5 3.4 6.4.4 9.6-4 4.3-11.8 1.2-11.8-4.7 0-3.1 3.9-7 7-7 1 0 2.9.9 4.4 2.1m-648.5 5.4c7.5 3.8 4.2 13.3-3.7 10.6-7-2.5-8.3-6.3-3.6-10 3.2-2.5 3.7-2.5 7.3-.6m629.5 2.7c-2.8 5.5-6.4 8.7-6.4 5.7 0-1.3 6.1-8.7 7.3-8.8.4-.1 0 1.4-.9 3.1"/><path d="M638.2 17.2c-1.9 1.9-1.4 4.6.9 5.3 2.7.9 4.2-.6 3.7-3.6-.3-2.7-2.7-3.6-4.6-1.7M412.5 28.6c-3.2 3.2.5 8.6 4.4 6.4 2.3-1.2 2.6-2.3 1.1-4.9-1.4-2.6-3.7-3.3-5.5-1.5M241.6 32.6c-3 2.9-.7 7.2 3.3 5.9 2.7-.8 3.2-2.9 1.5-5.4s-2.7-2.6-4.8-.5M850.9 39.6c-1.6 2-.1 4.8 2.9 5.2 2.5.4 3.9-3.2 2.2-5.3q-2.5-2.9-5.1.1M277.1 36.1q-2.1 2.1-1.9 4.7c.4 3.4 2.8 4.2 2.8.8 0-1.5.8-3 2.1-3.6 2.5-1.4 7.9-.3 7.9 1.6q.1 1.3 1 1.4c1.4 0 1.3-4.3-.2-5.8-2-2-9.1-1.5-11.7.9M365.2 38.3c-1.2 1.3-2.2 2.9-2.2 3.5 0 1.9 2.5 1.4 4.5-.8q3.9-4.2 7.7 1c3.5 4.8 5.9 4.1 3.3-1-2.8-5.4-9.5-6.8-13.3-2.7M61.4 43.3q-2.8 2.4-2.1 4.2c.7 1.6 1 1.5 3.2-.9 2.1-2.3 5.7-2.9 7.1-1.2l1.1 1.9c.8 1.6 1.1 1.7 2.2.3 3.7-4.5-6.8-8.3-11.5-4.3M891 47.3c-3 1.5-4.3 7.7-1.6 7.7q1.5 0 1.6-2.4c0-4.1 6.6-5 10-1.4 1.6 1.8 2.3 1.9 3.3.9 3.5-3.6-7.6-7.7-13.3-4.8M668.8 151.1c-4.8 3.6-1.7 9.9 4.9 9.9 6.5 0 8.2-6.2 2.7-9.8-4.3-2.7-4.2-2.7-7.6-.1M369.2 156.6c-7.8 8.1 3 17.4 10.9 9.5 3.9-3.9 3.7-5.6-1-8.5-2.2-1.4-4.2-3-4.6-3.6-.9-1.5-1.7-1.2-5.3 2.6"/></svg>