<svg xmlns="http://www.w3.org/2000/svg" width="1526.7" height="916" viewBox="0 0 1145 687" fill="currentColor"><path d="M0 1q0 3 10.6 13.7c6.2 6.3 7.2 7.8 7.6 11.7.7 5.6 3.9 10.1 8.4 11.8 2.6.9 4.2 2.4 5.6 5.3 1.1 2.2 2.6 4.7 3.3 5.5.8.8 2.8 5.1 4.5 9.5s3.6 8.5 4.1 9.2c1.1 1.2 1.8 3 9.4 23.3a96 96 0 0 0 13.7 27.5l6.1 8c1.2 1.6 5.7 6.3 9.9 10.5 6.5 6.3 7.5 7.8 6.6 9.3-1.6 3-2.2 16.7-.9 21.5q2.5 9.4 16.4 16.2l8.1 4.1-.1 28.9c-.1 32.2 0 31.4-5.3 30.5-7.2-1.2-15 5.1-15 12.2 0 9.4 6.9 17.7 14.8 17.8l4.7.1.2 26c.4 65.1.3 119.2-.2 120.7-.5 1.3-1.6 1.5-5.3 1.1-8.9-1.1-14.2 3.7-14.2 12.7 0 9.8 6 16.2 15 16.1 5-.1 4.7-2.5 4.6 35.1-.1 35.3.3 37.6 4.8 28.3 1.6-3.2 3-4.4 8.5-6.8 14.4-6.3 29.5-14.8 32.1-17.9a138.3 138.3 0 0 0 25.5-21.7c9.9-10 10.1-10.2 13.3-7.2 4 3.8 3.4 5.2-7.3 16.6a1989 1989 0 0 0-49.8 55.8c-4.3 5.2-5.3 5.6-6.2 2.3-2.2-7-10.2-11.2-19.2-10.1-7.6.9-8.4 1.4-11.6 7.2-5.4 9.9-3.1 18.6 6 23.2 5.6 2.8 5.7 2.6-4.3 16-9.4 12.5-9.8 13-13.1 13-12.5.1-20.7 16.6-22.7 45.5C66.7 661 52.7 683 37.1 683c-4.9 0-7.2 1.2-5 2.6 3.8 2.3 18.1-.2 29.9-5.3a106 106 0 0 0 28.5-25.8c5.6-7.8 14.6-21.8 15.5-24a742 742 0 0 1 18.6-38.1q5.5-11.2 9.1-8.2c17.9 15.6 40.2-11.1 24.1-28.8-1.8-2 2.7-10 8.2-14.4l5.4-6.5c2.6-3.3 8.3-9.8 12.6-14.5a925 925 0 0 0 27.6-31.2c5.7-6.9 6.3-6.9 11.6-2l4.1 3.8-12.5 12.5a154 154 0 0 0-36.9 54.6c-5.6 12.9-5.6 16.7.2 14.6q3.1-1.2 7.8-.4c2.5.5 15.5.7 28.8.6 26.6-.3 26.7-.2 25.5 5.5-2.5 12.2 11.7 23.3 22.5 17.7 7.8-4.1 9.6-7.1 9-14.7-.3-4-.2-7.2.4-7.5 1.2-.8 104.7-.8 105.9 0 .4.3.6 3.1.3 6.3-.7 7.8 1.2 11.4 7.7 14.7 12.8 6.5 23.9-.3 22.8-13.9-.7-7.9-1.3-7.6 15-7.6h12.7l5.8-12c3.3-7 6.3-12 7.1-12 3 0 11.1 18.5 9.9 22.8-.5 2.1-.3 2.2 8.3 2.3 24.3.1 27.1.7 25.2 5.5-4.4 11.8 15.7 22.9 24.5 13.5 3.3-3.4 5.7-9.4 4.6-11.2-4.9-7.8-1.7-8.3 57.1-7.4l47.8.6c6.6-.2 7.7.9 7.7 7.1 0 8.6 5.6 13.8 14.8 13.8 7.1 0 13.2-9 10.6-15.8-2-5.1-.9-5.5 11.5-4.9 13.6.6 12.3 1.4 18.1-10.8 6.6-13.8 8.2-16 10.4-14.1 1.5 1.4 9.9 17.3 12 22.8l1.1 2.8h13.4c16.8 0 16.6-.1 16.6 6.2 0 8.9 5.2 14.8 13 14.8 7.9 0 15.1-7.4 13.5-13.9-1.8-7.3-7.6-6.6 54-6.7 30.3 0 56.9.2 59.2.4l4.1.4-.1 5.9c-.2 7.1 2.8 10.9 10.5 13.5 10.8 3.6 19.8-4.2 16.8-14.6-1.4-4.9-1.7-4.8 23-5.5 36.9-1.1 35.3-.8 32.5-6.1-.8-1.6-1.5-3.4-1.5-4-.1-11.7-30-55.5-44.9-65.8-5.1-3.6-5.2-5.6-.2-8.9l4-2.7 4.9 5.3c2.8 2.8 6.3 6.8 7.8 8.7 9.4 11.3 53.6 55.5 56.6 56.5 2.6.9 3.4 4.7 1.2 6-6 3.4-9 10.3-8.1 18.5 1.7 14.9 29.1 19.4 33.7 5.5 1.5-4.6 2.8-4.4 8.8 1.2 14.2 13.5 19.7 17.6 30.6 22.8 24.9 11.9 29 13.6 36.9 15.4a227 227 0 0 0 41.2 6c5.2-.7 3.3-2.4-3.5-3.2a41 41 0 0 1-21.6-7.5 135 135 0 0 1-19.6-18.7 189 189 0 0 0-28.6-30.4 43 43 0 0 0-17.2-4.1c-8.6-.1-11.9-3.9-8.5-10q2-3.6 0-13.6c-1.9-9.2-17.5-14.2-26.2-8.4-2.4 1.6-4.8 3-5.3 3-2 0-23.5-19.6-39.3-35.9l-17.9-18.3c-11.9-12-11.7-10.2-2.7-20.6 2.4-2.8 4.5-2.8 5.3.1.3 1.3 4.3 5.7 8.8 9.9 4.6 4.1 10.9 10 14 13.2 3.2 3.1 6.3 5.6 6.9 5.6s3.4 1.6 6 3.5c2.7 1.9 5.2 3.5 5.5 3.5s1.8.8 3.2 1.9c4.1 2.8 20.4 11.1 21.9 11.1 1.2 0 1.9-24.4 1.5-55.6-.2-9.8 1.3-12.2 6.5-10.2 5 1.9 13.6-2.8 15.9-8.7 5.2-13.7-5.3-25.7-19.6-22.4-1.9.5-3.2-46.2-2.6-94.6l.3-32 5.4-.5c13.4-1.3 18.9-13.8 10.9-24.9-2.7-3.7-10.7-7-13.1-5.5-2.6 1.6-4.9-47.5-2.4-51.6a22 22 0 0 1 7.8-.2c15.1.9 29-14 29.1-31.3l.1-7 3.6-.5c2-.4 5.1-1.7 7-3 11.7-8.3 14-11.1 21.8-26.5a108 108 0 0 0 8.6-28.1l2.6-8.4a68 68 0 0 1 7.5-15.5c.6-.6 3-3.6 5.3-6.8 3.9-5.3 4.4-5.7 8.2-5.7q10.5 0 9.5-7.1c-.7-4.2 0-5.2 8.1-11.9 3.7-3.1-2.5-2.3-6.9.9-3.6 2.6-4.7 2.9-8.5 2.4-5.2-.7-7.8 1.1-8.7 6.1s-15.7 14.7-24.4 16.1c-2 .4-5.4 1.3-7.5 2.1s-6.4 1.4-9.6 1.4a82 82 0 0 0-35.1 8.8l-9.5 6.1a36 36 0 0 0-12.4 12.9c-1.6 3.8-1.9 3.8-7 1.1-10.4-5.4-21.1-3.2-30.2 6.3-3.1 3.2-6.5 5.9-7.5 5.9l-29.6.1-27.8-.2v-5.1c0-7.4-2.4-11.7-7.7-14-13.4-5.7-25 3.6-21.2 17.1.5 1.9-113.2 2-115.5.1q-1.2-1.1-.9-6.3c.7-8.4-8.3-15.7-17.6-14.2-6.1 1-13.5 9.1-12.5 13.7 1.4 6.5 1.9 6.2-10.6 6.5-11.8.2-14.7 1.3-13.4 4.7q1.2 2.8-10 21.4c-8.4 13.9-8.7 14.1-12.3 10.1-5.3-6-16.3-26.8-16.3-30.9 0-4.3-1.6-5-14.6-5.8l-11.9-.8.3-5.1c.7-10-5.1-15.4-16.4-15.4-8.7 0-16.4 11.2-11.4 16.5 4.1 4.4 2.6 4.5-50.1 4.5-51.4-.1-52.9-.2-50.9-4 3.3-6.2-4.6-16-13.1-16q-15.2 0-16.8 13.6l-.6 5.7-12 .1c-13.7.2-16.4 1.1-15.8 5.3q.4 2.8-1.4 4.9c-1 1.2-3.4 4.9-5.3 8.4q-7 12.4-8.8 10.5c-1.9-2-13.4-25.7-14.7-30.3-.7-2.3-2.9-3-4-1.2-.4.6-5.8 1-12.8 1h-12.2v-6.3c0-10.5-6.1-16.2-16.1-15.1-9.7 1.2-15 7.8-13.7 17.4l.6 4.1h-19.9l-21.9.1h-40.7l-38.7-.2.5-4.8c.7-5.5-1.4-11.2-4.8-13.6-11.9-8.4-25.6-2.6-26.8 11.2l-.5 5.7-29.2.3c-23.2.2-29.3 0-29.3-1a44 44 0 0 0-7.4-13.6c-3.6-4.1-11-7.2-16.8-7.2-5.6 0-9.8-2-9.8-4.5 0-1.3-3.1-5.1-12.6-15.6-4.8-5.4-9.1-8.9-10.8-8.9-.8 0-2.3-1.1-3.2-2.5s-2.1-2.5-2.6-2.5-5.3-2-10.5-4.5-11.6-5-14.1-5.6C62 51.9 36 36.6 36 29.8c0-5.2-4.2-8.8-10.3-8.8-2.8 0-4.8-1.4-12.2-8.5A84 84 0 0 0 3.8 4c-.3 0-1-.9-1.3-2C1.8-.1 0-.8 0 1m84.4 62.8c1.8 1 3.3 3 3.8 4.7 4.2 16.3 15.9 27.3 30.2 28.3q15.7 1.1 8.1 9.6c-2.2 2.4-3.1 2.6-8.4 2.5-5.5-.2-6.4.1-10.3 3.3a30 30 0 0 1-5.7 3.9c-2.1.7-4.4 7.9-4.5 14.4-.1 6.7-.7 8-3.5 8.8-4 1-11.2-5.9-8.1-7.8s-.3-20.6-4.7-25.9a42 42 0 0 0-16.2-12.8c-7.3-2.7-8.1-3.4-8.1-7.3v-3.3l7.1-.4c10.4-.6 13.4-4 12.4-14.1l-.6-7 2.8.7c1.5.4 4.1 1.5 5.7 2.4M60.8 76.7Q61 78 59.1 78q-2 0-2.1-1.6c0-1.8 3.1-1.5 3.8.3m1009.1 21.7c1.2 1.8 2.1 4.3 2.1 5.6 0 4.9 10.1 16.2 16.3 18.1 6.7 2.2 7.8 6.9 1.5 6.9-5.2 0-10.8 1.9-13.5 4.6-1.3 1.3-2.8 2.4-3.3 2.4-4.2 0-10.7 15.5-9.5 22.4.8 4.1-1.4 8.6-4.3 8.6-4.1 0-9.2-8.8-8.6-14.6.9-7.4.1-9.6-5.9-15.6q-9.3-9.6-12.4-8.4c-2.8 1.1-9.2-4-9.3-7.5q-.1-5 7.9-2.5c6.1 1.8 16.1.7 20-2.2 1.4-1 3.4-2.1 4.3-2.5 2-.7 6.8-9.7 6.8-12.7 0-6.3 4.7-7.9 7.9-2.6m-918 8.2c4.6 1.8 10.6 9.4 9.6 12.3-.4 1.5-1.3 1.7-5.4 1.3-16.4-1.5-23.7 22.2-11.9 39 2.2 3-.1 3.2-5.5.5a38 38 0 0 0-6-2.7c-.4 0-2.1-1-3.7-2.1-5.6-4.2-18.4.1-21.4 7.1-2.4 5.7-2.7 7.4-1.7 12.3 1.1 6 .5 6.3-5.4 2.4-7.7-5-10-19.7-4.9-30.2 4.2-8.7 19.8-13.7 26.4-8.5 1.4 1.1 2.8 2 3.3 2 1.1 0 .9-4.4-.3-5.6-2.7-2.7-.8-16.9 3-22.6 4.4-6.5 14.9-8.8 23.9-5.2m95.3-.8c7.7 3.1 8.8 15 1.6 17.5-1.9.7-2.4 2.2-1 3.1.4.2 13.6.5 29.2.7 16.5.1 29 .6 29.8 1.2s1.2 7.1 1.2 25.8V179l-2.4.6a15 15 0 0 1-4.7.2l-2.4-.3.1-20.3.1-20.2-2.4-.6c-1.3-.4-8.2-.4-15.4-.1s-16.3.1-20.2-.4c-8.4-1.1-8.5-1-6.2 4 2.9 6.6 1.5 12.5-3.4 14-12.7 3.7-20.5-3.7-15.3-14.5 2.3-4.6 1.1-7.2-2.1-4.6-.7.5-10.5 1-23.2 1.1l-23 .3c-.5 0-2.5-.2-4.2-.6-4.8-1.1-4.4.7 2.9 13.2 9.2 16 35 45.1 44 49.8 1.5.8 2.8 1.9 2.8 2.4q.1 1 1.4 1c.8 0 2.1.7 3 1.5 3 3.1 29.8 15.8 36.7 17.5a144 144 0 0 1 18.7 5.3c1.5 1 1.6 5.3.1 6.3-2.1 1.2-22.2-3.8-29.1-7.2a121 121 0 0 1-16.2-6.9c-6.2-3-11.7-5.5-12.2-5.5-1.8 0-5.4-4.5-5.4-6.7 0-2-.4-2.2-2.4-1.7-6.5 1.6-33.9-25.8-45.2-45.1l-6.4-10.7a60 60 0 0 1-8.8-21.6l.3-2.7 25.5-.2 36.8-.2c11.4-.1 15-1.6 7.5-3.2-4.6-.9-5.3-1.7-5.3-6.2 0-9 7.1-14.1 15.2-10.9m154.2 2.3c4.4 3.4 3.9 12.2-.9 15-5.6 3.3-4.3 3.9 9.3 4 7 .1 15.4.4 18.6.8l5.9.6 2.6 5.4 7.8 16 5.2 10.6-2.5 3.7c-1.3 2.1-2.8 3.8-3.2 3.8-1.6-.1-4.1-2.8-5.6-6l-4.3-8a31 31 0 0 1-3.2-9.5l-.6-5-14.2-.2a100 100 0 0 0-14.3.3l1.6 5.4c3.1 9.4-5.2 16.2-14.1 11.6-5.8-3-7.1-10-2.5-14.1 4-3.7 2.7-4-14.5-3.8-9.1.1-17.3.6-18.1 1.1-1.4.8-1.6 5.9-2 41.2-.2 28.2-.7 40.7-1.5 41.6a4 4 0 0 1-5.8 0 1129 1129 0 0 1-.5-94c.6-1.7 1.8-1.8 12.8-1.5 21 .6 33.8.1 33.4-1.4a4 4 0 0 0-2.4-1.6c-7-1.3-7.1-14.3-.1-17.1 4.1-1.6 10.3-1.1 13.1 1.1M647 110c4.2 4.5 4.8 9.6 1.6 12.9-4.6 4.8-3.7 5.6 6.7 5.8 14.9.4 21.6 3.1 21.7 8.9 0 1.2 1.2 3.8 2.6 6a76 76 0 0 1 5 9.1c1.4 2.9 3.2 6.1 4.2 7 4.8 4.8 8.3 10.4 7.7 12.2-.7 2.3-4.7 4-5.3 2.2-.2-.6-2.7-4.1-5.5-7.9a63 63 0 0 1-11.9-22.7c-.3-2.9-.4-3-5.1-2.7-2.8.2-5.5-.2-6.3-.9-1.1-.9-2.3-.9-5.4.1l-3.9 1.3.2 6.8c.3 9-2.1 11.9-9.7 11.9-10.4-.1-13.5-6.6-8.9-18.6.5-1.2-1.4-1.4-11.8-1.2-16.1.4-15.2-1.3-14.4 26.4.6 18.4.5 21.2-.9 22.3-2 1.7-2 4.8-.1 6.7 1.2 1.2 1.5 4.4 1.5 15V224l-2.6 1c-4.6 1.8-6.4-.2-6.5-7.3l-.4-30.2c-.6-38.5-.6-57.5 0-58.4.2-.5 8.6-.8 18.7-.8 14 .1 18.3-.2 18.6-1.1q.1-1.3-1.7-1.9c-2.6-.7-5.1-5.1-5.1-9 .1-8 11.4-12.2 17-6.3m-128.2 2.6a8.7 8.7 0 0 1-3.8 13.6q-7.2 2.4 19.5 2.5c21.7 0 21-.1 19.5 3.9-.7 1.8-1 12-.9 28.4l.2 25.5-2.6.9c-5.1 1.8-5.2 1.5-5.5-21-.1-12-.7-22.2-1.4-24l-1.1-3-11.4-.1-11.5-.1.7 2.7c1.4 5.4 1.5 10.7.3 13-7.2 13.4-24.7 1.6-17.9-12.1 2.4-4.9 2.4-5-1.5-3.9-1.6.4-7.7.6-13.6.3l-10.8-.5v3.9c0 3.8-3.7 12.2-6.6 15.2-.8.7-1.4 1.9-1.4 2.7 0 .7-2 3.3-4.5 5.7a76 76 0 0 0-8.2 9.6 35 35 0 0 1-5.9 6.9c-1.3.8-2.4 2.1-2.4 2.9s-1.9 3-4.2 5.1l-6.9 6.4c-1.5 1.5-4.4 4-6.5 5.5l-5.6 4.6c-4.8 4.7-12.8 1.8-9.9-3.6a10 10 0 0 1 3.7-3.5c3-1.3 3.6-1.8 13.4-10.7 4.3-3.9 9.8-8.4 12.1-10 2.7-1.8 4.5-3.9 4.7-5.3s1.8-3.1 3.7-4.3q3.4-2 6.1-7.6c2.5-5.6 4.9-9.6 10.6-17.9a17 17 0 0 0 2.8-6.1c0-8.8 3.2-10.4 20.2-9.9 13.6.4 17.9-.3 14.8-2.3-.8-.5-2.3-1-3.2-1-3.9 0-4.9-6.3-1.6-10.5 4.6-5.8 12.3-6.8 16.6-1.9m247.7.4c5 5.2 3.6 13.1-2.7 15.2-.6.2-.8 1-.4 1.6.5.9 6.6 1.2 21.7 1.2 11.9 0 21.8.4 22.9 1 1.7.9 1.8 2.8 1.9 27l.1 26-2.5 1.2c-6.3 2.9-7 1.1-6.9-18.3.1-9.6-.1-17.9-.4-18.4s-.7-2.3-.7-4v-3l-15 .4c-15.4.3-17.8.8-15.5 3.6 5.9 7.1-4.8 18.9-12.6 13.9-6-3.9-6.8-7.1-3-12.6 3.3-5 2.4-5.6-8.9-6.1-14.7-.6-16.5-.2-16.5 3.7a78 78 0 0 1-11.1 23.4 23 23 0 0 0-2.9 5.2c0 .5-.8 1.5-1.8 2.2s-2.3 2.1-2.8 3c-2.1 3.8-22 23-30.6 29.6l-7.4 5.7c-4 3.1-4.5 3.1-8.3-.1-4.3-3.6-4-4.3 3.7-9.2a90 90 0 0 0 10.3-7.5c1.9-1.7 5.7-5 8.5-7.1a95 95 0 0 0 16.4-17.1c0-.6 1.6-3 3.5-5.4s3.5-4.8 3.5-5.3 1.3-2.7 2.9-4.7c2.6-3.3 6-9.9 11.2-21.8 2.5-5.8 3.8-6.2 19-6 11.2.2 13.4-.1 13.4-1.3q-.2-1.4-2-1.8c-2.9-.6-4.2-1.9-4.8-4.9-1.9-10.1 10.7-16.7 17.8-9.3m144 .3c5.1 4.3 4.7 13.6-.6 15.2-6.7 2.2 1.3 3 30.9 3.3 16.9.1 31.3.5 32.1.8 5.1 1.7-9.5 28.6-25.3 46.9-20.9 24-35.7 34.4-39.5 27.8-1-1.8 3.2-7.3 5.5-7.3q1.2-.1 1.7-1.5c.4-.8 2.1-2.1 3.9-2.8 1.8-.8 8.3-6.7 14.3-13 13.2-14 12.3-12.9 16.3-19.9 1.8-3.1 3.6-5.8 4.1-6 1.1-.4 7.3-12 6.7-12.5-.2-.3-9.4-.3-20.3-.2-10.9.2-22.6.2-26 .1-7-.2-7.1-.1-4.3 3.5 2.8 3.5 2.7 9.9-.2 13-2.5 2.7-9.8 3.2-11.8.9a6 6 0 0 0-3.3-1.8c-2.9-.4-3.8-10.6-1.2-12.8 3.8-3.1 1.7-3.5-17.2-3.2a264 264 0 0 0-20 .7c-.8.3-1.2 4.9-1.2 15.7-.2 54.4-1.3 64.3-6.9 63.6l-2.7-.3.1-32.5.1-35.5-.1-11.7c-.1-12.7-2.2-11.9 30.3-12.1 23.7-.1 27.1-.3 26.9-1.7q-.4-1.4-3.6-1.8c-4.8-.5-7.2-5.9-4.8-10.9 2.8-5.8 11.5-8 16.1-4m103.9 7.6a23 23 0 0 1 11.8 20.8c-.1 6.5-.5 7.4-5.4 13.5-2.7 3.4-1.7 4.7 2 2.6 13.6-7.8 34.2 5.4 34.2 22 0 10.5-7.6 21.4-17.6 25.3-8.3 3.1-12 .7-8.3-5.5 6.5-11.1 1.8-21.8-11-24.7a40 40 0 0 0-20.2 6.7c-.8.8-2 1.4-2.6 1.4s-3 1.6-5.3 3.5c-3.7 3.1-6 4.3-6 3.1 0-.2 2-2.7 4.3-5.5 20-23.4 17.6-48.2-4.6-47.4-5 .2-5.8 0-5.3-1.3q.5-1.5.6-2.4c0-2 8.3-11.1 11.8-12.9 6-3.2 15.2-2.8 21.6.8m-853.6 5.3c.6.6 1.2 2 1.2 3.2 0 3.2 6.3 17.4 12.7 28.3 8.4 14.7 20.2 28.6 40.2 47.7 4.7 4.5 5 5.8 1.7 7.9l-5.2 4.2c-4.2 3.9-5.4 3.3-17-9.2a1139 1139 0 0 0-25.5-26.3c-22.7-22.5-30.1-39-23.5-51.9 2.8-5.3 11-7.4 15.4-3.9m173.6 5c6.9 7.4-1 18.6-10.1 14.1-6.3-3.1-13.7-15.5-8.2-13.8 1.1.4 3-.2 4.7-1.3 5.4-3.9 9.2-3.6 13.6 1m246.4.9c8.9 3.1 7.8 15.9-1.6 18.7-12.2 3.7-17.7-14.1-5.8-18.4 4.2-1.6 3.9-1.5 7.4-.3m252.3 4.5c1 .9 2.1 3 2.4 4.8l1.1 4.8c.6 2-5.1 8.8-7.3 8.8-7.8 0-13-4.9-11.4-10.7 2.4-8.5 10-12.4 15.2-7.7m159.6 5.4c6.6 4 9 13.9 5.5 22.7-2.2 5.5-19.1 26.7-32.9 41.3l-14.2 15.5c-9.6 11.1-9.4 11.1-24-.5-9.3-7.4-9.4-7.9-4.4-11.7a189 189 0 0 0 52-62.1c.9-1.8 2.3-3.6 3.2-3.9s3-1.1 4.6-1.8c4.2-1.9 6.5-1.8 10.2.5m-451.9 6.5c0 1.9-.4 3.8-.9 4.1s-.9-1.3-.9-3.5.4-4.1.9-4.1.9 1.6.9 3.5m-258.7 3.8c10.3 8 1.2 23.4-9.9 16.7-5.5-3.4-6.4-13.2-1.6-16.7 2.2-1.6 9.4-1.6 11.5 0m51.3 3.8c6 5.2 5.6 13.1-.8 17.3-6.2 4-15.6-1.3-15.6-8.8 0-10.5 8.9-15.1 16.4-8.5m92.5 1.5c5.3 4.5 1.2 13.4-6.1 13.4-12.1 0-14.3-11.7-2.8-14.9 5.2-1.4 5.6-1.3 8.9 1.5m-197 2.1q6.6 8-.4 14.2c-6.4 5.6-14 2.8-14.7-5.4-.8-11.1 8.7-16.6 15.1-8.8m-101.5-1.2a13 13 0 0 0 4.1 1.5c4.9 0 28 19.6 51.2 43.3 20.4 20.9 20.5 21.2 13.7 28.6-5.7 6.2-5.7 6.2-11.3.3a121 121 0 0 0-20.2-17.5c-4.5-4-9.2-7.4-12.1-8.8-1.3-.5-4.1-2.1-6.3-3.4-2.2-1.4-5.1-3-6.5-3.6l-6-2.9c-1.9-1-6.1-2.8-9.2-4-4.8-1.8-5.8-2.6-5.8-4.5q-.1-2.2-3.5-4.9c-3.5-2.7-5.5-7.4-5.5-13.1 0-8 10.4-14.6 17.4-11m249.4 3.4c3.8 4.8 4 6.4.7 9.6-5.2 5.3-14.5 1.4-14.5-6.2 0-8.2 8.3-10.2 13.8-3.4m154.8-3.3c6 1.6 5.1 16.4-1 16.4-6.4 0-10.5-5.6-8.1-11.3 2-4.9 4.5-6.3 9.1-5.1M584 161c8.5 9.1-1.4 23.3-12 17.2-6-3.4-7.1-12.6-2.2-18.5 2.6-3 10.8-2.3 14.2 1.3m-89-1c4.7 2.5 4.4 11-.6 14.9-3.4 2.6-5.2 2.6-8.5-.2-7.5-6.3.6-19.3 9.1-14.7m292.3.1c4.4 2.3 5.1 7.8 1.5 11.6-5.1 5.4-14.6-.3-11.3-6.7q4-7.7 9.8-4.9m97.8 3.4c4.6 10.4-6.5 17.5-14 9-5.8-6.7-1.8-13.4 8.2-13.5 3.6 0 3.9.3 5.8 4.5m-137.5-1c4 2.8 3.9 7.4-.3 11.7-4.6 4.7-5.3 4.7-9.2.3-6.8-7.8 1.2-17.9 9.5-12m85.9.1c5.1 3.3 4.6 14-.8 16.9-7.3 3.9-14.2-.2-13.8-8.3.4-8.4 8.1-12.9 14.6-8.6m98.1 2c2.1 3.1-.9 10.7-4.6 11.9-6.3 2-11.8-7.7-7.1-12.4 3.2-3.2 9.5-2.9 11.7.5m-298.7 3c6.2 7.8-1.9 16.6-10.9 11.9-3.5-1.8-3.6-2.6-1.1-8.1 3.1-6.8 8.4-8.4 12-3.8m36.2.3c3.4 3.5 3.6 5.3.8 9.2-3.8 5.4-13.6 1.6-12.5-4.9 1.1-7.3 6.6-9.3 11.7-4.3m-413.5 3.2c6.4 3.9 6.7 12.2.4 15.4-8.7 4.5-16.1.1-14-8.4 2-8.4 7.1-11 13.6-7m148.9 2.4c3.3 3.2 3.6 11.2.5 14-6.8 6.1-17.8.8-16.7-7.9 1.1-7.9 10.8-11.6 16.2-6.1m111.5 4c7.6 8.1-2.3 18.1-11.7 11.9-4.2-2.7-1.7-10.4 4.2-13 4.2-1.8 4.8-1.7 7.5 1.1m251.9-1q7.5 4-1.2 12.4-5 4.7-10-2.5c-5.2-7.3 2.7-14.3 11.2-9.9m138.7 2c4.6 3.2 3.7 12.3-1.5 15-7.4 3.8-15.8-6.7-9.8-12.3q6.5-6 11.3-2.7m-436.9 5.3c3.2 3.2 8.7 8.2 12.3 11.2s6.7 5.7 7 6.1l4.5 2.9a132.4 132.4 0 0 0 39.4 19.3c8.4 2.3 9.1 3 9.1 8.9 0 5.8-5.2 5.4-22-1.5-13.6-5.6-17.7-7.6-18.9-9.1a9 9 0 0 0-4.2-2.1 13 13 0 0 1-5.7-4.1 23 23 0 0 0-7.3-5.5c-2.6-1.1-5.6-3-6.7-4.2s-5.2-4.9-9-8.2c-11.3-9.8-12.9-12.9-8.7-17 3.3-3.4 3.6-3.3 10.2 3.3M1026 182c8.7 7.2 1.2 22.9-13.2 27.8-10.9 3.8-35.2 20.6-48.6 33.7-5.1 5-9.2 7-9.2 4.6 0-.6-2.3-3.7-5.1-7.1l-5-6.1 6.9-6.7c45.1-43.4 63.7-55 74.2-46.2m-310.2 3.1c-2.7 1.5.5 7.9 3.9 7.9.3 0 2 1.2 3.8 2.7a42 42 0 0 0 5.5 4.3c1.2.8 3 2.2 3.9 3.1s3.9 2.7 6.6 4c2.8 1.3 5.2 2.7 5.5 3 1.8 2.1 15.3 8.1 25 11.1l10.5 3.3 8.5 2.5 5.8 1.6c1.8.5 1.5 6.3-.4 7.1-7 2.6-43.4-11.5-62.9-24.5-20.5-13.6-26.4-20.4-21.3-24.6 1.4-1.2 2.8-3 3.2-4 .6-1.9.8-1.9 2.4-.2s1.6 1.8 0 2.7m-63-.1q6 3.7.6 9.9-4.9 5.7-9.9.6c-6.3-6.3 1.5-15.2 9.3-10.5m-318-.4c4.2.6 4.2.7 4.2 4.8v4.1h-19.7c-22.6.1-30.2 1.4-55 10.1l-13.2 4.6-3.1-2.2c-1.6-1.2-3-2.7-3-3.4 0-1.3 7.2-4.6 10.1-4.6.8 0 3.7-1.1 6.5-2.4 11-5.5 28.5-10.1 41.4-10.9 10.2-.6 27.8-.7 31.8-.1m31.1 6.4c2.4 1.1 5.1 2 6 2 4 0 20.6 7.3 27.6 12a43 43 0 0 0 5.6 3.2c7.3 2.7 38.9 31.2 38.9 35.2 0 2.1-2.7 5.6-4.4 5.6a56 56 0 0 1-8.6-7.8c-4.2-4.2-8.9-8.8-10.5-10.2a127 127 0 0 0-42.9-26c-.4 0-2.8-1-5.4-2.1a37 37 0 0 0-9.7-2.8c-5-.6-5-.6-5.3-4.5-.6-7.2 1-8 8.7-4.6m473.9-.5c1.2.4 1.7 6.1.7 8.7-.4 1-4 1.2-17.5.9a122 122 0 0 0-44.8 6.5c-2.3.8-4.8 1.4-5.5 1.4s-2.5.7-4.2 1.6c-5.2 2.7-11.7 3-13.9.5q-3.7-3.8 4.2-6.2A114 114 0 0 1 775 198c5.8-1.8 11.6-3.6 12.9-4.2 7.3-2.8 45.6-5.3 51.9-3.3m-247.7 1.4c3.1 1.1 3.7 2.4 3.4 6.9s-.2 4.5-10.7 3.2c-18.4-2.4-37.4-.4-61.3 6.6-14.9 4.4-24.3-1.8-10.7-7 18.1-6.9 26.6-8.9 44.1-10.1 4.1-.3 7.6-.7 7.9-1 .9-.8 24.6.3 27.3 1.4m279.4 4.7c2.8.9 6.4 2.1 8 2.9 1.7.7 4.2 1.6 5.6 1.9 4.3.9 11.7 4.6 18.4 9.1 1.7 1.1 4.3 2.7 5.9 3.5 1.5.8 3.8 2.5 5 3.7 1.1 1.3 2.5 2.3 3 2.3 3.9.1 35.6 30.6 35.6 34.3 0 6.1-5.5 8.6-8.8 3.9-4.6-6.2-31.5-31.2-33.7-31.2-.4 0-2.5-1.3-4.8-2.8-10.9-7.4-31-16-43.8-18.6-3.3-.7-4.1-2.6-3.3-7.8.8-4.5 1.5-4.5 12.9-1.2m-252.1.9c1.1.8 2.7 1.5 3.5 1.5.9 0 2.9.7 4.5 1.5a146 146 0 0 1 27.9 14.1 27 27 0 0 0 5.5 3.4c1.1 0 17.5 14.3 25.4 22.2 7.6 7.5 8.1 9.2 3.9 13.2l-2.9 2.8-10.3-10.4a143 143 0 0 0-14-12.9C644.8 220.7 635.3 215 633 215c-1.4 0-6.9-2.3-12.2-5.1-2-1-4.6-1.9-5.7-1.9-2.3 0-2.5-.6-2.1-6.5q.6-8.2 6.4-4m-484.7 4.8c16.3 8 43.9 28.9 46.3 35.1a9 9 0 0 0 2.4 3.5q3.2 2.7-.4 7.1l-2 2.5-3.3-3.6-6.3-7a120 120 0 0 0-21.5-17.9c-.7 0-5.8-3.3-16.2-10.3-5.1-3.4-5.4-2.5-5.5 17-.2 26.4.4 29.8 4.7 25.2l2-2.2 4.5 2.7c5.5 3.2 6.6 5.1 6.6 10.9 0 8.5-7.9 12.7-13.4 7.2-4.5-4.5-4.6-4-4.6 22.9 0 25.2.4 28.6 3.3 25.7a56 56 0 0 1 22.4.1c2.6.9 4 .9 6.8-.1s4.7-1 8.8-.1c3.8.7 6.2.8 8.1 0 1.5-.6 9.1-1.1 16.8-1.2 15.7-.2 16-.1 15.6 6.7l-.3 4H192c-13.9.1-17.9-.2-19.3-1.4s-2.3-1.2-6 0c-3.1 1-10 1.4-26.2 1.4h-22l-.3-31.8c-.2-30.6-.3-31.7-2.2-31.7q-1.8.2-3.2 2.7c-4.1 8.5-14.8 2.5-14.8-8.3 0-7.7 10.2-12.3 15.3-6.8 4.2 4.5 4.5 2.7 4.8-26.6.2-15.1.5-28.1.7-28.8.8-2.4 7.1-1.2 15.9 3.1m173.4 22.9c.1 43.8-.2 87-.8 88.4-.8 2.1-6.1 1.7-7.3-.5-1.4-2.8-1.3-111 .1-112.8.6-.7 2.7-1.3 4.5-1.3h3.4zm25.1-21.5c2.3 2.1 2.5 11.3.2 14.8-2.8 4.3-9.7 4.5-14 .4-9.1-8.8 4.4-23.7 13.8-15.2m126.9.9c8.3 8.8-2.5 24.1-13.1 18.4-5.7-3-6-16.2-.5-20.2 2.6-2 11.1-.8 13.6 1.8m-171 2.6c1.5 5.9-5.4 9.3-8.7 4.3-1.5-2.3-1.5-2.7 0-5.1 2.4-3.6 7.6-3.1 8.7.8m520.5-2a37 37 0 0 1-.4 19c-1.4 2.4-1.4 3.2-.3 6.5 2.1 5.8 3.2 83.6 1.2 85.6-.4.4-2.4.7-4.2.5l-3.4-.3-.7-14.5c-.5-8-.7-32.7-.5-55l.2-40.4 2.5-1.3q4.5-2.4 5.6-.1M583 207.7c3 3.1 3.2 11.1.4 14-4.1 4.1-13.8 3.2-16.3-1.6-4.8-9 9-19.8 15.9-12.4m-28.7 3.6c.5 5.1.1 81.1-.5 95.6q-.4 12-5.5 8.5c-2.3-1.5-3.3-107.1-1.1-108.6q6.1-3.7 7.1 4.5m277.9-2.3c7.5 7.5-.9 18.4-10.1 13.2-5.3-3-5.6-7.9-.8-12.7 4.3-4.3 7-4.4 10.9-.5m-124.4.8c5.9 3.8 2.1 15.9-5.9 18.2-9.2 2.7-15.7-5.6-11.3-14.3 2.1-4.1 1.6-3.7 6.1-5.2 4.1-1.5 7.4-1.1 11.1 1.3m-338.4-.5c2.7 2 1.7 5.1-1.7 5.5-4.7.6-7-2.3-4.1-5.2 1.9-1.9 3.5-2 5.8-.3m420.6 4.2c2 2.5-.2 4.2-3.5 2.7q-5.6-2.6 1.6-4.1.7.1 1.9 1.4m76 1q-.2 1.4-2 1.5-1.8-.1-2-1.5.2-1.3 2-1.5 1.8.2 2 1.5m152.2-1c1 .4 1.2 4.5 1 20.3-.4 27.5.2 34.2 3.3 34.2 1.3 0 2.7-.5 3-1 2-3.2 9.7.3 11.4 5.2 3.5 10-5.6 19.1-13.4 13.4-2.7-1.9-4.6 7.1-4.4 20.4.3 27.9 1.6 25.9-16.2 26.1-12.5.1-12.9 0-12.9-6.7 0-4.9 1.2-5.5 9.5-4.7 6.2.7 9.1-.7 7.5-3.6-.5-1-.9-8.7-.9-17.2.1-19.1.1-18.9-.9-18.9q-1 .2-2 2.5c-2.3 5-10 4.5-12.6-.9-4.4-9.3 6.4-18.8 12.2-10.9 3.2 4.3 3.4 2.7 3.3-17.7-.2-24-1.2-26-8.9-19.5-1.7 1.4-3.4 2.5-4 2.5-.5 0-3 1.8-5.5 4s-4.9 4-5.4 4-2.4 1.5-4.3 3.4a236 236 0 0 0-15.7 16.1 17 17 0 0 0-3.3 4.9c0 .6-1.6 2.4-3.5 4.1-2.9 2.5-3.5 3.8-3.8 7.6q-.5 4.6-3 8a111 111 0 0 0-7.5 15.4l-4.8 12-3.8.3c-5.2.5-6-.7-3.7-5.4a120 120 0 0 0 4.6-10.9c1.5-3.9 4-9.5 5.6-12.5l4.9-9.6a19 19 0 0 1 3.6-5.4 22 22 0 0 0 3.1-4.4c7.3-14.1 36.1-39.9 57.8-51.7 7.5-4.1 7.7-4.2 9.7-3.4m-789.6 2.3c4.2 2.8-1.8 10.7-14.1 18.8q-2.3 1.6-2.5 2.5c0 .5-1.6 2.4-3.5 4.1-3.4 2.9-16.8 20-19.1 24.3l-3.6 6.5a63 63 0 0 0-6.8 13.6 35 35 0 0 1-2.4 6.5c-1.4 3-3.4 9-4.6 13.4a56 56 0 0 1-3.1 9.2c-1.2 1.4-6.9.9-7.9-.7-1.1-1.8 2-13.8 6-23.5l2-5a81 81 0 0 1 10-18.9c0-7.6 40.1-51.6 47-51.6.8 0 2 .4 2.6.8m165.8 2.3c4.2 3.3 3.2 4.3-7.6 8.6-20.5 8-42.2 12.5-61.8 12.7l-11.5.1-.3-4.6-.3-4.6 15.8-.6c22.2-.8 49.2-6.6 57.8-12.4 2.7-1.8 4.8-1.6 7.9.8m92.6.4c2.9 1.5 4.4 6.5 2 6.5a137 137 0 0 0-43 41.3c0 .3-1.5 3.2-3.4 6.4a159 159 0 0 0-14.6 30.8c-4 11.5-5.9 13.5-10.2 11.3-2.4-1.2-2.3-1.9 1.7-14.3 9.8-30 32-60.7 56.5-78.1 8.8-6.2 7.4-5.8 11-3.9m401.6 1c4.4 3.4-16.5 12.5-28.8 12.5-2.9 0-6.2.6-7.3 1.4-5.1 3.5-29.1 7.5-34.1 5.6s-6.3-7.5-2.1-8.5c6.1-1.3 24.2-1 25.4.5 1 1.3 1.4 1.2 3.3-.8 1.6-1.7 3.2-2.2 6.8-2.2 2.6 0 6.5-.5 8.7-1.1s6.5-1.6 9.6-2.2c3.2-.7 7.1-2.4 9-3.9 3.9-3.1 6.7-3.5 9.5-1.3m-150.8 1.1c3.5 2.4 2.7 3.7-5.5 10.2a170 170 0 0 0-39.5 45.7L687 288a73 73 0 0 0-5.1 12 62 62 0 0 1-5.8 15.4c-1.8 2.2-8 2.1-8.8-.1s6-22.4 11.3-33.3c6.8-14 7.8-15.5 10.7-15.5q5.4 0 2.2-3.5c-2.3-2.6 5.1-12.6 21-28 14.8-14.4 20.6-17.7 25.3-14.4m-96.1 2.9c5.4 3.2 5.4 4.1-.3 6.5a149 149 0 0 1-64.3 12c-17.7 0-18.3-.2-17.9-6.8l.3-4.6 21.5-.3c28.3-.4 31.2-.6 31.7-2.1.3-.6 1.7-1.2 3.1-1.2s6.8-1.3 11.7-2.9l9.4-3c.2-.1 2.4 1 4.8 2.4m-399.3 1.4c7.5 4.7 34.2 14.1 43.8 15.5 7.6 1.1 7.3-.2 7.4 37.8a567 567 0 0 1-.6 34.9c-.8 1.2 1.5 1.1-30 .9-14 0-27.4.2-29.7.6-4 .6-4.2.5-4.8-2.2a35 35 0 0 0-2.1-6.2c-.8-1.8-1.4-4.1-1.4-5.2 0-1-1.6-5.6-3.5-10.1a69 69 0 0 1-3.5-9.7c0-.8-.9-2.5-2-3.9a9 9 0 0 1-2-3.8c0-.7-2.5-5-5.5-9.6-4.3-6.5-5.3-8.6-4.3-9.4.7-.5 3.8-3.9 6.9-7.5a92 92 0 0 1 20.4-19.5c5.7-5 6.6-5.2 10.9-2.6m166.9 2.8c5.3 3.3 26.7 24.8 26.7 26.8 0 .8-1.3 2.4-3 3.7-1.6 1.2-3 3-3 4q0 1.7-.9 1.8t-1.3 2.2c-.4 3.1-2.6 3.4-3.4.4-.3-1.4-1-2.6-1.5-2.6-1.5 0-1 4.7.5 5.3 1.7.7.7 6.3-1.8 9.8a9 9 0 0 0-1.6 3.6c0 3.1-7.4 16.4-8.8 15.8s-4.2 1.1-4.2 2.6c0 .5 1.1.9 2.4.9 2.5 0 2.4-.2 1.1 8.2l-.6 3.8-23.4-.1c-21.8 0-29.5-.9-21.1-2.4 1.9-.4 3.7-1.3 4-2.1q.9-2.8 6.5.2c2.4 1.2 3.9 1.4 5.4.7 2.6-1.2-2.7-4.7-6.1-4.1q-1.7.3-2-2c-.4-2.3 2.4-3.2 4.3-1.3 1.5 1.3 9.3 2.2 10 1.1.3-.5 1.5-1 2.6-1s3.1-.7 4.4-1.6 3.1-1.4 3.9-1.1 2.2 0 3.3-.8c1.7-1.3 1.6-1.4-1-2q-2.7-.7-2.5-2.4c.5-2.4 3.5-2.5 6.4-.2 1.5 1.2 3.1 2.1 3.5 2.1 1.4 0 5.9-7.7 5.9-10q.1-1.8 1-2c.6 0 1-1.1 1-2.5q0-4.5-4-.5l-2 2v-2.5q0-4.7-3.3 0c-2 2.8-1.6 4.2 1.9 5.5 3.2 1.2 3 3.2-.3 4.7q-5.5 2.7-5.3-.7 0-2-2-2-1.8 0-2-.9c0-.4.9-2 2-3.4 3.2-4 1-8.6-2.7-5.6q-2 2.1-1-1.3c.6-2.2.4-2.5-1.2-2.1q-1.8.4-3.3-1.5a7 7 0 0 0-4.1-2.7c-3.9-1-3.3-2.5 1-2.5q3.8 0 7.5 2.7c5.6 3.8 14 4.1 16.8.6l2-2.5 2 2.3 1.9 2.4.1-2.8c0-1.5-.4-2.7-1-2.7-1.7 0-1.1-3.7.6-4.4 2.4-.9 1.2-12.3-1.6-15-2.9-3-3.9.5-1.1 4 1.8 2.3 1.9 2.9.7 5.3-.8 1.4-1.7 4.1-2.1 5.9-1 4.8-15.5 9.6-15.5 5.1 0-.5-1.3-1.4-2.8-2-6.3-2.2-7-12.4-1.2-18.7 4.1-4.4 4.9-4.6 11.9-3.3 3.8.8 4.4.6 4.8-1 .7-2.5 4.3-2.5 5 .1.5 2 3.3 2.9 3.3 1 0-1-2.2-3.2-9-8.8-8.2-6.7-13-8.3-13-4.2 0 1.7.3 1.9 1.9 1.1 1.4-.8 2.3-.6 3.7 1a21 21 0 0 0 4.7 3.6c2.3 1.2 2.6 1.7 1.6 2.9-1.3 1.6-6.5 1.9-7.4.4q-.7-.9-3.5.5c-1.8.9-4 1.3-5.6.9-2.4-.6-2.5-.5-1.9 2.7q.6 3.4-.8 5.3c-2 2.7-4.1 1.1-3.3-2.5q.9-5-2.8-2.6c-1.8 1.3-2.6 7.9-1 8.4 2.6.9 3.6 2.4 3.7 5.4.2 4.4-3.1 5.3-6 1.5-2.6-3.3-5.7-3.8-6.1-.9-.5 3.7-5 6-6.9 3.4-1.7-2.6-3.8-2.7-4.8-.4-3.7 9.4-3.5 17.1.5 16q3.3-1 1.1 2.2c-.8 1.2-1.2 1.2-2.4.3-2.1-1.8-3 6.6-1 9 1.3 1.4 1.2 2-.7 4.5-1.9 2.6-2 3.4-1 7.6 1.2 5.4.5 9.7-1.6 9.7-1.3 0-2.2-16.1-1.6-26.5v-18c0-21.7 0-20.8.2-23 .2-1.1-.1-2.8-.5-3.7-.5-1.3-.1-1.8 2.2-2.3l8.8-2 10-2.6c2.2-.5 4.9-1.3 6-1.8s4.7-1.6 8-2.6 7.1-2.6 8.4-3.6c3-2.4 3.3-2.4 8.4.8m498.5 3c9.3 6.2 26.7 22.3 33.2 30.9 4.7 5.9 4.5 11.8-.1 9.3-2-1-2.1-.9-1.5 1.5 1 3.9-4.7 9.8-6.4 6.6-1.3-2.4-3.3-2.6-5-.5-1.7 2-4.4 2-3.6-.1.3-.8.1-2.5-.5-3.6-1.5-2.9 2.8-7.4 6.1-6.3q2.2.7 1.5 2.3c-1.1 2.8-1.1 3.4.2 3.9q1 .2 1.5-1.4t2.2-1.8c3.4 0 4.3-3.1 1.8-5.7l-11.5-12.1a90 90 0 0 0-10.3-9.7c-.6 0-3.5-2.4-6.5-5.3q-10.7-10.2-15.2-7.9c-1.2.6-4.3 1.8-6.8 2.7-5.1 1.8-5.2 4.9-.2 7.6 2.2 1.2 6.2-.5 4.7-2-.5-.6-.9-.7-3.6-1q-1.4-.1.2-1.1 1.4-.9 2.8.3c1.1.9 1.8.6 3.2-1.2q1.7-2.2 2.9-1.7 1.3.7.1 2.1c-1.6 2-.3 4 1.6 2.4 1.1-.9 2.3-.9 5.4.1 5.3 1.7 5.3 4 0 4q-4.2 0-4 1.5-.2 1.3-2 1.5-1.8-.2-2-1.5c0-2.4-3.5-1.8-7.2 1.2l-3.7 3q-.2.3.7 1.6c.6.7.9 2.2.7 3.2l-.5 4c-.1 1.8-.1 1.9-1.1.2-1.1-1.8-3.9-2.4-3.9-.7 0 1.4-2.8 1.2-3.3-.3q-.2-1.4-2 .2-1.8 1.3-.7 3.1c1.8 3.4.1 4.3-2.6 1.5-.9-.8-2.2-1.5-3-1.5q-1.3.2-1.4 1.5t-1.6 1.5c-2.4 0-.8-6 2.2-8.5 3.2-2.8 3-3.5-1-3.5-3.5 0-5.3 1.4-7.3 5.9-1 2.4-1.1 2.1-1.2-3q-.1-8.6 3.6-7.2c.7.3 2.2-.2 3.3-1.2 2-1.8 4.2-1.3 3.4.9-.6 1.5 2.1 4.6 3.9 4.6q1.3.2 2.5 2c3 4.8 8.7.9 7.5-5.2q-2.5-13.4-17.9-6.8c-1.9.8-4.2 1-6 .6l-2.9-.8 2.2-1.8c1.2-1 4.2-2.1 6.7-2.4 5.5-.9 18.3-5.3 25.1-8.8 7-3.6 7.6-3.5 17.3 2.9m-401.6.1c9.9 4.7 21.8 9.1 30.4 11.2q4 1 4.6 2.8c.5 2.2-.1 69.2-.7 70.2-.2.3-12.7.5-27.7.3l-27.2-.4-2.3-8.7-3.3-12.5c-.6-2.1-2.6-6.9-4.5-10.7a49 49 0 0 1-3.5-8.1 12 12 0 0 0-2.4-4.3 54 54 0 0 1-4.3-7.7c-1.2-2.6-2.6-5-3.2-5.3-3.3-2.1 8.5-14.4 25.2-26.2 8.8-6.4 6.7-6.3 18.9-.6m248.4-.9c3.8 1.6 11.6 4.3 17.4 6.1l13.6 4.1c1.7.5 4.4.9 6.2.9s3.4.5 3.7 1c1 1.6.7 72.2-.3 73.2-.5.5-8.3.8-17.3.7l-31-.3-14.6-.1L729 305a174 174 0 0 0-15-34.7 35 35 0 0 0-4.1-6.8c-2.5-1.6 11.7-17.2 28.6-31.4 7.1-5.9 7.3-5.9 16.1-2.2m-604.7 1.6c6.8 7.8-4.1 16.4-11.4 9-3.3-3.2-3.1-6 .4-9.6 4-3.9 7.1-3.8 11 .6m505.7 2c2.5 1.9 5.1 3.5 5.8 3.5 1.7 0 23.6 21.8 23.6 23.6 0 .7-.9 1.9-2 2.6q-1.8 1.2-2 2.1c0 .8-1.2 2.4-4.5 6a7 7 0 0 0-1.7 4.3c.3 2.4-1.3 4.1-2.3 2.4-.3-.5-1.6-1-2.8-1-4.4 0-5.4-1.7-2.4-4 1.5-1.2 2.7-2.7 2.7-3.4s.9-2.1 2-3.1q2.1-1.9.9-2.6c-1.6-1-.4-3.9 1.6-3.9q1.8 0 1 2-.9 2.1 1.4 2 5.6-.1-.6-6c-2.2-2-4.2-4.1-4.4-4.6-2.5-6.1-19.1-9.6-22.5-4.9q-1.2 1.6-2.5 1.3t1.1-2.8q2.5-2.5.6-1.7c-1 .4-2.4.7-3.1.7s-1.6 1.7-2 4.2c-.4 2.4-1.6 5.1-2.6 6.1q-3.2 3-.8 4.2c.5.4.7 1.9.4 3.5-.5 2.1 0 3.5 2.1 5.9q5.3 6-4.3 5.2c-4.7-.2-8.8-2.1-4.7-2.1 2.7 0 3.3-.7 2.7-3.1-.6-2.3-3-2.5-5.4-.3-2.2 2-5.9 1-5.9-1.7q-.1-1.7-1-1.9c-.6 0-1.5-1.1-2-2.5q-1-2.3-1.9-2.5c-1.5 0-2.1 2.9-1.1 5.5q.9 2.3 0 3c-.6.4-1 2.3-1 4.4 0 2-.5 4.2-1.2 4.9-.9.9-.7 1.8.9 4s1.8 3.3 1.1 4.6a12 12 0 0 0-.5 6q.6 4-.9 6c-1.2 1.7-1.2 2.2.2 3.7 1.2 1.3 1.5 2.8 1 5.4-.8 3.8 1.2 5.7 3.7 3.7.7-.6 1.8-.8 2.4-.4 1.6 1 10.3.2 10.3-.9q-.2-.8-2-.9c-1.2 0-3.2-1.2-4.6-2.7-2.3-2.5-2.5-2.5-3.8-.8q-1.2 1.8-2 .7c-.7-1.2 2.3-3.2 4.7-3.2q1.4.1 2 1.4c.6 1.5 9.6 1.6 12.9.2 3-1.3 6.3-.3 6.6 2.1s-.3 2.7-4.7 2.3q-2.3-.2-1.9 1.2c1.7 5.1 11.6.7 10.2-4.6-.3-1.3-.1-2.7.6-3.1q2.3-1.6 2.5 3.2c.4 5.7.5 6.3 1.4 6.3 1.6 0 3.5-6.2 4.2-13.5.4-3.9 1-8.3 1.4-9.9q.9-2.9-.6-3.7c-2.4-1.5-2.9-1-2.9 3.1 0 3.2-.4 4-1.9 4q-1.8 0-4.2 4.5c-1.3 2.5-2.7 4.5-3.1 4.5-1.4 0-.8-2 1.3-4.9q2.1-3 2.3-7.5c.1-3.4.5-4.8 1.9-5.2q3.2-1 .2-3.4c-3.5-2.9-6.5.6-6.5 7.5 0 15.7-22.6 20.9-25.8 6-2.7-12.9 7.8-20.5 20-14.4 4.8 2.4 5 2.4 4.2-.6-.7-2.9 1.7-4.5 4-2.6.7.6 2 .9 2.9.5.9-.3 2.4.3 3.6 1.5a7 7 0 0 0 4.8 1.8c2.6-.2 2.8.1 2.7 3-.2 4 2.3 4.6 2.8.7.3-2.6 3.1-5.4 4.2-4.3 1 1-2.7 8.9-4 8.9q-1.4 0-.8 2.7a23 23 0 0 1-2.5 10.2 41 41 0 0 0-3.1 10.7c0 3.3-2.9 5-4.4 2.5-.4-.5-2.2-.5-4.3 0s-11.6.7-21.2.6l-17.4-.2-.4-32.3c-.3-24.1-.1-32.7.8-33.8s.8-1.8-.6-3.4c-2.1-2.3-1.2-4 2-4a54 54 0 0 0 10.2-2.5c4.3-1.4 8.7-2.5 9.8-2.5s3.5-.9 5.3-2a14 14 0 0 1 5.7-2q2.2 0 2.4-.8c-.5-3 .2-2.8 5.7 1.3m199.8 8.2c-.8 1.7-1 10.1-1.4 88.8-.3 36.8-.4 37.5-5.5 37.5-4.9 0-4.8 2.4-4.5-58.3.3-72.3.2-67.6 2-68.7 2.9-1.9 10.3-1.2 9.4.7m-503.2 5.5c.3 2.9.5 31.2.4 62.8l-.1 57.5-2.9.3c-1.6.2-3.3-.1-3.9-.7-1.8-1.8-1.5-123.1.3-124.2 4-2.3 5.7-1.1 6.2 4.3m258-1.3c-.1.7-.5 20.5-.7 44-.5 51.7-.9 58.1-3.6 58.1-1.6 0-1.9-.6-1.7-3.3.1-1.7-.3-4.1-.9-5.1a6 6 0 0 1-.1-4.7q1-2.8-.1-6.1c-.7-2.1-1.3-17.9-1.6-40.8l-.7-39.9c-.2-1.9.3-2.7 2.2-3.2 3.8-1.1 7.5-.6 7.2 1m-276.2 1c2.9 2.3 3.2 10.8.6 16-2.4 4.6-11.1 4.6-15 0-8.1-9.6 4.5-23.5 14.4-16m498.5 1.3c1.9 1.8 3.5 4 3.6 4.8 1.4 12.9-10 18.3-16.5 7.7l-2.9-4.7 1.8-4.1q5.4-11.4 14-3.7m45.9-1c.8 3.3.8 3.8-.8 3.8-1.4 0-2.6-2.1-2.6-4.6 0-2.3 2.7-1.6 3.4.8m17.6 1.1c0 2.2-2 3.4-4.6 2.9-2.3-.4-3.1-2.1-1.7-3.5 1.2-1.3 6.3-.7 6.3.6m21.8 2.4c4.5 3.3 5.1 4.1 4.6 6.3l-1.4 6.3c-.8 3.9-4.5 7.6-8.9 8.9-2.4.7-10.1-1.1-10.1-2.4a16 16 0 0 0-2.4-3.5c-10.4-12.3 4.8-25.2 18.2-15.6m-331.1 1.2c3.2 4.7 3.1 11.3 0 14.5-5.2 5.2-15.1 3.9-17.6-2.2-4.7-11.2 11-22.1 17.6-12.3m410.7-.8c5.6 6.6-1.1 14.3-8.2 9.3-3.4-2.3-2.9-6.7 1.1-9.8s4-3.2 7.1.5m-830-1.1c8.6 3.2 3.3 17.8-5.5 14.9-6.4-2.2-8-5.2-6.3-11.5 1-3.7 6.7-5.4 11.8-3.4m497.2 2.1c.8.6 1.4 1.6 1.4 2.2s1 2.1 2.2 3.4l2.1 2.3-2.4 5.2c-4.4 9.5-12.6 11.6-19.8 5.2-6.7-6.1-5.6-17.4 1.9-19 1.4-.3 3-.7 3.5-1 1.8-.6 9.8.6 11.1 1.7m221.4 9.4q-.1 1.4-2.3 1.5c-1.2 0-3.3.7-4.5 1.6-1.8 1.2-2.2 1.3-2.2.1 0-1.3 5.3-4.5 7.8-4.6q1 0 1.2 1.4m41.7-.4c1.6 1.6-.5 5.9-2.9 5.9-2.1 0-2.2-.8-.8-4.4q1.3-4.1 3.7-1.5m-467.3 4.2c.9 2.3 1.6 4.6 1.6 5.1s1.6 2.6 3.5 4.7c1.9 2.2 3.5 4.8 3.5 5.8q0 1.8.9 2.6c.5.3 1.7 2.9 2.7 5.8.9 2.8 2 5.6 2.4 6.2 2.5 3.3 7.4 32.1 6.8 40l-.3 5-4-.1-4-.1-.6-10.9a124 124 0 0 0-14.9-50.7c0-.7-1.1-2.9-2.5-4.9q-4-6-1.5-10.9c1.8-3.3 4.6-2.3 6.4 2.4m-257.2 1.4 6.3 11.8a143 143 0 0 1 13.6 42.5c.4 3.6 1.3 8.5 1.8 11 .9 4.4 1.5 17.8 1.2 29.3q0 9.2-6.6 6.7c-1.9-.7-2-1.5-1.7-14.6a133 133 0 0 0-10.4-55.9c-1.5-4.4-3.5-9.6-4.5-11.5a14 14 0 0 1-1.9-5.3q-.2-1.7-1.5-2.3-1.4-.7-1.5-1.9c0-.8-.6-2-1.3-2.7-2.5-2.5-2.7-5.9-.5-8.9 3-4 4.1-3.7 7 1.8m658.8-2.2c0 1.4.7 2.8 1.5 3.1 2.2.9 1.8 3.4-.5 3.4q-3.8-.2.1 4.9c2.8 3.8.4 11.8-2.9 9.7-1-.6-1.5-19-.6-21.8.8-2.7 2.4-2.2 2.4.7m122.4.1c1.7 4.4-.6 10.4-4 10.4-2.5 0-6.4-2.3-6.9-4.2-1.7-5 9-11.1 10.9-6.2m-599.9 3c0 2.4-3.7 3-5.5.9q-2.5-3-3.3.6a4 4 0 0 1-2.6 2.6q-2 .6-2.1 1.9c0 2.2-3.9 3.8-4.6 1.9-1-2.5.4-4.8 2.6-4.2q2 .6 3.2-1.6c2.4-4.7 12.3-6.3 12.3-2.1m504.5-.9c0 2.8-1.6 4.7-3.5 4-1.5-.6-1.5-.9.2-3.2q3.2-4.4 3.3-.8m-179.1 6.9c12.8 22.4 22.4 61.3 20.4 82.5-.3 2.7 0 5.7.7 7 1.6 2.9-.8 4.9-6.1 4.9-4.3 0-4.9-1-3.8-6a127 127 0 0 0-5.1-50.7 138 138 0 0 0-15.1-33.1q-3-3.9 1.8-9.1c2.5-2.7 3.4-2.2 7.2 4.5m-375 0c3.1 3.6 2.5 9.2-1.4 12.9-3.7 3.3-14.8 3.8-16.5.6-5.9-11 9.8-22.8 17.9-13.5m497.4-.3c9.4 4 4.2 19.9-5.8 17.7-8.6-1.9-10.8-9-4.9-15.9 3.8-4.4 4.2-4.5 10.7-1.8m88.8 1c-2.3 2.3-1.3 6.7 1.4 6.7q2.5 0 2.5 1.5c0 2-1.8 1.9-6.3-.5-4.6-2.5-7.3-2.5-12.3-.1q-4 2-4.6.8c-.8-1.3.9-2.7 3.5-2.7q1.5-.1 1.7-1.6c0-1.2.9-1.5 3.9-1.3 3.2.3 4.4-.2 7.2-3 2-2.1 3.5-2.9 3.7-2.1.2.6-.1 1.7-.7 2.3m-295.8-.5q2.7 2.7-1.9 5c-1.9 1-2.3.9-2.8-1.2-1.2-5 1.6-7.3 4.7-3.8m342.4-.1c.7 1 2.3 3.8 3.4 6.3l4.5 9.7c1.3 2.8 2.4 5.7 2.4 6.3s.7 2.5 1.6 4.1c3.4 6.7 6.5 25.8 7.4 45.4.9 21.5.7 22.2-5.4 21.1l-3.6-.7-.1-12.7A85 85 0 0 0 976 330c-.7-3-1.6-7.5-1.9-10-1.1-6.8-8.9-29-10.2-29-.4 0-1-1.5-1.3-3.4a10 10 0 0 0-2.1-4.6q-3.2-2.8.7-8 3.6-5 6.5-1.3m-580.3.7c7 2.9 9.7 9.6 7.4 18.3-3.3 12.2-21.8 10.8-25.6-1.9a13.5 13.5 0 0 1 18.2-16.4m199 2.1c8.8 8.2-6.7 23.1-16 15.4-2.5-2.1-1.5-12.1 1.6-15.4 3.3-3.5 10.6-3.6 14.4 0m303.9-.4c2.1.6 3.7 1.6 3.7 2.5a7 7 0 0 0 1.2 3.3c1.5 2.4-.3 13.5-2.6 16-4 4.4-8.3 4.6-14.4.5l-6-4c-.2-.1-.5-2.4-.6-5.1-.7-10.6 7.4-16.4 18.7-13.2m-736.5 7.5c1.8 1.2 2.2 2.4 2.2 6.4 0 7.8-7.2 11.1-14.1 6.5-10.5-6.9 1.2-19.6 11.9-12.9m757.7 3.4c0 3.6-2.9 3.3-3.3-.3-.3-2.3 0-2.8 1.5-2.5q1.8.3 1.8 2.8m20.9-2.2c.8 1.4-.5 5.2-1.8 5.2q-1.2 0-.8-3c.4-2.9 1.6-3.9 2.6-2.2m-11.8 8.8c-3.1 2.2-3.7 1.7-3.4-2.6l.2-4.1 2.5 2.6c2.5 2.6 2.6 2.6.7 4.1M451 292.5c.4 1.7 1.4 4.4 2.3 6.2 3.4 6.4 2.5 7.9-4.8 8.7-10 1-10.3.3-5-11q5.8-12.5 7.5-3.9m411 0c0 1.3.7 2.8 1.5 3.2 1.3.8 1.3 1.2.2 2.7q-1.4 1.7-2.5 1.2c-1.5-.9-1.6-9.6-.2-9.6.6 0 1 1.1 1 2.5m43.8 2q-1.8 4-3.3 1.4c-.8-1.2 2.4-5.1 3.6-4.3.5.2.3 1.6-.3 2.9m23.2-.6c0 1.8-1.8 4.1-3.2 4.1-1.3 0-.9-5.8.5-6.3q2.6-1 2.7 2.2m68.9-1.5c2.4 2.9.9 10.1-2.2 10.4s-8.7-3.1-8.7-5.4c0-4.4 8.3-8.2 10.9-5m-802.4 3.3c.3 1.6 1 4.3 1.6 6.1 1.3 4.1.7 4.8-5.2 5.7-6.1.9-6.8-.4-3.5-6.7 1.4-2.7 2.6-5.6 2.6-6.4 0-2.7 3.9-1.6 4.5 1.3m136.9.2a10.5 10.5 0 0 1-8.9 17.7c-10.9-1.3-8.2-19.6 2.9-19.6q4.4 0 6 1.9m35.9 4.2c.5 4.1.1 6.9-1.2 6.9-.3 0-.8-2.7-.9-6.1-.4-6.8 1.2-7.4 2.1-.8m333.7-.5c3.5 8 2.1 10.6-5.3 9.7-5.5-.7-6.5-2-4.7-6.4 3.6-8.7 7.2-9.9 10-3.3m128.3-3.4c10.2 3.1 7.8 19.9-2.6 18.3-6.4-1-7.6-1.5-8.1-3.3-3.4-12 .8-18 10.7-15m67.8 4.9c-2.6 2.2-2.6 2.7.2 4.9s1.6 3.7-1.8 2.2c-1.4-.7-3.7-1.2-5-1.2-3.7 0-3-2.7 1-4 1.9-.6 3.5-1.6 3.5-2.1s.8-2.2 1.8-3.7l1.7-2.6.3 2.4q.3 2.4-1.7 4.1M582.3 299c10 5.9 5.5 16.3-6.6 15.2-6.2-.5-7.7-2.6-6.6-9 1.5-7.8 6.4-10.2 13.2-6.2m325.2.9q-.5 1.9 1 2.5 1.4.6 1.5 1.7-.1 1-1.6.5c-1-.4-2.5.1-3.6 1-1 1-2.1 1.5-2.4 1.1-.8-.7 1.4-4.7 2.6-4.7q1-.2 1-2 .1-1.8 1.1-2 1 .1.4 1.9m8.5.2q.2 1 2 .4c2.8-.9 2.5.8-.4 2.1q-2.6 1.2-3.5.1c-1.6-1.6-1.3-3.7.4-3.7q1.4.1 1.5 1.1m10 1.4c0 .5-2.7 11.2-3.6 14.4-.8 2.7-3.6-1-2.9-3.8 1.2-5.1 6.5-13.7 6.5-10.6m-62.6 3c2.1 3.2 2 3.3-.9 2.7q-2.6-.4-2.5-2.8.1-4.7 3.4.1m94.1 1.5c0 2.6-.5 3.6-1.9 3.8q-4.4.8-2.5-4.7c1.6-4.4 4.4-3.9 4.4.9m-92.9 9.7c-1.6 1.6-5.6-.9-5.6-3.6q-.2-6.3 3.7-.4c1.3 1.9 2.2 3.8 1.9 4m40.1-2.7c1.7 2.7 1.9 2.6-17.7 2.4-20.9-.2-19.5-.1-18-1.8q1.1-1.6 3.4-.6c1.2.4 5.6.5 9.7 0s10-.6 13.1-.4c3.2.1 6-.1 6.3-.7q1.3-2.1 3.2 1.1m12.3.4c0 1.8-4.6 2.9-6.8 1.7-1.5-.9-1.4-1.1.8-2 3.6-1.4 6-1.3 6 .3m-617.8 6.5c7.3 0 18-.2 23.8-.5 13.3-.7 16 .2 16 5.1s4.1 4.4-55.2 4.7l-52.7.3-.6-3.1c-1.3-7.1-1.8-7 32.7-6.7zm166.4.8c.9.9 1.4 2.9 1.2 4.7l-.3 3.1h-109l-.3-4.7-.3-4.6h53.6c46.4 0 53.8.2 55.1 1.5m247.8.3c.5.5.9 2.6 1 4.7l.1 3.8-17.4.3c-11 .1-17.8-.1-18.5-.8-1.3-1.3-6.3-1.3-7.1 0s-5.2 1.3-6.1-.1q-.6-1-4.3-.3c-4 .8-45.7 1.2-46.4.4-1.4-1.5-1.5-4.8-.3-6.5 1.3-1.8 3.4-1.9 38.6-2.1 20.4-.1 37.3-.4 37.5-.6.7-.7 22.1.4 22.9 1.2m-169.1 1c1.3 1.9 1.8 2 6.1.9 2.5-.6 5.2-.9 6-.6q1.3.5 2.2-.3c1.7-1.7 36.4-1.7 37.4 0 1.3 2 1.2 2.3-.4 4.6-1.9 2.6-28.5 3.2-34.3.7-3.1-1.2-3.9-1.3-4.7-.1-1.2 1.5-2.6 1.6-41.8 1.9-27.9.2-28.8 0-28.8-5.1 0-3.9-.6-3.8 29.7-3.9 26.3-.1 27.2 0 28.6 1.9m249.4-1.1 45.3.1.6 2.6c.4 1.4.2 3.6-.5 5L838 331h-50.5c-56.3 0-54.5.2-54.5-6.9 0-3.5.7-3.8 9-3.6 3.6.2 26.9.3 51.7.4m174.8.3c.4.4 1 2.7 1.2 5.3l.6 4.5-12.9.1c-40 .3-97.9-.2-98.7-1-.4-.4-.7-2.6-.5-4.7l.3-3.9 11.5-.5c17.5-.8 97.7-.6 98.5.2m-659.7 73.5c.2 54.7.1 61.3-1.4 62.7-1.7 1.7-5.9 2.2-6.8.7-.9-1.3-1-122.7-.1-124 .4-.7 2.3-1.1 4.3-.9l3.7.3zm-144.1-55.1c1 25.9 1.4 31 3.2 38.5a170 170 0 0 0 11.1 33.2c0 2.4 4.7 10.8 7 12.4 4 2.8 4.4 5.1 1.4 9.4-1.5 2.1-3.2 3.9-3.8 3.9-1.7-.1-8.6-10.1-8.6-12.5 0-1.2-.9-3-2-4s-2-2.5-2-3.4-1-3.6-2.2-6.1l-2.9-6.2c-6.1-12.5-11.3-64-7-69.2 2.3-2.7 5.6-.5 5.8 4m506.5 7.9c-.4 13.7 1.7 34.3 4.3 42.5l4 13.3c1.4 4.8 5.1 13.5 8 19.4 5.3 10.5 5.4 10.7 3.7 13.5-3.1 5.2-6.1 2.4-13-12.2a158 158 0 0 1-16-72.8c.4-15.8 1-17.3 6.6-16.9l2.7.3zm-253.6-10.8c.9 1.3 1.4 5.5 1.4 14.3a193 193 0 0 0 9.9 54.5l3.6 8.5c1.6 3.6 3.6 7.6 4.6 8.9a8 8 0 0 1 1.9 3.3c0 .6.9 2.1 2 3.5 2.6 3.3 2.5 4.6-.5 8l-2.5 2.8-2.3-2.7a63 63 0 0 1-4.7-7.5 69 69 0 0 0-4.2-7.3 202 202 0 0 1-14.3-49c-.8-1.3-.8-36.7 0-37.9 1-1.7 3.6-1.3 5.1.6M811 378c.3 23.4.3 52.4 0 64.5l-.5 22-4.1.3-4.1.3-.7-16c-.9-22.3.4-111.3 1.7-112.9.6-.7 2.4-1.2 4.1-1l3.1.3zm121.2-40.5-1.3 8c-1.3 7.5-.5 36.4 1.1 42.5l2 8c2.8 11.9 6.2 21.2 12.7 34.7l2.5 5.3-1.9 3.2c-1.1 1.8-2.3 3.3-2.8 3.3-.9 0-5.4-7.5-7.6-12.5l-3.4-8a161 161 0 0 1-8.5-28c-3.3-13.9-4.3-55.6-1.4-57.7 3-2.2 9-1.3 8.6 1.2m-23.4 2.9c9.1 8.1 5.2 21.4-5.9 20.4-11.7-1.2-14.2-14.6-4.1-21.5 3.6-2.4 6.5-2.1 10 1.1m-573.1.2c5.1 7-1.9 21.3-9.5 19.2-8.9-2.4-11.2-5.6-7.7-10.2.8-1.1 1.5-3.5 1.5-5.3 0-5.8 12-8.7 15.7-3.7m-138.7.1c7.5 5.1 7.7 18.6.4 21.3-9.3 3.6-17.5-4.9-14.4-14.7 2.3-7.2 8.7-10.2 14-6.6m180.4 1.4c7.7 9.1-1 23.8-11 18.4-7.6-4.1-7.1-14.7 1-19.6 4.4-2.7 7-2.4 10 1.2m208.1.6c7.4 7.6 3.2 17.3-7.4 17.3-2.8 0-9.1-6.9-9.1-9.9.2-9.1 10.4-13.7 16.5-7.4m117.9-.8c3.5 3 4.8 7.6 3.5 12.6-2.8 11.1-17 10.2-21-1.3-3.2-9.2 10-17.8 17.5-11.3m55-1.5c15.1 5.2 7.3 24.9-8.4 21.5-9.8-2.1-9.6-14.9.2-20.9 3.9-2.4 3.3-2.3 8.2-.6m31.9 2.7c2.9 3.2 3.7 9.2 1.7 14.3-2.5 6.7-15.8 6.7-18.6 0-5.4-13 7.6-24.2 16.9-14.3m169-3.5c7.5 1.3 10.4 13.5 4.5 19.1-12 11.4-27.1-4.5-15.6-16.4 3.3-3.4 4.6-3.7 11.1-2.7m-699.7 4c8 8.4-1 20-11.5 14.8-6.2-3.1-6.5-8.6-1-14.9 4.2-4.8 8-4.8 12.5.1m141.1-.9c5 4.4 5.1 7.9.6 13.7-4.2 5.4-9.8 6-13.6 1.5-7.9-9.5 3.9-23.2 13-15.2m52.9-2.2c7.9 1.7 6.3 19.1-1.8 19.6q-17.2 1.4-12.1-12.4 3.4-9.4 13.9-7.2m429.1 1.5c10.6 6.4 4.7 19.9-8.1 18.6-8.1-.9-10.5-5.6-7.7-15.5 1.2-4.4 10.7-6.3 15.8-3.1m127.6-.1c4.9 2.1 5.7 3.4 5.7 9.1 0 9.2-10.6 13.5-17.9 7.4-6.3-5.3-1.8-16.2 7.6-18.4zm-866.4 1.7c3.8 4.8 1.5 16.8-3.5 18-6.9 1.7-17.1-4.9-15.8-10.3 1.9-7.8 15.1-13.1 19.3-7.7m143.1-1.1c9.4 4.8 6 19.4-4.5 19.5-7.8 0-12.3-5.8-9.8-12.6 2.7-7 8.5-9.9 14.3-6.9m223.3.3c6.6 7.3 1.1 20.1-8 18.8-8.6-1.2-11.6-7.6-7.2-15.7 2.3-4.4 12.2-6.4 15.2-3.1m24.2-.6c3.3 1.5 5.5 5.6 5.5 10.1 0 9.5-12.7 12.1-18.4 3.9l-2.6-3.9 1.9-4.4c2.6-5.8 8.2-8.2 13.6-5.7m108.7 1.6c5.2 5.5 1.9 16.2-5.1 16.2-5.3 0-7.8-2.4-8.7-8.2-1.2-8.6 8.1-14 13.8-8m191.9 1.3c6.1 6.6 2.1 15.8-6.9 15.9-7.8 0-11.5-4.6-9.2-11.6 2.5-7.6 10.9-9.9 16.1-4.3m-359.3 4.1c-.3 3.1-.1 3.3 2.9 3l3.1-.3-.5 6.3c-.6 8.3-.8 8.8-3.7 8.8q-4.9.1-2.6-5c1-2.3.9-3.8-.2-7.2-1.4-4.5-1.3-8.8.3-8.8.5 0 .8 1.5.7 3.2m76.3-1c.7 1.2 1.1 5.9 1 11.4q-.4 18.7 5.5 15c2.6-1.8 6.3-1.9 80.3-2.7 20.3-.2 21.7.3 19.2 5.7l-1.1 2.5-51.2-.3-51.3-.3.2 38.3c.1 21 .4 39.5.8 41.1.6 2.8-5.3 5.6-8.2 3.8-1.5-.9-.3-111.2 1.2-115q1.5-3.5 3.6.5M917 371.9c1.2 2.4 1.3 6.8.1 7.5-1.9 1.2-89.1 1.9-90.5.7q-1.4-1.2-6.5-.5l-5.1.7v-3.1c0-5.1-5.6-4.5 54.5-5.7 24.2-.4 44.2-.9 44.4-1.1q1.5-1.3 3.1 1.5m89.5-1 6.4-.5c7.3-.8 7.1-1.6 7 27.5-.1 29.4 0 29.7 6.9 26.2 5.3-2.7 6.2-2.6 9.9.6 11.2 10.2 4.4 24.7-9.2 19.8-5.9-2.2-6.6-2-6.4 1.7.2 1.8-.2 4.2-.8 5.3-.7 1.3-1.1 11.9-1.2 28.5-.2 33.4.8 31.8-15.1 22.1l-6-3.3a176 176 0 0 1-33.3-27.6c-10-9.8-10.1-10.1-7.4-14 2.8-4 2.5-4.1 7.2 1.8 2.2 2.7 4.2 5 4.5 5s4.8 4.1 10 9a77 77 0 0 0 15.8 12.7c7.9 7.3 16 10.2 12.6 4.5-1.1-1.8-1-24.3.1-42q.6-10.3-.4-10.2-1 0-1.8-.3c-.5-.1-1 1.6-1.3 3.8-1 8.1-13 3.6-13-4.8 0-10.1 10.8-19.4 11.8-10.2 1.2 10.8 5.5 3.2 4.5-7.9-.4-5-.7-10.7-.5-12.6l.3-14.5.1-11-35.1-.5c-38.1-.5-37.4-.4-36.9-6l.3-2.5 30.3-.1c16.7-.1 30.6-.5 31-.9s2.5-.4 4.7-.1 4.5.6 5 .5m-210.3 1.6c1.1 1.5.9 6.3-.2 7-.6.4-27 .7-58.7.7-62.1 0-59.6.2-59.1-5.2l.3-2.5 28-.5c46.7-.8 88.9-.6 89.7.5m-589.2 2c2 1.8 2.3 1.8 12-.9 4.4-1.3 11.7-1.6 39.6-1.6 36.8 0 37 0 36.2 5.2-.4 3.1-5.1 3.4-48.8 3.1-19-.1-34.9-.2-35.5-.1l-18.2.4-17.3.3v-2.4q.2-6.1 11.3-5.2c3.4.3 7.3.1 8.7-.3 3.6-1.3 9.8-.4 12 1.5m199.6.1c1.1 4.3.5 4.4-46.2 4.6s-47.4.1-47.4-3.6c0-3.5-1.3-3.4 47.1-3.5l45.9-.1zm31.9-1.5 52.8-.7 49.7-.5v3.9c0 3.3-.4 4.1-2.2 4.4a1496 1496 0 0 1-111.1-1.1c-3.7-3-.3-7.7 4.7-6.6 1.7.4 4.5.6 6.1.6m-285.2 3.3c1.6 4.9-.9 5.9-13.1 5.3-7.5-.4-10.4-.3-10.6.6-2.5 9.5-2.8 14.9-3.2 61.9-.5 53.5-.4 55.2 3.9 49.4a18 18 0 0 1 5.9-4.7c2.1-1.1 7.5-4.4 12-7.4a94 94 0 0 1 8.6-5.5c.3 0 2.5-1.9 4.8-4.3l11.4-11.2c8.4-8.3 13-14.2 19.6-25.5l5.3-9a103 103 0 0 0 5.4-11l3.7-8.5c1-2.2 3.6-11 4.8-16.5 1.7-7.2 10-6.7 9.4.6-.9 10.8-13.2 40-19.8 47-1.9 2-3.4 4-3.4 4.4 0 1.3-3.3 7.5-5 9.5a165.8 165.8 0 0 1-48.5 44.2c-12 6.8-24.6 12.5-26.1 11.9-1.8-.7-1.7-130.7.1-133.6q.7-1 17.2-.8l16.6.3zm199.2 63.1v55h-3.4c-4.5 0-5.5-3.2-4.1-13.3.6-4.5.6-8.9.1-11.5-.5-2.3-1-22.6-1-45l-.1-40.8 4.2.3 4.3.3zm57.6-44.4c1.5 5.7 3.6 12.6 4.8 15.2 1.2 2.7 2.1 5.4 2.1 6.1 0 .8.9 2.4 1.9 3.8 1.1 1.4 2.9 4.8 3.9 7.6a62 62 0 0 0 10.4 16.8c1.3.8-13.6 16.3-19.6 20.3l-7.9 5.9-5.5 4.3-6.8-2.7a236 236 0 0 0-32-10.4c-1.4 0-2.7-.6-2.9-1.3-.7-1.9-1.5-71.8-.9-74.3l.6-2.2 24.6.2 24.6.2zm131.6-9.7c.7.6.4 76.6-.3 77.8-.3.5-1.5.6-2.5.3a4 4 0 0 0-3.2.3 73 73 0 0 1-15.1 5.2c-.7 0-4.9 1.6-9.2 3.6-14.8 6.7-13.8 6.5-18.1 4.2a15 15 0 0 1-4.5-3.3c-.4-.7-1.9-1.6-3.3-1.9-1.4-.4-2.5-1.1-2.5-1.8 0-1.2-4.6-5.7-10.5-10.3a60 60 0 0 1-9.7-9.8c-3.2-3.5-3.3-4-1.3-5.7.8-.7 1.5-1.9 1.5-2.6q.1-1.3 1-1.4c.6 0 1-1.1 1-2.4s.7-2.9 1.5-3.6q1.6-1.6 1.5.3c0 2.6 2 3 4.4.8 2-1.9 2.3-1.9 3.8-.5 1.5 1.5 1.9 1.3 5.2-2.2 4.6-4.9 1.9-6-5.9-2.4-6.2 2.8-9.1.6-4.5-3.5 1.1-1 2-2.7 2-3.8s.8-3.1 1.9-4.5c1-1.5 2.1-4.1 2.4-5.7.8-4.5 2.3-9.3 4.6-15.5q2.1-5.4 1.6-8.7c-.5-2.9-.3-3.2 2.2-3.5 4.3-.5 55.4 0 56 .6m117.7-.2c8.2 29.1 16.6 49.8 22.7 56.4 2.7 2.9 2.4 3.7-2.3 8.6l-7.4 7.8c-3.2 3.5-4.6 4.8-16.1 14.7-7.2 6.1-6.7 6-13 2.9-2.6-1.3-9.5-3.8-15.3-5.5s-11.1-3.5-11.9-3.9c-1.1-.6-1.4-8.3-1.8-41l-.5-40.2 20.8-.3c11.5-.1 21.7-.3 22.7-.5q1.6 0 2.1 1m67.3.4c1.1 2.9-6 29-9 32.9-.4.5-2.7 4.8-5 9.5-9 17.7-25.3 37.4-42.2 50.5-9.2 7.2-10.2 7.5-13.3 4.2-2.6-2.7-2.2-3.3 4.8-8.9a166 166 0 0 0 39.6-46.6c2.5-4.8 2.8-5.1 4.4-3.7.9.8 2.2 1.5 2.8 1.5 1.8 0 1.4-2.8-.4-3.8-2-1.1-1.7-2.7 2-12.7 1.5-3.9 3.3-9.5 4.2-12.5 2.8-10.7 3.4-11.4 9.7-11.9q1.6 0 2.4 1.5m59.1-.6H797l-.1 40.1-.1 40.1-2.9-.6c-1.5-.3-3.1-.2-3.3.3-.3.5-3.3 1.2-6.7 1.5s-8.1 1.5-10.3 2.5c-5.1 2.3-11.6 4.5-18.1 6.2-2.7.7-5.5 1.9-6.1 2.7-1.3 1.8-4.4.9-4.4-1.1 0-.8.7-2 1.5-2.7 1.4-1.1 1.4-1.5-.1-3.7-1.6-2.5-1.3-5.3.6-5.3.5 0 1 1.1 1 2.5q.1 4.1 4.3 1.1 3.2-2.6.1-4.4-1.6-1-.9-2.2.7-1.5 2.1.4 1.3 1.6 3.1 1.4t2.1 1.9q.5 2.4-1.6 2.3c-2.5 0-5.7 4.6-4 5.6q1.2.5 1.6-.4.5-1.1 2.2-1.2 1.7-.2 2.4-1.5c.3-.8 1.4-1.5 2.5-1.5s2.6-.6 3.4-1.4 3.8-1.7 6.8-1.9c2.9-.2 5.5-.9 5.7-1.6.2-.6 1.4-1.1 2.7-1.1s3-.6 3.7-1.3q1.4-1.4 3.3-.6c5.2 2 5.6 1.5 5.2-6.6-.2-4.2 0-7.8.5-8.1s.6-2 .2-3.7-.7-9.9-.6-18c.2-15.2-1.2-32.5-2.7-34-.5-.5-5.3-.8-10.7-.7l-15.6.2c-5.4 0-5.8.2-5.8 2.4q0 2.5 1.9 2.4c1 0 2.4.6 3 1.4 1.1 1.3 1.9 1.1 5.6-1 5.5-3 6.3-3 7.5.2q1 2.2 2 1.9c1.5-.9 1.2-2.6-.7-4.1-2.6-1.9.2-1.8 3.2.2 1.4.9 2.9 3.3 3.5 5.5.8 2.8 1.7 4 3.4 4.5 2.3.5 2.4.8 1.9 9.2-.3 4.8-.5 11.3-.5 14.4.1 5.1-.1 5.7-1.6 4.9l-3.6-1.6c-1.8-.5-1.8-.6.3-2.8 4.8-5.2 1.2-24.1-5.1-26.2-5.5-1.9-7.4-2.1-9.8-.9-5.4 2.5-9.3 2.8-8.6.6 1.1-3.3-1.4-3.6-4.5-.6-2.8 2.6-3.1 2.7-4 1.1-2.6-4.6-4.9-1.4-4.1 5.7.5 4.8.4 4.9-1.8 4.3-1.3-.3-3-.1-3.7.5s-2.7 1.1-4.4 1c-1.6 0-2.7.4-2.3.9q.5.8 1.4.4c1.4-.9 3.2 2.3 2.5 4.5-1.1 3.6-3.8 1.9-5.9-3.8-2-5.6-4-6.4-4.2-1.6-.2 5.7-.3 5.9-1.6 4.6s-1.2-9.6.3-12.4c1.3-2.4 3.6-2.3 4.9.3 1.3 2.3 4 1 4-1.9 0-.8.8-2 1.7-2.7 1.5-1.1 1.5-1.5.4-2.9-1.8-2.2-2.4-2-6.1 1.1l-3.2 2.6.7-4.9c.4-2.7 1.2-5.4 1.6-6a3 3 0 0 0 .3-2.8c-1.8-4.7-.8-4.9 21.4-4.3 11.4.4 25.8.7 32 .7m133.7 4.5 3 13c2.7 12.3 5.2 18.9 12.1 32.9l6.3 12.8-7.2 7.8c-11.2 12.1-30.6 27-35.1 27-1.2 0-3.2-.9-4.6-2a10 10 0 0 0-3.4-2 39 39 0 0 1-7-2.9c-6.1-2.9-12.5-5.2-20.1-7.3-2.2-.6-4.4-1.4-4.8-1.8-1.4-1.2-1.2-78.9.2-80.3 1-1 46.9-2.7 58-2.3.8.1 1.9 2.1 2.6 5.1m64.3-4.7c2.1 1.4-.5 12.9-5.5 24.9-.7 1.7-1.3 3.8-1.3 4.6 0 1.5-6.6 14.8-10.6 21.4l-4.8 8a189 189 0 0 1-44.6 46.8c-1.6 2-4.1 1.9-8.5-.2-4.8-2.3-4.8-2.2 6.3-10.6q22.1-16.6 22.2-20.3c0-.6 1-1.6 2.3-2.1a153 153 0 0 0 24-35.2c1.2-1.4 3.3-6.5 4.7-11.6l3.3-10c1.4-3.9 2.7-8.5 3.1-10.4 1-5.6 5.2-7.9 9.4-5.3m-688.9 35.6a471 471 0 0 0 .6 36.6c.9 1.5.4 1.9-3.1 2.5-4.1.6-12.6 2.5-14.4 3.2-10.7 4.2-13.7 4.6-12.6 1.7q.4-1.4-.9-2c-1.9-.8-2-3.4-.1-3.4.8 0 2.7.7 4.3 1.7 2.7 1.5 3.1 1.5 5.6-.2 3.6-2.3 3.4-3.8-.3-3.3-1.6.3-3 .3-3 .1 0-1.1 2.5-4.9 3.6-5.6 1.9-1.1 1.8-2.3-.8-6l-2.6-3.7c-.6-.8-5.2 5.3-5.2 6.9q.1 1.2 1.3.8c4.6-1.9 4.7-1.9 4.7 0 0 5.8-6.9 7-9.3 1.5q-1.2-2.9-3.4-2.4c-2 .3-2.3-.1-2.3-2.7 0-1.6-.4-3.3-1-3.6s-.7-1.9-.3-3.6c.5-2.5.2-3.1-1.6-3.6-1.1-.3-2.1-.9-2.1-1.3 0-1.3 3.3-2.1 4.4-1 .5.5 1.8 1 2.8 1s2.1.7 2.4 1.5c.8 1.9 3.4 1.9 5.9.1 1.9-1.4 1.9-1.5-1-2.6l-4.7-2.1c-1-.5-2.5-.9-3.3-.9q-1.4 0-1.5-.9c0-.5-.6-1.6-1.4-2.4-1.3-1.2-2.1-6.9-1.7-12.5.5-9.6 17-13.4 23.4-5.4 2.4 2.9 3.9 2 2.6-1.6-1.8-5.3-11.4-8.4-17.4-5.7-6.3 2.8-7.4 2.8-8.5 0-.8-2.2-1.3-2.4-3-1.5-2.9 1.5-2.5 3.8.8 4.2q2.8.2 3 2.5c.4 2.8-2.2 3.1-3.7.5-.8-1.4-1.2-1.5-2.3-.4-1 1-1 1.6 0 3.2 1.9 3.1.5 9.9-1.9 9.3q-1.8-.7-2.5 2.1-.6 2.5-2.3 2.4-1.6-.3-1.9 2.5c-.4 3.1-4.7 6.6-6.3 5q-1-1 .5-3.9l2-4.6q.5-1.6 2-1.2c.7.3 2-.3 2.7-1.3a9 9 0 0 1 3.2-2.6q1.6-.7 1.2-1.7c-.9-1.4-4.2-1.2-4.8.2q-.3 1.5-1.7.1c-1-.9-1.8-.8-3.6.4-2.4 1.5-2.4 1.5-2.4-2 0-1.9-.8-4.5-1.9-5.8l-1.8-2.3-1.2 2.2c-.6 1.2-1.8 2.2-2.5 2.2q-1.3.1-1.9 4.2c-.3 2.3-1.3 4.5-2.1 5-2 1.1-2.1 5.4-.1 6.2 1.5.5 2.2 4.6.8 4.6-4.4-.1-5.8-7.2-2.7-13.4l3.4-6.7a21 21 0 0 0 1.5-5.5c.4-2.2 1.6-5.9 2.7-8.3 1.6-3.6 1.8-4.9.9-6.9-2.3-4.9-1.7-5 34-5.1l33-.2zm40.2-32.5c3.3 3.4 4 10.1 1.4 15-3.9 7.6-18.5 3.5-18.5-5.1 0-10.9 10.2-16.8 17.1-9.9m142.9.4c0 3.4-5.3 21.4-7.5 25.7-.8 1.4-2.4 4.7-3.6 7.5a47 47 0 0 1-4.1 7.4c-1 1.3-1.8 3-1.8 3.8 0 1.3-4.6 7.8-9.2 13.3-.7.8-2.5 3.2-3.9 5.5a199 199 0 0 1-27.2 27.4l-6.8 5.4-3.5-1.9c-4.8-2.6-4.1-4.9 2.6-9.6 23.2-15.9 48.3-52.7 54.4-79.9 1.7-7.5 2.1-7.9 6.7-7.9 3.7 0 3.9.1 3.9 3.3m130.9-.6.6 55.1c.6 56.2.6 56.7-4.3 51.8-3.2-3.2-3.9-100.5-.9-106.4 2.2-4 4.6-4.3 4.6-.5m244.3 50.8c-.3 48.5-.6 62.3-1.4 63-1 .9-6.5 1.4-7.5.7-1.9-1.2-2.2-113.4-.3-115.7q1.3-1.6 5.4-1.3l4 .3zM583 388.6c7.7 5.2 6.5 16.2-2.1 18.9-5.8 1.9-12.7-8.6-9.3-14.2 4.3-6.8 6.7-7.8 11.4-4.7m248.5-.2c1.9 1.4 4.5 8.4 4.5 12.4 0 9.6-17.6 9.4-19.4-.3-1.7-9 8.2-17 14.9-12.1m130.5 4.4c0 1-.6 2.6-1.3 3.7s-2.4 4.6-3.6 7.7c-3.3 8.3-5.2 7.8-8.9-2.5-3-8.5-2.4-9.2 7.8-10l5.3-.5q.7 0 .7 1.6M195.5 394c2.2 2.4 0 9.3-3.1 9.8-2.4.4-6-8.4-4.2-10.5 1.6-1.9 5.2-1.6 7.3.7m508.6-.4c1.1 1.3.9 2.3-1.1 6.1-4.9 9.2-8 11.3-8 5.5 0-1.5-.9-4.1-2-5.7-2.3-3.4-2.6-6.1-.7-6.8 2.9-1.2 10.5-.7 11.8.9m-251.9 3.3c-.3 3.7-4.2 12.3-5.8 12.8-1.2.4-7.9-14.2-7.1-15.4.3-.5 3.4-.8 6.9-.8l6.3.1zm-298.8 6.6c2.9 2.7 3.3 5.3 1.2 9.3-4.2 8.2-15.6 5.7-15.6-3.4 0-7.7 8.6-11.3 14.4-5.9m845.1-.5c5.8 6.4-2.4 15.1-8.5 9-2.8-2.8-2.5-3.8 1.6-7.6 4.2-4 4.5-4 6.9-1.4M757 406.1c-1.4 2.6-.5 3.7 1.8 2.1 7.8-5.5 18.4-5.6 21.5-.1 5.7 10.1-.6 23.8-11 23.9-5 0-13.3-9-14-15.3-.7-6.5-1.1-7.1-2.9-5.7-3.4 2.9-3.9-.8-.4-4 3.9-3.6 6.7-4.1 5-.9m-422.1 7.6c2.6 1.7 2.4 10.6-.5 15-2.9 4.6-14.4 2.5-16.3-2.8-3.4-9.9 7.7-18 16.8-12.2m497.8-.2c2.7 1.9 4.7 7.8 3.9 11.1-2.4 9.2-16.7 11-19.3 2.5-3-9.3 7.9-18.8 15.4-13.6m-601.9 1.6c2.6 4.2-.6 14.1-3.3 10.5-2-2.6-2-6 0-5.3s2.8-.8 1-2.3-2-5-.2-5q1.3.1 2.5 2.1m354.7-1.1c7.8 3 3.9 17.2-5.2 18.6-8.5 1.3-13.6-9.2-8.1-16.6 2.4-3.3 7.8-4.1 13.3-2m165.5 2.7c0 1.7-1.9 3.5-2.9 2.9-1.8-1.2-1.2-3.6.9-3.6q1.8 0 2 .7m-24 4.9c.7 1.8.6 3.2-.5 5.2q-1.4 2.8-1.5 1c0-.9-.7-2.1-1.6-2.6-1.5-.8-1.5-1.1.1-3.6 2.1-3.2 2.3-3.2 3.5 0m8 1.9q.2 1.2 1.5 1.9c1.6.6 2.1 2.6.6 2.6-1 0-6.1-5-6.1-6q.2-.8 2-.3t2 1.8m9.9-.1q1.2 1.4.4 4.5c-1.2 4.8-2.8 4.1-2.9-1.2-.2-4.9.5-5.7 2.5-3.3m-494.6 5q.6 4-.4 2.9c-.5-.5-1.2-2.7-1.6-4.9q-.6-4 .4-2.9c.6.5 1.3 2.8 1.6 4.9m-107-2.8c.3.3.2 1.6-.3 2.8-.6 1.6-.2 3.3 1.6 6.1 6.1 10.2.3 19-10.7 16.2-7.8-2-4.1-19.7 4-19.7 3.5 0 4.7-1.3 2.6-3q-1.3-1.2-.9-2.1c.6-1 2.8-1.2 3.7-.3m612.5 2.2c.2 1.2 1.7 2.9 3.3 3.9q4.8 2.8 1.4 3.9c-1.1.5-1.2 1-.2 2.4.6 1.1.7 2.3.3 2.7q-.9.6-1.4-.7c-.3-.8-1.7-2.6-3.2-4-2.8-2.6-4.7-8.1-3.5-10 1-1.7 3-.6 3.3 1.8M170 429.5c1.9 2.3.6 9.6-2 11.7-6 4.9-13.6-1.5-10-8.3 2.1-3.8 9.8-6 12-3.4m552.8.1c2.5.7 3 3.2.7 4.1-1.8.6-5.8-2.5-4.9-3.8.6-1 1.1-1.1 4.2-.3m-610.5 2.1c1.6.9.8 16.1-1 17.8-3.1 3.2-12.4-.2-13.7-5-2.8-10.1 5.9-17.8 14.7-12.8m622.3.6c3.3-1.2 5 .7 2.4 2.7-3.3 2.6-7.2 2.5-8.8-.1-1.9-3.1.2-5.5 3-3.5 1.1.8 2.7 1.2 3.4.9M225.9 437c2 1 2.9 4 1.3 4-.5 0-2.1-1.4-3.7-3q-2.9-3-4.7-2.4-1.8.5-1.8-1c0-2.2 5.3-2.6 6.2-.4.4.9 1.6 2.2 2.7 2.8m20.5-3c8 3 8.2 19 .3 21.9-11.1 4-20.2-6.4-13.9-15.8 4.2-6.3 8.3-8.1 13.6-6.1m520.9 2.8c-.3 2.4.6 2.3 3.9-.5 3.3-2.9 17.1-2.3 18.2.8 1.4 4.1.1 6.7-2.2 4.5-2.4-2.1-2.5-2.1-6.2 1.4-3.3 3-3.5 6-.5 6q1.3.1 1.5.8c0 1.2-8.3.9-8.7-.4-.2-.6.3-1.7 1.2-2.4 1.4-1.2 2.2-5 .9-5-.3 0-1.4.5-2.5 1-2.3 1.3-8-1.5-7.2-3.6.2-.6 0-1.5-.6-1.9-1.8-1.1-1.3-3.7.7-3.3q1.6.5 1.5 2.6m-14.1 2.3c9 9.5 0 24.3-11.9 19.7-2.9-1.1-4.4-2.6-6.2-6.2l-2.4-4.7 2.2-2.9c1.1-1.6 2.1-3.3 2.1-3.8 0-1.9 6.7-5.5 11.4-6.1.5 0 2.7 1.8 4.8 4m-418.1 0c8.1 8.7-4.5 22.3-14 15-3.5-2.7-2.7-12.3 1.3-15.8 4-3.4 9-3.1 12.7.8m384.9 1.2q-.1.8-1.7.3t-3.5 1.4c-2.3 2.5.3 7.3 3.5 6.4 1.4-.4 1.7.1 1.7 3 0 3.6-1.6 4.9-2.6 2.1-.3-.8-2.1-3.1-4-5.2-3.4-3.6-3.4-3.7-1.4-5.5 1.1-1 2-2.5 2-3.3 0-2.4 3.3-3.7 4.8-1.8.6.9 1.2 2.1 1.2 2.6m-500.7 2.3a6 6 0 0 1 2.5 2.1c.5 1.9-3.7 1.6-4.4-.2-.7-1.7-4.4-2.1-4.4-.4 0 2.2 2.2 4.9 4 4.9 2.1 0 2.8.8 4 5 .7 2.3.5 3-.6 3q-1.3-.1-1.4-1.3c0-.7-2-3-4.5-5.1-2.5-2.2-4.5-4.5-4.5-5.3s-.7-1.6-1.5-1.9c-3-1.2-1.7-3.6 1.5-2.9 2.3.5 3 .3 3-.8 0-2.5 2.4-2.6 3.4-.3a7 7 0 0 0 2.9 3.2m367-1.7c4.7 4.4 1.3 16.9-4.7 17.2-8.1.4-10.9-1.2-12.8-7.2-.9-3.1.1-9.7 1.6-9.9l4.1-1.4c4.6-1.6 9.2-1.1 11.8 1.3m246 .2c6.8 7.9 3.3 18.9-6 18.9q-7.7 0-8.8-6.9c-1.6-9.5 9.4-18.4 14.8-12m151.5 1.1c2.9 2.9-.2 10.8-4.2 10.8-4.9 0-10.2-7.4-7.6-10.6 1.5-1.7 10.1-1.9 11.8-.2m-194 9.1a8 8 0 0 0-.5 4.4q.4 2.3-.7 2c-.6-.2-1.2-2.1-1.4-4.3s-.8-4.5-1.5-5.2q-1.2-1.4.4-2.3c2.1-1.3 5.1 2.9 3.7 5.4m-59.8-.7c0 2.6-.1 2.7-2.4 1.8-1.9-.7-2.1-2.5-.4-4.2q2.6-2.2 2.8 2.4m-520.5 4.8c8 8.7 21.9 20.3 29.1 24.5l10.9 6.4c6 3.6 11.9 5.7 41 15.1 3.8 1.2 4 1.5 4 5.2v3.9l-4.2-.1a49 49 0 0 1-15.3-3.6l-11.6-4.3a142 142 0 0 1-40.3-22.3l-8.6-7.7c-3.2-2.8-6.7-6.1-7.9-7.5l-4.8-5.1q-4.5-4.3-1.6-8.9c1.9-3 2.8-2.6 9.3 4.4m553.5-3.9c0 1.5-1.8 3-2.7 2.2-.2-.3-.2-1.5.2-2.6.7-2.3 2.5-1.9 2.5.4M465.7 461a135 135 0 0 0 32 24.2c10.5 6.2 27.4 13 38.2 15.2q9.2 1.8 5.9 9.2c-1.4 3-1 3-13.7-.7l-13-3.7c-1.4-.3-5-1.8-8-3.5l-10.6-5.6a151 151 0 0 1-37.2-27.5c-9.9-9.6-10.7-11.5-7.1-15.3 2.8-3 2-3.4 13.5 7.7m251.8 1.5a117 117 0 0 0 16.2 14.3 139 139 0 0 0 50 25.8c1.7.8 4.2 1.4 5.5 1.4 4.3 0 6.9 2.7 6.6 6.8-.3 3.7-.3 3.7-4.8 3.6-14.6-.5-49.2-16.9-65.7-31.1a51 51 0 0 0-6.7-5.3 74 74 0 0 1-18.6-21c0-1.2 4.1-6 5.1-6 .5 0 6.1 5.2 12.4 11.5m250.1-10c1 2.4 0 3.4-2 2q-1.6-1.4-1.1-2.4c.9-1.6 2.5-1.4 3.1.4M257 453c0 .6 1.1 1.6 2.5 2.2s2.5 1.7 2.5 2.5c0 1.5-4.6 1.8-5.5.3-.3-.6-1.5-1-2.6-1q-3.5-.1-.3-3.4c1.8-1.8 3.4-2.1 3.4-.6m526.4 2.3c1.8 1.3 1.3 4.7-.8 4.7-1.8 0-3.6-2.1-3.6-4.2s1.9-2.3 4.4-.5m-56.8.8c1 1.7-2.3 4.6-3.7 3.2-.7-.7-.9-1.9-.6-2.7.7-1.8 3.3-2.1 4.3-.5m-574.3 2.1c1.6 2.5-.9 9.6-3.8 11-5.9 2.7-13.1-3.3-10.6-8.8 2-4.4 12.1-5.9 14.4-2.2m75.1 1.3q2.3 5.7 4.4 1.9c1.6-2.8 3.5-.6 2.8 3.1q-.7 3.3.6 3.8 1.4.6-.2.6a40 40 0 0 1-12-10.8c0-1 1.1-2.1 2.2-2.1.4 0 1.4 1.6 2.2 3.5m546.6-3q-.2.6-2 2.5a9 9 0 0 1-2.5 2c-1 0-.5-2.6.7-3.8s3.8-1.7 3.8-.7m-43.3 5c.1 4.1-.8 5.8-2.1 3.7-.4-.8 1.1-8.2 1.7-8.2.1 0 .3 2 .4 4.5m264.8-2.1c3.2 2.3 1 9-3.2 9.4-6.1.6-8.6-6.9-3-9.3 4-1.8 3.9-1.8 6.2-.1m-741.8 2.2c-1.1 2.3-1.6 2.5-5.6 2.1-2.5-.3-5.3 0-6.2.6q-1.7 1-2.5.4c-1.4-1.4 1.7-3.2 7.4-4.3 8.5-1.7 8.2-1.8 6.9 1.2m82.8 1.3c2.6.5 3 1 3 4.1v3.5l-13 .2a129 129 0 0 0-46.5 7.8c-1.9.8-5.4 1.6-7.7 1.9-2.4.3-5.3 1.2-6.5 2-4.1 2.5-8.7 3-10.9 1-2.7-2.4-2.5-2.8 3.1-5.8 15-8.1 30-12.3 54-14.9a151 151 0 0 1 24.5.2m-74.1 5.3c-.2.4-3 1.9-6.2 3.4a43 43 0 0 0-7.4 4.1c-3 2.6-9.6-1.2-11.2-6.5-.8-2.5.5-2.9 2.4-.7 1.6 2 4 1.9 4-.1q-.1-1.8 1.3-.6c3.7 3 7.8 2.5 11-1.3l3-3.7 1.8 2.3c1 1.3 1.5 2.7 1.3 3.1m479.9-3.7c-.4 1.5-3.6 1.2-4.1-.3q-.5-1.4 1.9-1 2.2.3 2.2 1.3M594 467.3c3 .3 5.1 5 3.2 6.9-.9.9-2 .9-4.6 0a24 24 0 0 0-9.8-.7c-3.5.3-12.2.7-19.3.9s-14.9.9-17 1.5l-7 2.2-9.5 3.1c-3.6 1.1-8.6 2.9-11.2 3.9q-8.3 3.3-12 .5c-3.2-2.4-1-5.8 4.7-7.2a119.2 119.2 0 0 1 33-9.8l12.5-2c2.3-.4 31.5.1 37 .7m-223 2.5c9.4 2.6 17 5.9 17.7 7.8q.6 1.2 2.8 1.2c3.1-.3 10.2 3 15.1 6.9 2.3 1.8 4.4 3.3 4.7 3.3 1 0 9.3 5.8 10.7 7.5.7.9 5.1 4.5 9.7 8.1s8.3 6.9 8.3 7.4 1.4 2.6 3.2 4.5l3.1 3.6-2.6 2.7-2.6 2.6-12-12.2a80 80 0 0 0-13.5-12.2q-1.5 0-1.6-1c0-.5-1.7-1.9-3.7-3a59 59 0 0 1-18.5-14.1c-.5-1.2-2.3-1.8-7-2.1-4.5-.2-7.3-1-9.5-2.6a13 13 0 0 0-5.9-2.2c-6.9 0-13.1-4-11.7-7.6.7-1.8 2.3-1.7 13.3 1.4m367.4-.8q4.7 2.2 4.6 4c0 2.4-1.3 2.6-3 .5q-1.2-1.3-2.3-1.5c-1.3 0-4.7-3-4.7-4.2 0-1.1.1-1.1 5.4 1.2m99.4 1.2c3.7 3.7.2 9.5-5 8.3-13.3-3.1-37-.6-56.6 6-12.7 4.3-22.2 4.1-22.2-.6 0-1.7 20.8-9.3 30.3-11 19.9-3.7 51-5.2 53.5-2.7m-631.3 2.9c1.3 1.9-5.2 9.4-37.6 43.4a594 594 0 0 0-21.6 23.8c-8.1 8.9-20.3 12.5-20.3 5.9 0-3.9-3.7-7.2-8-7.2-6.5 0-8 4.3-3 8.2l5.9 4.5c2.1 1.7 4.2 2.3 8 2.3 2.8 0 5.1.4 5.1 1q0 .9-.9 1c-.8 0-5.8 6.2-16.8 20.9-2.3 3.1-7.1 9.9-10.7 15.3-5.8 8.5-7.1 9.9-12.3 12.5-7.1 3.5-8.1 5.7-13.3 28.8-.5 2.2-2.3 8-4 13-5.2 14.7-5 17.2.7 9.9 1.5-2 4.6-5.6 6.8-7.9 8-8.6 9.3-10.4 10.5-14.2.7-2.1 1.8-4.3 2.6-4.9 1.1-.9 3.4-6.1 5.1-11.9.4-1.1 2.1-4.2 4-6.9 1.8-2.6 3.3-5.6 3.3-6.5s.6-2.8 1.4-4.3a83.8 83.8 0 0 1 17.1-28.7c.3-1 1.5-2.1 2.5-2.4q2-.5 1.8-2.7c-.2-1.3.3-2.5 1.1-2.8q1.5-.6.7 2.1c-.5 2.1-.2 2.7 1.6 3.3 1.3.3 3.7 2.2 5.4 4 5.3 5.7 10.6 3.3 10.8-4.8.1-5.7-3.7-8.3-8.2-5.6-3.5 2.1-4.2 1.6-4.2-2.8 0-5.1 10.1-17.7 36.1-44.9 6.8-7.2 14.2-15.3 16.3-18 5.3-6.7 17.5-18.5 19.1-18.5 3.7 0 1.4 3.7-9.1 15l-6.5 7.4-7.5 8.5-19.3 22.1-17.1 19.9c-3.6 4.1-3.7 4.9-.8 5.3 6.8 1 9.5 16.9 3.9 22.7-8 8.1-19.9 6.2-21.7-3.5-.9-4.6-3.3-4.1-5.1 1.1-.7 2.1-2.2 4.8-3.2 6-1 1.1-7.1 12.6-13.5 25.5-19.8 40.1-24.8 47.3-44.1 63.3q-11 9-7.2 3.5A87 87 0 0 0 73 633.5c2.1-28.3 7-38 19.3-38h5l3.9-6.5 5.7-9.6c.9-1.7 2.7-4.4 3.9-6 4.9-6.3 11.2-15.2 11.2-15.8 0-.3-2.1-.6-4.7-.6-16-.1-18.1-20.6-2.4-24.1q10.2-2.4 15.7 9.5c1.1 2.2 2.4 4.1 3 4.3 1.5.5 10.3-8.2 23.2-23.2 6.1-7.2 11.8-13.6 12.4-14.3 1.7-1.7 3.7-4 7.2-8.2 6.3-7.8 27-29 28.2-29q1.3.1 1.9 1.1m421.9 1.9c10.6 3.2 13.7 4.6 14.9 6.6.4.8 1.9 1.4 3.2 1.4q5.4 0 10.1 4.9c1.6 1.7 3.7 3.1 4.7 3.1 4 0 25.6 18 31.2 25.9l2.7 4-2.2 3.1c-3 4.2-3.9 3.9-11.2-3.3-8.3-8.2-25.5-21.7-27.6-21.7-.5 0-1.7-.9-2.7-2s-2.2-2-2.7-2a114.5 114.5 0 0 0-28.1-11.2c-5.4-1.4-8.5-7-5.7-10.3 1.7-2 2.3-2 13.4 1.5m242 1.6c4.8 1.4 9.5 2.9 10.4 3.4l8.2 3.9a108 108 0 0 1 16.6 9.6c2.7 1.6 6.9 4.8 9.4 7.1l9.5 8.5a76 76 0 0 1 14.5 16.8c0 .5 2.3 3.6 5 6.8 6.4 7.4 20 33.2 20 37.8 0 1.3-2.8 1.5-17.2 1.5-24.2 0-42.8 1.1-42.8 2.4 0 .6 1.4 1.9 3.1 2.9 7 3.9 1.8 16.7-6.7 16.7-10.8 0-15.2-12.5-6.4-17.8 4.3-2.6.3-3.1-25.3-3.3l-25.7-.2v-22.1c0-12.1-.3-23-.6-24.2-.6-2.4 3.7-4.8 7.8-4.2l2.3.3.3 19.4c.1 10.7.4 19.6.5 19.8.9.8 35.1.3 35.9-.5q1-1-.1-3c-1.4-2.6-1.4-9.2-.1-9.2q1-.1 1-1.3c0-1.7 6.3-4.7 10.4-5s8.6 5.5 9 11.7c.2 3.7 0 4.6-1.3 4.4q-1.6-.3-1.6 1.7c0 1.7.6 2 4 1.8l18.5-.3c21.8-.1 24.3-1.2 19-8a11 11 0 0 1-2-3.2 26 26 0 0 0-3-5l-7.2-10.2c-12.8-18.4-44.3-42.3-61.3-46.7-13.3-3.3-17.5-6-17.5-11 0-4.8 1-4.9 13.4-1.3m-537 2.7c3.2 4.3 3 12.8-.4 15.6-6.9 5.7-16.5-2.4-13.7-11.4 2.2-7.2 10.1-9.5 14.1-4.2m122.2-.8c8.7 5.6.7 21.4-9.6 19.1-5.2-1.2-6-2.3-6-8.3 0-10.8 7.5-16 15.6-10.8m-147.2 2.2c.7 4.8-.4 85.6-1.3 86.5-.3.4-11.2.9-24 1-26.1.3-26.8.5-20.7 6.3 8.6 8.1 3.3 19.6-8.4 18-10.8-1.5-13.5-12.9-4.6-18.7 8.5-5.5 6-5.9-33-5.8-38.4 0-38.4 0-35.5-5.8l3.7-8.1c1.6-3.6 4.9-9.9 7.3-14l5.6-9.9c5-9 32.3-36.4 36-36 6.1.6 4.6 3.8-7 15-10.9 10.6-21.5 22.7-21.5 24.6q-.1 1.1-1.3 1.9c-.7.4-3.7 5-6.6 10-5.8 10.1-5.9 13.2-.2 11.8a277 277 0 0 1 25.9-.5c25.8.1 26.4 0 22.9-6.2-5.9-10.2 4.5-19.1 16.2-13.8l4.4 2-.7 6.2c-.4 3.4-1.2 7.1-1.8 8.1-1.9 3.7.3 4.2 17.9 3.9l17-.5c.4-.5 1.6-61.4 1.4-69.5s.7-10.2 4.9-10.2c2.4 0 2.8.5 3.4 3.7m398.8 1.3c5.9 7.3-1.7 19.8-10.4 16.9-14.3-4.7-11.3-20.7 3.6-19.5 3.7.2 5.5.9 6.8 2.6m234.3.1c.4 1 1.1 1.9 1.6 1.9q1 .2 1.9 2.5c.5 1.4 1.4 2.5 1.8 2.5a31 31 0 0 1 6.3 5.7c7.3 7.8 36.2 36.3 39.7 39q12.3 9.8 14.5 13.6c2 3.4 3.5 3.1 5.7-.9 4.8-8.7 19.8-7.9 23.7 1.3 1.8 4.5 1 11.1-1.8 14.8-4.2 5.2 5.7 13.5 15.7 13.3 7.9-.2 15.5 3.2 20.9 9.6l8.6 9.9c2.6 2.8 7.4 8.6 10.8 12.7a64 64 0 0 0 8.9 9.1c1.5 1 4.7 3.6 7.2 5.8 6 5.3 4.5 5.4-13 .4-3-.9-11.1-4.5-18-8.1l-17.3-9a142 142 0 0 1-24.3-18.8c-11.6-11.1-13.4-12.2-13.4-7.8 0 9-8.3 16.3-16.2 14.3-15.2-3.9-14.9-21.8.5-27.2 4.5-1.5 4.5-1.5-14.1-17.6a463 463 0 0 1-39.5-39.1l-17.9-19.4c-3.6-3.8-3.7-6.6-.3-6.6q2.4.1 3.2 1.7c.4 1 1.6 2.7 2.7 3.8l8.1 9c6.1 7.1 27.3 28.2 43.6 43.5 23.7 22.3 23.9 22.5 23.9 26.4 0 3.6 0 3.6-4.4 3.6q-8.1-.1-7.4 6.4c.8 7.8 9.3 5.2 13.8-4.2 3-6.3 3.1-6.3 8.9-1 4.4 4 8.6 7.3 18.5 14.2a151.8 151.8 0 0 0 22.2 16.2c4.4 2.5 8.6 5.2 9.4 5.8.8.7 3.5 2.1 6 3.1s5.4 2.6 6.5 3.6 3 2 4.3 2.4c3.7 1.1 2.7-2.2-1.6-4.9a100 100 0 0 1-18.5-19.6c-5.5-7.1-15.2-12.4-21-11.7-4.2.6-7.3-1-22.6-11.3-9.2-6.2-9.5-6.7-4.4-9.5 7.8-4.3 9.3-10.9 3.2-14.4-6-3.3-11.5 1.7-8.4 7.6 2.3 4.1 1 6.3-2.7 4.6a681 681 0 0 1-43.3-37.5l-4.7-4.7c-2.1-2-3.8-4-3.8-4.5s-1.5-2.2-3.3-4a200 200 0 0 1-18.9-22.2 8 8 0 0 0-3.4-3.3q-2.3-1-1.8-2.5c.7-1.9 3.1-1 3.9 1.5m-359.5 0c4.2.9 5 1.4 5 3.4 0 1.2.3 3.6.6 5.3 1.3 6.2-6 10.1-12.6 6.7-5.5-2.9-6.1-8.9-1.4-14 2.7-2.9 2-2.8 8.4-1.4m-28.7 2.1q1.4 2.3 1.1 8.8c-.2 3.6-.3 11-.1 16.5l.2 35v25l-18 .2c-24.6.2-27.7 1.1-22.5 5.8 6.1 5.5 1.8 17.5-6.4 17.5-9.9 0-14.3-13.2-6-18.6 5.1-3.4 1.6-4.3-17.8-4.6-14.9-.3-18.2-.6-18.9-1.8-.4-.8-1.8-4.2-3-7.5a46 46 0 0 0-4.9-10c0-.4-.9-2.6-2.1-4.9-1.6-3.4-1.8-4.7-1-6.9 1.5-3.9 5.3-3.4 6.2.8.7 3.4 2.3 6.5 5.7 11.3 1.3 1.7 2.2 4 2 4.9-.5 3.5.7 3.8 12.9 3.1 6.5-.3 13.5-.3 15.5.2 5.9 1.2 6.7-.9 1.3-3.4-6.9-3.3-3.8-15 4.6-17.1a16 16 0 0 1 12.4 3.5c2.3 2.6 2.4 11.2.1 13.6-2.2 2.2-1.5 4 1.5 3.6 8.7-1.1 25.2-1.3 26.2-.3 3.7 3.7 4.2 1.7 4.2-16.9 0-13 .3-18.2 1.3-19.2.6-.6 1.2-2.3 1.2-3.7 0-1.3.5-3.9 1.2-5.8 1.1-2.9 1-3.5-1.1-5.7-2.6-2.8-2.6-7.2 0-7 1.5.1 1.4-.3-.3-3.2a20 20 0 0 1-.1-14.7c.9-1.4 3.3-.7 4.6 1.5m257 6.3-.2 11-.1 34.9c0 17.5-.2 32.7-.5 33.7-.6 1.8-1.8 1.9-15.8 1.9-33.8.2-40.9 1.3-31.1 5 6.3 2.4.4 17-6.8 17-8.8 0-13-14.1-5.2-17.1q2.5-1 2.2-2.6c-.3-1.6-2.2-1.8-18.3-2.1a165 165 0 0 1-18.7-1c-.9-1-6.5-11.1-8.4-15.1-.9-1.9-2.7-4.9-4-6.6-3.1-4.1-3-5.6.5-9.4 4-4.2 4.4-4.1 9.4 3.6 5.5 8.7 6.6 11.3 6 14.6l-.5 2.7 9.3-.2c5.2 0 10.8.2 12.4.6 4.2.9 7.9-1.7 5.2-3.8-3.2-2.5-1.3-12.1 2.8-14 12.3-5.9 24.2 5.8 14.9 14.4-3.8 3.7-3.5 3.7 16.9 3.6l19.2-.1.8-37c.7-38.4 1.1-41 4.9-41.8 5.1-1 5.3-.7 5.1 7.8m21.7-4.3c2.8 3.1 2.8 12 0 14.8-4 4-12.2 1.9-14-3.6-2.7-8.2 8.4-17.1 14-11.2m-542 .1c0 1.9-2.1 3.7-4.2 3.7s-2.4-2-.6-3.8c1.6-1.6 4.8-1.5 4.8.1m507 1.7q0 2-2 2-3.5 0-.8-2.8t2.8.8m-403.7 3.8c1.8 1.6 0 5.2-2.6 5.2-.5 0-2.1.9-3.6 1.9-8.7 6.2-26.7 10.7-51.2 12.8-22.9 1.9-22.9 1.9-22.9-4.2V503h7.8c19.7 0 44.5-5.1 61.2-12.4 3.9-1.7 8.5-1.2 11.3 1.2m399.5-.2q.9 5-7.1 3.2c-7.7-1.6-5.1-6 3.3-5.5 2.7.2 3.6.7 3.8 2.3m-153.9 2.3c4.1 2.9 3.5 3.6-6.1 8.1-8.7 4-14 5.7-26.3 8.2l-10.5 2.1c-9.2 1.9-35 1.6-36.3-.5-2.7-4.2.3-7.3 6.8-7.1 17.6.5 42.3-3.3 51.1-7.7 2.1-1.1 4.4-2 5-2 .7 0 3.1-.9 5.5-2 4.7-2.1 6.9-1.9 10.8.9m-152.5 2.2c3.5 2.7 3.3 5.4-.4 6.9-1.6.7-3 1.6-3 1.9 0 .4-2.8 2.8-6.2 5.3-11.6 8.5-28 25.9-32.6 34.7-3.4 6.3-8.1 15.9-9.6 19.4-1.9 4.8-1.2 4.6-20.8 5-9.3.2-17.1.6-17.4 1-1.3 1.3.6 3.7 2.9 3.7 7.5 0 5.9 15.1-2 18.1-1.8.6-3.5.4-6.6-1l-5.9-2.4q-2.6-1-1.8-9.2c.2-2.3 2.8-5.5 4.5-5.5 2.1 0 3.6-2.2 2.4-3.7-.9-1-5.9-1.3-21.8-1.3-23.6 0-24.5-.2-24.5-6.6l.3-24.6.3-20.7 3.4-.7c6.3-1.2 6.3-1.4 6 18.7-.3 23.7-1.3 22.5 18.6 22.3 14.1-.1 17.4-1 12.9-3.3-4.5-2.5-2.4-10.8 3.7-14.4 3.6-2 12-2.3 14.7-.3s2.9 11.8.3 15.1-1.6 3.6 11.4 3c13.8-.5 14.4-.7 15.2-5.1.4-1.9 1.1-3.4 1.5-3.4q.8-.2 1.5-2.3c.3-1.2 1.2-3.1 2.1-4.2l10.4-14a98 98 0 0 1 15.2-17c3.5-2.8 8.4-6.9 10.9-9.2 6.6-6.2 7.6-7 9.1-7.6 2.2-.9 2.5-.8 5.3 1.4m250.1 1.1c3.3 1.5 3.2 4.1-.2 5.9-1.6.7-5 3.3-7.8 5.7l-8.7 7.5a148 148 0 0 0-33.4 44.1l-5.8 11.8-4.2-.6c-2.3-.3-8.7-.3-14.3.1-10.3.6-12 1.5-8.5 4.4 6.6 5.5 1.8 15.9-7.4 15.9-7.3 0-11-9.3-5.8-14.5 5.3-5.3.4-6.5-27.1-6.6l-9.3-.1-.2-17.6c-.5-39.5-.6-38.2 4.2-38.2 2.6 0 2.8 1.2 2.8 22l.2 19.2c.1 2.2 7.4 3.6 18.1 3.5 11.5-.2 14.3-1.3 9.4-3.5-4.8-2.2-3.1-10.4 2.8-13.2 10.7-5.2 20.4 4.3 13.2 12.8-3.2 3.8-2.4 4.3 6.7 4 4-.2 9.1 0 11.3.5 4 .7 4 .7 5.9-3.4 1.1-2.3 2.6-4.9 3.5-5.8s2.2-2.7 2.9-4.1a155 155 0 0 1 38.8-45.2c7.2-6 8.7-6.5 12.9-4.6m153 3c2.8 1.4 4.5 2.8 4.3 3.7-.3 1.6-14 8-19.8 9.2l-10 2.2c-19.1 4.5-45.4 6.1-48.6 2.9-1.7-1.7-1.8-7.8-.1-8.9a89 89 0 0 1 15.2-1c16.6-.2 45.1-5.7 49-9.4 1.5-1.5 5.2-1 10 1.3m-483 9.8c1.9 3.7.2 10.4-3.2 12.7-4.2 2.8-12.3-3.5-12.3-9.5s12.7-8.7 15.5-3.2M257 511c4.7 4.7 1 14-5.6 14-3 0-6.4-5.2-6.4-9.7 0-5.7 7.8-8.5 12-4.3m398 0c4.4 4.4.4 12.9-6.2 13-4.7 0-9.5-7.9-7-11.6s10.1-4.5 13.2-1.4m101.1 1.9c5.3 5.4 2.3 13.1-5.1 13.1-8.1 0-10.5-12.6-2.7-14.9 4.7-1.3 4.6-1.4 7.8 1.8m-250-.2c3.9 2.3 4.1 7.8.4 11.8-4.7 5-13.5 1.2-13.5-5.8 0-6.6 6.8-9.7 13.1-6m395.4 3.8c2.8 2.7 3 4.2 1.3 8.2-3 7-7.5 8.3-12.1 3.5-7.4-7.7 3.3-19.3 10.8-11.7m-568.2 6.3c5.5 5.6 2.6 16.2-4.4 16.2-11.7 0-15-13.3-4.4-18.1 5.2-2.3 4.6-2.4 8.8 1.9m45.7-.6c2.4 1.7 3 2.9 3 5.9 0 8.7-11.9 9.1-14.8.5-2.4-7.3 5.2-11.3 11.8-6.4m204.9-.6c5.6 2.8 6.7 11.8 1.9 15.8-5 4-14.8.1-14.8-5.9 0-8.4 6.2-13.2 12.9-9.9m50.5 1.9c3.2 2.9 3.3 4.9.5 9.5-3.7 6-8.3 6.9-11.9 2.3-6.2-7.9 4.1-18.6 11.4-11.8m-350.7 0c5.8 4.1 2.4 13.5-5 13.5-2.7 0-8.7-5.8-8.7-8.4 0-5.4 8.6-8.6 13.7-5.1m246.1 1.1c4.9 3.4 1 13.4-5.2 13.4-2.5 0-8.6-5.9-8.6-8.4 0-2 4.3-5.4 7.5-5.9l3.5-.6c.3 0 1.6.6 2.8 1.5m-104.3 1.9c4.9 4.6 1.2 13.4-5.6 13.5-8.4 0-10.4-10.4-2.8-14.6 3.5-1.9 5.3-1.7 8.4 1.1m311.6.4c5.2 5.3.9 15.1-6.6 15.1-2.4 0-8.5-7.6-8.5-10.6 0-6.5 10-9.5 15.1-4.5M235 527c3.3 3.3 2.4 12.4-1.2 13.3-3.2.9-9.7-2.2-10.4-4.8-1.6-6.4 7.2-12.9 11.6-8.5m547 .7c5.8 4.9 2.5 14.3-5 14.3-10.2 0-13.4-14.4-3.6-16.3 4.4-.9 5.5-.6 8.6 2m51.9.9c6.8 8.6-4.4 20.1-12.6 13-6.4-5.5-2-15.6 6.7-15.6 3 0 4.3.6 5.9 2.6m-346.5.6c5.5 7.8-6.2 16.1-12.9 9.3-2.7-2.6-3.1-4.6-1.4-7.6 2.3-4.3 11.7-5.4 14.3-1.7m185.6.5c5.7 7.2-3.8 14.7-10.9 8.7-5.6-4.7-2-10.5 7.1-11.3.9 0 2.6 1.1 3.8 2.6m251.9 1.3c5.3 2.8 4.7 13.7-.8 16-7.9 3.2-14.2-10.5-6.8-15 3.6-2.2 5-2.4 7.6-1m-46.9 2.5c5.4 2.8 4.6 8.8-1.6 12.1-5.8 3.2-12-2.1-9.8-8.4 1.6-4.6 6.5-6.2 11.4-3.7m-543.2 12.8c4.2 4.5 4.7 11.5 1.1 14.3-11.9 9-24.9-4.4-14.5-14.9 2.7-2.7 10.7-2.3 13.4.6m41.3 2c1 3.8-.7 4.3-2 .5-1.4-3.9-1.4-4.1.1-3.6.7.3 1.5 1.6 1.9 3.1m207.4-1.9c9.4 3.9 9.5 14 .3 18.7-6.1 3.1-13.8-1.1-13.8-7.5 0-4.9 5.1-11.5 9.8-12.5.1-.1 1.8.5 3.7 1.3m249.9 6.9c3.8 5 .1 15.7-5.4 15.7-9.6 0-12.5-7.9-5.8-15.6q6-6.9 11.2-.1"/><path d="M392 236c0 1 3.2 3 4.9 3q1-.2 1.1-2c0-1.6-.7-2-3-2-1.6 0-3 .4-3 1M384 236.9c0 .5-1.8 1.6-4 2.5-4.2 1.7-4.7 2.5-2.8 4.4q2.8 2.7 2.8-.9 0-2 1.8-1.7c2.2.4 5.2-1.9 5.2-3.8q-.1-1.3-1.5-1.4t-1.5.9M369.7 241.7c-.4.3-2.3.9-4.3 1.2q-5.9 1-2 3.6 1.6 1 3.5-.2c1.5-.9 2.2-.8 3.9 1 1.8 1.7 2.4 1.9 3.4.8 1.1-1 1-1.5-.4-2.5-1-.7-1.8-1.8-1.8-2.4 0-1.4-1.5-2.3-2.3-1.5M378.7 248.6c-.9 1-.9 4.4.1 4.4 2.5-.1 3.7-1.9 2.1-3.5q-1.4-1.3-2.2-.9M362.7 251.7c-.9 1.4.4 5.4 1.6 5q1-.4 1.4-1.3c.5-1.4-2.3-4.9-3-3.7M423.7 252.7q-1.6 1.8.9 5.9l1.7 2.5 1.9-2.1c2.6-2.7-1.9-8.9-4.5-6.3M393.2 306.5c.3 2.7 2.2 3.4 3.1 1.1.5-1.4-1-3.6-2.5-3.6-.4 0-.7 1.1-.6 2.5M401.1 304.9c-2 1.3-.4 5 2.5 5.7 3.3.8 3.6.4 2.2-3.4-1.3-3.3-2.3-3.8-4.7-2.3M384.3 307.6c-.6 1.6 1.1 3.4 3.4 3.4s2.2-1.8-.2-3.4c-2.3-1.5-2.6-1.5-3.2 0M646 237.5c0 2.3 4.9 4.3 6 2.5 1.2-1.9-.7-4-3.6-4q-2.3 0-2.4 1.5M655.5 240.1c-.8 1.2 1.4 3.1 3 2.6q1-.4 1-1.8c0-1.7-3.1-2.4-4-.8M635 242.2c-2.3 2.5-2.5 3.4-.9 4.3q1 .5 1.6-1.3.5-2.1 3.6-2.4c4.1-.4 4.8-2.8.8-2.8-1.8 0-3.8.9-5.1 2.2M623.7 244.9q-8.3 3-6.1 5.1c1.2 1.2 13.7-4.6 12.9-6-.8-1.2-.9-1.2-6.8.9M624.9 252.7c-.5 1.3-1.7 2.3-2.8 2.3-2.5 0-3.3 2.3-1.6 4.6s3.9.7 4.9-3.1c.5-1.8 1.2-2.3 3.3-2.2 4.1.3 4.3-2.9.3-3.5-2.6-.4-3.3-.1-4.1 1.9M629.3 260.2c-3.5 5.5-3 9.6.6 5a7 7 0 0 1 3.6-2.4q1.8-.5 2.3-2.1c.4-2.1-5.2-2.5-6.5-.5M672 270.5q-1.2 1.5-.8 2c.9 1 3.8-.7 3.8-2.1 0-1.8-1.4-1.8-3 .1M491 388.8c-7.2.7-7 8.6.2 8 4.2-.3 7.8 2.5 7.8 5.9q.1 1.2 1.1.8.8-.7.6-1.8c-.2-.7 0-2.2.4-3.4.7-2 .4-2.4-2.3-3.1-1.7-.4-3.4-1.4-3.6-2.1-.8-2.3 17.8-.9 19.5 1.5 1.3 1.7 1.4 1.7 2.7-.1 1.4-2 13.3-2.9 16.8-1.3 1.8.9 4.6-2.6 3-3.6-.4-.2-9.3-.3-19.7-.2a206 206 0 0 1-26.5-.6"/><path d="M533.5 396c-.3.5-.3 2.5 0 4.4q.7 3.4-1.1 7.1c-1.4 3.1-1.5 3.8-.3 4.6q1.3 1 1.1 3.8c-.2 1.6.1 3.2.7 3.6 1.5.9 1.4 4.8-.1 4.3-.7-.3-1.8-2.4-2.5-4.8a18 18 0 0 0-2.3-5.4c-.5-.5-1-3-1-5.3 0-3.9-.2-4.3-1.8-3.4-3.2 1.7-6.9-1.5-4.7-3.9.9-1 1.4-2.4 1-3q-.7-1.2-2.6.9-3.4 3.8-5.9.6c-1.5-1.8-4-2-4-.3 0 .6-1.8 2.6-4 4.5s-4 3.9-4 4.4c0 1.6 2.6 1 4.4-1 9.7-10.7 26.4 5.5 19.4 18.8-9.1 17.6-34.5 5.9-25.8-11.9 1.2-2.5.1-4.3-1.7-2.9-1.2 1-1.6 1-2.4-.2s-1.2-1.1-2.3.4q-1.4 2-2.2.6c-1.1-1.8 2.6-4.2 4.2-2.8s3.4.3 3.4-2.2q0-1.8-.9-1.4c-1 .6-6.1-1.4-6.1-2.5 0-.3-1.6-.6-3.5-.7-3.1-.1-3.5.2-3.5 2.3q0 2.3-1.5 2.4-1.3.1-1.5 1.5c0 1.8 1.7 2 2.2.3q.4-1.4 3.1.5c1.5 1 2.4 2.3 2.1 3.1-.7 1.7-5.7 2.8-6.5 1.4-1-1.6-2.9 0-2.9 2.4q-.1 2-2 2.5c-2.9.8-2.1 3.5 1.2 4.7s5-.1 2.5-1.9c-3.4-2.5.4-6 4.1-3.6 1 .6 1.1 1.3.1 3.4-1.3 2.8 2.3 10.1 5.6 11.4q1.3.6 1.5 2c0 2.4-3.4 1-4.8-2-.7-1.5-1.7-2.5-2.3-2.2-1.2.8-1.2 4.2.1 5 2 1.2.9 2.5-2 2.5-2.1 0-3.4.8-4.7 2.7-1 1.6-3.6 4.8-6 7.3-3.7 4-4 4.6-2.7 6.1.7.8 1.4 2.1 1.4 2.7q.1 1.1 1.5 1.2 1.5.2 2.1 1.5t1.6 1.5q1 0-.1-1.3-1-1.4-.2-5.9c1.8-10 13.2-16 20.3-10.8 1.7 1.2 3.4 1.8 3.9 1.3 1.4-1.4-.6-6.8-2.3-6.5q-2.9.4-4.3-5.1-.7-2.6.4-2.7 1 .2 1.1 1.5c0 .8.9 1.5 1.9 1.5q1.7.2 2.5 1.5c.3.8 1.6 1.5 2.8 1.5 4.4.1 7.7 4.4 4.3 5.6-1.7.7-2.1 5.9-.5 6.9 1.3.8 4.5-4.4 4.5-7.4 0-2.1.6-2.7 3.5-3.2l5-1q1.3-.2 1.5 1.1-.2 1.4-2.2 1.8c-1.7.3-2.3 1-2.3 2.9 0 2.2.2 2.4 1.5 1.3 2.9-2.4 4 .4 1.6 3.9-1.2 1.7-2 3.5-1.7 3.9.3.5-.5 1.9-1.8 3.1-2.4 2.2-2.4 2.3-3.5.3-.6-1.1-2.4-2.2-4.1-2.5a8 8 0 0 1-4.8-3.7c-2.1-3.4-3.4-3-2.6.9 2.1 10.4-8.7 18.6-19 14.5q-2.2-1-.9.9c.9 1.8 7.9 5.7 10 5.7q1.3.2 2.5 2c1.5 2.4 6 2.7 7.8.5.7-.8 1.8-1.5 2.5-1.5s1.6-.7 1.9-1.6q.6-1.3 1.7-.8c2.4 1.4 6.1-1.7 4.3-3.8-1.4-1.4-1.4-2-.4-3.3 2.6-3.2 6-.2 4.4 4-1 2.6 2.9 1.5 4.1-1.2.9-2.2 5.3-3.7 7.9-2.7.8.3 2.1-.4 2.9-1.6 1.3-1.9 1.8-2 3.6-.8 3 1.8 4.6 0 3-3.5-1.5-3.2-2.5-3.4-3.9-.7-1.2 2.3-4 2.7-4 .7 0-2.1 3.6-4.9 5.7-4.5 2 .3 2.3-38.7.4-56.5-.1-1-1.9-.9-2.6.3M493 420.9c0 1.1.3 2.6.6 3.5q.7 1.7-1.5 1.6c-1.7 0-2.1-.6-2.1-3.5q0-3.5 1.5-3.5 1.4.2 1.5 1.9m40.4 7c1.1 1.7-.6 7.2-2 6.7-2.7-1-1.9 2 .9 3.1 2.2 1 2.7 1.7 2.2 3-.4 1-.7 2.9-.7 4.3q0 2.5-2.3 4.3-5 3.3-4-2.4c.5-2.2.3-2.9-.8-2.9-2.6 0-4.1-2.8-2.6-4.6 1-1.3 1-1.7-.2-2.5s-.9-1.4 1.4-3.2c1.5-1.3 2.7-3 2.7-3.9q-.1-2 4.2-2.7.7 0 1.2.8m-7.3 24.3c3.6 4.1 3.7 3.9-1 6.4-5 2.7-8.4-.7-3.7-3.8q.9-.6-.3-2.2c-1.3-1.6-.7-3.6 1-3.6.6 0 2.3 1.5 4 3.2m-17.5 4.3c.4.8-.1 2.6-1 4s-1.6 3.5-1.6 4.9c0 4.2-4.5 8.2-7.4 6.6-1.3-.7-2.9-.9-3.6-.5q-1.2.7-.8-1.1c.2-1 1.5-2.4 2.9-3.1 1.5-.7 4.2-3.8 6-6.8 3.6-5.7 4.6-6.5 5.5-4"/><path d="M467.8 440.6c-4.3 2.3-4.2 9.4.1 9.4 2.6 0 3-.4 3.3-3.3.2-2.7.7-3.1 2.6-2.9 1.8.3 2.2-.2 2.2-2.2 0-3.1-3.7-3.5-8.2-1M735.7 390.1c-1.8 1-1.8 1.2-.1 3 1.3 1.5 2 1.6 3.1.7s2-.6 4.3 1.1c1.7 1.2 3 1.7 3 1.1 0-1.3 4.7-1.3 5.5 0q.6.9 2.2 1 1.9.1.3-1.5c-1-1.2-1-1.8 0-3q1.2-1.5.8-2.1c-1.1-1-17.4-1.3-19.1-.3M741.6 402.3q.3 1.3-2.1 2.5c-3 1.4-2.4 3.2 1 3.2 2.5 0 4.4-3.7 3-5.9-.9-1.6-2.5-1.3-1.9.2M240.1 390c-4.9.3-8.6 1-8.8 1.6-.6 1.7 7.6 2.5 12.1 1.2 3.3-1 4-1 5.1.5 1.5 2.1 2.4 2.1 4.6.1a4.4 4.4 0 0 1 7.3 2.1q.6 2.6 3.2 2.5c2.4 0 2.4-.1 1-2.2-2.5-3.5-2-3.9 4.7-3.6 5.6.3 6.2.5 6.5 2.5q.4 2.1 1.8 2.3 1.5.1.8-2.5c-.7-2.7 1.2-3.5 3.4-1.3q1.3 1.4 1.2 0c0-4-13.3-5-42.9-3.2M285.6 390.8c-.3.5.6 2 2 3.3l2.6 2.4-.4-3c-.3-2.9-3-4.6-4.2-2.7M230.5 398.6c-1.5 2.4-1.5 2.6.7 4.9 2.6 2.7 4.8 3.2 4.8 1.1q-.1-1.3-1.2-1.9c-1-.4-1-.7 0-1.8 1.7-1.8 1.5-2.7-.7-3.8-1.5-.9-2.2-.6-3.6 1.5M241.5 400c-.7 2.3.1 4 1.9 4s2.7-3.5 1.3-4.9q-2.3-2.5-3.2.9M287.8 399.2c-.6 1.7.1 3.8 1.3 3.8.5 0 .9-1.1.9-2.5 0-2.6-1.4-3.4-2.2-1.3M287 407c-.6 1.1-.8 2.6-.4 3.2 1.1 1.7 1.1 27.8 0 27.8-.5 0-.6 2.9-.3 6.8.5 5 .3 7.3-.6 8.7q-3.7 4.7-4.3-5.2-.5-10.3-4-10.3-1.7-.2-1 2.7l1.2 7.8c1.2 8.8 7.3 12.4 11.1 6.6 1.6-2.7 1.8-5.3 1.8-26.2 0-23.4-.6-27.3-3.5-21.9"/><path d="M281.6 412.7c-.3.3-.6 3.2-.6 6.4 0 6.3-2.9 11.1-7.7 13-2.5.9-3.1 3.3-1.1 4.5q1.2.5 2.6-1.4a5 5 0 0 1 3.9-2.2q2.3 0 2.9-1.8l2-4.8c2.2-4.4.5-16.2-2-13.7M261 443.8c2.3 3.1 4 3.4 4 .8q-.2-1.3-1.7-2l-3.2-1.2c-.7-.4-.3.7.9 2.4"/></svg>