<svg xmlns="http://www.w3.org/2000/svg" width="1445.3" height="800" viewBox="0 0 1084 600" fill="currentColor"><path d="M36 .8a159.9 159.9 0 0 1 16.2 27.5c3.9 8.5 5.8 16.9 8.8 37.9a54 54 0 0 0 13.2 27.2l3.9 3.4-1.7 6.1-1.7 6.1 2.9 5.7q7.8 15.2 25.4 7.2c4.3-1.9 5.4-3.3 7.4-9.2q1.3-3.6 7.8.8c2 1.4 4.1 2.5 4.7 2.5q1.7-.1 19.4 16.3l9.7 8.7c3.4 2.1 1.1 5.2-17.7 24.3-18.7 18.8-21.1 21.7-17.7 21.7.8 0 6 2.5 11.5 5.5a164 164 0 0 0 10.5 5.5c.8 0 12 8.2 16.3 12l3.5 3-6.5 12.7c-3.6 7.1-7.3 14.7-8.2 16.9-1.5 3.5-2.3 4.3-5.3 4.9-14.2 2.6-20.8 23.6-10.5 33.2 2.2 2.1 2.3 4.2.2 15.8-3.3 18.4-3.7 32.5-1.2 40 2.1 6.2 2.2 6.8.7 11.3-2 5.8-2.2 12.6-.7 21.7 1.5 10.1 1.4 10.7-2.4 13.5-15.2 11.1-8.7 34.4 9.2 32.8l3.6-.3 3.4 9.3c1.9 5.1 6.1 14.7 9.4 21.3 3.2 6.6 5.9 12.3 5.9 12.8 0 1.4-10 9.5-15.5 12.6a56 56 0 0 0-7.7 5.3 35 35 0 0 1-9.5 6.1c-2.1 1-2.3 4.1-.3 4.1q.8.2 1.2 1.5c.2.8 8.7 9.9 19.1 20.3a160 160 0 0 1 18.7 20.8c0 1.7-10.5 12.4-12.1 12.4-.5 0-2.1 1.2-3.6 2.6-8 7.5-32.5 15.9-33.9 11.7-1.9-5.9-3.2-7.8-7.2-10.9-8.3-6.3-18.8-3.9-23.9 5.4-2.3 4.3-6.5 4.1-17.3-1.1-26.9-12.7-35.4-44.4-19.6-72.9 4.8-8.7 5.2-8.9 9.5-4.1 7 7.8 14.4 9.4 24.4 5.4 6.1-2.5 13.7-11 13.7-15.3 0-1.1.5-2.8 1.1-3.9 1.1-2.2-.4-11.3-2.7-16-1.3-2.6-1.2-2.8 3.4-5.6 9.1-5.7 13.7-21.6 8.6-30.2l-1.9-3.2 3-2.2c10-7.4 12.8-23.6 5.4-31.6-1.7-1.8-1.9-3-1.3-8.4.6-5.9.4-7-2.6-13.2-2.9-6.1-3.1-7.1-2.1-10.5 4-13.5-7.1-27.3-22.1-27.2H76v-4.2c0-13.8-8.6-32.9-23-51.1-24.4-30.8-31.1-52.5-24.4-78.7 3.1-12.1 7.9-20.1 13.1-22 4-1.5 2.9-3.1-1.2-2-3.6 1-11.4 10.3-13.3 15.9-6.6 19.6-7.2 45.7-1.2 51.7A141 141 0 0 0 38.3 251a90 90 0 0 1 8.6 26.5 167 167 0 0 1 2.4 59.7c-.5.7-1.7 4.9-2.7 9.3a189 189 0 0 1-14.2 40.2A395 395 0 0 0 11.1 431a84 84 0 0 0-4.9 14.5l-3.1 12C1.1 464 0 490.3 1.4 497c2.9 14 4.3 18.6 7.9 26.5A96 96 0 0 0 39.5 561c.4 0 1.9.9 3.4 1.9C58.8 574.2 76 579 101.1 579c31.9 0 47.5-6.1 71.2-28q6.7-6.2 7.6-5.2c.4.6 8.9 9.4 18.9 19.6 10 10.1 18.2 18.9 18.2 19.5 0 2.6 3.2.8 4.7-2.7 3.4-8.3 5.3-12 8.7-17.1 2-2.9 3.6-5.5 3.6-5.8 0-.5 4.5-6.6 7.4-10 2.6-3 2.4-3.1 14.5 3a224 224 0 0 0 23.6 10.7l5.2 2c4.5 1.4 4.8 1.8 5.8 9.3 1.9 14 20.2 16.5 30.2 4.1l2.8-3.5 8 1.1c18.5 2.6 21.8 2.5 28-.5 5.4-2.7 5.8-2.7 8.9-1.3 8.9 4.3 17.6 4.2 43.5-.4 6.4-1.1 7.5-1.1 7.9.2 1.2 3.4 7.8 9 11.9 9.9 8.8 1.9 18.6-6.7 18.1-15.8-.3-4.9-.1-5.2 8.7-8.6 4.7-1.9 27.2-13 29.8-14.8 1.5-1 2.2-.8 4.2 1.6a75 75 0 0 0 15.6 12.7q1 .1.4 1.7c-2 5.2-1.8 8.3 1.1 12 5.2 7 7.9 8.3 16.7 8.3 6.1 0 6.1 0 11.2-5.4 4.5-4.7 5.8-5.5 10.1-6.2a32 32 0 0 0 8.4-2.5 15 15 0 0 1 4.6-1.9q1.1-.1 1.7-1.4c.3-.7 3-2.8 6.1-4.5a35 35 0 0 0 7.5-5.7c2.4-3 3.2-3 6 0 2.3 2.4 3.4 3 13.7 7.6 4.9 2.1 5.2 2.5 5.6 6.5 1.4 11.6 12 15.7 24.4 9.5l6-3 10 2c25 5.1 37.8 5.3 47.6.6 5.4-2.6 5.8-2.6 8.2-1.1 6.7 4.4 23.7 5.8 36.3 3.1 2.5-.6 3.1-.2 4.8 3 7.2 13.4 33.9 7.1 32.3-7.5-.3-3.1 1.6-6.1 3.9-6.1.8 0 2.9-.6 4.6-1.4l15.2-6.6a212 212 0 0 0 19.5-9.5c8.9-5.1 8.4-5.2 16.3 4.4 12.4 15 18.3 24.6 23.7 38.4l2.7 6.7 22.4-22.5 22.4-22.5 9 5.8a121 121 0 0 0 21.5 11.5q14 6 42.5 6.1c19.7.1 32-2.9 52.5-12.6a97 97 0 0 0 52.4-67.8l3.5-16.2c2-9.1-1.6-44.9-4.9-49.3-.4-.6-1.1-2.7-1.4-4.9-.4-2.1-1.8-5.6-3.2-7.7a16 16 0 0 1-2.4-5.4c0-.8-1-3.6-2.2-6.2A766 766 0 0 0 1055 379c-11.9-23.2-12.7-25.1-17.2-41-2-6.7-2.2-10-2.2-32.5 0-27.6-.1-27.2 8.4-52 8.1-23.7 13-51 10.1-56.3-1.2-2.1-1.4-1.7-3.6 8.3a51 51 0 0 1-8.2 19.1 13 13 0 0 0-2.3 4.1c0 .6-3 6.4-6.6 12.8a321 321 0 0 0-27.2 58.5 54 54 0 0 0-2.8 22l-.2 14.5-5.5.6c-13.6 1.5-22.5 19.8-14.4 29.7 1.2 1.6.3 2.7-4.4 5-10.3 5.2-11.2 21.2-1.8 31 2.6 2.7 3.1 3.6 1.9 4-10 3.5-12.8 21.8-4.6 29.4l3.4 3.1-2.9 5.4q-4.9 9.3-1.4 17.6c1.6 4 8 10.7 10.2 10.7 1.6 0 1.6.8-.2 4-3.4 6-.7 18.9 5.4 25.3 8.9 9.3 26.9 8.8 35-.9 7.5-9.1 18.5 11.7 11.7 22.1-1.7 2.6-2.2 3.2-7.2 9.3a54 54 0 0 1-14.2 11.2q-1 .1-2.2 1.5a76 76 0 0 1-21.6 9.5c-.1 0-.5-1.1-.8-2.4-3.9-15.5-29.1-15.1-32.3.4l-.6 3.2-5.1-.6a76 76 0 0 1-19.6-5.8c-5.5-2.1-15-8.1-15-9.5 0-.7 9.7-10.9 21.5-22.7 20.3-20.2 23.9-24.6 19.8-24.6-1 0-5.4-1.8-9.8-4s-8.5-4-9.1-4-1.9-.9-2.9-2-2.2-2-2.7-2a154 154 0 0 1-25-18.1c-2.3-2.3-2.3-3.2.5-7.7 1.2-2 4.7-8.9 7.6-15.2 5.7-12.2 6.3-13 9-12.3.9.2 3.7-.5 6.1-1.5 13-5.6 15.4-21.5 4.8-31.3l-2.8-2.7 2.1-11.9c3.2-18.9 3.5-27.8 1-34-1.1-2.9-1.6-5.5-1.2-5.8 2-1.2 3.5-11.7 3.6-23.9v-13l3.3-.8c16.2-4.2 10.2-34.6-6.6-33.6l-5.4.3-3.3-10c-1.8-5.5-4.1-11.8-5-14q-4.5-10.6-8.1-17.8c-3.2-6.5-3-8 1.3-11.3 2.1-1.5 4.3-3.4 4.8-4 3.6-4.4 29.5-18.5 38.4-21 3.4-1 6.1-2.3 6.1-3s-9.4-10.8-21-22.4a215 215 0 0 1-21-22.8c0-4.6 25.6-25.6 32.7-26.8l4.1-.6-.2 5.4c-.3 13.7 17.6 22.4 30.2 14.6 8.5-5.1 12-14.9 9.8-26.8-.7-3.3-.4-3.8 4.4-8 6.4-5.6 11.4-17.6 19-45 4.5-16.3 8.5-24.3 19.5-39.2 9.1-12.4 9.6-17.2.7-6.8a101 101 0 0 1-20 16.3c-5.7 3.6-24.4 9.8-41.4 13.6-16.4 3.6-21.6 5.9-26.7 11.7-3.5 4-6.1 5.6-6.1 3.6 0-2.3-13.8-5.6-19.5-4.6A20.6 20.6 0 0 0 913 76.5q3.2 11.1 20.5 8.3c3.2-.5 3.2 6.2 0 13.7a121 121 0 0 1-26.7 28.3c-1.2.5-6.3-4.1-26.2-23.7-25.4-24.8-24.9-24.6-28.3-17.3a199 199 0 0 1-25 39.1l-3.8 4.3-4.8-2.9c-2.5-1.7-9.5-5.1-15.4-7.7l-13.8-6.1c-1.6-.7-5.1-2.1-7.7-3q-6.9-2.6-5.3-5.6c2.2-3.4-7.1-15.2-13.3-16.9-4.9-1.3-17.1 4.8-17.2 8.6-.1 3.2-1.6 3.4-12.9 1.9-11.6-1.5-21.5-1-26.1 1.5-1.7.9-2.9.7-6.6-1.1-7.4-3.5-22.3-3-47.9 1.6-5.8 1.1-5.8 1.1-7.2-3.3-5.2-15.3-32.5-6.5-30.1 9.8.5 3.3 1.3 2.7-10.7 8a219 219 0 0 0-24.4 12.1c-3.3 2.6-4.2 2.4-8.9-2a70 70 0 0 0-9.5-7.2c-5.1-3-5.5-3.5-6.1-7.9-.9-6.4-8.6-13-15.3-13-3 0-13.3 4.4-13.3 5.7-.2 2.8-4.2 5.3-9.1 5.8a53 53 0 0 0-22.8 8.4l-7.6 5c-3.8 2.5-25.1-8.5-23-11.9.6-1-2.5-10.2-4-11.7a18.6 18.6 0 0 0-27 .8c-2.5 3-2.9 3.2-5.8 2.1a71 71 0 0 0-38-1.6c-6.6 2.5-9.6 2.8-13 1.2-14.5-6.8-18.1-7.3-38.1-4.8-8.8 1.1-17.7 2.4-19.6 3-4.8 1.4-5.4 1.3-6.5-1.2C306.2 83 281 88.7 281 104c0 4-1.7 5.5-11 9.6-4.7 2.1-10.5 5-13 6.4s-6.7 3.7-9.3 5l-4.8 2.4-4.3-4.4c-3.8-4-12.5-15.4-15.1-19.8a49 49 0 0 1-7.5-15.1c0-4-2.6-2-24.2 19.6l-21.7 21.6-4.3-3.9c-21-19.1-34.6-45.7-22-42.9 8 1.7 16.2-6 16.2-15.2 0-13.7-15.8-20.5-28.8-12.5-6.3 3.8-5.8 3.8-6.6.7a39 39 0 0 0-19.1-20.9l-8-3.7c-2.2-1.1-7.8-3.2-12.5-4.8-16.3-5.5-41.9-19.3-44.8-24C39 0 36-.8 36 .8m65.7 38.8c1.9 4.9-12.9 16.3-25.9 19.8-7.6 2.2-8.7 2-9.9-1.1-1.4-3.6.2-5 7.6-6.5a41 41 0 0 0 19.7-11.1c3.7-3.6 7.3-4.1 8.5-1.1m11.9 7.7c10.2 10.6 9.2 27.4-1.5 22.6q-14.3-6.6-12.6 9.2c.6 6 .5 6.9-.9 6.9-.9 0-4.8 1.5-8.5 3.4l-6.9 3.4-3.5-2.3c-4.4-3-9.1-10.6-10.8-17.2-1.5-6.4-1.8-6.1 7.3-8C86.7 63.2 107 49.1 107 43.9c0-2 2.7-.6 6.6 3.4m870.8.9c3 6.6 13.8 15.7 22.5 18.8 4.9 1.8 5.9 2.6 5.6 4.2-.9 4.7-1.7 5.9-3.3 5.3a48.9 48.9 0 0 1-32.3-22.9c-3.3-5.6-2.2-7.3 5.3-8.5.4 0 1.4 1.4 2.2 3.1M969 50.1c0 2 7.9 13.3 10.7 15.4l7.9 6.2c4.9 4 15.2 9.3 18 9.3 4.7 0 .8 9.4-6.3 15-3.3 2.6-4.9 2.5-8.8-.4a39 39 0 0 0-9.1-4.5c-4.6-1.6-5.8-2.4-5.5-3.8.9-4.2.3-8.4-1.3-10.2-2.2-2.5-9.1-3.7-11.1-2.1-1.7 1.4-5 .5-4-1 .4-.6-.1-3.1-1.1-5.6a14 14 0 0 1 6.1-17.6c3.5-2.1 4.5-2.2 4.5-.7m47.1 9.1-.9 3.3-.1-3.6c-.1-2 .2-3.9.6-4.3 1.3-1.2 1.5 1 .4 4.6M148.5 58c6.3 3 8.1 8.5 4.8 14.1-2.3 3.8-7.2 4.8-12.1 2.4-3.6-1.6-3.7-1.6-5.4.5-6.7 8.3.5 26.8 18.7 47.8 11.6 13.5 12.7 18.1 1.5 6.6-21.2-21.9-28.8-37.7-24.9-51.8 1.8-6.6 5.3-8.9 12.2-8.2l5.7.6v-3c0-4-3.7-6.5-8.7-5.7-12.4 2-17.3 22.4-9.4 39 3.8 8 3.5 9.1-1.5 4.8-14.4-12.7-35.1-12.9-41-.4-2.3 4.8-.4 9.3 3.9 9.3 5.5 0 8.3-4.5 5.5-8.9s5.4-7.9 13.7-5.7a44 44 0 0 1 16 7.1c2.8 1.9 5.7 3.5 6.2 3.5 2.1 0 27.6 28.1 26.6 29.1q-1 1.2-10-7.8c-5-4.8-9.8-9.5-10.9-10.3l-11.4-9c-.5-.5-.9-.8-8.8-5.6-8.7-5.4-18.8-6.3-16.2-1.5 4.6 8.7-5.6 16.2-15.6 11.5-7-3.4-8.2-10.4-2.8-16.3 7.5-8.4 24.3-11.7 33.3-6.6 2.3 1.4 4.6 2.5 5 2.5.3 0 .6-5.1.6-11.3.1-17.4 6.5-26.5 20.4-28.6.3-.1 2.3.8 4.6 1.9m793.1.9c11 5 15.7 20.4 10.4 34.1-3.8 9.8-3.8 9.9.1 6.9 8.3-6.3 27.3-5.5 34.7 1.4 15.4 14.4 2.3 37.6-15.9 28.2-5.4-2.8-7.2-9.4-3.4-12.5 3.4-2.8-3.9-7.6-11-7.1-4.6.3-11.3 2.3-12.4 3.7-.3.5-1.9 1.8-3.6 2.8-3.5 2.2-38.4 34.7-57.3 53.3-5.1 5-4.9 4.9-7.3 2.1-2.8-3.2-2.5-3.6 11.7-16.7l15.5-14.5c4.7-4.5 12-11.2 16.3-15.1a76 76 0 0 0 14.9-17c10.9-11.8 9.9-41.1-1-32.5-5.6 4.4-13.3 1.3-13.3-5.3.2-10.8 10.9-16.7 21.6-11.8m-71 41.6a448 448 0 0 1 25.8 25.9c4.5 4.5 4.7 5 3.5 7.2-2 3.8-2.6 3.4-21.6-16-18.7-19-19.3-19.3-21.7-13.6-6 14.3-29.5 42-46.3 54.5L802 165c-1 1.1-14 9-14.9 9q-.9.2-1.4 1.2c-.5 1.8-7.7-1.6-7.7-3.6 0-.8 2.1-2.4 4.8-3.7a151 151 0 0 0 41-31.6c7.2-7.3 13.2-13.9 13.2-14.7s.8-2.1 1.8-2.8c2.5-1.8 9.5-12.6 14.5-22.1 2.2-4.3 4.3-7.6 4.8-7.5.4.2 6 5.2 12.5 11.3m-106.1-4.8c1.9.9 3.5 2.4 3.6 3.2l.3 4.1c.2 1.4-.3 3.5-1.2 4.7-2.1 3.3-1 4.9 4.5 6.2 7 1.8 19.4 6.8 30.4 12.3 5.3 2.6 10 4.8 10.5 4.8s2 .9 3.4 2l2.5 1.9-2.4 2.5c-3.6 3.8-5.7 4.1-10 1.3-24-15.9-81.6-29.9-93.7-22.8a15 15 0 0 1-4.7 2.1c-6.1.3-16.2 17.4-18.4 31.5-.8 4.7-1 5-4.2 5.3l-3.3.3.7-7.8c1.1-12.9 8.5-29.9 15.4-35 10.2-7.6 21.6-9.8 37.4-7.2 13.9 2.3 14.2 2.3 16.3-3.1 2.9-7.2 6.9-9.2 12.9-6.3m-463.2.4c3.5 1.9 5.6 5.2 5.7 8.8 0 3.1.2 3.3 2.8 2.8 23.1-5 39.2-7.6 44.2-7 20.4 2.6 20.7 2.7 15.5 7-3.3 2.8-4 3-8.3 2.2-2.7-.6-6.9-.5-10.2 0-3 .5-8.9 1.2-13 1.6a209 209 0 0 0-54.5 14.5 244 244 0 0 0-48.9 27 203 203 0 0 0-18.5 15.4c-3 3.2-3.2 3.2-6.5.1-3.9-3.6-1.9-6.1 15.4-19.4l9.4-7.3c1.6-1.2 4.6-3.1 6.6-4.3l13.6-7.7c5.4-3.1 15.5-8 22.4-10.8 14.8-6.2 14.4-5.9 12.6-9.4-3.9-7.6 4.4-17.3 11.7-13.5m332.5 0c4.5 1.5 6.4 4.9 5 8.6-1.5 4-.5 6.7 1.9 5.4 2.2-1.2 21.5-5.1 32.4-6.6 8.4-1.2 18.1-1.1 19.8.2 2.7 2-5 8.3-10.3 8.4-14.6.4-20.7 1.3-37.1 5.6a227 227 0 0 0-31.2 10.4 33 33 0 0 1-5.1 1.9 328 328 0 0 0-31.3 16.3c-1.7.5-19 12.6-19.9 13.8s-12.3 9.9-12.9 9.9c-1.5-.1-5.2-4.1-4.9-5.3.3-1.4 7.6-8.1 13.7-12.7l6.5-5.1c1.7-1.5 4.1-2.9 5.2-3.3s6.6-3.6 12-7.2c5.4-3.5 11.7-7.3 13.9-8.3 9.2-4.3 17.7-8.1 18.2-8.1s14.4-6.9 15.1-7.5c.1-.1-.4-1.5-1.3-3.1-2.9-5.5-.9-11.1 4.7-13.3l2.4-1c.1-.1 1.5.4 3.2 1M216 102.2c1.4 2.8 3 5.6 3.5 6.2s4.2 5.4 8 10.6 7.2 9.6 7.7 9.8c1.8.8-1 6.2-3.3 6.2s-13.8-13.8-17.4-21q-3.7-7.1-5.8-5.2c-1.2 1.1-64 64.3-68.9 69.5-3.4 3.5-3.5 4.5-.4 5.3 4.2 1 25.6 16.9 25.6 19 0 2.6-4.3 6.7-5.4 5.3-.6-.8-3.6-3.2-6.6-5.4s-6.3-4.8-7.2-5.8-2.2-1.7-2.7-1.7-3-1.4-5.5-3a58 58 0 0 0-8.1-4.6c-2-.8-3.9-2.2-4.2-3.1-.6-1.6 84.9-87.2 87.2-87.2.6-.1 2.1 2.2 3.5 5.1m238.1-1.1c3.5 3.8 3.9 8.5.8 11.8-2.1 2.3-.8 4.9 2.6 5.1.6 0 4.7 1.8 9.3 4s8.7 4 9.1 4c3.1 0 3.3 3.2.5 6l-2.9 2.9-6.3-3c-14.7-7-41.2-16-50.8-17.3-1.1-.2-2.6-.6-3.3-1-5.6-3.5-27.8.4-35 6.1l-5.9 4.3c-2.4 1.7-4.6 3.8-4.9 4.8s-2.4 4.4-4.5 7.8a31 31 0 0 0-3.8 7.5c0 4.2-2.1 8.4-4.2 8.6l-4.3.5c-8.2 1.2 9.9-33.1 19.9-37.7 1.7-.8 6-3.2 9.5-5.4a41 41 0 0 1 21.3-7.1c5.5 0 28.7 4.5 34.2 6.6q1.6.6 1.7-1.2c.3-8.8 11.3-13.4 17-7.3m89.9 2.4c4 2.1 5.1 4.5 4.4 9.7l-.6 4.4 4 1.2c10.5 3.2 20.3 11.9 16.6 14.7s-5.4 2.7-9.1-.2a54 54 0 0 0-34.8-10.6c-15-.2-23.6 4.2-41.3 21.2-17.6 16.9-33.1 26.9-38.6 25-5.3-1.9-5.5-3.4-.9-5.5s20.2-12.1 22.3-14.3a59 59 0 0 1 6-5.1 152 152 0 0 0 8.5-7.1c2.2-2 5.6-5 7.5-6.5l7-6.1c1.9-1.8 3.8-3.3 4.1-3.3s1.6-.9 2.9-2c3.2-2.8 8-4 18.8-4.7l9.2-.6V111c0-3.9 3.4-7.8 7.3-8.3l3.5-.5c.2-.1 1.6.5 3.2 1.3M865.1 117c3.4 1.9 1.8 7-2.2 7-2.5 0-4.2-2.6-3.5-5.5q1-4 5.7-1.5m-144.8 10.6c1 2.7 1.6 6.1 1.3 7.6s-.1 2.8.3 3c2.2.8 2.3 17.5.2 18.1-2.7.7-2.7 3.3-.1 4.7q1.7 1 1.5 2.3c-.2.6-.6 4.6-.9 8.7-.6 8.9-1.1 10.7-3.8 11.6-3.2 1-3.6-.5-2.6-11.1 1.1-11.7-.3-35.5-2.6-42.8-1.3-4.5-1.3-4.8.7-6.2 3-2.1 4-1.5 6 4.1m-509.7-1.9c.9 3.3-1.7 5.6-4.9 4.4-4.3-1.6-2.8-7.1 1.9-7.1q2.4-.2 3 2.7m177.2-.2c.7 1.4 1.2 3.5 1.2 4.6s.4 2.8 1 3.8a41 41 0 0 1 1.4 9.2l1.1 19c.8 11.1.7 11.7-1.4 13.8-4.4 4.4-6.1 3-6.3-5.7l-.3-14.7c-.1-8.6-2-18.1-4.6-24.2l-2-4.7 2.3-1.8c3.3-2.5 6.3-2.3 7.6.7m-50.5 2.6c5.9 2.7 6.3 10.9.8 14.6-4.2 2.8-4 2.8-8.2 0-8-5.4-1.3-18.6 7.4-14.6m74.5 4.5c3.5 4 2.8 8.5-1.9 10.9-6.3 3.3-11.9.3-11.9-6.4 0-8 8.3-10.7 13.8-4.5m459.5-.4q3.5 4.2-.4 9.2c-4 5.1-11.9 1.8-11.9-5.1s7.7-9.4 12.3-4.1m-202.1 1.5c6.6 6.3-1.3 16.9-9.5 12.6-4.1-2-4.7-3-4.7-7.5 0-7.2 8.7-10.4 14.2-5.1m-151.8-1.1c2.4.9 1.9 4.3-.6 5.3-3.8 1.4-6.3-2-3.6-4.7 1.4-1.4 2-1.4 4.2-.6m227.5 2c2.6 3.4 2.6 4.3-.2 8.5-4.3 6.5-14.7 4.6-14.7-2.7 0-7.7 10.3-11.7 14.9-5.8m-537.7.1c3.8 3.4 1.5 9.3-3.7 9.3s-7.3-5.2-3.5-9q3.5-3.6 7.2-.3m110.8 3.2c4.2 7.9-6.6 16-12.9 9.6-2.2-2.1-2-8.9.3-11.4 3.3-3.7 10.2-2.7 12.6 1.8m113.9-3.2c3.6 3 3.9 8.7.6 11.7-5.6 5.2-14.5 1.8-14.5-5.4 0-6.6 8.7-10.5 13.9-6.3m102.9-.1c3.1 2.2 2.9 6.7-.4 9.3s-4.2 2.6-7.1-.1a6 6 0 0 1 7.5-9.2m318.6.3c2 2.2 1.3 4.5-1.8 5.9-4.5 2-7.4-2.2-3.9-6 2.1-2.3 3.6-2.3 5.7.1m-634 1.3c1.4 2.3-.3 5.2-3.2 5.6-3 .5-4.5-2.9-2.6-5.7 1.8-2.5 4.2-2.4 5.8.1m488.5.9c3.4 6.1-1.3 12.5-7.8 10.4-3.7-1.1-3.5-7.4.2-12.3 1.6-2.1 6-1 7.6 1.9m175.9-.9c3.4 3.4-.6 9-4.8 6.8-2.5-1.3-2.6-5.5-.2-6.9 2.3-1.4 3.6-1.3 5 .1m-508.1 4.6c1.4 5 .9 7-2.1 7.8-6.6 1.6-9.9-4.4-5.5-10 3.1-4 6-3.1 7.6 2.2m174.7-2.6c1.6 2.6-2.6 6.8-5.2 5.2-2.2-1.4-2.7-4.1-1.1-6 1.5-1.9 4.9-1.4 6.3.8m96.3 0c3.8 4.1 3.4 9.2-.9 11.8-6.3 3.8-12.8 1-12.8-5.5 0-7.5 8.8-11.5 13.7-6.3m-452.5 3.3q-.6 4.3-4.1 3c-2.3-.7-2.9-4-.8-4.9 2.7-1.1 5.2-.1 4.9 1.9m307.2.2c13.7 9.2 18.1 13.1 47.2 41.3 22.3 21.6 22.6 22.1 19.3 25.6-3.2 3.4-2.1 4.2-22.6-16.3a790 790 0 0 0-28.8-27.1l-12.3-10.3c-1.2-1-2.5-1.9-3-1.9a27 27 0 0 1-5.1-3.9l-4.4-3.8 2.4-3.2c2.8-3.8 2.4-3.7 7.3-.4m263-.6c5.7 4.5 1.6 13.2-6.3 13.2-4.9 0-5.8-.7-7.6-5.9-2.6-7.2 7.4-12.4 13.9-7.3m-470.3 2.5c5.1 4.6 1.9 14.3-4.8 14.4-8.3.1-12.1-9.2-6.2-15.1 2.5-2.5 7.9-2.1 11 .7m156.4 0c3.8 4.1 3.1 7-2.5 10.8-5.6 3.7-11 1.6-11-4.4 0-7.9 8.5-11.9 13.5-6.4m174 1c4.7 1.9 5.2 8.9.8 12.4-5.7 4.5-12.5 1.3-12.7-6-.1-5.8 5.5-8.8 11.9-6.4m216.3 5.4 6 4.7a270 270 0 0 1 31.3 30.7c18.7 22.5 18.2 21.6 14.4 25.6s-3.6 4.1-10.1-4.8a60 60 0 0 0-6.6-8q-.7-.4-.8-1.5a222 222 0 0 0-40-39.8c-7.9-5.8-7.7-5.5-4.5-8.9 3-3.1 5-2.8 10.3 2m-55.4-1.9c3.6 2.8 3.7 9.1.2 11.4-6.7 4.4-13.6 1.9-13.6-4.9 0-7.2 7.7-11 13.4-6.5m-580.6 2.5c.5 3.3-2.3 5-5.3 3.4-1.4-.7-2.5-1.8-2.5-2.5 0-3.8 7.3-4.7 7.8-.9m51.8-1.5a181 181 0 0 0 79.9 34.7c4.2.7 5.7 3.7 3.6 7-1.7 2.8-28.2-3.6-48.6-11.8-13.4-5.3-42.3-23.5-42.4-26.6-.2-2.6 6.2-5.4 7.5-3.3m614.4.4c1.5 1.8.4 5.2-2.2 6.6-3.2 1.7-6.6-2-5-5.6a4.3 4.3 0 0 1 7.2-1m-676.4 13.7 28.4 28.3c15.6 15.5 14.9 14.4 11.6 18.2l-2.4 2.7-16-15.9-29.2-28.9c-13.8-13.6-13.9-13.9-11.3-16.8 2.8-3.1 4.2-2.2 18.9 12.4m340.3-12.8c1.2 1.4-.8 4.6-2.8 4.6-1.5 0-3.3-3-2.7-4.5.7-1.9 4-2 5.5-.1m58.6 3.7c2.8 2.1 6.4 4.9 8.1 6.4 1.8 1.4 3.5 2.5 3.9 2.5s2.1 1.1 3.9 2.5 4 2.5 4.9 2.5q1.5 0 2.1.9c.6.8 7.1 4.2 15.6 7.9 8.3 3.6 22.4 8 31 9.8 4.7.9 9.1 2.1 9.8 2.6 1.7 1.4 1.5 4.7-.4 5.5-1.5.6-16.7-2-21.4-3.7l-9.5-3c-7.8-2.4-37.5-16.7-37.5-18.1q-.1-.8-1-.9a95 95 0 0 1-18.7-13.9l-2.3-2.6 2.2-1.7c2.5-1.8 2.3-1.9 9.3 3.3m342.1 13.2c11.8 11.7 18.4 18.8 18 19.6a43 43 0 0 1-12 6.2c-4.9.2-38.4 25.6-46.2 34.9-13.1 15.5-25.4 33.3-25.4 36.7 0 3.3-2.9 3.3-4.5-.1-2.3-4.8 1.2-12.8 11.2-25.2 1.8-2.3 3.3-4.4 3.3-4.8 0-2 20.1-22.6 28.5-29.2l11.1-8.8c1.8-1.5 3.4-2.6 3.7-2.6s3.8-2 7.8-4.5a35 35 0 0 1 9.1-4.5c3.6 0 1.6-2.9-9.4-13.7-19.2-18.8-21-21.5-14.6-22.2.4-.1 9.2 8.2 19.4 18.2m-444.7-10.8c1.3 1.4 2.6 2.5 3 2.5 3.4 0 3.1 4.5-.5 7.6-2.9 2.4-3.6 3.5-2.8 4.4.8.8 2.2.2 5.3-2.5 5.5-4.5 6.2-4.4 12.1 1.3l4.9 4.8-4.1 3.2c-5.3 4.1-9 3.7-15-1.5-3.3-2.9-4-.2-.8 3.3 4.3 4.9 4 6.6-1.7 9.9-2.3 1.3-3.5 1.6-4.5.8a13 13 0 0 0-4.2-1.7c-3.6-.9-3.1-5.4 1.1-9.8q5.5-5.9-3.6-1.4c-6.6 3.4-8.9 3.3-13.9-.6-5.1-4-5.1-3.8 0-8.2q7.4-6.4 11.5-1.3c2.1 2.7 6.2 5.2 7.1 4.3.3-.4-.9-2-2.6-3.7q-6.4-6.2.3-10c1.9-1.2 3.5-2.5 3.5-3 0-1.7 2.5-.9 4.9 1.6m89.9 5.3c5 4.6 5 4.3 1.1 8.7-4 4.5-3.1 5.6 1.9 2.1 5.2-3.5 6.6-3.3 11.8 1.8 5.4 5.4 5.5 4.5-.9 8.9-6.6 4.5-6.8 4.5-11.4.2q-6.8-6.3-2.6 1.3c4.2 7.6-2.6 13.3-9.7 8-3.7-2.7-3.8-4.7-.5-8.6 4.1-4.8 3.1-6.8-1.5-3.2-3 2.4-7.8 2.6-8.7.4q-.6-1.5-2.5-1.1-2.1.7-1.3-1.4.6-1.8-.9-2.5c-2.4-.9-2-1.8 2.5-4.7 5.8-3.8 8.8-3.5 11.9 1 3.3 4.8 4.3 1.1 1.1-4l-2-3.3 3.2-3.7c4-4.5 3.5-4.5 8.5.1m-203.5.5c.7 5.3.5 5.4-13.1 5.5-14.6.1-30.1 2.2-41 5.4q-3.2 1-8.2-.2c-4.6-1.1-7.4-3.7-4.7-4.4l9.7-2.9c12.7-3.8 30.5-6.2 46.6-6.4l10.2-.1zm532.3.1q1.3 4.7-3.2 4.6c-3.2 0-4.1-2.5-1.9-5q3.7-4 5.1.4m-737.8 1c.8 4-4.8 6.3-6.7 2.7q-1.7-2.8 2.9-4.4 3.3-1.2 3.8 1.7m538-.1c1 5.2-.6 7-5.6 6.3-10-1.3-39.3 2.1-51.7 6-5.7 1.8-13-.1-11.9-3 .9-2.4 19.5-7.8 31.4-9.2 22-2.5 37.4-2.5 37.8-.1M413 165.2a179 179 0 0 1 70.9 37.6l3.4 2.9-3 3.3-2.9 3.3-3-2.8a121 121 0 0 0-11.4-9.4 151 151 0 0 0-24-14.6 133 133 0 0 0-34.1-12.9c-9.9-2.5-10.7-3.3-9-7.8 1.1-2.9.5-2.9 13.1.4m-158.5 1.4c4.3 2.8 4.9 7.1 1.6 10.5-7.2 7.2-17.4-.5-11.6-8.8 1.3-1.9 2.5-2.4 6.8-3.2.4 0 1.8.6 3.2 1.5m484.9-.1c33.6 9.7 49.4 17.8 71.9 36.4l7.8 6.5-3 3-3 2.9-5.6-5.1a177 177 0 0 0-73.5-36.9q-3.7-.8-3.8-3.2c-.8-5.3.9-6 9.2-3.6m78.7 1.4c3 2.4 2.8 8.5-.3 11.8s-9 3.2-11.7-.3c-6-7.6 4.5-17.6 12-11.5m-646.2 4.5c2 2.3.9 6.7-2.2 9-5.4 4-11.7-3.4-7.1-8.5 2-2.3 7.6-2.5 9.3-.5m739 1.2c5 6.4.1 14.3-7 11.3-1.7-.6-3.4-2-3.9-3-4.2-7.7 5.6-15 10.9-8.3m-728.1 1.5c.3 2.8-1.6 4.3-4.3 3.3-3.1-1.2-.8-6.8 2.5-6.2.8.2 1.6 1.5 1.8 2.9m184.7.9q1.2 4-2.6 4c-2.5 0-3.5-2.5-1.9-4.5 1.7-2.1 3.7-1.9 4.5.5m8.3.6q.3 2.2-1.8 2.7c-2.3.6-3.6-1.3-2.6-3.9.8-2.2 4-1.3 4.4 1.2m-218.9.3c1.6 2.9-.9 5.7-3.7 4.2q-3.7-2-1-4.9c1.7-1.7 3.6-1.5 4.7.7m198.9 7.3c.2 5.1.7 12.4 1.3 16.2 1 7.6.8 8.1-3.7 9-4 .9-5.1-2.8-5.9-19.3-.7-14.2-.4-15.1 4.3-15.1h3.7zm539.7-7.2c.7 2.3-1 6-3 6-4.2 0-6.1-4-3.3-6.8 1.9-1.9 5.6-1.4 6.3.8m29.1.4c.8 3.4-.2 4.6-3.7 4.6-3.4 0-4.6-1.9-2.9-4.9s5.8-2.8 6.6.3M687 188.7c.1 6.5.5 13.8 1 16.3 1 5.3 0 7-4 7-3.2 0-3.1.2-4.6-22.2-.8-11.9-.5-12.8 4.1-12.8h3.5zm11.5-8.2c0 2.5-.4 3-2.5 3-2.6 0-3.7-2.2-2.6-5.1s5.1-1.3 5.1 2.1m9.3-.3c.3 2.7-2.5 4.7-4.8 3.3-1.1-.7-1.4-4.8-.3-5.9 1.7-1.6 4.8-.1 5.1 2.6m-466.3.3c4.2 4.1 1.4 12.5-4.1 12.5-2.2 0-8.4-6.4-8.4-8.7 0-5.4 8.4-8 12.5-3.8m170.8-.6c8.3 1.9 5.7 4-10.1 8-11.4 2.9-37.2 5.8-39.4 4.4-.5-.2-.8-1.9-.8-3.8 0-3.9 5.1-5.2 16.4-4.2 4.1.3 8.3-.3 15.8-2.3 11.7-3.2 12.8-3.3 18.1-2.1m421.6 2c4.8 6.7-.5 15.3-8.1 13.3-5.7-1.4-7.8-9.1-3.5-12.9 4.6-4.2 8.8-4.3 11.6-.4m-639.1 1c2.9 2.5 2.8 4.1-.4 7.7a241 241 0 0 0-46.9 91.9 283 283 0 0 0-5.6 32c-1 10.1-4.3 16.5-8.5 16.5-2.9 0-1.6-20.2 2.6-40.2l1.9-9-4.6-5.6c-4.4-5.4-4.5-5.7-3.8-10.5 1.1-8.5 4.4-11.3 13.6-11.1h4.6l1.2-4.4c2.4-9 16.4-35.3 25.1-47.3 2.8-3.8 5-7.1 5-7.4 0-.5.9-1.6 6.1-7.5 1.2-1.4 2.8-3.5 3.6-4.8 1.8-2.7 3.1-2.7 6.1-.3m90.5-.7 3.6 1.8q4.2 1.9-2.1 4.6c-5 2.2-19.2 11.3-19.6 12.5q-.5.8-1.7.9t-1.7.8a37 37 0 0 1-5.7 5.2c-4.6 3.8-8.4 7.6-19.1 18.9-3.5 3.8-12 15.7-17 24.2-5.4 9.1-5.4 9.1-7.2 6.9-2.7-3.3-2.2-6.9 1.7-12.9 1.9-2.9 3.5-5.5 3.5-5.7 0-1.5 21.2-27.8 23.5-29.2a248 248 0 0 1 39.2-29.2zm240.5.7c3.3 2.9 2.8 4.3-4 10.6-9.4 8.6-19.2 18.3-40.3 39.5l-19 19.1-2.2-2.6c-3.7-4.2-3.7-4.1 29.1-37 32.3-32.5 32.6-32.7 36.4-29.6m92.1 1.2c4.5 1.6 3.9 3.3-2.6 7a173 173 0 0 0-68.7 71.1l-6.4 12.1-1.6-3.1c-2.4-4.6-2-6.9 2.9-15.7l6.4-11.5c9.4-17.1 37-43.9 58.1-56.5 8.6-5.1 7.8-4.8 11.9-3.4m134.8.1c1.8.7 3.3 1.7 3.3 2.4 0 3.7-54.6 13.1-61.8 10.6-1.9-.6-1.2-7.8.7-7.4a130 130 0 0 0 34.1-2.4l8.2-1.5a43 43 0 0 0 8-1.9c3.1-1.2 3.6-1.2 7.5.2m106.1 4.1 1.7 2.8-8.6 8.2a4944 4944 0 0 1-47.9 45.1l-8.3 7.5-2.9 2.6-1.9-2.4c-3-3.6-2.7-3.9 11.4-17.1l27.1-25.4 20-18.8c6.7-6.4 7-6.5 9.4-2.5m-687.3-.4c.9 3.1-.5 5.1-3.6 5.1-2.9 0-5-3.5-3.4-5.9 1.1-1.9 6.3-1.3 7 .8m736.3 3.3c.4 2-3.1 5.8-5.3 5.8-2.4 0-4.1-4.6-2.5-6.5 1.8-2.1 7.4-1.6 7.8.7m-588.2 11.4c-.8 3-6.9 5-7.5 2.5-.2-.9-.7-2.1-1.1-2.6-1.3-1.6 1.3-4.3 5.1-5.2s4.7.4 3.5 5.3m71-5.1c1.4 3.7-11.2 49.5-13.6 49.5-2.9 0-3.6-7.1-1.3-14.6 1.2-4.4 2.9-11.3 3.8-15.4 2.7-13.6 4.3-19.2 5.6-20.1 2.2-1.4 4.9-1 5.5.6m28.3-.1c2.6 3.1-3.1 8.6-6.8 6.7-4.7-2.5-3.1-8.1 2.3-8.1 1.9 0 3.9.6 4.5 1.4m119 4.1c3.9 4.5 3.9 7 .1 10.3-5.3 4.7-3.7 6.9 2 2.7 8.3-6.1 15.9.9 8.9 8.2q-5 5.4-7.9 1.8c-3.3-3.9-5.1-1.1-1.9 2.9 2.8 3.6 2 8.8-1.9 13a20 20 0 0 0-3.5 4.8c-1.1 3.1-2.3 2-6-5.2-4.4-8.4-4.4-7.7-.7-12 4.6-5.4 3.7-8.5-1-3.5-7 7.4-16.7-2.7-10.5-10.9 3.6-4.7 6.5-4.7 10.1-.1s6.5 4.9 3.4.2c-4.9-7.4-4.9-7.5 0-11.8 5.5-4.7 5.1-4.7 8.9-.4m-170.6-.5c.6 2.3-1.6 5.6-3.1 4.6-1.3-.8-1.6-4.8-.5-5.9 1.3-1.3 3.1-.7 3.6 1.3m7.4-.4c.7 1.8-.6 4.5-2.4 5.1-1.4.5-2.5-2.5-1.8-4.8.8-2.3 3.3-2.5 4.2-.3m67.6 2.2c1.5 1.5 2.7 3.5 2.7 4.4 0 8.4-10.7 13.7-15.7 7.6-6.7-8 5.8-19.6 13-12m306.5-1.1c1.3 2.1-.5 6.1-3 6.8-4.4 1.5-7.9-2.6-5.7-6.7 1.3-2.4 7.4-2.5 8.7-.1M303 203q1.3.9.6 1-.7.2.4 1.5c1.7 2-.3 7.4-3.6 9.8-5.9 4.3-14.6-1.6-12.3-8.3 1.6-4.5 10.5-6.9 14.9-4m351.4-.4c2.1.8 2.1 5.8 0 7.4-2 1.7-6.7.2-7.2-2.3-.7-3.6 3.5-6.5 7.2-5.1m62.6.6c0 10-9 40.8-11.8 40.8-1.7 0-3.4-7.2-2.4-9.4 1-1.9 2.2-7 5.8-23.5.7-3.5 1.9-7 2.5-7.7 1.4-1.7 5.9-1.8 5.9-.2m-500.5 2.3c4.3 4.2 1.4 11.5-4.5 11.5-7.1 0-9.2-10.4-2.7-13 3.5-1.4 4.6-1.2 7.2 1.5m419.3-.5c3.7 3.5 3 9.2-1.5 11.7-7.1 4-13.9-2.2-11.3-10.3 1.4-4.2 8.9-5 12.8-1.4m137.9 1.2c2 1.9 2.3 2.8 1.8 6.3-1.8 10.8-16.5 9.8-16.5-1.2 0-7.6 8.8-10.6 14.7-5.1M698 208c-1.3 2.4-2.8 2.6-3.6.5-1.1-2.8.3-4.7 2.6-3.5 1.6.9 1.8 1.5 1 3m6-2.3c0 1-.4 2.4-.9 3.1-1.1 1.8-3.6-1.2-2.7-3.3s3.6-1.9 3.6.2m161.1 12.7c2.5 4.1 2.4 6.2-.6 9.1-4.5 4.6-11.3 2.8-12.8-3.4-2-8.2 9-12.9 13.4-5.7m-492.5-.3c-.8 4.2-.5 4.1-7.8 4.4-26.9 1.3-46.1 8.6-71.4 27-2.1 1.5-5.2-2-3.8-4.3 2-3.1 12.1-10.6 19.6-14.4 21.5-11 36.2-15 56.2-15.6l7.9-.3zm84.9-1.7c4.8 2 4.3 7.6-.8 9.5-6 2.3-9.4-4.1-4.9-9.2 1.8-2.1 1.5-2 5.7-.3m-251 2.1c3.2 3.1 3.1 4.6-.1 8.4q-5 5.7-9.3.5c-5.6-7.1 3.1-15.3 9.4-8.9m76.6.7c1.7 2.6-1.9 6.8-5.8 6.8-3.6 0-4.7-3.3-2.1-6.5 2.1-2.7 6.3-2.9 7.9-.3M613 219c2.4 2.4 2.4 2.9.4 5.8-2.1 3.1-7.2 3-8.3-.1-2.1-5.6 3.8-9.8 7.9-5.7m177.7 2c2.4 4.7-3.2 8.6-9.1 6.4-1.9-.7-2.1-5.4-.3-7.6 2.6-3.4 7.4-2.7 9.4 1.2m-90.7-1.7c-.1 5.1-.6 5.4-12.7 6.1-10.7.6-15 1.4-26.3 5.3a144 144 0 0 0-31.1 16.5c-3.9 3.7-4.5 3.8-6.7 1.7-3.2-2.9-3-3.1 6.7-9.7 16.1-11 28.9-16 48.4-19 13.8-2.2 21.7-2.5 21.7-.9m-296.8 2.3c1.5.8 3.7 1.4 5 1.4 4.5 0 31.7 15.5 35.8 20.5.8.9 4 3.7 7.1 6.1 15.6 12 39.5 61.5 32.4 67.4-3.2 2.7-4.7.8-7.1-9a106 106 0 0 0-24.2-46.8 78 78 0 0 0-14.2-13.7 21 21 0 0 1-4.5-3.5c-2.4-3.9-29.7-17.1-38.2-18.4q-3-.3-1.9-4.1 1-4.4 9.8.1m-217.4 1.5 7.4 9.8 5.7 7.7a236 236 0 0 1 9.7 17.4c7.5 14.4 16.9 47.1 14.5 50.9-2.3 3.6-6.8.3-7.5-5.5-.6-5.4-8.4-30.2-11.1-35.4l-4.5-9.5c-1.8-3.9-4.8-9.1-6.6-11.8a24 24 0 0 1-3.4-5.7c0-.6-2.7-4.2-6-8.1-5.9-7-5.9-7.2-4.4-10 1.9-3.7 2.9-3.6 6.2.2m436.8 34.1c38.5 38.2 37.8 37.5 33.8 41.5l-2.6 2.6-29.1-29.4c-47.6-48-45.3-45.4-43.3-48.4 2.8-4.3 3.9-3.4 41.2 33.7m111.9-33.5a125 125 0 0 1 65.5 51.9l5 8.9c5 8.9 10.7 27.2 9 28.9q-5.8 5.7-7.6-3.9c-6.3-34.1-40.1-69.4-76.4-79.7-10.3-2.9-11.6-4.1-8.4-7.3 1.8-1.8 4.1-1.5 12.9 1.2m-467.1 11.2 27.1 26.6c38.5 37.5 36.8 35.4 30.9 38.6-2.3 1.2-2.9.8-12.2-8.1l-11.8-11.5c-8.9-8.4-53.4-52.9-53.4-53.3 0-1 4.3-5.2 5.3-5.2.5 0 6.9 5.8 14.1 12.9m239.2-7.3a174 174 0 0 1 33 73.4c1.9 10.2 1.9 10-2 10-3.1 0-3.4-.3-4.1-3.8a194 194 0 0 0-32.1-73.2c-4.7-6.2-4.9-6.8-2.9-9 2.6-2.9 3.9-2.5 8.1 2.6m403.8 7.7a253 253 0 0 1 14.6 42.4q0 3.4 1.5 3.3 1.4 0 1.5-.8c0-1.3 6.1-4.2 9-4.2 2.1 0 3.7 1 5.9 3.7 6.3 7.6 2.3 15.8-8.4 17.3l-4 .5.4 6.5c.1 3.6.7 7 1.1 7.5 1 1.2.7 7.5-.8 18-3 21.8-19 35.2-44.3 37.1l-8.9.7v-2.5c0-3.5 1.8-4.8 6.5-4.8a43 43 0 0 0 35.5-21.6c7.5-15.7-1.6-65.3-18-98.9-3.6-7.3-3.6-7.2-.4-10.6 3.5-3.7 4.3-3.2 8.8 6.4m-73.2-5.3 4.9 6.3c8.3 10.2 20.9 37 25.2 53.2 4.7 17.8 4.7 17.8-.2 17.9-3.6.1-4.5-.9-5.5-6.4-4-20.3-17.4-49.8-29.4-64.8-3.1-3.7-3.4-4.6-2.4-6.7 1.6-3.4 4.6-3.1 7.4.5m206.8 7.7c-1.8 4.8-3.9 10-4.7 11.5-4.8 9.6-10.8 43-9.8 54.8.3 3.6.7 12 1 18.6.2 6.7.9 13.2 1.4 14.5l2.6 7.9a301 301 0 0 0 16.1 36.2c1.8 3.1 3.6 6.7 3.9 8a212.6 212.6 0 0 1 14.1 30.6c1.2 2.8 3.4 10.5 8.4 29.2 4.7 17.6-3.2 68.3-11.2 71.8q-.8.5-.8 1.2c0 3.8-25.3 31.8-31.9 35.4a87 87 0 0 1-25.8 10.6l-16.3 3.7c-21.6 5.1-52.9-.5-74.1-13.2-11.5-6.9-11.5-6.9-9.5-10 2.5-3.8 4.2-4 7.9-1.3 9 6.7 22.4 11.7 38 14.2 11.7 1.9 11.8 1.9 11-4.3-.5-4.5-.3-5 2.8-7.9 7.5-7.1 19.9.1 15.5 8.9-2.1 4.2-2.4 4 7.4 2.4a57 57 0 0 0 23.7-8.9l7.9-5.6c24.3-16.5 28.4-40 9.3-54.2-6-4.5-10.3-4.2-10.4.6-.4 9.4-12.6 13.6-23.4 8.2-9.4-4.8-11.1-18-3.3-26.9q3.6-4.1 2.6 2.3c-1.9 11.6 18.4 17 21.4 5.7 1.3-5 12.3-3 17.5 3.3 15.9 19 14.3 42.6-4 59-6.3 5.5-6.5 7.8-.4 3.5 12-8.3 25.5-39.1 20.2-46-.5-.5-1.1-2.9-1.5-5.3a65 65 0 0 0-8.1-18.1c-8.5-13.8-22.9-18.6-36.5-12.3-9.6 4.5-17 3.6-17-2.1.2-8.5 9.4-16.7 18.9-16.7a54 54 0 0 1 36.8 22.4 86 86 0 0 1 6.3 17.8q.1 1.6 1 1.8c5.3 0-8.9-32.8-16.1-37.3q-1.8-1.2-1.9-2.2c0-.5-1.4-1.8-3-2.7q-2.8-1.6-2.4-3.1c2.3-6.1-33.5-13.6-42.4-8.8-4.1 2.2-7.9-4.1-4.9-8 10.8-14.2 47.2-5.4 62.6 15a63 63 0 0 1 10.1 22.6c0 4.1 1 7.5 2.2 7.5 3 0-2.7-21.3-7.8-29.6-1.6-2.5-3.7-6.2-4.7-8.1-1-2-4.5-6.2-7.8-9.5s-5.6-6.4-5.3-6.9q.3-.8-1.3-.9c-1 0-2.4-.9-3-1.9-2.8-4.5-22.3-11.1-32.9-11.1-8.2 0-12.7-4.4-10.5-10.3 7.2-18.8 52.4 2 59.1 27 1 4 3 6 3 3-.1-7-10.9-26.3-18.7-33.2-2.4-2.1-3.1-4.5-1.3-4.5q1 0 1 1 .1.9 1 1c3.1 0-.4-3.2-9.1-8.1l-5.6-3.5a79 79 0 0 0-16.3-6.6c-8.2-2.7-7.2-9.9 2.2-14.8 10.6-5.7 20.8 2.7 25.9 21.2 1.2 4.4 2.9 6.5 2.9 3.6a75 75 0 0 0-7.2-22c-2.8-5.4-3.8-8.4-3.3-10q.8-2.5-.4-.9c-.8 1.3-1.5 1.2-4.6-.5q-7-3.5-2.1-3.4c1.4 0 2.8.4 3.1 1 1.9 3.1 2.1.2.3-4.3-2.4-5.8-3-24.3-1-32.2 4.4-17.4 7.2-24.3 23-55.5 12.9-25.6 12.2-24.3 12.9-23.6.3.2-1 4.4-2.7 9.3m-677.5.9a189 189 0 0 0 27 49.4c5.1 6.2 5.3 7 2.4 9.6-2.3 2-4.7-.1-12.1-10.6l-3.7-5c-4.3-3.7-16.2-26.6-20.1-38.5a42 42 0 0 0-3.1-8c-2-2.1-1-5.4 1.9-5.8 4.3-.6 4.4-.5 7.7 8.9m179.9-4q-1.7 2.3-2.2 1.5c-.2-.6.4-2.4 1.4-3.9q1.6-2.2 2.1-1.5c.3.7-.4 2.4-1.3 3.9m148.4.4q.8 5 11.5 28a165 165 0 0 0 17.2 27.3c4 5.4 4.3 7.2 1.6 8.7-2.6 1.3-5.1 1.3-5.1-.1q-.1-1.2-1.9-2.8a153 153 0 0 1-14.8-21.6l-3.6-7-3.6-7.5-4.5-10c-3.2-7.1-5.1-14.2-4.3-16.4 1.1-2.9 7.1-1.8 7.5 1.4m-349 2c1.6 4.3-1.4 7.9-5.3 6.5s-5-5-2.5-7.5c3.1-3.1 6.6-2.6 7.8 1m52.6-.4c4.1 4.1-.4 10.1-5.5 7.4-2.2-1.2-2.6-5.9-.7-7.8 1.7-1.7 4.4-1.5 6.2.4m279.4 1.5c.5 3.9-3.1 6.6-6.3 4.9-2.7-1.5-3.5-6.4-1.2-7.4 3.3-1.4 7.2-.1 7.5 2.5m49.2-.6c1 1.2 1 2.1.2 4-1.9 4-8.2 2.9-8.2-1.5 0-3.7 5.5-5.5 8-2.5m-471.6 11.8c.7 2.6-1.9 5.7-4.8 5.7-2.6 0-4.9-3.4-4.1-6 1.1-3.4 7.9-3.2 8.9.3m328.9-.6c1.3.8.7 4.1-1.2 6.4-1.6 1.9-2.3 2.2-3.7 1.3-6.7-4.1-2-11.6 4.9-7.7m-246.6 2.8c6.4 7.3-1.3 17.6-11 14.9-3.8-1.1-7.3-7-6.1-10.6 2.4-7.6 12.2-10 17.1-4.3m72.3-2q5 2.5 3.7 10.2c-1.8 10.9-18.7 9.3-18.7-1.8 0-7.8 7.8-12.1 15-8.4m329 .7c6 4.1 5.8 14.6-.3 16.2-14 3.7-21.4-9.2-9.4-16.4 4.1-2.5 5.7-2.5 9.7.2m79.4-1.6c2.2.8 2.1 6.7-.1 8.6-2.6 2.2-7.9-.8-7.5-4.3q.6-7.2 7.6-4.3M311 253.7c0 5.1-4.5 7.8-8.2 4.9-3.3-2.4-1.5-7.3 3.2-8.8 2.5-.9 5 1.1 5 3.9m178.5-1.8c2 6.3-5.5 9.8-8.3 3.8-1.2-2.5-1.2-3 .5-4.2 2.7-2.1 7-1.9 7.8.4m176.4-.4c5.2 2.6 5.7 9.1 1.2 13.6-7.2 7.2-19.2-.2-14.6-9.1 2.9-5.7 7.9-7.4 13.4-4.5m16.2-.5c4.2 2.3.5 8.4-4.8 7.8-3.8-.4-4.5-4.8-1.1-7.2 2.6-1.9 3.3-1.9 5.9-.6m36.4.3c2.6 1.9 1.3 6.5-2.2 7.8-2.3.9-3 .7-4.5-1.3-3.6-4.7 1.8-10 6.7-6.5m-534.6 1.2c5.4 2.7 5.7 9.1.8 12.9-4.3 3.3-6.5 3.3-10 .1-6.9-6.5.8-17.4 9.2-13m168.9 1c1.5 3.4 1.6 3.2-1.2 5-4.3 2.8-7.9-.8-5.1-5.1 2-3.1 4.9-3 6.3.1m38 1.9c.5 2.1-2.5 5.6-4.8 5.6-4.2 0-5.4-5.9-1.8-8.4 2.5-1.8 6-.3 6.6 2.8M644 253c4.7 4.7-2.2 10.8-7.2 6.3-2.4-2.1-2.3-3.8.4-6.3s4.3-2.5 6.8 0m115.1 0c2.2 1.2 2.5 5.2.5 6.9-3.8 3.2-9.2-2.4-5.9-6.1 1.9-2.1 2.7-2.2 5.4-.8m-331.9 2.5c1.6 3.6-1.7 7.1-5.7 6.1q-5.1-1.4-2.1-6.1c2.2-3.4 6.3-3.4 7.8 0M890 259c6.6 6.6-3.5 17.8-10.9 12.1-2.1-1.6-2.3-2.4-1.8-5.7 1.1-7.1 8.4-10.7 12.7-6.4M56.9 269.5c12.6 18.6 17.2 35.3 12.7 45.9q-3.3 8 2 2.9c7.7-7.7 26.4 1.9 26.4 13.6 0 6.5-.3 6.7-11 6.6-10.5 0-14.9 1.6-20.8 7.4-3.5 3.5-7.5 11.3-7 13.7.3 1.5 5.8-5.6 5.8-7.5 0-6.4 23.2-12.4 30.1-7.8 10.5 7.1 8.3 18.9-3.8 20.1-18.4 1.8-27.7 7.5-34.8 21-1.5 2.7-6 8.5-10.1 12.9A74 74 0 0 0 32 417.4c-1.5 4 1.1 2.2 4.5-3.2a55 55 0 0 1 45.7-26.5c10.3-.4 12.8-1.4 12.8-5.2 0-8.2-20.4-6.9-32.7 2.2-6.2 4.5-5.9 1.8.4-4.6 13.4-13.5 38.6-14.9 43.8-2.4 5.5 13-8.7 25.2-21.3 18.4-9-4.8-29.4 1.7-35.5 11.2-2.6 4-1.4 4.5 2.5 1.2 16.5-13.9 40.2-10.4 44.8 6.5 3.6 13.3-7.5 23.4-19.1 17.4-17.6-9.3-41.4.6-51 21.1-5.4 11.5-4.9 15.5.6 4.5 10.9-21.5 29.5-29.6 48-20.9 18 8.4 14.5 34.4-5 37.4-8.8 1.3-15.3-4-14.1-11.5 1.6-10.1-14.7 3-18.5 14.9a23 23 0 0 1-2 4.7c-4.2 5.2-5.9 24.2-3.3 36.4 4.2 20.4 25.4 38 51 42.4l3.1.5-.4-4.2q-1.3-10.4 9.9-9.5 12.2 1 9.1 13c-1.3 5-.9 5.1 7.2 2.8 3.7-1.1 7.2-1.7 7.7-1.4s2.8-.3 5.1-1.4 5.7-2.3 7.6-2.7 5.6-2 8.1-3.6c5.8-3.6 6.4-3.6 8.9 0 2.8 3.9 2.7 4.1-2.7 7.7-22.5 15-70 15.4-92.8.9-3-1.9-5.6-3.5-5.9-3.5-4.6 0-30.5-27-30.5-31.8 0-.8-.8-2.6-1.8-4a74 74 0 0 1-6.8-20.1L8 497c-1.2-4.8-1.1-30.5.1-36 2.4-10.7 3.4-14 6.7-22.5a312 312 0 0 1 19.3-42.3c2.1-3.7 4.6-8.9 5.5-11.7s2.7-7 3.9-9.5c10.2-20.3 16-61 11.6-81.5l-4-19.2c-1.6-7.9-3.3-14.9-3.7-15.5-2.3-4.1 5.6 4.9 9.5 10.7m187.8-9.9c4 1.1 4.3 8.9.5 12.5-5.9 5.5-13.7 3-14.4-4.5-.5-6.2 6.3-10 13.9-8M447 266c0 1.4-10.7 12.2-56.7 57.3l-12.2 12-2-2.4c-3.4-4.1-3.1-4.4 31.9-39.3l33.9-33.9 2.5 2.4c1.4 1.3 2.6 3.1 2.6 3.9m125.7-4c.7.1 3.3 6.2 3.3 7.6 0 2.9-4.9 8.4-7.5 8.4-4.9 0-9.5-3.8-9.5-7.8.1-7.3 4.3-9.8 13.7-8.2m35.7 1.2c1.4 2 1.3 2.4-1.8 6.2a120 120 0 0 0-23.6 64.8c0 6.9-4.5 12.3-6.2 7.5-4.7-12.6 7.9-53.5 22.2-72.6 6.7-8.8 7.2-9.1 9.4-5.9m-332.1.9c.8 1.3 0 3.2-3.7 8.8a112 112 0 0 0-18.9 59.6c-.2 9.9-.2 10-2.9 10.9-4 1.4-4.3.5-4-10.7q.7-30.4 16.4-57c7.9-13.5 10.5-15.8 13.1-11.6m415.5 2.2c4.3 8.8-31.5 49.2-57.9 65.3-6.4 3.8-7.5 4-10.7 1.8-3-2.1-2.8-2.7 1.3-4.7 11.7-5.6 36.7-27.3 46.9-40.6 10.6-13.9 10.6-14 15.4-22.8q2.4-4.4 5 1m85.2 2c0 .7-6.8 7.8-15.2 15.8l-24.7 23.5-14.6 13.5-5.5 4.9c-7.6 7.3-7.8 7.4-10.5 5.6q-4.2-2.7-1.1-5.8a7455 7455 0 0 1 62.7-58.8c4.1-4.3 8.9-3.6 8.9 1.3m-16-3.6c0 .5-1.7 2.1-3.8 3.8-3.5 2.7-3.3 2.1.7-2.8 1.5-1.8 3.1-2.3 3.1-1m67.2 1c2.4 2.1 2.5 9.5.1 12.3-5.4 6.2-15.7-2.1-11.9-9.5 2.5-4.8 8.1-6.1 11.8-2.8m-464.8 3.4c1.5 3 1 6.1-1.3 7.9a208.1 208.1 0 0 1-45.5 50.5l-6.7 5.2c-3.2 2.7-5 2.8-8.9.8-4.1-2.1-3.8-3.5 1.8-7s5-3.1 16.7-12.7a177 177 0 0 0 38.2-43.6c3-5 3.7-5.2 5.7-1.1m137.6-.6a7.2 7.2 0 0 1 .2 12.7c-3.3 1.8-10.2 3-10.2 1.7q-.1-.8-1.4-.9c-2.7 0-4-6.7-2-9.8q5.1-8 13.4-3.7m-322.6 5.2c3.7 3.2 3.5 7.4-.5 10.7q-5.8 5-10.4 0c-6.8-7.3 3.4-17.2 10.9-10.7m159.2 1.7c.7 2.9-1.1 6.6-3.2 6.6-4.5 0-7.1-4.9-4.2-7.8 2.2-2.2 6.7-1.5 7.4 1.2m327.8-.2c1.2 2 .2 4.4-2.7 6.2-3.9 2.5-8.8-3.9-5.5-7.2 1.8-1.8 6.9-1.1 8.2 1m-258.2 1.1c2.3 3.5-.9 6.5-5.9 5.5-2.2-.4-2.9-4.3-1.2-6.4 1.4-1.7 5.8-1.1 7.1.9m328.2.8c3 5.1-2.7 9.5-6.8 5-2.6-2.9-.3-7.7 3.9-8 .6-.1 1.9 1.3 2.9 3m160.3.4c5 5 1.6 12.5-5.8 12.5-8.7 0-9.8-11.6-1.4-15.1 3.1-1.2 3.5-1.1 7.2 2.6m-691.2 3.3c1.7 4 1.7 4.6.2 9.5-1.4 4.7-2.2 8.1-4.8 21.7-.4 2.5-1.1 11.7-1.4 20.5-.8 18.8-.7 18.5-4 18.5-1.9 0-2.8-.7-3.6-2.8a160 160 0 0 1 4-52.2c.9-5.1 4.7-18.4 5.8-20.3.7-1.2 1.6 0 3.8 5.1m82.3-4.2c4.3 3 1.3 8.7-4.1 7.7-3.8-.8-4.8-5-1.7-7.5 2.7-2.2 3-2.2 5.8-.2m331.2 3.6c0 5-4.1 7-7.7 3.6-2.8-2.7-2.9-3.6-.2-6.4s7.9-1 7.9 2.8m-165-1.3c2.6 5-.4 9.1-5.1 6.8-3-1.6-3.6-4.3-1.3-6.8 2.2-2.4 5-2.4 6.4 0m331.1 2.1c3.6 2 1.2 9-3.2 9-3.6 0-4.9-1.2-4.9-4.4 0-5.1 3.4-7 8.1-4.6M240 287.8c0 3.9-1.3 5.3-4.7 5.4-6.4.2-7.9-6.2-2.1-8.7 4.2-1.7 6.8-.4 6.8 3.3m135.6 4.6q.4 2.4-1.2 5-3.2 5.6 2.5 1.5l3.1-2.2 3.5 3.6 3.5 3.5-3.6 3.6c-4.3 4.3-5.2 4.4-8 .8-2.9-3.6-4.3-2-2 2.3l1.9 3.4-3.2 3.6c-1.7 2-3.1 4-3.1 4.5 0 1.7-2 1.1-2.7-.8-.3-.9-1.5-3-2.6-4.5l-1.9-2.8 2.6-2.8c4.4-4.5 3.1-6.9-1.7-3.1-3.1 2.5-3 2.5-7.2-.3-3.9-2.5-4.2-3.4-1.7-5.4 5.7-4.6 5.9-4.6 8.9-2.3 3.2 2.5 4.2 1.2 1.8-2.3-1.7-2.6-1.4-3.3 4.2-12.5l1.4-2.3 2.4 3.6c1.4 1.9 2.7 4.6 3.1 5.9m326-1.7c.3 1.1.1 3-.5 4.1-2.1 4 .1 6.1 2.9 2.7q2.8-3.2 6.1.7c4.6 5.6-.3 10.9-6.1 6.6q-5.6-4.2-2.4 2.5c1.8 3.8-.3 10.8-3.1 10.6s-6.8-7-5.6-9.6q2.3-5.1-2.5-1.8c-2.6 1.7-2.7 1.7-6.2-1.9l-3.5-3.7 2.8-2.9c3.5-3.7 4.8-3.7 7-.4 2.1 3.3 4.8 1.7 2.7-1.6-1.7-2.8-1.5-5.4 1-9.6l2.2-3.7 2.3 2.9a17 17 0 0 1 2.9 5.1m-141-3.7c6.8 2.4 4.9 12-2.1 11.1-5.7-.6-6.4-10.3-.9-12.1zm275.5 2c3.9 2.2.9 8-4.2 8-5 0-6.2-5.6-1.6-7.8 2.9-1.4 3.5-1.4 5.8-.2m-214.7 4.2c7.4 6.5.9 18.1-9 16.2-8.4-1.6-9.5-15.5-1.4-17.8 4.1-1.1 8-.5 10.4 1.6m233.3 3.8a22 22 0 0 1 0 12.5 136 136 0 0 0-3.7 31c-.1 12.1-.4 12.8-4.6 12.3l-2.9-.3-.1-12.3a146 146 0 0 1 7.2-48c.8-2.7 2.7-.5 4.1 4.8m-681.8-2.6c7.4 7.9-.5 18.7-9.6 13-4.2-2.6-4.2-9.5-.1-13.4 2.9-2.7 6.9-2.5 9.7.4m116.7-1.4c5.7 0 8.9 12.3 4.1 15.5-7.1 4.6-15 1.3-15.4-6.5-.4-5.8 4.2-10.8 8.5-9.4.8.2 2 .4 2.8.4m217.2.2c1.7 1.7 1.5 5.3-.3 6.8s-6.4.5-7.2-1.6c-1.6-4.3 4.3-8.4 7.5-5.2m392.1 1.5c3.3 2.8 3.9 8.5 1 11.2-3.3 3.1-9.3 2.9-11.5-.4-4.5-6.9 4.2-15.9 10.5-10.8m-118.4 1.9c3.6 3.9 3.6 11.4-.1 14.3-9.5 7.5-21.9-5.6-13.3-13.9 4.3-4 9.9-4.2 13.4-.4m-330 0a9.3 9.3 0 0 1 1.4 14.5 10 10 0 0 1-13.1.9c-8.8-6.9 2.3-21.5 11.7-15.4m-20.5 4.8c2.4 4.6-1.8 8.8-5.8 6q-4-2.7-.2-6.4 3.8-4 6 .4m208.7-.4q2.4 3.7-2.4 5.9c-4.2 1.9-6.7-1.4-4.3-6 1.4-2.5 5.2-2.5 6.7.1m-325.5 1.7c2.3 2.1 2.3 3.6-.2 5.8-4 3.6-9.6-.7-7-5.5 1.3-2.4 4.7-2.6 7.2-.3m213.3 5.7c1.5 6.5 1.6 9.1.7 21.7-.6 7.9-1 15.3-.9 16.4.2 1.6-.4 2-2.8 2-2.9 0-3-.1-3.6-6a79 79 0 0 1 .7-26.5c.9-3 1.9-7.6 2.1-10.3q1-10 3.8 2.7m231.3-5.2c2.1 2.1 1.4 5.4-1.4 6.7-2.2 1-2.8.9-4-.6-2.5-3.3-1.1-7.3 2.6-7.3.9 0 2.1.5 2.8 1.2m-485.4 5.7c2.8 3 1.8 7.5-1.7 7.9-5.3.6-8-3.5-5.1-7.6 1.9-2.7 4.5-2.8 6.8-.3m523-.3q3.3 3.4-.4 6.7c-4.9 4.2-9.3.3-5.8-5.1 2.2-3.5 3.9-4 6.2-1.6m-195.2 2.9c2.5 3.4-.9 8.1-4.6 6.4-3-1.4-3.4-4.3-1-7.7q2.3-3.5 5.6 1.3m85.1 8.2a625 625 0 0 1 41.7 42.7c0 .7-1.3 2.4-2.8 3.9l-2.9 2.7-10.4-10.2c-19.7-19.5-42.8-44.2-42.2-45.2 3.5-6.3 4-6.2 16.6 6.1m-326.9 3.8a116 116 0 0 1 12.2 12.7q.6 1.6 1.2 1.8c.4 0 6.7 5.9 13.9 13l13.1 13.1-2.5 2.9c-1.4 1.7-2.8 3-3.2 3s-40.5-38.6-45.6-44l-4.7-4.7c-4.5-4.3-4.7-5.5-1.2-8.2 3.3-2.6 2.7-2.9 16.8 10.4m61.2-8.5c2.7 2.2 5.4 4 6 4q1.2.1 1.6.8c1.3 3.2 32.2 20.1 43.1 23.6 2.3.7 2.5 7.6.1 7.6-5.7 0-22.6-8.3-38.2-18.7-5.2-3.4-9.7-6.3-10-6.3-1.4 0-13.2-9.7-13.2-10.9 0-1.5 2.8-4 4.6-4.1.7 0 3.4 1.8 6 4m48-1.5c1.3 3.3-.5 6.5-3.7 6.5q-5.3-.2-3.1-5.6c1.3-2.7 5.9-3.4 6.8-.9m278.7 1.7c1.8 1.3 4.2 3.3 5.4 4.5 6.3 6.5 44.3 28.3 49.2 28.3q2.6.1 1.6 5.1c-.7 3.3-4.7 3.6-8.3.7a7 7 0 0 0-3.2-1.5c-7.5-1.1-32.5-16.2-45.4-27.3-7.8-6.8-8.7-8.4-5.8-10.6 2.3-1.8 2.8-1.7 6.5.8m145.2.5c12.3 2.8 23.5 11.3 23.5 17.8q.1 7.5-5.6.6c-7.2-8.3-15.7-11.3-34.8-12-18.4-.8-17.8-.6-17-4.9.5-2.5 1.2-3.2 3.8-3.5 5.8-.8 23 .4 30.1 2M235 317.3c5.5 1.2 5.5 1.3 5.1 4.7-.4 4.6-1.4 5-7.3 3.4-2.8-.7-8-1.4-11.7-1.4-13.7-.4-15.1-.8-15.1-4.5 0-1.8.4-3.5 1-3.7 2.3-.8 23 .3 28 1.5m381.2-.6c4.6 4.1.3 11.2-4.8 7.8q-4.5-2.8-.2-7.2c2.6-2.7 2.6-2.8 5-.6m221.8.9c0 4.5-1.7 6.2-6.8 6.9a180 180 0 0 0-31.4 8.6c-9.8 3.3-10.4 3.4-14.1 1.6-5-2.3-3.7-3.3 13-9.5 6.7-2.5 19.3-6 34.8-9.5 3.9-.9 4.5-.7 4.5 1.9m-654.5 3.9c0 4.5-.5 4.8-10.4 7-16.5 3.8-27.8 11.6-31.1 21.6-4.1 12.4 12.3 74.9 24.5 93.6 2.6 3.9-2.4 12.5-5.2 9.1-3.3-4-14.9-30.3-18.5-41.7-1.2-3.9-1.4-4.1-4.5-3.5-8.3 1.6-14.3-2.2-14.3-8.9 0-4.2 3.1-9.7 5.6-9.7.8 0 2.4-.6 3.7-1.3l2.5-1.4c.2-.1-.5-5.9-1.6-13-2.5-15.8-2.2-21.3 1.3-28.4a46 46 0 0 1 29.5-24.3c14.6-4.7 18.5-4.5 18.5.9m108.1-2c1.2 5-4.1 7.5-7 3.3-2.1-3-.4-5.8 3.4-5.8 2.3 0 3.1.5 3.6 2.5m163.4.9q2.4 4.9-2.5 6.2c-4.5 1.1-6.8-2.5-4.3-6.6 1.8-2.8 5.2-2.5 6.8.4m101-.9 11.8 1.5c1.3 0 1.8 9 .4 9l-6.6-1.1c-3.1-.5-10-1.3-15.4-1.7-9.3-.7-9.7-.8-10.6-3.3-2.2-6.3 1.1-7 20.4-4.4m219.8.2c1.2 2.3-.2 6.3-2.2 6.3q-6.3-.1-4-6.4c.8-2.1 5.1-2 6.2.1m-261.8 2c0 1.6-.4 3.4-.9 4.2-.8 1.2-30 9.9-39.1 11.7-2.6.6-12-3-12-4.6 0-.8 10-5 12-5 .5 0 4.4-1.2 8.7-2.6 7.7-2.5 13.5-3.8 24.3-5.3l6.3-1q.6.2.7 2.6m149.7 2.5c3.5 4 3.6 4.7.8 8.3-3 4-1.4 4.8 2.9 1.4 2.6-2.1 3.6-1.9 7.1 1.1 1.1 1 2.9 2 4 2.2 1.9.3 1.9.4-.3 2.3l-4.4 3.7q-4 3.3-6.8.3c-2.7-3.3-5.1-1.5-2.5 1.9 3.8 5-3.5 10.8-8.1 6.5-2.9-2.7-3-4.3-.4-7.6 2.7-3.5 1.5-4.8-1.9-2.2l-2.9 2.1-5.3-2c-6.8-2.5-7.1-4-1.4-7.5 5.5-3.2 5.8-3.3 10.1-.6q5.4 3.2 1.9-1.5c-2.1-2.8-1.9-4.6 1.3-7.7 3.3-3.4 3.4-3.5 5.9-.7m74.1 2.5c2.3 3.6 2.3 4.3 0 7.5-2 2.7 0 3.4 2.6.9 2.8-2.6 4.7-2.3 8.9 1.4 3.6 3.2 3.4 3.6-1.9 6.3-4.4 2.1-4.7 2.1-7.5.5-3.4-2-4.9-1.1-2.6 1.5 2.5 2.7 2.1 4.7-1.4 7.6-3.9 3.3-3.9 3.3-6.6-.9-2.8-4.2-2.8-4-.2-7.6 2.2-3.1.4-4.4-2.1-1.4-1.8 2.1-2.2 2-6.6-2.1l-3.8-3.6 3.2-2.9c3.9-3.5 5.8-3.6 8.2-.7 2.5 3.2 3.8 1.4 1.6-2.2-3.6-6.2 4.3-10.4 8.2-4.3M277.5 330c16.3 6.5 24.4 11.1 47.3 27q6.5 4.6 2.4 9l-1.9 2.1-9.8-8.1c-5.3-4.5-11.1-9-12.8-10a201 201 0 0 0-32.5-15c-1.8-1.1-4.6-2-6.2-2-3.4 0-4.6-2.4-3.1-6.3 1.2-3 .6-3.1 16.6 3.3m58.5-2.8c2.1 2.8 2.2 3.4 1.1 6.5-1.5 4.1-.5 5.7 1.6 2.5 1.9-2.8 3.5-2.8 7.6 0l3.6 2.6c.3.1-1.3 2-3.4 4.2l-3.9 4-2.1-2c-3.8-3.5-5.8-2.2-3.2 2.1 1 1.8.8 2.3-1.7 4.5l-2.9 2.6-3.1-3.1-3-3 2.4-2.6c2.9-3.1 1.9-4.4-1.9-2.2-2.6 1.5-3 1.5-4.1.2-.7-.9-2.9-2.3-4.8-3.2l-3.5-1.7 2.9-2.3c4.4-3.6 7.1-3.9 10-1.3 3.7 3.5 4.5 1.5 1.3-3.1-1-1.3-.7-2.2 1.1-4.7 2.9-3.9 3.1-3.9 6 0m72.2-.5c3.1 2.9 3.6 6.4 1.3 8.3-2.6 2.2-1.9 4.6.8 2.6 5.3-3.9 6-3.9 12-.5 5.7 3.3 6.1 6.9.8 6.9-.9 0-2.9.9-4.5 1.9-2.9 2-3 2-5.8-.1q-5.6-3.6-2.5 2.1c3.7 6.3-4.6 11.5-9.7 6.2l-2.7-2.9 2-3.8q3.6-7-1.2-2.6c-3.1 2.9-4.5 2.7-9.1-1.3l-3.8-3.4 3.1-3.1q4.6-4.9 8.1-.5 3.2 3.8 2.4-2.4c-1.2-7.5 4.1-11.9 8.8-7.4M873 342.2a163 163 0 0 1-1 19.3l-2.4 11.9C867.4 384 865 392 864 392c-2.6 0-4.3-10.9-2.6-17.7a118 118 0 0 0 2.1-11.3l1.1-9c.4-2.4.8-8.9.9-14.5l.4-11.3q.3-1.1 3.6-1.2h3.5zm-273-12.1c7.5 2.8 21.3 9.5 27.5 13.3l6.7 4.1c8.9 5.5 20.8 14.7 20.8 16.1 0 4.1-6.8 6.4-9.5 3.4-1-1.2-3.5-3-5.4-4.2s-5.4-3.6-7.6-5.3a144 144 0 0 0-35-18.5 23 23 0 0 0-5.7-2c-1.5 0-1.8-.9-1.8-4.5 0-5.4 1.3-5.7 10-2.4m-376.3.5c3.8 1 4 9.8.7 28.9l-.9 5.5c-1.5 10.1-7.5 30-9 30s-4.7-11.1-3.6-12.4c3-3.7 7.2-26.9 7.6-41.6.3-12.6-.2-11.8 5.2-10.4m318.8 4.5c.8 2.4-.3 23.8-1.3 25.4a37 37 0 0 0-1.7 7.4c-.6 3.6-1.6 6.6-2.1 6.8-1.8.6-3.8-13.8-2.9-21.9.4-4 .8-9.6.8-12.3.3-7.3 5.4-11.2 7.2-5.4m273.9 13.4a114 114 0 0 1-21.1 58.7c-4.5 6.7-6.7 8-9.1 5.6-1.9-1.9 1.6-10.2 5.9-13.8 7.1-6 17.8-40.9 17.9-58.3 0-4.5.2-4.9 3.3-6.2 4.5-1.9 4.6-1.6 3.1 14M176 336q3.6 3.6.4 8.5c-3.5 5.4-14.2 1.8-12.8-4.3 1-3.9 1.1-4.1 4.7-5.1 4.8-1.4 5.5-1.3 7.7.9m722.4.5c3.7 5.6.6 12.5-5.5 12.5-8.5 0-11.5-9.5-4.2-13.4q6.7-3.4 9.7.9m-686.6-.3c2.9 2.9-.4 9.4-4.5 8.6-1.8-.3-3-5.5-1.9-8.4.7-1.7 4.8-1.8 6.4-.2m25.7 1.2c1.9 2.9.8 6.1-2.6 7.1q-3.8 1.2-3.9-4.6c0-4.9 3.9-6.5 6.5-2.5m270.5 2.1c2.4 4.5-4.7 9-8 5.1-1.8-2.2-.8-5.9 1.9-7.2 3-1.5 4.4-1 6.1 2.1m53.8-2.3c3 3-.1 8.8-4.8 8.8q-5 0-5-5-.1-5 5.5-5c1.7 0 3.6.5 4.3 1.2m271.3 1.6c4 3.3-.3 8.3-5.2 5.9-2.8-1.4-3.6-4.2-1.9-6.2q2.7-3 7.1.3m25.4 3.3q0 3.5-1.5 3.4c-1.6 0-2.5-3.7-1.6-6.2 1-2.6 3.1-.8 3.1 2.8m-372.1 4.2c-1.5 18.4-8.9 39-20 56.2-7.3 11.3-8.4 12.2-11.3 9.1-2.2-2.3-1.4-6.6 1.1-6.6q.8-.1.8-1c0-.6 1.1-2.3 2.5-3.8 7.6-8.2 17.5-34.6 20-53.5.5-3.8 1.2-5 3.3-6.1 3.8-2 4.2-1.3 3.6 5.7m46.1-3.7q0 2.9-1.7 3.2c-1.8.4-2.7-4.6-1.1-6.2 1.4-1.3 2.8.1 2.8 3m-254 2.1c4.7 2.3 4.5 3-2.2 6-15.2 6.7-24 9.2-44.5 12.8-2.6.4-2.8.2-2.8-2.6 0-4.8 1.5-6.7 6.2-7.4 9-1.3 15.7-3 25.8-6.6 12.5-4.3 12.9-4.4 17.5-2.2m165.4 4.8c0 .5-2.5 2.6-5.7 4.5-13.7 8.3-41.2 32.1-41.2 35.8q0 1-.7 1.4c-1.4.6-8.8 10.1-12.6 16-4.3 6.8-4.8 6.9-7 2.3-2.3-4.8-2.2-5 2-10.9a191.5 191.5 0 0 1 56.8-53c2.9-1.5 8.3 1 8.4 3.9m153.2-4.3c2.2.6 3.9 1.6 3.9 2.3 0 2.9-25.6 10.3-45 13l-6.2 1.1c-1.5.4-1.8-.1-1.8-2.8 0-4.9 1.2-6 6.6-6.3a143 143 0 0 0 34.3-7.5c2.1-1.2 3.6-1.2 8.2.2m93.3 1.5 1.9 2.6-7.9 7.6a5489 5489 0 0 1-52.7 49.8c-9.4 8.9-10.8 9.5-13.5 5l-1.7-2.8 5-4.7L643 384l22-20.6 12.9-12.2c8.2-7.9 9.7-8.4 12.5-4.5m-330.2 1c4 3.9 5.6 1.9-29.8 37.1s-34.9 34.8-38.5 28c-.9-1.6 62.7-67.8 65-67.8.3 0 1.8 1.2 3.3 2.7m405.6-1.1q4 2.7.5 4.1a94 94 0 0 0-9.7 6.7l-10.6 8.1a171 171 0 0 0-33.9 38.2c-.6.6-2.4 3.4-4.1 6.2-3.8 6.1-3.3 6-5.8 1.2l-2.1-3.9 6.7-9.4a179 179 0 0 1 45.2-47.4c8.1-5.9 10-6.5 13.8-3.8m-607.7 3.9c3 1.3 7.2 2.7 9.4 3l14.5 1.9c5.8.7 11.5 1.4 12.8 1.4l9.7.2 7.5.1v3.3q0 3.4-1.7 4.1c-2.6 1-26.9.7-32.8-.5l-11.4-2c-14.9-2.6-19.8-5.4-17.8-10 2.1-4.7 2.8-4.8 9.8-1.5m773.9 1.2c.6 1.7-1.2 16.5-3.1 26.8-1.1 6-2.3 13.4-2.6 16.2l-.5 5.3h3.5c7.5 0 11.6 12 5.8 17.2-3.6 3.2-10.3 3.9-13.7 1.3-2.9-2.2-3.2-1.9-4.8 3.4a324 324 0 0 1-22.6 46.2 651 651 0 0 1-21.2 25.3l-2.8 3.1-3-3.3c-3.1-3.3-3.1-3.3-1.1-5.5a235 235 0 0 0 50.8-95.2c2.2-9.2 5.3-26.5 5.3-29.8q-.1-2.9 4.3-7.7c3.9-4.5 5.1-5.2 5.7-3.3m-425.8.7 16.3 2q7.6.7 7.5 5.7c0 3.7-6.4 3.6-26.7-.4l-11.3-2.2v-3.2c0-3.9-.8-3.8 14.2-1.9m-213.9 1c4 3.1.3 9.6-4.3 7.3-3.2-1.6-3.6-4.1-1.1-6.6 2.4-2.4 3-2.5 5.4-.7m161.7 2.5c0 2.4-2.5 4.5-4.5 3.7-2.2-.8-1.8-3.2.7-5q3.8-2.6 3.8 1.3m160 .1c1.4 2.7-1 5.2-4.5 4.8-2.4-.2-3.1-.8-3.3-3.1-.5-4.4 5.6-5.8 7.8-1.7m161.4-1.4c2.1.8 2.1 6.3.1 7-2.2.9-6.5-.4-7.2-2.2-1.2-3.1 3.5-6.2 7.1-4.8M832 357c2.5.5 6.4 1 8.7 1 10.5 0 16.9 2.6 15.9 6.4q-1.2 4.5-16.7 1.6c-3-.6-7.2-1.2-9.4-1.5-7.4-.7-9.6-2.1-8.9-5.2 1-4 1.3-4.4 3.7-3.8zm-132 3.2q2.1 4.2 1.6 7c-.6 3.1.1 3.4 3.9 1.6 2.3-1 2.9-.9 5.2 1.4l2.5 2.6-3.5 3.8-3.5 3.9-2.4-2.3c-2.5-2.2-4.8-2.9-4.8-1.3q.1.9 1.6 2.1c3.5 3 3.5 4.7.4 10.9-4 7.8-4.2 7.9-7.8 2.2-4.5-6.9-4.6-7.6-2.1-11s1.9-5.2-1.1-3.3c-2.9 1.8-7 1.5-7.7-.6-.3-.9-1.2-2.4-2-3.4-1.3-1.4-1.1-1.9.9-3.8 4.4-4.2 5.6-4.3 7.3-1 .8 1.6 2.2 3 3 3 1.8 0 1.8.1 0-4.4-1.5-3.6-1.5-3.7 1.7-7.6 4.1-4.9 4.1-4.9 6.8.2m-329 0c3.9 4.4 4.5 6.4 2.6 9.3-2.6 4-1 5.2 2.1 1.5 2.4-2.8 3.3-2.6 7.1 1.7l3.3 3.8-2.8 1.2q-6 2.5-8.3-.2c-2.5-3-3.3.1-.9 3.4l2.2 3-2.8 4.1c-3.9 5.6-4.1 5.6-7.1 1l-2.8-4.2 1.9-3.4c2.4-4.5 1.2-5.5-2.4-2l-2.8 2.7-3.7-3.8c-4.4-4.7-4.4-4.5 0-6.6 3.4-1.7 3.6-1.7 6.1.3 4.2 3.3 6.1 1.7 2.6-2.2-1.5-1.7-1.5-2.2.2-7.3 2.3-6.5 1.8-6.3 5.5-2.3m95.2 2.3c.5 2.2-1.6 5.5-3.5 5.5-2.1 0-3.6-3.2-2.5-5.5 1.5-3.4 5.4-3.4 6 0m-193.9 0c4 3-1 9.8-5.5 7.4-2.4-1.3-2.4-6.4 0-7.8 2.3-1.4 3.3-1.3 5.5.4M588 372.8a101 101 0 0 0 27.6 46.1 120 120 0 0 0 41.9 27.1c2.1.8 8.5 2.4 14.3 3.5 3.5.7 4.3 3.3 1.7 5.5-4 3.3-37.4-9.2-46.5-17.5a34 34 0 0 0-4.2-3.1c-8.8-4.7-28.9-29.6-35-43.4l-3.9-8.5c-1.2-2.5-4.9-15.5-4.9-17.3 0-1 3-2.9 5-3.1.3-.1 2.1 4.8 4 10.7m14.1-9.2c2.8 3.4-3.2 9.2-6.6 6.4-1.5-1.3-2-6.1-.8-7.3s6.1-.7 7.4.9m191.3 1.3c3.4 3.7-2 10.3-5.8 7.2s-2-9.1 2.4-9.1c.9 0 2.5.9 3.4 1.9m-536.4 1c.5 1.1 1 2.9 1 4.1a118 118 0 0 0 35.9 53.1 102 102 0 0 0 46.4 23.4c6 .8 7.4 2.2 5.6 5.6-3.1 6-39.6-8.1-53.4-20.5-1.6-1.5-5.3-4.5-8.1-6.7a64 64 0 0 1-10.5-11.2l-6.9-8.9c-5-5.5-17.6-35.1-16.3-38.4q.6-1.7 4.5-2.3.8.1 1.8 1.8m194.5 1.3c7.5 8.9-6 20.6-14 12.1-4-4.4-2.8-9.9 2.7-13.3 4.8-2.9 8.1-2.6 11.3 1.2m168.3-.1c3.7 3.6 4.1 6.9 1.3 11.5-5.3 8.7-19.2 2.8-16.7-7 1.9-7.7 9.8-9.9 15.4-4.5m-325.8-.6c5.9 3.1 5.5 12.6-.8 15.4-8.3 3.8-14.9-.8-14.3-10 .4-5.5 9-8.6 15.1-5.4m486.9 1.1c7.9 10-6.4 22.4-14.8 12.9-4.3-4.9-2.7-13.3 2.9-14.9 5.1-1.3 9.9-.5 11.9 2m-467.3 2.1c1.2 4.7-5.8 7.6-7.5 3-1.3-3.2.4-5.7 3.9-5.7 2.4 0 3.1.5 3.6 2.7m443.6-1c4.2 4.8 1.6 10.9-3.7 8.5-3.6-1.7-4.4-6-1.5-8.4 2.8-2.2 3.3-2.2 5.2-.1M169.1 370c4.6 0 6.1 7.5 2.2 12-5.6 6.7-15.8-.2-12.7-8.5.8-2 6.3-4.6 8.2-4zm362 5c1 3 3 9.9 4.5 15.4a147 147 0 0 0 24.1 48.2c2.9 3.9 5.3 7.5 5.3 8.1 0 1.7-5.1 5.8-5.8 4.7l-6.8-9a133 133 0 0 1-7.6-10.9l-6.5-12.5c-7.9-15.3-17.5-44.5-15.9-48.7 1.5-3.9 6.9-1.1 8.7 4.7m104.2-2.8c1.8 2.8-.7 6.8-4.2 6.8-3.6 0-5.4-2.1-4.5-5.3.9-3.8 6.7-4.8 8.7-1.5m-204 .9c.7 2.7-2.7 6.1-5.6 5.7s-3.6-4.7-1.1-6.5c2.7-2 6.1-1.6 6.7.8m-228 1.1c.2 1.3.5 4.1.6 6.2.4 7.6 13 36.5 21.7 49.5l4.1 6.4c.6 1.1 3.6 4.5 6.7 7.6 6.3 6.4 6.4 6.6 3.4 9.8-2.1 2.2-4.8 3.1-4.8 1.5 0-.4-1.8-2.7-4.1-5a92 92 0 0 1-6.7-8.5 68 68 0 0 0-4.4-6.1c-1-1.1-1.8-2.3-1.8-2.7s-.6-1.4-1.3-2.1c-6.2-6.6-22.7-48.3-22.7-57.4 0-2.6 8.7-1.8 9.3.8m301.9.1c1.6 2.5.9 7.5-1.3 9.1-5.1 3.5-11.3-4.5-7.2-9.4 1.9-2.3 6.9-2.2 8.5.3m58.6 1.2c3 6.5-4.5 11-9 5.4-2.3-2.8-2.3-3.5.5-6.3 2.9-2.9 7-2.5 8.5.9m290.2.9c.4 1.1.6 2.4.3 2.8-1.7 3 14.3 43.3 20.2 50.8a44 44 0 0 1 3.5 5.3c.7 1.5 2.8 4.5 4.5 6.5 4.2 5 4.6 6.4 2.4 9.1s-2.9 2.3-7.3-2.7c-14.5-16.4-37.2-72.9-29.9-74.4 3-.7 5.4.4 6.3 2.6m45.8-.1c3 6.3-2.8 13-9.1 10.3q-6-2.5-4.9-7c1.6-6.8 11.3-9 14-3.3m-146.1 11.9 35.3 35c27.9 27.5 26.1 25.1 21.8 29.5l-3.2 3.3-34.6-34.8c-41.4-41.8-37.5-37.3-34.9-40.6 3.2-4 4.4-3.4 15.6 7.6m78.5-8.5c3.2 2.9 1.4 9.3-2.7 9.3s-5.6-7-2.2-9.3c2.8-2 2.7-2 4.9 0M351 384.8c5.6 7.2 16.8 24.1 20.3 30.7 3.6 6.8 8.7 18.2 8.7 19.5 0 .6.6 1.9 1.3 3 1.5 2.5-.4 4.2-4.2 3.8-1.9-.3-2.8-1.6-5.1-7.8a158 158 0 0 0-24.3-42.3c-4.9-6.4-6.6-9.4-6.2-10.8 1.2-3.6 4.7-2.1 9.5 3.9m323.2-2a183 183 0 0 1 15.6 21.5c7.1 9.7 20.2 38.2 18.4 39.8-4.1 3.7-8.1 1.7-10.8-5.6a199 199 0 0 0-24.5-43.3c-8.5-10.2-8.7-10.7-5.8-13.8 2.4-2.5 4-2.2 7.1 1.4m-436.3-1.9c3.4 1.8.9 8.1-3.2 8.1s-5.7-7.3-1.8-8.3c2.7-.8 3.2-.7 5 .2m182.7 4.7a2346 2346 0 0 1 61.4 61.8c0 1.6-3.2 4.6-4.8 4.6a45 45 0 0 1-10.1-8.5l-33.3-32.6c-25.1-24.5-26.1-25.8-23.1-29.1 2.4-2.7 3.3-2.3 9.9 3.8m-246.2 3.5c5 2.3 5.8 11.2 1.3 14.4-7.1 5-15.3-2.7-11.6-10.9 1.9-4 6-5.4 10.3-3.5m276.4 3.1c.4 3-2.5 5.1-6.1 4.6-2.8-.4-3.5-4.3-1.2-6.8 2.4-2.6 6.9-1.3 7.3 2.2m440.3-1.5a7.1 7.1 0 0 1-5.9 12.9c-7.2-2.4-7.8-10-1.2-13.3 3.2-1.6 3.6-1.6 7.1.4m-275.7 1.5c1.7 2.5-.5 7.8-3.3 7.8-2 0-5.1-3-5.1-4.8 0-4.5 5.9-6.6 8.4-3m164.6-.1c2.9 5.3-2.4 9.4-6.4 5-1.8-1.9-1.8-2.2-.2-4.6 2-3 5.1-3.3 6.6-.4m-492.2-.5c4.3 1.2 2.4 8.4-2.3 8.4-4.3 0-5.8-3.9-2.8-7.2 1.8-2 1.9-2 5.1-1.2m209.7 1.4c.3 1.1 1.1 2 1.6 2 2.2 0 .9 7.6-1.8 10.7-4.9 5.6-14.7 2.1-14.7-5.2 0-7 13-13.6 14.9-7.5m-159.8 1.6c2 3.1.9 5.7-2.6 6.2-4.5.7-7.2-5.5-3.3-7.7 2.7-1.6 4-1.3 5.9 1.5m234.9 1c6.1 7.5-3.3 19.1-11.2 13.9-4.7-3.1-5.8-12.9-1.7-16.1 3-2.4 10.1-1.2 12.9 2.2m160.4-1.1 2.4 2.6-2.6 2.6c-4.6 4.6-9.8.1-5.7-5.1 2.5-3.2 3-3.2 5.9-.1M408 397c.8 1.5.6 2.4-1 4-3.8 3.8-8.3 1.2-6.2-3.5 1.4-3.1 5.6-3.4 7.2-.5m254.5 1.1c.9 2.8-2.2 6.1-5.4 5.7-3-.3-4.3-5.4-1.9-6.9 2.6-1.7 6.6-1 7.3 1.2m163.2-1c3.5 1.3 4.3 2.5 4.3 7.2 0 10.2-14.1 12.2-16.5 2.4-1.8-7.1 4.8-12.4 12.2-9.6m-580 4.5c5.5 4.2 2.1 13.6-5.1 13.6-9.1 0-11.9-12.6-3.3-15.1 4.7-1.3 4.7-1.3 8.4 1.5m279.2 3.5c1.5 4.8-2.3 13.9-10.4 25.6a57 57 0 0 0-4.5 6.9c0 1-17.4 20.9-23 26.3-9 8.7-28.2 22.6-32.8 23.7-2.1.6-7.2-1.8-7.2-3.4 0-.4 3-2.5 6.6-4.7a175 175 0 0 0 64-71c4.2-9 5.5-9.6 7.3-3.4m-187.4 3.2c4.1 3.5 4.6 9.8 1 13.1-6.1 5.7-15.6 2-15.9-6.2a9 9 0 0 1 14.9-6.9m397.6.2c.6.4 1.7 2.2 2.5 4 3.7 8.9-6.4 17.4-13.8 11.5-10.3-8.1.1-22.4 11.3-15.5m151.6 0c5.5 3.8 2.3 14.5-4.3 14.5-2.7 0-7.4-5.3-7.4-8.3.1-5.7 7.1-9.4 11.7-6.2m-703.4.6c4.9 2.6 5.2 8.5.6 12.3q-5.7 5-10.4.1c-6.8-6.8 1.2-16.9 9.8-12.4m224 .9c6.7 5.3 3.2 16-5.3 16-3.1 0-7.7-4.7-8.5-8.6-1.3-7.4 7.7-12.2 13.8-7.4m257 1.4q5.6 5 2.1 11.3c-6.3 11.9-21.8 4.4-17.3-8.4 1.9-5.6 10.5-7.2 15.2-2.9M425 413.5c1.5 1.8.4 5.2-2.1 6.5-4.1 2.3-8.1-3.4-4.7-6.8 1.6-1.6 5.3-1.5 6.8.3m426.5 2.2c1.5 3.6.9 7.2-1.6 9.3-.3.3-1.8 2.6-3.2 5.2-10.5 18.9-33.2 41.9-56.6 57.2l-7.4 4.8-3.3-1.6c-3.3-1.5-4.7-4.6-2.1-4.6.7 0 3.5-1.5 6.3-3.3a58 58 0 0 1 6.5-4c14.1-6.9 55.9-53.5 55.9-62.3 0-1.2 2.6-4.4 3.6-4.4.2 0 1.1 1.7 1.9 3.7M202 417c1.2 2.8 1 3.5-2.5 9.3-14 22.8-23.1 32.5-52.4 55.2a31 31 0 0 0-5.1 4.5c0 .3 7 7.6 15.5 16.3s15.5 16.6 15.5 17.6c0 2.9-5 5.1-6.4 2.7-.6-1-4.7-5.3-9.1-9.5-16.2-15.3-27.5-27.2-26.9-28.3.3-.5 3.7-3 7.5-5.4s7.4-5 8.1-5.7 2.7-2.2 4.3-3.2a159 159 0 0 0 46.5-53.3c2.2-4.7 3.1-4.8 5-.2m151.8-2.8c3 3 0 8.5-4.1 7.4-3.4-.8-4.4-4.1-2.1-6.7 2-2.2 4.4-2.5 6.2-.7m400.1.2c2.5 3 .9 8.1-2.5 8.4a4.5 4.5 0 0 1-2.1-8.8c3-1.2 3.3-1.2 4.6.4m-364.1.8c1.7 1.7 1.5 4.4-.4 6.2-3.7 3.8-7.6-.6-4.3-4.8 2.3-2.9 3-3.1 4.7-1.4m92.9 1c2.6 2.5 3.2 7.8.8 7.8q-1.3 0-1.5 1c0 1.4-5.2 1.2-7.2-.4-2.6-1.9-2.3-7.1.4-9 3-2.1 4.7-2 7.5.6m160.2 2c2 3.5.2 5.8-4.5 5.8-2.7 0-3.5-.5-4-2.4-1.5-6.2 5.4-9 8.5-3.4m-328.5-.6c1.9 1.8 2 2.8.6 5.5-1.5 2.8-5.4 2.4-7.5-.7-2.9-4.5 3-8.7 6.9-4.8m266.4 1q4 2.5.5 6.4c-2.2 2.5-3.8 2.5-6.3 0-4.4-4.4.6-10.1 5.8-6.4m135.9 1.1c1.3 1.9 1.2 2.4-.7 4.3-4.4 4.4-9.6-.4-5.4-5.1q3.3-3.6 6.1.8m-38.3.5c2.9 4.1-3.5 9.1-7.1 5.6-1.3-1.4-1.3-1.9.1-4.7 1.9-3.6 4.8-4.1 7-.9m136-.9c2.6 1.9 1.8 7.1-1.2 7.5-3.6.5-7.4-2.4-6.6-5.1 1.2-3.8 4.5-4.8 7.8-2.4m-557.6 1.3c3.6 2.5 1.9 8.4-2.5 8.4-4.1 0-6.5-6.3-3.4-8.7 2.1-1.6 3.2-1.6 5.9.3m348.2 9.2c0 1.6-3.8 5.4-24.5 24.7L559 474.6c-21.5 20.3-19.8 19-22.8 17.2-2.9-1.8-4.3-5.8-2-5.8.8 0 8.6-7.1 17.4-15.8 13.2-13.1 30.3-29.3 45.9-43.5l2.9-2.6 2.3 2.1c1.3 1.2 2.3 2.8 2.3 3.6m-164.4-3.4c2.3 2.3 1.9 2.8-7.9 9.3a121 121 0 0 1-50.2 19.8l-9 1c-4.7.7-6-.6-4.6-4.8 1.1-3.3 1.4-3.5 4.5-3 7 1.1 30.3-4.4 40.6-9.6 6.6-3.4 20.4-12.1 20.8-13.3.6-1.3 4.2-.9 5.8.6m-161.1 2.3c1.4 1.5 2.5 3 2.5 3.4 0 2.5-50.6 51-52.2 50-2.4-1.5-2.8-1.4-2.8.9q0 1.8 1.2 2c1.9 0-8.4 10-11 10.7-2.4.6-6.2-2-6.2-4.2 0-.6 8.4-9.5 18.8-19.7l32.2-32.1c15.3-15.3 14.1-14.6 17.5-11m492.2 0c3.2 4.8-35 26.3-46.9 26.3a93.5 93.5 0 0 1-30.2 2.9c-3.3-3.1 1.1-5.6 11.2-6.2 5.5-.4 12.1-1.3 14.8-2.1l10.9-3.2c3.3-1 6.5-2 7-2.4s3.4-1.7 6.3-2.9c5.5-2.3 16.9-9.3 21.1-13 2.8-2.5 3.9-2.3 5.8.6m-374.3-.1c2.2 2.1 2 5.1-.3 6.4-5.4 2.8-10.8-2.4-6.2-6.1 2.8-2.3 4.5-2.4 6.5-.3m135.6 1.6a15 15 0 0 0 3 4.5c3.9 4.4 3.8 6.4-.6 11.3s-3.6 7.1 1.2 3.3q6.5-5 10.7 2.5l2 3.3-3.4 3.5q-6.3 6.7-11.3.2c-3.4-4.4-4.6-2.7-1.8 2.5 2.8 5.4 2.8 7.8-.3 10.7-1.4 1.3-2.5 2.9-2.5 3.7q-.2 3.3-5-2c-4.3-4.6-4.6-6.9-1.6-11.4 4-5.9 3.5-8.3-.9-4.4-5.3 4.6-8.4 4.2-11.8-1.4-3.3-5.6-3.4-4.9 1-7.7 8.3-5.2 7.5-5.1 10.5-1.6 3.7 4.3 4.8 2.7 1.9-2.7-2.4-4.6-2-6.9 1.7-9.7.9-.7 2.5-2.6 3.5-4.1 1.7-2.6 3.7-2.9 3.7-.5m-188 .8c2.8 2.8 2.4 4.7-1.5 6.8-4.2 2.2-7.4-3.7-3.9-7.2 2-2.1 3-2 5.4.4m20.4 2.1c1.9 4.3 2 4.2-1.7 13.9-1.3 3.6-3.2 9.7-4.2 13.7l-1.8 7.1-3.9.4c-2.2.2-4.2 0-4.4-.4-1.2-1.9 8.9-33.7 11.9-37.6 1.5-1.9 2.2-1.5 4.1 2.9m316.3.1c-.8 1.8-1.9 4.5-2.2 6.1s-1.2 3-1.8 3.4c-1.7 1-.1-5.9 2.3-10 2.7-4.5 3.9-4.1 1.7.5m39.6-2.1c5.8 3.1 3.1 11-3.2 9.4-3.1-.8-2.8-.4-3.6-3.7-1.1-4.4 2.9-7.7 6.8-5.7m-48.5 2.1c1.8 1.8 1.5 4.2-.7 6.2-3.9 3.5-8.5-.1-6.3-4.8 1.3-2.8 4.9-3.5 7-1.4M691 438c1.5 2.9 1.8 4.5 1.1 6.2a154 154 0 0 0-5.7 21.8c-1.9 9.2-2.5 10-6.6 10-3.5 0-3.5-.3-.4-15.2 2.4-11.5 7.4-26.8 8.8-26.8.4 0 1.7 1.8 2.8 4m-486.7 9.2c6 7-4.8 17.3-11 10.5-3.7-3.9-3.7-6.2-.2-10.2 3.6-4.1 7.8-4.2 11.2-.3m250.4-2c4.8 6.1-2.1 13.5-7.1 7.7-1.7-2.1-1.7-2.4-.2-5.5 1.7-3.6 5.4-4.7 7.3-2.2m-170.3 1.4c2.8 2.7.4 9.4-3.4 9.4-1.5 0-5-3.8-5-5.5 0-4.1 5.7-6.7 8.4-3.9m327.1.6q2.5 1.1 2.5 3.7c0 5-3 6.7-7.2 4.3-6.4-3.7-2-11.1 4.7-8m174.8 2.6c3.7 3.2 1.3 9.2-3.8 9.2-6.3 0-8.1-8.7-2.3-10.9 2.4-.9 3.3-.7 6.1 1.7m74.2 3.7c4.6 4.5 3 11.5-3 13.5-9.3 3.1-13.8-6.2-6.3-13.2 3.7-3.4 6.1-3.5 9.3-.3m-418.1 1c5.2 4.8 2.1 13.4-5.6 15-3.9.9-7.9-1.9-9.1-6.4-2.1-8.3 8.3-14.5 14.7-8.6m-139.9 1c5.3 5.3 1.4 14.2-5.7 13q-10.7-2-6.2-11.6c2.4-4.9 7.8-5.6 11.9-1.4m465.8 1.8c6.7 5.3 2.3 17.9-5.7 16.3-9.1-1.8-10.4-12.5-2.1-16.6 4.9-2.4 4.4-2.5 7.8.3m-134.2.4c1.8.5 3.9 4.4 3.9 7.3 0 10.7-14.6 11-16.6.3-.9-4.7 5.2-10.2 9.6-8.6zm-418.7 2.4c6.8 5.4-.5 16.5-8.2 12.5-5-2.6-5.6-7.5-1.5-11.8 3.2-3.3 6.1-3.5 9.7-.7m205.8 1.6c4.7 4.3-1.4 11.7-6.5 7.9-2.6-2-1.9-6.7 1.3-8.3s3-1.6 5.2.4m-31.8 1c1.3 4.3 3.7 24.5 3.4 28.4-.3 4.1-.5 4.4-3.5 4.7-3.7.4-3.8.1-4.7-10.8-.3-3.6-1.1-9.7-1.8-13.6s-.8-7.8-.5-8.7c.9-2.3 6.4-2.3 7.1 0M193 482.5c12 14.7 30.4 31.7 41.2 38.3 1.6.9 2.8 2.1 2.8 2.5 0 1-5.2 5.6-6.4 5.7-4.3.1-38.3-31.2-47.7-44-2.6-3.6-5.5-7.3-6.3-8.3-.9-.9-1.6-2.1-1.6-2.6q-.2-.9-1.5-2.1c-2.1-1.8-1.9-2.8 1.6-6.2l3-3.1 5 6.9c2.7 3.8 7.1 9.6 9.9 12.9m127-18.6q0 1 .5 2.3c.7 1.9-.7 3.6-3.7 4.3-3.5.9-6-3.2-3.7-5.9 1.5-1.6 6.9-2.2 6.9-.7m49.3.5c.8 2-2 4.3-3.5 2.8-1.4-1.4-.3-4.2 1.6-4.2q1.3.1 1.9 1.4m6.4.2c.8 2.1-1.3 4.2-2.8 2.7-1.3-1.3-.5-4.3 1.1-4.3q1 .1 1.7 1.6M523.2 487l25.8 25.4c2.4 2.3 16.9 12.5 20.1 14.1 3.3 1.8 3.6 2.7 1.3 4.9-3.6 3.7-5.3 3.9-8.9 1.2a17 17 0 0 0-4.2-2.6c-3.3 0-57.8-51.3-62.4-58.7-2.2-3.5-.6-8.3 2.7-8.3.7 0 12.3 10.8 25.6 24m63.4-19.7a193.7 193.7 0 0 0 34.4 22.8c8 4.4 27.8 11.1 42.3 14.3 2.3.6 2.7 1.1 2.7 4.3v3.6l-5.4-.7c-5.9-.7-16.9-3.2-20.1-4.6l-9-3.5c-15.1-5.6-40.7-20.2-46.5-26.5-1.4-1.5-4-3.7-5.7-4.9-3.8-2.6-4-3.3-1.5-6.6 2.4-3.3 3.3-3.1 8.8 1.8m160-1.2c4.7 5.2-2.2 11.8-7.8 7.5-2.2-1.6-2.3-4.5-.2-7.4 1.9-2.8 5.5-2.8 8-.1m102.8 18.5c11.3 11.3 21.7 22 23.4 23.7 1.6 1.8 7.2 7.4 12.6 12.5 11 10.6 10.3 9.4 7.1 12.7-3.9 3.8-3.7 4-26.6-19.1l-32.2-32.5-10.8-10.9 2.7-3.5c1.4-1.9 2.8-3.5 3.1-3.5.2 0 9.5 9.3 20.7 20.6m-192.2-17.1c1.4 3.1-.3 7.4-2.9 7.6-4.6.3-6.3-.9-6.3-4.5 0-5.2 7.1-7.6 9.2-3.1m57.6.2c3 8 4.4 29.9 1.9 30.9-4.1 1.5-7.2.9-6.9-1.4.4-3-1.7-20.8-3-25.4-1.9-6.6 5.6-10.3 8-4.1m-453.4.2c13.6 12.4 40.9 25.7 65.6 31.9l10.5 2.7.3 3.8c.4 4.3.7 4.3-10.8 1.7a134 134 0 0 1-41-14.3c-11.4-5.9-18-9.9-18-11q-.1-.6-1.3-.7c-1.9 0-13.1-8.9-13.5-10.6-.9-3.8 5.1-6.4 8.2-3.5m647.1 1.3c7.5 7.7 20.9 17 33.5 23.3 7.9 3.9 8.4 4.5 6.3 6.5l-44.8 45.3c-40 40.7-45.5 45.8-45.5 42.4 0-1.9-5.7-12.4-11.3-20.7-6.3-9.4-9.3-13.3-15.6-20.3-2.4-2.6-2.4-2.7-.6-4.7 2.7-3 4.6-2.4 8.7 2.8l6 7.4c1.3 1.5 5.2 7.2 8.7 12.7a52 52 0 0 0 7.3 10.1c.4 0 14.6-14 31.5-31.2 17-17.2 33.6-33.9 37.1-37.2q8.9-8.6 4.9-8.6c-3.8 0-34.7-22.9-34.7-25.7 0-5.2 4.5-6.3 8.5-2.1m-213 1.9q.1 2.5-2.2 2.7-3.7.6-1.2-3.9c1.4-2.6 3.4-1.9 3.4 1.2m5.3-.3q.3 2.1-1.1 2.2c-1.7 0-3-2.7-2.1-4.1.9-1.6 2.9-.4 3.2 1.9M358.5 475q.6 1 2.6 0a26 26 0 0 1 9.2-.8l7.2.3v7l-14.8.2c-8.2.1-16.9.7-19.5 1.2a189 189 0 0 0-23.1 5.5c-3.6 1.3-5.1 1.4-8.2.4q-10.2-2.8-.2-5.3l10.8-3.1c2.8-.9 9.5-2.2 15-3 8.2-1.2 15.3-2.4 19.7-3.3q.7 0 1.3.9m58.5 5.7c5.2 1.4 10.9 3.1 12.5 3.8a189.9 189.9 0 0 1 50.1 29.3c6.1 4.9 6.4 5.5 2.9 7.8-2.5 1.7-4.5 1-9-2.8-10.4-9.1-40-25.8-45.5-25.8a122.8 122.8 0 0 0-24.3-7.6c-2.9-.5-4.1-1.3-4.8-3.2-2.3-6.1.3-6.3 18.1-1.5m76-.5q5.5 4 .5 7.4c-1.4.9-2.5 2.3-2.5 3q0 2.7 3.6-.1c6.9-5.2 15.6 5 8.8 10.4-3.3 2.6-5.6 2.7-7.9.1-1.8-2-4.5-2.7-4.5-1.1q.1.9 1.5 2.1c2 1.6 1.9 4.9-.2 7.2-2.3 2.6-3.9 2.3-8-1.7l-3.6-3.5 2.6-2.8c4.3-4.5 3.6-6.8-1-3.2-3.6 2.8-5.7 2.5-11.1-1.6-5.7-4.3-5.7-4.4-.8-8.3s7-3.9 10.9 0c3.7 3.7 4.8 2.3 1.6-2q-4.7-6.2 6.4-8c.4 0 2.1.9 3.7 2.1m-328.5 3.3c0 3.8-.2 4-3.2 4.3-4.3.4-6.2-2.8-3.8-6.4 2.8-4.3 7-3 7 2.1m412.6-1.2c3.4 2.9 4.1 6 2.3 10.2-2 4.9-1 6.3 2.2 3s6.2-2.9 11.9 1.1l5.5 3.8-2.7 2.9c-6 6.4-11.1 6.5-16.3.2-3.2-3.9-4-.3-1 4.7 5.1 8.4-3.5 14.5-10.8 7.7-3.5-3.3-3.4-4.6.7-8.3s2.4-6-1.9-2.6q-5.8 4.8-10.9-1.9c-3.9-4.9-3.9-4.9 1.1-8.9 5.3-4.3 5.2-4.3 10.8 2.4 2.4 2.9 2.4-.4.1-5.6-2.2-5-1.6-7.1 2.7-9.4 3.4-1.9 3.2-1.9 6.3.7m125.5.2c1.2 3-1.5 4.3-10.4 4.9-11.4.9-19.4 2.2-32.1 5.3-10.4 2.5-15.9 2.1-14.8-1.1 1.7-5 55.6-13.6 57.3-9.1m31.9 1a181 181 0 0 1 74.1 31.5q.6.1 2 1.5c.8.8 2.4 2.1 3.6 2.9 3.9 2.7-.2 7-4.5 4.7-1.2-.6-6.2-4-11.2-7.6a153 153 0 0 0-50-22.8l-9-2.6a56 56 0 0 0-10.7-2.3c-2.7-.1-3.9-.7-4.4-2a3.3 3.3 0 0 1 4-4.3zm164.6-.5c4 2.2.4 7.9-3.8 6.3-2.6-1-1.4-6.5 1.5-7.2q.5 0 2.3.9m-656.9 5.7c4 3.6.5 12.3-5.1 12.3-2.8 0-7.1-3.6-7.1-5.9 0-5 8.7-9.6 12.2-6.4m-69 1c3.2 2.9 1.7 7.3-2.6 7.3-2.3 0-5.6-2.7-5.6-4.6 0-3.8 5.1-5.5 8.2-2.7m180.8-.5c-.4 31.4 1.4 49.8 5.4 57.6 2.1 4.1 2 5.9-.3 7.2q-8 4.4-11.7-16.2c-2.4-12.7-2.7-47.4-.4-48.8 2.2-1.4 7-1.2 7 .2m24 3.3c0 4.9-6.2 6.1-6.8 1.3q-.3-2.6 1.9-4.2c2.7-1.9 4.9-.6 4.9 2.9m-10.2.1c.4 3.9-1.8 6-4.7 4.4-3.9-2-1.9-8.4 2.4-7.8q2 .2 2.3 3.4m457.2-.4c4.5 4.9.6 12.8-6.4 12.8-4.5 0-9.1-5-8.1-8.9 1.4-6 10.3-8.4 14.5-3.9m78.4 3.3c5.2 4.8 2.5 11.5-4.7 11.5-7.4 0-10.3-6.5-5.2-11.5q4.7-4.8 9.9 0m-203.9-.1c1.6 1.2 1.7 1.6.6 3-2.1 2.5-5.1 2-5.1-.7q0-5.8 4.5-2.3m-275.4.7 4.8 1.5c6.2 2-20.7 10.8-40.4 13.3-21.9 2.7-28.5 2.3-28.5-2 0-3.8 2.7-4.9 12.8-4.9 11.6-.1 29.6-3 39.2-6.5 7.8-2.8 7.8-2.8 12.1-1.4m257.4 14a97 97 0 0 0 1.6 22.5c.2 6.8 1.7 11.2 4.9 14.2 1.7 1.6 2 2.4 1.1 4-2.1 3.9-10.1 3.5-10.1-.4 0-.8-1-3.1-2.3-5.2-6.8-10.9-6.7-46.6.1-49.1 4.6-1.6 4.7-1.2 4.7 14m10.3-12.4c-.3 3-2.5 4.2-3.4 1.9-.9-2.2.2-4.6 2.1-4.6q1.7 0 1.3 2.7m-435.8.5c2.7 2.9 2.5 5.4-.6 8.3-7 6.5-15.1-.5-9.3-7.9 2.6-3.3 7-3.5 9.9-.4m-73.8.5c3.4 3 1.8 9.3-2.4 9.3s-5.6-6.8-1.9-9.7c2.1-1.6 2.1-1.6 4.3.4m703.2-.1q3.3 3.1-.6 5.8c-4.2 3-7.7-1.6-4.1-5.6 2-2.2 2.7-2.2 4.7-.2m32.4 2.1c.5 3.4-3.4 6-5.8 3.8-1.1-1-2-2.6-2-3.6 0-4.1 7.2-4.3 7.8-.2m-634.4-1.2c4.6 1.9 4.6 2-6.1 9a160 160 0 0 0-40.5 36.2c-5.3 6.7-15.8 22-15.8 23.2-.1 1.1-3.8 5.1-4.7 5.1-.5 0-4.1-3.3-8-7.3l-16.2-16.1c-9.6-9.4-10.2-10.9-5-13.7 1.9-1 3.4.2 15.2 12 7.2 7.2 13.2 13.1 13.4 13.1a191.4 191.4 0 0 1 49.2-53.4c4.1-3.1 13-8.9 14.7-9.5.1-.1 1.8.6 3.8 1.4m468.4 1q9.2 2.6-.1 5.4a189 189 0 0 1-54.7 9.2l-9.5.2-.3-2.9c-.4-4.9.3-5.1 16.3-5.7 8.3-.3 18.2-1.3 22-2.1a307 307 0 0 0 21.1-5.5zm-231 6 2.6 2.5-3.9 4.1a86 86 0 0 1-9 7.7c-2.7 2-5.4 4.2-6 4.8-5.3 6-37.8 23.9-53.5 29.5-5.8 2-10.5 4.1-10.5 4.5l1.4 5.1c2.3 7.1-1.4 12.3-8.8 12.3-3.7 0-7.9-4.5-8.3-9-.4-4.1-.4-4.2-13.3-1.2-17.5 4-33.2 4.8-36.3 1.7-1.7-1.7 6.7-7.5 11-7.5 19.1-.2 54.4-10 79-22 14.7-7.2 23.1-12.7 46.3-30.4 7-5.4 6-5.2 9.3-2.1m97.7-1.3c3.7 1.7 3.6 1.7-10.7 11.4a166 166 0 0 0-25.1 20.6c-11.6 11.6-16.9 15.8-23.7 18.9a48 48 0 0 1-21.5 6.3c-2.8.1-3 .4-3.2 3.9-.3 9.3-11 12.3-18.7 5.2-3.1-2.9-3.4-6.7-.6-9.5 2.6-2.6 2.6-2.6-1.5-4.8a63 63 0 0 1-16.5-15.9c0-1.6 2.4-4.3 3.8-4.3a18 18 0 0 1 4.8 3.9c17.7 17.5 43.5 17 63.2-1.1 3.8-3.5 7.9-7.2 9.3-8.2l9-7.5c9.9-8.4 12-10 16.9-12.9 2.5-1.4 5.9-3.6 7.5-4.9 3.5-2.7 3.6-2.7 7-1.1m233.2 3c2.9 2.7 2.9 3.4-.4 6.7-17.4 17.2-52.5 37.5-81.7 47.1l-6.8 2.2.6 3.9c1.1 6.8-4.5 14.9-10.3 14.9-4.4 0-10.1-6.6-10.1-11.7q.2-2.8-1.7-1.8c-1 .4-6.2 1.3-11.6 2.1-5.3.7-10.1 1.5-10.6 1.8a35 35 0 0 1-14.3-2.8c-1.9-2.7 2.2-5.7 8.5-6.2 47-4 103.8-28 131.7-55.8 3.1-3.1 3.8-3.1 6.7-.4m-660.4 6a617 617 0 0 1-30.9 30.1c-1.7 1-1.9 3.7-.3 3.7.7 0 9.4-8.1 19.3-18 15.9-15.8 21.6-20.5 20.4-17-.3 1-19.8 20.9-32.1 32.7l-8 7.7-2.3-3c-3.2-3.9-3-4.7 1.4-7.7 2-1.5 10.6-9.6 19.1-18.2 14.1-14.2 25.2-22.6 13.4-10.3m711.3-.7c1.6 2.4 1.6 2.7-.1 4.5-3.2 3.5-7.5 1.9-7.5-2.7 0-4.3 5.1-5.6 7.6-1.8m-446 1c2.9 2.2 3.3 3 2.8 5.8-1.4 7.7-10.2 9.3-14.7 2.7-5.3-7.7 4.1-14.4 11.9-8.5M289.1 518c3.5 3.4 3.3 6.1-.7 9.7-7.1 6.5-16.8-3.4-10.2-10.4 3.1-3.3 7.2-3 10.9.7m103.2.4c2.9 7.6-4.5 27.1-14.1 36.9a59 59 0 0 1-19 13c-5.3 2.8-12.3 3-27.7.9C315.9 567 316 567 316 571c0 9.3-14 11.9-17.9 3.3-1.4-3-1.4-8-.1-8.8 2.5-1.5.7-3.5-4.7-5a213 213 0 0 1-42.7-18.8c-1.6-1.2-1.6-1.4.4-4 2.7-3.4 4.7-3.4 11.8.3 26.9 13.9 64 23.9 88.9 24 4.7 0 14.9-4.4 17.1-7.3.7-.9 1.8-1.7 2.3-1.7 1.1 0 5.7-5 7.6-8.4a61 61 0 0 0 4.9-18.4c.8-7.6 6.8-12.9 8.7-7.8m137.1.2c2.3 2.3 2 4.3-.8 5-4.2 1-6.4-2.4-3.4-5.4 1.6-1.6 2.3-1.5 4.2.4m247.8 3.1c5.7 5.5 1.5 13.3-7.2 13.3-4 0-8.2-5.1-7.4-8.8 1.7-7.3 9.3-9.6 14.6-4.5m-154.3.9c2.8 3.6 2.6 6.6-.5 10.3-4.9 5.9-13.4 3-13.4-4.5 0-7.3 9.6-11.2 13.9-5.8m-312.4.9c6.3 6.2-1.7 16.7-9.4 12.4-4.1-2.3-4.4-11.2-.4-13.3s7.1-1.9 9.8.9m407.5-.8c0 2.1-3.6 16.9-4.8 19.8-8.7 21.1-20.4 29.6-41.6 30-6.6.2-12.7-.1-13.5-.6s-5.6-1.6-10.6-2.5l-16-2.9c-4.2-.8-7.1-.9-7.3-.4-1 2.7-5.6 6.9-7.6 6.9-4.2 0-9.4-7.6-7.6-11.1 1.5-2.7 1.9-2.4-12.3-8.9-12.9-5.8-14.4-7.3-10.8-10.9 2.7-2.7 3.9-2.6 10.8.8 26.2 13.1 64.3 22.6 80 20.1 15.2-2.5 24.2-12.3 30.4-33.3 2.8-9.2 2.4-8.7 7-8.7 3.1 0 3.9.4 3.9 1.7m143.5 1.8c0 2.4-.5 3.1-2.4 3.3-3.6.5-5.7-2.5-3.4-5 2.6-2.9 5.8-2 5.8 1.7m-427 .1c6.7 7.2-3.6 17.4-10.5 10.5-3.4-3.3-3.6-5-1.5-9.1 2.5-4.8 8.2-5.5 12-1.4M208 525c2.5 2.5 2.5 4.2-.1 6.6-2.8 2.5-7.6.1-7.1-3.7.5-4.5 4.1-6 7.2-2.9m165.7 1.2q4.3 4 .2 9.2c-4.4 5.6-11.9 2.4-11.9-5.1 0-5.6 7.4-8.2 11.7-4.1m270.6 3c4 5.4-1.2 12.8-9 12.8-3.5 0-6.3-3.6-6.3-8.2 0-7.8 10.6-10.9 15.3-4.6M698 528c3.4 4.7.7 9.9-5.1 10-3.3 0-4.5-1.4-5.4-6.1-1.3-6.9 6.3-9.8 10.5-3.9m-364.6 2.2q5.8 5.3.9 10c-5.9 5.6-13.3 3.5-13.3-3.8 0-7.1 7.3-10.7 12.4-6.2m76.1-1.6a8 8 0 0 1 2.9 3.3c4.2 8.4-7.7 16.3-12.9 8.5-4.3-6.6 2.4-14.7 10-11.8m123.9 1.5c5.3 4.1 2.1 11.9-4.9 11.9-6.5 0-9.5-6.2-5.4-11.4 2.5-3.2 6.6-3.4 10.3-.5m214.8-.4c7.2 8.2-4.1 19.5-11.7 11.8-5.3-5.2-1.7-13.5 5.9-13.5q4.3 0 5.8 1.7m-84.8 2.6c4.4 6 1.3 13.7-5.6 13.7-4.4 0-6.6-1.6-7.9-6-2.6-8.7 8.1-14.9 13.5-7.7m-148.6-1.4c2 1.2 1 4.5-1.4 4.9-2.9.4-5.1-2.3-3.4-4.3q2-2.6 4.8-.6m336.2 3c0 2.8-2.8 4.7-4.8 3.4-2.4-1.5-2.7-4.4-.7-5.9 2.2-1.7 5.5-.1 5.5 2.5m16.3-1.1c2.4 2.2 2.1 5.9-.8 8.8-5.6 5.6-15.2.3-11.5-6.3 2.9-5.1 8.1-6.2 12.3-2.5M219 535.2c2.7 5-2.8 9.1-7.1 5.2q-3.5-3-.2-6.6c2.3-2.5 5.4-1.9 7.3 1.4m330.6.2c2.1 1.6 1.3 4-1.9 6-3.7 2.3-7.6-3.5-4.1-6.1 2.3-1.7 3.6-1.6 6 .1m327.8 3.2c2.1.8 2 5.1-.1 6.3a3.6 3.6 0 0 1-5.3-3.3q0-5.2 5.4-3m-722.6 13c3.3 5 1.4 6.8-2.2 2.1a14 14 0 0 1-2.6-4.5c0-2.4 2.6-1.1 4.8 2.4m711.6-1.4c3 4.3-2.6 8.8-6.5 5.2-2.3-2.1-2.4-3.2-.2-5.6s4.9-2.3 6.7.4"/><path d="M106.7 51.8c-4.2 4.6 1.4 11.9 5.7 7.6 2.3-2.2 2-5.3-.6-7.5-2.9-2.3-3.1-2.3-5.1-.1M79.2 69.2c-5 2.4-2.8 9.7 3 9.8 4.3 0 6.3-6.3 3-9.3-2.1-1.9-2.8-2-6-.5M964.2 55.1c-4.4 1.6-3.2 8.8 1.7 10.4 2.8.9 6.1-1.2 6.1-3.8q-.3-9.2-7.8-6.6M991.6 82.6c-2.3 2.3-1.9 5.1.9 7 3.6 2.4 7.5.6 7.5-3.4 0-4.9-5-7.1-8.4-3.6M928.3 63.6c-2.5 1.8-3 5.3-1.1 7.2 1.8 1.8 3.4 1.5 6.4-1.3 3.5-3.2 3.5-3.3 8.2 1.9 6 6.6 6.7 13 2.6 25.9q-4 12.2 9.1 7.2a22 22 0 0 1 22 3.7c4.3 3.7 4.7 7.4 1 8.8-4.9 1.9-2.4 8 3.3 8 2.6 0 7.2-5.5 7.2-8.6 0-13.4-16.3-19.8-35.9-14-6.8 2-6.9 1.9-4.2-5.1 4.9-12.6 3.6-25.7-3.2-32.1-3.1-2.9-12.3-3.9-15.4-1.6"/><path d="M939.4 107.5c-.3.8-.3 1.9 0 2.4 1 1.6 3.6.1 3.6-2 0-2.2-2.8-2.6-3.6-.4M934 112.7c0 .5-2.1 3-4.7 5.7q-4.7 5-3.3 5.4c1.3.5 11-9.3 11-11.1q-.2-.7-1.5-.7t-1.5.7M1031.1 259.8c-.6 1.2-1.1 2.9-1.1 3.9a332.3 332.3 0 0 0-12 44.8 98 98 0 0 0 3 45c4.9 15 11.7 33.5 15 41a356 356 0 0 1 23.5 71.1c1.3 5.8.6 31.5-1 40.9-2.4 14.2-6.2 21.2-19.9 36.9-2.7 3.1-4.6 5.9-4.3 6.2 1.6 1.7 22.7-22.3 22.7-25.7 0-.5 1.4-3.1 3-5.9s3-6.1 3-7.3.5-2.8 1.1-3.4a79 79 0 0 0 5.3-23.8 32 32 0 0 1 1.1-7.8c1.5-3.5-1.5-31.2-4.4-40.2l-3.1-11a39 39 0 0 0-3.6-9.6 5 5 0 0 1-1.4-3.2c0-1.6-.8-3.6-3.2-7.7l-1.4-3-1.6-3.5a728 728 0 0 1-18.8-39 33 33 0 0 1-3-7.8c0-1-.7-3.3-1.5-5.3-4.2-10.1-6.2-40.7-3.5-53.9q2.6-12.7 5.9-24.9c2.2-7.8 2.2-10.6.2-6.8M53.5 271.7c5.2 13 7.9 29.2 7.3 43.7-.6 12.2 1.6 11.3 2.8-1.1a78 78 0 0 0-7.2-41c-2-3.4-4.1-4.6-2.9-1.6M79.5 323c-10 2.1-20.9 15.3-23.1 28-.5 3.1-.2 2.8 2.6-2.5 5.7-11 11.4-14.6 26.9-16.9q4.3-.6 3.9-5.6c-.3-2.8-4.8-4.1-10.3-3M80.4 349c-10.4 2.4-26.4 19-32 32.9-2.5 6.4-1.1 7 2.3.9A50 50 0 0 1 82 361c8.8-1.6 12.3-8.3 6-11.5-3.2-1.6-3.1-1.6-7.6-.5M55 411.5c-1.9.7-4.2 1.4-5.2 1.4-.9.1-2.7 1-4 2l-6.2 5.2C30 428.2 15 454.2 15 462.7c0 3.1 1.7.9 3.8-5.2 8.3-22.9 26.8-35.5 48.7-32.9 15.7 1.7 21 .5 23.5-5.6 1.5-3.5-.1-7-3.2-7-1.7 0-2 .4-1.5 2.9 1.3 6.6-6.5 8.5-9.8 2.3-3.5-6.5-12.9-9-21.5-5.7"/><path d="M45.9 443.7c-12.8 6.5-16.8 13.5-27 46.7-1.2 3.8-1.2 13.6 0 13.6.5 0 1.2-2.8 1.6-6.3 2.7-22.8 18.4-43.2 34.3-44.5l6.4-.5-.7 4.1c-1.9 11.6 13.3 15.4 19.1 4.7 8.7-16.2-13.6-28-33.7-17.8M18.5 506.9c-7.6.8-7.8 2.5-.4 2.9 4.4.2 6.1-.1 8-1.7 2.7-2.3 3.2-2.2-7.6-1.2M19.3 514.2q-4.8 1.7-2.5 3.1c1.5 1 11.2-1.6 11.2-2.9 0-1.6-3.9-1.7-8.7-.2M22 524.3c0 6 18.8 25.3 33.5 34.4A92 92 0 0 0 89.6 570c3.9 0 2.3-2.3-2.2-3.2a91 91 0 0 1-34.9-13c-8-5.5-23.6-21.5-25.9-26.7-1.8-3.9-4.6-5.6-4.6-2.8M92.2 555.2A4 4 0 0 0 95 562c1.6 0 5-2.9 5-4.3 0-2.8-5.7-4.6-7.8-2.5M139.5 559.6A105 105 0 0 1 108 568c-5.3 0-8.5 1.5-5.6 2.6 7.5 2.9 45.6-8.1 45.6-13.2 0-1.9-.4-1.8-8.5 2.2"/></svg>