<svg xmlns="http://www.w3.org/2000/svg" width="1421.3" height="598.7" viewBox="0 0 1066 449" fill="currentColor"><path d="M990.3 2.1a54 54 0 0 1-14 3.8c-24.9 4.3-33.8 8.9-36.4 18.8-1.1 4-1.2 4.1-4.4 3.6-11.6-1.9-17.3 13.8-7.8 21.6 5.3 4.4 2 12.3-10.8 25.8-2.7 2.9-5.7 4.5-4.7 2.5 4.6-8.8 5.1-10.7 4-14.7-1-3.5-.9-4.2.8-5.5 4.9-3.8 3.1-10.6-3-11.9q-3.6-.6-3.6-2.7c-.5-9.2-16.2-20.2-22.8-15.9-4.3 2.9-4.6 8.7-.5 10 3.3 1.1 6.2-2.3 5.6-6.2q-1-5.7 2.8-1.3c2.9 3.3 1.5 10.9-4 21.5-5.2 10.1-6.1 20.8-2.3 28.2 1.8 3.6 1.7 3.8-7.2 14.1-4.6 5.3-6 6.2-6 3.9 0-2.1-4.4-5.7-6.8-5.7-2.7 0-6.5 3.7-5.8 5.6q1 3-5.8-.6a101 101 0 0 0-10.5-4.1c-8.5-2.8-8.1-2.5-6.9-5.7 2.6-6.9-3-14.2-11-14.2-6.4 0-9.8 2.6-11.3 8.5-1 4-1.3 4.4-3.8 3.9-6.4-1.1-28.1-1-34.6.3-8.9 1.7-8.5 1.7-8.5-1.2 0-7.1-5.7-12-13.1-11.3-8.4.8-12.2 6.9-9.5 14.9q2.4 6.8-3.5 6.9a85 85 0 0 0-18.1 8.3l-5.9 3.6c-1.9 1.2-2.1 1.1-1.6-.2 2.3-6.1-14-9.1-17.6-3.1-.6 1-1.3.9-3.7-.2-4-2-4.2-2.6-2.4-6.3 5.7-11.4-12.2-22.9-19.3-12.4-4.1 6.1-3.1 5.9-12.8 3.4a131 131 0 0 0-38.1-5.1h-14.2l-.6-3.4c-2.9-15.1-23.3-13.1-22.9 2.3l.1 5.8-8.6 2.7c-4.8 1.5-13.7 5.3-19.9 8.5-10 5.2-11.2 5.6-11.6 3.9-1.4-5-12.1-5.5-15.7-.7-1.5 1.9-1.7 1.9-12-3.4-5.8-3-14-6.7-18.3-8.2-6.2-2.2-7.7-3.1-7.2-4.4 3-7.4 0-14.5-7.1-17-7-2.4-14.9 3.2-14.6 10.4l.1 3.1-17.2.1c-9.5 0-19.5.5-22.4 1l-5.2 1-.7-3.1c-1.7-7.9-8.9-12.1-15.8-9.2-5.9 2.5-7.8 7-6.3 14.7l.8 3.7-7.8 3.2c-4.3 1.8-9.9 4.3-12.5 5.7q-6.9 3.7-6.8-.2c0-1.5-4.8-4.5-7.1-4.5-.7 0-2.7 1.1-4.5 2.5-4.1 3.1-3.3 3.2-11.2-1.4-3.7-2.1-10.4-5.3-14.8-7.1l-8.2-3.3v-4.8q.1-8.7-6.8-11.5c-6.5-2.7-15.4 2-15.4 8.2q.2 4-5.5 2.2c-9.9-2.9-35.7-1.8-53.4 2.3a71 71 0 0 1-8.6 1.7l-1.9-3.6c-6.1-11.9-24.3-7.1-22.1 5.9.4 2.1 1.1 4.1 1.6 4.5q3.2 2-4.7 5.8a76 76 0 0 0-10.5 6.1l-4.8 3.4-3-2.9c-4.3-4.4-13.1-2.2-13.1 3.2 0 .7-3.1-1.9-6.9-5.6-5.6-5.5-6.8-7.3-6.1-8.6 2.7-5 2.8-10.3.8-22.1-2.4-13.9-1.8-17.1 3.7-18.9 3.6-1.2 6.8-.3 11.6 3.1q2.7 1.9 2.4.7c-3.9-10-29-5.1-35.6 6.9-.7 1.3-2.2 2.3-3.4 2.3-5.8 0-7.3 7.8-1.8 9.3l3.2 1-3.5 3.2c-1.9 1.8-3.4 4.2-3.4 5.3q.1 6.3-7.3-1.9c-9.4-10.2-10.6-13.8-5.3-15.7 9.7-3.5 4.7-17.6-5.9-16.8-2.5.2-4.5 0-4.5-.5 0-2.9-10.7-8.7-15-8.1-6.2.8-25.7-4.5-29.9-8.2q-2.2-1.9-1.9-1.1l2.3 5q1.8 4 2.1 12.5c.6 20.4 2.9 27.4 10.4 32.4q4.1 2.6 4 5c0 9.3 13.9 11.7 17.8 3.1l1.2-2.7 6.1 3.5c11.4 6.4 17.2 11.7 12.7 11.7-1.3 0-3.4.6-4.8 1.3-2.3 1.2-2.6 1.1-3.5-1.7-2.2-6.7-10.5-5.1-10.5 2 0 2.2-.4 2.4-5.5 2.4-15.7 0-26.4 14.1-20.3 26.8q2.3 4.2 3 .1c1.3-8.9 17.6-11.4 34.1-5.3a26 26 0 0 0 18.7-.7l3.8-2.2 6.1 5.4c6.5 5.7 7.2 6.9 4.3 6.9-5.8 0-7 8.6-1.9 13.4l3.3 3.1-1.9 3.3-1.9 3.2-3.1-2.2c-8.2-5.8-20.6 1.7-18.2 11 1 4.1 6.8 9.2 10.4 9.2s3.9 1 1.1 9.9c-1 3.5-2.2 9.5-2.6 13.3l-.7 6.9-4.2-.7c-3.2-.4-5.2-.1-8.4 1.5-11.5 5.9-5.6 22.5 7.3 20.8l4.3-.6.7 7.2c1.1 11 1.7 14.7 3.2 20.6 1.5 5.8 1.2 7.1-1.4 7.1-2.8 0-7 4.3-8 8-2.5 9.7 6.2 16.8 16.1 13.1 2.3-.9 2.7-.5 6.2 6.2 2.1 4 5 9.1 6.6 11.5 3.4 5.1 3.4 5.2 1.1 5.2-3.2 0-6.2 2.9-6.2 6 0 2.9 3.9 7 6.6 7q4 0-3.7 4.9c-6.1 3.8-6.5 3.8-8.1.4-3.8-7.7-12.1-9.3-17.9-3.4-4.3 4.3-4.3 4.4-2.7 13.6.7 4.4-11.2 7.1-13.1 2.9-2.3-5.1-7-10.1-11.8-12.5l-5.2-2.6q-.2-.4.8-1.7c3-3.6-1-10.3-5.4-9.2l-2.5.6-.1-8.7c0-4.9-.2-10.2-.4-11.8s-.6-9.3-.9-17.1l-.7-14 6 .4c5.6.4 6.2.2 9-2.6a12 12 0 0 0-8.5-20.7H97l.6-12c2.1-39.4-9.1-63.3-39-83.4-11.7-7.9-16.1-16.2-15.3-29.1.8-11.9-.7-10-2.5 3.1a132 132 0 0 0 1.1 42.2c2 8.3 8.8 23.8 11.1 25.2q1.2.7-.9 2.9a14.3 14.3 0 0 0 3.3 21.7c3.2 1.8 3.4 2.3 3.8 8.4.6 10.3 9.9 16.7 18 12.4 3.1-1.7 2.6-6.6 5.3 51.6 1.5 30.3 1.7 41.4.8 36.7q-.7-4-5.7-2.8c-4.4 1.1-4.6 7.8-.4 9 2.1.5 2 .7-1.2 2.9-3.5 2.4-3.5 2.4-5.7.5-1.2-1.1-2.6-1.7-3.1-1.4q-1 .5-1.4-.3c-1.2-3.5-11.1 2.2-11.1 6.3.1 2.6-.1 2.6-7.1 2.6-25 .1-47.6 15.2-47.6 31.9 0 5.3 5.1 7.6 9.1 4q3-2.5.4-1.3c-5.8 2.1-8.7-.3-6.6-5.5 2.2-5.2 6.5-7.1 15.2-6.7a54 54 0 0 0 25.5-3.6l4.3-2.3 6.5 3.2q6.5 3.2 15 4.5c8.9 1.2 9.7 1.7 7.1 3.8-5.1 4.3 2.5 13.2 8.1 9.5 2.3-1.5 2.4-1.5 2.4 1.1a56 56 0 0 0 9 26.3c5.2 8.5 6 11.1 3.6 11.1-7.4 0-7 13 .7 24.4q5.2 7.8.1 9.2c-1.4.4-3 .2-3.7-.5q-2.7-2.4-2 .8c1.6 6 10.4 3.8 15.8-3.9 7.2-10.4 8.2-24 2.9-39.7-1.4-4-1.3-4.3 1.1-6.7 3-3 3.4-8.7.9-14-1.6-3.3-1.6-3.5 1-6.2 1.4-1.6 2.6-3.4 2.6-4.1q0-1.3 4.3-1.3c4.6 0 7.3-1.2 6.3-2.8q-.5-1 .4-1.7c.5-.3 1-1.5 1-2.6 0-1.9.6-2 9.7-1.8 13.8.2 16.3.7 16.3 3.2 0 13.3 20.6 14.3 22.6 1.1.8-5.2.7-5.2 11.7-9.7 7.4-3.1 8.9-3.4 9.4-2.1 2.2 5.9 14.4 5.7 15.9-.2.3-1.3.7-2.4.8-2.4l5.2 2.4c2.7 1.3 6.6 2.9 8.6 3.5 4.6 1.5 4.9 2 3.9 5.7-.4 1.6-.3 4.6.2 6.6 2.9 11.6 19.6 11.6 22.2-.1.3-1.7 1-3.1 1.3-3.1l7.5 1a186 186 0 0 0 34.5.6q2.4-1 2.2 1c0 5.2 8 11.9 13.1 10.8 6.8-1.5 9-4.1 9.9-11.7l.5-4.9 7-2.2c8.1-2.6 14.6-5.4 22.8-9.7l5.7-3 2.6 3c4.4 5.2 13.2 3.2 14.8-3.3l.6-2.5 8.7 4.5c10.5 5.4 9.8 4.6 7.9 8.3q-3.8 7.3 1.4 13.5c7 7.9 20 4 20-6.1 0-3.9-.6-3.8 13.5-1.3 11.5 2.1 29.4 2.8 39.9 1.5 5.6-.7 5.8-.7 5.1 1.3-.8 2.8 2.7 10.7 5.5 12.2 10.1 5.4 22.6-6.3 16.5-15.6-2-3.1-2.6-2.6 7-6.4 4.4-1.7 11.7-5.2 16.2-7.6l8.2-4.5 1.5 2.9c3.4 6.6 11.8 6.4 15.1-.3 1.9-4.1 1.9-4.1 5.3-1.6 4.1 2.7 21.2 11.1 22.9 11.1q1.7-.1.7 2.2c-3.4 9.9 1.5 18.3 10.7 18.3 6 0 10.9-4.2 10.9-9.5 0-3.9.2-4 11-2.5 5.2.7 16.1 1.2 24.3 1.1l14.7-.2-.6 3.3c-1.4 7.4 6.7 14.7 14.1 12.9 7.1-1.8 11.1-11.6 7-17-2.5-3.4-1.8-4.2 6.8-7.1 4.5-1.5 11.8-4.7 16.3-7l8-4.2 1.7 2.9c3.4 5.9 11.1 6.2 13.2.4.9-2.5.6-3.1-2.4-5.8-5.1-4.5-2.8-4.6 3.1-.1a166 166 0 0 0 28.8 17.8l-.9 2.8c-2.5 6.4 4 14.7 11.5 14.7 4.7 0 12.4-5.4 12.4-8.7 0-1.2.8-1.3 4.3-.7 6.6 1.1 8.8 1.4 14.7 1.9 3 .3 6.9.7 8.6 1 3.3.6 28.6-1 32.7-2 2.1-.6 2.5-.2 3.1 2.6a11.7 11.7 0 0 0 16.2 8.3c6-2.9 8.1-8.4 6-15.5-.7-2.4-.4-2.7 6.5-5.4 4-1.5 9.8-4.2 12.8-6 8.4-4.7 9-4.8 10-2.1 2.5 6.3 8.3 7.5 12.5 2.5 1.4-1.7 2.6-3.5 2.6-4.1q.1-.9 1.8.4c.9.9 3.3 2.1 5.3 2.7s4.6 2.3 5.7 3.6 2.6 2.5 3.1 2.5 1.2 1.8 1.6 4c1.9 11.4 17.4 13.6 22 3 2.8-6.1 3.1-6.5 7.3-7.1s4.1-.5 4.4 3q.7 8 10.2 4.9l4.6-1.5 1.2 4.6 1.2 5.1q0 .5-1.9.8c-3 .6-6.5 4.3-6.5 6.9 0 6.3 9.3 9.4 12.9 4.3 2.2-3.3 3.3-2.3 1.4 1.2q-8.3 15.4 11.6 34.8c5.6 5.5 8 8.6 8.9 11.6 3.1 10.6 10.5 15.6 13.7 9.4 1.5-2.8 1.4-3.3-.2-6-2.1-3.6-5.5-4-7.1-.8s-1.6-2.3-.1-9c2.3-9.9-2.1-21.4-8.7-22.6-3.8-.8-4.4-2.4-4.4-11.6.1-14.7 5.8-26 13.4-26 5.5 0 7.7-2.3 8.4-8.9.4-4.7.6-4.9 4.5-6.1 8.5-2.5 13.4-8.9 18.2-23.7 1.9-6.1 2.9-7 5-4.9 1.6 1.5 7.6 3.6 10.5 3.6.9 0 4.2-.9 7.5-2.1 3.2-1.1 7.3-2.1 9.1-2.2 3.5-.3 6.3-2.1 5.1-3.4q-.8-.5-1.9.5c-.7.7-2.8 1.2-4.8 1.2-1.9.1-5.3.7-7.5 1.5-8.7 3.2-17.4.5-17.5-5.2-.1-3.7-5.7 4.4-8 11.3q-5.7 17.4-14.6 20.4a47 47 0 0 1-15.1 2.3c-1.5-.6-1.8-11.3-.4-11.3 5.3 0 5.5-9.7.3-13.4-8.9-6.1-19.4-3-24.3 7.2-2.7 5.7-3.2 6.3-5.7 6-5.5-.6-1.6-17.2 5.4-22.7 8.6-6.7 31.4-4 36.4 4.4l1.6 2.5 3.4-3.2c11.3-10.2 32.6-13.5 43.7-6.7 1.8 1.1 3.9 1.9 4.5 1.7 2.2-.8-6.4-5.5-12-6.7a44 44 0 0 0-30.9 5c-1.8 1.1-3.3 1.9-3.4 1.7l-.4-2.1c-.8-4.3-1.4-4.8-5.2-4.5-2.8.2-4.1.9-4.8 2.6-.8 1.9-1.5 2.1-4 1.6-3.4-.7-5.8-2.4-3.4-2.4 2.6 0 4.9-3.4 4.9-7.2s-1.4-4.8-7.6-4.8c-2.8 0-3-.3-3-3.3 0-1.7-.3-9.7-.8-17.7-2.7-48.4-2.9-44.5 2.4-44.6 14-.4 15.8-21.3 2.1-24-3.1-.6-3.1-.7-3.1-7.1 0-8.8 1.1-10.8 5-8.8 9.4 4.9 16.8-1.1 15.6-12.6-.5-5.6-.4-5.9 2.4-7.9 6.1-4.3 6-11.6-.1-20.1-1-1.3-.8-2 .7-3.5 2.1-2.2 8.1-13.8 11.5-22.4 7.6-19 6.7-36.2-2.5-49.7a52 52 0 0 1-4.4-7.8c-.7-1.7-2.1-4.1-3.2-5.5-1.5-1.9-1.2-.8 1 4.8 7.5 18.4 1.6 34.8-20.9 58.7-20.7 21.9-23.4 29.5-23.4 63.9 0 19.5.3 27.7 2.3 70.1 1.9 39.1 2 47.3.8 44q-2.8-7.7-8.3-2c-3 3-3.2 6.9-.4 8.8 2 1.5 2 1.5-1.5 6.1-4.1 5.4-4.5 6.5-5.4 14.8-.6 5.8-.9 6.3-3.3 6.6-2.6.3-2.6.3-1.6-3.7 3.1-11.6-11.6-20-20.4-11.5l-2.8 2.6-3.5-2.2-3.6-2.2 2-2.5c3.3-4.2.9-12.3-3.6-12.3-2.1 0-1.7-1.6 1.9-6.8 1.8-2.6 4.8-7.8 6.6-11.5 2.6-5.4 3.6-6.7 4.9-6.1 3.2 1.4 9.3 1.6 12 .5 9.1-3.8 8.2-18-1.2-21.6-4.2-1.6-4.6-2.1-4.1-4.4.3-1.4.7-5.3 1-8.6l1.1-13.3.6-7.2h4.5c3.9 0 5-.5 7.9-3.6 7.6-8 2.1-19.4-9.4-19.4-3.6 0-4-.3-5-3.8-1-3.4-5.7-20.9-6.8-25.7-.3-1.5.3-2.4 2.7-3.6 8.1-3.9 8.3-15 .3-20-3.4-2.1-5.5-2.2-12.4-.4-2.3.6-3.1-.1-7.8-7-5.1-7.6-6-9.5-4.4-9.5 1 0 3.2-4.5 3.2-6.6 0-.8-1.2-2.6-2.6-4.1l-2.5-2.5 2.8-3.1c10.7-11.5 9.8-10.9 14-9.8 6.3 1.8 12 1.3 16.1-1.2 15.5-9.7 38.6-5.2 35.6 6.9-.8 3-2.2 3.1-2.6.1-.4-3.2-6.2-3.7-7.8-.7-2.3 4.4 3.4 9 8.2 6.6 10.3-5.1 2.3-25.3-12.1-30.1-2.9-.9-5.4-2.2-5.6-2.9l-.9-3.7c-1.1-5.1-9-5.8-11.6-1l-1 2-4.8-2C938.6 83 926 85.7 926 90q-.1.9-1.5 1c-6.5 0 5.1-15.2 18.3-24 5.6-3.7 6.3-3.7 8.2.2 5.6 11.3 24.1 6.5 22.7-5.8-.4-4.1-.2-4.6 2.3-5.9 7.2-3.7 11.9-17.8 12-36.5q0-9.5 4.5-14.9 5.9-7-2.2-2m-2.8 5.8c-.3 1.1-1 4.5-1.5 7.6-1.1 7-1.3 7.2-4.6 5.4-7.5-4-9.6-12.8-3.1-13A31 31 0 0 0 984 7c3.8-1.2 4.2-1.1 3.5.9M963 14.4c0 4.9 10.3 16.7 17.3 19.8 5.5 2.5 1.1 16.2-6 18.9-4.5 1.7-9.3-2.7-8.6-7.8 1.4-10.3-10.9-19-17.9-12.7-4.4 4.1-6.5-4.3-2.7-10.6 4.5-7.3 17.9-13 17.9-7.6M940.8 33q6.4 6.1 5.2 14.5c-.9 6-1 5.9 2.6 4 11.9-6.2 27.5 5.8 20.8 16-4.5 7-17.4 3.2-17.4-5.1 0-6.7-26.6 12.2-30.4 21.6-1.8 4.7-2.1 4.7-6.1 1.5l-3-2.5 2.3-1.6c11.7-8.1 24.6-31.4 17.5-31.4-3 0-7.3-5.9-7.3-10.2 0-7.8 10.1-12.1 15.8-6.8m-34.9 4.8c2.9 5.9 3.3 8.8 1.6 12.8-1.8 4.4-1.9 5.4-.2 5.4 8.9.3 7.3 18.3-2.4 27a1019 1019 0 0 0-22.3 27.7c-.6.7-6.6-3.9-6.6-5s3.6-5.8 13.6-17.7c15.2-18.2 17.5-22.5 11.7-21.8-2.5.3-2.8.7-2.8 3.8 0 3.3-3.8 10-5.7 10-1.8 0-3.8-6.3-3.8-11.9 0-5.3.7-7.5 5-16.3a69 69 0 0 0 5.6-14.9q1.3-8.6 6.3.9M89 38.6c1.9.7 4.5 1.3 5.7 1.4 6 .1 6.3 4 .7 9.6-3 2.9-10.7 6.4-11.8 5.3-1.6-1.6-1.5-19.1.2-18.4zm27.4 5.9c4.5 1.9 5.7 5.6 2.8 8.8-1 1.2-2.4 3.5-2.9 5.1-.8 2.5-1.4 2.8-5 3q-8.7.6-7.7 9.1c.5 3.9.4 4.1-3.3 6-6.6 3.3-9.3 2.3-14.2-5.8-3-4.9-2.3-6.3 3.5-7.1A30 30 0 0 0 111 46.4c.7-1.9 1.3-3.4 1.5-3.4zm-9.7 4.7c-4.4 7.5-12.3 12.9-18.6 12.8q-1.2-.2 2.3-1.5c5-1.8 10.2-6 14.6-11.8 4.2-5.6 5.2-5.4 1.7.5m28 3.9c3.8 3.2.1 11.2-4.8 10.2l-3-.6.7 4.4c1 6.4 3.2 9.5 15.1 20.9l10.6 10.2-3.6 3.6c-4.3 4.3-4.8 4.1-14.9-4.6A116 116 0 0 0 112.6 83q-.4.2-1 2.5c-2.3 9-14.6 8.2-14.6-.9 0-7.2 13.7-11.9 23.5-8 1.9.8 1.9.7.2-1.9-.9-1.4-1.7-3.7-1.7-5.1s-.4-2.7-.9-3c-.5-.4-.1-2.4 1-4.6 1-2.1 1.9-4.6 1.9-5.5q.1-1.4 1.3-1.5c.8 0 2.2-.9 3.3-2.1 2-2.2 6.3-2.1 9.1.2m34.6 5.2c-.3 3.1.1 8.5 1.2 13.5 1.7 8.3.9 18.2-1.6 19.7a3 3 0 0 0-.9 2.1 57 57 0 0 1-14.3 17.4c-1.2 0-4.7-3-4.7-4.1 0-.4 2.9-4.2 6.5-8.5 8.5-10.2 10.2-18 3.8-17.2-3.5.4-4.2 3.2-1.4 6.2l2.1 2.2-2.8 3.3-2.8 3.4-3.3-3.8c-4.8-5.5-2.4-16.5 3.6-16.5q1.5.1 1.2-3.8c-.5-8-.2-8.8 6.2-14.1 7.5-6.3 7.9-6.3 7.2.2m157 13.9a8.5 8.5 0 0 1 3.2 12.5c-1.4 2-1.2 2.2 7.4 5.3a139 139 0 0 1 57.1 39.7 16 16 0 0 1 2.9 4.6l-3.8 2.7-3.3 2.3-2.5-3.2a178 178 0 0 0-24.9-22.1c-1.6-.8-3.5-2.1-4.2-2.8s-1.8-1.2-2.3-1.2a20 20 0 0 1-4.7-2.4c-2-1.4-6.6-3.7-10.2-5.1l-8.5-3.6c-23.3-9.8-63.7-10.7-89-1.8a165 165 0 0 0-23.5 10.7c-.3.4-2.5 1.8-5 3.1a62 62 0 0 0-9.1 6.3c-5.4 4.6-5.8 4.6-9.4.8-2.4-2.5-2.6-3.2-1.5-4.5a144 144 0 0 1 26.4-17c2-1.3 4.3-2.2 5.1-1.9 2.4 1 1.8-.6-1.5-3.6-5.7-5.3-2.9-13.8 5-15.5 5.6-1.2 11.3 5.7 9.5 11.4q-.4 1.8.5 2.6.9.5 1-.3c0-1.2 4.6-3.2 7.5-3.2 1.3 0 2.6-.4 2.9-.9.8-1.3 10.9-3 24.8-4.1 11.9-1 17.1-.7 33.1 1.7l3.7.5v-3.6c0-6.8 7.1-10.8 13.3-7.4m164.2 1.4c3.2 3.5 3.3 8.9.3 12.1-2.7 2.8-3.3 2.3 9.2 6.8a130 130 0 0 1 42.3 23.5c2.1 1.9 4.6 3.9 5.5 4.4A90 90 0 0 1 563 136c1.1 2.1 1 2.6-2.1 5.1-3.9 3.2-4.6 3-7.9-1.8-20-29.4-77.2-51.9-114.5-45.2a116 116 0 0 0-30.5 7.8c-8.5 3.3-17.1 7.4-21.5 10.1-3.9 2.4-4.4 2.4-7.9-.5-4.3-3.4 1.2-7.7 18.8-14.6l8.4-3.6c2.7-1.3 3.7-1.4 5.7-.3 1.3.7 2.8 1 3.3.6a1 1 0 0 1 1.5.6q.6 1.5.6 0 0-1.2-1.6-1.9c-9.3-3.3-11.4-13-3.6-17.1 6-3.2 13.3 1.4 13.3 8.4v3.7l4.8-.7c20.4-2.8 43.8-1.8 47.9 2 3.2 2.9 4.8 3.1 3.3.4q-1-1.8-2-2c-1.8 0-4.1-6.1-3.5-9.1 1.5-6.7 10.5-9.2 15-4.3M605 74.7c3 2.5 3.2 3 2.7 7.5-.6 4.7-.6 4.8 1.8 4.2 10.4-2.6 40.8.2 57.8 5.3l6.7 2q2.8.7 2.2-1.1c-2.6-7.9 10.8-12.6 15.9-5.5 2.6 3.7 1.9 10.8-1.2 11.6s-2.2 2.7 1.9 4.9c7.1 3.9 8.7 4.9 16.2 10.5 9.9 7.4 28 25.3 28 27.7 0 .6-1.4 1.9-3.1 2.9l-3 2-3.5-3.5a16 16 0 0 1-3.4-4.2c0-1.8-16.6-16.2-25.7-22.2q-42-28-92.8-20.9a106 106 0 0 0-29 8c-6.4 2.2-15.6 6.7-21.5 10.5-6.4 4.2-5.7 4.2-9.5 1.1-3.4-2.8-3.3-3.1 4.6-8.1a151 151 0 0 1 38.2-17l5.9-1.6-2.1-2.2c-7.8-8.3 4.1-19.3 12.9-11.9m159.8 2.8c3.4 2.9 4.5 7.4 2.6 11q-1.1 2.3-.9 2.5l7.2-1.6c6.8-1.6 26.6-2.3 39.3-1.5l6.5.5.6-4.4c.8-6 4.8-9.4 10.1-8.7 7 .9 10.4 9.5 5.8 14.5-2.6 2.8-2.5 3.2.5 3.2 7.8 0 33.6 12.7 48.1 23.7 12.8 9.6 12.2 8.8 9.4 11.8-2.9 3.1-3.8 3.1-7 .2-8.5-7.7-28.7-20.7-32-20.7a139.6 139.6 0 0 0-94.5-6.9c-4.9 1.7-9.9 3.4-11 3.9a151 151 0 0 0-22.2 11.3c-5.2 4.4-12.8 2.7-10.8-2.4 1.2-3.2 20.7-14 31.5-17.4 7.1-2.3 7.7-2.9 5.1-5.6-8-8.6 2.8-20.9 11.7-13.4m262.6 10.1c3.5 10.9 2.1 34.5-2.4 38.7q-1.4 1.6-.7-1.3c2.8-11.8 2.9-27.7.2-27.4-.6 0-2.3 3.7-4 8.1a53 53 0 0 1-4.2 9.5c-1 1.2-.6 2 2.3 4.7 8.2 7.8-1.3 33.8-11.9 32.9l-3.8-.3 5-5.7c8.4-9.3 11.8-17.8 9.1-22.9-1.5-2.7-6.6-2.6-8 .2-1.3 2.3-.6 6.9 1 6.9q1 0 1 1c0 .5-2.2 1-5 1-4.9 0-5 .1-5 3.1 0 4-4.5 13.1-8.3 16.6q-3.4 3.3-2.2.8c3.1-7.9 3.4-9.5 2.5-12.1-.9-2.4-.2-3.4 9.7-14.6q21.3-23.6 21.3-42.6 0-6.7 3.4 3.4m-114-1.4c18.9 13.9 23.8 16.7 26 14.9 3.8-3.1-.1-8.5-4-5.6s-10.2-.9-7.1-4.3c4.9-5.4 16.6-5.1 21.6.6 2.2 2.4 3.1 2.7 9.5 2.8 8.5 0 13.1 2 19.5 8.1q8 7.6-1 3c-7.1-3.5-18.2-3.1-28.1 1-13.3 5.7-23.2 2.9-41.7-11.7-5.9-4.7-5.9-4.8-2.5-8.9 3.1-3.8 2.5-3.8 7.8.1M186.1 112l19.2 18.6 12.8 12.1-3 3.2a17 17 0 0 1-3.4 3.1c-.7 0-44.1-43.9-44.5-45-.2-.5.4-2.3 1.3-4l1.6-3.1 4.7 4.3c2.6 2.3 7.7 7.2 11.3 10.8m93.8-10.5c2.8 2.8 2 6.7-2.1 9.8-5.3 3.9-12-1.1-10.2-7.6 1.7-5.8 7.4-6.9 12.3-2.2m23.4-2.4c6.6 3.5 3.7 13.9-3.9 13.9-6.7 0-8.4-11.4-2.1-14 3-1.2 3.5-1.2 6 .1m602 1.7c4.3 3.8.2 12.2-6 12.2-3.4 0-7.6-4.4-6.8-7.3 2.1-7.6 7.4-9.6 12.8-4.9m-437.4 3.4c2 3.4.6 7.7-3.1 9.7-6 3.4-13-4.7-9-10.5 2.6-3.9 9.8-3.4 12.1.8M635 102c4 4 1.9 10.3-4 12-8 2.3-12.3-7.9-5.2-12.3q5.5-3.3 9.2.3m-189.6 1.1c4.3 3.4 3.2 9.6-2.2 11.8-5.7 2.4-10.8-1.8-9.6-7.9 1.2-5.7 7-7.7 11.8-3.9m165.3.1c6.1 5.7-1 15.3-8.5 11.4-3.7-1.9-4.8-5.6-2.7-9.5 2.4-4.6 7.4-5.5 11.2-1.9m205 .4c7.4 5.6-.7 16.3-8.4 10.9-4.1-2.9-3.5-10.7.9-12.5 3.4-1.3 3.8-1.2 7.5 1.6m-561.5 1.1c4.2 3.7.5 12.3-5.3 12.3-3.2 0-6.9-4-6.9-7.6 0-5.2 8.1-8.4 12.2-4.7m402.3 2.5 2 3.7-2.1 2.8c-4.5 6.1-12.5 4.7-13.2-2.4-.8-8.2 9.4-11.4 13.3-4.1M790 105c4.2 4.2.4 12-5.9 12-6.1 0-9.2-9.1-4.4-12.8 2.6-1.9 8-1.5 10.3.8m-643.8 3.3c2.9 2 7.9 6.2 11.1 9.2 3.3 3 6.3 5.5 6.8 5.5q.8.1.9 1.1c0 1.4 4.7 5.9 6.1 5.9 1.6 0 1 4.4-1 7-2.1 2.7-5.9 1.7-7.7-2-3.2-6.3-27.4-25.5-29-22.9-1.9 3.1.7 6.1 4.5 5.5 3-.5 4.2-.2 5.6 1.4 4.2 4.7-6.4 9.2-15.1 6.5-20.4-6.3-29.5-5.9-36.5 1.6q-5 5.4-3.6-3.5c.6-3.7 5.5-11.8 6.7-11.1.4.2 1.5-.4 2.4-1.4 2.5-2.8 14.7-4.8 20.2-3.3 4 1.1 4.6 1 8.1-1.4 5.6-3.8 13.3-3.1 20.5 1.9m180.3-2.3c4.1 4.5.7 12-5.4 12q-5.6 0-6.7-5.7c-1.3-6.4 7.8-11.1 12.1-6.3m96.8-.5a6.8 6.8 0 0 1 .7 12.5c-8.2 4.4-14.6-5.5-7.4-11.8 3-2.6 2.3-2.5 6.7-.7m62.9.2c3.2 2.9 2.4 8.9-1.4 11.3-7.5 4.5-14.2-3.4-8.7-10.4a7 7 0 0 1 10.1-.9m435.7 1.4c1.7.6 3.1 1.5 3.1 1.9 0 .9-8.9 10.9-16.2 18.3a24 24 0 0 0-4.8 5.6c0 .5-1.9 2.3-4.2 4a30 30 0 0 0-5.7 5.4 74 74 0 0 1-14.2 14.7c-1.4 0-4.9-2.9-4.9-4.1 0-.5 1.7-2.6 3.8-4.7 10.5-10.9 22.6-23.8 30.6-32.5l9.1-9.7zm-331.1 3.6c5 6.8-5.8 15.3-11.8 9.3-3.3-3.3-1.9-9.8 2.4-11.8 2.6-1.1 7.6.2 9.4 2.5m174.1-1.1c6.6 5.6 0 15-7.8 11-5.5-2.9-4.8-11.8 1.1-12.9l3-.6c.3 0 2 1.1 3.7 2.5m-260.5 2c3.7 3.7 2.9 8.9-1.9 12a6.8 6.8 0 0 1-10.5-5.7c0-6.1 8.4-10.4 12.4-6.3m338.4 0c2.8 1.9 3.1 8.3.5 10.6-7.7 6.6-17-2.6-9.8-9.7q4.3-4.4 9.3-.9m-164.9.9c7.5 3.8 2.3 15.7-5.7 12.9-5.7-2-6.6-10-1.4-12.8 3.4-1.9 3.7-1.9 7.1-.1m-506.5 1.7c2 2.8 2 3.3 0 5.2-2.2 2.3-6.1 2-6.9-.4q-1.8-5.8 4.7-6.9c.4 0 1.4.9 2.2 2.1m233.4-.6c3 2.1 2.9 6.8-.3 9.9-4.3 4.3-10 2.8-11.1-3-1.3-7.1 5.4-11.2 11.4-6.9m-176.4 1.5c4.6 3.6 2.6 11-3.4 12.4-3.8.9-8-2.7-8-6.8 0-6.8 6.1-9.8 11.4-5.6m120.2 3.3c.8 3.3-2 8.2-5.1 9-6 1.5-11.3-4.7-8.5-9.9s12.2-4.6 13.6.9m223-.7c5.1 6.7-5.1 14.9-11.3 9.1-5.4-5-.2-13.8 7-11.7 1.6.4 3.5 1.6 4.3 2.6m-53.3 3.1c4.7 4.1-.7 14.5-6.4 12.2-5.4-2.3-6.6-8.4-2.5-12.5q4-3.9 8.9.3m226.2-1.6c7.2 3.3 2 15.2-5.8 13.3-3.7-1-6.2-6.1-4.6-9.3 2.8-5.6 5-6.5 10.4-4m126.3 1.1 2.2 2.3-3.8 4.5-6.2 7.8-3.7 4.6q-1.2 1.3-1.3 2a121 121 0 0 1-18.9 19.3c-8.6 8.1-26.6 21-37.3 26.7l-10.7 5.6-3-3.3c-3.9-4.3-4-4.1 2.2-6.9 21.3-9.8 44.7-29.3 68.4-57.2 7.1-8.2 8.7-9 12.1-5.4m-600.3.6c7.1-1.1 18-1.1 29.3.2 8.6.9 14.4 2.6 29.8 8.3 1.7.6 5.6 2.9 8.8 5.1l5.7 3.9-3 2.9-2.9 3-3.1-2.2a84 84 0 0 0-22.4-9.7L303 130c-1.9-.5-7.3-1-12-1.2l-8.5-.3.3 4.6c.3 3.9-.1 5-2.6 7.7-2.8 3-6.2 4.3-6.2 2.3q-.2-.8-1.8-.4c-2.8.7-6.6-4.1-6.5-8.2.1-1.9-.3-3.5-.8-3.5a112 112 0 0 0-34.4 15.6 91 91 0 0 0-17.8 16.9l-2.5 3-2.6-2.4c-3.4-3.2-3.4-3 2.4-10 8.5-10.2 33.4-27.3 42-28.7 4.9-.8 10.6-2.9 11.4-4.2q.8-1.3 1.5-.4t5.6.1m99.5 2.6c1.2 1.4.6 2.3-4.1 7.2a138 138 0 0 1-12.7 12.5 394.3 394.3 0 0 1-16.5 17.8l-18.3 19c-14.5 15.3-14.8 15.5-18.8 13.9l-3.5-1.5 3.2-3.6c7.4-8.2 54.9-57.8 62.2-64.8 4.1-4 5.5-4.1 8.5-.5m100.3-1.4c11.9 1.7 24.3 6 34.4 11.8 7.2 4.1 7 3.7 4 7.4l-2.2 2.9-6.5-3.6c-7.7-4.1-24.9-9.2-36.3-10.6-9.3-1.1-9.2-1.2-7.2 2.6 3 5.8 1.1 10.9-4.8 12.5-6.5 1.7-10.1-3.1-8.6-11.6.4-1.8-.1-2-5.6-1.7-17 .8-36.6 10.8-52.7 26.8l-8.9 8.9-1.9-2.5a9 9 0 0 1-2-3.8 132 132 0 0 1 19.6-19.8 110 110 0 0 1 45.9-19.3 138 138 0 0 1 32.8 0m227.5 2.7a44 44 0 0 1-9.7 8.7c-.2-.2.3-1.1 1-1.9l5.4-5.9c2.2-2.4 4.4-4.2 4.8-4 .5.3-.2 1.7-1.5 3.1m-162.8.6c1.1 1.4.2 2.7-5.6 9.3L519 146.5c-6.5 7.6-21.7 22-27.4 26l-11.4 8.3c-7.8 6-9.5 6.5-13.7 4.5-4.6-2.2-4.5-2.4 2.9-6.8 15.4-9 41.5-32.5 51.6-46.3 7.1-9.8 10.2-11.3 14-6.8m105.3-2.3a100 100 0 0 1 40.1 15.7l2.5 1.9-2.8 2.7q-3 2.8-3.6 1.6c-2.8-4.5-36.1-16-41.3-14.2-1.6.5-1.5 2.7.2 4.1 1.8 1.5.3 7.9-2.3 9.8-6.9 5.3-15.4-3.7-10.5-11.2 4.3-6.6-20.1-2.9-37.6 5.7a40 40 0 0 1-10.7 4q-2.3-.2-1.8 1c.3.7-1.2 2.4-3.2 3.8a129 129 0 0 0-19.6 19l-2.7 3.5-2.4-3c-3.1-3.8-2.8-4.3 8.2-15.4 22.4-22.5 56-33.7 87.5-29m66.5 2.8q2 1.8 2.2 2.3c0 .2-8.2 8.9-18.2 19.2a195 195 0 0 1-41.5 35.2c-8.7 5.7-9.8 7.3-6 9.2 4.2 2.2 32.3 7.9 48 9.8 4.4.5 4.8.8 4.3 2.7-.3 1.2-.6 3.3-.6 4.6v2.4l-9.4-.6c-5.2-.4-11.6-1.1-14.3-1.7l-9.8-2.1a199 199 0 0 1-89.2-47.3c-5.8-5.5-6.1-6.2-3.5-8.3 4.4-3.5 4.7-3.4 11.8 2.5 19.4 16.2 45.6 32.4 56.1 34.6 4.5 1 5-1 .8-3-4.4-2.1-4.4-2.5.3-4.9l6.2-3.6 11.4-7.5c8.9-5.8 27.5-23.4 40.5-38.2 6.9-7.8 7.5-8.1 10.9-5.3m-520.1 1.3c3.3 3.1 2.9 5.3-2.1 10.6-8.2 8.9-22.9 34.6-24.2 42.4-.4 2.1-1 3.8-1.4 3.8s-1 1.9-1.4 4.2a56 56 0 0 1-3.1 14.8c-4.3 7 1 49.1 8.5 67.5 1.8 4.6 9.4 20 10.2 20.9 2.5 3 9.8 13.7 9.8 14.4 0 2.5-6 6.5-7.6 5.1-4.8-4-18.4-26.5-18.4-30.5q.1-2.7-3.1.2c-5.6 5.1-15.9.8-15.9-6.6 0-4.8 5-9.4 9.5-8.7l3.3.5-1.8-6.6c-2.6-9.7-4.2-20.3-4.4-29.3-.1-7.6-.1-7.8-2.1-6.3-7.2 5.2-14.2 2.9-15.9-5.2-1.8-8.6 10.8-13.3 16.4-6.2 1.5 1.7 1.6 1.5 1.8-3.1.2-5.7 3.4-22.4 5.6-29.3 1.7-5.5 1.6-5.7-3.4-5.1-11.4 1.6-13.5-15.9-2.3-18 2.8-.6 3.8-.1 7.5 3.3 2.2 2.2 4.2 3.9 4.3 3.8l4-7.8a129 129 0 0 1 18.4-26.3c5.1-5.4 4.8-5.4 7.8-2.5m632.3.4a74 74 0 0 1 20.8 6.1c6.2 3 6.4 3.6 1.4 5.2-3.4 1.2-4.8 1-14.6-1.9-16.4-4.8-30.4-5-26.6-.5 4.3 5.2-.4 13.7-7 12.5s-8.2-4.8-5.9-13c.9-3.3-14.6-.5-26.1 4.7-14.7 6.7-32.2 20.4-38.2 30-2.4 4-2.9 4.1-5 .3-6-10.6 33.9-39 61.7-43.9a94 94 0 0 1 39.5.5m-774.6 2.7c1.6 3.8 12 13.7 19.6 18.6a47 47 0 0 1 20.6 21.6c8.2 16.7 10.7 28.4 10.8 51.7.1 19.8.3 20.6 3.6 18.8 5.2-2.8 12.2 2.7 12.2 9.5 0 7.4-5.7 11.4-12.8 8.9-2.1-.8-4.3-1.4-4.8-1.4-.8 0-.4 17.2.9 38l.7 16 .3 9.5-4.3.3c-5.3.4-4.9 2.4-6.2-27.3-1.4-33.5-2.9-60.1-3.6-65.3l-.6-4.3-2.2 2c-3.2 3-10.5 2.9-13.3-.2-9-9.8-2.5-20.6 10.7-17.8 6.1 1.3 7.4.9 3-.9-2.9-1.2-7.4-1-17.2.6-8.4 1.4-14.7-10.9-9.2-18.3q4-5.2 13.7-2.7c2.8.7 5.3 1.1 5.5.9.8-.8-5.2-2.7-10.5-3.2-10.9-1.2-18.7-19.5-20-47.2-.6-12.9.1-14.8 3.1-7.8m831.3-1.2c7 2.6 4.9 13.9-2.7 13.9-6.8 0-9.1-6.3-4.4-11.9 2.9-3.5 3.1-3.5 7.1-2m-500.8 5.2c1.4 1.8-1.9 5-4.3 4.1q-3.1-1.3.2-4c2.2-1.7 2.7-1.7 4.1-.1M915.4 146c2.9 4.1 6.3 9.6 7.6 12.2 2.3 4.7 5 6.4 5 3.1 0-6.1 10.2-7.5 14.4-2 5.1 6.6.7 14.7-7.9 14.7-2.8 0-3.4 2-1.1 3.9.8.6 1.6 2.6 1.9 4.4s1.1 5.7 2 8.7 2 8.6 2.7 12.5c1.6 8.5 3.1 10.6 6.1 8.6 6.3-3.9 13.9-.2 13.9 6.8s-4.9 10.8-11.5 9c-4.9-1.4-5.2-.9-5.9 9.1-.6 9.4-1.9 17-3.5 21.3q-2.7 7.5 3.8 7.7c11.6.1 15 13.2 4.5 17.6-4.1 1.7-9.2 0-10.9-3.8-1.2-2.7-3.5-3.6-3.5-1.4a69 69 0 0 1-7.7 18c-8.1 12.6-10 15.5-12.7 19.1a86 86 0 0 1-17.5 17.5c-.9 0-2.9-1.2-4.5-2.6l-2.8-2.5 2.3-2.5c1.2-1.3 3-2.4 4-2.4 4.1 0 22.8-25 29.3-39.2 10.2-22.3 14.7-52.3 10.7-70.8l-2.6-12.5c-1.6-8-5.5-19.2-9.4-27.2a19 19 0 0 1-2.1-5.6c0-1.5-11.8-19.7-16.3-25.2l-2.5-3 2.2-2.6 2.1-2.7 2.3 2.2a79 79 0 0 1 7.6 9.6M542 137.5c1 1.3 1 1.9-.3 3.3-1.8 1.9-1.9 5.9-.4 8q1 1.3-.6 3c-2.6 2.5-5.9-.8-3.5-3.5 1.6-1.8 1.7-4.1.4-8s1.8-5.9 4.4-2.8m172.2.9c1.5 2.1 1.6 2.6.3 3.6-1.7 1.4-1.4 7.2.4 9.4q1.2 1.3-1 3.2c-3 2.7-5.8-.5-3.4-3.9 1.5-2.1 1.1-6.1-.7-8.4-1.3-1.6-.2-6.3 1.5-6.3.6 0 2 1.1 2.9 2.4m-516.4.8c2.7 2.7.7 7.8-2.9 7.8-2.5 0-4.9-2.8-4.2-4.8 1.5-4.1 4.6-5.5 7.1-3m115.7 1.3c6.8 6.7-2.3 17.5-10.2 12-3.5-2.4-3.8-6.2-.8-10.6 3.1-4.8 7.2-5.3 11-1.4m55.5 1.6c0 1.6-3.1 3.8-4.5 3.3-2-.8-1.9-4.1.2-5.3 1.8-.9 4.3.2 4.3 2m11.3-1.7c.8 2.1-3 5.3-4.5 3.8-.7-.7-2.3-1.2-3.6-1.2q-2.2 0-1.7-1.1.7-.9 1.9-.6c.6.3 2-.1 3.1-.9q3.7-2.7 4.8 0m100.6 3.2q4.2 5.3-.4 9.9c-4.8 4.9-12.5 1.9-12.5-4.9s8.7-10.3 12.9-5m55.2-.4c1 1.8.8 2.4-.6 3.5-3.2 2.2-6.1-1.7-3.3-4.5 1.7-1.7 2.6-1.5 3.9 1m10.9 2.2q-1.2 1.5-2.6 1.6c-2.2 0-2.7-2-.8-4.1 2.3-2.6 5.7-.1 3.4 2.5m162 1.1c0 3-3 3.9-5.1 1.6-2-2.1-2-2.3-.3-4.2 1.8-2.1 5.4-.4 5.4 2.6m-505.7 16a5897 5897 0 0 0 56.9 54.7l4.1 3.9-2.4 2.7-2.6 3.1c-.4.6-7.5-6.2-38.8-36.5l-34.6-33.6-7.7-7.3 2.6-3.3 2.5-3.3 3.4 3.3zm231.2-17c4.2 4.1 3 10.2-2.3 12.4a7.3 7.3 0 0 1-9.7-9.6c2.4-5.6 7.9-7 12-2.8m285.9-.2c1.7 2.6-1.3 5.2-3.8 3.4-1.6-1.1-1.7-1.7-.7-3.6q2.1-3.7 4.5.2M816 144c6.9 3.7 3.1 14-5.1 14-2.9 0-6.9-4.4-6.9-7.6 0-5.7 6.7-9.2 12-6.4m-442 3.5c0 2.5-3.6 4.7-5 3-1.8-2.2 1.4-7.2 3.6-5.4.8.6 1.4 1.7 1.4 2.4m488.9-.9c28.7 21 46.3 64.3 39.8 97.9-2.4 12-7.5 25-13.9 35.2-4.5 7.1-4.6 7.2-7.7 3.9l-2.2-2.4 3.4-5.3c10-15.7 17.7-48.6 9.8-41.5-6.7 5.9-16.8-3.4-11.1-10.2 3.3-4 7.7-4.8 11.2-2.2 4 2.9 4.2 2.4 2.9-7a94 94 0 0 0-35.8-61.5c-4.8-3.4-4.9-3.6-2.7-7 2-3.1 1.9-3.1 6.3.1m-259.5-.5c8 3.7 2.2 17-6.1 13.8-5.2-2-6.5-6-3.6-11q3.3-5.7 9.7-2.8m50 1.2c1.7 1.8 2.2 3.1 1.8 5.5-1.2 8.7-14.2 7.9-14.2-.8 0-6.4 7.8-9.3 12.4-4.7m119.1.2q4.6 4.6.4 9.9c-4 5-12.9 2.3-12.9-4 0-7.3 7.6-10.9 12.5-5.9m-362.6 1.6 8.5 7.7c2.7 2.6 7.4 6.5 10.5 8.8l8.1 6.2c2.4 1.9 23.7 14.2 24.5 14.2.3 0 2.8 1.1 5.8 2.4 9.8 4.5 31.1 11.2 41.5 13.1l10.2 1.8v3.2c0 4.4.1 4.3-10.2 2.5-21.3-3.9-46.9-12.9-56.8-20a11 11 0 0 0-4-2c-5.4 0-45-31.4-45-35.7q-.1-1.2-1.5-1.3-3-.1.3-2.6c2.6-2 4.1-1.7 8.1 1.7m-50.1 2.6c10.5 10.1 20 26.2 24.8 42.1 3.1 10.4 3.2 9.9-2.4 10.8-4 .6-4.2.5-4.2-1.9 0-3.7-3-14.9-4.6-17.2a8 8 0 0 1-1.4-3.6c0-3.2-10.4-17.3-18.8-25.7l-4.4-4.3 2.3-2.5c3-3.2 2.9-3.2 8.7 2.3m171.3 3.1c8.4 8.9 15.6 20.3 20.5 32.5 5 12.7 5.1 13.3 1.7 14-3.7.7-3.7.7-6.3-6a112 112 0 0 0-23-37.6c-4.8-5.1-4.8-5.2-3.2-7.9 2.2-3.7 1.9-3.9 10.3 5M260.5 150c4.5 4.9-.5 13-7 11.4-3-.7-5.9-5.6-5-8.4 1.6-5.1 8.5-6.8 12-3m439.2 1.7a118 118 0 0 1 22.8 34.3l3.6 8.2c1.7 3.3 1 3.9-3.8 3.6s-4.8-.3-6.6-5.3a88 88 0 0 0-21.5-34.1l-5-5.2 2.6-2.6c3.3-3.3 3.1-3.3 7.9 1.1m-463.2 7.8a221 221 0 0 0 58 35 213 213 0 0 0 50 12.5c4 0 4.4.5 3.7 4.9l-.5 3.4-6.8-.7a223 223 0 0 1-68.2-20.6c-1 0-12.9-7.1-22-13.2-9.9-6.6-9.7-6.4-15.3-11.2a18 18 0 0 0-5.2-3.6 27 27 0 0 1-8.2-8.3c0-1.4 5.5-5.5 6.5-4.9.5.3 4.2 3.3 8 6.7m539.2 21a678 678 0 0 0 30.3 29.6c0 .7 1.1 2.2 2.5 3.5l2.4 2.2-2 2.6c-1.1 1.4-2.6 2.6-3.2 2.6-1.4 0-64.7-63.1-64.7-64.5 0-.9 4.6-4.4 5.9-4.5.2 0 13.2 12.8 28.8 28.5m126.7-24.3c2.2 3.2 2 5.5-.9 8.3-6.9 7-16.4-2.4-9.8-9.7 3-3.4 7.8-2.7 10.7 1.4m108.6.5c8.5 5 7.1 17.4-1.8 15.9-4.4-.7-6.7-2.6-3.1-2.6q4.9 0 4.9-5c-.1-10.8-22.9-4.5-29.6 8.2-2.1 4.1-.1 3.4 3-1 3.2-4.7 6.9-7.5 11.9-9.1 4.5-1.5 4.2-1.6 5.1 3l.6 3.6-4.1.6c-4 .5-9 4-7.6 5.3q.6.4 2.2-.9c6.4-6.5 18-.3 17.8 9.5-.1 9-9.4 13.3-14.4 6.6-2.1-2.7-4.4-1.3-5.4 3.3-1.3 5.7-3.8 3.4-9.6-8.5-5.1-10.6-5.2-23.6-.2-23.6.9 0 3.2-1.2 5.1-2.7 2.7-2 5-2.8 9.1-3 3-.2 5.7-.6 6-.8 1.1-1.1 7.5-.4 10.1 1.2m-384.2 1.9c1.6 1.1 2.2 2.5 2.2 5.4 0 7.6-10.1 10.7-13.4 4.2-3.8-7.6 4.2-14.5 11.2-9.6m225.6 1.6c4.4 6.2-4.1 13.1-9.4 7.8q-4-4.2.6-7.9c3.5-2.7 6.9-2.7 8.8.1M460 161.7c5.7 7.3-4.7 16.8-11 10.1-4.3-4.7-.8-12.8 5.5-12.8 2.5 0 3.9.7 5.5 2.7m-169.6-1.1c5.2 2 6.3 10.6 1.8 14-6.5 5-14.5-2.4-11.1-10 1.5-3.2 6.2-5.2 9.3-4m501.8 1.1c3.7 4.3 3.1 8.8-1.7 11.9-7 4.6-14.6-5.4-8.8-11.8 2.1-2.4 8.5-2.4 10.5-.1M517.1 163c3.9 2.1 1.6 7-3.3 7-2.5 0-2.8-.3-2.8-3.4 0-4.3 2.3-5.6 6.1-3.6m351 2.2c2.4 3 2.5 2.8-2.2 7.9a2777 2777 0 0 1-67 70.8l-8.6 9.3-3.7-1.3c-5.5-2-7.3.3 24.9-32.6 7.1-7.3 13.1-13.7 13.5-14.2.3-.5 9.1-9.8 19.5-20.6a470 470 0 0 0 19.3-20.6q1.1-2.2 4.3 1.3M558.5 167c0 2.9-3.2 4.1-4.1 1.6s.4-4.8 2.3-4.4q1.8.3 1.8 2.8m-207.6 1.4c1.5 1.8.4 4.4-2.1 5.2-2.8.9-4.8-1.5-3.7-4.4.9-2.5 4-2.9 5.8-.8m-119.1 3.2c2.4 1.7 2.9 5.3 1 7.2-2.7 2.7-9.8.2-9.8-3.5 0-4.8 4.5-6.7 8.8-3.7m-52.9 2c2.8 3.6 2.6 6-.8 9.5-4.7 4.7-10.2 2.9-11.6-3.7-1.4-7.2 7.9-11.5 12.4-5.8m21.9.3c2.7 2.4 2.7 2.8-.1 9.3A95 95 0 0 0 192 218v6h3.9c7.2 0 11.3 6 8.1 12.1-1.4 2.6-6.7 5.1-9 4.4-2.5-.8-2.5-1.1.5 8 6.7 20.5 25.4 46.7 35.1 49.1q5 1.5 1 6.4l-2.3 2.8-3.2-1.9a103.2 103.2 0 0 1-41.6-69.4 110 110 0 0 1 9.6-57.7c3.2-6.4 3.4-6.5 6.7-3.9m312.1 1.5c5 5.3-1 14.7-7.5 11.7-7.2-3.2-4.2-13.4 4.2-14 .6-.1 2.1 1 3.3 2.3m-146.9.5a9 9 0 0 1-.4 8.6c-5.3 7.8-10.1 42.2-7.1 51.5.7 2.1-2.6 3.5-6.2 2.8-4.7-.9-1.4-35.4 4.9-51.8 4.8-12.5 6.7-14.9 8.8-11.1m206.4.3a7.2 7.2 0 0 1-10.2 10.2c-2.9-2-3-7.6-.2-10.4s8.4-2.7 10.4.2m342.5.4c2.4 3.1 2 7-1.1 9.6-4.4 3.9-11.8.8-11.8-4.9 0-6.6 8.8-9.9 12.9-4.7M742 177c4 4 .8 12-4.7 12-3 0-7.3-4.2-7.3-7.1 0-5.7 7.9-9 12-4.9m91.4-.4c4 3.9.5 10.4-5.6 10.4-2.5 0-5.8-3.8-5.8-6.8 0-4 8.3-6.7 11.4-3.6M406 178a7 7 0 0 1-4.8 12q-7-.2-7.2-6.6c0-6.4 7.6-9.8 12-5.4m130.9 1.5 2 3.5-3.4 10.5a108 108 0 0 0-5.4 34.4c.4 5.1.4 5.1-2.8 5.7-5.5 1-6.1.3-6.5-8.3a79 79 0 0 1 8.7-42.1c4.2-8.3 4.6-8.4 7.4-3.7M683 179c6 6-2.6 15.3-9.3 10a6.7 6.7 0 0 1 4.3-12 8 8 0 0 1 5 2m-343.6 1.1c3.3 2.6 3.4 6.2.1 9.5-5 5-12.8.3-10.5-6.2 1.8-5.2 6.2-6.6 10.4-3.3m-109.9 21.4c23.8 22.9 27.5 26.7 27.5 27.9 0 1-11.5-10-36.5-34.8a138 138 0 0 1-13.4-14c1 .5 11 9.9 22.4 20.9M495 184.1c2.3 4.2-3.6 8.3-7 4.9-2.5-2.5-2.5-3.5-.1-5.9 2.3-2.3 5.7-1.8 7.1 1m216 4.6c0 1.2-.9 4.3-2 6.9-2.5 5.8-5.1 20.4-5.5 30.4l-.4 9.2c-.1 1.4-1 1.8-3.7 1.8h-3.5l.4-10.8c.8-17.8 3.5-31 8.4-40.5l2.5-5 1.9 2.9c1 1.6 1.9 3.9 1.9 5.1m167.7-4c1.4 2 1.3 2.4-1.1 4.8-3.1 3.1-7.6 1.9-7.6-2.1 0-5.2 5.9-7 8.7-2.7m-289.9-.5c2.5 2.5-.1 7.8-3.9 7.8-3 0-5.3-4.4-3.7-6.9 1.4-2.3 5.7-2.8 7.6-.9m275.7 2.3c3 2.9 3.1 3.9.5 6.5-3.2 3.2-10 1.1-10-3 0-1.4 4.6-6 6-6 .6 0 2.2 1.1 3.5 2.5m-24.5-.2c0 .2-1.9 2.1-4.2 4.2-4 3.8-3.7 2.6.6-2.3 1.7-1.9 3.6-2.9 3.6-1.9m-589.6 2.3c2 1.9 2 3.4 0 6.2-2.7 3.9-8.4 1.8-8.4-3.2 0-4.4 5.2-6.3 8.4-3m563.5.9c3.2 1.6 4.1 3.3 4.1 7.8 0 7.1-8 10.1-13.9 5.1-7.7-6.5.7-17.6 9.8-12.9m-295.1 2.6c.4 3.3-2 5.3-5.3 4.5-2.5-.6-3.6-5.1-1.8-7 1.9-1.8 6.8-.1 7.1 2.5m-195.9-.8c1.8 2.2-1.1 5.6-3.3 3.8-1.9-1.6-2.1-3.7-.3-4.4 2-.9 2.4-.8 3.6.6m128.9 1.3c4.2 2 4.3 1.8-3.5 5.7a206 206 0 0 1-80 17.7c-7.8 0-8.3-.4-6.4-5.3.9-2.3 1.5-2.5 8.8-2.6 20.7-.4 49.8-6.4 67.8-14 8.3-3.5 9.2-3.6 13.3-1.5m323.3 1.6c3.4 3.8 3.5 4.4 1.2 5.1l-9.2 3.1a164 164 0 0 1-50.6 9.1h-8l.2-3.9c.4-5.5.1-5.4 16.8-7.1 8.2-.9 17-2.1 19.5-2.7 7.3-1.7 21.3-5.8 21.9-6.3 1.4-1.5 5.5-.1 8.2 2.7m-210.3.4c.3 2.3-1.8 3.7-4.3 2.8-1.8-.7-1.9-2.6-.3-4.2 1.8-1.8 4.3-1 4.6 1.4m-392.3.9a7.3 7.3 0 0 1-5.2 12.5c-7-.1-9.5-7-4.4-12.1 3.6-3.5 6.4-3.7 9.6-.4m39.3-.2c2 1.6 1.4 5.5-1.3 7.3-4.5 2.9-8.5-.5-7.1-6.1.8-3.3 4.9-3.9 8.4-1.2m405.1-.6c1.7 1 3.1 2 3.1 2.3 0 1.2-21.7 8.4-32.5 10.8-14 3.1-18.4 3.5-35.5 3.6l-18.5.1.3-3c.5-3.9-.2-3.7 9.9-4.1 28.8-1.2 38.8-2.6 57.3-8.3 11.3-3.5 12-3.6 15.9-1.4m-271.4 2.8q0 2-2.3 2.3c-2.6.4-4.2-2.5-2.1-3.9 2.2-1.4 4.4-.6 4.4 1.6m575.4 1.1c2.7 3.5 2.6 5.9-.4 8.9-6.4 6.5-16.7-2.6-10.5-9.3 3-3.2 8.2-3 10.9.4m61 4.6c2.3 3.2 4.8 5.8 5.6 5.8q1.4.1 1.5 1.9-.2 1.9 3.7 2.4c13.4 2.2 11.8 20.8-1.7 19.5l-5-.5v5.1c0 2.8.4 10.9.9 18.1l1.5 25 1.2 21.7.6 9.8h-9.8l.2-3.3c.2-1.7-.1-7.7-.6-13.2s-1.1-17.4-1.5-26.5-.7-20.1-1-24.5c-1.2-21.3-1.6-48.9-.7-48zM856.1 198c2.9 1.6 2.5 6.5-.6 8.6-5.2 3.4-11.1-3.1-7-7.6q3-3.3 7.6-1m-587.7 2.1c6.3 4.9.8 13.8-6.8 10.9-5.2-1.9-5.3-9.4-.2-11.8 3.1-1.5 4-1.4 7 .9m608.4-.9c3.3 3.3-.7 9.5-5.2 7.9-2.8-1.1-3.4-5.8-.9-7.7q3.5-2.6 6.1-.2m-587.3 5.4 3.8 1.5-3.9 4.2-29.4 30.8c-3.6 3.7-11.3 11.7-17 17.9-24.2 25.9-24.3 26-27.5 23-3.6-3.4-3-4.5 9.8-17 2-2 3.7-4.2 3.7-4.8q.1-1.1.8-1.2c1.4 0 53.2-52.8 54-55.1.5-1.2 1.4-1.1 5.7.7m-65.4 1.3c4.7 3.8-1.1 10.9-6 7.5-2.5-1.8-2.7-5.6-.5-7.8 2-2.1 3.7-2 6.5.3m404.9.1c2.6 2.6 2.8 10.5.3 13.2q-3.6 4 6.7-1.2c7.2-3.6 11.1-3.8 21-.6l14.7 4.1c6.6 1.6 8.9 3.5 4.3 3.5-1.1 0-5.5 1.6-9.9 3.5-14.1 6.2-20.9 6.6-30.4 1.8q-8-4.1-5.5 1.2c2.4 5.2-3.7 11.7-9.4 9.9-7-2.2-9.6-7.5-5.9-12.5 2.7-3.6 2.3-3.6-5.7.3q-14 7-37.9-1.5c-4.9-1.7-4.3-2.1 8-6 17.5-5.7 27.7-6.4 34.8-2.6 2.1 1.1 2.9-1.4.9-2.6-1.3-.8-1.3-6.1.1-8.6 2.1-4.1 10.6-5.2 13.9-1.9m-424.2 1.3c1.7 1.3 1.5 4.7-.5 6.9-2.3 2.6-5.9 2.3-7.9-.7-3.7-5.6 2.8-10.5 8.4-6.2m253.3 1.5c1.8 1.5 2.2 2.9 2.3 7.6s.4 5.6 1.6 5.2c16.4-5.4 20.4-5.4 34.7-.5 11.3 3.9 11.5 4.2 4.6 6.8-20.6 8.1-26.4 8.5-37.5 3-4.8-2.4-6.6-2.5-4.6-.2 6.2 7.3-3.6 17.2-11.7 11.9-3.2-2.1-4.3-7.8-2.1-11.1 2-3.1 2-3.1-6.8.1-8.3 3-11.3 2.9-28.9-1.3-8-1.8-10.6-2.8-9.2-3.3q30-11 40.4-5.7l3.8 1.7c.2 0 0-2.5-.3-5.5-1.1-9.1 6.9-14.1 13.7-8.7m312.9 1.7q1.2 1.5.6 5.5-1.5 8 13.6 1.6c2.4-1.1 4.9 4 3.7 7.3-.9 2.3-1.2 2.3-8.4 1.6-7-.6-9.5.1-6.5 2 2 1.2 1.1 6.4-1.4 8-3.6 2.4-9.1-1.3-7-4.6.8-1.3-1.3-1.1-4.4.5-4.1 2.1-16.4 0-24.7-4.2l-2.9-1.5 4.9-2.5c11.8-6 18.4-7.4 22.3-4.6 2.5 1.7 3.1 0 1.2-3.6-2.3-4.2 5.9-9.3 9-5.5m109 .4c0 2.4-1.5 3.5-3.6 2.7-1.2-.4-1.3-1-.4-2.6 1.4-2.6 4-2.6 4-.1m-33.4 1.6c2 3.1 1 6.3-2.3 7.6-5.4 2-9.5-4-5.6-8.3 2.3-2.6 5.9-2.3 7.9.7m18.6-.8c4.8 4.4-.1 10.2-6.6 7.7-2.9-1.1-1.8-7.4 1.4-8.7 2.5-.9 3.3-.8 5.2 1m24.2.2c.9 1.5-2.3 3.6-3.6 2.3-.5-.5-.7-1.5-.4-2.1.9-1.3 3.3-1.4 4-.2m-675.6 3.7c2.6 1.8 2.9 5 .6 7.5-3.3 3.6-10.8-1.7-8.4-6q2.7-5 7.8-1.5m22.4.1c5.3 4.8-2.2 11.5-7.9 7-3-2.3-.1-8.7 4-8.7 1.1 0 2.9.7 3.9 1.7m493.1 2.3c.3 2.2.1 7.3-.4 11.3-.6 3.9-1.2 9.2-1.4 11.7-1 10-7.9 32-10.1 32-1.3 0-5.4-11.3-4.5-12.4a75 75 0 0 0 6.6-21.1c1.2-11.4 1.4-13.3 1.4-19.3l.1-6.2h3.9c3.7 0 3.9.1 4.4 4m-558 .2c2.4 2.8 2.1 6.5-.8 9.3-4.2 4.3-9.6 2.7-10.9-3.2-1.7-7.6 6.6-12 11.7-6.1m387.1-1.4c2.7 8.3-2.9 37.9-9.7 51.6l-1.9 4-1.9-2.5c-2.4-3.1-2.4-5.3.2-12.5 4.2-12.2 7.2-42.9 3.9-40.9q-.9.4-1-.4c0-2 9.8-1.3 10.4.7M305.5 218c1.5 1.7 1.6 2.4.7 4.6-2.1 4.4-1.1 4.5 6.8.8 8.5-4 15.3-3.6 23.5 1.2 7.7 4.6 7.7 4.8-.4 9.1-9.4 4.9-21.4 4.1-27.8-1.9-1.9-1.8-2.3-1.9-2.3-.5q.1 1.6 1 2.2c1.6 1 1.2 3.3-1 5.5-4 4-9.7 1.2-8.5-4 .7-3.3-.7-4.7-2.5-2.5-2.9 3.5-8 1.1-8-3.7 0-4 3.9-5.8 7.4-3.4 3.3 2.1 3.9 2 2.6-.3-3.3-6.3 3.8-12.3 8.5-7.1m83.1 8.7c-1.3 16.9-9.9 45.3-13.7 45.3-2.4 0-4.4-6.9-2.7-9.8a122 122 0 0 0 9.3-38.9c-.5-4.4-.3-4.6 5.4-5.1l2.4-.2zm153.2-7.1c4 2.8 2.6 8-2.3 8.9-3 .6-5.5-2.2-5.5-6.1 0-1.2 3.7-4.4 5-4.4.3 0 1.6.7 2.8 1.6m171.3 1.4c2.2 1.2 2.6 5.9.7 7.8-2.3 2.3-6.7 1.5-7.4-1.4-1.4-5.4 2.2-8.8 6.7-6.4m121.7.2c3.1 3.1.6 7.8-4 7.8-3.6 0-5.6-3.6-3.9-6.9 1.3-2.3 5.9-2.9 7.9-.9m23 1c3.3 3.3-1.1 9.8-5.7 8.3-2.6-.8-3.7-4.6-2.1-7.4 1.2-2.4 5.8-2.9 7.8-.9m-486 1.4c5.2 3.6 0 11.5-5.3 8-3.9-2.6-2.1-9.6 2.5-9.6.3 0 1.6.7 2.8 1.6m500.2-.1c1 1.2 1 1.8 0 3-1.7 2.1-3.7 1.9-4.5-.5-1.2-3.7 2-5.5 4.5-2.5m52 1.2c3.6 4.7.2 11.3-5.9 11.3q-5.6.1-6.6-6.1c-1.3-7.2 7.9-11 12.5-5.2m-675.5.7q3.9 4-.3 7.3c-5.4 4.4-12-3-7-7.7 2.8-2.6 4.4-2.5 7.3.4m-22.7 1.8c3.3 3.3.4 8.8-4.7 8.8-2 0-5.1-3.4-5.1-5.7 0-3.5 7.1-5.8 9.8-3.1m635.9 39.5c22.2 22.4 40.3 41 40.3 41.4s-.8 1.7-1.8 2.9l-1.8 2.2-19.3-18.8-41.8-41.3-22.5-22.3 2.3-2.4c3.4-3.6 1.4-5.2 44.6 38.3m-12.8-34.1c2.2 2 .3 6.6-3.1 7.8-5.6 2-8.9-5.5-4-9.2 1.8-1.3 4.9-.7 7.1 1.4M287 243.1c21.3 20.7 32.2 31 43.3 41.4 11.5 10.8 11.9 11.5 8.2 13.9s-3.6 2.5-18.1-11.7L306 273l-19.4-18.4-18.6-17.8 2.3-2.9c3.1-4 2.9-4.1 16.7 9.2m580.5-8.1c3.9 4.4-.7 9.4-6.6 7-3.5-1.5-3.7-3.3-.4-6.5 2.9-3 4.6-3.1 7-.5m-648.7 5.8c.6 6-6.8 7.8-9.7 2.4-1.2-2.4.4-6.1 3.1-7.1 3.2-1.3 6.2.9 6.6 4.7m326-5.2q2.1.7 2.2 2.8c0 4.4-1.3 5-12.7 5.3-17.9.5-40.1 5.1-59.8 12.3-6 2.2-13.5 1.2-13.5-1.9 0-4.5 41-16.6 60.5-17.8 5-.3 9.2-.7 9.4-.9.7-.6 11.4-.4 13.9.2m-372.4 1.5c6.8 3.1 4.4 13.9-3.2 13.9-2 0-5.5-3.4-6.6-6.4s2.2-7 7.1-8.5c.1-.1 1.3.4 2.7 1m63.8.6a5 5 0 0 1-.1 7.7c-4.6 4.2-11.2-1.6-7.8-6.8 2-3 5.2-3.4 7.9-.9m342.5.7a191 191 0 0 1 73.8 31.4c14.1 9.7 29.5 23.4 29.5 26.1 0 .5-1.4 2-3.2 3.2l-3.1 2.3-6.6-7.1a139 139 0 0 0-32.1-24.1c-14.2-8.6-18-10.7-20.5-11.4l-13.1-4.6a154 154 0 0 0-35.4-9c-7.3-.7-7.5-.8-7.8-3.5-.8-6.4.3-6.6 18.5-3.3m-203 1.4c3.4 2.1-.4 8-5.5 8.4-6.1.6-7 .2-7.7-3.3-.4-1.6-1-2.9-1.5-2.9s-.5 1.3 0 3c1 3.6 1.1 3.5-7 5-9.9 1.7-29.1 6.7-36.9 9.5l-7.1 2.6-3-2.2c-1.6-1.3-3-2.8-3-3.5 0-4.3 37-14.4 60-16.4l9.5-.8q1.1 0 2.2.6m341.1.7c.2.2 0 1.6-.5 3.2l-1 2.8-10.9.2c-19.6.2-40 3.9-56.7 10.1-6.7 2.4-14.7 1.4-14.7-1.9 0-1.4 16.5-7.3 29.5-10.5 15.3-3.8 51.8-6.4 54.3-3.9m-309.3 1c35.2 5 74.1 22.3 97.9 43.5 11.2 9.9 11.1 9.6 6.5 13.5l-3.2 2.6-2.5-2.3a50 50 0 0 1-4.6-4.7 139 139 0 0 0-20.6-15.5l-6.5-3.9-2.5-1.8c-.3-.4-3.5-2-7.2-3.8a32 32 0 0 1-7.3-4.1c-.3-.5-1.7-1-3.1-1-1.3 0-2.4-.4-2.4-.8s-2.4-1.6-5.2-2.7l-7.8-2.8-3.5-1.3-9.3-2.8c-8.5-2.6-27-5.6-34.4-5.6-3.7 0-4-.2-3.4-2.3.3-1.2.6-3 .6-4 0-2.2 4.5-2.2 18.5-.2m338.6 1a213 213 0 0 1 34.4 9.5 142 142 0 0 0 13.5 5.5c1.4.4 4.1 1.8 6 3.1s3.8 2.4 4.3 2.4 4 2.1 8 4.6l9.3 6c1.2.7 2.7 1.9 3.5 2.6a55 55 0 0 0 12.5 8.8q1.3.1 1.4 1c0 2.2 8 9.6 8.9 8.1q.9-1.2 1.5-.3.4 1-.5 1.7-.9.9 2.5 4c4.4 4 4.4 4.6.6 6.8l-3 1.8-5.6-6a159 159 0 0 0-32.4-25.5l-11-6.6-7-3.5-8.1-4.1a243 243 0 0 0-50.4-14.2c-2.7-.4-4.9-1.1-4.7-1.5l.2-3.2c0-3.1 4.1-3.3 16.1-1m71.3 2c7.1 6.6-1.5 17.6-10.3 13-5.2-2.7-5.7-9-1-12.9q6-5 11.3-.1m73.6.4c0 1.5-2.9 3.3-4.5 2.7-1.8-.7-2-4.3-.2-4.9 1.4-.5 4.7 1 4.7 2.2m-31.4.4c3.2 2.8 2.6 6.4-1.3 7.3-5 1.3-8.4-4.4-4.8-8 2.2-2.1 2.9-2 6.1.7m21.5.6c4.7 3.8-1.1 10.9-6 7.5-2.5-1.8-2.7-5.1-.4-7.6 2.1-2.3 3.5-2.3 6.4.1m-671.5 2.5c3.5 5.4-3.7 11.5-8 6.7-2.3-2.6-1.7-6.2 1.4-7.8 3.6-1.8 4.7-1.6 6.6 1.1m324.8 3.3a87 87 0 0 0 23.4 38.3c6.2 6.3 6.8 9 2 9q-.7.1-.8 1.5c0 3.2-8.5-4-14.9-12.5l-3.2-4a128 128 0 0 1-12.6-23.5c-4.6-12-4.7-13.3-2.1-13.8 6.1-1.2 6.4-1 8.2 5m-309-2.1c3.4 3.3 1.1 8.4-3.7 8.4-5.2 0-7.2-3.4-4.7-8.1 1.3-2.3 6.2-2.6 8.4-.3m694.5 1.5a7.1 7.1 0 0 1-7.9 10.4c-2.8-.6-6-4.6-6-7.5 0-5.5 11.1-7.9 13.9-2.9m-650.1-.5c2.9 2 3 7.4.2 9.9-4.2 3.8-11 .9-11-4.7s6-8.6 10.8-5.2m436.2 1.1c.1 2.3 3 10.5 5.8 16.3a75 75 0 0 0 14.2 21.2c7.9 8.6 7.8 8.3 4.8 11.5-2.8 3-4.2 2.9-6.4-.4-.9-1.5-2.6-3.7-3.6-4.8a153 153 0 0 1-14.1-20.4 81 81 0 0 1-8.3-21l-.7-4.1h4.2c3.2 0 4.1.4 4.1 1.7m-189.5.4c1.4 2.1-.5 6-2.7 5.7-3-.4-4.5-3.2-2.9-5.2 1.5-1.8 4.7-2.1 5.6-.5m48.3 1.5c.4 2.6-2 3.7-4.3 2.1q-1.6-1.3-.9-3c.9-2.5 4.8-1.8 5.2.9m-201.4 1.5c1.7 8.7 12.3 25.7 22.3 35.7 8.3 8.3 8.1 8.1 4.9 11.1-3.1 2.9-4.4 2.2-11.6-6l-7.7-8.6c-1.3-1.3-2.3-3-2.3-3.8q0-1.3-.9-2c-3.1-1.9-13.8-25.3-12.8-28 1.2-3.1 7.4-1.9 8.1 1.6m31.3 2.6c-1.6 1.6-1.8 1.6-3.4 0-1.7-1.7-1.7-1.9.2-3.3 2.9-2.2 5.8.7 3.2 3.3m-47.7.7c0 1.8-2.1 3.5-3.6 2.9-1.7-.6-1.8-4-.1-4.6s3.7.3 3.7 1.7m526.6 1.8c1.6 5-4.8 8.6-8.6 4.8-2.6-2.6-2.5-3.1.5-6.4 2.7-2.9 6.9-2.1 8.1 1.6M197 276.8q-.1.2-1.1-.3A89 89 0 0 1 187 257c0-.5 10 19.3 10 19.8m294.8-18.6c1.9 1.9 1.4 4.6-1.2 6.3-4.2 2.8-8.9-1.4-6.3-5.5 1.3-2.2 5.6-2.7 7.5-.8m102.6.4c3.1 3 0 7.9-4.6 7.2-3.4-.5-3.9-6.4-.6-7.7s3.5-1.3 5.2.5m-17 1.5a6.6 6.6 0 0 1-4.2 11.9c-9.8 0-9.4-13.4.4-13.9.6-.1 2.3.8 3.8 2m-396.9.9c4.2 4.6.8 12-5.4 12q-5.6 0-6.7-5.7c-1.3-6.4 7.8-11.1 12.1-6.3m654.3-.4c4.6 3.2 1.7 11.4-4.1 11.4-1 0-2.8-1.1-4.1-2.3-5.4-5.4 2-13.5 8.2-9.1m48.6.7q1.2 1.8-.4 2.7c-3.5 2.2-6.5-.5-4-3.5q2.2-2.7 4.4.8m-667.2.4c4.5 4.1-.3 10.8-5.9 8.1-3.5-1.6-4.1-5-1.4-7.7q3.7-3.8 7.3-.4m207.8.7q0 4.3-3.4 3c-1.6-.6-2.2-3.5-.9-4.7a2.5 2.5 0 0 1 4.3 1.7m87.4-.2c5.2 7.4-3.7 15.8-10.2 9.8-3-2.8-3-8.3 0-10.4 3.3-2.4 8.4-2 10.2.6m265.1-.5c1.9.9 3.4 2 3.3 2.5a864 864 0 0 1-45.8 48.2c-4.1 3.5-9 8.9-9 10 0 3-7 6.8-9.5 5.2-4.4-2.9-3.2-4.9 10.3-17.9l24.5-25.9 22.4-23.7c.1-.1 1.8.7 3.8 1.6m-482.2 2.5c3.3 3.7 3.5 3.4-7.5 9.1-4.8 2.5-10.4 5.8-12.5 7.4l-8.7 6.6c-8.9 6.7-21.6 19-26.8 25.9-6.5 8.9-18.6 20.1-20.7 19.3a31 31 0 0 1-8.1-5.5c0-.3 1.8-1.3 3.8-2.2 3.8-1.8 14.3-12 19.4-18.9 5.2-7 27.1-27.4 30.8-28.7q1-.5 1-1.8.2-1.3 1.8-1.4c.9 0 6.2-2.9 11.7-6.5 11.6-7.4 12.1-7.5 15.8-3.3m113.3.4c4.3 4.2 1.1 11.4-5.1 11.4-7.1 0-9.7-10.4-3.3-13 3.8-1.5 5.8-1.1 8.4 1.6m335.1-.4c4.5 4.2 1.2 11.8-5.1 11.8-6.9 0-9.7-9.2-3.8-12.4 3.8-2.1 6.2-2 8.9.6m-487.1 2.4q2.6 4-1.6 7.9c-4.2 3.8-11.5-1.9-9.1-7.1a6 6 0 0 1 10.7-.8m70.1-2c.8 2.1-1.9 4.6-4 3.8-1.7-.6-2.3-3.5-1-4.7s4.4-.7 5 .9m123-.1 3.6 1.5-6.7 4.1c-14.1 8.5-39.1 29.7-43.7 37-3 4.7-19.1 20.9-20.8 20.9-1.7-.1-6.1-3.3-6.1-4.6 0-.4 4.2-4.9 9.2-10.1a158 158 0 0 0 10-10.6c5-8.7 43.2-39.7 49-39.7 1 0 3.5.7 5.5 1.5m172.1.6c.2 1.1-2.5 3.2-9 6.9-18.1 10.2-30.3 20.7-54.2 46.5l-8.3 8.9-3.1-2.4c-4.2-3.4-4-4.2 2-9.7 2.8-2.6 10.1-9.9 16.2-16.1a93 93 0 0 1 12.2-11.2c.6 0 2-1 3.1-2.3 2.8-3 7-6.1 15.6-11.5l12.2-7.8c5.6-3.7 12.7-4.4 13.3-1.3m66-.1c6.3 5.9-3.1 15.8-9.6 10.2-3.2-2.6-3.7-6.3-1.2-9.5a7.3 7.3 0 0 1 10.8-.7m-342 2.7c4.9 6.6-5.2 15.1-10.8 9.1-2.7-2.9-2.5-6.4.6-9.5 2.9-2.9 7.9-2.7 10.2.4m534.2 5.5c-.1 3.1-1.8 4.4-3.6 2.6-.9-.9-1.3-2.1-1-2.7 1-1.5 4.6-1.4 4.6.1m-524.2 3c-.3 2.6-3.6 3.7-4.9 1.7-1-1.7.8-3.9 3.3-3.9q2-.1 1.6 2.2m167.2 3.4c0 3.2-3.5 5-6.7 3.5s-2.9-6 .7-7.8c3-1.5 6 .7 6 4.3m386.5-3.1c3.9 3.8 2.5 9.6-2.7 11.4-6 2.1-11.6-3.7-8.7-9.1 2.8-5.3 7.5-6.3 11.4-2.3m-719.2 3.7c3.4 4 .1 11.8-5.1 11.8-3.2 0-7.2-3.8-7.2-6.9 0-6.9 7.8-10 12.3-4.9m204.2.3c0 2.5-.4 3.1-2.6 3.3-2.9.3-4.4-1.8-3.3-5 1-3.4 5.9-2 5.9 1.7m240.8-.7c4.3 3.8.3 12.2-5.9 12.2-5.5 0-9.3-6.9-6.1-11.1 3.1-3.9 8.1-4.4 12-1.1m158.8.1a7.6 7.6 0 0 1-9.8 11.6c-4.7-3.3-3.5-11.3 2-13.5 3.6-1.4 4.7-1.2 7.8 1.9m60.8-.5c4.3 4.6-.4 11.9-6.2 9.7-4.9-1.9-5.9-6-2.2-9.6 3.1-3.2 5.5-3.2 8.4-.1m-612.5.5c2.5 2.7.6 8.8-3 9.7-2.9.7-7-1.6-7.9-4.6-1.8-5.6 6.9-9.6 10.9-5.1m58.5.7c3.4 4.3 2.6 8.6-2 10.9-5.7 3-10.9.2-10.9-5.9 0-7.1 8.6-10.5 12.9-5m15.6 4c1.7 1.6 3.9 4 5 5.4 2.8 3.5-6.4-4.8-10-9q-4.7-5.5 5 3.6m144.3-3c5.3 5.9-1.8 15.2-8.7 11.3-4.3-2.4-5.9-6.3-4.1-9.6 3.1-5.6 8.5-6.3 12.8-1.7m105.2-1.7c1.2 2.4.4 4.8-2.2 6.2-4.1 2.2-8.1-1.8-5.8-6.1 1.4-2.7 6.5-2.7 8-.1m-28.2 2.5 2 3.4-5.3 6.4a106 106 0 0 1-82.8 35.6 44 44 0 0 1-11.5-1.4c-.4-.5-2.7-.9-5.2-.9-6.2-.1-28.6-8.2-33.9-12.2-.3-.2.9-1.8 2.7-3.5 3.1-3.1 3.1-3.2 6.4-1.5 8.1 4 21.4 8.2 31.6 10.1 3.4.6 3.9-.2 2.1-3.5-1.5-2.9.5-8.3 3.7-9.8 8.2-3.7 13.5 2.2 11 12.5l-.8 3.1 5.9-.7c12.3-1.5 18.6-3.2 32.7-8.9a106 106 0 0 0 35.7-28.6c3-4.3 3.2-4.3 5.7-.1m171.7 1.7c2.2 6.7-27.7 31-43.4 35.5-2.2.6-2.3.7-.6 1.6q2 1 .4 1.9-3 1.8-2.9-.4c0-1.1-1.1-1-5.3.4a107 107 0 0 1-84.9-9.8q-5.2-2.7-.3-6.9l2.6-2.2 7.2 3.7c20 10.3 44.2 13.5 39.8 5.2-2.4-4.4 4.3-10.4 9.4-8.5 5 1.9 7.7 8.4 5.1 11.9q-3.2 4.1.7 3l5.7-1.5a114 114 0 0 0 26.5-9.6 93 93 0 0 0 13-7.1c1.1-1 3.6-3 5.7-4.5q7.3-5.5 13.7-13.6 5.3-6.7 7.6.9m-343.6-1.5c2.6 3.3 2.6 3.8-.1 7-12 13.9-34 28.3-48.3 31.6-26.9 6.3-48.7 5-68.7-4-6.4-2.8-6.9-3.8-3.5-7l2.3-2.2 5.3 2.1c10.6 4 36.2 8.1 37.6 6q.4-1-.9-1.7c-3.8-1.4-4.5-9.6-1.1-12.9 7.3-7.3 18.9 2.7 12.5 10.8a11 11 0 0 0-2 3.2c0 1.5 17.4-2.8 24-6l9-4.3c7.7-3.8 20.9-14.1 26.3-20.6 4.4-5.4 4.9-5.5 7.6-2m-17.3 2.9c.7 1.8-1.3 4.5-3.3 4.5-1.7 0-2.7-2.4-1.9-4.5.7-2 4.5-1.9 5.2 0m-140.2 5.2 2.4 2.8-8 8.7a44 44 0 0 1-9.4 8.8q-1.3.1-1.4 1.3c0 4-26.8 25.7-38.2 31.1-8.8 4.1-7.6 4.7 8.2 4.1a60 60 0 0 0 29.8-6.6c3.5-1.6 6.7-2.9 7.2-2.9a22 22 0 0 1 8 5.3c0 1.4-19.6 10.4-25.8 11.7q-9.1 2-4.7 3.4c2.6.9 1.9 7.7-1 10.9-5.7 6.1-15.3.8-14.1-7.8l.6-4.5-18.8.1h-30.8l-12.2-.1-.4-2.8c-.8-5.5-.3-5.9 8.6-6.6 11.8-.9 32.6-7.1 32.6-9.7 0-.3-.9-1.4-2-2.4-6.8-6.1 2.9-17.9 11.1-13.5 2.1 1.2 5.1 6.3 4.7 8.2-.5 2.5 4.3.8 10.5-3.6 5.7-4 18.2-16.2 33.3-32.4 6.7-7.1 6.7-7.1 9.8-3.5m666.2 9.8a139 139 0 0 1-26.2 18.5 104.6 104.6 0 0 1-26.1 9c-1.2 0-2.4.4-2.7.9s-3.6.9-7.3 1.1l-12.3.4c-23.5.9-65.7-15.6-57.5-22.4 1.6-1.3 6.5-.6 6.5 1q.2 1 1.5 1t1.5.9c0 .5 1.5 1.4 3.3 2.1l10.2 4.5c4 1.8 10.5 3.7 15 4.4l10.3 1.8q2.3.7 2.2-1.1-.1-1.5-1.4-1.6c-3.6 0-3.5-8.1 0-10.9 7-5.5 17.7 1.8 12.8 8.7q-3.8 5.7 6.5 4.7a79 79 0 0 0 23.2-5.3c12.3-3 43.4-25 38.1-26.9q-1-.6-.6-1.4c.3-.5 2.1.7 4 2.8l3.4 3.8zm-389.4-7.8c2.4 2.1 2.4 8.5.1 10.5A8 8 0 0 1 471 297c0-4.8 9.3-7.9 13.2-4.3m-207.4 2.9c6.1 6.9-4.8 16.5-11.5 10.2-3.3-3.1-3.1-8.1.4-11.4 3.4-3.2 7.7-2.7 11.1 1.2m331.8-1.1c2.6 2.6 2.6 3.1.3 9.2-1.7 4.6-9.9 4.2-12.4-.7-4-7.8 5.9-14.7 12.1-8.5m48.9 0c3.2 3.1 3.2 6.9 0 10-3.1 3.2-7.7 3.3-10.5.3-6.6-7.1 3.7-17.2 10.5-10.3m-223.2 1.2c3.6 3.3 1.7 10.4-3.3 12.2-5.5 1.9-10-1.2-10-6.9 0-7 7.8-10.1 13.3-5.3m386.5.6a8 8 0 0 1-1 10.3c-6.6 5.5-15.1-.7-11.8-8.6 1.9-4.7 9.6-5.7 12.8-1.7m-503.4-.2c4.9 3.8 3.1 11.1-3.1 12.8-8.7 2.4-13.5-8.1-6.1-13.3q4.4-3.3 9.2.5m459.3.5c2 2 2.4 3.1 1.9 5.7-1.5 7.6-10.7 9.3-14.2 2.5-3.9-7.5 6.2-14.3 12.3-8.2m-234.3.7q1.2 1.6-.7 3.4c-1.7 1.9-1.4 5.5.6 8.1 1.6 2.1-1.7 4.9-3.7 3.2-2-1.6-2-3.6-.1-4.4 1.6-.6 1.1-6-.8-8.4q-.9-1.2.3-2.7 2.2-2.8 4.4.8m-171.3.3c1 1.2 1 2 .1 3.5-2 3.2-1.4 4.3 1.4 2.4 2-1.3 2.8-1.4 4-.4 3.3 2.8.4 6.6-3.3 4.2-2.6-1.7-4.4-1-2.5.9 3.4 3.4 0 7.6-3.8 4.8-2.3-1.7-2.3-2-.9-3.7 2.6-2.9 2.9-6 .8-8.2q-3.3-3.4-.6-4.4c2.2-1 3.4-.7 4.8.9m341.9-.1c1 1.3 1 1.9-.4 3.3-.9 1-1.6 2.6-1.6 3.5 0 3.5-1.8 1.5-2.3-2.5-.8-5.8 1.3-7.9 4.3-4.3m-346.6 6.4c1.6 2.5-3.4 4.5-5.6 2.3-2.2-2.1-2.2-2.2-.3-3.6a4 4 0 0 1 5.9 1.3m170.5-1.6c1.9 2.4-1.3 5.7-3.5 3.5-1.8-1.8-1.3-4.8.9-4.8.8 0 2 .6 2.6 1.3m11.1.3c1.7 1.9-.8 4.8-3.3 3.8-2-.7-2.2-2.5-.5-4.2 1.6-1.6 2.3-1.5 3.8.4m160 2.3c0 2.1-4 4.4-5.5 3.1q-3-2.3.2-4.5c1.8-1.3 5.3-.4 5.3 1.4m10.7-1.3c.6 1.5-1.9 4.4-3.8 4.4-1.3 0-1.9-3.3-.8-4.6 1.6-1.9 3.8-1.8 4.6.2m-507 .4c7.6 2.7 6 11.1-2.4 13.2-6.3 1.6-9.9-8-4.7-12.1 3.1-2.4 3.1-2.4 7.1-1.1M379 329.7c10.2 6.8 12.5 8.2 16 9.8 1.9.8 4.9 2.4 6.5 3.4 21 12.7 65.8 14.5 97 4a85 85 0 0 0 22-10.6c1.1-.7 4.2-2.5 6.9-3.9l4.9-2.6 2.5 2.6c2.2 2.1 2.4 2.7 1.2 4.1-3.3 4-26.7 16.2-36.4 19-6.8 2-7.2 2.5-4.6 6.7q3.8 6.2 0 11.1c-6.1 7.8-18.5.6-15.2-8.7l1.2-3.7c0-.3-4.4.1-9.7.9-15.6 2.2-30.6 1-55.2-4.5-2.1-.5-2.2-.3-1.5 1.8 2.4 6.9-1.4 12.9-8.2 12.9-8 0-11.6-10.1-5.4-15.3 4-3.4 4.4-2.9-6.7-8.2A129 129 0 0 1 357 322l-11.4-11 3.3-2.8 3.4-2.8 10.6 10.3a155 155 0 0 0 16.1 14m507.9-22.1c3.1 4 2.8 8-.9 9.9-5.5 2.9-10.4.9-11.2-4.5-1.1-7.2 7.7-11 12.1-5.4m-358.4 1.7q.7-.6 0 .5c-.8 1.6 10.3 12.7 17 17.1a121.1 121.1 0 0 0 66 25.6c3.9.3 8 .8 9.3 1.1q2.3.4 2.9-1.2t1.3-.4c3 4.9 50.7-4.8 61-12.4l3.5-2.2 6.2-3.4 4.2-2.3 2.5 2.9a14 14 0 0 1 2.6 3.6c.1 3.1-38.6 20.8-45.5 20.8-2.5 0-1.7 1.4 1.5 2.8 9.1 4.1 6.4 17.2-3.5 17.2-7.5 0-11.9-9.4-6.9-14.5q4-4-6.9-2.2c-8.7 1.5-33.7.5-43.1-1.7-7.6-1.8-8.3-1.7-6.7 1.2 4.4 8.2-6.8 16-14.3 10.1-3.4-2.6-3.7-9.6-.6-12.4 2.9-2.6 2.7-2.9-4.2-6l-9.8-4.2c-5.1-2.3-16.9-9.2-21.5-12.7a183 183 0 0 1-18.1-15.6c-8.8-10-8.6-9.5-4.6-12.6 2.7-2.2 2.7-2.2 4.8-.3 1.1 1 2.4 1.6 2.9 1.2m171.5 6.4q.2 1 2 2.3c1.1.8 2 2 2 2.7q.1 1.2 1 1.3t1 2q0 1.9 1.8 2c2.8 0 7.3 4.5 6.5 6.5q-.9 2 1.5 1.3 2-.7 7.9 3.8c3.2 2.4 6.1 4.4 6.4 4.4s4 2 8.3 4.4a141 141 0 0 0 86.6 12.3c20-4.8 36.8-11.5 47-18.7 3.8-2.7 5.2-2.7 9.3.1l3.8 2.7-7.8 4.5a160 160 0 0 1-26.5 12.7c-4 0-5.2 2.5-2.8 5.8a8.7 8.7 0 0 1-8.4 13.9c-5.3-.7-7.5-3.8-7.6-10 0-4.3-.2-4.7-1.8-3.8-8.3 4.5-49.9 4.1-65.4-.5-1.4-.4-1.8.1-1.8 2.4 0 9.4-15.4 10.7-17.9 1.6-1-3.6.2-8.4 2.1-8.4 2.1 0 .5-1.9-2.2-2.5-3.5-.8-17.2-7.9-21.6-11.2a14 14 0 0 0-4.2-2.3q-1 0-1.4-.8a256.3 256.3 0 0 1-31.9-30.4c-.7-1.4-.2-2.2 2.8-4.2l3.7-2.6 3.8 4c2.1 2.1 3.8 4.3 3.8 4.7M283.7 311c.6 1.6.7 3.2.3 3.5-1 .6-1.5-.1-2.4-3.8s.7-3.5 2.1.3m428.3-1.4c2.1 2.5-1.8 6-4.5 4-1.9-1.4-1.9-1.5-.1-3.5 2.3-2.5 3-2.6 4.6-.5m162 10.5c8.7 8.2 18.7 16 23.1 17.9a160.9 160.9 0 0 0 28 12.4c6.9 1.2 11.9-3.1 7.1-6-6.5-4.1-23.1-18.7-23.2-20.5 0-.3 1.1-1.1 2.4-1.8 2.7-1.5 3.9-1 13.1 5.9 10.2 7.7 12.4 8.2 12.5 3.3 0-2.5 4.3-5.3 8.1-5.3 8 0 11.8 9.9 5.9 15.5-4.3 4.1-3.8 4.9 2.3 4.1 2.8-.4 9.6-.9 14.9-1.3l9.7-.6 1.1 2.7c1.2 3.2 1.3 7.3.3 7.9s-27.3 2.3-39.5 2.6c-5.8.1-5.8.1-5.8 3.2 0 6.1-3.5 9.8-9.3 9.9-6.5 0-11.5-7.8-7.5-11.8 1.7-1.7.5-2.5-7.9-5.5-4-1.4-10.2-4.4-13.9-6.7-3.6-2.2-6.8-4-7-4a252 252 0 0 1-25.2-21.3l-4.1-3.9 2.7-2.4c3.5-3.1 2.5-3.5 12.2 5.7m-676.2.4c2.6 2.5 5.2 4.5 5.9 4.5q1 .1 1.5.8c1.1 3 24.4 16 34.3 19.3a101.7 101.7 0 0 0 20 5.9c33.8 7.2 68.9.9 100.3-18l3.3-2 3.8 3.2 3.8 3.1-3.1 2.7c-5.7 5-27.4 15.2-39.4 18.5-5 1.4-6.2 2.1-5.7 3.4 3.8 9.5-3.7 17.1-12.4 12.6-3.3-1.7-4.1-3.3-4.1-8.2 0-3.2-.2-3.5-2.2-2.9-7.7 2.3-26.5 1.5-46.9-1.9-2.6-.4-2.7-.3-2.2 3.4.7 5.4-2.6 9.1-8.5 9.4-7.3.2-11.2-6.7-7.4-13.6l2.1-3.8-2.7-.9-4.4-2a7 7 0 0 0-2.7-1c-5 0-30.6-15.8-39-24-6.7-6.6-6.8-6.7-3.6-10 3.7-3.8 3.6-3.8 9.3 1.5m316.3.4c4.9 5 1.9 12.4-5 12.4a7.2 7.2 0 0 1-4.5-13c3.8-3 5.9-2.9 9.5.6m-168.9 1.3c3.7 4.7-.2 11.8-6.5 11.8-4.2 0-6.7-2.5-6.7-6.8 0-7.6 8.6-10.8 13.2-5m229.1 0c3.2 3.8 1.8 9.1-3 11.6-5.8 3.1-13-5.7-9-10.9 3.3-4.3 8.7-4.6 12-.7M405 323c4.5 4.5 1.3 13-4.9 13-5.4 0-9.4-6.4-6.6-10.7 2.9-4.4 8.3-5.5 11.5-2.3m278 0c4.3 4.3.9 13-5 13-5.3 0-9-7.8-5.7-12.1 2.5-3.3 7.8-3.8 10.7-.9m-435 1c4.6 4.6 3.4 11.1-2.5 13.6-4.3 1.8-9-.1-10.6-4.3-2.9-7.7 7.3-15.1 13.1-9.3m498.3 2.2c3.5 4.8.3 10.8-5.9 10.8-7 0-10-7.8-4.7-12 3.6-2.8 8-2.3 10.6 1.2m-645.4-1c10.7 3.6 20.5 13.8 16.9 17.5-2.8 2.7-8.4 2.8-9.1.1-2.9-11.2-24.8-13.2-30.2-2.7-2.1 3.9-.2 7.3 4.4 8.2 2.9.6 3.1.9 3.1 5.3v4.7l-8.2-.6c-8-.5-18.5-3.2-24-6.2-1.4-.8-3.7-1.5-5-1.5s-2.9-.5-3.5-1.1c-1.6-1.6-9.1-1.5-10.6.1q-1.7 1.4 2.3.6c1.9-.3 4.2-.1 5 .4 4.2 2.6-9.4 6.5-19.3 5.5-3.4-.3-8.3-.2-10.9.3-7.6 1.5-5.7-2.6 5-10.6 7.1-5.3 35.4-10.5 43.2-7.9 8.2 2.6 8.5 2.6 11.1-1.1a27 27 0 0 1 29.8-11m490.8 2c4.9 4.5 1.6 12.8-5.1 12.8-6.8 0-9.8-7.5-5-12.4 3.2-3.2 7-3.3 10.1-.4M326 329c4.8 4.8.2 13.9-6.3 12.6-4-.8-5.5-2.3-6.3-6.3-1.3-6.5 7.8-11.1 12.6-6.3m97.5.5c4.8 4.8 2 12.5-4.5 12.5-8.4 0-10.3-10.9-2.5-14 3.3-1.4 4.5-1.1 7 1.5m71.9-1.4c8.4 3.9 2.7 17-5.8 13.5-5.7-2.3-6-10.6-.6-13.3 3.1-1.6 3.3-1.6 6.4-.2m361.6.9c4.4 4.4.8 12-5.6 12-4.2 0-7.8-4.2-6.9-8 1.3-5.6 8.6-7.9 12.5-4m134.5 5.2c1.7 16.3.3 29.8-3.8 36.4-8.3 13.3-8.8 39.4-.8 39.4q10.2 0 7.6 18.7-1.4 8.8-2.9 2.6c-.4-1.4-4.4-6.1-9.1-10.5-11.9-11.2-14.3-19.4-9.6-31.8l2.2-5.5-2.9-2.5c-4.5-3.9-10.4-19.2-8.6-22.2 1.8-2.9 8.1-.7 9.4 3.2q3.3 10.4 7.7 1.7c1.3-2.7 1.5-5.5 1-18.8-.7-17.6-.9-16.9 4.9-16.9h4.2zm-806.1-1.9c2.3 3.6-3.6 7.4-7 4.7q-2.8-2.6.2-6.1c1.8-2 5.1-1.3 6.8 1.4m476.3-1.1c5 4.7.5 13.7-6.2 12.4-4.2-.9-5.7-2.8-5.7-7 0-7 6.9-10.1 11.9-5.4m-355 1c2.6 2.1 2.7 7.7.2 10.4-4.8 5.1-12.9 2.2-12.9-4.6 0-6.3 7.8-9.9 12.7-5.8m604.4-.3q3.9 3.2-1.4 6.5c-3.6 2.3-7.5-3.6-4.7-7 1.7-1.9 3.3-1.8 6.1.5m86.3 2c.7 2.5.6 3.5-.5 4.2-2.5 1.5-2.9 1-2.9-3.7 0-5.4 1.9-5.6 3.4-.5m-730.2-1.2c6.1 7.1-2.2 17-9.5 11.3-3.5-2.7-4.1-5.3-2.3-8.9 2.3-4.4 8.9-5.7 11.8-2.4m181.5 1.5c5.1 4.7 1.2 13.3-5.7 12.6s-9.2-10-3.2-13.3c3.8-2 6.2-1.8 8.9.7m25.1-.6c5.7 4 .7 14.3-6.3 13-4.2-.9-5.9-3-5.9-7.2 0-6.3 6.9-9.6 12.2-5.8m140.7.9c5.5 5.4.7 13.5-7.1 12-6.1-1.1-7.4-7.5-2.7-12.7 2.3-2.6 6.9-2.3 9.8.7m25.9.5c2.6 2.5 2.5 7.6-.2 10.2-6.1 6.2-16.5-2-11.6-9 3.1-4.4 7.9-4.9 11.8-1.2m128.1 0c2 3.8 1.9 5.2-.6 8.4-3.9 4.9-12.9 2-12.9-4.3 0-6.8 10.4-10 13.5-4.1m-478.9.5c4.3 6.5-5 15-10.8 9.8-2.3-2-2.4-8-.1-10.5 2.5-2.8 8.8-2.4 10.9.7m545.9 1.8q3.1 4.5-.6 9.1c-3.7 4.7-11.2 2.6-12.1-3.4-1.1-7.3 8.6-11.6 12.7-5.7m-739-1.1c.2.7.6 8.9.9 18.3l.6 17.2c.2 2.4 10.9-4.2 11-6.7 0-4.2 3.5-6.1 9.3-5.1 4.1.7-4.2 15.2-10.5 18.3-5.6 2.7-5.6 2.9-1.9 11 9.2 20.1 10.4 37 3.5 47.9-3 4.8-2.2 5.1-7.2-2.5-8.1-12.2-7.6-21.6 1.3-21.6 3.3 0 3.2-1.9-.6-6.6A73 73 0 0 1 89.2 371c-1.9-16.4-2.4-34.8-1-35.3 2.6-1 7.9-.7 8.3.5m75.5 3.3c0 1.9-2.5 3.6-4.4 2.9-2.1-.8-2.1-4 .1-5.3 2-1 4.3.3 4.3 2.4m617.4.1c1.7 1.7 1.9 2.5 1.7 6.4-.6 8.1-14.1 7.4-14.1-.7 0-5.9 8.4-9.7 12.4-5.7m19-.5c6 2.8 5.1 12-1.3 13.4-7.5 1.6-12.1-6.8-6.5-12 3-2.8 4.2-3 7.8-1.4M890 346l2.5 2.1-3-.7c-3.9-.9-4.7-1.3-4-2.5.9-1.3 1.7-1.1 4.5 1.1m89 14.5q0 2.5-1.5 2.5-1.4 0-1.5-2.5 0-2.5 1.5-2.5 1.4 0 1.5 2.5m-865.4 30.1c-.4 1.3-1 2.4-1.4 2.4-.9 0-.5-5.4.6-8 .8-2.2 1.5 2.6.8 5.6"/><path d="M930 37.5c-1.6 3 0 5.5 3.4 5.5 4.2 0 5.9-3.6 3-6.4-2.3-2.3-4.9-2-6.4.9M959.8 59.1c-4 2.3-.6 8.9 3.6 7.3 2.6-1 3.2-5.5 1.1-7.1-2.2-1.5-2.5-1.6-4.7-.2M128.3 53.7c-2 .8-1.5 4.1.8 5.4 1.7.9 2.5.8 3.7-.5 2.7-2.7-.8-6.5-4.5-4.9M101.1 83.2c-1 2.6.3 5.8 2.2 5.8 2.9 0 5-2.6 4.3-5.3a3.4 3.4 0 0 0-6.5-.5M141.5 165c-1.1 1.7.6 5 2.5 5s3.6-3.3 2.5-5c-.3-.5-1.5-1-2.5-1s-2.2.5-2.5 1M130.7 216.7c-1.2 1.1-.8 4 .6 5.2 1.8 1.4 5.2-2.1 4.4-4.4-.6-1.5-3.8-2.1-5-.8M142.5 273.6c-.9.9-1.4 2.3-1.1 3.1l.6 1.9c0 1.5 5 .1 5.5-1.6 1.2-3.9-2.2-6.2-5-3.4M51.1 152.4c-5.8 6.9 1.4 20.2 14 26.1 10.3 4.7 18.2 12.6 20.5 20.5 1.9 6.2 3.2 5.1 1.5-1.3q-2.7-11-15-23a52 52 0 0 1-9.2-11.2l-1.3-3.4-2.4 2c-1.3 1-2.9 1.6-3.5 1.2-.6-.3.1-1.4 1.6-2.5 3.1-2.2 3.5-5.8 1.1-8.2-1.9-2-5.8-2.1-7.3-.2"/><path d="M66 155.4c-2.7 7.1 1.8 13.6 10 14.4 7 .6 6.7-1.3-1.9-10.2l-7-7.1zM57.9 192.9c-5 5.1-2.9 12.1 3.7 12.1 2.9 0 3.8-.6 5.5-3.5 2.3-3.8 6.5-4.8 9.1-2.2a16 16 0 0 0 3.7 2.6c1.2.7 3.3 3.6 4.6 6.4q2.5 5.4 2.4 2.9c.4-13.1-20.8-26.5-29-18.3"/><path d="M71.2 210.8c-5.4.8-6.9 9.6-2 11.9 3.4 1.7 5.3.9 7.9-3.3 3.3-5.4 8.3-3.2 12.3 5.6l1.6 3.5-.4-3.8c-1.1-8.6-10.4-15.3-19.4-13.9M98.4 249.5c-1 2.5.4 4.5 3 4.5 2.5 0 4.4-3 3.1-5-1-1.5-5.5-1.2-6.1.5M993 177.1c-4.1 1.7-9 5.9-9 7.7q-.2 2 1.6-.6c1.7-2.5 6.4-5.2 9-5.2q1.8 0 .6 1.2c-3.7 4.5 3.1 10.5 7.7 7 6.8-5.2-1.5-13.6-9.9-10.1M991.3 222.6c-.9 2.4 1 4.9 3.8 4.9 3.8 0 3.5-5.9-.4-6.3q-2.7-.4-3.4 1.4M140 328c-1.5 2.7-.6 5 1.8 5 4.3 0 5.7-6.2 1.5-6.8q-2.2-.3-3.3 1.8M164.7 361.6c-1.3 1.3-.7 5.5.8 6 2.1.9 4.7-1.5 4.3-4-.3-2.1-3.7-3.4-5.1-2"/></svg>