<svg version="1.0" xmlns="http://www.w3.org/2000/svg"
 width="2587.000000pt" height="1067.000000pt" viewBox="0 0 2587.000000 1067.000000"
 preserveAspectRatio="xMidYMid meet">
<metadata>
Created by potrace 1.13, written by Peter Selinger 2001-2015
</metadata>
<g transform="translate(0.000000,1067.000000) scale(0.100000,-0.100000)"
fill="currentColor" stroke="none">
<path d="M13248 10427 c-29 -9 -68 -17 -88 -16 -109 2 -465 -12 -520 -21 -36
-6 -112 -13 -170 -15 -147 -5 -363 -22 -440 -35 -85 -13 -128 -17 -290 -30
-74 -5 -157 -14 -185 -20 -27 -5 -95 -9 -150 -9 -91 1 -154 -5 -370 -32 -38
-4 -106 -13 -150 -18 -144 -18 -213 -29 -225 -36 -6 -4 -50 -11 -98 -16 -351
-38 -613 -82 -781 -131 -35 -10 -78 -18 -96 -18 -19 0 -46 -5 -62 -11 -15 -6
-68 -15 -118 -19 -49 -5 -126 -19 -170 -30 -44 -12 -111 -30 -150 -40 -67 -17
-259 -18 -4215 -16 l-4145 2 -52 23 c-38 17 -57 20 -65 13 -10 -8 -13 -983
-12 -4824 1 -4529 0 -4816 -16 -4870 -22 -71 -12 -85 53 -73 53 10 96 9 222
-3 103 -9 611 -8 1320 3 248 4 419 2 450 -4 78 -15 89 -3 103 111 8 64 8 105
2 130 -8 28 -6 53 9 110 10 40 22 110 25 154 3 45 15 108 26 139 11 32 20 74
20 94 0 34 22 127 55 232 8 26 15 57 15 70 0 28 38 168 81 294 17 50 49 146
71 215 22 69 50 150 63 180 13 30 33 87 45 125 12 39 35 90 51 114 16 25 29
52 29 61 0 10 13 46 29 81 15 35 40 100 55 143 15 43 45 115 66 158 22 44 40
84 40 90 0 5 9 23 21 39 11 16 38 64 59 107 21 42 68 131 105 197 96 171 95
169 95 181 0 25 198 336 269 423 20 24 47 63 61 86 54 90 66 109 108 162 24
29 60 80 80 112 39 61 127 173 177 225 16 17 50 59 75 92 105 143 137 183 200
254 36 41 81 98 100 125 44 65 111 143 180 208 30 29 119 116 198 195 80 79
168 161 197 182 29 22 63 53 74 69 12 16 52 51 89 77 37 26 91 68 120 92 29
25 70 57 92 71 21 14 86 67 143 117 57 50 123 104 148 119 24 16 67 47 94 70
46 39 189 138 303 208 25 16 64 43 86 61 36 29 183 127 271 180 17 10 41 29
55 41 14 13 70 47 125 75 55 29 133 73 174 99 79 49 169 99 316 176 50 26 104
58 121 71 18 13 51 31 74 40 24 10 92 44 151 76 59 32 114 58 121 58 8 0 36
14 63 31 28 17 67 38 88 45 21 7 59 25 85 38 96 51 313 147 359 160 47 13 115
39 201 77 23 11 50 19 60 19 9 0 51 13 92 29 106 41 523 179 595 196 33 9 80
22 105 30 25 8 55 15 68 15 12 0 40 9 62 20 22 11 49 20 60 20 12 0 49 9 83
19 34 11 98 28 142 37 44 9 121 27 170 39 50 12 117 27 150 34 33 7 83 18 110
25 50 14 80 21 206 51 36 8 104 20 150 25 46 6 104 17 129 25 25 8 85 21 133
30 48 8 97 20 109 26 11 6 49 11 83 10 34 0 86 6 116 13 30 8 108 19 174 26
66 6 147 15 180 21 33 5 105 12 160 15 55 2 130 9 166 15 36 6 106 12 155 14
95 4 182 9 414 22 260 15 933 5 964 -14 5 -4 46 -8 91 -9 129 -4 224 -13 315
-29 47 -8 130 -20 185 -25 55 -6 106 -13 114 -15 7 -3 68 -10 135 -15 66 -6
145 -17 174 -26 29 -8 74 -14 100 -13 26 2 83 -7 127 -18 44 -12 103 -25 130
-28 28 -4 84 -18 125 -30 87 -26 178 -44 256 -51 31 -3 76 -14 100 -25 25 -10
66 -19 90 -19 25 0 59 -7 77 -16 34 -18 88 -32 267 -69 105 -22 389 -103 485
-139 22 -8 61 -15 86 -16 27 0 69 -10 100 -24 30 -14 117 -41 194 -61 175 -45
293 -83 325 -105 14 -9 70 -33 125 -53 97 -34 278 -108 360 -146 145 -68 174
-81 182 -81 8 0 171 -78 393 -190 63 -31 131 -62 150 -69 42 -14 422 -204 459
-230 14 -10 46 -29 71 -41 49 -25 190 -111 365 -223 61 -39 137 -85 170 -102
107 -56 159 -88 205 -126 25 -20 70 -53 100 -72 30 -19 66 -47 80 -62 14 -15
43 -36 65 -47 22 -12 69 -47 105 -78 36 -32 83 -69 105 -84 22 -14 81 -60 130
-102 50 -41 114 -94 144 -116 102 -77 286 -254 596 -572 288 -296 352 -367
429 -471 17 -22 58 -69 92 -105 33 -36 78 -92 99 -125 21 -33 53 -78 72 -100
63 -74 236 -312 276 -382 58 -100 103 -170 138 -213 20 -25 49 -67 63 -95 15
-27 33 -61 41 -75 8 -14 46 -90 85 -170 40 -80 78 -152 85 -160 7 -8 52 -100
100 -205 48 -104 105 -228 126 -274 22 -46 39 -89 39 -96 0 -6 20 -53 45 -103
24 -50 51 -114 59 -142 8 -28 31 -88 50 -133 48 -114 126 -362 133 -422 4 -27
15 -70 26 -95 30 -70 47 -132 47 -171 0 -19 6 -55 14 -80 8 -24 24 -100 36
-169 12 -69 28 -159 37 -200 26 -125 42 -327 48 -604 2 -98 7 -181 10 -184 3
-4 162 -5 353 -3 321 3 349 4 378 22 42 26 100 24 166 -5 54 -24 60 -24 249
-19 252 6 289 6 644 0 345 -6 353 -5 339 61 -9 44 -9 33 -29 6607 -3 880 -6
1958 -8 2395 l-3 795 -64 5 c-36 3 -1935 5 -4220 5 -3500 -1 -4166 -3 -4223
-15 -61 -12 -76 -12 -135 2 -37 9 -83 20 -102 24 -19 3 -61 17 -92 30 -38 16
-77 24 -115 24 -31 0 -82 6 -112 14 -86 21 -201 45 -252 51 -25 3 -74 19 -110
36 -41 20 -85 33 -124 36 -33 2 -89 10 -125 18 -36 8 -87 19 -115 25 -27 5
-75 17 -105 25 -38 11 -74 14 -117 9 -50 -5 -77 -2 -135 17 -49 15 -100 23
-158 24 -47 1 -122 7 -167 13 -46 7 -119 16 -163 21 -44 5 -84 13 -90 16 -6 4
-122 7 -258 7 -136 -1 -290 4 -342 10 -52 5 -191 11 -308 11 -179 2 -221 -1
-264 -16z m532 -209 c109 -2 501 -29 526 -37 16 -6 115 -15 219 -22 387 -23
548 -41 675 -73 52 -14 129 -27 170 -31 92 -8 251 -32 305 -46 22 -5 72 -14
110 -20 71 -9 120 -17 230 -39 33 -6 90 -15 126 -20 87 -12 230 -45 350 -81
56 -17 119 -29 152 -29 31 0 68 -5 84 -11 15 -7 60 -15 98 -19 108 -10 199
-35 430 -116 39 -14 104 -33 145 -44 41 -10 98 -28 125 -40 28 -13 66 -26 85
-31 61 -14 304 -99 329 -116 13 -8 67 -29 120 -45 53 -16 131 -45 174 -64 42
-20 112 -46 155 -59 118 -35 282 -110 587 -269 55 -29 114 -58 130 -65 17 -7
62 -30 100 -51 39 -21 95 -51 125 -65 30 -15 66 -35 80 -45 20 -14 202 -110
423 -222 20 -10 72 -41 113 -68 42 -28 82 -50 89 -50 7 0 35 -15 61 -33 27
-19 78 -47 113 -62 35 -16 84 -46 110 -67 25 -21 51 -38 57 -38 6 0 37 -18 68
-40 32 -22 79 -52 104 -66 85 -46 156 -94 197 -133 22 -21 83 -66 135 -101 52
-35 106 -71 120 -80 14 -10 57 -38 95 -63 39 -25 80 -56 90 -68 11 -12 57 -45
102 -75 44 -29 98 -68 120 -87 21 -19 65 -51 98 -72 33 -21 85 -61 117 -89 31
-28 95 -82 143 -121 87 -70 219 -183 242 -207 7 -7 50 -53 95 -101 45 -48 104
-104 130 -124 51 -37 184 -167 308 -302 41 -45 89 -91 106 -101 17 -11 47 -43
66 -72 19 -29 74 -96 122 -148 49 -52 105 -117 127 -145 21 -27 57 -72 79
-100 22 -27 74 -99 116 -160 42 -60 89 -123 104 -140 15 -16 42 -52 61 -78 19
-26 57 -80 86 -120 29 -40 63 -92 77 -117 13 -25 39 -65 57 -90 43 -58 184
-288 392 -640 44 -74 99 -164 122 -200 24 -36 54 -90 66 -120 12 -30 30 -66
40 -80 9 -14 46 -92 83 -175 36 -82 75 -168 87 -189 35 -64 120 -257 139 -316
10 -30 32 -88 49 -129 17 -40 31 -79 31 -87 0 -8 14 -45 31 -82 17 -37 39 -94
49 -127 21 -70 67 -196 100 -275 66 -158 92 -227 134 -352 25 -75 46 -145 46
-155 0 -10 11 -42 25 -71 27 -58 44 -198 39 -312 -2 -36 -4 -136 -5 -222 -1
-87 -4 -158 -8 -158 -5 0 -16 28 -25 63 -40 146 -144 434 -188 522 -14 28 -35
88 -48 135 -21 78 -44 150 -114 350 -48 134 -57 164 -82 249 -14 46 -34 102
-45 123 -11 21 -33 73 -48 116 -16 42 -47 122 -69 177 -23 55 -55 138 -73 185
-17 47 -44 105 -59 130 -15 25 -33 63 -40 85 -13 43 -98 244 -111 260 -4 6
-47 89 -96 185 -84 165 -167 306 -220 376 -12 17 -23 35 -23 41 0 5 -13 28
-30 51 -16 22 -36 58 -45 78 -9 21 -23 47 -33 57 -19 21 -59 89 -96 162 -28
55 -133 218 -197 305 -22 30 -70 105 -106 165 -36 61 -79 126 -95 145 -84 100
-110 135 -135 178 -30 53 -74 107 -163 202 -33 36 -82 94 -109 130 -28 38 -65
75 -89 88 -23 13 -42 31 -42 40 0 9 -8 29 -18 44 -36 55 -389 413 -492 500
-95 80 -158 135 -369 323 -37 33 -112 92 -166 130 -54 39 -138 104 -186 145
-48 41 -108 91 -134 110 -25 19 -61 47 -78 61 -31 25 -217 143 -267 169 -13 7
-47 34 -75 61 -44 41 -108 85 -260 176 -22 14 -56 35 -75 49 -137 95 -287 192
-355 231 -44 25 -105 63 -137 84 -31 21 -85 53 -120 70 -34 18 -81 44 -103 59
-22 15 -80 48 -130 75 -49 26 -123 68 -163 92 -159 95 -562 273 -619 273 -16
0 -96 35 -323 140 -175 81 -291 129 -331 136 -19 3 -126 36 -239 74 -113 37
-250 82 -305 99 -110 36 -195 67 -295 110 -58 24 -246 85 -400 128 -30 8 -80
23 -110 33 -63 21 -290 80 -400 105 -41 9 -111 28 -155 42 -44 14 -127 31
-185 38 -58 7 -150 27 -205 43 -55 16 -143 35 -195 42 -52 7 -117 20 -145 30
-85 29 -187 58 -245 70 -30 6 -80 17 -110 25 -86 21 -160 35 -220 39 -30 2
-86 10 -125 16 -38 6 -126 13 -195 15 -69 2 -192 11 -275 20 -82 9 -244 18
-360 21 -115 3 -223 9 -240 14 -16 5 -95 7 -175 5 -80 -2 -154 -3 -165 -3 -79
4 -128 0 -180 -15 -36 -10 -114 -18 -197 -21 -75 -2 -146 -9 -157 -15 -14 -8
-28 -8 -47 -1 -27 11 -259 -1 -324 -16 -26 -6 -240 -23 -345 -28 -33 -2 -84
-8 -114 -14 -29 -7 -75 -12 -102 -12 -26 0 -94 -9 -151 -21 -57 -11 -150 -24
-208 -29 -270 -24 -339 -32 -389 -46 -30 -9 -98 -20 -150 -25 -53 -5 -121 -13
-151 -19 -30 -6 -89 -12 -130 -15 -73 -4 -152 -18 -217 -37 -17 -5 -87 -15
-155 -23 -67 -8 -141 -18 -163 -24 -101 -25 -225 -44 -275 -42 -30 1 -89 -7
-130 -17 -227 -59 -297 -74 -480 -103 -41 -7 -92 -18 -114 -26 -21 -7 -51 -13
-66 -13 -15 0 -78 -15 -141 -34 -63 -18 -141 -40 -174 -47 -33 -7 -87 -25
-120 -41 -33 -15 -68 -28 -78 -28 -10 0 -34 -7 -55 -16 -20 -8 -62 -20 -94
-25 -31 -5 -105 -25 -164 -44 -59 -19 -121 -35 -136 -35 -16 0 -81 -20 -146
-44 -64 -25 -171 -62 -237 -84 -66 -21 -147 -53 -179 -71 -32 -17 -91 -40
-130 -51 -39 -11 -102 -34 -141 -49 -38 -16 -101 -39 -140 -51 -38 -12 -99
-37 -135 -55 -36 -18 -76 -35 -90 -39 -14 -4 -120 -55 -237 -112 -117 -57
-216 -104 -220 -104 -13 0 -176 -66 -218 -88 -22 -12 -69 -35 -105 -51 -36
-17 -72 -34 -80 -39 -8 -5 -64 -33 -125 -64 -190 -95 -458 -245 -510 -285 -27
-21 -63 -43 -80 -48 -16 -6 -64 -33 -105 -61 -228 -152 -371 -252 -420 -293
-30 -26 -80 -64 -110 -86 -30 -21 -73 -55 -96 -74 -22 -20 -76 -63 -119 -96
-43 -33 -109 -88 -148 -123 -38 -35 -93 -78 -122 -96 -28 -19 -80 -59 -116
-91 -35 -32 -80 -68 -99 -80 -19 -12 -73 -62 -120 -111 -47 -49 -111 -109
-142 -134 -31 -25 -119 -103 -196 -175 -76 -71 -163 -152 -193 -180 -81 -74
-463 -483 -500 -535 -18 -25 -68 -86 -110 -137 -43 -51 -85 -105 -93 -121 -8
-16 -22 -35 -32 -43 -9 -7 -27 -30 -40 -49 -13 -19 -42 -57 -64 -85 -22 -27
-65 -86 -95 -130 -30 -44 -77 -107 -105 -140 -28 -33 -93 -124 -145 -202 -51
-77 -99 -144 -105 -148 -6 -3 -22 -29 -36 -57 -34 -68 -91 -154 -130 -199 -17
-20 -53 -76 -79 -125 -26 -49 -65 -119 -87 -156 -22 -36 -48 -88 -58 -115 -10
-26 -48 -104 -85 -173 -37 -69 -79 -156 -95 -195 -15 -38 -53 -124 -84 -190
-30 -66 -81 -185 -112 -265 -31 -80 -60 -150 -64 -155 -14 -17 -109 -253 -137
-340 -14 -44 -38 -112 -54 -150 -15 -39 -36 -102 -47 -140 -11 -39 -29 -88
-41 -110 -11 -22 -21 -56 -21 -75 0 -37 -8 -68 -60 -250 -17 -58 -38 -132 -46
-165 -8 -33 -24 -87 -35 -120 -29 -86 -79 -283 -79 -314 0 -18 -3 -22 -9 -13
-4 7 -7 70 -5 140 2 70 6 286 8 481 6 389 16 473 66 596 35 86 100 279 100
298 0 7 11 28 25 47 14 19 30 53 36 75 5 22 29 85 54 140 102 234 148 340 160
374 7 20 28 68 47 106 141 284 177 353 186 359 6 3 24 41 42 84 17 42 49 113
70 157 21 44 56 118 78 165 22 47 57 105 79 130 21 25 58 79 83 120 56 97 243
395 310 495 15 22 36 58 48 80 11 22 30 49 42 60 28 25 89 116 118 175 12 25
51 81 87 125 36 44 95 125 131 180 46 69 112 147 213 250 81 83 188 200 240
262 51 61 125 138 164 171 40 33 160 144 267 247 107 103 245 224 305 270 61
45 130 102 155 126 25 25 59 53 75 64 17 10 57 42 90 70 33 29 80 63 105 75
24 12 69 46 100 74 30 29 71 63 90 76 36 24 88 66 163 130 23 20 68 52 100 73
31 20 81 59 110 85 75 66 219 168 372 264 72 44 147 92 169 107 55 37 132 79
196 105 31 12 78 39 106 59 28 20 71 46 96 57 24 11 55 28 69 38 13 9 51 28
84 41 33 13 96 43 140 66 44 24 114 57 155 73 76 31 456 221 494 248 11 8 33
14 48 14 15 0 57 16 94 35 36 19 72 35 80 35 8 0 40 13 72 29 31 15 94 40 139
55 46 15 85 31 88 36 3 4 65 27 138 49 72 23 159 51 192 62 33 12 83 28 110
36 213 66 328 106 366 127 24 14 55 26 68 26 12 0 63 14 113 30 49 17 96 30
104 30 8 0 40 9 72 21 72 26 145 46 252 70 204 44 264 61 310 84 28 14 67 25
89 25 48 0 168 24 214 43 18 8 59 17 92 21 33 5 80 16 105 26 65 25 133 40
188 40 26 1 65 7 87 15 22 8 50 15 62 15 13 0 64 11 115 24 134 34 143 35 503
66 55 5 120 13 145 20 51 12 163 28 260 36 36 2 90 11 120 18 131 33 160 37
283 42 71 2 134 7 139 11 9 5 61 12 198 28 91 11 167 16 255 19 50 2 121 8
160 14 38 6 73 8 78 5 10 -6 139 11 237 32 36 8 115 16 175 20 61 3 137 10
170 16 33 5 105 11 160 14 55 2 161 8 235 14 74 6 227 11 340 12 113 1 213 4
222 8 9 3 63 4 120 3 57 -2 119 -4 138 -4z m-218 -277 c24 -6 68 -15 98 -22
30 -7 69 -17 85 -24 17 -7 46 -18 65 -25 169 -59 336 -135 434 -198 52 -33
267 -141 282 -142 24 0 23 33 -1 74 -32 54 -33 105 -2 134 53 50 141 65 203
36 47 -22 130 -99 160 -146 14 -22 32 -42 40 -45 11 -4 41 19 92 70 103 102
144 119 276 119 63 0 123 -6 157 -16 61 -18 235 -127 312 -196 43 -38 135
-148 194 -233 13 -18 43 -61 68 -97 25 -36 64 -94 87 -130 48 -78 161 -191
248 -250 72 -49 189 -97 270 -111 30 -6 100 -12 155 -14 125 -6 210 13 282 62
106 71 159 153 169 260 5 52 2 64 -29 123 -43 81 -95 121 -166 128 -66 6 -93
-2 -136 -40 -39 -34 -65 -85 -65 -128 0 -58 -52 -41 -81 26 -22 49 -42 55 -80
25 -96 -75 -209 -79 -274 -10 -22 22 -26 33 -20 58 8 36 81 101 114 101 38 0
61 18 61 50 0 16 -5 32 -12 36 -7 4 -58 13 -113 20 -127 15 -195 41 -270 104
-65 55 -76 70 -50 70 25 0 417 -96 545 -134 63 -19 149 -42 190 -51 41 -9 109
-27 150 -40 41 -14 107 -33 146 -45 91 -26 133 -57 234 -174 46 -53 90 -96 99
-96 9 0 27 7 40 16 86 61 221 15 221 -75 0 -11 11 -32 24 -48 l24 -28 83 18
c46 9 128 17 181 17 82 0 111 -5 190 -31 133 -45 193 -78 174 -96 -9 -10 -108
-4 -145 8 -25 9 -44 8 -72 0 -21 -7 -85 -16 -142 -21 -108 -9 -153 -18 -272
-52 -38 -11 -92 -24 -120 -28 -116 -18 -214 -41 -270 -64 -124 -51 -300 -96
-371 -96 -26 0 -78 -11 -116 -25 -101 -37 -182 -34 -328 10 -63 19 -124 35
-134 35 -32 0 -284 136 -339 184 -62 53 -104 76 -123 69 -10 -4 -14 -24 -14
-68 0 -38 -5 -67 -13 -73 -7 -6 -36 -14 -65 -18 -51 -7 -54 -6 -81 26 -26 32
-28 32 -64 20 -33 -12 -38 -12 -58 6 -11 10 -30 36 -40 56 -17 33 -18 43 -7
83 16 59 3 75 -45 57 -48 -17 -72 -15 -127 13 -64 33 -140 135 -126 171 8 22
25 17 66 -20 35 -32 122 -66 167 -66 10 0 43 15 73 33 113 68 144 150 98 260
-33 78 -98 143 -199 199 -78 43 -90 47 -174 52 -87 6 -102 3 -201 -31 -60 -20
-118 -74 -144 -134 -12 -29 -32 -65 -43 -81 -20 -27 -20 -30 -5 -56 9 -15 14
-38 11 -53 -18 -95 109 -322 234 -419 122 -95 184 -140 223 -162 112 -64 202
-108 272 -131 42 -14 94 -35 117 -46 22 -12 53 -21 68 -21 16 0 44 -5 63 -10
19 -6 76 -17 125 -25 50 -8 117 -20 150 -26 72 -13 408 -6 446 9 14 6 70 16
125 22 55 6 110 19 124 28 26 17 81 29 165 38 55 5 209 51 323 96 85 33 196
58 302 67 41 4 93 15 115 25 68 31 95 36 270 57 193 23 348 26 450 9 39 -7 97
-15 130 -20 33 -4 101 -23 150 -43 50 -20 138 -51 197 -71 59 -19 133 -50 165
-69 32 -19 94 -53 138 -74 113 -55 246 -133 270 -157 12 -12 65 -57 120 -101
206 -166 348 -335 519 -618 54 -89 60 -104 66 -175 11 -115 49 -192 95 -192
42 0 46 20 24 101 l-21 74 23 70 c22 69 65 129 100 140 40 13 107 -45 152
-129 17 -32 22 -59 22 -120 0 -110 8 -114 123 -53 81 42 95 47 163 48 105 2
165 -27 263 -124 41 -42 82 -90 92 -109 9 -18 30 -48 45 -66 40 -45 63 -94 87
-182 27 -98 28 -112 19 -330 -8 -167 -6 -195 12 -288 12 -57 21 -114 21 -126
0 -13 9 -45 19 -72 11 -27 31 -87 46 -133 15 -46 43 -113 63 -150 47 -85 216
-262 281 -292 25 -12 57 -30 71 -39 14 -9 66 -34 115 -54 88 -36 95 -37 225
-39 l135 -2 58 35 c97 58 140 106 171 192 30 80 30 96 0 190 -28 86 -108 134
-214 126 -112 -8 -180 -78 -180 -183 0 -56 -11 -85 -32 -85 -23 0 -79 67 -98
117 -28 75 -20 122 30 177 51 57 65 83 50 102 -15 17 -51 10 -100 -20 -28 -16
-49 -20 -102 -19 -84 3 -127 24 -196 96 -64 68 -68 98 -19 145 40 39 83 48
142 32 36 -10 48 -10 60 0 27 22 14 53 -32 75 -56 27 -119 89 -148 145 -28 55
-92 297 -81 308 16 15 756 -699 756 -729 0 -6 22 -34 48 -62 26 -29 71 -80 99
-115 29 -34 65 -73 81 -87 43 -36 79 -126 90 -225 6 -55 6 -89 -1 -98 -5 -6
-13 -27 -16 -44 -5 -25 -14 -35 -36 -41 -48 -14 -77 -31 -89 -50 -9 -15 -6
-23 17 -43 22 -18 40 -24 77 -24 69 0 168 -47 230 -109 50 -50 67 -90 33 -76
-10 4 -35 11 -56 16 -21 5 -64 22 -95 38 -83 41 -173 59 -387 77 -104 9 -193
18 -197 20 -14 9 -203 37 -237 35 -19 -1 -41 5 -50 13 -9 8 -35 21 -58 29 -70
24 -230 126 -303 194 -92 86 -184 210 -273 371 -59 107 -101 260 -110 397 -4
73 -61 54 -91 -31 -11 -33 -17 -39 -40 -37 -85 6 -156 91 -155 188 0 68 33
135 78 157 85 42 92 90 15 96 -70 4 -83 11 -110 58 -29 50 -23 75 14 55 30
-16 128 -14 161 4 46 23 75 96 74 185 0 94 -16 131 -85 196 -62 59 -102 71
-182 54 -38 -8 -68 -24 -112 -59 -94 -76 -134 -149 -134 -244 0 -28 -4 -64 -9
-81 -38 -125 -38 -112 25 -380 19 -80 84 -236 133 -321 22 -38 50 -88 62 -109
50 -91 241 -323 332 -403 182 -160 355 -279 456 -313 31 -10 81 -30 111 -43
38 -17 82 -27 140 -31 47 -3 114 -15 150 -26 39 -13 116 -25 196 -30 243 -17
269 -20 302 -31 19 -6 47 -9 63 -5 19 3 45 -1 72 -14 23 -11 74 -29 114 -40
50 -14 87 -33 120 -60 26 -22 75 -58 108 -80 140 -92 264 -205 344 -315 25
-33 56 -76 71 -95 41 -55 136 -201 155 -240 10 -19 30 -49 46 -67 15 -18 40
-54 55 -80 14 -26 39 -66 54 -89 39 -58 93 -184 125 -289 34 -111 42 -245 22
-360 -22 -121 -1 -142 86 -84 55 36 79 33 108 -14 13 -22 19 -50 19 -91 0 -51
-4 -63 -30 -93 -16 -18 -30 -42 -30 -53 0 -12 25 -39 67 -72 36 -29 92 -85
124 -125 67 -84 93 -155 104 -279 6 -70 4 -90 -19 -163 -14 -46 -44 -113 -65
-150 -44 -74 -161 -342 -161 -368 0 -9 -11 -53 -24 -97 -59 -198 -59 -389 1
-566 51 -151 96 -235 165 -306 64 -67 98 -87 184 -110 132 -34 234 57 222 198
-12 138 -127 246 -271 254 -32 2 -63 6 -68 9 -27 18 2 163 34 166 6 1 30 2 52
3 37 1 40 3 43 33 3 27 -4 39 -37 70 -51 47 -71 104 -71 198 0 103 19 105 117
14 28 -27 58 -49 66 -49 28 0 35 23 25 75 -22 112 -21 355 1 355 16 0 63 -159
56 -188 -3 -16 1 -62 10 -103 8 -41 15 -103 15 -138 0 -36 5 -92 11 -125 20
-106 81 -298 120 -379 21 -43 43 -104 49 -135 6 -32 18 -83 25 -115 14 -55 14
-60 -9 -111 -20 -45 -36 -62 -96 -105 -40 -28 -89 -53 -109 -56 -20 -4 -57
-13 -82 -20 -41 -13 -50 -13 -95 4 -91 35 -172 92 -258 181 -70 73 -93 105
-135 191 -52 106 -81 199 -81 255 0 17 -7 53 -16 80 -11 33 -17 99 -20 199 -2
83 -7 179 -11 215 -5 36 -4 95 1 132 5 37 7 71 3 75 -4 3 -23 -1 -42 -10 -37
-18 -82 -22 -101 -9 -20 13 -34 50 -34 91 0 33 7 49 36 80 19 22 55 49 79 61
71 34 74 42 44 117 -10 25 -10 34 0 46 11 14 17 13 54 -4 69 -31 124 -25 195
20 81 53 96 83 89 181 -7 114 -33 159 -120 215 -39 25 -82 45 -95 45 -42 0
-231 -80 -260 -110 -15 -16 -37 -54 -50 -86 -13 -33 -34 -80 -47 -105 -72
-136 -117 -271 -129 -384 -3 -27 -10 -86 -16 -130 -8 -63 -7 -104 5 -195 22
-168 33 -210 88 -365 55 -155 84 -218 120 -261 13 -16 33 -47 45 -69 20 -40
241 -265 337 -345 28 -22 73 -60 100 -84 28 -24 66 -51 85 -61 19 -10 49 -28
65 -40 17 -13 48 -32 71 -43 22 -11 62 -40 88 -64 l48 -43 -299 1 c-164 0
-361 -2 -438 -6 -148 -7 -245 -2 -247 15 0 6 15 13 36 16 41 7 76 34 76 60 0
10 -11 31 -25 47 -33 39 -32 58 6 81 36 22 111 20 187 -4 54 -18 72 -11 72 27
0 24 -15 46 -73 107 -198 207 -315 390 -367 576 -12 44 -34 118 -47 165 -13
47 -28 114 -33 150 -18 137 -31 219 -40 251 -16 53 -12 297 5 388 17 87 11
137 -17 155 -12 7 -26 3 -55 -17 -38 -26 -41 -27 -87 -13 -105 32 -127 74
-101 196 8 40 22 85 30 99 51 94 50 89 31 110 -10 11 -38 22 -66 26 -120 17
-335 259 -413 466 -13 35 -36 88 -51 117 -14 28 -32 75 -40 104 -28 109 -49
174 -71 224 -38 86 -140 227 -211 292 -37 34 -61 62 -53 62 37 -1 133 -41 221
-93 86 -51 103 -66 147 -130 32 -46 55 -91 62 -124 13 -56 39 -89 63 -80 8 3
27 24 40 46 35 55 89 72 138 45 50 -30 70 -76 65 -154 -2 -36 -7 -73 -11 -82
-5 -11 0 -24 14 -38 19 -19 29 -21 75 -15 40 5 61 2 84 -10 38 -19 40 -43 4
-51 -103 -22 -124 -37 -159 -106 -17 -34 -24 -64 -24 -106 0 -64 32 -175 58
-206 21 -23 133 -76 163 -76 38 0 164 42 187 63 50 46 94 150 123 294 11 54
10 74 -8 165 -20 105 -32 134 -97 248 -39 68 -185 218 -241 248 -41 22 -157
72 -168 72 -5 0 -23 11 -41 25 -17 13 -56 35 -87 49 -55 26 -241 86 -264 86
-7 0 -37 11 -67 25 -29 14 -63 25 -75 25 -12 0 -59 15 -105 32 -68 27 -96 45
-154 100 -95 90 -127 159 -129 275 -1 48 -6 88 -14 96 -20 25 -107 32 -137 12
-23 -15 -34 -15 -93 -4 -56 10 -72 18 -108 53 -51 51 -62 86 -38 122 13 20 21
24 38 18 68 -24 155 5 131 44 -12 18 -25 23 -114 43 -30 6 -68 21 -83 31 -15
11 -64 33 -109 49 -45 15 -97 40 -118 54 -20 14 -44 25 -54 25 -10 0 -77 39
-150 87 -106 70 -159 115 -276 232 -80 81 -172 181 -203 223 -75 99 -152 241
-187 343 -15 44 -38 103 -50 130 -12 28 -32 77 -45 110 -13 33 -41 105 -64
159 -23 55 -41 105 -41 113 0 7 -21 63 -46 125 -25 62 -61 151 -79 198 -61
157 -157 365 -195 420 -9 14 -23 41 -30 60 -7 19 -23 49 -35 65 -12 17 -32 49
-44 73 -73 144 -375 470 -534 577 -174 118 -384 244 -500 302 -73 36 -315 116
-377 124 -164 22 -238 29 -265 23 -16 -4 -45 -6 -62 -5 -40 2 -190 -23 -257
-44 -103 -32 -247 -131 -311 -217 -61 -81 -75 -117 -81 -208 -5 -66 -3 -82 21
-135 37 -84 91 -160 134 -188 47 -30 150 -67 188 -67 38 0 144 53 182 90 39
39 57 84 65 156 l7 62 -56 66 c-75 88 -130 120 -190 111 -56 -8 -61 10 -14 49
49 42 85 56 152 62 97 9 160 -19 241 -108 82 -90 96 -89 122 10 5 18 100 60
167 74 50 11 58 10 102 -13 75 -37 79 -53 25 -100 -25 -22 -61 -49 -81 -59
-42 -22 -53 -43 -39 -70 17 -33 45 -32 108 0 45 24 84 35 163 45 95 13 116 12
241 -6 202 -30 273 -58 424 -169 36 -26 80 -69 243 -235 27 -27 61 -74 75
-103 15 -29 49 -86 77 -127 28 -42 63 -107 79 -146 16 -39 43 -96 60 -127 37
-71 94 -220 127 -332 46 -160 85 -285 98 -320 21 -55 125 -384 125 -394 0 -4
11 -30 25 -57 27 -54 18 -64 -20 -23 -35 38 -144 235 -180 325 -16 42 -36 83
-44 92 -15 19 -50 22 -101 7 -77 -22 -176 69 -187 174 -4 33 1 63 17 106 21
56 21 61 6 85 -19 29 -48 32 -91 9 -42 -23 -127 -43 -161 -37 -61 9 -72 14
-111 45 -95 76 -141 160 -199 358 -46 161 -104 257 -199 330 -65 50 -116 70
-177 70 -102 0 -168 -67 -168 -171 0 -99 54 -159 142 -159 30 0 47 8 79 37
l41 37 19 -23 c34 -42 17 -86 -42 -106 -48 -17 -60 -41 -30 -66 13 -10 36 -19
52 -19 60 0 148 -60 193 -132 25 -38 6 -42 -60 -11 -33 15 -81 30 -109 34 -58
9 -106 21 -228 57 -98 30 -121 50 -186 165 -30 52 -33 64 -27 107 4 27 13 65
22 85 12 28 12 40 3 51 -17 20 -31 18 -146 -23 -97 -34 -108 -35 -160 -26 -31
6 -72 7 -92 2 -39 -9 -51 -5 -51 17 0 9 10 14 29 14 16 0 81 18 143 39 62 22
149 47 193 57 44 9 101 27 127 40 26 13 63 24 83 24 20 0 50 7 68 17 24 12 60
16 147 17 105 0 120 -2 177 -28 62 -28 98 -63 176 -168 30 -41 43 -44 112 -26
42 11 49 10 91 -12 61 -34 86 -62 87 -101 2 -33 1 -34 -51 -40 -60 -8 -89 -29
-133 -98 -34 -53 -36 -82 -9 -153 60 -161 231 -222 326 -116 48 52 57 86 58
213 0 157 -22 230 -106 357 -125 189 -244 296 -408 368 -117 52 -156 60 -280
60 -100 0 -128 -4 -210 -30 -52 -17 -122 -43 -155 -59 -33 -17 -99 -48 -147
-70 -48 -23 -90 -46 -93 -51 -10 -17 -115 -81 -199 -122 -70 -33 -89 -38 -152
-38 -40 0 -95 -5 -123 -11 -39 -8 -60 -7 -101 5 -62 18 -218 105 -280 155 -89
72 -165 143 -187 176 -27 40 -73 159 -73 189 0 22 -17 46 -32 46 -4 0 -23 -14
-41 -30 -49 -42 -154 -80 -225 -80 -63 0 -122 27 -122 56 0 25 58 112 79 119
10 3 28 17 41 30 24 25 24 26 4 45 -18 18 -28 18 -169 10 -82 -5 -195 -15
-250 -21 -101 -13 -239 -15 -278 -5 -12 2 -92 12 -177 21 -86 9 -194 28 -243
42 -65 18 -106 24 -157 22 -64 -3 -71 -2 -98 24 -16 15 -53 37 -82 48 -30 11
-65 28 -79 38 -55 38 -179 101 -199 101 -12 0 -24 -4 -27 -10 -3 -5 -13 -10
-21 -10 -23 0 -142 71 -193 116 -25 22 -75 61 -111 86 -98 70 -270 236 -270
262 0 28 -18 46 -46 46 -25 0 -39 15 -48 52 -4 18 -21 36 -51 54 -25 14 -45
30 -45 35 0 21 -214 219 -263 243 -29 14 -74 44 -102 66 -27 23 -63 49 -80 57
-16 9 -46 29 -65 44 -62 49 -252 142 -340 167 -47 13 -125 28 -175 33 -49 5
-104 14 -122 20 -17 5 -51 9 -75 8 -23 0 -133 2 -243 6 -146 6 -223 5 -285 -5
-47 -7 -112 -14 -145 -15 -57 -3 -108 -18 -313 -93 -88 -33 -98 -38 -209 -100
-73 -40 -233 -173 -261 -215 -8 -12 -33 -45 -54 -74 -58 -76 -78 -137 -78
-237 0 -45 5 -98 11 -117 15 -43 112 -174 141 -190 35 -19 206 -16 244 4 61
32 123 129 124 195 0 46 -23 86 -65 112 -44 27 -37 40 21 40 46 0 64 -12 106
-71 31 -45 70 10 54 76 -3 12 -19 39 -36 60 -36 45 -38 80 -7 125 34 50 68 70
129 77 53 5 57 4 96 -32 54 -48 76 -44 80 15 4 67 9 85 38 120 55 64 152 88
229 56 50 -21 62 -54 36 -97 -26 -43 -27 -75 -1 -89 16 -8 31 -5 72 14 163 77
451 132 643 122 192 -10 207 -12 265 -38 31 -14 87 -35 125 -47 42 -12 102
-42 150 -73 103 -68 276 -240 348 -346 31 -46 79 -109 107 -140 27 -31 86 -99
130 -151 44 -52 99 -108 122 -124 22 -17 36 -33 29 -35 -21 -7 -202 90 -254
135 -39 36 -55 44 -80 41 -26 -2 -36 -11 -54 -47 -27 -54 -84 -87 -218 -125
-92 -27 -170 -33 -221 -17 -16 5 -74 16 -129 25 -55 9 -120 23 -145 31 -96 31
-207 72 -255 95 -49 24 -119 39 -205 46 -77 6 -124 12 -185 23 -32 6 -96 11
-142 11 -47 0 -83 4 -83 10 0 16 59 78 96 100 28 18 50 22 131 22 85 0 106 -3
156 -26 108 -49 143 -33 132 63 -5 48 -3 68 13 104 25 56 51 71 114 65 63 -7
113 -51 122 -109 7 -41 36 -79 60 -79 8 0 32 15 55 34 22 19 61 42 85 51 43
16 49 16 116 0 38 -9 73 -22 76 -27 4 -5 -8 -23 -25 -38 -40 -37 -51 -67 -51
-137 0 -64 26 -115 69 -137 15 -8 54 -20 88 -27 54 -11 66 -11 108 6 63 23 98
58 123 123 25 63 21 148 -10 222 -29 67 -119 182 -183 232 -95 74 -284 133
-477 148 -106 8 -135 7 -170 -5 -25 -8 -58 -12 -78 -9 -50 8 -120 -13 -155
-46 -22 -21 -50 -32 -104 -44 -44 -9 -82 -23 -96 -36 -27 -25 -171 -100 -193
-100 -41 -1 -106 -45 -194 -133 -65 -63 -107 -97 -127 -102 -17 -4 -47 -22
-66 -40 -58 -54 -245 -140 -378 -175 -151 -38 -233 -40 -339 -4 -78 26 -96 40
-180 145 -27 33 -28 34 -43 14 -9 -11 -31 -45 -48 -75 -39 -67 -85 -92 -174
-98 -61 -4 -64 -3 -98 31 -31 31 -35 41 -35 84 0 27 7 71 16 98 16 46 16 49
-1 62 -27 19 -31 18 -89 -39 -143 -142 -316 -265 -549 -390 -143 -77 -341
-160 -407 -172 -19 -3 -57 -17 -85 -30 -92 -44 -130 -58 -165 -58 -40 0 -102
-11 -175 -32 -27 -8 -86 -22 -130 -32 -44 -9 -102 -22 -129 -30 -31 -9 -69
-12 -102 -8 -46 6 -59 3 -98 -20 -39 -23 -48 -25 -73 -14 -15 6 -75 12 -133
13 -58 1 -134 8 -170 15 -36 6 -92 15 -125 19 -33 4 -73 13 -90 20 -16 7 -68
23 -115 36 -47 12 -105 30 -130 39 -128 45 -232 80 -295 98 -38 11 -115 36
-170 55 -218 76 -441 115 -660 115 -260 1 -300 -2 -377 -21 -40 -10 -91 -21
-113 -25 -68 -12 -262 -76 -287 -95 -12 -10 -43 -28 -68 -40 -61 -29 -134 -73
-157 -92 -10 -9 -36 -26 -58 -37 -107 -53 -176 -95 -185 -112 -6 -11 -29 -33
-53 -49 -23 -16 -91 -77 -151 -136 -105 -102 -165 -181 -207 -275 -11 -25 -38
-81 -60 -125 -21 -44 -51 -125 -65 -180 -23 -86 -27 -120 -27 -245 0 -169 16
-226 84 -304 58 -65 83 -76 180 -76 70 0 89 4 125 25 87 51 125 205 70 286
-34 49 -84 72 -141 63 -54 -8 -65 8 -40 58 27 52 66 88 96 88 15 0 37 8 49 18
32 26 19 55 -40 91 -66 41 -84 71 -85 140 0 81 27 143 71 164 35 17 37 17 117
-16 l82 -33 0 -52 c1 -95 53 -106 93 -20 11 24 31 68 45 99 44 101 137 228
242 335 57 57 107 104 112 104 4 0 33 20 63 45 30 25 89 63 131 85 42 22 82
46 88 54 15 18 112 56 144 56 12 1 40 8 62 16 47 18 164 33 330 40 105 5 126
3 165 -14 25 -10 70 -25 100 -31 30 -7 78 -24 106 -37 28 -13 56 -24 63 -24
17 0 70 -29 111 -60 63 -49 284 -168 340 -184 126 -35 178 -46 216 -46 98 0
110 -29 18 -46 -32 -6 -91 -18 -130 -27 -125 -27 -207 -12 -310 58 -70 48
-104 26 -80 -53 14 -48 13 -52 -10 -102 -13 -29 -24 -67 -24 -85 0 -30 -8 -39
-79 -92 -135 -99 -137 -100 -301 -124 -88 -12 -84 -13 -265 36 -181 48 -191
50 -310 49 -167 -1 -293 -43 -385 -130 -83 -77 -99 -144 -57 -225 28 -52 78
-89 122 -89 54 0 130 46 164 99 17 26 31 57 31 69 0 29 18 72 30 72 21 0 44
-53 42 -97 -1 -40 -7 -48 -68 -106 -100 -93 -188 -122 -322 -106 -74 10 -86 9
-103 -7 -10 -9 -19 -28 -19 -41 0 -36 -24 -85 -56 -114 -38 -35 -121 -66 -136
-51 -12 12 20 71 72 132 21 25 35 57 45 105 17 82 98 271 144 338 35 51 108
105 216 159 89 45 133 58 219 66 51 5 72 12 80 25 9 15 6 22 -14 37 -84 64
-80 58 -80 120 0 67 14 85 69 84 49 0 91 -22 119 -64 42 -62 73 -61 86 3 8 37
82 117 109 117 16 0 18 -5 13 -27 -4 -16 -10 -55 -12 -88 -5 -52 -2 -67 23
-115 25 -49 35 -59 97 -89 59 -29 78 -34 138 -33 86 2 125 20 182 82 44 50 86
151 86 208 0 120 -102 246 -243 300 -173 66 -330 91 -422 67 -31 -8 -65 -15
-75 -15 -60 0 -324 -172 -468 -305 -136 -126 -259 -309 -302 -450 -7 -22 -25
-76 -40 -120 -16 -44 -36 -107 -45 -140 -10 -33 -23 -78 -30 -100 -8 -22 -17
-56 -21 -75 -3 -19 -24 -69 -45 -111 -22 -42 -39 -85 -39 -95 0 -42 -76 -126
-167 -185 -104 -68 -239 -96 -333 -69 -50 14 -80 -8 -80 -61 0 -43 -33 -118
-75 -167 -18 -22 -40 -34 -75 -41 -85 -18 -145 19 -155 98 -11 78 -25 111 -46
111 -25 0 -34 -27 -43 -118 -11 -129 -97 -350 -186 -482 -20 -30 -41 -66 -45
-80 -13 -41 -78 -116 -263 -305 -65 -66 -221 -198 -271 -229 -25 -15 -62 -43
-81 -61 -46 -42 -145 -109 -193 -129 -21 -8 -57 -31 -81 -51 -24 -19 -50 -35
-58 -35 -14 0 -250 -78 -348 -115 -25 -9 -74 -19 -109 -22 -36 -2 -81 -11
-100 -19 -57 -24 -164 -58 -326 -104 -139 -39 -189 -61 -394 -169 -57 -30
-252 -166 -357 -248 -169 -134 -201 -163 -309 -285 -55 -62 -120 -133 -145
-158 -25 -25 -60 -65 -76 -90 -61 -89 -164 -269 -185 -321 -11 -30 -26 -61
-34 -69 -20 -23 -55 -98 -83 -175 -21 -60 -25 -93 -29 -225 -4 -147 6 -346 26
-490 10 -77 81 -264 122 -319 15 -22 35 -55 42 -74 15 -36 37 -54 125 -106
131 -77 281 -94 409 -46 116 44 163 107 163 218 0 56 -4 71 -32 113 -41 61
-85 84 -161 84 -99 0 -144 -36 -181 -143 -9 -26 -28 -16 -38 18 -13 49 2 105
39 145 49 56 40 90 -24 90 -19 0 -47 7 -62 15 -65 33 -153 168 -138 210 4 9
19 15 39 15 18 0 51 5 73 11 22 5 64 13 94 17 75 10 84 27 49 95 -58 109 -69
157 -71 294 -1 108 3 144 26 235 56 221 141 391 287 568 20 25 53 70 73 100
40 61 137 152 225 210 31 21 81 60 111 85 56 48 95 68 288 150 78 33 121 46
140 42 15 -3 38 0 52 5 15 5 81 16 149 24 100 12 155 26 300 75 229 78 216 74
208 61 -11 -19 -122 -99 -147 -107 -13 -4 -63 -27 -111 -51 -75 -38 -88 -48
-88 -69 0 -36 27 -45 130 -43 l91 1 41 -40 c48 -48 45 -58 -27 -104 -48 -30
-53 -31 -131 -26 -103 6 -114 0 -114 -63 0 -27 -5 -84 -11 -127 -11 -75 -13
-79 -60 -121 -26 -23 -57 -58 -69 -77 -25 -41 -45 -53 -114 -70 -28 -7 -87
-29 -131 -49 -44 -20 -90 -36 -103 -36 -52 0 -250 -74 -338 -126 -180 -106
-253 -230 -240 -409 7 -112 31 -180 81 -227 64 -62 127 -88 216 -90 98 -1 142
19 188 87 33 49 33 51 27 130 -8 94 -27 131 -82 163 -32 19 -49 22 -93 18
l-53 -5 22 24 c32 34 55 39 107 25 38 -11 47 -11 60 2 12 13 13 21 3 49 -9 27
-9 42 3 73 26 74 77 74 87 0 7 -49 16 -64 39 -64 22 0 53 33 80 87 19 38 54
73 73 73 17 0 6 -36 -31 -100 -48 -84 -68 -145 -77 -235 -13 -134 -86 -308
-175 -413 -63 -75 -102 -91 -170 -67 -38 14 -44 14 -58 0 -14 -14 -13 -22 7
-78 23 -65 26 -94 16 -146 -8 -39 -20 -40 -29 -1 -7 33 -60 114 -110 171 -47
53 -164 233 -179 277 -8 21 -27 65 -43 98 -26 53 -29 67 -27 147 2 80 6 95 44
175 62 128 83 154 183 228 85 63 211 124 256 124 10 0 35 11 55 25 20 14 44
25 52 25 24 0 91 38 98 55 15 39 5 64 -34 96 -51 41 -64 84 -44 142 16 45 62
100 76 91 5 -3 6 -18 3 -33 -13 -61 53 -174 122 -210 34 -17 126 -13 176 8 48
21 107 85 132 144 8 20 15 60 15 89 0 44 -7 65 -37 117 -33 55 -46 68 -92 89
-82 38 -116 42 -221 30 -102 -12 -233 -55 -328 -110 -87 -50 -208 -165 -296
-283 -92 -122 -116 -163 -116 -197 0 -14 -16 -37 -40 -59 -26 -24 -40 -45 -40
-62 0 -13 -12 -51 -27 -83 -14 -32 -30 -74 -34 -94 -3 -19 -14 -70 -23 -113
-14 -66 -15 -93 -6 -180 13 -123 13 -120 63 -227 41 -87 122 -205 172 -250 15
-14 36 -45 46 -69 11 -24 41 -69 67 -100 53 -62 92 -130 92 -162 0 -11 5 -29
10 -40 8 -13 7 -38 0 -82 -19 -106 -32 -161 -44 -183 -13 -25 -146 -144 -162
-144 -5 0 -25 -11 -44 -25 -24 -18 -47 -25 -77 -25 -31 0 -45 -5 -50 -16 -11
-29 17 -92 56 -126 21 -18 50 -52 65 -75 24 -35 27 -48 21 -82 -7 -42 -43 -81
-74 -81 -30 0 -78 38 -97 77 -15 29 -25 38 -44 38 -37 0 -37 -36 0 -116 17
-37 35 -89 39 -116 5 -26 14 -75 21 -108 16 -78 7 -339 -15 -460 -11 -62 -31
-121 -64 -190 -56 -118 -152 -270 -180 -285 -23 -12 -141 -14 -141 -2 0 5 12
19 26 33 47 44 104 137 140 231 50 131 60 169 74 288 11 96 10 115 -10 220
-25 133 -68 264 -122 368 -21 40 -38 78 -38 85 0 7 -25 43 -55 81 -30 38 -55
72 -55 76 0 5 -20 32 -44 62 -23 29 -53 72 -65 95 -11 23 -34 57 -49 75 -15
18 -45 67 -66 108 -21 41 -47 86 -56 100 -31 44 -70 152 -101 280 -30 123 -31
129 -27 325 3 110 10 225 17 255 55 244 182 561 286 710 25 36 55 80 67 98 49
71 98 130 221 265 70 78 127 144 127 147 0 13 289 248 390 317 128 87 374 219
432 232 38 9 78 40 78 61 0 4 -9 15 -19 24 -18 17 -25 17 -111 2 l-91 -16 -62
29 c-34 15 -73 40 -86 54 -22 25 -23 30 -12 66 22 75 118 125 261 137 66 6 87
4 120 -11 82 -37 92 5 24 108 -67 102 -77 130 -75 222 2 147 32 249 100 349
38 54 186 180 261 222 52 29 77 37 190 63 25 6 76 17 114 26 47 11 105 16 175
14 289 -6 436 3 631 39 64 12 192 81 284 154 179 142 276 332 276 541 0 59 -5
81 -35 142 -37 77 -72 112 -151 146 -81 36 -217 4 -266 -62 -98 -131 -29 -319
116 -319 27 0 46 9 76 36 31 28 41 33 46 21 7 -20 -30 -92 -58 -111 -29 -20
-49 -20 -93 1 -33 16 -36 16 -52 0 -16 -16 -16 -20 5 -62 34 -70 28 -118 -21
-172 -32 -36 -60 -29 -107 27 -59 71 -89 67 -100 -14 -4 -35 -12 -43 -65 -76
-33 -21 -93 -54 -132 -73 l-73 -36 -117 30 c-65 16 -131 29 -148 29 -55 0 -63
17 -14 29 94 24 115 51 85 110 -28 53 -21 97 23 144 22 23 42 39 45 36 3 -3 2
-30 -4 -59 -22 -119 0 -181 85 -238 43 -29 56 -33 94 -29 28 3 52 13 67 28 35
36 124 189 124 214 0 29 45 229 63 281 22 61 73 158 92 174 9 7 25 30 35 50
18 35 82 94 128 119 13 7 55 18 95 25 78 13 121 6 167 -27 52 -36 69 -15 73
90 3 70 8 88 41 146 42 77 59 83 106 37 17 -16 34 -30 39 -30 14 0 48 44 85
112 21 37 52 79 69 94 18 14 41 41 52 59 24 39 83 90 93 81 4 -4 -3 -24 -14
-44 -138 -242 -145 -259 -190 -404 -25 -82 -49 -182 -53 -221 -8 -70 -16 -107
-68 -307 -78 -296 -322 -593 -608 -738 -187 -96 -254 -114 -500 -135 -77 -7
-146 -16 -152 -20 -30 -19 0 -59 67 -92 57 -28 90 -66 106 -121 14 -49 14 -53
-10 -100 -67 -133 -185 -160 -212 -49 -11 48 -32 83 -54 90 -31 10 -50 -12
-50 -59 -1 -80 -16 -118 -69 -168 -44 -43 -54 -48 -94 -48 -47 0 -77 7 -77 19
0 4 14 15 30 25 47 27 90 110 90 174 0 82 -38 136 -127 181 -51 25 -100 26
-170 3 -84 -28 -136 -71 -172 -142 -28 -57 -31 -72 -30 -154 0 -119 11 -154
71 -247 44 -70 57 -82 123 -119 114 -62 174 -74 335 -67 100 5 149 12 185 26
28 11 121 44 209 75 87 30 175 66 195 80 20 14 59 42 86 61 153 106 300 242
373 345 25 36 64 88 87 115 23 28 53 70 67 95 14 25 42 74 63 110 20 36 52 99
70 140 18 41 56 127 84 190 52 116 114 287 126 348 4 18 19 61 34 95 15 34 33
89 40 122 7 33 25 87 39 120 14 33 31 83 38 110 14 55 74 195 152 355 131 266
419 569 692 730 41 24 88 54 103 67 16 13 34 23 41 23 7 0 34 14 60 31 27 16
67 37 90 46 22 9 55 26 71 38 17 12 48 28 70 35 22 7 96 35 165 62 159 63 223
75 450 83 313 11 494 -14 590 -80 41 -29 76 -32 108 -9 38 27 21 71 -34 88
-12 4 -43 29 -68 56 -58 62 -62 101 -15 146 29 28 33 29 116 26 94 -3 132 -17
175 -63 52 -56 73 -36 73 71 0 67 3 81 30 122 77 118 232 194 415 203 143 7
510 -116 670 -225 32 -22 82 -51 111 -64 30 -14 83 -42 119 -62 162 -90 206
-105 460 -152 59 -11 203 3 310 29 203 51 466 262 562 452 61 120 59 186 -8
266 -55 65 -165 92 -233 56 -97 -49 -146 -192 -106 -306 11 -29 12 -46 5 -53
-16 -16 -99 11 -137 45 -25 22 -40 28 -56 23 -35 -10 -57 -35 -57 -64 0 -16
-11 -37 -27 -52 -37 -35 -150 -85 -210 -93 -26 -3 -67 -11 -90 -17 -48 -12
-73 0 -73 34 0 27 34 91 71 133 30 34 31 36 15 60 -21 32 -65 33 -103 2 -15
-13 -44 -27 -63 -30 -19 -4 -55 -11 -80 -16 -25 -5 -88 -6 -140 -2 -82 6 -107
13 -180 48 -91 43 -205 133 -205 161 0 9 12 21 26 26 22 8 33 3 80 -34 30 -24
73 -51 95 -61 56 -25 234 -44 276 -30 17 6 44 11 60 11 16 0 57 13 91 29 34
16 84 37 110 46 47 17 64 27 211 129 43 29 100 57 150 73 45 14 97 33 116 43
54 27 205 45 269 31 29 -6 69 -11 90 -11 37 0 139 -36 190 -67 14 -9 40 -31
58 -50 33 -34 72 -43 91 -20 5 6 13 35 17 62 6 43 14 57 56 97 58 55 135 86
168 68 27 -14 27 -49 0 -101 -27 -54 -22 -83 14 -87 21 -3 39 8 86 53 70 67
200 125 279 125 27 0 69 7 94 16 25 8 66 14 90 12 l43 -3 -41 -13 c-23 -6 -57
-23 -77 -36 -19 -13 -46 -27 -58 -31 -46 -15 -214 -132 -249 -173 -88 -106
-128 -146 -170 -170 -24 -15 -88 -69 -141 -122 -99 -98 -270 -234 -336 -269
-21 -11 -44 -29 -51 -41 -7 -12 -30 -28 -50 -37 -20 -8 -70 -34 -112 -58 -135
-76 -293 -153 -371 -179 -83 -28 -202 -40 -374 -38 -55 1 -115 -4 -133 -9 -29
-10 -45 -7 -120 24 -48 19 -107 42 -132 50 -25 8 -59 21 -77 28 -44 18 -68 -4
-77 -73 -6 -42 -15 -59 -45 -90 -33 -32 -45 -38 -80 -38 -38 0 -48 6 -92 52
-27 28 -52 63 -55 77 -18 85 -51 105 -122 73 -67 -30 -105 -35 -165 -22 -104
23 -165 70 -92 70 46 0 84 20 123 65 38 42 46 70 40 135 -7 68 -42 111 -125
152 -58 28 -78 33 -143 33 -137 0 -227 -65 -280 -203 -31 -81 -27 -157 10
-213 67 -100 116 -151 228 -237 44 -35 161 -92 186 -92 8 0 38 -12 66 -26 30
-15 82 -30 124 -35 39 -5 84 -14 101 -19 16 -5 68 -12 115 -15 47 -2 119 -7
160 -11 103 -8 302 10 374 35 33 12 71 21 85 21 29 0 106 24 231 70 47 18 116
41 154 51 37 10 91 30 120 43 28 13 80 36 116 50 36 15 96 51 133 81 38 30 73
55 78 55 12 0 155 96 164 109 3 6 49 36 103 67 97 58 131 84 273 204 42 36
107 86 145 112 38 25 87 65 109 88 22 22 60 54 85 70 25 16 51 38 58 49 6 12
44 37 83 56 39 20 89 53 112 74 23 21 60 46 82 55 22 10 60 34 85 54 61 51
331 183 476 233 65 22 126 45 136 50 40 22 222 41 413 45 274 5 395 10 402 18
9 9 87 7 135 -3z m7563 -59 c48 -7 99 -25 162 -57 85 -42 95 -50 118 -95 14
-27 25 -65 25 -85 0 -35 28 -75 53 -75 21 0 69 35 168 122 62 54 113 90 145
102 27 10 63 31 79 46 17 15 39 32 50 38 26 13 210 11 209 -3 0 -5 -40 -31
-88 -57 -93 -49 -251 -151 -261 -168 -4 -6 -27 -21 -53 -35 -69 -36 -105 -70
-180 -169 -96 -128 -305 -301 -422 -351 -213 -90 -224 -93 -320 -100 -85 -6
-105 -4 -184 19 -173 50 -276 96 -334 148 -66 60 -87 60 -88 -2 -2 -75 -3 -79
-40 -120 -46 -51 -95 -55 -145 -13 -61 52 -76 138 -37 218 17 34 20 50 12 62
-18 29 -33 26 -70 -16 -48 -53 -118 -78 -171 -60 -37 12 -116 87 -107 101 3 4
20 8 37 8 92 1 157 71 157 170 0 82 -31 141 -101 190 -139 97 -273 71 -341
-67 -31 -64 -33 -74 -32 -168 1 -88 4 -109 31 -170 56 -130 120 -215 236 -314
187 -158 471 -274 717 -291 63 -5 130 -14 148 -20 42 -16 217 3 282 30 25 10
79 26 120 35 98 23 130 39 221 113 82 66 140 128 217 232 27 35 88 98 135 140
48 41 104 97 125 124 76 101 139 160 248 231 119 78 211 128 258 139 16 4 54
31 85 61 39 37 80 64 130 85 66 28 83 31 165 30 112 -2 269 -3 316 -2 385 5
2144 6 2153 0 9 -6 13 -223 15 -985 2 -538 4 -1000 4 -1028 3 -111 -12 -292
-26 -334 -9 -24 -16 -53 -16 -64 0 -47 -175 -387 -219 -427 -26 -23 -60 -70
-105 -144 -10 -17 -35 -56 -56 -86 -20 -30 -49 -77 -65 -105 -16 -27 -54 -86
-86 -130 -64 -91 -110 -177 -150 -285 -15 -41 -40 -106 -54 -145 -15 -38 -31
-92 -35 -120 -5 -27 -18 -83 -30 -124 -16 -56 -23 -119 -29 -270 -5 -108 -7
-199 -5 -202 2 -3 4 -35 4 -70 2 -62 18 -184 42 -299 17 -88 54 -189 85 -232
15 -23 35 -54 44 -71 27 -51 197 -167 245 -167 18 0 48 -7 67 -16 32 -15 36
-15 98 11 76 32 93 46 126 103 70 120 -34 324 -173 340 -65 7 -91 -4 -145 -61
-53 -55 -68 -54 -69 3 0 39 25 66 85 94 67 30 86 62 61 101 -21 32 -40 32 -87
-1 -34 -23 -41 -25 -72 -15 -68 23 -104 86 -98 173 1 23 48 76 84 95 29 15 33
14 83 -13 50 -27 54 -28 70 -12 15 15 15 21 4 48 -7 18 -31 43 -52 58 -71 46
-108 145 -127 342 -11 103 -10 130 8 249 19 123 25 141 81 254 35 70 81 145
109 177 27 31 62 77 79 103 16 26 58 78 93 117 35 39 83 92 106 118 23 26 45
44 49 40 10 -11 -43 -224 -74 -293 -14 -33 -39 -74 -55 -91 -37 -41 -34 -75 8
-88 73 -21 108 -42 136 -80 58 -80 61 -101 65 -550 2 -225 1 -413 -2 -418 -11
-17 -46 26 -77 92 -28 59 -30 74 -31 175 -1 95 -3 110 -18 113 -9 2 -27 -2
-39 -9 -20 -10 -26 -8 -46 15 -31 37 -29 72 8 113 43 49 38 91 -13 116 -44 22
-49 37 -13 37 69 0 135 85 135 176 0 48 -42 120 -91 155 -40 28 -142 38 -189
19 -78 -32 -162 -184 -175 -316 -15 -154 63 -333 267 -609 81 -109 170 -276
192 -358 8 -28 23 -77 34 -107 45 -128 0 -320 -98 -422 -39 -40 -52 -48 -82
-48 -51 0 -68 -9 -68 -35 0 -16 11 -30 38 -46 82 -49 172 -157 172 -207 0 -29
-60 -92 -87 -92 -40 0 -115 31 -159 65 -26 19 -54 35 -62 35 -22 0 -9 -65 23
-105 40 -53 124 -266 135 -345 5 -30 16 -100 25 -155 21 -124 31 -353 17 -367
-8 -8 -14 -4 -21 13 -5 13 -23 60 -41 104 -18 44 -37 98 -42 120 -6 22 -26 79
-44 126 -19 48 -34 90 -34 93 0 3 -13 35 -30 69 -16 35 -30 67 -30 71 0 4 -13
26 -29 49 -15 23 -43 65 -60 94 -18 28 -39 57 -47 64 -8 7 -30 44 -48 83 -18
40 -48 95 -67 123 -62 94 -93 148 -109 193 -10 25 -36 90 -59 145 -94 222
-141 376 -141 459 0 24 -7 75 -16 113 -19 82 -23 313 -7 458 6 55 23 140 37
189 31 103 32 182 3 200 -15 9 -23 6 -43 -17 -13 -15 -24 -39 -24 -53 0 -13
-7 -41 -15 -61 -8 -19 -15 -54 -15 -77 0 -27 -12 -61 -33 -101 -26 -47 -43
-66 -87 -91 -84 -50 -124 -58 -191 -40 -73 18 -116 40 -157 80 -45 41 -56 66
-77 160 -16 70 -16 88 -5 145 28 140 78 218 168 262 56 27 63 33 60 57 -3 24
-8 27 -43 30 -22 2 -65 -2 -95 -8 -88 -20 -211 -15 -257 9 -21 11 -75 36 -120
55 -98 41 -280 164 -345 234 -134 143 -244 397 -221 513 3 16 -1 30 -12 39
-14 11 -20 9 -48 -17 -43 -41 -89 -54 -158 -45 -140 20 -264 156 -243 268 7
40 -15 74 -49 74 -21 0 -97 20 -177 47 -82 28 -221 123 -310 213 -137 137
-194 229 -259 419 -40 117 -57 135 -99 109 -91 -58 -173 -68 -267 -33 -122 45
-191 174 -150 281 14 36 15 51 6 70 -13 29 -28 30 -91 3 -43 -19 -61 -20 -186
-15 -186 7 -291 20 -399 49 -97 26 -231 77 -281 106 -17 10 -55 27 -85 39 -56
21 -190 90 -345 177 -49 27 -110 59 -135 72 -48 22 -160 93 -259 160 -30 21
-77 52 -106 68 -28 17 -71 43 -95 58 -99 63 -270 162 -359 208 -52 27 -106 55
-120 63 -72 42 -245 118 -318 140 -45 14 -100 35 -121 45 -60 31 -188 61 -284
68 -48 3 -84 9 -80 13 22 19 116 35 198 32 120 -3 300 -19 350 -30 85 -20 243
-64 295 -83 95 -35 307 -151 378 -206 89 -71 128 -90 150 -77 32 21 26 52 -18
92 -52 46 -90 109 -90 149 0 36 36 93 70 111 34 17 111 7 170 -23 52 -27 91
-80 130 -178 37 -95 73 -88 84 15 18 153 88 216 270 244 168 25 253 14 339
-44 23 -16 60 -39 83 -50 43 -22 64 -44 184 -193 80 -100 124 -144 265 -270
71 -63 114 -92 205 -136 63 -31 133 -59 155 -63 22 -4 65 -13 95 -19 60 -13
150 -7 220 14 25 7 58 16 74 20 33 7 179 143 203 188 34 65 66 184 67 247 1
54 -4 74 -29 119 -55 100 -158 161 -274 161 -145 0 -241 -83 -241 -207 0 -36
7 -60 23 -84 54 -80 135 -100 221 -54 41 22 46 23 46 7 0 -20 -53 -81 -72 -83
-50 -5 -178 6 -200 17 -15 8 -39 31 -54 51 -29 40 -53 63 -65 63 -4 0 -29 -15
-56 -33 -46 -31 -54 -33 -105 -27 -108 12 -138 58 -94 145 30 60 31 65 12 91
-12 16 -31 20 -138 24 -109 5 -130 9 -188 35 -75 34 -61 43 34 20 82 -18 241
-19 316 -1 30 7 97 28 147 45 51 18 114 36 140 40 65 10 283 5 368 -7z
m-14812 -93 c9 0 32 1 51 1 23 1 63 -13 124 -45 105 -54 158 -113 192 -210 25
-73 25 -100 -1 -176 l-21 -61 21 -21 21 -21 25 24 c17 16 36 56 54 115 50 159
94 225 151 225 45 0 85 -24 100 -60 11 -27 10 -39 -5 -85 -16 -44 -16 -56 -6
-69 21 -25 57 -19 94 14 19 17 38 30 42 30 4 0 35 14 69 31 86 44 156 61 273
65 81 3 111 1 140 -12 l38 -17 -60 -9 c-102 -15 -195 -44 -355 -111 -126 -52
-233 -120 -315 -197 -54 -52 -88 -75 -250 -173 -27 -16 -79 -42 -115 -57 -36
-15 -83 -39 -104 -53 -21 -15 -45 -27 -52 -27 -15 0 -321 -155 -344 -175 -42
-35 -267 -120 -355 -135 -27 -5 -68 -13 -90 -19 -176 -45 -458 -71 -566 -52
-36 6 -81 11 -100 11 -19 0 -63 14 -99 31 -74 35 -110 33 -110 -5 0 -17 19
-39 70 -81 131 -108 151 -145 110 -212 -29 -48 -84 -60 -175 -38 -113 27 -166
64 -217 155 -32 55 -60 82 -80 75 -11 -4 -14 -28 -14 -108 0 -144 -39 -320
-108 -493 -87 -219 -114 -254 -339 -454 -192 -171 -239 -208 -308 -244 -79
-43 -234 -79 -294 -71 -54 9 -72 -10 -56 -56 18 -52 14 -173 -6 -197 -17 -18
-24 -19 -112 -10 -117 12 -125 6 -135 -90 -11 -103 -56 -185 -185 -337 -149
-174 -316 -345 -382 -388 -30 -20 -79 -54 -111 -75 -31 -22 -72 -42 -91 -46
-19 -4 -52 -18 -73 -33 -52 -35 -84 -44 -186 -52 -63 -5 -93 -13 -108 -26 -25
-23 -25 -27 4 -62 34 -42 70 -156 56 -182 -27 -51 -111 -57 -164 -11 -22 20
-40 28 -51 24 -18 -7 -18 -6 7 -129 17 -80 18 -293 2 -349 -8 -27 -14 -62 -14
-78 0 -16 -9 -46 -20 -67 -10 -21 -26 -71 -35 -110 -11 -47 -29 -90 -56 -128
-21 -32 -39 -62 -39 -66 0 -5 -25 -50 -57 -100 -31 -51 -65 -110 -76 -132 -11
-22 -37 -61 -58 -86 -37 -45 -57 -79 -154 -264 -26 -49 -58 -103 -71 -118 -13
-16 -24 -39 -24 -52 0 -15 -11 -32 -30 -45 -16 -11 -42 -47 -58 -78 -16 -31
-56 -108 -90 -171 -34 -63 -66 -127 -71 -142 -5 -14 -23 -45 -39 -68 -47 -64
-55 -28 -29 120 20 109 46 178 99 261 24 37 57 88 73 114 17 26 37 58 45 71
25 38 4 57 -71 63 -108 9 -136 39 -112 119 16 56 37 79 89 102 23 10 47 26 54
34 20 24 -1 59 -52 86 -76 42 -108 150 -78 259 15 55 158 273 191 290 10 6 33
35 51 64 18 30 47 74 64 97 17 24 48 91 69 149 l37 104 -4 137 c-5 151 -6 155
-79 228 -73 73 -156 99 -217 67 -84 -44 -119 -144 -93 -260 10 -42 56 -95 111
-129 47 -28 52 -38 32 -60 -11 -13 -25 -17 -44 -13 -17 3 -34 -1 -49 -13 -22
-17 -22 -18 -6 -66 19 -56 13 -91 -32 -185 -38 -78 -79 -130 -103 -130 -20 0
-20 4 -12 143 5 78 8 201 7 272 -4 256 -2 315 13 358 26 74 84 120 212 168 39
14 79 63 88 107 5 26 1 36 -24 62 -24 24 -39 30 -72 30 -22 0 -55 -7 -72 -16
-29 -15 -31 -15 -58 11 -41 40 -71 117 -77 201 -5 59 -3 74 8 74 8 0 46 -35
84 -78 39 -42 120 -124 180 -182 63 -60 122 -126 138 -154 15 -27 34 -57 42
-66 8 -9 15 -21 15 -26 0 -6 14 -32 30 -58 43 -67 60 -139 71 -300 l10 -139
-30 -61 c-17 -34 -40 -74 -53 -89 -33 -41 -16 -62 51 -62 64 -1 86 -21 95 -87
6 -42 4 -49 -26 -83 -32 -37 -33 -37 -92 -31 -82 8 -91 -1 -60 -67 27 -60 28
-67 12 -102 -13 -30 -33 -32 -47 -6 -6 10 -35 31 -65 47 -52 27 -57 28 -102
16 -85 -23 -125 -70 -156 -185 -16 -60 -5 -91 55 -154 71 -76 89 -83 200 -83
92 0 95 1 155 39 34 22 77 62 97 88 51 69 122 221 160 343 71 226 79 542 17
650 -11 19 -29 64 -41 100 -12 36 -42 92 -66 125 -24 33 -70 96 -101 139 -31
44 -90 115 -131 159 -69 74 -195 255 -272 391 -41 71 -151 378 -151 420 0 17
-5 47 -11 66 -7 23 -11 141 -10 335 1 165 1 321 1 348 0 26 4 47 10 47 17 0
30 -75 30 -182 0 -87 4 -117 22 -160 17 -42 22 -78 24 -173 5 -217 34 -368 94
-490 81 -163 125 -229 242 -355 122 -133 131 -141 243 -203 77 -43 110 -53
230 -68 168 -20 276 -21 355 -4 182 40 205 50 362 152 119 77 314 268 349 342
11 24 33 60 48 80 15 20 40 63 54 96 24 55 26 71 23 170 -2 117 -13 151 -58
191 -39 36 -86 55 -151 60 -59 5 -66 3 -126 -33 -89 -53 -114 -89 -119 -169
-6 -87 0 -101 58 -161 28 -29 49 -57 45 -63 -10 -16 -142 -12 -178 6 -18 8
-55 41 -84 72 -47 51 -53 55 -67 42 -14 -14 -14 -28 -5 -100 14 -117 4 -213
-27 -250 -35 -41 -90 -73 -113 -65 -23 7 -67 62 -87 110 -7 19 -14 56 -14 83
0 53 -16 76 -47 70 -22 -4 -78 -104 -99 -177 -31 -104 -111 -161 -229 -161
-93 0 -128 56 -98 159 33 118 67 159 176 212 69 34 82 54 51 80 -9 8 -42 14
-73 15 -94 2 -209 33 -279 75 -59 34 -182 151 -238 225 -95 127 -194 369 -194
474 0 21 -7 57 -16 81 -26 70 -23 235 5 337 13 46 29 99 37 118 8 18 14 55 14
81 1 26 7 59 15 73 8 14 14 36 15 51 0 37 52 114 133 197 88 90 161 146 233
178 30 13 54 29 54 35 0 25 -24 51 -69 74 -31 15 -58 39 -72 62 -22 35 -24 47
-22 151 2 63 5 118 8 123 9 14 158 11 221 -6 67 -17 128 -51 168 -94 17 -17
37 -31 46 -31 19 0 51 33 104 108 21 29 64 70 95 91 69 47 267 138 330 152 25
6 62 16 81 21 46 15 454 13 544 -2 38 -6 84 -17 103 -25 20 -8 43 -15 53 -15
9 0 39 -12 66 -26 27 -14 66 -35 86 -45 85 -44 170 -114 234 -192 80 -100 97
-133 124 -232 12 -43 25 -86 30 -96 6 -10 10 -35 10 -57 0 -76 64 -83 100 -12
26 51 59 72 106 68 27 -2 43 -11 58 -31 29 -39 26 -144 -5 -216 -21 -50 -96
-131 -121 -131 -7 0 -37 -11 -65 -25 -61 -28 -97 -81 -73 -110 17 -21 28 -19
103 15 72 34 119 34 176 -1 53 -32 71 -74 68 -154 -2 -66 -3 -70 -27 -74 -28
-4 -40 -17 -40 -47 0 -26 -41 -47 -72 -35 -13 4 -69 14 -126 21 -92 12 -106
12 -137 -3 -58 -28 -43 -61 53 -121 46 -29 102 -106 102 -142 0 -24 -58 -116
-77 -122 -6 -2 -20 12 -29 30 -46 90 -115 138 -196 138 -58 0 -139 -40 -169
-81 -21 -30 -24 -45 -24 -119 0 -81 2 -87 34 -132 24 -34 49 -54 95 -75 56
-26 70 -28 167 -26 118 2 144 11 265 91 165 110 404 461 450 660 22 96 36 300
29 420 -4 81 -13 126 -40 205 -46 134 -105 252 -153 308 -21 24 -57 71 -80
105 -91 135 -309 295 -512 376 -149 60 -181 69 -305 88 -27 5 -81 15 -120 24
-61 13 -193 15 -1035 11 -531 -1 -977 -3 -991 -4 -14 0 -34 -10 -45 -22 -21
-24 -22 -57 -15 -839 3 -410 -2 -475 -43 -589 -13 -36 -29 -101 -36 -144 -7
-43 -17 -80 -21 -83 -8 -5 -15 214 -13 406 1 111 3 1219 3 1333 -1 106 8 131
46 121 12 -3 57 -1 101 5 80 11 626 15 809 5 55 -2 118 -5 140 -5 288 -3 518
-3 550 0 50 3 497 -21 555 -30 88 -14 227 -46 330 -76 47 -13 109 -30 138 -38
28 -8 79 -28 112 -45 33 -17 82 -39 109 -50 27 -10 73 -37 103 -59 29 -23 90
-62 135 -87 45 -25 88 -53 95 -61 72 -87 435 -324 533 -347 16 -4 39 -18 52
-30 24 -25 30 -27 218 -115 180 -83 259 -101 449 -101 83 0 167 5 186 10 19 6
57 11 84 11 45 1 118 24 286 89 30 12 86 33 124 47 60 22 111 51 246 139 49
33 156 159 184 219 52 108 57 261 11 341 -42 72 -93 110 -179 130 -75 17 -78
17 -112 -1 -50 -27 -112 -83 -130 -117 -35 -67 -12 -181 52 -265 14 -18 22
-38 19 -43 -3 -6 -30 -10 -60 -10 -48 0 -56 3 -75 29 -25 36 -57 48 -76 29 -8
-8 -17 -47 -20 -93 -8 -92 -28 -139 -79 -183 -40 -36 -86 -42 -122 -17 -18 13
-23 27 -25 78 -3 55 -5 62 -25 65 -15 2 -27 -5 -39 -25 -32 -51 -59 -75 -119
-105 -150 -77 -336 -116 -419 -88 -32 10 -41 9 -71 -9 -28 -16 -41 -18 -61
-11 -14 6 -40 10 -57 10 -49 0 -211 55 -259 87 -24 16 -72 46 -108 65 -36 20
-88 56 -117 80 -28 24 -71 55 -95 70 -24 15 -75 56 -114 90 -107 95 -162 135
-232 168 -34 16 -82 43 -107 60 -24 16 -47 30 -51 30 -4 0 -44 18 -89 40 -45
22 -104 44 -131 49 -66 13 -127 35 -131 48 -6 16 22 23 116 29 149 10 232 -22
331 -127 66 -70 100 -85 128 -57 20 20 14 44 -23 88 -26 31 -34 48 -29 64 11
37 25 46 74 46 59 0 128 -43 178 -110 42 -56 80 -74 96 -45 6 10 32 42 59 71
42 46 55 53 117 68 38 10 74 15 80 11 5 -3 44 -6 87 -7 43 0 89 -5 103 -10 13
-5 63 -16 110 -24 47 -8 119 -23 160 -33 105 -27 325 -36 374 -16 19 8 47 15
62 15 15 0 53 12 85 26 33 15 62 24 66 20 14 -13 -75 -89 -147 -124 -66 -33
-83 -37 -151 -37 -72 0 -109 -12 -109 -36 0 -4 18 -26 40 -48 22 -22 40 -47
40 -56 0 -9 -14 -30 -31 -47 -29 -30 -32 -31 -103 -25 -101 7 -142 27 -208 99
-49 54 -58 60 -72 49 -10 -8 -16 -27 -15 -45 1 -17 -3 -50 -10 -73 -15 -53
-49 -73 -126 -73 -61 0 -71 13 -34 46 26 23 59 86 59 111 -1 43 -40 103 -87
134 -43 27 -55 30 -108 27 -75 -5 -114 -30 -146 -95 -33 -65 -33 -179 -2 -239
36 -68 128 -144 243 -200 123 -60 183 -73 365 -76 125 -2 133 -1 224 32 53 19
112 48 135 67 23 18 55 41 71 51 56 32 180 170 258 285 15 23 40 55 55 72 16
16 39 46 52 65 63 92 150 176 222 213 92 47 171 68 223 61 22 -3 48 -5 58 -5z
m6642 -1276 c209 -2 409 -6 445 -8 252 -14 429 -25 515 -34 55 -6 136 -13 180
-17 44 -3 130 -15 190 -26 61 -11 144 -24 185 -29 41 -5 102 -15 135 -21 33
-6 96 -14 140 -18 93 -8 180 -24 285 -50 41 -10 125 -31 185 -45 105 -25 157
-38 345 -84 199 -50 299 -72 355 -81 33 -4 85 -18 115 -29 30 -11 67 -20 83
-21 15 0 62 -9 105 -21 42 -11 100 -27 127 -34 28 -8 80 -23 116 -34 36 -12
74 -21 84 -21 10 0 69 -16 131 -35 61 -19 165 -49 230 -66 66 -17 151 -44 189
-61 39 -17 117 -46 175 -65 58 -19 146 -54 197 -79 50 -24 95 -44 100 -44 4 0
51 -20 103 -45 52 -24 145 -65 205 -91 61 -25 117 -51 125 -58 17 -14 363
-186 375 -186 10 0 248 -130 344 -188 41 -24 93 -52 116 -62 24 -10 46 -24 50
-30 4 -6 27 -20 52 -31 25 -11 71 -38 102 -62 31 -23 90 -62 131 -86 41 -25
84 -52 95 -62 11 -9 54 -32 95 -51 41 -19 96 -50 122 -69 25 -19 74 -50 109
-69 110 -62 291 -181 353 -232 18 -15 75 -55 127 -89 117 -76 189 -132 243
-185 22 -23 87 -78 143 -123 56 -44 105 -85 108 -91 3 -6 32 -27 63 -49 31
-21 122 -103 202 -183 80 -79 176 -165 213 -192 37 -27 74 -60 82 -75 14 -26
29 -41 235 -243 63 -62 149 -153 190 -202 41 -49 98 -115 125 -147 99 -113
189 -220 203 -242 9 -12 41 -51 72 -87 31 -36 62 -75 69 -88 6 -12 31 -44 54
-71 23 -27 62 -84 87 -126 25 -42 60 -97 78 -121 18 -25 51 -79 73 -121 22
-42 55 -94 72 -115 40 -50 69 -100 151 -263 37 -71 75 -146 85 -165 10 -19 33
-66 51 -105 18 -38 63 -126 101 -195 81 -150 128 -257 179 -405 20 -60 46
-128 57 -150 25 -49 83 -217 83 -239 0 -9 11 -39 25 -66 14 -27 25 -58 25 -69
0 -11 9 -40 19 -63 11 -24 26 -72 35 -108 8 -36 29 -114 46 -175 121 -423 160
-574 160 -617 0 -15 4 -38 10 -52 5 -14 14 -58 19 -98 6 -40 17 -104 26 -143
19 -79 22 -330 5 -351 -11 -13 -295 -14 -316 -1 -14 8 -25 117 -29 272 -2 71
-11 138 -24 190 -13 46 -19 92 -15 108 3 16 -1 56 -9 90 -9 34 -21 96 -28 137
-6 41 -18 92 -25 114 -8 21 -14 57 -14 80 0 22 -14 86 -30 141 -16 55 -30 113
-30 128 0 16 -11 47 -23 70 -13 23 -32 71 -41 107 -27 106 -56 190 -90 270
-18 41 -48 118 -65 170 -30 88 -67 171 -127 293 -13 27 -31 72 -39 101 -8 29
-31 76 -50 106 -19 30 -35 58 -35 63 0 16 -122 267 -200 412 -93 172 -139 254
-170 305 -70 114 -247 378 -305 454 -33 43 -85 111 -115 151 -78 103 -143 182
-236 288 -44 51 -87 102 -95 114 -8 12 -48 57 -89 100 -41 43 -87 96 -101 119
-14 22 -53 62 -85 90 -78 66 -146 135 -274 281 -64 72 -140 146 -189 183 -44
34 -81 66 -81 71 0 5 -35 35 -77 67 -43 32 -103 83 -133 113 -30 30 -75 69
-100 86 -25 18 -64 48 -87 65 -23 18 -59 45 -80 60 -66 48 -166 126 -218 171
-27 24 -60 49 -72 56 -13 6 -96 63 -187 125 -90 63 -185 126 -212 139 -27 14
-86 48 -132 76 -46 28 -87 51 -91 51 -5 0 -44 23 -87 52 -80 52 -139 87 -274
163 -41 23 -91 53 -111 66 -34 23 -214 114 -514 259 -223 108 -295 140 -373
166 -40 13 -104 40 -142 59 -71 36 -140 63 -285 114 -44 16 -107 42 -140 58
-33 17 -105 45 -160 63 -55 18 -123 41 -151 52 -27 10 -84 27 -125 37 -41 10
-110 29 -154 41 -44 12 -116 31 -160 41 -44 11 -102 28 -130 39 -65 24 -204
64 -280 80 -33 7 -73 16 -89 21 -16 5 -47 9 -70 9 -23 0 -68 9 -101 20 -33 10
-98 29 -145 41 -47 12 -113 30 -148 41 -35 11 -73 18 -84 14 -24 -6 -77 7
-343 79 -63 17 -152 35 -235 47 -36 5 -87 13 -115 18 -27 5 -79 13 -115 18
-36 6 -89 18 -118 27 -29 9 -103 18 -170 20 -64 3 -153 9 -197 15 -44 5 -136
14 -205 20 -69 6 -172 15 -230 21 -58 6 -166 12 -240 14 -74 2 -207 7 -295 10
-290 11 -339 12 -485 4 -80 -4 -210 -10 -290 -13 -80 -3 -161 -9 -180 -13 -19
-4 -64 -8 -100 -8 -98 -2 -341 -25 -372 -35 -15 -5 -71 -12 -125 -15 -54 -4
-118 -13 -143 -20 -25 -7 -90 -18 -145 -25 -55 -7 -136 -21 -180 -32 -79 -20
-98 -24 -245 -54 -41 -9 -92 -20 -112 -25 -21 -5 -49 -7 -63 -3 -14 3 -42 0
-63 -9 -20 -8 -59 -17 -87 -21 -27 -4 -86 -15 -130 -26 -44 -10 -116 -26 -160
-36 -96 -20 -206 -50 -258 -70 -20 -8 -50 -14 -65 -14 -15 0 -63 -11 -107 -25
-44 -13 -136 -38 -205 -55 -224 -54 -352 -91 -374 -105 -11 -8 -31 -15 -45
-15 -13 0 -44 -11 -67 -25 -24 -14 -81 -35 -126 -46 -46 -11 -98 -29 -117 -40
-18 -11 -97 -40 -175 -65 -77 -26 -170 -57 -206 -71 -36 -14 -96 -37 -135 -51
-59 -23 -314 -149 -395 -196 -88 -51 -131 -73 -174 -88 -26 -9 -63 -29 -81
-43 -19 -14 -37 -25 -41 -25 -17 0 -395 -188 -486 -242 -31 -18 -78 -46 -105
-61 -64 -37 -151 -91 -188 -116 -16 -11 -52 -32 -80 -47 -27 -15 -70 -44 -95
-64 -25 -21 -55 -43 -67 -49 -12 -6 -70 -47 -129 -91 -58 -44 -110 -80 -114
-80 -5 0 -26 -15 -48 -32 -22 -18 -53 -41 -68 -51 -55 -33 -127 -86 -158 -115
-17 -16 -49 -39 -71 -52 -52 -30 -177 -123 -195 -145 -8 -9 -37 -32 -65 -50
-27 -18 -90 -68 -140 -112 -49 -44 -109 -90 -132 -101 -23 -12 -61 -45 -85
-73 -23 -28 -52 -56 -64 -62 -33 -18 -296 -275 -318 -311 -10 -17 -51 -62 -91
-101 -105 -102 -281 -291 -329 -353 -22 -30 -61 -82 -86 -116 -25 -34 -79
-101 -120 -150 -80 -95 -129 -156 -157 -196 -33 -47 -85 -115 -126 -163 -33
-40 -114 -160 -190 -283 -9 -16 -34 -54 -55 -85 -88 -132 -139 -212 -170 -266
-116 -207 -152 -272 -213 -388 -38 -71 -90 -173 -115 -225 -25 -52 -61 -126
-80 -165 -19 -38 -34 -78 -34 -88 0 -10 -10 -37 -21 -60 -12 -23 -32 -71 -45
-107 -47 -133 -73 -197 -94 -233 -12 -20 -30 -62 -40 -94 -10 -32 -51 -157
-93 -278 -41 -121 -86 -260 -100 -310 -14 -49 -30 -103 -36 -120 -5 -16 -16
-55 -24 -85 -8 -30 -21 -82 -30 -115 -9 -33 -23 -96 -32 -140 -9 -44 -22 -101
-31 -127 -8 -25 -19 -81 -24 -123 -5 -42 -12 -80 -15 -84 -2 -5 -9 -44 -14
-87 -5 -44 -14 -91 -20 -107 l-11 -28 -142 3 -143 3 3 55 c2 30 15 109 28 175
14 66 32 158 40 205 9 47 20 108 25 135 5 28 13 79 18 115 5 36 16 88 24 115
8 28 27 95 42 150 15 55 36 120 45 145 10 25 29 83 43 130 14 47 46 144 73
215 26 72 69 193 95 270 26 77 60 169 76 205 17 36 36 83 43 105 10 34 42 105
175 390 12 28 28 68 34 89 5 21 19 48 29 60 28 31 162 298 162 323 0 14 19 51
123 233 69 120 84 146 118 195 11 17 48 73 82 126 111 174 159 243 202 294 23
28 50 66 60 85 19 36 48 75 122 160 22 27 58 81 79 120 21 40 52 83 72 98 19
14 48 50 64 80 17 29 65 90 107 135 84 90 172 193 212 247 15 19 73 83 130
142 57 58 136 141 174 184 69 77 109 116 295 289 53 50 153 143 222 208 128
120 203 179 271 217 21 11 66 45 101 75 66 55 215 166 269 199 29 18 106 72
259 181 31 22 76 51 99 65 47 27 190 120 280 181 32 21 131 77 220 125 90 48
182 99 204 113 22 15 87 49 145 76 58 26 177 83 265 125 88 43 171 81 185 85
14 4 39 15 55 25 70 42 194 103 240 117 27 8 90 35 140 59 128 62 253 114 273
114 9 1 69 21 132 46 63 25 149 58 190 74 41 15 107 40 145 54 147 56 403 140
465 152 119 23 195 45 240 69 42 22 209 69 325 92 97 20 284 69 425 112 36 11
94 23 130 26 36 4 86 13 112 20 26 8 80 17 120 21 40 4 91 13 113 21 22 8 65
19 95 23 30 5 98 15 150 24 52 8 127 21 165 27 39 6 82 18 97 25 15 8 46 14
70 14 24 0 75 9 113 20 38 11 88 20 110 20 22 0 84 7 138 15 62 9 213 17 410
20 171 3 313 8 316 11 3 3 22 2 41 -1 19 -4 206 -9 415 -12z m-12055 -809 c0
-30 -4 -54 -10 -54 -6 0 -10 27 -10 61 0 37 4 58 10 54 6 -3 10 -31 10 -61z
m390 -5419 c0 -13 10 -50 21 -82 17 -46 37 -72 93 -125 39 -37 96 -79 126 -94
40 -19 88 -59 179 -152 108 -111 128 -136 163 -212 65 -139 69 -158 56 -279
-6 -58 -11 -118 -12 -133 -1 -15 -12 -39 -26 -55 -39 -43 -100 -138 -100 -155
0 -18 24 -40 67 -62 43 -22 83 -99 83 -160 0 -43 -2 -47 -41 -68 -141 -79
-147 -81 -200 -45 -22 15 -46 47 -69 92 -30 60 -39 70 -64 73 -45 5 -49 -7
-36 -105 11 -79 10 -93 -4 -121 -13 -26 -23 -32 -48 -32 -29 0 -30 1 -23 33
18 83 17 104 -4 153 -35 79 -75 111 -158 127 -24 5 -45 -1 -90 -25 -79 -42
-88 -51 -117 -124 l-26 -63 19 -61 c11 -33 37 -90 60 -126 23 -36 41 -69 41
-75 0 -15 -113 -11 -137 6 -55 39 -81 218 -48 329 33 110 85 168 195 220 63
30 69 31 221 32 l156 1 62 33 c76 41 120 88 167 181 28 58 37 89 45 163 14
140 -10 206 -136 374 -56 74 -132 121 -211 130 -58 6 -85 -2 -133 -40 -22 -18
-50 -40 -61 -48 -13 -9 -25 -32 -30 -58 -16 -88 25 -191 93 -232 61 -37 162
-20 205 35 25 31 42 25 42 -15 0 -18 -13 -44 -35 -70 -19 -23 -35 -46 -35 -50
0 -5 11 -22 25 -38 18 -21 26 -46 31 -96 9 -83 0 -92 -65 -64 -55 24 -101 70
-101 102 0 13 -9 34 -20 47 l-20 24 -20 -24 c-11 -13 -20 -33 -20 -46 0 -34
-37 -73 -79 -85 -34 -9 -196 -39 -213 -40 -16 0 -30 76 -24 131 8 80 29 126
67 147 17 9 42 26 55 37 24 20 24 21 9 75 -31 114 -10 172 89 250 84 66 103
98 82 139 -9 16 -22 31 -30 34 -9 3 -29 34 -47 68 -27 55 -31 70 -27 128 2 42
10 76 22 94 23 34 36 35 36 2z"/>
<path d="M22607 4916 c-32 -7 -75 -20 -95 -28 -20 -9 -59 -24 -87 -34 -61 -24
-87 -60 -105 -144 -11 -54 -11 -68 3 -114 21 -65 66 -137 103 -163 34 -23 155
-73 179 -73 32 0 95 41 111 72 16 31 15 79 -2 150 -8 36 28 48 65 21 45 -34
66 -81 66 -148 0 -54 2 -60 21 -63 15 -2 29 7 44 28 34 48 91 73 153 65 55 -7
118 -33 124 -51 2 -6 -9 -16 -24 -23 -14 -7 -40 -23 -57 -37 -17 -14 -44 -36
-61 -49 -43 -34 -30 -49 107 -120 63 -33 139 -81 169 -106 30 -26 73 -56 96
-68 96 -48 224 -217 286 -376 39 -102 67 -216 67 -273 0 -49 28 -79 58 -63 28
15 32 31 38 165 7 128 3 149 -50 331 -39 135 -104 261 -241 465 -146 217 -305
379 -548 557 -92 68 -300 106 -420 79z"/>
<path d="M23103 9675 c-50 -7 -96 -15 -101 -19 -5 -3 -26 1 -46 9 -32 14 -39
14 -66 0 -27 -14 -33 -14 -60 0 -46 24 -178 17 -334 -17 -27 -6 -73 -10 -103
-10 -42 0 -59 -5 -82 -24 -19 -16 -41 -24 -66 -24 -48 0 -71 -13 -83 -50 -7
-18 -18 -30 -28 -30 -10 0 -34 -11 -53 -23 -20 -13 -62 -39 -94 -58 -32 -19
-89 -64 -125 -101 -37 -37 -73 -68 -80 -68 -27 0 -120 -101 -150 -163 -16 -34
-47 -90 -69 -124 -36 -55 -78 -167 -123 -328 -8 -27 -11 -111 -8 -245 4 -200
5 -207 35 -295 114 -324 148 -368 365 -487 74 -40 110 -53 178 -64 180 -29
275 -15 381 57 102 69 137 126 146 240 6 65 4 74 -31 144 -40 80 -65 104 -138
129 -41 13 -52 14 -87 1 -87 -30 -125 -76 -123 -152 0 -24 -4 -46 -10 -49 -14
-9 -49 26 -69 71 -48 109 -44 192 13 240 17 14 44 44 60 66 24 33 34 39 64 39
71 0 99 43 49 76 -25 16 -34 16 -111 -7 -52 -16 -90 -2 -152 55 -61 56 -75 88
-74 170 0 76 17 110 66 134 39 19 126 18 165 -2 57 -30 101 -7 87 47 -3 14
-31 54 -61 90 -30 35 -62 83 -70 107 -20 57 -20 149 1 179 44 62 149 63 216 3
42 -38 82 -100 92 -143 3 -15 15 -37 26 -50 l20 -24 24 26 c12 15 26 45 29 67
4 21 14 45 23 53 9 7 38 45 64 84 94 138 201 221 393 305 132 58 132 58 237
59 58 1 134 -4 170 -10 81 -14 319 -86 341 -102 157 -116 225 -190 254 -273
13 -38 26 -60 37 -62 10 -2 46 14 80 35 68 41 130 53 277 55 55 1 77 -2 82
-13 4 -8 11 -51 16 -96 7 -67 5 -92 -10 -143 -17 -58 -21 -63 -64 -82 -36 -16
-57 -19 -96 -14 -48 7 -66 -1 -67 -27 0 -5 58 -67 129 -137 93 -93 132 -139
141 -167 7 -21 16 -42 20 -48 22 -28 63 -150 76 -225 13 -71 13 -102 3 -190
-13 -120 -43 -241 -69 -285 -10 -16 -33 -59 -50 -94 -22 -43 -59 -91 -113
-146 -70 -70 -97 -89 -180 -129 -72 -33 -110 -46 -143 -46 -45 0 -84 -13 -84
-29 0 -4 16 -25 36 -46 42 -44 54 -72 54 -122 0 -29 -8 -43 -41 -74 -59 -54
-109 -60 -194 -24 -68 29 -113 73 -170 168 -17 27 -43 59 -58 71 -25 19 -28
19 -44 4 -15 -16 -13 -21 25 -78 29 -44 43 -76 47 -115 8 -64 2 -86 -37 -131
-49 -55 -59 -58 -132 -28 -78 31 -130 83 -146 146 -23 88 -25 93 -47 96 -15 2
-27 -7 -43 -34 -42 -67 -147 -100 -229 -71 -60 21 -91 87 -41 87 49 0 130 113
130 180 0 35 -29 97 -57 122 -54 50 -182 64 -251 29 -75 -39 -139 -132 -176
-256 -28 -97 -31 -128 -17 -184 5 -20 15 -61 22 -91 27 -124 63 -195 131 -262
140 -136 235 -183 446 -218 104 -18 145 -20 265 -14 328 16 535 111 948 439
42 33 86 88 167 208 68 101 209 393 227 471 19 84 25 312 30 1237 5 911 11
847 -79 834 -28 -4 -114 -6 -191 -5 -278 4 -435 3 -690 -4 -143 -4 -273 -7
-290 -7 -16 1 -86 3 -155 4 -69 2 -150 6 -180 9 -30 4 -96 1 -147 -7z"/>
<path d="M23135 9441 c-49 -9 -201 -83 -233 -114 -50 -46 -173 -224 -195 -281
-16 -41 -37 -167 -43 -251 -6 -99 18 -284 56 -430 43 -164 51 -279 35 -498 -9
-114 -3 -127 59 -127 22 -1 61 -5 86 -11 25 -5 74 -14 110 -18 36 -4 85 -15
110 -24 25 -9 97 -30 160 -47 63 -17 156 -44 205 -60 55 -17 125 -31 180 -35
129 -10 165 -14 174 -19 4 -3 56 -1 115 4 101 8 115 11 212 59 80 39 109 58
122 82 9 17 34 52 54 78 20 26 67 108 104 181 l68 134 4 131 c3 79 0 146 -7
172 -25 92 -156 224 -277 280 -70 32 -170 41 -211 19 -40 -20 -96 -126 -87
-165 21 -90 102 -159 173 -147 79 12 76 13 79 -21 2 -23 -6 -44 -33 -82 -20
-28 -42 -51 -48 -51 -6 0 -30 7 -54 16 -23 9 -49 14 -58 11 -26 -11 -17 -45
21 -74 68 -53 99 -157 70 -227 l-16 -38 -55 4 c-69 6 -104 30 -123 86 -23 70
-76 80 -88 16 -3 -19 -4 -49 -1 -66 7 -43 -23 -132 -45 -136 -9 -2 -26 6 -37
17 -15 15 -34 21 -67 21 -78 0 -180 78 -198 153 -8 32 4 34 58 12 20 -8 68
-16 108 -17 120 -2 217 59 259 162 18 45 18 203 -1 332 -12 89 -12 103 3 151
31 98 19 123 -49 106 -35 -9 -60 -6 -180 26 -158 41 -289 55 -350 35 -74 -24
-128 -66 -167 -132 -29 -48 -37 -73 -37 -110 0 -78 47 -161 111 -197 52 -30
116 -22 161 18 42 37 51 113 20 166 -43 71 26 26 71 -47 21 -34 38 -35 63 -7
40 46 139 75 150 44 10 -26 -17 -83 -54 -116 -51 -44 -55 -54 -37 -88 20 -40
19 -42 -11 -31 -73 28 -141 2 -173 -64 -25 -54 -26 -75 -7 -121 14 -33 14 -35
-6 -35 -11 0 -43 -20 -69 -45 -55 -51 -77 -55 -154 -26 -27 11 -65 25 -84 32
-114 42 -122 126 -22 224 23 21 41 45 41 52 0 7 -20 35 -45 63 -56 64 -89 128
-104 206 -10 55 -9 68 9 116 37 99 140 170 218 148 23 -6 41 -6 53 1 21 11 25
34 8 45 -6 3 -31 33 -55 66 -67 91 -58 147 26 163 30 5 42 1 77 -26 23 -18 47
-45 53 -60 23 -55 61 -45 77 21 16 64 129 101 194 63 36 -21 44 -41 25 -62 -9
-9 -22 -33 -31 -54 -44 -107 18 -207 140 -222 66 -9 118 7 144 43 61 87 69
197 21 298 -59 122 -214 247 -375 303 -59 20 -93 24 -215 27 -80 1 -163 -1
-185 -5z"/>
<path d="M2480 9190 c-255 -32 -545 -239 -609 -435 -33 -99 -36 -146 -13 -197
37 -83 138 -145 221 -133 57 8 144 55 168 91 23 35 20 116 -6 159 -24 41 -15
49 42 40 34 -6 52 -18 95 -63 62 -66 73 -65 112 15 14 28 34 60 43 71 25 28
72 45 101 38 38 -9 86 -55 86 -81 0 -12 8 -33 18 -44 17 -22 18 -22 77 -7 90
24 119 21 149 -15 30 -35 41 -71 29 -93 -4 -8 -24 -25 -43 -38 -19 -13 -36
-31 -38 -40 -2 -10 27 -47 71 -91 85 -85 106 -130 132 -275 15 -86 14 -91 -5
-133 -11 -24 -20 -55 -20 -69 -1 -64 -97 -213 -167 -259 -26 -18 -59 -34 -73
-38 -33 -8 -60 -32 -60 -53 0 -10 14 -34 30 -55 36 -45 38 -78 8 -99 -33 -23
-113 -21 -154 5 -42 26 -64 16 -104 -49 -32 -53 -52 -66 -160 -110 -192 -79
-202 -81 -314 -70 -164 16 -255 69 -341 199 -33 49 -51 69 -62 65 -8 -3 -17
-6 -19 -6 -2 0 -4 -14 -4 -30 0 -54 -70 -102 -97 -67 -19 23 -35 87 -35 142
-1 44 5 62 31 101 33 50 40 88 18 97 -8 3 -33 -3 -57 -14 -54 -24 -77 -24 -90
0 -33 62 1 125 105 196 30 21 55 44 55 50 0 16 -29 41 -58 50 -29 8 -62 61
-62 97 0 37 13 42 52 18 44 -27 131 -27 174 -1 38 23 84 111 84 160 -1 115
-136 231 -267 231 -144 -1 -320 -153 -376 -327 -40 -125 -68 -300 -68 -433 0
-107 3 -128 31 -212 17 -51 61 -154 98 -228 57 -116 76 -145 137 -205 83 -83
160 -132 271 -174 78 -30 235 -58 254 -46 6 4 49 8 98 11 96 5 167 27 316 101
48 23 96 43 105 43 9 0 41 16 71 35 30 19 61 35 68 35 7 0 27 7 44 16 16 9 55
22 84 30 30 8 72 23 94 34 57 29 166 27 266 -4 118 -38 149 -18 121 79 -11 38
-14 87 -12 168 l3 115 57 118 c32 66 74 146 94 179 62 103 100 198 137 341 35
134 36 145 36 319 1 212 0 214 -103 383 -103 170 -183 235 -386 317 l-118 47
-145 3 c-80 2 -179 0 -220 -5z"/>
<path d="M1881 8336 c-10 -12 -9 -27 5 -71 l18 -56 -33 -132 c-18 -73 -41
-157 -51 -187 -32 -96 -43 -176 -38 -277 4 -89 8 -105 41 -170 41 -80 84 -118
193 -173 119 -58 208 -51 344 28 81 47 110 92 110 172 0 79 -31 138 -90 168
-38 20 -55 23 -107 18 -74 -6 -99 -17 -135 -60 -20 -23 -30 -28 -38 -20 -35
35 86 164 153 164 8 0 22 9 33 21 19 21 18 21 -13 47 -17 15 -42 35 -56 44
-44 30 -79 188 -44 201 6 2 43 -4 81 -13 52 -14 78 -27 107 -56 22 -21 39 -44
39 -51 0 -19 45 -44 65 -37 10 4 43 22 73 41 66 39 91 43 56 8 -79 -79 -69
-219 20 -269 22 -13 67 -31 98 -41 l57 -17 87 43 87 43 35 75 c31 65 36 89 40
168 3 71 0 102 -12 134 -20 48 -84 145 -117 176 -49 45 -183 87 -274 86 -22
-1 -69 -1 -103 -2 -35 0 -83 -6 -105 -12 -23 -7 -98 -17 -167 -24 -124 -12
-125 -11 -220 17 -109 32 -123 33 -139 14z"/>
</g>
</svg>
