<svg version="1.0" xmlns="http://www.w3.org/2000/svg"
 width="1701.000000pt" height="628.000000pt" viewBox="0 0 1701.000000 628.000000"
 preserveAspectRatio="xMidYMid meet">
<metadata>
Created by potrace 1.13, written by Peter Selinger 2001-2015
</metadata>
<g transform="translate(0.000000,628.000000) scale(0.100000,-0.100000)"
fill="currentColor" stroke="none">
<path d="M133 6193 c-47 -3 -63 -8 -63 -18 0 -8 4 -15 9 -15 18 0 24 -44 22
-150 -3 -138 7 -230 25 -230 7 0 16 -16 20 -37 5 -25 23 -53 55 -86 27 -28 49
-54 49 -59 0 -4 6 -8 13 -8 17 0 43 -43 28 -48 -6 -2 -11 -10 -11 -17 0 -7 -5
-15 -11 -17 -13 -4 9 -188 22 -188 4 0 26 -18 49 -40 23 -22 51 -40 63 -40 11
0 29 -8 39 -17 13 -12 21 -14 26 -6 4 6 40 15 80 18 39 4 72 12 72 16 0 5 7 9
16 9 8 0 22 6 29 13 36 32 46 37 66 37 12 0 35 14 51 30 15 17 34 30 41 30 7
0 19 9 27 20 8 11 20 20 27 20 7 0 13 5 13 10 0 6 6 10 13 10 7 0 19 9 27 20
8 11 20 20 26 20 7 0 15 14 19 30 4 17 11 30 16 30 5 0 9 5 9 11 0 6 13 24 30
41 17 16 30 38 30 49 0 10 4 19 8 19 13 0 32 63 26 88 -4 14 -2 22 6 22 9 0
11 17 5 67 -7 69 -21 103 -42 103 -7 0 -13 8 -13 19 0 37 -45 70 -103 77 -67
8 -162 -3 -180 -20 -18 -19 -57 -30 -57 -17 0 6 -6 11 -14 11 -8 0 -23 14 -33
30 -9 17 -23 30 -30 30 -7 0 -13 7 -13 16 0 20 -24 44 -44 44 -9 0 -16 5 -16
10 0 6 -16 10 -35 10 -19 0 -35 5 -35 10 0 6 -7 10 -15 10 -8 0 -15 4 -15 9 0
6 -51 12 -112 14 -62 2 -122 6 -133 8 -11 3 -48 4 -82 2z m122 -64 c4 -6 13
-8 20 -5 15 6 130 -20 157 -35 10 -5 24 -9 32 -9 17 0 79 -32 84 -42 2 -5 10
-8 19 -8 8 0 20 -6 27 -12 7 -7 28 -26 46 -42 30 -26 32 -32 28 -77 l-5 -49
33 0 c28 0 33 4 39 30 4 17 11 30 16 30 5 0 9 7 9 16 0 11 6 14 20 9 14 -5 20
-2 20 9 0 11 9 16 30 16 17 0 30 5 30 10 0 6 16 10 36 10 29 0 44 -8 80 -44
24 -25 44 -49 44 -55 0 -6 5 -11 11 -11 8 0 9 -20 4 -66 -5 -51 -4 -69 7 -75
9 -7 10 -11 2 -16 -6 -5 -15 -23 -19 -40 -3 -18 -11 -33 -16 -33 -5 0 -9 -5
-9 -11 0 -13 -25 -39 -39 -39 -6 0 -16 -10 -22 -22 -14 -26 -117 -128 -130
-128 -4 0 -10 -8 -14 -18 -5 -19 -44 -42 -69 -42 -7 0 -33 -16 -57 -35 -24
-19 -54 -35 -66 -35 -12 0 -25 -4 -28 -10 -3 -5 -43 -10 -88 -10 -65 1 -87 5
-105 19 -12 11 -22 23 -22 28 0 5 -9 16 -20 26 -11 9 -20 25 -20 36 0 47 14
111 24 111 15 1 46 65 46 95 0 22 -4 25 -35 25 -19 0 -35 5 -35 10 0 6 -9 10
-19 10 -11 0 -23 9 -26 20 -3 11 -13 20 -21 20 -8 0 -14 8 -14 18 0 9 -10 33
-23 52 -40 61 -48 94 -50 211 -2 149 3 169 48 169 18 0 37 -5 40 -11z"/>
<path d="M16918 6153 c-21 -2 -38 -9 -38 -15 0 -7 -24 -8 -70 -3 -44 4 -70 3
-70 -3 0 -5 -29 -13 -64 -17 -40 -4 -66 -12 -70 -20 -3 -8 -21 -17 -40 -21
-20 -3 -36 -11 -36 -16 0 -12 -26 -38 -37 -38 -5 0 -15 -9 -23 -20 -15 -21
-80 -29 -80 -10 0 6 -33 10 -78 10 -78 0 -79 0 -120 -39 -23 -22 -44 -52 -47
-68 -4 -15 -10 -36 -16 -45 -12 -24 -12 -158 1 -158 6 0 10 -20 10 -45 0 -25
4 -45 10 -45 5 0 13 -12 16 -27 4 -15 18 -38 31 -51 14 -13 29 -35 34 -49 5
-14 18 -27 28 -30 11 -3 22 -16 25 -29 4 -13 13 -24 21 -24 8 0 15 -7 15 -15
0 -8 11 -17 24 -21 13 -3 26 -15 29 -26 3 -11 15 -22 26 -25 12 -3 21 -9 21
-14 0 -5 7 -9 15 -9 8 0 15 -4 15 -9 0 -5 10 -13 22 -16 11 -4 31 -18 43 -31
19 -20 29 -23 98 -21 42 1 77 5 77 10 0 4 16 7 35 7 19 0 35 4 35 8 0 5 15 14
34 22 26 10 38 24 55 64 11 28 21 67 21 86 -1 41 -20 115 -39 148 -11 21 -10
27 11 50 12 15 30 32 39 39 9 7 20 24 23 38 4 16 13 25 26 25 15 0 20 7 20 29
0 17 5 33 11 36 7 5 9 63 5 175 -4 140 -2 169 10 174 21 8 18 46 -3 44 -10 -1
-35 -3 -55 -5z m-22 -71 c7 -4 12 -27 12 -52 0 -25 4 -76 7 -113 5 -46 4 -72
-4 -80 -6 -6 -11 -24 -11 -39 0 -17 -5 -28 -14 -28 -8 0 -20 -19 -27 -44 -9
-33 -19 -46 -36 -51 -13 -3 -23 -12 -23 -20 0 -8 -7 -15 -15 -15 -8 0 -15 -4
-15 -10 0 -5 -13 -10 -30 -10 -25 0 -30 -4 -30 -25 0 -14 5 -25 10 -25 6 0 10
-5 10 -11 0 -13 25 -39 39 -39 5 0 13 -16 17 -35 3 -19 9 -35 13 -35 4 0 8
-13 8 -30 0 -16 -4 -30 -8 -30 -4 0 -10 -13 -14 -30 -4 -16 -13 -30 -21 -30
-8 0 -14 -7 -14 -15 0 -8 -8 -15 -18 -15 -10 0 -24 -9 -32 -20 -12 -16 -26
-20 -72 -20 -32 0 -58 4 -58 8 0 5 -22 15 -50 22 -28 8 -50 19 -50 27 0 7 -17
21 -37 31 -21 9 -41 22 -46 29 -4 7 -14 19 -22 27 -8 8 -15 19 -15 25 0 6 -5
11 -11 11 -14 0 -39 25 -39 39 0 6 -4 11 -10 11 -5 0 -10 7 -10 15 0 9 -6 18
-14 21 -8 3 -17 16 -20 30 -4 13 -11 24 -16 24 -6 0 -10 5 -10 11 0 15 -32 83
-43 90 -15 10 -14 152 1 156 6 3 12 9 12 14 0 13 46 59 59 59 5 0 11 4 13 10
2 5 24 13 49 16 39 5 50 3 67 -14 50 -50 102 -63 102 -26 0 7 9 18 20 24 11 6
20 19 20 28 0 11 15 25 40 36 22 10 40 24 40 32 0 8 10 14 25 14 14 0 36 6 48
14 12 8 39 17 60 20 20 4 37 11 37 16 0 12 110 13 126 2z"/>
<path d="M929 5312 l-97 -3 -6 -34 c-4 -19 -2 -43 4 -54 13 -25 13 -85 -1
-134 -8 -29 -7 -42 2 -53 15 -19 14 -155 -3 -200 -9 -27 -10 -37 -1 -42 12 -8
24 -412 12 -412 -3 0 -3 -28 -1 -61 3 -34 0 -64 -5 -68 -16 -10 -25 -61 -12
-61 9 0 10 -29 5 -110 -6 -99 -5 -110 10 -110 12 0 14 -5 8 -17 -9 -22 -13
-1159 -4 -1290 4 -50 3 -120 -1 -155 -6 -50 -9 -366 -8 -848 1 -251 -3 -453
-10 -484 -7 -26 -5 -55 5 -93 8 -29 14 -66 14 -81 0 -15 3 -38 7 -51 6 -22 10
-23 65 -19 33 2 63 10 67 16 7 12 51 5 51 -9 0 -13 1423 -10 1432 4 8 14 111
11 116 -3 5 -13 202 -13 202 0 0 6 11 10 25 10 14 0 25 -4 25 -10 0 -14 807
-13 812 1 3 8 15 8 45 0 29 -8 293 -12 875 -12 458 0 844 0 858 0 14 0 107 0
208 1 116 1 196 -3 218 -10 26 -9 39 -9 47 -1 14 14 233 15 242 1 8 -13 65
-13 65 1 0 7 59 10 179 8 98 -1 183 1 188 4 5 3 27 1 49 -5 54 -16 284 -22
284 -9 0 6 16 11 35 11 19 0 35 -4 35 -10 0 -14 63 -13 77 1 9 9 19 9 42 -1
18 -7 44 -10 63 -6 18 4 44 6 58 5 41 -2 992 -7 1415 -7 968 1 1480 -3 1483
-12 5 -13 32 -13 32 0 0 15 58 12 63 -2 3 -10 9 -10 28 1 17 10 57 13 163 10
78 -1 161 -2 186 -2 161 5 335 1 338 -7 5 -13 99 -13 107 0 8 13 135 13 135 0
0 -13 107 -13 112 0 2 8 44 8 136 0 73 -6 195 -10 270 -10 674 3 1143 4 1332
3 124 -1 422 0 663 1 240 2 437 -1 437 -6 0 -5 10 -6 23 -3 32 8 669 12 736 4
31 -3 57 -3 59 1 1 4 71 5 155 3 293 -9 517 -8 521 2 3 7 7 6 13 0 11 -14 123
-19 123 -6 0 14 57 14 65 1 8 -13 65 -13 65 0 0 6 16 10 35 10 19 0 35 -3 35
-8 0 -4 18 -8 40 -8 22 -1 40 2 40 7 0 4 16 5 34 2 60 -10 67 13 65 202 0 44
-4 82 -7 85 -4 3 -4 61 0 130 4 69 7 139 7 155 0 17 0 42 0 58 1 15 1 41 0 57
-3 84 -4 713 -1 980 1 168 2 314 2 325 0 11 4 83 9 160 6 103 5 158 -5 210 -8
47 -9 74 -3 82 8 9 14 854 8 1173 0 14 0 165 0 335 1 385 0 396 -21 417 -14
14 -22 15 -60 5 -28 -8 -129 -12 -295 -12 -139 0 -253 -3 -253 -7 0 -5 -18 -8
-40 -8 -22 0 -40 3 -40 8 0 9 -1286 8 -1327 -2 -24 -5 -33 -4 -33 5 0 8 -14
10 -50 6 -27 -3 -50 -2 -50 2 0 15 -33 22 -41 10 -7 -12 -239 -21 -239 -10 0
4 -83 4 -184 2 -128 -2 -190 0 -205 9 -17 9 -26 9 -37 -1 -14 -11 -26 -11
-194 5 -19 2 -54 -2 -77 -7 -30 -8 -58 -8 -95 0 -32 6 -62 7 -76 2 -34 -13
-352 -23 -352 -11 0 15 -52 25 -60 11 -5 -7 -18 -9 -36 -5 -44 11 -238 12
-245 2 -4 -5 -12 -5 -19 -1 -14 9 -220 9 -261 0 -16 -4 -29 -3 -29 2 0 4 -27
8 -60 8 -33 0 -60 -4 -60 -8 0 -5 -14 -5 -32 -2 -42 10 -208 13 -208 5 0 -4
-47 -7 -105 -7 -58 0 -105 3 -105 6 0 5 -105 5 -640 0 -327 -3 -2071 10 -2092
16 -16 4 -28 3 -28 -2 0 -5 -90 -9 -205 -9 -113 0 -205 2 -205 6 0 10 -144 7
-151 -3 -4 -6 -26 -5 -55 1 -49 10 -306 8 -324 -3 -5 -3 -18 0 -28 6 -15 9
-53 9 -166 0 -100 -7 -153 -8 -166 -1 -24 13 -187 13 -195 0 -6 -9 -109 -5
-126 5 -16 10 -2803 5 -2813 -5 -13 -13 -53 -13 -61 0 -4 6 -57 10 -125 10
-68 0 -121 4 -125 10 -11 17 -50 11 -63 -10 -7 -11 -23 -20 -37 -20 -14 0 -30
9 -37 20 -13 20 -58 28 -58 10 0 -6 -80 -10 -220 -10 -140 0 -220 4 -220 10 0
6 -15 10 -34 10 -19 0 -38 -4 -41 -10 -4 -6 -80 -10 -196 -10 -119 0 -189 4
-189 10 0 6 -16 10 -35 10 -19 0 -35 -4 -35 -10 0 -15 -78 -12 -83 3 -5 15
-190 12 -195 -3 -5 -13 -242 -13 -242 0 0 6 -65 10 -174 10 -106 0 -177 -4
-181 -10 -3 -5 -17 -10 -30 -10 -13 0 -27 5 -30 10 -9 15 -162 13 -169 -2 -5
-10 -7 -10 -12 0 -7 15 -200 17 -209 2 -8 -12 -68 -13 -80 -1 -13 11 -114 17
-236 13z m120 -82 c23 -6 69 -8 108 -4 37 3 77 6 88 6 11 -1 104 -1 208 -1
119 -1 187 -4 187 -11 0 -5 16 -10 35 -10 19 0 35 4 35 9 0 10 58 7 111 -4 19
-4 29 -3 29 5 0 8 12 10 38 6 54 -9 52 -9 111 -3 30 3 57 11 61 17 5 8 15 8
36 -1 18 -7 118 -12 269 -14 133 -1 251 -5 263 -9 13 -5 22 -3 22 3 0 15 27
14 33 -1 4 -10 7 -10 14 -1 7 10 18 10 43 3 45 -13 90 -13 90 0 0 6 7 10 15
10 8 0 15 -5 15 -11 0 -6 9 -8 22 -3 35 11 238 13 287 2 27 -5 47 -5 50 1 8
12 154 9 164 -4 6 -7 10 -7 13 0 4 10 46 11 257 1 90 -5 127 -3 127 4 0 8 11
9 30 5 48 -11 110 -13 110 -4 0 10 202 5 219 -5 7 -4 17 -4 24 2 13 10 34 10
121 -2 45 -7 60 -6 67 5 6 9 12 10 17 4 9 -12 72 -15 72 -4 0 14 28 11 33 -3
4 -10 8 -9 16 2 8 11 13 12 19 3 5 -8 21 -9 52 -3 27 5 46 5 48 -1 6 -15 22
-10 22 6 0 8 5 15 10 15 6 0 10 -4 10 -9 0 -5 45 -12 100 -16 76 -5 104 -4
116 6 13 10 17 10 25 -2 8 -12 10 -12 18 0 5 7 13 11 18 8 22 -14 117 -17 125
-5 6 9 10 10 16 2 8 -12 74 -15 82 -4 3 4 34 4 70 -1 46 -5 67 -4 72 4 5 8 11
9 16 2 9 -13 365 -18 452 -6 36 4 66 4 68 0 5 -14 66 -11 80 3 10 10 15 10 21
-1 12 -19 375 -18 399 1 12 10 16 10 19 1 5 -14 83 -18 83 -5 0 4 16 8 35 9
19 1 35 -3 35 -8 0 -7 103 -9 300 -6 30 1 78 1 105 0 28 -1 782 -4 1676 -6
1261 -3 1631 -7 1649 -17 17 -9 24 -9 30 0 10 16 608 16 659 1 25 -8 38 -7 48
1 10 8 155 11 531 9 284 -1 524 -2 532 -3 8 0 42 0 75 1 33 0 71 1 85 0 14 0
110 0 214 1 104 0 192 -3 195 -7 8 -12 61 -13 61 -2 0 13 235 11 334 -3 61 -8
80 -8 86 2 5 8 13 9 21 4 19 -12 229 -14 229 -3 0 12 97 11 105 -1 9 -14 73
-12 77 2 5 13 118 13 128 0 7 -9 120 -13 120 -4 0 4 25 7 55 7 30 0 55 -3 55
-7 0 -5 16 -8 35 -8 19 0 35 5 35 10 0 6 7 10 15 10 8 0 15 -5 15 -11 0 -14
202 -10 213 5 5 8 10 7 16 -3 7 -10 26 -12 87 -6 113 9 304 12 304 3 0 -11
144 -4 153 7 4 7 10 6 15 -1 9 -13 251 -17 267 -4 7 6 24 6 43 1 49 -14 532
-12 532 2 0 9 3 8 8 -1 7 -9 57 -12 213 -10 112 1 210 -1 217 -6 7 -4 10 -16
7 -25 -3 -10 1 -23 9 -30 16 -13 12 -115 -6 -163 -13 -35 -2 -98 17 -98 19 0
19 -8 0 -26 -16 -17 -10 -104 8 -116 6 -4 4 -13 -6 -23 -15 -14 -16 -38 -12
-198 4 -146 6 -519 4 -647 -2 -106 6 -226 15 -232 7 -6 8 -10 1 -15 -16 -12
-19 -115 -4 -124 10 -6 9 -12 -2 -31 -12 -19 -14 -65 -11 -258 1 -129 3 -242
3 -250 0 -8 0 -26 0 -40 -1 -14 -1 -110 -1 -214 -1 -104 -4 -206 -8 -225 -5
-20 -6 -70 -4 -111 2 -41 4 -129 3 -195 -1 -66 -3 -259 -5 -430 -2 -170 0
-326 5 -345 6 -22 5 -36 -1 -38 -12 -4 -14 -82 -2 -82 8 0 8 -198 -1 -220 -3
-8 -7 -24 -9 -35 -3 -18 -11 -20 -107 -20 -73 -1 -106 -4 -109 -13 -5 -15 -57
-16 -81 0 -15 9 -32 9 -75 -2 -46 -11 -61 -11 -81 0 -19 10 -119 13 -445 14
-231 1 -420 -2 -420 -6 0 -15 -41 -19 -54 -5 -11 11 -58 13 -247 11 -127 -2
-235 -7 -238 -11 -7 -11 -181 -13 -181 -2 0 4 -19 3 -42 -2 -26 -6 -43 -6 -47
0 -9 14 -131 26 -131 13 0 -14 -43 -24 -50 -11 -6 9 -1550 15 -2870 11 -195
-1 -460 0 -587 1 -128 1 -234 0 -235 -3 -2 -3 -124 -3 -273 0 -148 3 -275 2
-282 -3 -7 -5 -17 -6 -23 -2 -6 4 -358 8 -783 10 -425 1 -792 5 -817 9 -82 11
-190 14 -196 5 -3 -5 -30 -9 -60 -9 -30 0 -54 -4 -54 -10 0 -5 -7 -10 -15 -10
-8 0 -15 5 -15 10 0 6 -16 10 -35 10 -19 0 -35 4 -35 9 0 6 -23 7 -52 4 -47
-5 -80 -6 -145 -4 -10 0 -85 0 -168 0 -82 0 -178 2 -212 5 -38 3 -65 1 -69 -6
-4 -6 -27 -8 -58 -4 -116 14 -270 16 -279 3 -7 -9 -10 -9 -14 1 -6 14 -73 17
-73 2 0 -5 -16 -10 -35 -10 -19 0 -35 5 -35 10 0 15 -117 13 -124 -2 -5 -11
-7 -11 -12 0 -7 15 -124 17 -124 2 0 -5 -7 -10 -15 -10 -8 0 -15 4 -15 9 0 13
-583 10 -592 -3 -5 -7 -11 -7 -20 2 -16 16 -60 16 -77 -1 -11 -9 -14 -9 -18 1
-6 17 -225 17 -253 -1 -15 -9 -23 -9 -28 -1 -9 14 -492 17 -492 3 0 -14 -28
-11 -33 4 -4 9 -8 8 -17 -3 -9 -11 -13 -12 -17 -2 -3 7 -26 12 -63 12 -37 0
-60 -5 -64 -12 -5 -11 -7 -11 -12 0 -4 7 -27 12 -64 12 -37 0 -60 -5 -64 -12
-5 -10 -7 -10 -12 -1 -8 18 -1020 18 -1028 0 -5 -9 -7 -9 -12 1 -8 18 -830 18
-838 0 -5 -11 -7 -11 -12 0 -4 7 -27 12 -64 12 -37 0 -60 -5 -64 -12 -5 -10
-7 -10 -12 0 -4 9 -51 12 -184 12 -109 0 -181 4 -185 10 -8 13 -65 13 -65 0 0
-15 -117 -13 -124 3 -5 9 -7 9 -12 0 -7 -15 -84 -18 -84 -3 0 13 -57 13 -65 0
-8 -13 -215 -13 -215 0 0 6 -7 10 -15 10 -8 0 -15 -4 -15 -8 0 -4 -13 -9 -30
-10 -16 -1 -30 2 -30 7 0 5 -54 8 -122 8 l-123 -2 -6 99 c-11 162 -8 3586 3
3629 6 25 6 43 -1 50 -6 8 -7 66 -1 167 5 85 9 178 10 206 l0 50 37 0 c21 0
39 6 41 13 2 7 10 10 17 7 8 -3 32 -10 54 -16z"/>
<path d="M1350 4980 c-8 -5 -48 -10 -89 -10 -63 0 -72 -2 -67 -16 3 -9 6 -24
6 -34 0 -10 6 -25 13 -32 12 -12 13 -49 6 -228 -1 -19 1 -110 5 -202 5 -124 3
-173 -6 -187 -9 -14 -9 -26 -1 -43 11 -26 7 -136 -6 -152 -11 -14 -20 -76 -11
-76 4 0 7 -18 7 -40 0 -22 -4 -40 -9 -40 -5 0 -7 -9 -3 -20 3 -10 6 -99 6
-197 1 -137 4 -183 15 -200 13 -20 13 -26 0 -46 -15 -22 -12 -67 4 -67 5 0 7
-41 7 -90 -2 -68 -6 -93 -17 -100 -12 -8 -12 -11 2 -27 22 -26 24 -371 2 -456
-16 -61 -13 -165 5 -176 13 -8 7 -181 -7 -190 -12 -7 -4 -101 9 -101 11 0 -1
-64 -13 -68 -14 -6 -9 -50 7 -56 10 -4 15 -19 15 -49 0 -27 -6 -49 -15 -57
-20 -16 -20 -80 -1 -80 12 0 14 -27 13 -160 -1 -88 -5 -160 -9 -160 -5 0 -8
-9 -8 -20 0 -11 5 -20 10 -20 13 0 13 -57 0 -62 -5 -2 -12 -46 -16 -99 l-7
-95 28 -23 c21 -16 30 -18 36 -10 7 12 360 24 551 19 48 -1 74 3 93 16 24 16
26 16 43 -2 15 -17 32 -19 177 -17 88 0 175 -3 194 -9 21 -7 36 -7 40 -1 6 9
1798 10 2399 1 127 -1 233 0 235 3 1 3 58 2 127 -2 70 -5 160 -4 206 1 49 5
107 5 146 0 35 -5 97 -6 137 -1 41 4 97 4 125 -1 61 -10 198 -12 246 -3 19 3
57 2 85 -4 27 -5 54 -7 60 -3 15 9 324 11 373 2 23 -4 42 -4 42 0 0 4 60 6
133 3 72 -3 168 -4 212 -4 44 1 89 2 100 2 11 0 194 -1 407 -3 258 -2 390 0
393 7 3 6 7 5 11 -2 7 -17 31 -17 37 0 4 9 7 9 15 -1 7 -11 18 -11 57 -1 38 9
61 9 109 0 70 -14 177 -12 189 4 5 7 9 7 15 0 9 -13 412 -16 412 -3 0 5 9 7
20 3 37 -12 120 -14 120 -3 0 7 4 7 13 1 17 -13 127 -16 127 -3 0 5 7 10 15
10 8 0 15 -3 15 -7 0 -14 914 -12 923 1 5 8 10 7 18 -4 8 -11 12 -12 16 -2 5
14 33 17 33 3 0 -14 393 -12 402 2 6 9 10 9 16 0 6 -10 115 -13 460 -13 276
-1 452 -5 452 -11 0 -5 18 -9 40 -9 22 0 40 4 40 9 0 11 1153 7 1223 -4 32 -5
51 -4 56 3 4 7 22 7 51 2 25 -5 47 -5 50 -1 6 10 197 7 207 -2 10 -11 63 -8
63 4 0 13 122 8 133 -6 4 -7 10 -6 15 1 8 13 212 15 212 2 0 -4 16 -8 35 -8
19 0 35 4 35 8 0 10 66 9 76 -1 10 -9 64 -9 64 1 0 12 304 10 313 -2 5 -8 10
-7 16 2 6 11 26 13 78 9 38 -3 82 -9 96 -12 16 -4 27 -3 27 3 0 6 31 10 80 9
44 -1 80 -5 80 -9 0 -5 68 -8 150 -8 103 0 150 3 150 11 0 7 9 9 28 3 33 -9
262 -14 262 -5 0 3 47 6 105 6 58 0 105 -4 105 -8 0 -4 120 -5 268 -2 147 4
294 6 327 6 115 -1 103 -48 103 396 0 214 5 478 10 588 6 110 10 392 9 627 -1
236 1 428 5 428 4 0 4 54 1 119 -3 65 -3 127 1 137 5 13 11 1212 7 1327 -1 9
-8 17 -16 17 -8 0 -15 4 -15 9 0 14 -469 19 -832 9 -98 -3 -178 -1 -178 3 0
14 -108 11 -130 -3 -16 -10 -24 -10 -40 0 -26 16 -190 17 -190 1 0 -8 -11 -9
-32 -4 -18 4 -141 9 -272 11 -181 3 -243 1 -254 -9 -12 -9 -16 -9 -19 1 -6 15
-223 18 -223 2 0 -13 -57 -13 -65 0 -8 13 -212 13 -217 0 -2 -7 -28 -7 -78 -1
-41 6 -208 10 -370 10 -162 -1 -391 0 -507 1 -117 1 -217 -2 -223 -5 -5 -3
-20 1 -32 9 -24 17 -83 22 -92 7 -4 -6 -324 -26 -386 -23 -43 2 -107 17 -125
28 -26 18 -52 18 -63 -2 -7 -13 -55 -16 -353 -19 -208 -3 -374 -1 -419 6 -92
12 -313 12 -392 -1 -36 -5 -80 -5 -116 0 -37 7 -58 6 -60 0 -5 -13 -213 -13
-246 0 -14 5 -26 6 -26 2 0 -4 -80 -8 -177 -10 -133 -2 -179 1 -185 10 -6 11
-10 10 -16 0 -10 -14 -252 -13 -263 1 -3 5 -22 4 -42 -1 -28 -8 -37 -7 -41 4
-7 18 -40 18 -96 -2 -30 -10 -46 -12 -48 -5 -5 14 -119 15 -127 1 -9 -14 -75
-13 -75 1 0 8 -29 10 -102 5 -57 -4 -110 -7 -118 -7 -8 -1 -85 3 -170 7 -85 5
-202 9 -260 8 -58 -1 -455 -2 -883 -2 -580 -1 -783 2 -797 10 -15 9 -24 9 -44
-2 -21 -11 -77 -12 -303 -6 -153 4 -370 9 -483 10 -113 2 -239 6 -280 11 -64
6 -78 5 -89 -9 -15 -17 -61 -22 -61 -6 0 6 -20 10 -45 10 -25 0 -45 -4 -45
-10 0 -5 -7 -10 -15 -10 -8 0 -15 5 -15 10 0 14 -53 13 -85 -2 -19 -9 -28 -9
-37 0 -16 16 -45 15 -51 0 -4 -10 -7 -10 -18 0 -16 15 -256 17 -261 2 -2 -7
-15 -7 -37 0 -31 9 -408 11 -2591 14 -305 1 -562 4 -570 8 -8 4 -22 3 -30 -2z
m1130 -102 c102 -2 202 -8 222 -12 20 -5 45 -5 55 -1 27 11 185 16 197 6 6 -5
59 -6 117 -2 113 6 350 -1 412 -14 21 -4 37 -13 37 -21 0 -8 7 -14 15 -14 8 0
18 -16 24 -37 6 -20 23 -48 38 -63 48 -45 63 -69 63 -98 0 -16 8 -32 20 -40
11 -7 20 -19 20 -27 0 -8 7 -15 15 -15 8 0 15 -7 15 -15 0 -8 -4 -15 -8 -15
-13 0 -1 -64 13 -72 7 -5 11 -31 9 -78 -1 -38 2 -70 7 -70 5 0 9 -40 9 -90 0
-49 -3 -90 -7 -90 -5 0 -9 -36 -10 -80 -2 -57 -8 -90 -23 -119 -11 -22 -20
-51 -20 -65 0 -14 -4 -28 -10 -31 -5 -3 -10 -17 -10 -31 0 -13 -4 -24 -10 -24
-5 0 -10 -16 -10 -35 0 -19 -4 -35 -10 -35 -5 0 -10 -7 -10 -15 0 -8 -4 -15
-10 -15 -5 0 -10 -13 -10 -30 0 -16 -3 -30 -8 -30 -4 0 -13 -13 -20 -30 -8
-16 -20 -30 -28 -30 -8 0 -17 -13 -20 -30 -4 -16 -10 -30 -15 -30 -5 0 -9 -6
-9 -14 0 -8 -13 -20 -30 -28 -16 -7 -30 -16 -30 -20 0 -3 -3 -14 -7 -24 -6
-15 0 -16 60 -10 46 5 67 4 67 -3 0 -6 7 -11 16 -11 8 0 22 -7 30 -15 10 -9
25 -13 38 -9 19 4 25 1 30 -20 5 -19 15 -27 41 -32 24 -4 35 -12 35 -23 0 -10
12 -28 26 -42 l27 -24 -7 68 c-6 59 -4 68 11 74 10 3 25 11 33 18 33 26 57 24
81 -9 13 -17 23 -36 21 -42 -1 -6 5 -17 13 -24 8 -7 15 -23 15 -36 0 -12 4
-25 8 -28 15 -9 51 6 57 23 3 10 29 28 58 41 28 13 57 31 64 39 9 12 30 16 87
16 44 0 80 5 87 12 20 20 2 61 -29 67 -18 4 -32 17 -41 36 -7 17 -19 30 -27
30 -9 0 -14 11 -14 30 0 23 -4 30 -20 30 -11 0 -20 7 -20 15 0 8 -4 15 -10 15
-5 0 -10 14 -10 30 0 17 -4 30 -8 30 -5 0 -17 18 -27 40 -10 22 -22 40 -27 40
-4 0 -8 9 -8 20 0 11 -4 20 -9 20 -5 0 -12 15 -15 34 -4 19 -10 36 -14 38 -5
2 -15 50 -25 106 -12 80 -13 108 -5 122 9 14 9 25 1 42 -15 30 -23 128 -10
128 5 0 6 11 3 25 -4 14 -3 31 1 38 4 7 13 58 20 114 7 68 17 108 27 119 9 8
16 26 16 40 0 13 5 24 10 24 6 0 10 14 10 30 0 17 5 30 10 30 6 0 10 7 10 15
0 8 9 24 20 35 11 11 23 32 26 47 4 15 13 33 19 39 6 7 23 26 37 42 l26 31
116 2 c65 1 119 -1 122 -4 9 -9 -19 -47 -72 -101 -28 -28 -54 -64 -58 -80 -4
-17 -18 -40 -32 -53 -15 -14 -24 -33 -24 -53 0 -16 -4 -30 -9 -30 -5 0 -15
-17 -21 -37 -7 -21 -16 -42 -21 -48 -5 -5 -9 -26 -9 -47 0 -21 -8 -55 -17 -76
-20 -46 -23 -64 -24 -177 -1 -58 3 -91 10 -93 6 -2 11 -14 11 -27 0 -13 5 -27
10 -30 6 -3 10 -17 10 -31 0 -13 5 -24 10 -24 6 0 10 -18 10 -40 0 -22 4 -40
9 -40 5 0 15 -20 22 -45 7 -25 17 -45 21 -45 4 0 8 -16 8 -35 0 -19 5 -35 10
-35 16 0 59 -53 60 -72 0 -10 4 -18 9 -18 5 0 13 -9 16 -20 3 -11 13 -20 21
-20 8 0 14 -6 14 -13 0 -7 15 -27 34 -45 19 -18 38 -41 41 -52 4 -11 13 -20
21 -20 8 0 14 -4 14 -10 0 -5 7 -10 15 -10 8 0 15 -4 15 -9 0 -14 165 -181
179 -181 6 0 11 -6 11 -12 0 -7 18 -33 40 -58 22 -24 40 -48 40 -52 0 -4 6 -8
13 -8 7 0 26 -16 42 -36 17 -20 42 -47 58 -62 15 -14 27 -31 27 -39 0 -7 6
-13 14 -13 8 0 14 -6 13 -12 -1 -33 4 -48 16 -48 8 0 20 -11 27 -25 7 -14 17
-25 22 -25 4 0 8 -7 8 -16 0 -25 48 -104 63 -104 3 0 10 23 17 50 7 29 18 50
25 50 8 0 17 10 21 23 4 12 15 28 25 35 11 8 19 25 19 41 0 22 6 30 24 35 13
3 27 14 30 23 13 33 31 63 38 63 5 0 8 10 8 21 0 18 2 19 15 9 13 -10 15 -9
15 9 0 12 6 21 15 21 23 0 76 57 69 75 -4 10 0 15 14 15 31 0 52 11 52 26 0 8
5 14 10 14 6 0 10 6 10 14 0 8 11 17 25 20 18 5 27 15 32 36 4 21 11 30 24 30
11 0 19 5 19 10 0 6 9 10 20 10 11 0 20 5 20 12 0 13 168 178 182 178 4 0 8 7
8 15 0 8 16 29 35 46 19 18 35 40 35 51 0 10 4 18 9 18 5 0 11 9 14 20 3 11
12 20 20 20 8 0 17 8 21 18 3 9 14 31 25 48 10 17 22 45 26 62 3 18 10 32 14
32 4 0 14 25 21 55 7 30 17 55 21 55 4 0 7 21 6 48 0 26 1 106 2 177 2 93 -2
147 -13 189 -9 32 -13 63 -10 67 3 5 1 24 -5 42 -5 17 -15 53 -22 80 -6 26
-15 47 -19 47 -4 0 -13 20 -19 45 -6 25 -16 45 -21 45 -6 0 -10 7 -10 15 0 8
-6 15 -14 15 -8 0 -18 18 -24 40 l-10 40 63 0 c35 0 66 4 69 9 4 5 23 3 46 -6
31 -12 40 -21 40 -40 0 -12 5 -23 10 -23 6 0 10 -16 10 -35 0 -19 5 -35 10
-35 6 0 10 -13 10 -30 0 -16 5 -30 10 -30 6 0 10 -9 10 -20 0 -11 5 -20 10
-20 6 0 10 -12 10 -28 0 -35 17 -94 29 -101 5 -4 11 -35 12 -71 2 -36 8 -68
14 -72 14 -10 10 -361 -4 -366 -6 -2 -11 -10 -11 -18 0 -8 -5 -14 -11 -14 -8
0 -10 -14 -6 -40 4 -29 1 -40 -8 -40 -7 0 -18 -21 -25 -47 -8 -27 -18 -51 -22
-54 -5 -3 -14 -36 -21 -74 -9 -52 -17 -71 -34 -83 -16 -10 -22 -21 -18 -33 6
-19 -15 -49 -34 -49 -5 0 -13 -9 -16 -20 -3 -11 -11 -20 -16 -20 -5 0 -9 -5
-9 -11 0 -16 -26 -39 -44 -39 -9 0 -16 -5 -16 -11 0 -6 -7 -17 -15 -25 -28
-28 -17 -41 38 -48 29 -4 66 -16 82 -26 17 -11 37 -20 45 -20 8 0 34 -17 58
-39 25 -23 42 -33 42 -24 0 8 14 19 30 24 18 7 30 18 30 29 0 23 41 50 76 50
15 0 41 -9 59 -20 28 -18 33 -26 38 -76 3 -31 7 -58 9 -59 6 -6 78 20 78 27 0
5 7 8 15 8 8 0 15 4 15 9 0 5 23 14 50 21 28 7 50 16 50 20 0 5 8 9 18 9 39 0
172 26 172 33 0 4 18 8 41 8 35 0 40 2 34 18 -4 9 -10 27 -13 40 -2 12 -13 27
-23 33 -11 5 -19 16 -19 24 0 8 -4 15 -9 15 -5 0 -14 20 -20 45 -7 27 -17 45
-25 45 -9 0 -18 19 -25 50 -6 28 -18 67 -26 86 -8 20 -15 47 -15 60 0 12 -4
25 -9 28 -14 9 -26 75 -37 201 -4 44 -10 82 -15 85 -4 3 -3 23 2 45 19 70 22
105 10 105 -6 0 -11 11 -11 25 0 16 6 25 15 25 9 0 15 9 15 24 0 14 5 28 10
31 6 4 9 16 8 28 -4 40 14 117 27 117 8 0 17 24 24 62 6 34 14 64 18 67 13 9
33 75 33 104 0 20 7 30 25 37 15 6 25 17 25 30 0 11 5 20 10 20 6 0 10 7 10
15 0 9 9 25 20 37 17 19 31 21 117 22 54 1 108 -3 119 -9 21 -9 19 -12 -30
-61 -74 -73 -126 -136 -126 -152 0 -13 -8 -25 -42 -63 -10 -10 -18 -23 -18
-29 0 -5 -4 -10 -10 -10 -15 0 -12 -67 3 -74 10 -5 10 -7 0 -12 -7 -3 -13 -12
-13 -20 0 -8 -4 -14 -10 -14 -5 0 -10 -7 -10 -15 0 -8 -4 -15 -10 -15 -5 0
-10 -18 -10 -39 0 -22 -5 -41 -11 -43 -6 -2 -12 -22 -13 -45 -1 -23 -8 -48
-15 -57 -16 -19 -10 -128 7 -134 8 -2 12 -31 12 -77 0 -52 4 -78 15 -88 10
-11 13 -25 9 -47 -7 -31 21 -100 39 -100 5 0 7 -10 4 -21 -6 -21 -1 -29 36
-70 9 -10 17 -24 17 -29 0 -5 5 -10 10 -10 6 0 10 -10 10 -23 0 -13 11 -34 25
-47 14 -13 28 -38 31 -57 3 -18 10 -33 14 -33 5 0 12 -14 15 -32 7 -30 26 -58
40 -58 10 0 55 -48 55 -60 0 -5 5 -10 10 -10 6 0 10 -7 10 -15 0 -8 7 -15 15
-15 8 0 15 -6 15 -13 0 -15 51 -47 74 -47 9 0 19 -14 25 -35 10 -37 56 -84 82
-85 9 0 20 -11 23 -25 4 -14 13 -25 21 -25 8 0 15 -7 15 -15 0 -8 11 -17 25
-21 14 -3 25 -10 25 -15 0 -5 6 -9 14 -9 8 0 18 -14 22 -32 3 -18 15 -40 25
-49 11 -9 19 -21 19 -28 0 -6 5 -11 11 -11 11 0 69 -57 69 -69 0 -3 12 -14 25
-24 22 -16 27 -16 40 -3 18 17 45 117 45 163 0 26 5 34 25 39 15 4 28 16 31
29 3 13 17 32 30 44 14 12 27 35 31 51 4 21 13 32 29 36 13 3 24 12 24 20 0 8
5 14 10 14 6 0 10 7 10 15 0 8 5 15 10 15 6 0 10 7 10 15 0 8 5 15 10 15 6 0
10 6 10 14 0 8 11 17 25 20 14 4 25 11 25 16 0 6 7 10 15 10 8 0 15 5 15 10 0
6 5 10 11 10 14 0 39 25 39 39 0 6 7 11 15 11 15 0 25 6 60 38 7 6 21 12 29
12 9 0 16 5 16 10 0 6 8 14 17 17 24 9 123 107 123 121 0 7 5 12 10 12 6 0 10
11 10 25 0 20 5 25 25 25 14 0 25 6 25 13 0 8 14 33 30 55 17 23 30 49 30 57
0 8 8 23 18 33 34 37 50 60 57 83 4 13 12 27 18 30 5 4 13 38 18 75 5 38 12
94 17 126 17 116 -9 390 -38 408 -6 4 -8 14 -4 23 3 9 2 17 -4 17 -5 0 -14 19
-20 43 -6 23 -20 52 -32 64 -11 12 -20 29 -20 38 0 8 -4 15 -10 15 -5 0 -10 6
-10 13 0 7 -9 19 -20 27 -11 8 -20 19 -20 25 0 5 -17 21 -38 35 -63 42 -68 50
-33 50 17 0 46 -8 65 -17 26 -12 41 -14 58 -7 34 15 128 6 128 -12 0 -8 7 -17
15 -20 8 -4 15 -15 15 -25 0 -10 5 -19 10 -19 6 0 10 -9 10 -20 0 -11 4 -20 8
-20 11 0 32 -46 32 -70 0 -11 4 -20 10 -20 5 0 13 -18 16 -41 4 -22 13 -47 21
-55 8 -7 11 -18 8 -24 -4 -6 1 -35 10 -65 11 -39 15 -91 14 -173 0 -64 0 -142
1 -174 0 -31 -4 -59 -9 -63 -6 -3 -11 -24 -11 -46 0 -22 -6 -50 -14 -62 -7
-12 -21 -51 -31 -87 -9 -36 -21 -70 -26 -76 -5 -6 -7 -19 -3 -28 4 -10 0 -18
-10 -22 -9 -3 -16 -12 -16 -19 0 -8 -11 -22 -25 -33 -14 -11 -24 -28 -23 -38
3 -37 -2 -54 -17 -54 -8 0 -15 -4 -15 -10 0 -5 -5 -10 -11 -10 -11 0 -39 -24
-39 -34 0 -3 18 -6 40 -6 22 0 40 -4 40 -10 0 -5 10 -10 23 -10 13 0 34 -11
47 -25 13 -14 29 -25 37 -25 7 0 13 -4 13 -10 0 -5 5 -10 10 -10 6 0 10 9 10
20 0 10 6 23 14 27 8 4 16 19 18 33 2 19 10 26 33 28 17 2 34 10 38 18 10 18
41 18 57 -1 7 -8 18 -15 25 -15 14 0 45 -53 45 -76 0 -14 67 -8 84 7 6 5 22 9
37 9 15 0 29 7 33 15 3 8 15 15 26 15 11 0 20 5 20 11 0 6 7 8 16 5 9 -4 22 0
28 8 15 18 83 28 90 13 5 -9 7 -9 12 1 3 6 14 12 25 12 26 0 26 57 -1 105 -11
20 -20 42 -20 50 0 8 -4 15 -8 15 -16 0 -52 134 -58 213 -3 42 -10 77 -15 77
-5 0 -9 14 -9 30 0 17 5 30 10 30 6 0 10 7 10 15 0 8 -4 15 -10 15 -17 0 -12
152 5 177 10 15 17 54 20 115 4 88 24 158 45 158 6 0 10 9 10 19 0 11 4 22 9
25 5 3 12 18 15 33 12 46 30 83 43 83 6 0 14 18 18 40 4 24 12 40 20 40 8 0
20 8 27 18 22 29 59 37 143 31 44 -3 71 -6 60 -7 -22 -3 -55 -25 -55 -37 0 -4
-13 -20 -30 -35 -16 -15 -30 -35 -30 -44 0 -9 -3 -16 -7 -16 -12 0 -33 -51
-33 -77 0 -13 -4 -23 -10 -23 -5 0 -10 -13 -10 -30 0 -16 -4 -30 -10 -30 -5 0
-10 -18 -10 -40 0 -22 -4 -40 -10 -40 -5 0 -10 -16 -10 -35 0 -19 -4 -35 -9
-35 -5 0 -10 -63 -10 -144 0 -110 3 -145 13 -149 8 -3 16 -33 20 -79 4 -40 11
-75 14 -78 13 -9 42 -68 42 -83 0 -8 7 -20 15 -27 8 -7 15 -23 15 -36 0 -13 5
-24 10 -24 6 0 10 -7 10 -15 0 -8 5 -15 10 -15 6 0 10 -6 10 -14 0 -8 7 -16
15 -20 8 -3 15 -17 15 -30 0 -18 4 -24 15 -20 9 4 15 0 15 -10 0 -9 5 -16 10
-16 6 0 10 -4 10 -10 0 -14 22 -40 127 -146 51 -52 93 -99 93 -105 0 -13 58
-69 71 -69 5 0 9 -13 9 -30 0 -23 5 -31 25 -36 14 -3 25 -11 25 -16 0 -5 6
-15 13 -23 28 -30 47 -56 47 -65 0 -6 5 -10 10 -10 6 0 10 -8 10 -18 0 -10 9
-24 20 -32 11 -8 20 -20 20 -27 0 -7 5 -13 10 -13 6 0 10 -6 10 -13 0 -7 9
-18 20 -25 12 -7 20 -23 20 -40 0 -16 9 -35 22 -46 21 -19 22 -18 45 10 13 16
26 41 30 57 3 15 9 27 14 27 5 0 9 5 9 11 0 5 19 30 43 54 23 24 53 57 67 74
27 34 83 71 106 71 8 0 14 5 14 10 0 6 7 10 15 10 8 0 20 9 27 20 7 11 18 20
25 20 7 0 13 6 13 13 0 8 18 19 39 26 22 6 60 31 86 56 25 25 50 45 55 45 6 0
10 4 10 10 0 12 79 90 91 90 5 0 13 8 16 18 9 22 29 42 42 42 6 0 11 7 11 15
0 8 7 15 15 15 8 0 15 7 15 15 0 8 4 15 10 15 5 0 12 11 16 25 3 14 10 25 15
25 5 0 9 7 9 15 0 8 5 15 10 15 6 0 10 4 10 10 0 17 34 90 42 90 5 0 8 5 8 11
0 6 7 17 15 25 15 16 20 53 15 132 -1 23 3 42 8 42 6 0 9 43 9 110 -1 61 -5
110 -9 110 -5 0 -8 35 -8 78 0 42 -5 95 -11 117 -6 22 -16 66 -23 98 -8 34
-22 65 -35 76 -12 10 -21 30 -21 45 0 30 -37 86 -57 86 -7 0 -13 8 -13 19 0
10 -7 24 -15 31 -8 7 -15 19 -15 26 0 8 -7 14 -15 14 -8 0 -15 7 -15 15 0 12
14 15 68 15 40 0 73 -5 80 -12 10 -10 17 -10 32 0 10 6 27 9 35 5 10 -3 13 -8
6 -12 -14 -9 -2 -51 15 -51 8 0 14 -7 14 -15 0 -8 5 -15 10 -15 6 0 10 -13 10
-30 0 -16 5 -30 10 -30 6 0 10 -7 10 -15 0 -8 5 -15 10 -15 6 0 10 -9 10 -20
0 -11 5 -20 10 -20 6 0 10 -16 10 -35 0 -19 4 -35 8 -35 4 0 13 -32 19 -71 6
-40 16 -75 22 -79 7 -4 12 -44 13 -105 1 -78 4 -103 18 -117 19 -21 21 -110 2
-145 -7 -12 -12 -33 -12 -48 0 -32 -18 -112 -31 -140 -6 -11 -11 -39 -12 -63
0 -23 -5 -42 -9 -42 -4 0 -8 -6 -8 -14 0 -8 -5 -16 -11 -18 -5 -2 -13 -22 -16
-46 -3 -23 -10 -42 -14 -42 -5 0 -9 -11 -9 -25 0 -14 -4 -25 -10 -25 -5 0 -10
-6 -10 -14 0 -8 -8 -21 -18 -28 -9 -7 -18 -26 -19 -43 0 -16 -6 -31 -12 -33
-30 -10 5 -52 43 -52 14 0 26 -4 26 -10 0 -5 14 -10 30 -10 17 0 39 -9 50 -20
27 -27 80 -27 80 0 0 11 5 20 10 20 6 0 10 6 10 14 0 8 14 24 30 36 17 12 30
28 30 36 0 12 11 14 53 12 51 -3 53 -4 73 -47 32 -66 75 -79 88 -25 4 14 14
24 24 24 27 0 106 30 117 44 6 7 33 13 60 13 75 1 165 15 165 24 0 5 11 9 25
9 36 0 32 28 -10 73 -19 20 -35 42 -35 48 0 12 -33 91 -55 131 -8 14 -12 33
-9 42 3 9 1 16 -5 16 -6 0 -11 7 -11 15 0 8 -3 15 -7 15 -9 0 -39 95 -49 153
-3 20 -10 37 -14 37 -4 0 -11 53 -14 118 -3 64 -9 143 -12 176 -3 33 -2 68 4
80 6 11 13 63 15 114 3 52 10 99 16 105 6 6 11 30 11 54 0 36 3 43 20 43 17 0
20 7 20 45 0 25 4 45 9 45 5 0 11 9 14 20 4 16 14 20 45 20 23 0 44 5 47 10 9
14 86 12 118 -2 38 -18 34 -40 -18 -90 -31 -30 -45 -51 -45 -70 0 -16 -4 -28
-10 -28 -5 0 -15 -20 -21 -45 -6 -25 -15 -45 -18 -45 -4 0 -8 -23 -9 -51 0
-28 -5 -56 -10 -62 -13 -16 -21 -77 -11 -83 4 -2 5 -19 3 -37 -8 -46 13 -309
24 -316 6 -3 15 -26 22 -50 6 -24 20 -53 31 -64 10 -11 19 -28 19 -37 0 -9 11
-30 25 -46 14 -16 25 -37 25 -46 0 -10 4 -18 10 -18 5 0 12 -11 16 -25 3 -14
10 -25 15 -25 5 0 9 -6 9 -14 0 -8 11 -23 24 -33 13 -10 27 -30 31 -43 4 -14
18 -35 31 -47 13 -12 24 -25 24 -29 0 -4 11 -17 25 -30 14 -13 25 -28 25 -34
0 -5 7 -10 15 -10 8 0 15 -7 15 -15 0 -8 7 -15 15 -15 8 0 15 -7 15 -15 0 -8
5 -15 11 -15 8 0 8 -5 -1 -15 -10 -12 -10 -15 4 -15 9 0 16 -4 16 -10 0 -15
42 -60 57 -60 7 0 13 -4 13 -10 0 -5 7 -10 15 -10 8 0 15 -8 15 -18 0 -9 18
-33 40 -52 22 -19 40 -40 40 -48 0 -7 7 -15 15 -18 8 -4 15 -12 15 -20 0 -8 7
-14 15 -14 9 0 18 -7 21 -15 4 -8 19 -29 35 -46 16 -17 29 -41 29 -52 0 -16 3
-18 12 -9 19 19 25 15 38 -33 11 -40 16 -45 41 -45 19 0 29 5 29 15 0 8 5 15
10 15 6 0 10 8 10 18 0 10 9 24 20 32 11 8 20 19 20 25 0 5 14 19 30 30 17 11
33 28 36 38 3 9 11 17 17 17 7 0 21 11 31 25 10 14 25 25 33 25 7 0 16 7 19
15 4 8 12 15 20 15 7 0 16 11 20 25 3 14 13 25 21 25 17 0 93 72 93 88 0 6 10
14 21 17 27 9 99 76 99 93 0 6 6 12 12 12 13 0 78 68 78 82 0 4 7 8 15 8 8 0
15 9 15 20 0 11 4 20 9 20 6 0 20 18 32 40 13 22 26 40 30 40 3 0 12 13 19 30
7 16 16 30 21 30 5 0 9 14 9 31 0 17 8 38 19 47 10 10 24 37 31 62 7 25 17 48
23 52 7 4 10 60 9 168 -2 135 -5 168 -21 204 -11 23 -25 63 -32 89 -6 26 -15
50 -20 53 -5 3 -9 16 -9 29 0 13 -4 27 -10 30 -6 3 -10 19 -10 36 0 18 -5 29
-14 29 -8 0 -18 14 -21 33 -4 17 -10 34 -14 37 -6 5 -34 55 -55 97 -6 13 -17
23 -23 23 -7 0 -13 5 -13 10 0 6 -7 10 -15 10 -8 0 -15 7 -15 15 0 8 -5 15
-11 15 -8 0 -7 5 2 16 20 25 203 16 244 -11 28 -19 29 -20 7 -23 -18 -3 -22
-8 -16 -25 4 -12 11 -23 15 -25 5 -2 9 -13 9 -25 0 -12 9 -28 20 -35 12 -7 18
-17 15 -22 -3 -6 -1 -10 4 -10 6 0 11 -7 11 -15 0 -8 4 -15 10 -15 5 0 12 -22
16 -50 4 -27 10 -50 15 -50 12 0 39 -55 39 -80 0 -11 5 -20 10 -20 6 0 10 -20
10 -44 0 -27 5 -46 13 -49 16 -5 16 -368 0 -389 -6 -7 -14 -37 -18 -65 -4 -29
-11 -53 -16 -53 -5 0 -9 -16 -9 -35 0 -19 -4 -35 -10 -35 -5 0 -10 -18 -10
-39 0 -22 -5 -43 -10 -46 -6 -3 -10 -16 -10 -28 0 -13 -9 -29 -20 -37 -11 -8
-20 -20 -20 -27 0 -7 -4 -13 -10 -13 -5 0 -10 -11 -10 -24 0 -16 -29 -53 -95
-121 -53 -53 -94 -102 -92 -109 2 -6 28 -12 58 -14 30 -2 58 -7 63 -13 6 -5
21 -9 35 -9 30 0 42 -7 57 -35 16 -28 44 -31 51 -6 3 12 9 21 13 21 4 0 28 20
54 45 38 36 53 44 72 39 13 -3 24 -10 24 -15 0 -5 5 -9 11 -9 16 0 39 -26 39
-44 0 -9 5 -16 10 -16 6 0 10 -7 10 -15 0 -26 30 -30 46 -6 8 11 21 21 27 21
7 0 19 8 26 19 11 14 28 19 78 20 36 1 75 7 86 13 12 6 39 10 60 9 35 -2 37
-1 37 28 0 17 -4 31 -10 31 -5 0 -10 7 -10 15 0 8 -11 17 -25 21 -14 3 -25 12
-25 19 0 8 -9 17 -20 20 -11 3 -20 15 -20 26 0 10 -4 19 -10 19 -5 0 -10 8
-10 19 0 10 -9 21 -20 24 -11 3 -20 14 -20 25 0 10 -8 30 -18 43 -10 13 -24
43 -32 67 -7 23 -17 42 -23 42 -5 0 -7 22 -2 55 5 43 3 55 -7 55 -18 0 -14
260 3 271 7 4 9 17 6 30 -8 31 12 100 35 120 10 9 18 28 18 42 0 16 12 39 30
57 17 17 30 37 30 45 0 8 5 15 10 15 6 0 10 8 10 18 0 10 9 24 20 32 11 8 20
20 20 27 0 6 9 15 20 18 11 3 20 9 20 13 0 4 14 22 30 41 17 18 30 37 30 42 0
4 9 11 20 14 11 3 20 11 20 17 0 16 51 52 90 63 26 8 36 17 38 35 5 33 40 70
67 70 11 0 29 6 40 14 31 21 98 29 275 30 157 1 167 0 194 -21 16 -13 33 -23
38 -23 5 0 19 -10 32 -23 12 -12 37 -33 54 -46 18 -13 35 -35 38 -48 4 -13 10
-23 15 -23 5 0 9 -9 9 -19 0 -11 5 -21 11 -23 6 -2 12 -18 13 -36 1 -17 7 -37
14 -44 6 -6 12 -25 12 -40 0 -15 5 -28 10 -28 6 0 10 -13 10 -29 0 -16 5 -31
10 -33 6 -2 4 -29 -6 -73 -9 -39 -19 -94 -23 -122 -5 -35 -15 -60 -29 -73 -12
-12 -22 -27 -22 -35 0 -8 -7 -15 -15 -15 -9 0 -18 -12 -21 -30 -4 -16 -12 -30
-18 -30 -15 0 -36 -47 -36 -81 0 -15 -4 -29 -8 -31 -5 -1 -12 -22 -15 -45 -5
-30 -3 -46 8 -57 17 -17 20 -36 5 -36 -19 0 -10 -45 15 -72 14 -15 25 -34 25
-43 0 -8 5 -15 11 -15 6 0 9 -6 7 -12 -5 -14 15 -38 31 -38 6 0 11 -5 11 -11
0 -7 10 -20 23 -31 20 -18 22 -30 27 -154 4 -101 9 -137 19 -143 12 -8 12 -12
-2 -26 -19 -19 -25 -135 -7 -135 7 0 10 -22 8 -57 -3 -56 -4 -58 -33 -61 -28
-3 -31 0 -44 43 -7 25 -17 45 -22 45 -5 0 -9 7 -9 15 0 8 -4 15 -10 15 -5 0
-10 7 -10 15 0 9 -11 21 -25 27 -14 6 -25 17 -25 25 0 7 -9 13 -20 13 -11 0
-20 6 -20 13 0 14 -35 47 -50 47 -6 0 -10 7 -10 16 0 17 -23 44 -38 44 -6 0
-13 13 -17 28 -3 15 -15 34 -25 42 -11 8 -20 22 -20 31 0 9 -8 27 -19 40 -10
13 -22 43 -26 67 -4 23 -11 42 -16 42 -5 0 -9 7 -9 15 0 8 -4 15 -9 15 -5 0
-7 64 -5 145 3 137 2 145 -16 145 -10 0 -21 4 -24 9 -3 5 -22 12 -41 15 -21 4
-35 13 -35 21 0 10 -10 15 -30 15 -20 0 -30 5 -30 15 0 8 -4 15 -10 15 -5 0
-10 9 -10 20 0 11 -4 20 -10 20 -15 0 -32 82 -26 127 3 26 2 43 -4 43 -11 0
-13 62 -4 98 8 29 32 28 46 -3 6 -14 15 -25 21 -25 5 0 18 -11 29 -25 13 -16
29 -25 49 -25 16 0 29 -4 29 -10 0 -6 27 -10 60 -10 33 0 60 4 60 9 0 5 16 12
36 15 19 4 38 15 41 24 4 9 13 23 20 30 7 7 13 27 13 43 0 16 5 29 10 29 6 0
10 33 10 78 0 77 0 77 -42 122 -40 43 -81 68 -135 85 -13 3 -23 11 -23 17 0 6
-41 9 -113 6 l-114 -3 -35 -38 c-24 -25 -41 -35 -52 -31 -10 4 -26 -5 -45 -25
-16 -17 -36 -31 -45 -31 -9 0 -16 -5 -16 -10 0 -6 -27 -37 -60 -71 -33 -33
-60 -66 -60 -74 0 -7 -8 -15 -19 -18 -12 -3 -20 -17 -25 -46 -4 -27 -11 -41
-21 -41 -15 0 -23 -14 -43 -80 -13 -41 -13 -280 -1 -280 5 0 9 -15 9 -34 0
-58 38 -162 70 -192 22 -21 26 -31 18 -41 -7 -9 -7 -13 1 -13 6 0 11 -4 11
-10 0 -10 116 -130 126 -130 10 0 34 -28 34 -39 0 -6 5 -11 10 -11 6 0 10 -7
10 -15 0 -8 7 -15 15 -15 8 0 15 -4 15 -10 0 -5 7 -10 15 -10 8 0 15 -4 15
-10 0 -5 7 -10 15 -10 8 0 15 -4 15 -10 0 -5 7 -10 15 -10 15 0 30 -11 89 -67
19 -18 38 -33 43 -33 4 0 19 -18 33 -40 14 -22 30 -40 37 -40 7 0 13 -7 13
-15 0 -8 4 -15 10 -15 5 0 12 -11 16 -25 3 -14 12 -25 19 -25 8 0 16 -13 20
-28 3 -16 21 -43 40 -61 19 -18 38 -45 41 -59 7 -28 34 -83 45 -92 9 -7 23
-72 20 -89 -1 -7 7 -20 18 -28 12 -8 21 -21 21 -29 0 -8 5 -14 10 -14 7 0 9
-26 7 -70 -3 -50 0 -75 10 -90 13 -18 15 -85 14 -420 -1 -327 1 -400 12 -412
8 -7 21 -43 31 -78 9 -36 20 -66 26 -68 5 -2 10 -10 10 -18 0 -8 5 -14 10 -14
6 0 10 -16 10 -35 0 -31 -3 -35 -25 -35 -16 0 -25 6 -25 15 0 8 -8 15 -18 15
-11 0 -27 9 -37 20 -10 11 -23 20 -30 20 -6 0 -18 11 -25 25 -7 13 -21 27 -31
30 -17 6 -34 62 -41 140 -2 19 -9 31 -20 33 -15 3 -18 -4 -18 -40 0 -36 -7
-51 -41 -91 -31 -36 -47 -47 -70 -47 -17 0 -32 -6 -35 -15 -4 -9 -19 -15 -39
-15 -18 0 -35 -5 -37 -11 -2 -7 -40 -12 -103 -13 -88 -1 -100 1 -103 17 -3 12
3 17 21 17 26 0 107 66 107 87 0 7 9 14 19 18 11 3 22 14 25 23 3 9 16 22 28
27 15 6 24 20 26 38 2 18 22 47 52 78 34 35 53 65 64 102 37 123 46 163 46
194 0 18 5 33 10 33 6 0 10 38 11 93 0 50 4 142 8 202 4 61 4 112 -1 113 -4 2
-8 23 -8 47 0 24 -5 47 -10 50 -5 3 -10 16 -10 28 0 33 -52 210 -66 225 -7 6
-17 12 -23 12 -6 0 -11 6 -11 13 0 6 -27 41 -60 77 -32 36 -59 68 -60 73 0 4
-7 7 -15 7 -8 0 -15 4 -15 8 0 24 -59 72 -100 81 -25 5 -46 15 -48 20 -2 6
-30 11 -62 11 -38 0 -60 4 -62 12 -4 10 -17 10 -64 -1 -32 -8 -74 -14 -91 -13
-18 0 -33 -4 -33 -9 0 -5 -13 -9 -30 -9 -16 0 -30 -3 -30 -8 0 -4 -23 -17 -50
-30 -54 -25 -74 -48 -85 -99 -4 -18 -13 -33 -20 -33 -19 0 -24 -23 -24 -109 0
-95 20 -134 101 -201 63 -50 63 -51 123 -46 33 2 69 8 80 12 39 14 120 78 150
117 17 21 43 47 58 56 l29 16 42 -47 c50 -54 56 -77 56 -202 -1 -76 -4 -97
-23 -126 -42 -67 -71 -100 -87 -100 -9 0 -25 -9 -35 -20 -10 -11 -24 -20 -31
-20 -27 0 -64 -24 -64 -41 0 -10 7 -24 15 -33 8 -8 15 -22 15 -30 0 -9 5 -16
10 -16 6 0 10 -20 10 -44 0 -25 6 -51 14 -59 19 -19 15 -67 -7 -92 -10 -11
-21 -32 -24 -47 -3 -16 -9 -28 -14 -28 -5 0 -9 -7 -9 -15 0 -8 -4 -15 -10 -15
-5 0 -10 -7 -10 -15 0 -8 -5 -15 -10 -15 -6 0 -21 -11 -33 -25 -18 -21 -34
-26 -94 -31 -61 -6 -73 -10 -73 -25 0 -51 -200 -189 -273 -189 -14 0 -29 -5
-32 -10 -3 -6 -40 -10 -81 -10 -83 0 -118 15 -128 56 -4 13 -13 24 -21 24 -8
0 -15 3 -15 8 0 4 -12 21 -27 38 -45 49 -71 114 -80 195 -4 40 -11 60 -22 64
-8 3 -17 1 -19 -4 -6 -19 -71 -12 -94 9 -12 11 -29 20 -39 20 -22 0 -86 72
-96 107 -10 37 -8 144 4 210 9 51 8 54 -20 80 -16 16 -48 53 -70 83 -38 50
-42 61 -45 126 -3 57 0 79 17 112 12 23 21 48 21 57 0 8 7 15 15 15 8 0 15 -5
15 -11 0 -8 5 -8 15 1 12 10 22 9 52 -5 21 -10 45 -23 53 -30 18 -15 254 -39
295 -30 17 4 58 20 92 36 46 23 63 36 68 57 4 15 12 31 18 35 9 6 9 10 0 14
-8 3 -13 25 -13 59 0 30 -4 54 -10 54 -5 0 -10 16 -10 35 0 24 -5 35 -15 35
-8 0 -15 5 -15 10 0 6 -7 10 -15 10 -8 0 -15 5 -15 11 0 14 -25 39 -39 39 -6
0 -11 4 -11 8 0 4 -14 16 -32 26 -26 16 -52 19 -147 19 -123 0 -201 -9 -201
-24 0 -5 -7 -9 -15 -9 -8 0 -15 -4 -15 -10 0 -5 -7 -10 -15 -10 -8 0 -15 -7
-15 -15 0 -8 -4 -15 -10 -15 -5 0 -10 -7 -10 -15 0 -8 -7 -15 -15 -15 -8 0
-15 -4 -15 -8 0 -4 -18 -27 -40 -50 -25 -26 -40 -51 -40 -67 0 -14 -7 -28 -15
-31 -8 -4 -15 -11 -15 -17 0 -6 -6 -18 -13 -26 -8 -9 -20 -42 -27 -75 -8 -32
-19 -64 -25 -70 -7 -6 -12 -34 -11 -61 0 -28 -4 -81 -8 -119 -5 -40 -5 -67 0
-63 5 3 10 -25 11 -61 3 -77 27 -258 42 -317 5 -22 13 -53 17 -70 4 -16 13
-36 21 -43 7 -7 13 -23 13 -35 0 -13 6 -31 14 -42 8 -11 19 -39 26 -63 8 -24
19 -42 27 -42 11 0 13 -8 8 -30 -5 -22 -3 -32 9 -36 9 -3 16 -12 16 -20 0 -8
5 -14 11 -14 6 0 8 -9 4 -20 -4 -14 -2 -20 9 -20 9 0 18 -11 22 -25 3 -14 10
-25 15 -25 5 0 9 -7 9 -15 0 -8 5 -15 11 -15 16 0 39 -26 39 -45 0 -9 9 -19
20 -22 27 -7 28 -53 1 -53 -11 0 -21 -4 -23 -10 -3 -10 -166 24 -200 41 -10 5
-25 9 -33 9 -8 0 -15 3 -15 8 -1 15 -26 39 -49 47 -22 7 -23 5 -17 -18 4 -17
1 -31 -9 -41 -8 -8 -15 -19 -15 -25 0 -6 -7 -11 -15 -11 -8 0 -15 -4 -15 -10
0 -15 -119 -12 -135 2 -30 29 -56 48 -65 48 -6 0 -10 5 -10 10 0 6 -6 10 -14
10 -8 0 -17 13 -21 30 -5 25 -12 30 -35 30 -24 0 -29 -5 -34 -33 -7 -36 -36
-67 -64 -67 -10 0 -28 -9 -40 -20 -17 -16 -30 -19 -56 -15 -19 4 -36 2 -40 -3
-3 -5 -16 -7 -30 -5 -13 3 -27 0 -30 -6 -6 -9 -28 -8 -93 5 -30 6 -29 24 1 24
13 0 29 7 36 15 7 8 19 15 26 15 8 0 14 6 14 13 0 8 18 19 40 26 23 7 40 18
40 26 0 8 5 15 10 15 6 0 10 7 10 15 0 8 5 15 11 15 16 0 41 28 35 39 -4 5 7
24 24 42 16 19 30 39 30 46 0 7 7 13 15 13 8 0 15 9 15 19 0 11 5 23 10 26 6
3 10 14 10 25 0 11 10 20 24 24 20 5 26 16 35 56 6 28 11 58 11 65 0 8 5 15
10 15 6 0 10 16 10 35 0 19 4 35 8 35 8 0 27 109 39 217 3 24 9 43 14 43 5 0
9 70 9 155 0 85 -4 155 -8 155 -9 0 -32 120 -39 203 -3 31 -9 57 -14 57 -5 0
-9 9 -9 20 0 12 -9 30 -20 42 -11 12 -20 33 -20 46 0 14 -11 35 -24 47 -13 12
-27 32 -31 43 -3 12 -11 22 -16 22 -14 0 -39 26 -39 39 0 6 -4 11 -10 11 -12
0 -50 36 -50 48 0 4 -16 18 -35 31 -19 13 -35 27 -35 32 0 5 -12 9 -27 9 -39
0 -73 11 -73 22 0 23 -31 38 -79 38 -28 0 -51 4 -51 8 0 11 -140 32 -212 32
-32 0 -58 -4 -58 -10 0 -5 -9 -10 -19 -10 -11 0 -23 -4 -26 -10 -3 -5 -20 -10
-37 -10 -20 0 -39 -9 -58 -30 -15 -17 -33 -30 -39 -30 -6 0 -11 -7 -11 -15 0
-8 -4 -15 -10 -15 -5 0 -10 -5 -10 -11 0 -6 -7 -18 -16 -26 -11 -11 -14 -27
-11 -52 10 -68 30 -141 38 -141 5 0 9 -11 9 -25 0 -18 5 -25 20 -25 11 0 20
-4 20 -10 0 -5 6 -10 14 -10 7 0 16 -8 19 -19 3 -13 19 -22 58 -29 30 -6 76
-16 103 -22 36 -9 55 -9 73 -1 13 6 34 11 47 11 12 0 32 9 44 20 12 11 25 20
31 20 5 0 23 8 39 17 l30 17 36 -39 c19 -22 36 -46 36 -52 0 -7 5 -13 10 -13
6 0 10 -9 10 -20 0 -11 4 -20 9 -20 29 0 47 -233 22 -287 -36 -77 -45 -93 -53
-93 -4 0 -8 -7 -8 -15 0 -8 -5 -15 -11 -15 -21 0 -59 -54 -59 -84 0 -20 10
-38 32 -57 26 -24 32 -38 36 -84 2 -30 8 -55 13 -55 12 0 11 -57 -1 -65 -5 -3
-10 -24 -10 -47 0 -41 -25 -108 -41 -108 -5 0 -9 -6 -9 -14 0 -7 -9 -16 -20
-19 -11 -3 -20 -12 -20 -21 0 -9 -7 -16 -15 -16 -8 0 -15 -4 -15 -10 0 -5 -9
-10 -20 -10 -11 0 -20 -4 -20 -10 0 -13 -107 -13 -115 0 -3 5 -17 10 -31 10
-13 0 -24 3 -24 8 0 4 -10 12 -22 17 -12 6 -32 25 -44 43 -22 32 -40 30 -28
-2 3 -9 2 -16 -4 -16 -5 0 -15 -20 -22 -45 -7 -25 -19 -45 -26 -45 -8 0 -14
-8 -14 -18 0 -18 -63 -82 -80 -82 -6 0 -10 -6 -10 -14 0 -17 -63 -66 -84 -66
-9 0 -16 -4 -16 -10 0 -5 -7 -10 -16 -10 -9 0 -22 -6 -28 -14 -12 -15 -47 -20
-136 -17 -49 1 -60 5 -93 36 -20 19 -42 35 -47 35 -6 0 -10 5 -10 10 0 6 -7
10 -15 10 -8 0 -15 4 -15 9 0 5 -11 12 -25 15 -14 4 -29 14 -32 24 -4 9 -14
24 -24 32 -40 36 -60 191 -34 267 6 20 4 23 -19 23 -14 0 -26 -5 -26 -11 0 -6
-6 -9 -14 -6 -8 3 -32 1 -52 -5 -28 -7 -39 -7 -42 1 -2 6 -19 11 -38 11 -19 0
-34 5 -34 10 0 6 -9 10 -20 10 -11 0 -20 7 -20 15 0 8 -4 15 -10 15 -5 0 -10
6 -10 13 0 7 -9 18 -20 25 -11 7 -20 19 -20 26 0 8 -9 18 -20 21 -18 6 -20 15
-20 83 0 42 0 86 -1 97 -2 36 6 85 14 85 4 0 7 7 7 15 0 8 9 15 20 15 29 0 25
29 -8 68 -39 45 -78 176 -63 209 6 13 11 39 11 58 0 58 24 129 53 158 33 32
47 34 47 7 0 -11 4 -20 9 -20 5 0 12 -8 15 -17 17 -46 33 -62 70 -73 23 -7 54
-16 70 -21 39 -12 93 -11 101 1 3 6 15 10 26 10 10 0 27 4 37 9 9 5 29 14 45
22 15 7 27 18 27 25 0 7 8 14 17 16 11 2 22 24 34 70 16 64 16 71 -1 130 -24
89 -29 98 -56 98 -13 0 -24 5 -24 10 0 6 -6 10 -13 10 -7 0 -19 9 -27 20 -13
18 -26 20 -142 20 -79 0 -128 -4 -128 -10 0 -5 -18 -10 -40 -10 -22 0 -40 -4
-40 -9 0 -5 -13 -11 -29 -14 -16 -4 -38 -15 -48 -25 -10 -11 -28 -23 -40 -26
-13 -4 -23 -12 -23 -17 0 -18 -24 -36 -42 -31 -10 2 -18 -1 -18 -8 0 -13 -25
-40 -37 -40 -12 0 -93 -93 -93 -107 0 -7 -4 -13 -10 -13 -5 0 -10 -8 -10 -19
0 -10 -7 -24 -15 -31 -8 -7 -15 -23 -15 -35 0 -13 -12 -38 -26 -55 -23 -27
-26 -37 -21 -75 6 -37 3 -46 -14 -58 -15 -11 -20 -25 -20 -58 1 -24 1 -55 1
-69 -1 -78 8 -250 14 -277 5 -22 4 -33 -4 -33 -6 0 -2 -13 9 -29 12 -16 21
-38 21 -49 0 -11 7 -28 17 -37 13 -14 14 -18 3 -25 -11 -7 -10 -13 3 -34 9
-14 17 -33 17 -41 0 -9 7 -23 15 -31 8 -9 15 -25 15 -36 0 -12 11 -36 25 -54
14 -18 25 -42 25 -54 0 -11 11 -32 25 -46 14 -14 25 -29 25 -34 0 -6 5 -10 11
-10 14 0 39 -25 39 -39 0 -6 5 -11 10 -11 6 0 10 -6 10 -14 0 -8 9 -18 20 -21
12 -4 20 -15 20 -28 0 -13 9 -29 20 -37 47 -34 10 -50 -111 -50 -38 0 -69 4
-69 9 0 5 -9 13 -20 16 -11 3 -20 13 -20 21 0 8 -9 14 -20 14 -11 0 -20 4 -20
9 0 5 -8 7 -18 4 -14 -3 -23 5 -35 30 -10 19 -17 40 -17 46 0 6 -9 15 -19 21
-11 5 -24 25 -31 44 -23 70 -61 53 -63 -28 -1 -49 -5 -59 -29 -78 -15 -11 -28
-27 -28 -34 0 -7 -13 -18 -30 -26 -16 -7 -30 -17 -30 -22 0 -4 -7 -5 -16 -2
-10 4 -24 -2 -35 -15 -10 -12 -25 -19 -33 -16 -8 3 -16 2 -18 -3 -2 -6 -27
-15 -55 -22 -29 -7 -53 -16 -53 -20 0 -5 -16 -8 -35 -8 -19 0 -35 -4 -35 -10
0 -5 -13 -10 -30 -10 -34 0 -34 -1 -20 34 5 14 17 26 25 26 19 0 45 23 45 39
0 6 6 11 14 11 8 0 17 13 21 30 4 16 13 30 21 30 7 0 16 12 20 27 13 60 28 98
45 117 11 11 19 26 19 33 0 7 4 13 9 13 5 0 11 13 14 30 4 16 16 39 27 50 14
14 20 33 20 64 0 26 5 46 12 48 7 3 13 20 15 39 2 19 7 67 12 108 6 40 11 126
11 190 1 99 -4 159 -24 301 -2 14 -4 40 -5 58 -1 21 -6 32 -16 32 -8 0 -15 8
-15 18 0 9 -9 34 -20 55 -11 20 -20 44 -20 52 0 8 -4 15 -10 15 -5 0 -10 6
-10 13 0 7 -9 23 -20 35 -11 12 -20 26 -20 32 0 5 -4 10 -10 10 -5 0 -10 11
-10 25 0 14 -7 28 -15 31 -8 4 -15 12 -15 18 0 7 -11 19 -25 26 -14 7 -25 19
-25 27 0 7 -4 13 -10 13 -5 0 -10 7 -10 15 0 8 -4 15 -8 15 -4 0 -28 18 -52
40 -25 22 -54 40 -65 40 -11 0 -33 11 -49 25 -17 14 -49 31 -73 37 -24 5 -43
14 -43 19 0 5 -17 9 -37 9 -21 1 -56 7 -78 15 -59 21 -260 3 -285 -25 -10 -11
-25 -20 -33 -20 -9 0 -19 -11 -23 -24 -3 -15 -14 -26 -27 -28 -12 -2 -23 -12
-25 -22 -3 -11 -10 -26 -18 -34 -8 -7 -14 -24 -14 -38 0 -13 -4 -24 -10 -24
-13 0 -13 -47 0 -55 6 -3 10 -28 10 -56 0 -27 4 -49 9 -49 5 0 11 -11 15 -23
3 -13 21 -41 41 -61 27 -29 51 -42 106 -58 40 -11 74 -16 78 -11 3 4 24 9 46
11 21 1 44 7 49 12 6 6 21 10 35 10 32 0 133 103 147 150 11 40 37 50 63 26
10 -9 25 -14 35 -10 10 4 16 1 16 -9 0 -8 11 -18 25 -21 14 -4 25 -11 25 -18
0 -6 9 -19 21 -29 11 -10 18 -23 14 -29 -4 -6 -1 -18 7 -27 18 -22 39 -107 27
-111 -5 -2 -9 -31 -9 -64 0 -45 -5 -66 -20 -85 -11 -14 -20 -34 -20 -44 0 -11
-4 -19 -10 -19 -5 0 -10 -5 -10 -11 0 -14 -25 -39 -39 -39 -6 0 -11 -5 -11
-11 0 -20 -33 -38 -67 -39 -26 0 -33 -4 -33 -20 0 -11 7 -20 15 -20 8 0 15 -4
15 -10 0 -5 7 -10 15 -10 8 0 17 -11 21 -25 3 -14 9 -25 13 -25 4 0 13 -24 20
-53 7 -28 20 -63 28 -76 18 -28 13 -133 -6 -139 -6 -2 -14 -21 -17 -42 -4 -21
-13 -41 -20 -44 -8 -3 -14 -19 -14 -37 0 -22 -5 -32 -20 -36 -11 -3 -20 -11
-20 -18 0 -19 -58 -65 -83 -65 -13 0 -27 -4 -33 -8 -5 -5 -28 -15 -52 -22 -32
-10 -45 -11 -54 -2 -7 7 -27 12 -45 12 -18 0 -33 5 -33 10 0 6 -8 10 -18 10
-15 0 -19 -9 -20 -51 0 -29 -6 -57 -11 -62 -6 -6 -11 -21 -11 -33 0 -29 -10
-54 -22 -54 -5 0 -28 -9 -51 -20 -48 -24 -143 -40 -238 -40 -63 0 -68 2 -113
41 -25 22 -65 51 -88 63 -62 33 -100 85 -106 145 -4 49 -5 51 -31 44 -71 -19
-221 3 -221 32 0 7 -16 16 -35 19 -19 4 -35 11 -35 16 0 5 -11 21 -25 36 -14
15 -25 38 -25 50 0 15 -6 24 -15 24 -10 0 -15 10 -15 33 0 18 -5 38 -11 44
-14 14 -14 154 -1 162 5 3 13 20 16 37 4 20 15 34 27 37 23 6 27 57 4 57 -8 0
-15 5 -15 10 0 6 -7 10 -15 10 -8 0 -15 5 -15 10 0 6 -6 10 -13 10 -14 0 -47
35 -47 50 0 6 -4 10 -9 10 -5 0 -15 16 -22 35 -7 19 -18 35 -25 35 -31 0 -25
205 7 252 11 14 19 33 19 42 0 9 5 16 10 16 6 0 10 5 10 11 0 6 7 17 15 25 20
20 51 0 71 -47 13 -29 24 -37 63 -48 25 -7 54 -17 63 -22 63 -33 288 22 288
70 0 6 6 11 13 11 6 0 18 14 25 30 8 17 20 37 28 45 13 12 13 21 3 56 -10 33
-10 42 0 49 11 6 10 18 -4 60 -20 59 -45 90 -76 90 -21 0 -49 21 -49 38 0 10
-67 32 -99 32 -11 0 -21 5 -21 10 0 6 -30 10 -70 10 -54 0 -72 -4 -76 -15 -4
-9 -19 -15 -40 -15 -19 0 -34 -4 -34 -10 0 -5 -9 -10 -20 -10 -11 0 -20 -4
-20 -9 0 -5 -12 -12 -26 -15 -14 -4 -35 -16 -47 -26 -11 -11 -27 -20 -34 -20
-7 0 -13 -7 -13 -15 0 -8 -9 -20 -20 -27 -11 -7 -20 -18 -20 -24 0 -7 -7 -14
-15 -18 -8 -3 -15 -12 -15 -19 0 -8 -11 -23 -25 -33 -13 -10 -27 -31 -31 -48
-3 -16 -19 -42 -35 -57 -16 -16 -29 -39 -29 -52 0 -13 -9 -35 -21 -48 -27 -31
-39 -62 -39 -104 0 -18 -6 -35 -12 -37 -15 -5 -13 -404 2 -444 6 -14 10 -45
10 -68 0 -27 6 -48 15 -56 8 -7 15 -25 15 -41 0 -15 5 -31 10 -34 6 -4 8 -15
5 -26 -4 -11 -2 -19 4 -19 6 0 11 -7 11 -15 0 -8 5 -15 10 -15 6 0 10 -18 10
-40 0 -29 5 -43 20 -52 11 -7 20 -22 20 -33 0 -30 23 -75 38 -75 6 0 12 -11
12 -25 0 -14 7 -28 15 -31 8 -3 17 -14 20 -25 4 -10 13 -19 21 -19 8 0 14 -4
14 -10 0 -5 14 -22 30 -37 57 -50 42 -58 -100 -53 -69 2 -154 39 -175 76 -30
54 -55 58 -55 9 0 -19 -4 -35 -10 -35 -5 0 -10 -8 -10 -18 0 -10 -9 -24 -20
-32 -11 -8 -20 -20 -20 -27 0 -7 -4 -13 -10 -13 -5 0 -10 -7 -10 -15 0 -18
-48 -20 -71 -2 -18 13 -59 117 -59 147 0 24 -22 26 -40 5 -7 -8 -19 -15 -26
-15 -8 0 -14 -7 -14 -15 0 -8 -4 -15 -10 -15 -5 0 -10 -7 -10 -15 0 -8 -7 -15
-15 -15 -8 0 -15 -4 -15 -10 0 -5 -13 -10 -30 -10 -16 0 -30 -5 -30 -11 0 -6
-8 -8 -19 -4 -11 3 -28 1 -39 -6 -23 -15 -105 -4 -122 16 -9 11 -9 18 3 30 9
8 20 15 26 15 6 0 11 5 11 10 0 6 29 38 65 73 43 42 67 74 71 94 3 18 15 41
25 52 11 11 19 25 19 31 0 5 4 10 10 10 5 0 14 18 20 40 6 21 15 42 20 45 6 3
10 26 10 50 0 24 4 47 10 50 6 3 10 20 10 36 0 17 6 36 13 43 19 20 6 327 -16
355 -6 7 -12 30 -12 51 -1 40 -31 109 -52 123 -7 4 -13 18 -13 31 0 12 -9 32
-20 44 -11 12 -20 26 -20 32 0 5 -4 10 -10 10 -5 0 -10 9 -10 20 0 11 -23 42
-50 69 -27 27 -50 54 -50 59 0 5 -11 14 -25 20 -14 6 -25 16 -25 22 0 5 -5 10
-11 10 -6 0 -17 7 -25 15 -9 8 -24 15 -35 15 -10 0 -19 5 -19 10 0 6 -5 10
-10 10 -6 0 -20 9 -32 20 -12 11 -29 20 -39 20 -9 0 -27 8 -40 18 -13 10 -51
24 -83 30 -72 15 -206 16 -206 2 0 -5 -12 -12 -27 -15 -78 -17 -113 -29 -113
-40 0 -6 -11 -18 -25 -25 -14 -7 -25 -17 -25 -22 0 -4 -4 -8 -10 -8 -17 0 -60
-50 -66 -78 -4 -15 -13 -36 -20 -47 -18 -25 -18 -115 -1 -147 16 -31 42 -58
56 -58 6 0 11 -7 11 -15 0 -10 11 -15 35 -15 19 0 35 -4 35 -10 0 -5 7 -10 15
-10 8 0 15 5 15 10 0 6 14 10 30 10 17 0 30 5 30 10 0 6 5 10 11 10 15 0 69
52 69 67 0 7 5 13 10 13 6 0 10 17 10 39 0 32 4 40 22 44 27 7 68 -2 68 -14 0
-5 9 -9 20 -9 11 0 20 -4 20 -8 0 -5 11 -15 25 -22 13 -7 27 -21 31 -32 3 -10
12 -18 20 -18 8 0 16 -15 20 -41 4 -23 15 -46 25 -52 12 -8 19 -23 19 -44 0
-18 5 -33 10 -33 6 0 10 -18 10 -40 0 -30 -4 -40 -16 -40 -13 0 -15 -7 -11
-35 4 -25 2 -35 -7 -35 -7 0 -19 -11 -26 -25 -8 -14 -24 -28 -37 -31 -16 -4
-23 -13 -23 -31 0 -24 1 -24 55 -18 47 6 55 5 55 -9 0 -9 5 -16 11 -16 14 0
39 -25 39 -39 0 -6 4 -11 9 -11 23 0 46 -234 25 -248 -6 -4 -14 -19 -18 -34
-3 -16 -11 -28 -16 -28 -6 0 -10 -7 -10 -15 0 -8 -5 -15 -11 -15 -13 0 -39
-25 -39 -39 0 -10 -9 -13 -62 -25 -16 -4 -28 -11 -28 -16 0 -6 -7 -10 -15 -10
-8 0 -15 -4 -15 -8 0 -5 -47 -9 -105 -9 -58 -1 -105 3 -105 8 0 5 -7 9 -15 9
-8 0 -20 9 -27 20 -7 11 -23 20 -36 20 -23 0 -23 -2 -17 -55 6 -45 4 -56 -9
-61 -9 -3 -16 -17 -16 -30 0 -13 -4 -24 -10 -24 -5 0 -10 -7 -10 -15 0 -8 -7
-15 -15 -15 -8 0 -18 -12 -21 -27 -8 -32 -27 -53 -46 -53 -7 0 -26 -9 -43 -20
-16 -11 -38 -20 -47 -20 -10 0 -18 -4 -18 -10 0 -5 -6 -10 -14 -10 -8 0 -16
-5 -18 -11 -5 -14 -125 -28 -137 -16 -7 7 -15 6 -24 -1 -17 -14 -127 14 -127
33 0 7 -16 16 -35 19 -19 4 -35 12 -35 18 0 5 -11 19 -25 30 -14 11 -25 26
-25 33 0 7 -6 20 -12 27 -27 28 -47 76 -54 126 -4 29 -10 55 -15 57 -4 3 -5
21 -2 40 5 32 4 34 -28 39 -69 11 -115 17 -161 22 -27 3 -48 10 -48 15 0 5 -6
9 -14 9 -24 0 -116 99 -116 125 0 9 -4 23 -9 33 -21 41 -28 82 -23 135 2 32 8
60 13 63 5 3 9 18 9 35 0 16 5 29 10 29 6 0 10 7 10 15 0 8 7 15 15 15 8 0 15
4 15 10 0 5 11 12 25 16 39 10 42 42 7 75 -17 16 -35 29 -39 29 -23 0 -84 201
-64 208 6 2 11 19 11 38 0 19 4 34 8 34 5 0 15 11 22 25 7 14 17 25 22 25 5 0
26 18 47 40 43 46 62 50 85 15 9 -14 12 -25 6 -25 -5 0 -10 -9 -10 -20 0 -11
5 -20 10 -20 6 0 10 -9 10 -20 0 -11 5 -20 10 -20 6 0 10 -4 10 -10 0 -5 15
-25 32 -45 23 -24 42 -35 60 -35 16 0 28 -4 28 -10 0 -5 20 -10 44 -10 25 0
48 5 51 10 3 6 17 10 31 10 49 0 114 97 114 170 0 16 -5 30 -11 32 -5 2 -13
22 -16 46 -3 26 -11 42 -19 42 -8 0 -14 7 -14 15 0 8 -4 15 -8 15 -5 0 -15 11
-22 25 -7 14 -20 25 -27 25 -7 0 -16 7 -19 15 -5 11 -21 15 -60 15 -30 0 -54
5 -54 10 0 6 -25 10 -55 10 -30 0 -55 -4 -55 -10 0 -5 -16 -10 -35 -10 -19 0
-35 -4 -35 -10 0 -5 -11 -10 -25 -10 -28 0 -104 -49 -105 -67 0 -7 -11 -13
-25 -13 -33 0 -195 -157 -195 -189 0 -12 -13 -34 -28 -49 -19 -18 -32 -46 -41
-87 -7 -33 -17 -68 -22 -77 -5 -10 -9 -42 -9 -72 0 -35 -5 -56 -12 -59 -18 -5
-18 -259 0 -265 8 -2 12 -28 12 -77 0 -46 4 -75 12 -77 6 -2 13 -31 15 -64 5
-67 22 -114 40 -114 7 0 13 -11 13 -23 0 -13 9 -32 20 -42 11 -10 20 -26 20
-37 0 -10 5 -18 10 -18 6 0 10 -7 10 -15 0 -18 43 -65 60 -65 5 0 10 -7 10
-15 0 -8 4 -15 9 -15 5 0 11 -10 13 -22 2 -12 14 -28 27 -35 28 -13 81 -67 81
-82 0 -5 5 -11 11 -13 14 -5 0 -38 -16 -38 -7 0 -15 -4 -17 -10 -4 -13 -121
-30 -132 -19 -6 5 -25 9 -43 9 -18 0 -33 5 -33 10 0 6 -7 10 -15 10 -8 0 -15
5 -15 10 0 15 -49 12 -66 -4 -8 -8 -14 -19 -14 -24 0 -13 -98 -33 -150 -30
-35 2 -51 10 -77 36 -20 19 -33 43 -33 58 0 39 -29 42 -61 6 -37 -41 -113 -61
-208 -54 -61 4 -71 7 -71 23 0 11 7 19 15 19 8 0 15 5 15 10 0 6 7 10 15 10 8
0 15 6 15 14 0 7 9 16 20 19 12 3 20 14 20 26 0 12 6 21 14 21 8 0 18 9 21 20
3 11 11 20 16 20 12 0 39 25 39 36 0 5 11 18 25 30 19 16 32 46 50 115 13 52
29 110 35 129 5 19 10 49 10 65 0 17 5 36 10 41 29 29 30 492 2 502 -7 2 -12
16 -12 30 0 40 -31 162 -41 162 -5 0 -9 11 -9 25 0 14 -7 28 -15 31 -8 4 -15
12 -15 20 0 8 -4 14 -9 14 -5 0 -12 11 -15 25 -4 14 -11 25 -16 25 -6 0 -10 7
-10 15 0 8 -6 15 -14 15 -7 0 -16 14 -19 30 -4 17 -13 30 -20 30 -8 0 -20 11
-27 25 -7 14 -17 25 -22 25 -10 0 -22 9 -80 63 -23 20 -47 37 -55 37 -7 0 -13
4 -13 9 0 5 -11 12 -25 15 -14 4 -25 13 -25 21 0 10 -11 15 -34 15 -19 0 -36
4 -38 10 -4 12 -198 22 -198 10 0 -5 -15 -12 -32 -15 -40 -9 -113 -62 -127
-92 -6 -13 -15 -23 -21 -23 -5 0 -10 -7 -10 -15 0 -8 -4 -15 -10 -15 -5 0 -10
-9 -10 -20 0 -11 -5 -29 -12 -39 -9 -15 -8 -22 5 -36 9 -9 17 -24 17 -33 0
-39 22 -92 37 -92 9 0 26 -9 38 -20 30 -28 142 -40 151 -16 3 9 12 16 20 16 8
0 14 7 14 15 0 9 9 15 21 15 12 0 23 8 26 20 6 24 4 24 53 3 22 -10 43 -27 46
-38 3 -11 20 -34 36 -51 21 -22 28 -38 24 -52 -4 -11 0 -24 9 -32 21 -18 21
-167 -1 -198 -8 -12 -22 -22 -30 -22 -8 0 -14 -7 -14 -15 0 -17 -52 -75 -68
-75 -14 0 -26 -34 -13 -38 6 -2 11 -16 11 -32 0 -15 7 -33 15 -40 8 -7 15 -25
15 -41 0 -16 5 -29 10 -29 6 0 10 -7 10 -15 0 -8 5 -15 10 -15 6 0 10 -15 10
-34 0 -19 6 -37 13 -39 8 -4 9 -8 1 -14 -16 -12 -27 -44 -29 -83 -3 -58 -16
-100 -31 -100 -8 0 -14 -9 -14 -21 0 -13 -8 -23 -20 -26 -12 -3 -19 -11 -17
-17 5 -15 -71 -86 -92 -86 -9 0 -25 -6 -36 -13 -11 -7 -33 -13 -50 -12 -16 1
-42 3 -57 3 -15 1 -33 9 -42 17 -8 8 -19 15 -25 15 -6 0 -11 4 -11 9 0 5 -12
11 -26 14 -36 6 -71 -31 -44 -48 12 -8 13 -102 1 -109 -5 -3 -12 -21 -15 -40
-4 -21 -19 -45 -36 -60 -17 -13 -30 -29 -30 -35 0 -6 -7 -11 -15 -11 -8 0 -15
-4 -15 -10 0 -5 -8 -10 -17 -10 -10 0 -37 -7 -61 -15 -55 -19 -139 -28 -147
-15 -3 6 -15 10 -26 10 -10 0 -19 4 -19 9 0 5 -16 12 -35 15 -19 4 -35 11 -35
16 0 6 -7 10 -15 10 -8 0 -15 7 -15 15 0 8 -4 15 -9 15 -5 0 -12 11 -15 25 -4
14 -13 25 -20 25 -9 0 -19 20 -26 50 -7 28 -16 53 -21 56 -13 7 -11 72 2 76 6
2 13 31 15 66 5 61 5 62 -20 62 -14 0 -26 -4 -26 -10 0 -5 -7 -10 -15 -10 -8
0 -15 -4 -15 -10 0 -5 -7 -10 -15 -10 -8 0 -15 -5 -15 -11 0 -14 -133 -5 -138
10 -2 6 -12 11 -23 11 -22 0 -129 104 -129 126 0 8 -4 14 -9 14 -10 0 -28 66
-35 133 -4 29 -2 47 5 47 5 0 9 10 8 23 -6 66 2 96 31 124 17 15 30 38 30 50
0 13 9 28 20 35 23 15 27 38 6 38 -8 0 -17 11 -20 25 -4 14 -12 25 -19 25 -6
0 -21 20 -31 43 -11 23 -23 44 -27 47 -13 9 -15 163 -1 168 6 2 12 19 12 38 0
23 5 34 15 34 8 0 17 14 21 38 8 45 20 62 45 62 11 0 19 6 19 14 0 7 12 16 28
19 31 6 72 -25 72 -55 0 -10 5 -18 10 -18 6 0 10 -5 10 -10 0 -18 44 -56 73
-64 15 -3 27 -11 27 -16 0 -15 130 -9 145 7 8 7 25 13 39 13 14 0 26 5 26 10
0 6 7 10 15 10 8 0 15 5 15 11 0 7 14 25 31 42 30 28 31 32 27 99 -2 38 -9 72
-15 76 -6 4 -14 22 -18 40 -3 17 -10 32 -15 32 -5 0 -11 14 -15 30 -4 17 -11
30 -16 30 -5 0 -18 8 -28 18 -37 32 -50 42 -61 42 -5 0 -10 4 -10 9 0 8 -21
14 -96 27 -18 4 -35 1 -38 -5 -4 -6 -22 -11 -41 -11 -18 0 -36 -6 -38 -12 -4
-10 -8 -10 -15 1 -8 11 -14 10 -32 -7 -12 -11 -35 -22 -51 -26 -17 -3 -50 -28
-82 -61 -30 -30 -59 -55 -65 -55 -7 0 -12 -6 -12 -14 0 -8 -7 -16 -15 -20 -8
-3 -15 -12 -15 -21 0 -8 -3 -15 -7 -15 -13 0 -73 -57 -73 -69 0 -6 -4 -11 -10
-11 -5 0 -10 -13 -10 -29 0 -17 -4 -33 -10 -36 -5 -3 -10 -19 -10 -35 0 -16
-7 -33 -15 -37 -9 -5 -18 -34 -23 -71 -7 -47 -14 -67 -30 -78 -14 -10 -22 -26
-22 -44 0 -16 -4 -32 -10 -35 -6 -4 -10 -57 -10 -126 0 -92 -3 -124 -15 -135
-16 -16 -14 -112 3 -123 5 -3 10 -33 11 -66 0 -33 5 -71 10 -85 5 -14 17 -53
27 -87 11 -40 23 -63 32 -63 10 0 13 -7 8 -22 -6 -27 14 -78 31 -78 6 0 14
-18 18 -39 4 -22 13 -42 21 -45 8 -3 14 -15 14 -26 0 -11 5 -20 10 -20 6 0 10
-5 10 -11 0 -6 6 -16 13 -24 27 -28 47 -56 47 -64 0 -5 20 -14 45 -21 51 -14
54 -21 24 -51 -17 -17 -31 -20 -97 -18 -51 2 -89 9 -112 21 -19 10 -40 18 -47
18 -7 0 -13 7 -13 15 0 8 -7 15 -16 15 -8 0 -22 7 -31 15 -25 26 -38 12 -44
-49 -4 -31 -8 -59 -11 -61 -3 -3 -26 -8 -52 -11 -67 -10 -117 17 -130 69 -10
39 -61 38 -99 -3 -16 -16 -38 -31 -50 -31 -34 -2 -96 -2 -169 0 l-68 1 0 30
c0 25 4 30 35 36 36 6 85 58 85 89 0 10 20 38 45 63 25 25 45 53 44 61 -3 31
1 41 16 41 8 0 15 7 15 15 0 8 5 15 10 15 6 0 10 7 10 15 0 8 4 15 9 15 5 0
13 10 17 23 4 12 11 25 16 28 5 3 10 21 11 40 1 19 4 36 7 39 16 16 30 54 30
84 0 21 6 36 15 40 8 3 15 14 15 25 0 11 5 23 10 26 6 3 10 22 10 41 0 19 4
34 10 34 5 0 8 43 6 107 -3 79 0 112 10 128 10 15 12 45 10 105 -7 149 -17
210 -36 220 -12 7 -19 26 -22 64 -3 32 -11 61 -21 71 -9 9 -17 23 -17 32 0 15
-38 75 -52 81 -4 2 -8 10 -8 18 0 8 -4 14 -9 14 -5 0 -13 9 -16 20 -3 11 -13
20 -21 20 -8 0 -14 9 -14 19 0 11 -9 23 -20 26 -11 3 -20 13 -20 21 0 8 -9 14
-20 14 -11 0 -20 4 -20 9 0 4 -21 14 -47 22 -27 7 -54 21 -61 31 -7 10 -20 18
-28 18 -8 0 -14 5 -14 10 0 6 -20 10 -45 10 -25 0 -54 5 -64 12 -15 9 -38 9
-101 -1 -68 -10 -88 -18 -114 -42 -17 -16 -34 -29 -38 -29 -5 0 -8 -9 -8 -20
0 -11 -4 -20 -10 -20 -5 0 -15 -20 -21 -45 -6 -25 -15 -45 -20 -45 -5 0 -9
-24 -9 -54 0 -43 5 -60 25 -84 14 -17 25 -35 25 -42 0 -23 34 -70 51 -70 9 0
36 -7 60 -15 36 -13 53 -14 91 -4 27 6 48 15 48 20 0 5 12 9 28 9 50 0 65 -67
36 -167 -11 -38 -22 -57 -35 -60 -10 -3 -19 -9 -19 -14 0 -5 -13 -9 -28 -9
-16 0 -32 -3 -36 -7 -19 -19 -82 -31 -127 -24 -49 8 -49 8 -49 -20 0 -15 7
-34 15 -43 8 -8 15 -26 15 -40 0 -14 5 -28 10 -31 6 -3 10 -19 10 -36 0 -16 5
-29 12 -29 13 0 4 -188 -11 -203 -4 -4 -6 -28 -3 -53 3 -29 1 -44 -7 -44 -6 0
-11 -11 -11 -24 0 -13 -7 -37 -15 -52 -8 -16 -15 -36 -15 -44 0 -8 -14 -35
-30 -59 -17 -24 -30 -50 -30 -58 0 -7 -13 -27 -30 -44 -16 -17 -32 -47 -36
-65 -3 -19 -10 -34 -15 -34 -5 0 -9 -6 -9 -13 0 -8 -11 -19 -24 -26 -13 -7
-34 -26 -45 -42 -12 -16 -28 -29 -36 -29 -8 0 -15 -7 -15 -15 0 -8 -7 -15 -15
-15 -8 0 -15 -4 -15 -10 0 -5 -11 -10 -25 -10 -22 0 -25 4 -25 38 0 21 5 43
10 48 7 7 7 20 -1 42 -10 29 -9 83 5 260 6 85 11 96 38 89 30 -8 118 84 118
122 0 16 4 31 10 33 27 9 18 248 -11 248 -5 0 -9 17 -9 38 0 20 -9 54 -20 75
-11 20 -20 43 -20 51 0 8 -8 21 -19 28 -10 7 -22 28 -26 47 -4 19 -18 45 -31
58 -23 23 -31 71 -26 148 1 11 3 70 5 131 4 99 15 144 38 164 3 3 9 16 12 30
3 14 15 35 27 47 11 12 20 31 20 43 0 11 5 20 10 20 6 0 10 16 10 35 0 32 2
35 29 35 21 0 32 6 36 20 9 28 -3 43 -31 36 -17 -5 -24 -2 -24 9 0 10 -10 15
-35 15 -30 0 -36 4 -41 28 -4 15 -13 34 -20 42 -16 19 -7 99 12 107 8 3 14 9
14 14 0 8 47 59 55 59 3 0 14 9 25 20 14 14 33 20 64 20 25 0 47 4 51 9 3 6 0
29 -6 53 -6 24 -11 55 -10 71 0 15 -4 27 -9 27 -5 0 -12 9 -15 20 -3 11 -12
20 -19 20 -9 0 -16 21 -20 60 -4 33 -12 60 -17 60 -7 0 -8 38 -5 108 3 59 5
128 5 155 0 26 5 47 10 47 5 0 12 20 15 45 4 25 11 45 17 45 5 0 9 10 9 22 0
30 32 128 42 128 4 0 11 18 14 39 4 22 13 42 20 45 8 3 14 14 14 25 0 14 8 21
28 23 24 3 28 8 33 46 8 59 37 94 88 107 42 10 195 11 551 3z m1493 -14 c30
-4 47 -11 47 -20 0 -19 -22 -64 -32 -64 -4 0 -8 -11 -8 -24 0 -17 -11 -31 -34
-46 -19 -11 -36 -31 -38 -43 -5 -33 -43 -34 -64 -3 -9 15 -14 35 -11 46 3 11
1 20 -4 20 -5 0 -9 7 -9 15 0 8 -4 15 -9 15 -5 0 -12 12 -15 28 -4 15 -9 35
-12 44 -3 11 4 22 23 32 28 16 47 16 166 0z m1106 -4 c80 -6 138 -7 145 -1 13
11 47 -1 65 -23 11 -13 11 -25 0 -68 -7 -29 -17 -55 -21 -58 -4 -3 -3 -23 2
-45 5 -22 10 -55 10 -72 0 -18 5 -33 10 -33 6 0 10 -7 10 -15 0 -8 5 -15 10
-15 6 0 10 -8 10 -19 0 -10 7 -24 15 -31 9 -7 13 -20 10 -27 -6 -18 18 -43 42
-43 29 0 73 -23 73 -38 0 -8 7 -11 18 -9 9 3 38 10 65 17 26 7 47 17 47 21 0
5 6 9 14 9 17 0 28 24 20 45 -5 12 2 15 29 15 39 0 92 -43 82 -68 -5 -15 24
-72 37 -72 4 0 8 -7 8 -15 0 -8 -4 -15 -10 -15 -5 0 -10 -13 -10 -30 0 -16 -4
-30 -10 -30 -5 0 -7 -12 -4 -27 4 -24 -3 -36 -48 -81 l-53 -54 -70 3 -70 3 3
-28 c2 -15 14 -39 28 -52 14 -14 24 -37 24 -52 0 -16 8 -34 20 -42 22 -16 27
-64 9 -76 -8 -4 -9 -28 -5 -70 4 -41 3 -64 -4 -64 -5 0 -10 -10 -10 -21 0 -18
-2 -19 -15 -9 -13 11 -15 8 -15 -14 0 -15 -7 -29 -16 -33 -11 -4 -14 -13 -10
-29 4 -14 2 -24 -4 -24 -5 0 -10 -5 -10 -11 0 -6 -7 -17 -15 -25 -8 -9 -15
-24 -15 -35 0 -10 -7 -19 -15 -19 -8 0 -15 -4 -15 -10 0 -5 -4 -10 -10 -10
-15 0 -60 -42 -60 -57 0 -7 -5 -13 -11 -13 -19 0 -39 -28 -39 -55 0 -14 -7
-28 -15 -31 -8 -4 -15 -12 -15 -20 0 -8 -7 -14 -15 -14 -9 0 -15 -10 -15 -26
0 -26 -20 -54 -39 -54 -5 0 -13 -16 -17 -35 -5 -28 -11 -35 -30 -35 -19 0 -24
5 -24 24 0 14 -4 28 -10 31 -5 3 -10 17 -10 30 0 13 -7 30 -15 39 -8 8 -15 21
-15 28 -1 7 -9 31 -20 53 -11 22 -19 46 -20 53 0 8 -14 27 -30 44 -17 16 -33
42 -37 56 -7 29 -26 52 -42 52 -6 0 -11 8 -11 18 0 9 -9 23 -20 30 -11 7 -20
19 -20 26 0 8 -9 18 -20 21 -11 3 -20 11 -20 16 0 5 -7 9 -15 9 -8 0 -15 6
-15 13 0 7 -16 29 -36 50 -27 28 -41 55 -55 109 -21 80 -24 124 -9 133 14 8
13 68 -2 100 -8 17 -19 25 -37 25 -29 1 -61 21 -61 39 0 6 -7 11 -15 11 -8 0
-15 6 -15 13 0 8 -9 22 -20 32 -11 10 -20 28 -20 41 0 13 -4 25 -8 28 -11 6
-24 189 -16 211 4 8 12 15 20 15 7 0 17 6 21 13 4 8 20 17 36 21 20 5 27 3 27
-9 0 -8 5 -15 10 -15 6 0 10 -17 10 -38 0 -26 6 -42 20 -52 11 -8 20 -20 20
-27 0 -8 13 -13 35 -13 24 0 35 -5 35 -15 0 -19 25 -19 83 1 47 16 87 56 87
88 0 9 3 16 8 16 4 0 16 18 26 40 16 33 18 54 13 138 -5 98 -15 131 -49 163
-10 9 -18 21 -18 28 0 6 -4 11 -10 11 -14 0 -13 23 2 38 14 14 2 14 167 2z
m1590 -8 c11 -18 -4 -135 -17 -140 -7 -2 -12 -10 -12 -18 0 -8 -4 -14 -10 -14
-5 0 -10 -6 -10 -12 -1 -7 -17 -21 -37 -30 -30 -14 -38 -15 -49 -3 -8 7 -14
17 -14 21 0 4 -7 12 -16 18 -12 9 -17 33 -19 89 -2 66 0 77 14 77 10 0 26 7
37 15 22 18 121 15 133 -3z m1298 -12 c22 -17 22 -17 3 -38 -14 -15 -20 -35
-20 -70 0 -27 -3 -52 -7 -56 -11 -11 -14 -126 -4 -126 5 0 17 -18 27 -40 10
-22 22 -40 27 -40 5 0 17 -8 26 -18 18 -22 116 -39 126 -22 3 5 15 10 26 10
10 0 19 5 19 10 0 6 6 10 14 10 8 0 17 14 21 31 7 30 8 31 52 26 24 -2 46 -7
48 -9 24 -24 42 -268 20 -268 -7 0 -16 -8 -19 -17 -19 -50 -32 -62 -88 -79
-46 -14 -63 -15 -83 -6 -38 17 -55 15 -55 -8 0 -11 5 -20 10 -20 6 0 10 -11
10 -24 0 -14 5 -28 10 -31 6 -3 10 -15 10 -26 0 -10 3 -19 8 -19 20 0 34 -65
39 -179 5 -107 3 -129 -12 -158 -10 -18 -22 -33 -27 -33 -4 0 -8 -9 -8 -21 0
-12 -6 -35 -14 -52 -8 -18 -16 -39 -19 -49 -3 -9 -20 -19 -37 -23 -24 -5 -32
-13 -37 -36 -3 -16 -9 -29 -14 -29 -5 0 -9 -7 -9 -15 0 -8 -4 -15 -10 -15 -5
0 -10 -6 -10 -13 0 -7 -9 -18 -20 -25 -11 -7 -20 -19 -20 -27 0 -8 -5 -15 -10
-15 -18 0 -59 -47 -66 -74 -3 -14 -10 -26 -15 -26 -5 0 -9 -5 -9 -10 0 -6 -9
-20 -20 -32 -11 -12 -20 -28 -20 -35 0 -7 -11 -13 -23 -13 -19 0 -26 8 -35 39
-7 21 -12 47 -12 59 0 11 -7 23 -16 26 -9 4 -14 13 -10 21 3 9 0 15 -9 15 -7
0 -16 14 -20 30 -4 17 -11 30 -16 30 -5 0 -9 6 -9 13 0 7 -9 23 -20 35 -11 12
-20 30 -20 42 0 11 -7 23 -15 26 -8 4 -15 12 -15 20 0 8 -4 14 -9 14 -5 0 -12
12 -15 26 -4 14 -20 38 -36 54 -22 21 -30 39 -30 64 0 21 -6 36 -15 40 -11 4
-15 21 -15 61 0 31 -4 55 -10 55 -6 0 -10 24 -8 60 1 33 6 60 10 60 4 0 8 16
8 35 0 18 6 38 14 42 18 11 28 45 17 61 -4 7 -25 15 -47 19 -23 3 -48 15 -60
29 -12 13 -26 24 -33 24 -6 0 -11 6 -11 14 0 8 -12 17 -27 21 -39 9 -53 23
-53 51 0 13 -4 24 -8 24 -11 0 -42 55 -42 76 0 9 -7 25 -14 33 -12 13 -13 25
-5 56 6 22 13 52 16 67 4 20 13 29 34 33 16 4 29 11 29 16 0 5 7 9 15 9 8 0
15 5 15 10 0 6 5 10 10 10 6 0 10 -7 10 -15 0 -8 5 -15 11 -15 6 0 8 -8 4 -19
-4 -13 6 -30 32 -56 l37 -37 86 4 c85 3 120 17 120 47 0 6 6 11 13 11 13 0 37
53 37 82 0 9 4 18 9 20 29 10 4 253 -27 265 -28 11 11 21 67 17 31 -3 85 -1
121 4 73 10 95 7 127 -18z m2606 3 c7 -4 57 -7 112 -6 55 0 89 -2 75 -4 -29
-6 -40 -19 -40 -50 0 -13 -4 -23 -9 -23 -5 0 -12 -11 -15 -25 -4 -14 -12 -25
-19 -25 -8 0 -13 -26 -14 -86 -2 -47 1 -83 5 -80 5 3 14 -17 21 -44 7 -28 18
-50 25 -50 6 0 16 -8 23 -19 18 -29 163 -57 163 -31 0 6 13 10 28 10 16 0 34
8 42 20 8 11 22 20 31 20 10 0 19 5 21 11 4 12 78 -54 78 -70 0 -5 6 -11 13
-14 14 -4 15 -155 0 -166 -4 -3 -10 -28 -11 -56 -2 -27 -7 -51 -13 -53 -5 -2
-9 -10 -9 -18 0 -8 -3 -14 -7 -14 -5 0 -22 -13 -38 -28 -30 -28 -85 -48 -85
-31 0 5 -18 9 -40 9 -34 0 -40 -3 -46 -26 -4 -16 -2 -29 6 -34 19 -12 0 -200
-21 -200 -5 0 -14 -20 -20 -43 -10 -40 -31 -74 -74 -118 -8 -9 -15 -21 -15
-27 0 -7 -7 -12 -15 -12 -18 0 -65 -43 -65 -60 0 -5 -4 -10 -10 -10 -5 0 -10
-6 -10 -13 0 -7 -9 -19 -20 -27 -11 -8 -20 -20 -20 -27 0 -12 -17 -36 -47 -68
-7 -8 -13 -27 -13 -44 0 -17 -5 -31 -11 -31 -14 0 -39 -25 -39 -39 0 -23 -38
-11 -44 14 -4 14 -11 25 -17 25 -6 0 -8 11 -4 29 4 19 1 34 -9 44 -9 9 -16 20
-16 26 0 6 -4 11 -10 11 -5 0 -10 7 -10 16 0 9 -11 29 -25 46 -14 16 -25 35
-25 43 0 7 -9 15 -20 18 -11 3 -24 17 -30 31 -5 14 -16 26 -24 26 -7 0 -16 13
-19 29 -3 16 -13 36 -22 44 -8 9 -15 20 -15 26 0 6 -4 11 -10 11 -5 0 -10 13
-10 29 0 16 -5 31 -11 33 -7 2 -11 47 -12 125 -1 102 2 123 17 138 28 28 16
50 -29 53 -57 3 -115 23 -115 39 0 7 -7 13 -15 13 -8 0 -15 5 -15 11 0 6 -7
17 -15 25 -8 9 -15 24 -15 35 0 10 -4 19 -10 19 -5 0 -10 6 -10 14 0 8 -6 16
-12 18 -9 3 -14 34 -16 95 -3 75 0 98 17 136 19 41 26 47 51 47 28 0 30 -3 30
-38 0 -30 7 -43 35 -70 20 -17 46 -32 58 -32 13 0 28 -5 35 -12 7 -7 12 -8 12
-2 0 5 24 11 53 12 28 1 54 7 55 12 2 6 12 10 23 10 10 0 19 5 19 10 0 6 5 10
10 10 26 0 86 71 98 115 15 55 16 95 2 95 -5 0 -10 18 -10 39 0 22 -7 46 -15
55 -8 8 -15 21 -15 29 0 8 -7 20 -15 27 -8 7 -15 19 -15 26 0 8 -7 14 -15 14
-16 0 -19 9 -10 32 4 10 32 12 121 11 63 -1 120 -6 127 -10z m2485 -5 c14 -18
18 -51 7 -67 -5 -10 -4 -16 3 -19 8 -2 12 -29 12 -73 0 -39 4 -69 10 -69 6 0
10 -8 10 -18 0 -10 9 -24 20 -32 11 -8 23 -29 26 -47 3 -18 10 -33 14 -33 4 0
11 -11 14 -25 8 -32 19 -32 58 5 17 17 37 30 44 30 8 0 14 4 14 9 0 5 10 12
23 15 33 10 177 12 177 3 0 -12 27 -37 39 -37 6 0 11 -7 11 -15 0 -8 7 -15 15
-15 10 0 15 -10 15 -30 0 -16 5 -30 10 -30 6 0 10 -7 10 -15 0 -8 4 -15 9 -15
11 0 1 -104 -10 -108 -5 -2 -9 -12 -9 -22 0 -10 -17 -34 -37 -53 -105 -99
-135 -113 -177 -82 -47 36 -65 -7 -21 -51 14 -14 28 -37 31 -52 4 -15 11 -33
17 -40 13 -17 13 -152 0 -161 -6 -3 -14 -21 -18 -38 -3 -18 -10 -33 -15 -33
-4 0 -13 -20 -19 -43 -6 -26 -21 -52 -36 -63 -14 -10 -25 -22 -25 -26 0 -8
-59 -68 -67 -68 -9 0 -53 -54 -53 -65 -1 -15 -36 -55 -49 -55 -6 0 -11 -19
-11 -45 0 -25 -4 -45 -10 -45 -5 0 -10 -7 -10 -15 0 -21 -27 -30 -45 -15 -8 7
-15 24 -15 37 0 15 -14 39 -35 60 -19 19 -35 41 -35 49 0 8 -7 14 -15 14 -9 0
-15 9 -15 24 0 21 -43 76 -60 76 -3 0 -13 12 -21 28 -8 15 -23 36 -35 47 -12
11 -27 37 -34 58 -7 21 -18 41 -26 44 -8 3 -18 22 -24 43 -6 21 -17 41 -25 44
-8 3 -15 12 -15 20 0 8 -6 16 -12 19 -10 3 -12 35 -11 121 l2 118 -63 -7 c-42
-4 -66 -3 -71 4 -3 6 -17 8 -29 5 -14 -3 -29 1 -39 10 -8 9 -20 16 -26 16 -6
0 -11 8 -11 19 0 10 -9 25 -21 32 -23 16 -43 90 -33 123 4 11 8 38 9 60 1 21
7 41 12 45 6 3 14 17 18 31 10 32 35 70 46 70 5 0 18 9 29 20 11 11 29 20 39
20 11 0 22 4 25 9 9 14 74 25 161 26 66 1 82 -2 93 -17 7 -10 20 -18 29 -18
23 0 63 -40 63 -62 0 -18 26 -36 36 -25 10 10 -7 65 -27 88 -17 20 -19 38 -19
161 0 134 1 139 23 148 34 14 143 12 155 -2z m1392 3 c0 -5 -7 -14 -15 -21 -8
-7 -15 -21 -15 -32 0 -10 -7 -21 -15 -24 -9 -4 -15 -19 -15 -39 0 -77 -13
-124 -41 -152 -16 -15 -29 -34 -29 -40 0 -20 -91 -16 -115 5 -28 25 -45 57
-45 87 0 14 -4 25 -9 25 -4 0 -11 27 -14 61 -5 54 -9 65 -39 90 l-33 28 38 1
c20 0 47 -6 58 -12 18 -11 23 -10 36 10 15 21 22 22 134 22 66 0 119 -4 119
-9z m-2604 -11 c20 0 18 -56 -3 -72 -28 -21 -43 -55 -43 -98 0 -32 -6 -47 -31
-71 -17 -17 -36 -28 -43 -25 -61 26 -66 31 -76 86 -13 62 -30 112 -42 121 -28
19 41 65 73 49 25 -14 70 -12 99 5 14 8 31 12 38 10 8 -3 20 -5 28 -5z m-2553
-17 c4 -2 7 -13 7 -23 0 -14 -5 -18 -17 -13 -14 6 -15 1 -10 -40 5 -32 2 -50
-7 -59 -7 -7 -13 -28 -13 -46 0 -40 -17 -54 -55 -48 -16 3 -28 2 -28 -3 0 -15
-30 -21 -50 -11 -14 8 -20 26 -24 87 -4 43 -8 95 -10 116 l-4 37 63 0 c35 0
67 5 70 11 6 9 57 4 78 -8z"/>
<path d="M3035 4820 c-83 -12 -155 -52 -155 -87 0 -11 -7 -26 -15 -33 -8 -7
-15 -21 -15 -31 0 -11 -4 -19 -10 -19 -5 0 -10 -20 -10 -45 0 -48 20 -125 32
-125 5 0 8 -7 8 -15 0 -8 5 -15 10 -15 6 0 10 -6 10 -13 0 -7 15 -21 33 -32
44 -27 155 -28 181 -2 11 11 26 15 37 12 13 -4 19 -2 19 9 0 9 5 16 10 16 6 0
10 15 10 34 0 26 5 35 23 40 32 8 37 8 37 -7 0 -7 9 -19 20 -27 13 -9 20 -26
20 -47 0 -18 5 -33 10 -33 6 0 10 -26 9 -60 -1 -53 -5 -62 -30 -82 -18 -15
-30 -36 -34 -59 -5 -30 -10 -36 -26 -32 -11 3 -21 -1 -25 -11 -3 -9 -15 -16
-25 -16 -10 0 -19 -4 -19 -10 0 -5 -23 -10 -50 -10 -35 0 -52 -4 -56 -15 -6
-15 17 -45 33 -45 12 0 53 -47 53 -60 0 -6 4 -10 9 -10 5 0 7 -33 5 -72 -6
-107 -14 -158 -25 -158 -5 0 -9 -6 -9 -13 0 -7 -8 -17 -19 -24 -10 -6 -21 -27
-25 -46 -3 -18 -20 -46 -36 -62 -17 -16 -30 -37 -30 -47 0 -10 -7 -18 -15 -18
-20 0 -125 -105 -125 -125 0 -8 -4 -15 -10 -15 -5 0 -10 -7 -10 -15 0 -8 -4
-15 -9 -15 -5 0 -12 -11 -15 -25 -4 -14 -11 -25 -16 -25 -6 0 -10 -13 -10 -30
0 -16 -4 -30 -9 -30 -4 0 -11 -18 -14 -41 -5 -35 -27 -68 -48 -69 -3 0 -9 24
-12 52 -4 29 -16 65 -27 80 -11 15 -20 36 -20 48 0 12 -33 53 -80 102 -52 53
-80 89 -80 104 0 14 -8 25 -20 29 -11 3 -20 11 -20 16 0 5 -8 17 -18 27 -34
34 -52 66 -52 94 0 17 -6 29 -19 33 -26 8 -36 98 -21 185 26 148 26 150 -4
150 -15 0 -34 -7 -42 -15 -21 -20 -36 -19 -64 5 -13 11 -29 20 -36 20 -7 0
-15 13 -19 30 -4 16 -15 32 -26 35 -10 4 -21 18 -24 33 -3 15 -11 44 -16 66
-14 53 -19 116 -9 116 4 0 11 11 14 25 5 21 12 25 41 25 28 0 35 -4 35 -20 0
-11 4 -20 9 -20 5 0 11 -9 14 -20 3 -14 14 -20 31 -20 14 0 26 -4 26 -10 0
-16 97 -12 114 5 8 8 22 15 30 15 9 0 16 4 16 8 0 4 13 16 30 25 45 27 61 47
55 68 -4 11 -2 19 6 19 17 0 7 89 -20 178 -17 57 -26 72 -41 72 -11 0 -20 7
-20 15 0 8 -5 15 -11 15 -6 0 -22 9 -36 20 -14 11 -34 20 -44 20 -11 0 -19 5
-19 10 0 6 -33 10 -79 10 -44 0 -83 -4 -86 -10 -3 -5 -16 -10 -29 -10 -13 0
-39 -15 -58 -32 -20 -18 -58 -53 -86 -78 -28 -25 -51 -51 -51 -57 -1 -7 -5
-13 -11 -13 -5 0 -10 -11 -10 -24 0 -13 -6 -29 -14 -36 -8 -6 -12 -18 -9 -26
3 -8 0 -14 -6 -14 -6 0 -11 -15 -11 -32 0 -48 -10 -78 -26 -78 -9 0 -15 -13
-16 -37 0 -21 -2 -51 -3 -68 -1 -16 2 -41 7 -54 5 -14 4 -28 -2 -36 -14 -16 7
-153 26 -176 8 -8 14 -28 14 -42 0 -15 5 -27 10 -27 6 0 10 -13 10 -30 0 -16
5 -30 10 -30 6 0 10 -13 10 -28 0 -26 7 -39 50 -89 5 -7 10 -17 10 -23 0 -5 5
-10 10 -10 6 0 10 -5 10 -11 0 -6 6 -17 14 -25 8 -8 19 -14 25 -14 6 0 11 -9
11 -20 0 -21 208 -240 229 -240 6 0 14 -7 17 -15 4 -8 12 -15 20 -15 8 0 14
-5 14 -11 0 -14 25 -39 39 -39 6 0 11 -6 11 -14 0 -8 11 -17 25 -20 14 -4 25
-11 25 -17 0 -13 46 -59 60 -59 5 0 10 -4 10 -10 0 -5 7 -10 15 -10 8 0 15 -7
15 -15 0 -8 5 -15 10 -15 6 0 10 -7 10 -15 0 -8 5 -15 10 -15 6 0 10 -7 10
-15 0 -8 5 -15 10 -15 6 0 10 -6 10 -13 0 -15 45 -57 60 -57 6 0 10 -7 10 -15
0 -8 4 -15 9 -15 5 0 13 -9 16 -20 3 -11 13 -20 21 -20 8 0 14 -9 14 -20 0
-11 5 -20 10 -20 6 0 10 -7 10 -15 0 -8 7 -15 15 -15 8 0 15 5 15 10 0 6 7 10
15 10 8 0 15 6 15 14 0 8 14 30 30 48 17 18 30 37 30 44 0 6 11 17 25 24 14 7
25 19 25 27 0 7 7 13 16 13 9 0 18 9 21 20 3 10 18 25 34 32 17 7 32 23 35 35
3 12 15 25 27 29 11 3 30 17 42 30 12 13 27 24 34 24 6 0 11 7 11 15 0 8 5 15
11 15 14 0 39 25 39 39 0 6 7 11 16 11 17 0 44 23 44 38 0 15 53 72 67 72 7 0
13 7 13 15 0 8 5 15 10 15 6 0 10 5 10 11 0 6 6 16 13 23 6 7 23 27 37 45 14
19 33 41 43 49 9 9 17 27 17 39 0 13 5 23 10 23 6 0 10 7 10 15 0 8 7 15 15
15 8 0 15 6 15 14 0 8 5 16 11 18 11 4 34 123 46 238 8 85 8 378 -1 443 -4 31
-14 63 -22 71 -8 8 -14 19 -14 25 0 6 -4 11 -9 11 -6 0 -11 17 -13 38 -2 27
-9 40 -25 47 -13 5 -23 15 -23 22 0 7 -4 13 -10 13 -5 0 -10 8 -10 18 0 35
-78 102 -117 102 -10 0 -27 6 -38 14 -24 16 -170 26 -240 16z"/>
<path d="M2675 4167 c-31 -19 -65 -57 -65 -73 0 -7 -3 -14 -7 -14 -5 0 -8 -13
-8 -29 0 -16 3 -33 8 -37 4 -4 7 -19 7 -33 0 -32 46 -74 72 -65 10 3 18 1 18
-5 0 -29 146 1 156 31 3 10 10 18 15 18 5 0 9 15 9 33 0 18 4 37 10 43 11 11
2 54 -11 54 -5 0 -9 7 -9 15 0 8 -4 15 -10 15 -5 0 -10 7 -10 15 0 8 -4 15
-10 15 -5 0 -10 7 -10 15 0 12 -14 15 -67 14 -38 0 -77 -6 -88 -12z"/>
<path d="M11535 2680 c-11 -5 -33 -9 -48 -9 -15 -1 -30 -8 -33 -16 -4 -8 -12
-15 -20 -15 -8 0 -14 -4 -14 -10 0 -5 -9 -10 -21 -10 -26 0 -79 -30 -79 -45 0
-6 -9 -17 -20 -25 -11 -8 -20 -19 -20 -25 0 -6 -9 -16 -20 -23 -14 -8 -20 -23
-20 -47 0 -19 -4 -35 -10 -35 -6 0 -10 -27 -10 -60 0 -33 4 -60 10 -60 6 0 10
-7 10 -15 0 -8 4 -15 8 -15 5 0 15 -18 22 -39 10 -33 18 -40 46 -45 18 -4 35
-12 38 -19 3 -9 6 -9 13 1 6 8 20 10 41 6 31 -6 32 -8 32 -60 0 -30 5 -54 10
-54 6 0 16 -11 22 -25 6 -14 16 -25 22 -25 15 0 66 -45 66 -59 0 -6 12 -11 27
-11 15 0 52 -5 82 -11 64 -14 184 -4 204 15 7 8 24 17 37 21 26 8 50 28 50 42
0 5 18 20 39 33 42 27 61 68 61 134 0 21 5 37 13 37 6 1 31 3 54 4 31 2 51 11
75 34 18 17 36 31 40 31 4 0 10 16 14 35 3 19 10 35 15 35 5 0 9 27 9 60 0 33
-4 60 -10 60 -5 0 -10 7 -10 15 0 9 -9 25 -20 37 -11 12 -20 27 -20 34 0 7 -9
16 -20 19 -11 3 -20 11 -20 16 0 5 -11 9 -25 9 -14 0 -25 4 -25 10 0 5 -19 15
-42 22 -24 6 -45 15 -48 19 -9 11 -148 21 -307 22 -84 1 -153 5 -153 9 0 10
-19 9 -45 -2z m431 -239 l50 -46 -23 -34 c-13 -18 -23 -40 -23 -47 0 -9 -12
-14 -35 -14 -19 0 -35 -4 -35 -10 0 -5 -6 -10 -13 -10 -6 0 -18 -19 -25 -42
-17 -55 -62 -98 -102 -98 -16 0 -30 5 -30 10 0 6 -16 10 -35 10 -19 0 -35 5
-35 10 0 6 -9 10 -20 10 -11 0 -20 6 -20 13 -1 6 -19 30 -40 52 -22 22 -40 43
-40 47 0 5 -7 8 -16 8 -8 0 -29 13 -45 29 -48 48 -38 113 24 152 30 19 43 19
222 13 l190 -7 51 -46z"/>
<path d="M8841 2664 c-51 -23 -136 -91 -164 -132 -36 -52 -53 -146 -37 -208 6
-27 14 -65 17 -84 6 -41 29 -70 55 -70 12 0 23 -11 29 -29 6 -16 17 -32 25
-35 8 -3 14 -14 14 -24 0 -24 19 -42 44 -42 11 0 58 -37 110 -89 88 -85 94
-89 147 -96 48 -6 63 -3 120 22 89 41 157 117 173 196 5 20 12 27 30 27 39 0
55 10 92 58 34 45 34 45 34 153 0 104 -1 109 -28 141 -16 18 -36 59 -46 91
-23 75 -47 93 -134 100 -38 3 -86 13 -107 21 -51 22 -324 21 -374 0z m244
-183 c6 0 50 3 98 6 85 4 91 3 129 -23 22 -15 46 -37 54 -48 42 -60 -9 -146
-85 -146 -35 0 -43 -5 -66 -37 -18 -27 -25 -51 -25 -84 0 -56 -12 -68 -78 -76
-48 -5 -53 -4 -81 26 -43 47 -42 47 -85 83 -102 87 -99 82 -91 151 7 65 32
116 68 143 17 11 38 14 87 10 36 -3 70 -5 75 -5z"/>
<path d="M6340 2559 c-30 -5 -90 -11 -132 -15 -70 -5 -81 -9 -115 -40 -20 -19
-47 -34 -59 -34 -22 0 -34 -17 -34 -49 0 -10 -9 -26 -20 -36 -15 -13 -20 -31
-20 -66 0 -26 5 -49 10 -51 6 -2 17 -21 24 -43 11 -31 21 -42 45 -49 17 -5 31
-12 31 -16 0 -4 26 -13 58 -20 64 -13 57 -4 89 -122 2 -10 9 -18 14 -18 5 0 9
-7 9 -15 0 -8 6 -15 13 -15 7 0 19 -9 27 -20 8 -11 20 -20 27 -20 7 0 13 -4
13 -10 0 -6 33 -10 80 -10 47 0 80 4 80 10 0 6 14 10 31 10 29 0 59 19 59 37
0 4 9 14 20 21 11 7 20 23 20 36 0 33 52 86 83 86 14 0 29 5 32 10 3 6 13 10
21 10 18 0 44 24 44 39 0 5 7 14 16 19 24 13 45 104 33 144 -5 18 -9 46 -9 61
0 31 -33 66 -62 67 -10 0 -27 9 -38 20 -11 11 -43 27 -72 36 -29 8 -70 23 -90
31 -25 10 -51 14 -77 9 -23 -3 -42 -2 -46 4 -7 11 -25 11 -105 -1z m265 -172
c33 -18 41 -28 43 -55 4 -41 -13 -62 -85 -109 -44 -28 -53 -39 -53 -63 0 -34
-43 -80 -75 -80 -23 0 -89 67 -100 99 -3 12 -11 21 -16 21 -5 0 -9 12 -9 26 0
14 -4 23 -10 19 -6 -4 -28 1 -49 11 -32 14 -41 24 -46 52 -5 29 -2 39 19 59
23 21 33 23 145 23 69 0 122 4 126 10 10 17 68 10 110 -13z"/>
<path d="M3716 2548 c-32 -4 -64 -12 -70 -17 -6 -4 -32 -12 -58 -15 -41 -6
-47 -10 -53 -37 -4 -16 -10 -29 -15 -29 -16 0 -23 -111 -10 -149 18 -50 58
-81 105 -81 30 0 45 -26 45 -79 0 -23 5 -41 10 -41 6 0 10 -7 10 -14 0 -8 11
-27 25 -42 14 -15 25 -33 25 -40 0 -8 9 -14 20 -14 11 0 20 -4 20 -10 0 -6 32
-10 75 -10 43 0 75 4 75 10 0 6 5 10 10 10 13 0 50 37 50 50 0 6 7 10 15 10 8
0 15 5 15 10 0 6 6 10 13 10 12 0 22 24 43 98 2 7 22 12 53 12 31 0 55 6 65
15 8 8 17 15 20 15 9 0 53 45 64 67 15 27 16 80 2 88 -5 3 -10 16 -10 28 -1
25 -22 57 -39 57 -6 0 -11 7 -11 15 0 8 -11 17 -25 21 -14 3 -25 10 -25 14 0
6 -43 19 -85 25 -5 1 -18 5 -28 10 -10 4 -44 5 -77 3 -33 -2 -61 -1 -62 3 -5
11 -127 16 -192 7z m249 -134 c40 -4 67 -13 83 -27 22 -21 31 -67 12 -67 -5 0
-10 -6 -10 -13 0 -13 -56 -41 -77 -38 -7 1 -13 -7 -13 -17 0 -11 -7 -25 -15
-32 -8 -7 -15 -20 -15 -30 0 -31 -35 -53 -73 -46 -51 10 -82 48 -82 103 0 35
-5 48 -20 57 -56 32 -58 81 -5 109 36 19 34 19 215 1z"/>
<path d="M13980 2549 c-30 -5 -90 -11 -132 -15 -70 -5 -81 -9 -115 -40 -20
-19 -47 -34 -59 -34 -22 0 -34 -17 -34 -49 0 -10 -9 -26 -20 -36 -15 -13 -20
-31 -20 -66 0 -26 5 -49 10 -51 6 -2 17 -21 24 -43 11 -31 21 -42 45 -49 17
-5 31 -12 31 -16 0 -4 26 -13 58 -20 64 -13 57 -4 89 -122 2 -10 9 -18 14 -18
5 0 9 -7 9 -15 0 -8 6 -15 13 -15 7 0 19 -9 27 -20 8 -11 20 -20 27 -20 7 0
13 -4 13 -10 0 -6 33 -10 80 -10 47 0 80 4 80 10 0 6 14 10 31 10 29 0 59 19
59 37 0 4 9 14 20 21 11 7 20 23 20 36 0 33 52 86 83 86 14 0 29 5 32 10 3 6
13 10 21 10 18 0 44 24 44 39 0 5 7 14 16 19 24 13 45 104 33 144 -5 18 -9 46
-9 61 0 31 -33 66 -62 67 -10 0 -27 9 -38 20 -11 11 -43 27 -72 36 -29 8 -70
23 -90 31 -25 10 -51 14 -77 9 -23 -3 -42 -2 -46 4 -7 11 -25 11 -105 -1z
m265 -172 c33 -18 41 -28 43 -55 4 -41 -13 -62 -85 -109 -44 -28 -53 -39 -53
-63 0 -19 -10 -38 -27 -55 -29 -26 -52 -31 -81 -16 -9 5 -33 16 -54 25 -31 14
-37 22 -43 59 -9 54 -16 62 -71 77 -50 14 -69 42 -58 87 11 40 57 53 193 53
69 0 122 4 126 10 10 17 68 10 110 -13z"/>
<path d="M5138 4162 c-21 -2 -38 -7 -38 -13 0 -5 -13 -9 -30 -9 -23 0 -30 -4
-30 -20 0 -11 -4 -20 -10 -20 -6 0 -10 -34 -10 -81 0 -78 1 -82 31 -110 17
-16 35 -29 40 -29 5 0 9 -4 9 -10 0 -5 20 -10 45 -10 25 0 54 -5 64 -12 15 -9
22 -8 34 4 9 9 31 18 50 22 31 6 36 11 48 54 7 26 16 49 20 52 10 7 0 50 -12
50 -5 0 -9 14 -9 30 0 20 -5 30 -15 30 -8 0 -15 7 -15 15 0 8 -4 15 -10 15 -5
0 -10 6 -10 14 0 24 -64 35 -152 28z"/>
<path d="M7780 4321 c0 -5 -22 -14 -49 -21 -48 -11 -50 -13 -61 -58 -21 -86
-23 -102 -11 -102 6 0 11 -7 11 -15 0 -31 54 -85 84 -85 14 0 28 -4 31 -10 3
-5 31 -10 61 -10 30 0 54 5 54 10 0 6 7 10 15 10 8 0 15 5 15 11 0 6 7 17 15
25 11 11 15 37 15 90 0 61 -3 74 -16 74 -11 0 -15 6 -11 19 3 11 -3 24 -15 32
-11 8 -26 20 -34 27 -14 14 -104 17 -104 3z"/>
<path d="M10485 4297 c-11 -7 -22 -15 -25 -19 -3 -3 -18 -10 -33 -13 -20 -5
-27 -13 -27 -32 0 -13 -7 -31 -15 -39 -16 -16 -21 -74 -6 -74 5 0 11 -14 15
-31 6 -32 27 -59 45 -59 6 0 11 -6 11 -14 0 -17 24 -28 45 -20 8 4 15 1 15 -5
0 -6 15 -11 33 -11 61 0 105 19 142 63 36 41 37 44 32 104 -4 59 -21 93 -46
93 -6 0 -11 6 -11 14 0 8 -13 20 -30 28 -16 7 -30 16 -30 20 0 12 -93 8 -115
-5z"/>
<path d="M12990 4300 c0 -5 -7 -10 -15 -10 -8 0 -15 -4 -15 -10 0 -5 -6 -10
-14 -10 -8 0 -18 -9 -21 -20 -3 -11 -13 -20 -20 -20 -52 0 -12 -212 43 -226
12 -3 22 -10 22 -15 0 -9 152 0 160 10 3 3 14 11 25 17 12 7 21 24 23 45 2 19
8 36 12 39 5 3 4 23 -2 45 -5 22 -11 51 -11 65 -2 35 -51 80 -87 80 -17 0 -30
5 -30 10 0 6 -16 10 -35 10 -19 0 -35 -4 -35 -10z"/>
<path d="M236 1098 l-69 -68 5 -72 c3 -40 11 -74 17 -76 6 -2 11 -12 11 -22 0
-9 7 -23 15 -30 23 -19 19 -29 -30 -76 -28 -26 -43 -48 -39 -57 3 -8 -4 -24
-16 -35 -12 -11 -24 -38 -27 -61 -3 -23 -11 -41 -18 -41 -13 0 -25 -43 -25
-91 0 -19 -5 -29 -14 -29 -11 0 -15 -20 -18 -93 -2 -50 1 -100 6 -109 8 -13
32 -17 125 -22 64 -3 137 -8 164 -12 31 -4 47 -2 47 5 0 6 18 11 40 11 22 0
40 4 40 9 0 5 15 12 33 15 18 3 39 15 47 26 8 11 20 20 27 20 7 0 13 5 13 10
0 6 7 10 15 10 8 0 15 6 15 14 0 24 39 30 61 10 10 -9 19 -23 19 -31 0 -7 5
-13 10 -13 6 0 10 -6 10 -13 0 -8 17 -19 39 -25 45 -14 181 -16 181 -3 0 5 8
11 18 15 36 12 92 58 92 76 0 6 4 10 10 10 13 0 29 66 30 120 1 89 -2 103 -26
129 -13 14 -24 34 -24 44 0 10 -7 20 -15 23 -8 4 -15 10 -15 16 0 5 -7 16 -15
24 -8 9 -15 26 -15 39 0 16 -8 26 -22 31 -26 8 -48 28 -48 43 0 6 -6 11 -14
11 -8 0 -17 11 -20 25 -4 14 -13 25 -21 25 -8 0 -15 5 -15 11 0 14 -25 39 -39
39 -6 0 -11 5 -11 10 0 6 -5 10 -11 10 -11 0 -39 25 -39 35 0 10 -28 35 -39
35 -6 0 -11 3 -11 8 0 8 -12 15 -78 47 -22 10 -43 27 -45 37 -3 10 -14 18 -26
18 -12 0 -21 5 -21 10 0 6 -7 10 -15 10 -8 0 -15 4 -15 8 0 4 -37 8 -82 8
l-83 1 -69 -69z m260 -25 c13 -8 24 -19 24 -23 0 -4 16 -11 34 -14 20 -4 48
-20 63 -36 15 -17 34 -30 40 -30 7 0 13 -4 13 -10 0 -5 7 -10 15 -10 8 0 15
-6 15 -13 0 -7 9 -19 20 -27 11 -8 20 -20 20 -27 0 -7 7 -13 15 -13 8 0 15 -5
15 -11 0 -6 32 -42 70 -80 39 -38 70 -73 70 -79 0 -5 4 -10 8 -10 5 0 14 -18
21 -41 7 -22 19 -43 27 -46 8 -3 14 -11 14 -18 0 -7 6 -15 14 -18 18 -7 28
-101 15 -153 -9 -33 -18 -46 -40 -56 -16 -7 -29 -18 -29 -24 0 -15 -26 -25
-45 -18 -8 4 -15 1 -15 -5 0 -14 -54 -14 -99 -1 -41 12 -81 47 -81 72 0 10 -4
18 -10 18 -5 0 -10 6 -10 14 0 20 -50 15 -80 -9 -13 -11 -39 -35 -57 -52 -22
-23 -42 -33 -63 -33 -16 0 -30 -4 -30 -10 0 -5 -9 -10 -20 -10 -11 0 -20 -4
-20 -9 0 -9 -36 -21 -84 -27 -15 -2 -67 7 -114 21 -47 14 -96 25 -109 25 -18
0 -23 6 -23 24 0 14 4 27 9 30 5 3 11 34 13 68 3 35 10 64 16 66 7 2 12 17 12
34 0 38 28 98 46 98 8 0 14 7 14 15 0 8 18 31 41 52 32 30 52 39 91 44 27 4
52 10 55 13 3 3 0 19 -7 35 -9 23 -21 32 -46 37 -19 3 -34 10 -34 15 0 5 -6 9
-14 9 -8 0 -17 12 -21 28 -3 15 -15 36 -25 47 -16 17 -17 26 -9 65 12 50 49
87 102 101 44 11 145 1 173 -18z"/>
<path d="M16360 850 c0 -5 -13 -10 -30 -10 -16 0 -30 -4 -30 -10 0 -5 -9 -10
-20 -10 -11 0 -20 -3 -20 -8 0 -7 -70 -32 -90 -32 -6 0 -23 -13 -37 -30 -13
-16 -31 -30 -39 -30 -8 0 -14 -7 -14 -15 0 -8 -4 -15 -8 -15 -5 0 -15 -11 -22
-25 -7 -14 -19 -25 -27 -25 -7 0 -13 -4 -13 -8 0 -5 -25 -33 -55 -64 -39 -39
-55 -63 -55 -82 0 -14 -4 -26 -10 -26 -5 0 -10 -7 -10 -15 0 -8 -4 -15 -10
-15 -5 0 -10 -7 -10 -15 0 -8 -4 -15 -9 -15 -15 0 -22 -66 -15 -130 4 -41 11
-60 20 -60 8 0 14 -4 14 -10 0 -5 7 -10 15 -10 8 0 15 -5 15 -10 0 -25 63 -78
98 -84 56 -10 86 -9 90 3 2 6 15 11 29 11 15 0 27 7 29 18 3 9 17 23 31 29 23
11 28 10 43 -7 10 -11 22 -20 29 -20 13 0 71 -53 71 -66 0 -28 163 -62 298
-63 l82 -1 -5 43 c-3 23 -8 54 -10 69 -2 15 0 28 6 30 16 5 17 160 2 165 -7 3
-13 17 -13 32 0 16 -11 40 -25 56 -29 30 -45 85 -26 85 25 0 41 29 41 73 0 27
6 49 15 57 19 16 20 80 1 80 -8 0 -18 19 -25 45 -6 25 -17 45 -24 45 -7 0 -19
9 -27 20 -8 11 -22 20 -32 20 -10 0 -18 5 -18 10 0 6 -16 10 -35 10 -19 0 -35
5 -35 10 0 6 -28 10 -65 10 -37 0 -65 -4 -65 -10z m108 -62 c2 -4 17 -8 34 -8
29 0 58 -19 58 -39 0 -6 4 -11 10 -11 5 0 18 -10 30 -22 21 -22 28 -88 10 -88
-5 0 -10 -15 -10 -33 0 -21 -8 -41 -20 -52 -11 -10 -20 -23 -20 -29 0 -6 -9
-17 -20 -24 -11 -7 -20 -16 -20 -21 0 -5 22 -31 50 -58 27 -26 50 -53 50 -60
0 -6 5 -13 11 -15 8 -3 11 -44 10 -132 -1 -71 -4 -132 -6 -136 -3 -4 -24 -6
-47 -4 -24 2 -78 6 -120 10 -66 5 -81 9 -106 34 -17 15 -39 33 -51 39 -12 7
-21 18 -21 25 0 8 -7 19 -15 26 -8 7 -15 20 -15 30 0 11 -10 20 -24 24 -26 6
-56 -1 -56 -14 0 -19 -70 -48 -132 -55 -59 -6 -70 -4 -102 17 -20 13 -36 28
-36 35 0 7 -7 16 -16 21 -13 7 -16 19 -12 57 3 26 11 51 18 55 7 4 9 13 6 19
-4 6 0 21 8 33 9 12 16 28 16 36 0 7 20 34 45 60 25 26 45 52 45 58 0 6 9 14
20 17 11 3 20 12 20 19 0 8 11 21 25 28 14 7 25 18 25 24 0 7 20 20 45 31 25
11 48 28 51 38 4 12 16 17 40 17 19 0 34 5 34 10 0 6 7 10 15 10 8 0 15 5 15
10 0 6 10 10 23 10 13 0 32 6 42 14 20 15 87 11 93 -6z"/>
</g>
</svg>
