<svg version="1.0" xmlns="http://www.w3.org/2000/svg"
 width="2217.000000pt" height="718.000000pt" viewBox="0 0 2217.000000 718.000000"
 preserveAspectRatio="xMidYMid meet">
<metadata>
Created by potrace 1.13, written by Peter Selinger 2001-2015
</metadata>
<g transform="translate(0.000000,718.000000) scale(0.100000,-0.100000)"
fill="currentColor" stroke="none">
<path d="M314 7073 c4 -27 9 -61 10 -78 2 -16 11 -50 20 -75 8 -25 16 -55 16
-68 0 -32 23 -102 34 -102 4 0 5 -7 2 -16 -6 -14 47 -74 66 -74 5 0 8 -7 8
-15 0 -8 5 -15 10 -15 6 0 10 -7 10 -15 0 -8 5 -15 10 -15 6 0 10 -7 10 -15 0
-8 6 -15 14 -15 8 0 16 -7 20 -15 3 -8 12 -15 20 -15 8 0 17 -13 21 -30 4 -16
13 -30 20 -30 7 0 16 -13 20 -30 4 -16 11 -30 16 -30 5 0 9 -7 9 -15 0 -8 7
-15 15 -15 8 0 15 -7 15 -15 0 -8 5 -15 10 -15 6 0 10 -13 10 -30 0 -16 5 -30
10 -30 6 0 10 -7 10 -15 0 -8 6 -15 13 -15 17 0 30 -29 46 -95 7 -27 16 -51
22 -53 5 -2 9 -8 9 -14 0 -5 7 -16 15 -24 8 -9 15 -25 15 -38 0 -12 5 -27 12
-34 9 -9 9 -15 1 -23 -7 -7 -8 -24 -2 -49 5 -21 11 -112 14 -201 3 -92 10
-166 15 -169 6 -4 17 -44 26 -91 14 -77 29 -124 73 -231 8 -21 18 -38 23 -38
4 0 8 -7 8 -15 0 -8 5 -15 10 -15 6 0 10 -5 10 -11 0 -16 26 -39 44 -39 11 0
16 -10 16 -32 0 -26 6 -37 30 -50 17 -9 30 -24 30 -33 0 -8 9 -15 20 -15 14 0
22 -11 29 -37 14 -48 14 -90 1 -95 -13 -4 -25 -181 -16 -241 4 -25 20 -65 36
-89 16 -24 30 -51 30 -60 0 -10 7 -18 15 -18 8 0 15 -4 15 -9 0 -5 14 -12 30
-16 17 -4 30 -11 30 -16 0 -5 7 -9 15 -9 8 0 15 -7 15 -15 0 -8 7 -15 15 -15
8 0 15 -4 15 -10 0 -5 14 -10 30 -10 18 0 30 -5 30 -13 0 -8 15 -14 38 -15 56
-4 71 -11 87 -43 9 -16 27 -32 40 -35 14 -3 25 -12 25 -20 0 -8 3 -14 8 -14 4
0 13 -13 20 -30 8 -16 19 -30 26 -30 7 0 19 -12 27 -26 7 -14 26 -36 41 -49
15 -13 28 -31 28 -39 0 -9 7 -16 15 -16 8 0 15 -4 15 -10 0 -5 6 -10 14 -10 8
0 16 -7 20 -15 3 -8 11 -15 19 -15 7 0 31 -9 52 -20 31 -16 60 -21 129 -21
l88 0 33 35 c38 41 70 41 62 -1 -2 -13 0 -26 5 -29 4 -3 6 -9 3 -14 -3 -4 -7
-106 -9 -226 -2 -121 -6 -274 -9 -341 -4 -78 -2 -125 4 -129 6 -3 8 -22 4 -45
-4 -22 -9 -126 -11 -232 -2 -105 -4 -231 -5 -280 -1 -48 0 -89 2 -91 5 -5 2
-355 -4 -551 -4 -96 -2 -154 5 -162 7 -9 6 -15 -6 -19 -12 -4 -14 -10 -6 -18
5 -8 8 -57 5 -121 -3 -76 -1 -112 7 -116 9 -6 8 -12 -1 -23 -10 -11 -13 -73
-13 -245 1 -267 0 -269 -72 -221 -25 17 -46 35 -46 40 0 27 -87 79 -158 95
-55 12 -132 -19 -167 -67 -57 -78 -64 -94 -70 -161 -7 -76 18 -187 41 -187 8
0 14 -5 14 -10 0 -6 9 -20 20 -32 26 -28 25 -41 -5 -86 -14 -20 -25 -41 -25
-46 0 -5 -9 -27 -19 -50 -10 -23 -31 -72 -47 -111 -15 -38 -38 -83 -51 -98
-13 -16 -26 -39 -29 -53 -3 -13 -10 -24 -15 -24 -4 0 -11 -17 -15 -37 -4 -21
-12 -45 -19 -53 -17 -21 -37 -102 -33 -131 3 -22 9 -24 57 -27 70 -4 98 3 106
27 3 11 19 22 34 26 16 3 38 15 49 25 12 11 24 20 27 20 18 0 85 37 85 47 0 6
14 14 30 18 17 4 30 12 30 18 0 7 17 23 38 37 20 14 39 28 42 31 3 4 23 16 45
27 22 11 48 30 57 41 25 30 68 27 100 -7 14 -16 45 -34 69 -41 23 -7 49 -19
56 -27 10 -10 41 -14 108 -14 83 0 96 2 105 19 5 11 18 22 28 25 26 9 54 83
53 141 -1 63 -10 105 -22 105 -5 0 -9 9 -9 20 0 11 -4 20 -8 20 -11 0 -52 39
-52 49 0 4 46 6 103 4 56 -2 143 2 192 8 50 7 126 12 170 12 44 0 86 4 93 9 7
7 17 7 25 1 6 -5 119 -9 249 -8 131 0 239 -4 241 -8 1 -5 24 -2 50 5 40 10 49
10 56 -1 7 -11 20 -11 76 0 52 10 71 10 86 1 23 -15 56 -16 64 -2 8 12 85 13
85 1 0 -15 122 -24 131 -10 6 10 87 14 351 17 732 7 1038 7 1041 -1 1 -4 23
-4 47 2 25 5 86 8 135 6 50 -2 170 -4 269 -4 98 -1 206 -5 241 -11 47 -7 74
-6 116 4 70 18 230 16 253 -3 13 -11 20 -11 28 -3 16 16 63 15 89 0 17 -10 23
-10 26 0 6 16 115 16 131 0 8 -8 12 -8 12 -1 0 16 120 29 130 14 5 -9 19 -9
51 -3 66 15 440 7 449 -8 5 -8 19 -10 41 -6 78 16 255 35 269 30 8 -3 436 -5
950 -5 514 1 1214 1 1555 0 341 -1 665 -1 720 -1 144 3 300 3 545 2 118 -1
220 -1 225 0 6 1 334 3 730 5 396 1 796 5 888 7 92 3 170 1 173 -4 8 -12 224
-10 224 3 0 7 21 8 64 4 42 -5 66 -3 70 4 9 14 46 15 46 1 0 -14 76 -13 102 1
15 8 22 8 28 -1 5 -8 18 -10 40 -5 43 9 250 14 250 6 0 -9 187 -7 196 2 10 9
234 9 234 0 0 -10 738 -9 767 1 13 4 28 4 34 0 20 -12 529 -15 606 -2 58 8 76
8 89 -3 19 -15 251 -16 327 -1 26 5 47 6 47 3 0 -4 55 -7 123 -7 67 0 196 -1
287 -1 91 -1 235 0 320 2 85 1 198 -1 250 -6 113 -11 248 -12 589 -3 202 5
255 4 261 -7 7 -10 19 -10 65 0 61 14 178 16 198 4 22 -13 319 -15 360 -2 30
10 40 10 46 1 5 -9 75 -12 268 -10 216 2 264 0 282 -12 21 -14 22 -18 10 -43
-10 -22 -10 -33 -1 -48 7 -10 12 -32 12 -49 0 -16 5 -30 10 -30 6 0 10 -5 10
-12 0 -17 92 -98 112 -98 10 0 18 -7 18 -15 0 -10 11 -15 35 -15 19 0 35 -4
35 -10 0 -12 43 -13 55 -1 6 5 42 19 80 33 81 27 104 42 130 82 18 26 22 28
68 23 35 -5 56 -14 73 -32 13 -14 34 -25 49 -25 14 0 25 -6 25 -13 0 -7 20
-18 45 -25 25 -7 45 -16 45 -22 0 -5 7 -10 15 -10 8 0 15 -6 15 -14 0 -9 18
-16 50 -20 28 -4 50 -11 50 -16 0 -6 6 -10 14 -10 8 0 21 -6 28 -14 10 -9 31
-12 71 -8 55 4 57 6 57 33 0 16 -7 45 -16 66 -24 55 -55 124 -72 158 -9 17
-18 37 -22 45 -4 8 -16 34 -28 57 -12 23 -22 49 -22 57 0 9 -4 16 -8 16 -4 0
-16 25 -27 55 l-18 55 25 23 c25 23 26 27 22 133 -4 142 -11 180 -40 233 -13
24 -24 52 -24 62 0 10 -10 21 -22 24 -13 4 -34 18 -48 30 -26 24 -83 34 -198
35 l-54 0 7 30 c4 19 2 36 -5 45 -14 16 -21 403 -8 411 3 2 2 19 -4 37 -5 17
-9 82 -7 142 1 61 2 135 1 165 0 30 0 93 1 140 1 47 0 139 -2 205 -5 143 -6
422 -2 485 1 25 0 83 -3 130 -3 47 -6 121 -5 165 0 44 0 91 -1 105 -3 34 -3
62 -3 225 1 77 1 156 1 175 0 19 0 119 1 222 1 103 1 191 0 195 -1 4 -1 25 0
46 1 43 14 46 95 22 66 -20 231 -31 240 -16 4 6 17 11 30 11 12 0 32 11 44 25
12 14 28 25 36 25 8 0 16 7 20 15 3 8 12 15 21 15 8 0 15 6 15 14 0 8 10 16
23 20 12 3 33 23 47 46 14 22 28 40 32 40 5 0 8 9 8 19 0 11 4 23 10 26 5 3
10 15 10 26 0 10 4 19 9 19 10 0 30 46 37 81 2 13 6 40 10 59 7 42 69 105 113
115 21 4 31 13 31 25 0 18 35 30 89 30 17 0 36 11 52 29 14 15 35 32 47 36 24
7 82 79 82 100 0 7 7 18 15 25 8 7 15 19 15 28 0 8 7 20 16 26 8 7 18 32 21
56 3 25 9 47 12 50 4 3 13 24 20 48 13 46 15 41 -75 228 -23 47 -24 52 -9 80
8 16 15 35 15 42 0 17 20 50 48 78 13 14 22 36 22 56 0 18 7 53 16 78 16 45
15 135 -2 162 -10 15 -11 28 -15 143 -3 112 7 162 36 181 12 8 34 39 49 69 21
40 35 55 55 60 17 3 31 16 40 35 8 18 20 30 32 30 10 0 19 4 19 10 0 5 11 12
25 16 14 3 25 10 25 15 0 5 7 9 15 9 8 0 15 6 15 13 0 7 24 20 53 28 34 10 55
23 62 36 5 13 28 27 55 36 25 8 44 20 43 25 -1 6 11 13 27 17 15 3 36 17 45
31 15 23 14 25 -9 36 -35 15 -124 -13 -161 -52 -16 -17 -34 -30 -39 -30 -6 0
-33 -11 -61 -25 -27 -13 -56 -25 -64 -25 -7 0 -46 -16 -86 -35 -83 -41 -192
-139 -220 -198 -10 -21 -31 -51 -46 -68 -16 -17 -29 -35 -29 -39 0 -5 -17 -14
-37 -20 -21 -7 -52 -21 -69 -31 -17 -11 -37 -19 -43 -19 -11 0 -35 -10 -176
-75 -27 -13 -79 -36 -115 -51 -61 -27 -130 -81 -130 -103 0 -6 -16 -13 -36
-17 -20 -4 -51 -16 -68 -28 -30 -19 -66 -73 -66 -97 0 -20 -53 -59 -89 -64
-67 -10 -182 -39 -187 -47 -3 -4 -14 -8 -25 -8 -22 0 -76 -26 -97 -46 -7 -7
-19 -17 -26 -21 -49 -30 -162 -236 -153 -281 3 -17 -2 -35 -14 -51 -10 -13
-19 -29 -19 -36 0 -24 -41 -65 -66 -65 -13 0 -24 -4 -24 -9 0 -5 -12 -16 -27
-24 -148 -76 -188 -114 -222 -208 -20 -54 -22 -73 -16 -142 6 -73 18 -108 50
-143 5 -6 17 -21 25 -33 8 -11 20 -21 27 -21 8 0 13 -13 13 -35 0 -19 5 -35
10 -35 6 0 10 -6 10 -14 0 -8 7 -16 15 -20 8 -3 15 -12 15 -21 0 -8 9 -15 20
-15 16 0 20 -7 20 -34 l0 -33 -187 -1 c-104 0 -469 -1 -813 -1 -344 0 -641 -1
-660 -1 -91 -2 -882 -7 -1010 -8 -80 0 -154 0 -165 0 -11 0 -87 0 -170 0 -82
-1 -161 -1 -175 -1 -42 -1 -2207 -11 -2660 -12 -234 -1 -507 1 -608 5 -100 4
-188 4 -194 0 -12 -8 -353 -11 -1273 -13 -757 -1 -748 -1 -762 -13 -7 -6 -27
-8 -45 -4 -31 6 -593 13 -668 8 -26 -1 -1619 8 -1820 10 -19 1 -96 -2 -170 -5
-74 -4 -232 -7 -350 -7 -371 0 -428 0 -1175 -5 -401 -2 -788 -3 -860 -3 -71 1
-209 0 -305 -2 -225 -3 -192 -3 -640 -1 -212 0 -416 0 -455 0 -73 -1 -168 -1
-900 0 -364 1 -795 0 -1120 -2 -92 0 -135 10 -135 33 0 11 4 20 9 20 5 0 10
44 10 98 1 72 -2 103 -14 117 -8 11 -15 32 -15 46 0 43 -125 181 -182 201 -16
6 -28 14 -28 20 0 6 -11 23 -25 40 -14 16 -25 36 -25 44 0 8 -4 14 -10 14 -15
0 -12 32 5 54 21 28 19 70 -5 91 -11 10 -20 26 -20 37 0 10 -4 18 -10 18 -5 0
-10 11 -10 23 0 39 -53 124 -95 153 -53 36 -180 86 -219 86 -17 0 -61 -3 -99
-7 l-67 -8 -35 37 c-19 21 -35 42 -35 49 0 12 -59 134 -75 155 -5 7 -19 23
-31 35 -11 12 -32 42 -46 67 -15 25 -58 81 -97 125 -39 44 -71 83 -71 87 0 4
-17 16 -37 27 -21 11 -58 40 -83 65 -27 29 -53 46 -67 46 -13 0 -26 7 -29 15
-4 8 -10 15 -14 15 -5 0 -22 14 -38 30 -17 17 -39 30 -49 30 -10 0 -27 7 -37
15 -10 8 -48 24 -82 35 -35 12 -64 25 -64 29 0 12 -61 53 -83 56 -29 3 -97 36
-97 47 0 4 -6 8 -14 8 -19 0 -81 64 -108 111 -12 21 -28 39 -35 39 -7 0 -13 4
-13 9 0 5 -9 13 -20 16 -11 3 -20 15 -20 25 0 10 -4 22 -10 25 -5 3 -10 19
-10 34 0 15 -9 36 -20 46 -13 12 -20 31 -20 56 0 21 -4 41 -10 44 -5 3 -10 19
-10 36 0 19 -9 37 -29 54 -15 14 -36 44 -46 66 -12 26 -24 39 -38 39 -18 0
-19 -4 -13 -47z m686 -783 c0 -5 7 -10 15 -10 8 0 15 -6 15 -12 0 -7 20 -22
45 -33 25 -11 45 -23 45 -27 0 -5 7 -8 15 -8 8 0 15 -4 15 -10 0 -15 33 -50
47 -50 7 0 13 -4 13 -10 0 -5 7 -10 15 -10 8 0 15 -5 15 -11 0 -13 25 -39 38
-39 5 0 17 -11 25 -23 8 -13 43 -51 76 -85 43 -42 66 -75 75 -104 7 -24 25
-56 40 -72 14 -16 29 -41 33 -55 3 -14 11 -33 19 -41 7 -8 16 -28 20 -43 3
-16 17 -33 29 -39 14 -6 25 -22 29 -42 3 -17 15 -48 26 -69 11 -20 20 -44 20
-52 0 -8 9 -15 20 -15 11 0 20 -4 20 -9 0 -15 84 -19 98 -4 7 7 22 13 33 13
11 0 19 7 19 16 0 8 4 13 9 9 6 -3 14 3 20 12 8 15 23 18 82 18 50 0 74 -4 77
-13 2 -7 17 -19 33 -27 16 -9 29 -22 29 -31 0 -8 6 -17 14 -20 12 -5 20 -20
41 -74 1 -3 4 -12 8 -20 6 -15 16 -111 18 -165 1 -16 -2 -56 -6 -87 -10 -73 2
-90 59 -87 80 5 116 0 116 -16 0 -8 7 -15 15 -15 8 0 15 -4 15 -10 0 -5 9 -10
20 -10 12 0 20 -7 20 -16 0 -20 24 -44 44 -44 9 0 16 -7 16 -15 0 -8 5 -15 10
-15 6 0 10 -7 10 -15 0 -8 5 -15 10 -15 6 0 10 -7 10 -15 0 -8 5 -15 10 -15 6
0 10 -32 10 -76 0 -70 -2 -79 -29 -110 -16 -18 -33 -39 -38 -46 -10 -17 -111
-58 -142 -58 -48 0 -233 211 -207 237 13 13 107 15 136 3 37 -15 47 -8 34 27
-7 21 -22 30 -84 49 -41 13 -87 24 -102 24 -31 0 -68 41 -68 76 0 13 -19 58
-42 100 -33 59 -55 85 -93 110 -27 19 -58 34 -67 34 -10 0 -18 6 -18 14 0 8
-13 19 -29 24 -32 11 -74 53 -77 78 -8 50 -70 87 -99 58 -7 -8 -20 -14 -28
-14 -16 0 -174 162 -219 225 -15 22 -36 50 -45 63 -9 13 -30 30 -46 38 -25 14
-31 14 -52 0 -13 -9 -26 -24 -30 -36 -6 -18 -1 -27 33 -65 6 -7 12 -16 12 -20
0 -12 29 -35 44 -35 9 0 16 -7 16 -15 0 -8 4 -15 8 -15 5 0 16 -18 26 -41 10
-22 28 -44 41 -49 13 -5 26 -14 30 -19 3 -6 15 -11 26 -11 10 0 18 -3 17 -7
-3 -12 23 -56 41 -70 12 -9 14 -16 5 -30 -8 -13 -26 -19 -67 -21 -45 -2 -59
-7 -68 -24 -16 -30 -3 -37 94 -50 64 -9 87 -16 87 -26 0 -9 7 -13 18 -10 16 5
18 -4 17 -113 0 -109 1 -119 23 -137 12 -11 22 -24 22 -31 0 -6 9 -11 20 -11
11 0 20 -5 20 -11 0 -17 40 -49 61 -49 11 0 21 -10 25 -25 3 -14 12 -25 20
-25 8 0 14 -9 14 -20 0 -10 7 -23 16 -28 10 -6 20 -31 25 -63 5 -30 13 -55 19
-57 5 -2 10 -10 10 -18 0 -8 7 -14 15 -14 8 0 15 -5 15 -12 0 -7 10 -3 21 9
20 20 21 25 10 69 -9 34 -9 50 -2 52 6 2 11 12 11 23 0 16 7 19 45 19 24 0 48
-6 52 -12 4 -7 17 -18 28 -24 11 -6 21 -21 23 -33 2 -11 8 -21 13 -21 5 0 19
-16 30 -35 12 -19 27 -35 34 -35 7 0 15 -4 17 -8 2 -4 18 -18 36 -31 17 -12
32 -28 32 -36 0 -7 6 -15 14 -18 7 -3 16 -17 20 -31 5 -19 -9 -55 -57 -150
-36 -68 -77 -136 -92 -150 -43 -40 -120 -34 -250 18 -51 20 -100 90 -121 171
-8 33 -20 78 -26 100 -17 66 -20 70 -71 66 -25 -1 -55 2 -66 8 -11 6 -33 12
-48 13 -15 1 -37 8 -48 15 -11 7 -30 13 -43 13 -25 0 -102 38 -102 51 0 4 -21
35 -46 69 -42 57 -44 64 -35 92 6 17 11 44 11 59 0 15 4 30 9 33 4 3 11 27 15
53 4 27 13 57 21 67 8 11 15 37 15 58 0 46 -25 75 -91 108 -49 24 -134 108
-145 143 -3 12 -14 30 -23 41 -9 10 -15 21 -15 25 1 3 -2 15 -6 26 -4 11 -13
45 -20 75 -7 30 -16 64 -20 75 -16 40 -22 83 -35 280 -15 226 -16 227 -37 275
-20 47 -38 123 -38 164 0 19 -4 36 -10 38 -5 2 -12 29 -16 61 l-7 57 62 0 c34
0 61 -4 61 -10z m20448 -22 c7 -7 12 -33 12 -59 0 -26 4 -50 9 -53 21 -13 -23
-403 -49 -426 -3 -3 -14 -23 -25 -45 -28 -55 -62 -103 -107 -148 -21 -21 -38
-46 -38 -57 0 -10 15 -41 33 -67 31 -46 32 -52 30 -138 -1 -85 -3 -94 -36
-145 -77 -120 -143 -158 -215 -126 -32 15 -41 15 -63 4 -31 -16 -59 -43 -59
-56 0 -5 -7 -15 -15 -22 -17 -14 -20 -46 -6 -52 11 -4 18 -115 8 -125 -4 -3
-7 -17 -7 -29 0 -13 -4 -26 -10 -29 -5 -3 -10 -20 -10 -36 0 -17 -7 -37 -15
-46 -9 -8 -19 -29 -22 -45 -3 -16 -16 -36 -29 -45 -13 -8 -26 -23 -29 -33 -8
-26 -101 -68 -170 -77 -78 -11 -189 7 -218 35 -12 11 -34 25 -49 31 -22 8 -28
17 -28 40 0 28 35 102 52 109 4 2 8 11 8 21 0 9 9 24 20 34 11 9 17 23 14 32
-4 10 6 34 25 60 17 24 31 48 31 54 0 6 7 11 15 11 9 0 20 11 25 25 11 30 40
33 40 5 0 -11 5 -20 11 -20 14 0 48 -41 49 -58 0 -7 7 -15 15 -18 9 -4 15 -19
15 -36 0 -19 4 -28 13 -26 7 3 16 38 23 84 6 43 14 90 18 103 8 24 60 81 74
81 4 0 16 13 27 29 10 17 29 34 40 39 17 8 23 26 34 101 13 85 15 91 37 91 13
0 24 5 24 10 0 6 9 10 20 10 22 0 60 33 60 51 0 8 -17 10 -54 6 -64 -6 -82 4
-88 51 -3 23 0 37 12 45 20 14 50 73 50 97 0 10 7 20 15 24 8 3 15 12 15 20 0
8 4 16 9 18 15 5 160 218 181 265 10 23 24 43 29 43 6 0 11 8 11 18 0 10 5 23
10 28 8 8 6 15 -5 24 -13 11 -19 9 -39 -11 -12 -13 -44 -44 -70 -68 -25 -24
-49 -54 -52 -67 -4 -13 -10 -24 -15 -24 -5 0 -9 -7 -9 -15 0 -8 -4 -15 -9 -15
-5 0 -28 -37 -51 -82 -23 -46 -50 -99 -61 -119 -10 -20 -32 -49 -48 -65 -16
-15 -28 -31 -25 -36 3 -4 -7 -13 -22 -18 -23 -9 -31 -7 -55 16 -15 15 -31 40
-34 56 -9 37 -30 46 -56 22 -18 -16 -20 -26 -14 -75 7 -63 -5 -90 -72 -153
-19 -18 -33 -41 -33 -54 0 -12 -5 -28 -11 -35 -6 -7 -23 -34 -39 -62 -27 -48
-31 -51 -107 -73 -127 -39 -163 -58 -163 -87 0 -24 2 -25 61 -25 47 0 65 4 78
18 29 33 160 68 147 40 -3 -7 -9 -21 -12 -30 -4 -10 -9 -18 -13 -18 -4 0 -15
-20 -26 -45 -11 -25 -25 -45 -30 -45 -6 0 -18 -17 -28 -37 -25 -52 -68 -125
-84 -141 -7 -7 -13 -22 -13 -33 0 -11 -11 -24 -26 -31 -14 -7 -32 -25 -40 -40
-11 -21 -22 -28 -47 -30 -53 -2 -70 2 -92 21 -11 10 -45 31 -75 48 -87 46
-101 56 -137 93 -52 52 -93 146 -93 210 0 57 66 198 97 206 11 3 23 13 26 23
4 18 114 61 154 61 18 0 59 16 103 39 10 6 15 25 16 58 1 28 3 54 6 59 2 5 5
38 7 72 2 51 9 73 33 108 16 24 34 44 39 44 5 0 9 7 9 15 0 8 5 15 10 15 6 0
10 9 10 20 0 11 7 23 15 26 8 4 15 12 15 20 0 8 19 18 45 25 25 6 48 15 51 20
3 5 16 9 29 9 13 0 27 5 30 10 3 6 24 10 45 10 21 0 42 -4 45 -10 3 -5 22 -10
41 -10 19 0 34 -4 34 -9 0 -5 9 -7 20 -4 11 3 20 12 20 19 0 8 6 14 13 14 14
0 37 53 37 86 0 10 18 38 40 62 22 24 40 49 40 57 0 8 4 15 9 15 5 0 11 8 13
18 3 12 22 23 52 32 25 7 46 17 46 21 0 5 7 9 16 9 8 0 12 4 9 10 -3 5 9 16
28 24 19 7 43 23 53 33 20 21 91 38 96 23 4 -12 78 12 78 26 0 6 27 19 60 28
36 10 60 23 60 31 0 23 77 34 98 13z m-1218 -1813 c7 -14 19 -25 25 -25 16 0
25 -69 25 -186 0 -54 4 -96 11 -99 12 -8 9 -54 -4 -72 -6 -8 -5 -18 2 -27 9
-10 11 -61 9 -170 l-3 -156 -62 -61 c-59 -59 -93 -110 -93 -142 0 -9 -4 -19
-10 -22 -5 -3 -10 -17 -10 -29 0 -13 -7 -29 -16 -37 -8 -7 -13 -21 -11 -31 3
-10 1 -21 -4 -24 -5 -3 -7 -9 -4 -14 10 -16 -18 -60 -52 -80 -36 -21 -52 -33
-89 -67 -14 -13 -38 -30 -54 -38 -62 -32 -120 -77 -120 -93 1 -21 23 -52 39
-52 6 0 11 -4 11 -10 0 -5 9 -10 20 -10 11 0 20 -7 20 -15 0 -12 8 -14 40 -9
27 4 40 3 40 -5 0 -6 7 -11 15 -11 8 0 15 -4 15 -9 0 -5 13 -11 29 -14 28 -6
41 -27 41 -69 0 -20 -72 -93 -113 -115 -53 -27 -147 -106 -147 -123 0 -32 32
-110 50 -123 10 -7 21 -24 25 -38 3 -14 17 -33 31 -43 13 -11 24 -23 24 -28 0
-5 11 -19 25 -32 14 -13 25 -31 25 -40 0 -24 18 -57 45 -81 12 -11 25 -32 29
-47 3 -16 13 -28 21 -28 7 0 17 -10 21 -22 4 -13 17 -34 30 -46 13 -13 28 -40
35 -60 6 -21 19 -43 28 -50 9 -7 16 -16 17 -20 0 -4 6 -20 13 -37 7 -16 15
-45 18 -63 3 -19 12 -36 19 -39 8 -3 14 -11 14 -19 0 -8 7 -14 15 -14 9 0 15
-9 16 -22 4 -148 11 -490 10 -512 0 -16 -5 -33 -11 -36 -16 -10 -31 -72 -39
-156 -6 -68 -27 -114 -53 -114 -9 0 -276 257 -332 320 -17 19 -79 82 -138 140
-113 112 -151 171 -164 260 -4 25 -10 50 -15 56 -5 6 -9 40 -8 75 2 162 -2
229 -14 230 -7 1 -75 3 -152 3 -146 2 -152 3 -249 59 -55 31 -69 76 -62 190 3
49 9 94 13 100 3 5 5 27 5 49 -1 21 3 38 8 38 6 0 10 6 10 13 0 7 9 29 20 50
11 20 20 44 20 52 0 9 9 35 20 57 23 47 26 101 8 116 -7 6 -40 15 -74 21 -64
12 -173 2 -244 -21 -60 -20 -238 -12 -306 12 -33 12 -72 25 -89 29 -44 12
-110 47 -149 81 -18 17 -49 37 -67 45 -29 14 -110 70 -131 93 -4 4 -29 30 -56
58 -27 28 -62 68 -78 90 -16 21 -31 41 -34 44 -5 5 -43 81 -45 90 0 3 -7 16
-14 30 -8 14 -16 34 -18 45 -8 52 -15 82 -25 102 -6 12 -9 61 -6 115 3 80 8
99 31 135 15 24 27 54 27 68 0 14 5 25 10 25 6 0 10 5 10 11 0 6 16 29 35 52
19 22 35 46 35 53 0 8 9 18 20 24 11 6 19 16 17 21 -1 6 12 16 30 23 18 6 47
23 64 39 17 15 37 27 45 27 8 0 19 9 26 20 7 11 19 20 26 20 7 0 20 6 28 14 8
8 39 18 69 21 30 4 55 12 55 17 0 6 37 9 88 8 48 -1 116 1 151 4 40 3 69 1 78
-5 7 -6 37 -11 68 -10 30 0 55 -4 55 -9 0 -6 9 -10 20 -10 11 0 20 -7 20 -15
0 -8 9 -15 20 -15 11 0 20 -6 20 -14 0 -8 9 -17 19 -21 11 -3 22 -12 24 -20 3
-7 21 -21 40 -30 34 -16 97 -101 97 -130 0 -8 5 -17 11 -21 8 -5 10 -35 7 -94
-6 -97 -29 -149 -95 -215 -38 -38 -60 -42 -123 -23 -44 14 -47 19 -25 38 8 7
15 21 15 32 0 11 5 28 11 39 27 50 -34 93 -148 104 -58 6 -75 4 -97 -10 -53
-35 -69 -98 -47 -186 11 -42 65 -119 84 -119 5 0 21 -9 36 -19 29 -21 35 -22
201 -22 63 0 106 4 108 11 2 5 10 10 18 10 8 0 14 5 14 11 0 5 15 16 33 24 39
16 62 41 71 77 3 15 17 38 29 50 34 34 46 60 37 78 -12 23 0 110 16 110 7 0
28 -10 46 -23 19 -12 58 -28 88 -36 30 -8 58 -18 61 -23 3 -5 25 -12 48 -15
22 -3 41 -10 41 -16 0 -6 20 -8 50 -5 28 3 50 1 50 -3 0 -15 58 -10 74 7 19
18 20 60 3 92 -7 12 -35 39 -63 60 -27 20 -75 64 -107 97 l-57 60 47 40 c25
22 58 42 72 45 14 3 30 15 36 28 5 12 13 22 17 22 5 0 8 6 8 13 0 8 11 20 25
27 16 8 27 25 31 47 3 18 10 33 15 33 15 0 10 67 -6 80 -19 16 -86 6 -101 -15
-6 -8 -16 -15 -23 -15 -6 0 -11 -4 -11 -9 0 -15 -202 -112 -255 -123 -27 -5
-99 -12 -159 -15 -122 -5 -164 3 -266 53 -36 17 -83 34 -105 38 -22 4 -58 14
-81 21 -109 36 -425 2 -483 -52 -12 -12 -35 -23 -51 -26 -15 -4 -48 -20 -71
-37 -24 -17 -55 -38 -69 -47 -23 -15 -126 -118 -160 -160 -38 -46 -68 -91 -84
-120 -9 -18 -21 -33 -27 -33 -16 0 -116 81 -129 104 -7 12 -30 36 -52 55 l-39
34 -22 -21 c-30 -29 -50 -122 -46 -214 l4 -73 -30 -3 c-22 -2 -40 6 -69 30
-51 43 -309 303 -461 463 -66 70 -137 145 -158 166 -24 25 -40 53 -44 74 l-6
35 47 0 c25 0 46 -4 46 -9 0 -4 30 -11 67 -15 37 -4 72 -11 79 -17 7 -5 35
-12 63 -16 33 -4 51 -10 51 -19 0 -8 7 -14 15 -14 9 0 29 -13 45 -30 16 -16
38 -30 49 -30 10 0 21 -7 25 -15 3 -8 17 -20 31 -25 14 -5 25 -14 25 -20 0 -5
16 -10 35 -10 30 0 35 3 35 23 0 26 48 77 72 77 9 0 18 5 20 11 5 15 227 20
285 7 23 -6 50 -18 60 -27 34 -32 84 -51 104 -40 10 5 19 14 19 19 0 6 7 10
15 10 8 0 15 4 15 9 0 5 21 12 46 16 26 4 54 11 63 16 16 9 164 49 276 75 82
20 335 46 364 39 13 -3 48 0 78 6 46 11 56 10 63 -1 8 -12 15 -12 45 -1 25 9
56 11 96 6 83 -10 426 -12 474 -4 22 4 44 3 50 -2 13 -13 72 -11 80 2 5 7 32
8 81 4 52 -5 74 -4 74 4 0 6 17 11 40 11 22 0 40 -4 40 -10 0 -5 20 -10 45
-10 26 0 45 -5 45 -11 0 -13 28 -9 124 17 53 15 70 16 73 7 5 -15 49 -18 57
-4 3 5 15 7 26 4 11 -3 20 0 20 6 0 6 15 11 33 11 26 0 37 -6 47 -25z m-6800
-19 c17 -1 62 1 100 5 39 4 92 4 120 0 27 -4 53 -4 57 0 5 5 51 5 103 0 52 -4
109 -4 125 -1 49 11 556 4 563 -7 4 -6 36 -13 72 -16 35 -3 66 -10 68 -16 2
-6 12 -11 23 -11 10 0 19 -4 19 -10 0 -5 14 -10 30 -10 17 0 30 -4 30 -10 0
-13 37 -50 49 -50 5 0 15 -13 22 -29 8 -17 26 -34 46 -42 18 -7 33 -16 33 -21
0 -19 58 -5 90 22 19 17 40 30 47 30 7 0 13 6 13 14 0 8 14 20 30 28 18 8 30
20 30 32 0 16 2 17 17 5 13 -11 17 -11 20 -1 3 7 25 12 59 12 31 0 65 6 77 12
25 14 247 20 247 6 0 -4 15 -8 34 -8 19 0 38 -4 41 -10 3 -6 17 -10 31 -10 13
0 24 -4 24 -10 0 -5 8 -10 17 -10 10 0 28 -12 40 -27 23 -26 24 -26 81 -14
123 27 195 51 212 72 3 4 21 9 40 12 119 17 226 39 237 49 9 7 42 8 100 3 71
-6 90 -11 104 -28 12 -15 14 -27 8 -39 -5 -9 -9 -25 -9 -34 0 -20 -38 -64 -55
-64 -6 0 -21 -12 -34 -26 -12 -14 -37 -32 -56 -39 -18 -8 -43 -30 -55 -50 -12
-19 -38 -48 -58 -63 -72 -53 -388 -384 -428 -447 -24 -38 -91 -102 -126 -121
-16 -8 -28 -18 -28 -22 0 -4 -16 -23 -35 -42 -19 -19 -35 -39 -35 -44 0 -13
-195 -200 -225 -216 -21 -11 -27 -11 -44 4 -20 19 -33 63 -20 71 4 3 5 20 2
39 -3 20 1 45 11 64 9 17 16 49 16 71 0 22 5 43 10 46 6 3 10 49 10 103 0 106
-17 160 -63 206 -21 21 -31 24 -68 19 -66 -9 -70 -15 -110 -176 -10 -43 -16
-89 -13 -102 7 -27 -36 -80 -44 -55 -3 8 -19 29 -36 48 -17 18 -38 46 -46 61
-54 99 -248 277 -322 295 -16 3 -28 10 -28 15 0 16 -69 51 -113 57 -23 4 -58
15 -78 25 -45 23 -319 54 -439 51 -52 -2 -285 21 -295 29 -12 9 -142 45 -234
65 -57 13 -66 13 -82 -2 -21 -19 -15 -44 11 -44 10 0 32 -11 49 -25 20 -17 47
-28 81 -32 28 -3 53 -10 56 -14 3 -5 14 -9 25 -9 11 0 22 -7 25 -15 4 -8 11
-15 18 -15 6 0 26 -13 45 -29 28 -23 33 -32 27 -54 -8 -33 -28 -44 -145 -78
-52 -15 -100 -34 -106 -41 -25 -26 -25 -52 -1 -81 19 -22 32 -27 70 -27 25 0
46 -4 46 -10 0 -5 15 -10 33 -10 73 0 88 -19 118 -152 7 -32 16 -58 21 -58 4
0 8 -22 8 -49 0 -29 6 -53 14 -60 8 -7 17 -23 20 -36 4 -14 12 -25 20 -25 7 0
18 -18 25 -40 12 -41 113 -150 139 -150 6 0 12 -4 12 -10 0 -5 11 -10 24 -10
14 0 28 -4 31 -10 3 -5 19 -10 36 -10 16 0 29 -4 29 -10 0 -14 67 -13 107 2
18 7 33 17 33 24 0 6 12 15 28 19 37 9 62 34 62 61 0 13 4 25 9 28 5 4 12 29
16 58 6 38 4 54 -6 63 -8 6 -19 19 -25 30 -7 12 -33 24 -73 34 -56 13 -65 13
-97 -2 -36 -18 -54 -49 -54 -97 0 -43 -37 -64 -97 -56 -45 6 -93 37 -93 60 0
5 -21 40 -46 77 -36 53 -47 81 -55 131 -9 63 -3 144 11 163 5 6 11 27 15 48 4
20 11 37 15 37 4 0 10 9 13 20 3 11 18 25 34 31 15 5 37 19 48 29 54 49 126
88 185 98 34 6 67 16 74 21 14 11 166 2 166 -10 0 -4 27 -11 59 -15 37 -4 62
-12 65 -20 3 -8 17 -14 31 -14 14 0 25 -4 25 -10 0 -5 8 -10 18 -10 9 0 23 -9
29 -19 7 -11 26 -22 43 -26 16 -4 30 -11 30 -16 0 -5 9 -9 20 -9 11 0 20 -5
20 -11 0 -11 24 -39 34 -39 3 0 19 -13 34 -30 16 -16 36 -30 45 -30 9 0 19
-11 23 -25 3 -14 12 -25 20 -25 8 0 14 -7 14 -15 0 -8 3 -15 8 -15 7 0 32 -48
32 -63 0 -4 11 -23 24 -40 32 -44 41 -93 38 -227 -2 -121 0 -116 -70 -241 -40
-72 -152 -194 -227 -247 -37 -26 -69 -38 -145 -52 -53 -11 -109 -24 -125 -30
-16 -6 -71 -12 -124 -14 -76 -2 -104 1 -136 15 -22 10 -48 19 -57 19 -26 0
-23 -36 3 -43 12 -3 18 -10 15 -15 -3 -5 4 -19 16 -32 17 -18 24 -43 30 -109
13 -129 13 -131 -11 -208 -11 -40 -21 -81 -21 -92 0 -11 -11 -33 -25 -49 -14
-17 -25 -35 -25 -41 0 -6 -26 -28 -57 -48 -49 -31 -68 -37 -130 -41 -41 -3
-108 1 -150 8 -75 13 -76 13 -95 -10 -13 -16 -17 -32 -13 -50 7 -33 -20 -152
-46 -201 -10 -20 -19 -46 -19 -57 0 -40 -277 -382 -310 -382 -10 0 -150 -137
-150 -146 0 -5 -14 -18 -31 -28 -17 -10 -54 -39 -82 -63 -29 -25 -64 -56 -79
-69 -15 -13 -38 -26 -51 -30 l-25 -6 -7 229 c-7 255 -8 340 -3 493 6 156 6
160 24 160 18 0 44 -24 44 -41 0 -18 86 -96 114 -103 19 -5 28 -1 35 12 11 20
-12 62 -70 129 -35 41 -29 63 24 87 45 21 66 42 67 66 0 8 9 26 20 40 11 14
20 33 20 43 0 9 5 17 10 17 16 0 12 172 -5 221 -16 44 -60 99 -80 99 -5 0 -34
16 -62 35 -29 19 -57 35 -62 35 -6 0 -26 20 -45 45 -36 48 -58 126 -37 133 6
2 11 10 11 18 0 8 10 14 23 14 13 0 32 7 43 15 26 19 74 20 74 0 0 -8 5 -15
10 -15 6 0 10 -6 10 -12 1 -22 68 -50 91 -38 23 13 24 26 5 37 -24 14 -76 85
-76 105 0 10 10 22 23 27 28 11 37 22 72 85 21 38 26 56 21 85 -4 20 -6 68 -6
107 1 42 -3 75 -9 79 -6 3 -23 30 -38 58 -25 49 -104 137 -124 137 -5 0 -9 9
-9 20 0 13 7 20 20 20 13 0 20 7 20 18 0 10 13 33 30 52 16 19 29 43 30 53 0
18 -25 24 -35 7 -11 -17 -112 -80 -129 -80 -35 0 -43 55 -51 320 -2 80 -10
199 -18 265 -8 66 -13 123 -11 126 2 4 6 47 9 95 2 49 7 106 11 126 l6 37 109
-6 c74 -4 127 -2 164 7 45 11 57 11 70 0 12 -10 21 -10 38 -2 31 16 73 20 140
15 32 -3 71 -6 87 -7z m-1436 -7 c66 -8 104 -8 131 0 22 6 42 7 45 2 6 -9 338
-14 353 -4 6 4 47 6 90 5 94 -1 106 -11 108 -87 0 -27 3 -113 6 -190 2 -77 5
-185 7 -240 1 -55 6 -175 11 -266 7 -155 7 -166 -10 -173 -13 -5 -28 2 -50 24
-17 16 -36 30 -41 30 -6 0 -21 12 -35 26 -19 20 -78 54 -94 54 -2 0 2 -13 8
-30 6 -16 15 -30 19 -30 4 0 8 -7 8 -15 0 -8 9 -15 20 -15 11 0 20 -3 20 -7 0
-5 11 -21 25 -37 35 -41 31 -61 -21 -109 -68 -61 -89 -118 -97 -254 -4 -71 -3
-113 3 -113 6 0 10 -12 10 -28 0 -16 12 -40 29 -59 59 -65 58 -150 -4 -208
-41 -39 -48 -59 -26 -79 15 -14 21 -14 56 4 22 11 53 38 68 60 21 30 35 40 56
40 42 0 62 -21 72 -76 21 -110 -11 -156 -112 -156 -49 0 -65 -5 -99 -29 -22
-16 -40 -35 -40 -42 0 -7 -9 -29 -20 -50 -29 -54 -29 -200 1 -257 12 -22 25
-40 29 -40 5 0 16 -27 26 -59 17 -62 27 -71 86 -71 15 0 30 -5 33 -10 8 -13
-13 -80 -25 -80 -18 0 -40 -33 -40 -60 0 -16 -4 -32 -10 -35 -5 -3 -10 -13
-10 -21 0 -24 91 -19 119 7 12 12 24 19 26 17 7 -6 24 -294 26 -425 1 -68 5
-123 8 -123 8 0 6 -145 -3 -202 -5 -29 -4 -60 4 -83 10 -30 9 -40 -5 -61 -13
-21 -22 -25 -43 -19 -15 3 -34 14 -42 24 -8 10 -27 26 -42 36 -16 9 -28 22
-28 27 0 6 -22 34 -49 64 -27 29 -55 67 -63 84 -7 16 -19 30 -25 30 -7 0 -13
8 -13 18 0 10 -7 28 -16 40 -9 13 -14 26 -11 29 3 3 -3 20 -14 39 -22 40 -24
67 -9 189 16 141 16 147 0 155 -61 31 -172 50 -290 50 -64 0 -212 28 -272 51
-40 16 -98 77 -98 103 0 13 -7 37 -16 55 -19 39 -24 145 -6 163 6 6 12 18 12
26 0 14 29 83 39 92 12 10 31 50 31 64 0 7 9 16 20 19 13 3 20 14 20 29 0 13
5 29 10 34 12 12 0 54 -21 71 -8 6 -53 13 -100 15 -59 3 -95 10 -113 21 -16
11 -46 17 -80 17 -31 0 -77 8 -103 19 -26 10 -68 22 -93 26 -24 4 -56 16 -70
26 -14 10 -41 21 -60 24 -24 4 -50 21 -82 53 -26 26 -66 61 -89 77 -115 83
-212 202 -278 342 -27 56 -30 73 -32 173 -1 61 1 113 4 116 3 3 3 12 0 20 -3
8 1 24 9 37 8 12 18 40 21 62 8 45 44 139 70 178 9 15 17 29 17 32 0 7 25 35
95 104 94 93 117 112 147 118 15 3 33 12 39 19 6 8 24 14 38 14 15 0 36 8 47
19 11 10 36 23 55 29 42 14 297 8 312 -7 6 -6 30 -11 54 -11 24 0 43 -4 43 -8
0 -13 47 -32 80 -32 16 0 32 -4 35 -10 3 -5 15 -10 26 -10 11 0 31 -12 44 -26
15 -16 31 -24 40 -20 8 3 15 1 15 -4 0 -6 9 -10 20 -10 11 0 20 -7 20 -15 0
-8 5 -15 10 -15 6 0 10 -7 10 -15 0 -8 7 -15 15 -15 8 0 15 -9 15 -20 0 -13 7
-20 20 -20 11 0 20 -6 20 -13 0 -6 11 -33 25 -59 34 -64 44 -237 16 -290 -63
-121 -85 -141 -183 -162 -46 -9 -102 -22 -125 -27 -33 -7 -53 -5 -95 9 -29 11
-70 25 -92 32 -47 15 -96 57 -96 81 0 19 20 27 128 50 60 12 68 24 82 119 9
63 1 82 -62 143 l-40 39 -71 -7 c-83 -9 -108 -24 -151 -93 -28 -44 -30 -54
-32 -160 -3 -95 0 -119 17 -155 37 -78 51 -99 70 -104 11 -3 19 -12 19 -19 0
-8 5 -14 10 -14 6 0 10 -7 10 -15 0 -8 9 -15 20 -15 11 0 20 -6 20 -14 0 -9
25 -20 73 -31 39 -9 82 -21 93 -27 25 -12 141 -1 150 13 3 5 23 9 44 9 21 0
41 4 44 9 3 4 26 14 51 21 28 8 62 28 87 52 22 21 44 38 49 38 5 0 9 3 9 8 0
4 14 22 30 40 17 18 30 39 30 45 0 7 7 26 16 42 13 23 17 63 18 180 l1 150
-47 83 c-57 98 -59 112 -18 112 17 0 30 5 30 10 0 6 32 10 75 10 58 0 77 3 81
15 12 29 -38 143 -77 180 -27 25 -36 40 -32 55 3 11 9 20 14 20 5 0 9 7 9 15
0 8 5 15 10 15 6 0 10 7 10 15 0 16 10 31 43 64 28 28 33 91 11 119 -27 32
-94 35 -127 4 -13 -12 -26 -22 -30 -22 -4 0 -37 -19 -75 -42 -113 -71 -152
-88 -244 -103 -15 -2 -35 -8 -45 -13 -10 -6 -49 -13 -88 -17 -38 -4 -87 -14
-107 -21 -20 -7 -74 -18 -120 -25 -46 -6 -87 -15 -92 -20 -6 -5 -32 -9 -58 -9
-27 0 -65 -7 -84 -15 -19 -8 -38 -14 -42 -13 -22 4 -82 -17 -117 -42 -22 -16
-60 -39 -85 -51 -73 -37 -194 -171 -247 -276 -12 -23 -27 -50 -32 -60 -24 -42
-49 -111 -56 -150 -4 -24 -10 -45 -15 -48 -4 -3 -6 -13 -4 -23 2 -9 -3 -26
-11 -37 -30 -38 -61 -4 -140 149 -58 113 -82 149 -133 198 -34 33 -67 58 -74
56 -42 -14 -76 -165 -64 -279 4 -31 4 -63 0 -72 -11 -29 -50 -20 -73 16 -11
18 -35 43 -53 57 -51 38 -215 199 -240 237 -13 18 -33 36 -45 39 -13 4 -23 10
-23 16 0 5 -67 76 -149 158 -82 82 -152 158 -155 168 -4 11 -15 23 -26 28 -11
5 -40 34 -65 64 -65 80 -72 150 -16 158 14 2 21 9 17 17 -4 10 9 12 57 8 34
-3 64 -10 65 -14 2 -5 17 -9 32 -9 16 0 32 -4 35 -10 3 -5 17 -10 31 -10 13 0
24 -4 24 -10 0 -5 7 -10 15 -10 8 0 15 -4 15 -10 0 -5 16 -10 35 -10 23 0 41
-7 52 -20 10 -11 30 -20 46 -20 15 0 30 -7 33 -15 4 -8 12 -15 20 -15 8 0 14
-4 14 -10 0 -5 11 -10 25 -10 14 0 25 -3 25 -7 0 -11 50 -33 72 -33 10 0 18 5
18 10 0 6 7 10 15 10 8 0 15 7 15 15 0 8 5 15 10 15 6 0 10 7 10 15 0 8 5 15
11 15 15 0 39 26 39 44 0 8 14 23 30 33 17 9 30 21 30 25 0 4 7 8 15 8 8 0 15
6 15 14 0 11 10 14 39 10 22 -2 42 0 46 6 8 13 132 13 140 0 3 -5 12 -7 19 -4
8 3 17 1 21 -5 3 -6 15 -11 26 -11 10 0 19 -6 19 -14 0 -9 16 -17 41 -21 23
-4 45 -15 52 -26 6 -10 20 -19 29 -19 10 0 18 -4 18 -10 0 -12 37 -14 42 -2 4
9 113 62 129 62 27 0 79 25 79 38 0 9 7 11 20 7 14 -5 20 -2 20 9 0 12 10 16
39 16 22 0 41 3 43 8 4 9 94 43 133 49 17 2 39 8 50 13 21 9 58 18 112 27 18
3 37 11 43 19 9 10 55 12 228 8 126 -3 230 -1 247 5 40 13 43 13 149 0z
m-6798 -22 c4 -4 30 -4 57 -1 33 5 51 3 56 -5 6 -9 15 -9 35 -1 35 13 76 13
76 0 0 -14 56 -13 96 2 26 9 38 9 56 0 17 -9 33 -10 58 -2 23 7 36 7 38 0 2
-5 21 -10 43 -10 30 0 39 -4 40 -17 3 -61 -4 -239 -9 -248 -8 -11 -11 -255 -4
-269 9 -16 8 -101 -1 -140 -5 -26 -5 -42 2 -49 12 -12 15 -67 4 -67 -5 0 -8
-29 -8 -64 0 -36 -4 -68 -8 -72 -9 -9 -47 9 -112 55 -59 41 -79 60 -88 84 -8
22 -53 22 -65 0 -7 -12 -3 -25 17 -50 14 -18 32 -33 39 -33 6 0 12 -6 12 -12
0 -7 16 -31 35 -52 34 -39 43 -56 27 -56 -7 0 -13 -12 -55 -115 -36 -88 -43
-203 -17 -262 11 -25 20 -51 20 -59 0 -7 8 -19 18 -26 9 -7 23 -26 31 -41 9
-16 20 -26 28 -23 25 10 13 -36 -19 -77 -59 -74 -69 -105 -42 -128 12 -10 19
-10 32 -1 10 6 35 21 57 33 22 12 45 28 51 36 5 8 21 13 35 11 23 -3 24 -5 24
-95 0 -50 3 -95 8 -99 4 -4 7 -20 7 -35 0 -21 -8 -30 -37 -44 -21 -10 -41 -19
-45 -22 -4 -2 -26 16 -50 40 -57 58 -93 80 -116 72 -25 -7 -19 -39 14 -75 89
-100 87 -91 42 -187 -30 -62 -33 -76 -31 -153 2 -91 21 -165 55 -211 l20 -27
-33 -57 c-54 -91 -61 -105 -55 -121 3 -8 15 -14 28 -14 26 0 88 40 88 57 0 7
12 16 26 19 36 9 68 -24 66 -68 -2 -61 -12 -392 -14 -463 -1 -38 -1 -106 1
-150 1 -44 -1 -117 -5 -162 -7 -82 -7 -83 -34 -83 -16 0 -49 15 -76 35 -27 19
-73 51 -102 71 -29 19 -78 66 -110 105 -31 38 -60 69 -64 69 -9 0 -37 52 -50
94 -13 41 -30 183 -33 277 -1 42 -5 88 -8 102 -8 29 -45 46 -107 48 -203 5
-435 104 -501 213 -13 21 -32 46 -41 56 -9 10 -14 21 -10 25 3 3 5 21 4 39 -2
29 1 35 23 40 26 7 125 98 125 116 0 5 5 10 10 10 6 0 10 11 10 24 0 14 4 27
9 30 5 3 11 23 13 43 3 21 8 46 12 55 6 12 0 25 -19 42 -24 22 -36 25 -94 25
-36 0 -77 4 -91 10 -14 6 -67 17 -119 26 -52 9 -110 24 -130 35 -20 11 -54 24
-77 30 -23 5 -61 26 -85 45 -24 19 -53 35 -63 35 -29 0 -121 76 -164 134 -20
28 -51 63 -69 79 -17 15 -37 45 -44 65 -6 20 -15 42 -18 47 -8 11 -42 101 -59
156 -7 19 -12 58 -12 87 0 28 -4 53 -9 56 -16 10 -19 55 -4 68 8 6 13 23 11
37 -2 26 25 91 62 146 11 17 23 38 26 48 4 9 10 17 15 17 5 0 9 9 9 20 0 11 5
20 11 20 15 0 79 65 79 79 0 6 11 13 25 17 14 3 25 11 25 16 0 15 27 38 44 38
9 0 16 5 16 10 0 6 5 10 10 10 6 0 20 9 32 20 12 11 31 20 43 20 12 0 39 15
61 33 23 19 61 38 94 46 56 14 250 23 250 12 0 -4 30 -12 68 -19 37 -7 69 -17
70 -22 2 -6 12 -10 23 -10 10 0 19 -4 19 -10 0 -5 9 -10 20 -10 11 0 20 -4 20
-10 0 -5 9 -10 20 -10 11 0 20 -6 20 -14 0 -8 10 -18 22 -22 29 -9 46 -26 53
-56 3 -13 18 -32 34 -42 33 -22 49 -55 57 -119 4 -26 10 -47 15 -47 15 0 -3
-104 -22 -132 -10 -15 -19 -31 -19 -36 0 -5 -17 -29 -38 -53 -20 -24 -50 -63
-66 -87 -37 -54 -49 -60 -133 -68 -63 -6 -72 -4 -128 26 -95 50 -101 75 -17
65 79 -9 138 15 145 59 3 17 10 49 17 72 19 65 1 110 -62 162 -63 51 -81 56
-152 48 -62 -8 -116 -43 -141 -91 -8 -16 -25 -43 -38 -58 -18 -24 -22 -40 -21
-99 2 -79 19 -144 46 -171 10 -10 18 -21 18 -25 0 -4 17 -16 38 -26 20 -10 45
-22 54 -27 10 -5 29 -9 43 -9 14 0 25 -4 25 -9 0 -12 179 -24 193 -13 7 6 36
13 65 17 28 4 52 11 52 16 0 5 6 9 13 9 16 0 117 109 117 127 0 7 5 13 12 13
6 0 8 3 5 6 -4 4 7 24 23 44 28 35 30 44 30 123 0 47 4 88 8 91 11 6 -11 134
-28 166 -7 14 -26 41 -42 60 -15 19 -28 40 -28 46 0 6 -9 19 -20 29 -24 22
-24 74 0 85 72 34 89 44 84 51 -2 4 11 15 30 24 49 23 51 39 10 79 -35 34
-158 101 -181 99 -7 0 -13 10 -13 23 0 13 5 24 10 24 6 0 10 6 10 14 0 8 10
27 23 43 28 35 44 69 51 110 5 28 1 36 -22 50 -15 10 -30 22 -34 28 -4 6 -18
0 -35 -16 -42 -38 -100 -79 -112 -79 -6 0 -18 -11 -27 -25 -9 -14 -25 -25 -35
-25 -22 0 -269 -118 -269 -128 0 -4 -15 -13 -32 -21 -18 -8 -53 -29 -77 -48
-24 -18 -50 -33 -58 -33 -7 0 -37 -12 -66 -26 -50 -26 -64 -36 -157 -114 -23
-19 -53 -40 -66 -45 -13 -6 -38 -25 -55 -43 -17 -18 -37 -32 -44 -32 -15 0
-89 -76 -139 -142 -20 -25 -41 -48 -48 -50 -7 -3 -18 -26 -23 -53 -15 -66 -36
-78 -75 -40 -16 16 -30 36 -30 45 0 49 -204 310 -242 310 -22 0 -48 -27 -48
-49 0 -10 4 -41 9 -68 6 -27 13 -83 16 -124 4 -47 11 -78 20 -85 15 -12 20
-50 9 -78 -15 -40 -53 -12 -180 133 -22 24 -52 55 -68 70 -119 108 -258 260
-316 345 -8 12 -33 40 -55 62 -54 54 -77 82 -108 127 -14 21 -37 47 -52 58
-14 11 -36 40 -50 63 -14 24 -34 51 -45 61 -11 10 -20 27 -20 37 0 18 5 19 57
12 33 -4 65 -14 77 -25 11 -11 30 -19 43 -19 14 0 23 -6 23 -15 0 -8 9 -15 20
-15 11 0 20 -7 20 -15 0 -8 9 -15 20 -15 11 0 20 -4 20 -10 0 -5 8 -10 18 -10
9 0 29 -11 44 -25 15 -14 34 -25 41 -25 8 0 31 -19 51 -42 20 -24 43 -51 51
-60 8 -10 15 -23 15 -28 0 -5 7 -10 15 -10 8 0 15 -5 15 -11 0 -28 30 -41 80
-34 28 4 50 10 50 15 0 4 14 10 30 14 17 3 30 12 30 20 0 9 14 18 34 22 19 3
37 12 40 20 3 8 12 14 20 14 8 0 19 8 25 18 8 14 22 17 79 15 124 -3 204 -37
215 -91 3 -16 14 -32 24 -36 10 -3 33 -15 52 -26 45 -28 102 -24 116 8 5 12
18 22 27 22 13 0 18 8 18 25 0 14 5 25 10 25 6 0 10 7 10 15 0 8 7 15 15 15 8
0 15 6 15 14 0 17 51 56 73 56 9 0 18 9 22 20 4 12 22 24 46 31 21 7 39 18 39
26 0 7 7 13 16 13 17 0 44 23 44 39 0 13 37 24 51 15 6 -3 14 -3 18 2 17 25
129 66 193 71 37 3 68 10 68 14 0 11 84 12 94 2 8 -8 124 -16 206 -15 122 2
251 11 265 19 19 11 200 11 211 0z m1884 -6 c0 -10 9 -12 38 -6 20 4 39 11 40
16 8 20 172 3 172 -17 0 -8 7 -14 15 -14 8 0 15 -4 15 -10 0 -5 18 -10 40 -10
22 0 40 -4 40 -10 0 -5 6 -10 13 -10 6 0 22 -15 34 -34 12 -19 36 -40 52 -47
17 -8 31 -17 31 -21 0 -5 4 -8 8 -8 5 0 28 -18 51 -41 24 -22 49 -38 55 -36 7
3 17 -3 23 -12 6 -10 27 -25 46 -35 35 -16 36 -16 63 9 15 14 31 25 35 25 5 0
9 5 9 10 0 18 56 64 93 76 9 4 17 13 17 20 0 8 9 14 20 14 11 0 20 4 20 9 0 5
60 8 133 6 133 -2 187 -14 187 -42 0 -7 7 -13 16 -13 9 0 25 -10 35 -21 16
-19 26 -21 71 -16 28 4 56 11 62 17 5 5 21 10 34 10 13 0 36 12 51 29 20 22
39 30 84 35 31 4 60 12 63 18 4 6 23 7 48 4 23 -4 73 -1 111 5 130 21 145 22
145 9 0 -7 6 -10 14 -7 8 3 20 -1 26 -9 7 -8 21 -14 31 -14 12 0 21 -10 25
-25 4 -16 13 -25 25 -25 14 0 19 -7 19 -25 0 -14 -5 -25 -11 -25 -12 0 -79
-68 -79 -81 0 -4 -9 -10 -19 -14 -11 -3 -27 -18 -37 -33 -27 -41 -220 -242
-300 -312 -16 -14 -42 -43 -59 -65 -16 -21 -64 -73 -105 -116 -41 -42 -98
-100 -126 -130 -28 -30 -90 -91 -137 -137 -48 -45 -87 -86 -87 -90 0 -4 -20
-23 -45 -42 -24 -19 -44 -38 -45 -42 0 -13 -103 -108 -117 -108 -15 0 -18 46
-3 55 6 3 10 17 10 31 0 13 4 24 9 24 5 0 11 8 15 18 5 17 26 52 36 62 11 10
30 62 30 80 0 11 4 20 8 20 8 0 52 97 52 114 0 4 8 15 19 24 29 27 49 108 49
208 1 83 -2 96 -26 133 -16 25 -40 46 -64 56 -36 14 -41 13 -96 -11 -64 -27
-105 -69 -162 -166 -19 -32 -38 -58 -42 -58 -5 0 -8 -7 -8 -15 0 -16 -36 -21
-42 -6 -17 44 -181 210 -242 244 -21 12 -57 33 -81 47 -24 14 -58 33 -76 44
-51 29 -155 56 -248 65 -86 9 -287 -7 -381 -30 -81 -20 -180 -8 -335 39 -27 8
-64 16 -82 18 -18 1 -64 18 -103 38 -61 30 -75 34 -96 24 -38 -17 -51 -75 -28
-123 10 -21 28 -49 41 -63 13 -14 23 -29 23 -33 0 -5 9 -9 20 -9 11 0 20 -7
20 -15 0 -8 9 -15 20 -15 11 0 20 -4 20 -10 0 -5 9 -10 20 -10 11 0 20 -4 20
-8 0 -5 29 -8 64 -8 35 1 67 -2 71 -5 3 -4 -21 -32 -53 -63 -32 -31 -67 -71
-77 -89 -17 -33 -17 -35 0 -75 20 -45 52 -62 114 -62 37 1 71 19 71 39 0 17
50 14 51 -4 1 -8 3 -30 5 -47 4 -31 9 -94 12 -145 1 -13 9 -23 17 -23 8 0 15
-6 15 -13 0 -16 67 -77 85 -77 7 0 20 -11 29 -25 9 -14 23 -25 31 -25 8 0 15
-4 15 -10 0 -5 7 -10 15 -10 8 0 15 -4 15 -10 0 -5 16 -10 35 -10 24 0 35 -5
35 -15 0 -8 5 -15 12 -15 6 0 32 -10 56 -22 36 -17 48 -19 63 -10 10 7 41 12
69 12 27 0 50 4 50 9 0 4 20 14 45 21 25 7 45 18 45 24 0 7 16 18 35 26 22 8
35 20 35 31 0 18 7 38 38 108 18 43 10 170 -13 187 -8 6 -15 21 -15 33 0 11
-6 21 -13 21 -7 0 -18 5 -25 12 -18 18 -130 19 -148 1 -31 -31 -64 -81 -64
-96 0 -24 68 -144 86 -151 8 -3 13 -10 9 -15 -3 -5 5 -11 17 -13 15 -2 24 -11
26 -25 2 -13 -1 -23 -6 -23 -5 0 -12 -9 -15 -19 -5 -22 -104 -55 -155 -52 -57
4 -160 38 -184 61 -13 12 -40 31 -61 41 -47 25 -63 40 -109 111 -29 44 -38 67
-39 105 -1 67 17 155 36 165 8 5 15 14 15 21 0 7 9 18 20 25 11 7 20 19 20 27
0 23 30 65 46 65 8 0 14 5 14 11 0 16 26 39 44 39 9 0 16 6 16 14 0 11 13 14
48 14 62 0 113 11 135 30 14 12 42 15 129 15 73 0 114 -5 116 -12 2 -6 15 -11
28 -11 13 0 24 -4 24 -10 0 -5 16 -10 35 -10 19 0 35 -4 35 -10 0 -5 14 -10
30 -10 18 0 30 -5 30 -13 0 -12 64 -47 87 -47 14 0 63 -46 63 -60 0 -5 7 -10
15 -10 8 0 15 -7 15 -15 0 -8 7 -15 15 -15 8 0 15 -7 15 -15 0 -8 5 -15 11
-15 15 0 59 -51 59 -68 0 -7 6 -15 14 -18 8 -3 20 -20 26 -37 22 -60 44 -275
30 -292 -4 -5 -11 -48 -15 -95 -6 -66 -14 -97 -36 -137 -16 -29 -29 -58 -29
-65 0 -7 -16 -35 -35 -62 -19 -27 -35 -55 -35 -62 0 -7 -10 -24 -22 -36 -45
-47 -90 -103 -98 -125 -5 -11 -21 -29 -36 -40 -14 -10 -36 -28 -48 -39 -26
-27 -135 -78 -196 -92 -128 -31 -328 -32 -395 -2 -31 14 -127 40 -146 40 -9 0
-27 -8 -39 -18 -27 -22 -21 -53 13 -71 12 -7 28 -25 36 -42 7 -16 20 -29 29
-29 20 0 52 -67 52 -109 0 -15 7 -42 16 -60 23 -46 7 -210 -25 -249 -11 -15
-27 -42 -35 -59 -8 -18 -22 -33 -30 -33 -9 0 -16 -4 -16 -10 0 -5 -15 -10 -33
-10 -18 0 -60 -7 -92 -16 -34 -9 -81 -14 -109 -11 -42 4 -53 1 -72 -18 -13
-13 -26 -40 -30 -61 -3 -22 -13 -64 -20 -94 -8 -30 -14 -64 -14 -75 0 -12 -14
-43 -31 -70 -17 -27 -33 -65 -36 -84 -3 -20 -11 -43 -18 -51 -7 -8 -23 -40
-36 -70 -12 -30 -28 -62 -35 -70 -6 -8 -19 -31 -28 -50 -35 -76 -125 -189
-193 -241 -29 -23 -53 -45 -53 -50 0 -5 -15 -9 -33 -9 -31 0 -35 4 -44 38 -14
53 -7 480 11 687 11 126 17 155 31 155 15 0 65 -60 65 -78 0 -7 6 -12 14 -12
7 0 28 -3 45 -6 29 -6 31 -4 31 21 0 28 -28 85 -42 85 -19 0 -7 70 17 96 14
15 25 35 25 45 0 11 4 19 9 19 5 0 12 13 16 30 4 16 11 30 16 30 5 0 9 11 9
24 0 14 5 28 11 32 7 4 9 21 5 43 -3 20 -8 72 -10 116 -2 46 -8 81 -15 83 -6
2 -11 10 -11 17 0 8 -6 20 -13 27 -7 7 -24 51 -37 97 l-24 84 22 18 c22 17 29
44 14 52 -4 3 -34 -6 -67 -19 -89 -37 -126 -18 -106 52 5 17 7 44 5 60 -8 54
-5 109 5 112 6 2 11 10 11 18 0 8 9 14 20 14 26 0 90 -41 90 -57 0 -7 3 -13 8
-13 4 0 22 -14 41 -30 18 -17 43 -30 53 -30 17 0 19 5 14 28 -4 15 -16 40 -27
55 -24 33 -37 97 -20 97 6 0 11 10 11 23 0 13 12 34 26 48 22 20 25 30 20 62
-4 21 -2 57 5 79 7 29 7 44 0 51 -6 6 -11 31 -11 54 0 32 -6 50 -22 67 -13 12
-32 39 -43 60 -11 21 -28 41 -37 44 -14 3 -18 15 -18 49 0 37 5 48 30 70 17
13 30 31 30 39 0 8 4 14 8 14 14 0 52 40 52 54 0 24 -30 27 -99 10 -49 -12
-72 -24 -89 -45 -14 -18 -33 -29 -48 -29 -24 0 -24 1 -26 113 -1 61 -2 262 -3
445 0 289 2 333 15 336 8 2 46 10 83 17 56 11 72 11 89 0 14 -9 23 -10 27 -2
8 13 231 10 231 -3 0 -4 12 -5 28 -2 15 4 43 11 62 15 19 4 191 7 382 7 287
-1 348 -3 348 -15z m9565 -131 c3 -5 12 -7 20 -4 9 4 16 -3 21 -20 3 -14 12
-26 19 -26 7 0 18 -14 24 -31 6 -18 27 -47 46 -66 19 -19 35 -40 35 -48 0 -8
5 -15 10 -15 14 0 57 -40 44 -41 -5 0 1 -4 14 -9 15 -6 22 -18 22 -35 0 -14 5
-25 10 -25 6 0 10 -6 10 -14 0 -8 9 -18 20 -21 11 -3 20 -10 20 -14 0 -7 11
-22 50 -68 5 -7 10 -19 10 -28 0 -8 5 -15 10 -15 6 0 10 -7 10 -15 0 -8 9 -20
20 -27 11 -7 20 -21 20 -30 0 -10 4 -18 9 -18 5 0 13 -15 16 -32 4 -18 16 -60
27 -93 11 -34 18 -82 17 -110 -5 -96 -1 -115 27 -127 18 -8 27 -9 32 -1 4 6
27 14 52 18 25 4 50 11 56 16 6 5 22 9 35 8 90 -2 119 -5 119 -10 0 -3 37 -9
82 -12 89 -7 98 -13 133 -82 11 -22 22 -42 26 -45 16 -14 49 -143 49 -192 0
-77 -20 -168 -42 -190 -10 -10 -18 -25 -18 -33 0 -8 -4 -15 -8 -15 -9 0 -19
-17 -52 -93 -16 -37 -18 -52 -10 -68 10 -18 17 -20 61 -14 31 4 55 3 62 -4 8
-6 71 -14 141 -19 85 -6 130 -13 136 -21 4 -8 16 -11 28 -7 11 4 23 2 27 -4 3
-5 15 -10 25 -10 11 0 35 -9 55 -20 20 -11 47 -20 60 -20 14 0 25 -4 25 -10 0
-5 8 -10 17 -10 27 0 83 -23 83 -35 0 -16 38 -45 60 -45 11 0 20 -7 20 -15 0
-9 16 -31 35 -51 23 -23 37 -48 41 -74 4 -22 10 -40 15 -40 5 0 9 -7 9 -15 0
-8 4 -15 9 -15 36 0 50 -409 15 -444 -8 -8 -14 -22 -14 -30 0 -27 -53 -92
-103 -127 -26 -19 -66 -47 -89 -64 -75 -53 -236 -85 -330 -65 -29 7 -72 14
-95 17 -34 4 -52 16 -100 61 -78 76 -92 99 -112 184 -12 55 -6 102 20 140 11
14 19 33 19 42 0 9 6 16 14 16 7 0 27 7 42 15 16 8 42 15 58 15 17 0 57 6 90
12 47 10 60 10 64 0 2 -6 10 -12 18 -12 8 0 14 -4 14 -8 0 -5 17 -6 38 -3 37
6 37 7 40 58 3 45 -1 56 -27 85 l-29 33 -139 0 c-142 0 -149 -1 -247 -50 -47
-23 -78 -71 -134 -206 -12 -30 -33 -34 -197 -43 -46 -2 -81 -8 -83 -15 -2 -6
-10 -11 -17 -11 -8 0 -17 -9 -20 -21 -8 -26 3 -129 14 -129 13 0 51 -36 51
-49 0 -6 7 -11 15 -11 8 0 15 -4 15 -10 0 -5 9 -10 20 -10 14 0 20 -7 20 -22
0 -24 -23 -49 -80 -88 -74 -51 -203 -171 -205 -190 0 -3 -17 -30 -36 -60 -43
-65 -53 -93 -45 -126 6 -22 11 -24 66 -24 33 0 60 4 60 10 0 6 7 10 15 10 8 0
15 5 15 10 0 6 9 10 21 10 24 0 105 36 114 50 3 5 17 10 30 10 13 0 27 5 30
10 11 18 70 37 136 45 35 4 67 12 71 18 3 6 42 11 85 12 43 2 103 7 133 12 30
6 104 10 165 9 92 -2 112 1 126 15 14 14 29 17 72 12 35 -4 57 -2 61 6 4 6 19
11 34 11 33 0 122 31 122 42 0 4 16 8 35 8 19 0 35 5 35 10 0 6 9 10 20 10 11
0 20 5 20 10 0 6 7 10 15 10 8 0 15 4 15 9 0 5 16 19 35 32 19 13 35 28 35 32
0 5 14 22 30 39 17 16 30 36 30 44 0 8 4 14 10 14 15 0 31 37 41 100 5 32 18
78 29 102 11 23 20 53 20 66 0 48 44 8 55 -51 4 -21 13 -41 20 -44 7 -2 16
-15 19 -27 3 -12 16 -34 30 -49 13 -14 27 -40 31 -57 4 -16 13 -30 21 -30 7 0
16 -11 20 -25 3 -14 12 -25 20 -25 8 0 14 -7 14 -15 0 -9 6 -18 14 -21 8 -3
17 -16 20 -29 6 -25 52 -41 93 -33 21 4 23 48 3 113 -6 22 -14 51 -17 65 -6
30 -50 148 -64 173 -5 9 -12 38 -16 62 -3 25 -12 50 -19 56 -8 6 -14 18 -14
25 0 8 -4 14 -10 14 -5 0 -10 5 -10 11 0 5 -12 26 -27 45 -16 18 -27 37 -27
41 2 10 -33 60 -68 97 -16 16 -28 33 -28 38 0 16 44 -3 65 -28 11 -13 26 -24
33 -24 7 0 12 -7 12 -15 0 -8 9 -15 20 -15 11 0 20 -7 20 -15 0 -8 7 -15 15
-15 8 0 15 -5 15 -11 0 -14 25 -39 39 -39 6 0 11 -6 11 -14 0 -8 7 -16 15 -20
8 -3 15 -12 15 -20 0 -8 16 -20 35 -27 19 -7 35 -19 35 -26 0 -7 5 -13 10 -13
6 0 10 -7 10 -15 0 -8 7 -15 15 -15 9 0 18 -12 22 -30 3 -16 12 -30 20 -30 7
0 16 -7 19 -15 4 -8 14 -15 24 -15 10 0 20 -9 23 -20 3 -11 17 -24 31 -30 14
-5 26 -14 26 -20 0 -5 6 -10 14 -10 8 0 20 -13 28 -30 7 -16 18 -30 25 -30 7
0 18 -9 25 -20 7 -11 18 -20 25 -20 7 0 13 -4 13 -10 0 -5 5 -10 11 -10 15 0
49 -39 49 -57 0 -7 6 -13 13 -13 8 0 20 -11 27 -25 7 -14 22 -25 32 -25 10 0
18 -6 18 -12 1 -7 15 -22 33 -33 18 -11 41 -39 52 -62 11 -24 26 -43 33 -43 6
0 12 -4 12 -10 0 -5 9 -10 20 -10 11 0 20 -7 20 -15 0 -8 5 -15 10 -15 6 0 10
-4 10 -10 0 -15 33 -50 47 -50 7 0 13 -7 13 -15 0 -8 7 -15 15 -15 8 0 15 -4
15 -10 0 -5 7 -10 15 -10 8 0 15 -7 15 -15 0 -8 5 -15 10 -15 6 0 10 -7 10
-15 0 -8 4 -15 8 -15 14 0 52 -36 52 -49 0 -6 6 -11 13 -11 8 0 19 -10 26 -23
7 -12 25 -28 41 -35 28 -13 44 -37 35 -52 -8 -13 -68 -4 -137 20 -119 42 -193
72 -218 90 -25 17 -46 24 -125 39 -22 4 -54 15 -71 24 -45 23 -82 10 -110 -39
-13 -21 -23 -47 -24 -56 0 -9 -18 -38 -40 -65 -103 -122 -121 -132 -260 -132
-80 0 -88 2 -135 32 -27 19 -58 36 -67 40 -9 3 -24 21 -34 39 -9 18 -39 53
-66 77 -32 28 -61 68 -85 115 -40 80 -46 86 -89 86 -22 0 -43 -12 -79 -45 -27
-25 -70 -54 -95 -66 -25 -12 -64 -34 -88 -50 -23 -16 -66 -36 -95 -45 -93 -28
-137 -46 -151 -60 -18 -17 -156 -64 -191 -64 -14 0 -38 -6 -53 -14 -24 -12
-68 -20 -177 -33 -170 -19 -1042 -26 -1108 -8 -24 6 -27 11 -21 29 4 11 8 125
9 251 2 246 19 465 38 477 7 4 19 8 28 8 19 0 79 -72 79 -94 0 -9 5 -16 11
-16 15 0 37 -25 49 -54 9 -26 24 -31 54 -20 21 8 22 112 1 180 -8 27 -15 59
-15 72 0 21 3 30 27 78 15 28 27 149 17 166 -5 7 -9 18 -10 23 -7 42 -27 97
-44 118 -11 14 -20 30 -20 35 0 6 -5 12 -11 14 -14 5 -14 43 1 95 25 85 -11
96 -82 26 -26 -26 -48 -55 -48 -64 0 -24 -34 -33 -61 -17 -21 13 -21 17 -15
138 3 69 10 139 14 155 4 17 6 67 3 113 l-6 82 33 0 c17 0 35 1 39 1 4 1 14
-13 23 -30 8 -17 19 -31 23 -31 4 0 25 -18 47 -40 38 -38 70 -52 70 -29 0 6
-16 38 -35 70 -49 84 -47 118 11 145 19 9 34 22 34 29 0 7 7 15 15 19 8 3 15
11 15 18 0 7 9 30 20 51 27 50 26 124 -2 185 -30 65 -69 123 -95 145 -27 22
-28 41 -6 115 9 32 16 64 14 72 -3 17 -31 50 -42 50 -16 0 -69 -53 -69 -69 0
-9 -17 -34 -38 -54 l-37 -37 -15 23 c-12 18 -15 81 -16 364 -1 189 -4 349 -7
358 -4 8 -2 17 3 20 5 3 5 18 2 33 -6 23 -7 122 -3 214 2 40 40 73 56 48z
m-159 -157 c-3 -38 -5 -90 -4 -118 2 -27 2 -78 1 -112 -1 -38 2 -63 9 -63 6 0
8 -16 4 -42 -18 -132 -26 -251 -17 -262 11 -13 17 -173 7 -183 -3 -3 -6 -27
-6 -53 0 -26 -3 -49 -6 -53 -10 -9 -34 4 -34 19 0 8 -5 14 -11 14 -6 0 -9 7
-5 15 7 19 -59 65 -93 65 -23 0 -24 -2 -18 -57 3 -32 11 -59 17 -61 5 -2 10
-17 10 -33 0 -17 6 -32 15 -35 8 -4 15 -17 15 -30 0 -15 6 -24 15 -24 18 0 21
-51 4 -82 -6 -11 -11 -67 -11 -126 1 -95 -1 -107 -19 -120 -11 -8 -24 -24 -30
-36 -5 -11 -13 -28 -18 -36 -23 -39 -33 -70 -28 -84 4 -9 2 -27 -2 -39 -5 -13
-6 -30 -1 -37 11 -17 76 22 83 50 3 11 12 20 21 20 9 0 16 7 16 15 0 8 6 15
14 15 8 0 17 11 20 25 4 16 13 25 25 25 28 0 34 -39 35 -252 2 -181 1 -187
-19 -190 -11 -2 -34 9 -53 24 -56 47 -86 33 -49 -23 28 -43 50 -106 42 -119
-3 -6 -21 -17 -38 -26 -45 -23 -96 -73 -112 -110 -20 -49 -29 -165 -14 -212
13 -45 83 -132 105 -132 10 0 14 -14 14 -45 0 -25 -4 -45 -8 -45 -13 0 -50
-55 -58 -84 -6 -24 -4 -27 17 -22 13 3 49 7 80 10 l56 6 12 -128 c6 -70 12
-154 13 -187 1 -67 -22 -337 -29 -345 -10 -11 -193 -15 -588 -15 -373 1 -414
2 -450 19 -22 10 -49 19 -60 22 -64 13 -81 17 -90 24 -5 4 -24 11 -41 14 -17
4 -46 18 -65 32 -18 13 -38 24 -44 24 -6 0 -32 18 -59 40 -26 22 -52 40 -57
40 -5 0 -30 21 -57 48 -26 26 -67 60 -91 76 -23 17 -51 40 -61 54 -25 31 -41
22 -120 -68 -144 -162 -261 -208 -480 -191 -121 9 -148 21 -230 99 -30 28 -58
52 -62 52 -4 0 -8 22 -8 49 0 28 -5 53 -10 56 -6 4 -8 10 -5 15 3 5 -5 12 -19
16 -34 8 -79 -18 -113 -66 -18 -26 -49 -51 -91 -72 -35 -18 -66 -36 -68 -40
-3 -4 -14 -8 -26 -8 -11 0 -32 -8 -46 -19 -37 -25 -108 -57 -162 -71 -25 -7
-50 -16 -56 -21 -15 -12 -132 -39 -171 -39 -22 0 -33 5 -33 14 0 17 27 46 42
46 13 0 58 51 58 66 0 7 11 19 25 28 14 9 25 21 25 27 0 11 24 39 34 39 3 0
32 27 66 60 34 33 63 60 66 60 7 0 74 66 74 73 0 4 14 19 30 34 17 16 36 33
43 40 6 6 28 30 47 52 19 22 40 41 47 41 18 0 59 42 67 68 4 12 15 22 25 22
19 0 121 77 121 92 0 4 8 16 18 27 103 109 135 141 143 141 5 0 9 5 9 11 0 14
26 39 40 39 6 0 8 5 5 11 -4 6 2 13 14 16 12 3 21 9 21 14 0 19 2 25 14 39 7
8 16 23 19 33 4 9 12 17 19 17 7 0 24 14 37 30 13 17 32 30 43 30 17 0 19 -4
13 -27 -4 -16 -8 -49 -8 -75 -1 -27 -4 -48 -8 -48 -9 0 -35 -91 -49 -171 -10
-56 -9 -79 5 -141 14 -66 22 -80 61 -116 31 -30 52 -42 74 -42 16 0 30 -5 30
-11 0 -23 63 1 96 36 48 51 55 90 45 233 -6 67 -12 126 -15 130 -3 5 -6 28 -7
51 -2 23 -7 45 -11 47 -20 13 -8 129 32 314 6 30 14 65 16 78 5 24 44 32 44 8
0 -8 5 -16 12 -18 8 -3 9 -12 1 -34 -15 -42 0 -342 18 -375 8 -13 17 -26 20
-29 3 -3 9 -18 13 -33 13 -53 41 -107 58 -113 17 -5 22 -14 33 -71 4 -18 11
-33 16 -33 12 0 49 -37 49 -50 0 -5 7 -10 15 -10 8 0 15 -4 15 -10 0 -5 7 -10
15 -10 8 0 15 -7 15 -15 0 -8 5 -15 10 -15 6 0 10 -7 10 -15 0 -9 9 -15 23
-15 13 0 36 -14 52 -30 16 -16 35 -30 42 -30 7 0 13 -4 13 -10 0 -5 7 -10 15
-10 8 0 15 -4 15 -10 0 -5 9 -10 20 -10 11 0 23 -7 26 -15 4 -8 14 -15 24 -15
10 0 23 -7 30 -15 7 -8 19 -15 27 -15 7 0 44 -10 81 -22 37 -12 74 -21 84 -20
9 2 19 -2 23 -8 3 -5 23 -10 43 -10 21 0 48 -9 62 -20 14 -11 40 -20 58 -20
17 0 32 -4 32 -10 0 -5 18 -10 40 -10 22 0 40 -4 40 -10 0 -5 18 -10 40 -10
22 0 40 -4 40 -10 0 -5 16 -10 35 -10 19 0 35 -4 35 -10 0 -5 7 -10 15 -10 8
0 15 -4 15 -10 0 -5 14 -10 30 -10 17 0 30 -4 30 -10 0 -5 7 -10 15 -10 8 0
15 -4 15 -10 0 -5 16 -10 35 -10 19 0 35 -4 35 -10 0 -12 40 -13 58 -1 26 16
4 79 -40 114 -96 76 -128 110 -128 133 0 18 5 24 23 24 13 0 37 14 54 31 46
44 55 121 21 187 -28 56 -89 92 -155 92 -23 0 -44 4 -47 8 -2 4 -10 54 -16
112 -6 57 -18 113 -26 124 -8 11 -14 28 -14 36 0 43 -158 150 -222 150 -50 0
-134 -35 -172 -71 -27 -26 -29 -30 -17 -52 12 -23 113 -77 142 -77 7 0 40 -5
74 -11 61 -10 63 -11 75 -51 14 -48 -1 -117 -33 -152 -10 -11 -29 -37 -40 -56
-16 -25 -44 -46 -97 -73 -72 -36 -78 -37 -160 -34 -72 4 -98 10 -160 39 -41
19 -91 41 -110 49 -38 14 -127 83 -173 131 -35 38 -77 120 -77 151 0 13 -3 27
-7 31 -12 12 -32 99 -33 142 0 22 -4 44 -8 50 -5 5 -5 60 -1 123 6 87 12 117
23 123 9 5 16 15 16 21 0 7 14 21 30 30 17 10 30 25 30 33 0 8 7 14 15 14 8 0
15 5 15 10 0 6 7 10 15 10 8 0 15 4 15 9 0 12 50 37 90 46 16 4 30 13 30 20 0
14 22 25 51 25 10 0 19 5 19 10 0 6 13 10 29 10 17 0 32 4 36 9 11 18 93 23
190 10 92 -11 99 -11 112 6 23 33 15 90 -23 164 -31 57 -36 79 -35 126 0 31 5
65 11 75 5 10 10 29 10 42 0 27 21 78 33 78 4 0 7 11 7 25 0 16 6 25 15 25 8
0 15 6 15 14 0 8 22 21 53 31 35 11 56 24 62 38 7 15 21 23 45 25 19 2 39 8
45 13 13 13 55 11 55 -2 0 -7 18 -8 56 -3 39 4 58 3 64 -5 11 -20 59 -2 73 28
10 21 10 37 -1 86 -10 43 -10 65 -3 83 6 12 11 38 11 57 0 19 5 35 10 35 6 0
10 9 10 20 0 11 5 20 10 20 6 0 10 9 10 20 0 11 4 20 9 20 5 0 13 12 19 28 5
15 24 44 41 66 17 21 31 44 31 50 0 13 36 46 50 46 6 0 10 7 10 15 0 18 96
112 122 121 10 3 18 11 18 17 0 7 18 28 40 47 22 19 40 40 40 45 0 6 14 19 30
28 17 10 30 25 30 32 0 8 11 17 25 21 14 3 25 12 25 20 0 18 29 33 64 34 l28
0 -6 -67z m-14061 -7 c25 -24 45 -47 45 -50 0 -4 15 -23 32 -42 18 -20 38 -55
45 -78 7 -23 22 -51 33 -61 11 -10 20 -26 20 -37 0 -10 5 -18 10 -18 6 0 10
-15 10 -32 1 -18 7 -51 15 -73 8 -22 15 -53 15 -69 0 -15 7 -54 15 -85 8 -31
13 -65 11 -76 -2 -11 -7 -55 -11 -98 -5 -51 -14 -86 -26 -101 -10 -13 -16 -32
-13 -43 7 -27 52 -33 142 -20 46 7 67 7 70 -1 2 -6 17 -8 35 -5 26 4 41 -2 79
-31 26 -20 54 -36 62 -36 9 0 16 -6 16 -14 0 -7 9 -16 20 -19 12 -3 20 -14 20
-25 0 -12 5 -24 10 -27 6 -3 10 -16 10 -29 0 -12 3 -26 7 -30 4 -4 15 -32 25
-64 21 -68 24 -155 4 -174 -7 -8 -15 -37 -18 -65 -3 -35 -14 -63 -31 -87 -21
-27 -25 -41 -21 -66 7 -30 8 -31 48 -25 22 4 46 11 52 16 35 28 231 69 256 53
7 -4 30 -7 51 -5 21 1 44 -2 51 -8 7 -6 35 -14 62 -17 27 -4 56 -12 64 -20 8
-7 27 -16 43 -19 15 -4 30 -11 33 -16 3 -5 18 -9 33 -9 15 0 38 -9 51 -20 13
-11 29 -20 37 -20 7 0 13 -4 13 -9 0 -5 16 -12 35 -15 22 -4 35 -13 35 -22 0
-18 53 -74 69 -74 6 0 11 -7 11 -15 0 -8 7 -15 15 -15 8 0 15 -7 15 -15 0 -8
5 -15 10 -15 6 0 10 -7 10 -15 0 -8 4 -15 9 -15 5 0 12 -12 16 -27 3 -15 16
-36 28 -48 12 -11 28 -32 36 -48 8 -15 20 -27 28 -27 8 0 13 -11 13 -27 0 -16
9 -41 20 -58 11 -16 20 -37 20 -46 0 -9 6 -22 14 -28 8 -7 18 -37 22 -67 3
-30 9 -56 13 -58 3 -2 6 -46 6 -98 -1 -70 -5 -99 -17 -118 -10 -14 -33 -65
-53 -114 -53 -131 -94 -187 -178 -243 -40 -26 -74 -50 -77 -53 -3 -3 -39 -20
-80 -38 -107 -44 -229 -56 -319 -29 -36 11 -81 22 -99 24 -18 3 -37 14 -43 24
-5 11 -24 25 -42 33 -47 21 -106 83 -162 172 l-50 79 3 129 c2 81 8 141 17
162 7 18 17 54 20 79 4 25 11 45 16 45 5 0 9 7 9 15 0 9 7 18 15 21 8 4 15 12
15 18 0 14 82 41 153 52 43 6 67 1 105 -22 2 -1 7 -19 12 -39 6 -27 5 -38 -5
-42 -20 -7 -43 -78 -50 -155 -8 -79 -1 -108 25 -108 10 0 25 -6 32 -12 26 -24
55 -36 102 -43 36 -6 52 -3 73 11 50 32 68 54 86 107 28 79 31 111 12 169 -44
136 -109 196 -258 242 -44 14 -82 17 -161 14 l-102 -3 -87 -59 c-48 -33 -87
-64 -87 -70 0 -5 -12 -22 -26 -37 -28 -29 -37 -43 -81 -128 -35 -69 -84 -121
-112 -121 -24 0 -77 -24 -103 -48 -20 -16 -24 -57 -8 -67 6 -3 10 -17 10 -31
0 -14 9 -35 21 -47 11 -12 29 -39 40 -59 11 -21 24 -38 29 -38 6 0 10 -9 10
-20 0 -11 5 -20 10 -20 25 0 7 -49 -32 -85 -61 -59 -74 -84 -70 -144 3 -39 8
-51 20 -51 10 0 26 -7 36 -15 31 -24 116 -16 116 10 0 9 18 13 58 14 31 0 82
1 112 2 72 3 260 -12 260 -20 0 -4 92 -8 205 -9 194 -2 207 -1 227 18 12 11
31 20 43 20 11 0 36 9 56 19 20 11 54 24 75 30 23 6 61 31 92 61 30 27 58 50
63 50 5 0 9 7 9 15 0 7 7 18 15 22 14 8 85 139 85 157 0 5 6 17 14 25 7 9 26
55 41 103 25 83 51 128 73 128 5 0 13 -28 17 -62 4 -35 10 -65 14 -68 3 -3 19
-24 35 -47 16 -24 33 -43 37 -43 5 0 9 -6 9 -14 0 -8 20 -35 45 -62 25 -26 45
-50 45 -54 0 -8 59 -20 98 -20 12 0 22 6 22 13 0 7 9 18 21 25 17 11 20 22 19
70 -2 51 3 89 16 130 5 16 44 -2 44 -21 0 -7 10 -17 23 -22 12 -6 23 -20 25
-33 2 -12 9 -22 15 -22 7 0 19 -15 27 -33 9 -18 29 -38 46 -46 18 -8 41 -31
54 -52 12 -22 25 -39 29 -39 11 0 71 -58 71 -68 0 -5 16 -25 35 -46 19 -21 35
-42 35 -47 0 -5 5 -9 10 -9 11 0 50 -36 50 -46 0 -8 63 -64 72 -64 5 0 8 -7 8
-15 0 -8 6 -15 14 -15 8 0 20 -14 28 -30 7 -17 19 -30 25 -30 18 0 16 -15 -2
-30 -32 -27 -77 -14 -205 61 -29 16 -80 65 -80 76 -2 19 -88 102 -113 109 -28
6 -29 6 -26 -29 2 -23 -3 -42 -13 -54 -9 -10 -29 -48 -45 -83 -38 -88 -51
-105 -96 -120 -55 -18 -264 -1 -304 25 -20 13 -21 20 -16 88 5 67 4 75 -19
101 -24 29 -24 29 -60 12 -20 -10 -70 -53 -112 -97 -42 -43 -81 -79 -87 -79
-6 0 -22 -13 -37 -29 -15 -15 -51 -36 -80 -47 -34 -12 -62 -30 -77 -50 l-24
-31 -173 -8 c-95 -4 -202 -7 -238 -6 -36 0 -141 0 -235 -1 -93 0 -188 0 -210
1 -77 5 -192 6 -415 2 -185 -3 -239 -1 -303 13 -140 30 -134 21 -137 208 -2
125 3 158 24 158 22 0 62 71 86 150 13 45 35 91 54 115 31 38 33 44 34 130 0
50 -4 105 -10 123 -9 29 -7 38 16 73 20 29 26 52 27 92 0 95 10 157 25 157 8
0 14 4 14 10 0 5 11 33 24 62 13 29 29 68 37 86 8 17 17 32 21 32 5 0 8 9 8
20 0 11 5 20 10 20 12 0 13 87 1 94 -20 12 -153 10 -161 -3 -4 -7 -28 -16 -54
-18 -25 -3 -46 -10 -46 -14 0 -5 -18 -9 -40 -9 -30 0 -40 4 -40 16 0 28 23 98
37 115 7 8 13 21 13 27 0 7 5 12 10 12 6 0 10 13 10 29 0 21 8 34 29 48 30 19
31 20 31 53 0 11 7 20 15 20 8 0 15 5 15 10 0 6 6 10 14 10 8 0 21 8 28 18 7
10 27 27 43 38 17 10 37 26 45 35 14 15 69 35 115 41 22 3 33 41 17 61 -5 7
-12 24 -16 40 -3 15 -13 27 -20 27 -8 0 -17 14 -21 30 -4 17 -13 30 -21 30 -7
0 -16 11 -20 24 -3 13 -15 26 -26 29 -11 3 -22 15 -25 26 -3 12 -10 21 -16 21
-5 0 -23 14 -39 30 -15 17 -33 30 -38 30 -6 0 -10 4 -10 9 0 5 -16 12 -36 15
-19 4 -43 16 -52 27 -9 10 -26 19 -37 19 -58 1 -66 51 -54 340 6 129 11 242
11 250 1 8 -3 92 -7 186 -8 169 -8 170 16 207 32 49 57 48 114 -7z m6921 -49
c11 -12 27 -33 34 -47 16 -31 35 -50 49 -50 6 0 11 -4 11 -10 0 -5 5 -10 11
-10 6 0 20 -11 31 -25 11 -14 26 -25 34 -25 8 0 14 -7 14 -15 0 -8 6 -15 14
-15 7 0 16 -13 20 -30 3 -19 12 -30 23 -30 20 0 83 -58 83 -78 0 -19 61 -92
76 -92 8 0 16 -11 20 -25 3 -14 9 -25 13 -25 16 0 32 -94 37 -209 2 -69 7
-134 10 -143 8 -27 69 -24 88 3 13 19 23 22 88 20 40 -1 75 -6 76 -11 2 -6 19
-10 38 -10 19 0 34 -4 34 -9 0 -5 17 -15 38 -22 37 -12 72 -40 72 -57 0 -5 7
-15 15 -22 8 -7 15 -22 15 -34 0 -12 4 -26 8 -31 5 -6 15 -36 21 -69 15 -67 7
-265 -13 -306 -14 -32 -9 -68 12 -79 9 -5 47 -6 85 -2 74 8 226 -5 242 -20 5
-5 19 -9 31 -9 13 0 29 -7 38 -15 8 -8 21 -15 29 -15 9 0 17 -4 19 -8 3 -6 48
-30 146 -75 12 -6 22 -14 22 -19 0 -13 34 -48 47 -48 7 0 13 -3 13 -8 0 -4 12
-22 28 -39 61 -70 82 -98 82 -110 0 -7 8 -13 19 -13 15 0 20 -10 26 -47 4 -27
11 -52 15 -58 13 -16 28 -199 20 -249 -4 -26 -12 -52 -18 -58 -7 -7 -12 -20
-12 -30 0 -47 -99 -177 -147 -192 -10 -3 -34 -19 -53 -36 -19 -16 -40 -30 -45
-30 -6 0 -26 -11 -46 -24 -47 -32 -130 -48 -259 -51 -160 -4 -295 31 -352 91
-34 35 -74 118 -88 180 -13 58 6 256 26 267 8 4 14 15 14 22 0 8 3 15 8 15 4
0 23 14 42 30 19 16 41 30 48 30 6 0 12 5 12 10 0 6 33 10 80 10 l80 0 0 -74
c0 -41 5 -78 10 -81 6 -3 10 -17 10 -30 0 -13 4 -26 9 -29 5 -3 12 -21 15 -39
8 -44 76 -83 125 -72 50 11 64 55 45 142 -8 37 -17 82 -21 98 -3 17 -15 47
-26 68 -18 33 -35 47 -97 86 -29 18 -106 36 -150 35 -41 0 -76 -5 -150 -20
-32 -7 -159 -139 -166 -173 -3 -14 -8 -33 -11 -41 -18 -44 -8 -218 16 -290 33
-102 34 -102 20 -111 -8 -4 -53 -8 -101 -8 -122 0 -177 -31 -133 -75 8 -8 15
-18 15 -21 0 -10 43 -44 56 -45 7 0 14 -7 18 -15 3 -8 12 -15 21 -15 8 0 15
-4 15 -10 0 -5 8 -10 18 -10 9 0 23 -13 30 -29 11 -25 10 -35 -3 -67 -9 -21
-22 -45 -30 -54 -7 -8 -21 -48 -31 -88 -14 -60 -15 -76 -4 -96 11 -21 18 -24
49 -19 51 8 131 44 131 60 0 7 9 13 20 13 28 0 261 60 290 75 14 7 52 19 85
26 33 7 65 16 70 20 6 4 36 10 68 14 31 4 57 11 57 16 0 5 13 9 29 9 16 0 48
7 71 15 23 8 55 15 71 15 16 0 29 5 29 10 0 6 7 10 15 10 8 0 15 6 15 14 0 7
20 19 45 26 25 7 55 22 67 34 13 12 45 35 72 50 50 29 77 49 105 78 9 9 29 22
45 27 15 6 30 20 33 31 3 11 11 20 18 20 7 0 25 15 39 33 14 17 33 39 41 48 8
9 15 23 15 31 0 14 27 28 58 28 16 0 15 -30 -3 -54 -24 -32 -19 -119 8 -153
13 -15 33 -44 45 -63 38 -65 57 -80 95 -80 70 0 97 25 97 91 0 15 7 29 15 33
9 3 15 19 15 41 0 41 5 43 34 12 12 -13 30 -26 40 -30 10 -4 20 -16 23 -27 3
-11 10 -20 16 -20 5 0 34 -25 62 -55 29 -30 60 -55 69 -55 9 0 16 -7 16 -14 0
-18 43 -66 59 -66 6 0 11 -7 11 -16 0 -22 29 -43 58 -44 12 0 22 -5 22 -10 0
-6 14 -24 30 -42 17 -17 41 -44 53 -60 12 -15 30 -28 40 -28 9 0 17 -6 17 -14
0 -15 94 -106 110 -106 5 0 10 -5 10 -10 0 -14 31 -45 53 -53 18 -7 24 -37 7
-37 -5 0 -10 -7 -10 -15 0 -17 -31 -20 -58 -5 -21 11 -166 60 -180 60 -21 0
-133 83 -162 120 -17 21 -45 46 -61 54 -28 14 -34 14 -60 0 -16 -8 -35 -29
-43 -48 -18 -43 -61 -73 -127 -87 -69 -15 -102 -15 -164 0 -56 13 -122 69
-165 139 -26 42 -89 82 -129 82 -25 0 -101 -48 -101 -64 0 -14 -37 -49 -68
-65 -13 -7 -35 -22 -48 -34 -23 -20 -172 -106 -219 -126 -11 -5 -63 -21 -115
-37 -52 -15 -102 -31 -110 -36 -30 -16 -167 -33 -228 -28 -34 3 -192 4 -350 3
-567 -3 -757 -1 -774 8 -37 20 -52 69 -52 175 0 66 4 107 12 117 13 15 6 73
-10 83 -5 3 -4 12 4 21 16 20 14 163 -3 173 -13 9 -4 97 13 118 6 6 24 12 40
12 34 0 113 -73 124 -115 7 -27 65 -62 85 -50 27 17 2 100 -64 217 -28 49 -34
78 -17 78 6 0 10 11 10 24 0 14 5 28 10 31 6 3 10 24 10 46 0 21 5 47 11 57 9
14 7 33 -6 82 -10 36 -18 82 -19 102 -1 20 -11 50 -23 66 -26 36 -19 82 15 97
12 5 22 15 22 22 0 7 11 15 25 19 28 7 35 43 12 63 -18 14 -90 -12 -132 -48
-41 -36 -86 -58 -107 -54 -17 4 -42 68 -33 83 2 4 5 82 5 173 1 92 5 169 8
171 16 9 62 -7 62 -22 0 -34 24 -82 42 -82 10 0 18 -4 18 -9 0 -5 14 -17 32
-25 28 -14 34 -15 46 -2 13 13 13 19 -1 48 -9 18 -32 49 -51 67 -20 19 -36 40
-36 47 0 7 -5 14 -11 16 -8 3 -10 16 -5 41 6 30 11 37 30 37 62 0 83 11 94 48
19 66 22 101 12 180 -10 78 -17 102 -51 179 -30 68 -23 127 18 137 16 5 23 13
21 24 -1 9 7 31 20 49 28 40 28 57 -1 70 -26 12 -78 -4 -93 -29 -5 -7 -26 -28
-47 -46 -30 -26 -43 -31 -65 -25 -47 11 -68 53 -41 80 17 17 33 550 17 571 -7
8 -7 16 1 25 6 8 8 16 6 19 -3 3 -8 35 -10 72 -4 63 -3 66 18 66 12 0 31 -10
43 -23z m-145 -59 c1 -54 -3 -435 -7 -568 -2 -80 -4 -148 -4 -152 0 -4 -16
-12 -36 -17 -32 -9 -40 -7 -70 17 -19 15 -34 35 -34 45 0 9 -11 27 -25 39 -14
12 -25 28 -25 35 0 19 -25 26 -48 14 -15 -8 -19 -17 -14 -33 9 -31 44 -88 54
-88 4 0 8 -25 8 -55 0 -43 -6 -64 -26 -95 -25 -37 -27 -50 -32 -178 -4 -119
-2 -139 12 -151 9 -7 16 -24 16 -36 0 -14 7 -25 19 -28 25 -6 40 -89 21 -112
-7 -9 -10 -18 -7 -22 4 -3 2 -12 -4 -19 -17 -21 -25 -144 -9 -144 6 0 47 36
90 81 59 61 84 80 100 77 22 -3 23 -6 21 -118 -2 -160 -11 -280 -23 -312 -12
-33 -53 -61 -77 -53 -10 3 -44 32 -75 65 -53 57 -87 73 -102 49 -10 -16 17
-59 37 -59 10 0 23 -13 30 -29 7 -17 21 -32 31 -34 23 -6 24 -63 4 -132 -8
-26 -15 -51 -14 -54 0 -3 0 -10 -2 -16 -11 -58 12 -245 30 -245 5 0 11 -14 15
-30 4 -17 12 -30 20 -30 23 0 28 -50 7 -74 -11 -11 -23 -31 -27 -44 -3 -12
-31 -49 -61 -81 -30 -32 -54 -63 -54 -69 0 -17 42 -42 70 -42 20 0 43 18 91
70 72 78 99 88 99 38 1 -18 3 -89 5 -157 2 -69 0 -193 -4 -278 -8 -144 -10
-154 -32 -172 -48 -40 -206 -52 -474 -37 -120 7 -136 8 -165 6 -71 -4 -140 1
-140 10 0 6 -12 10 -26 10 -80 0 -338 81 -407 127 -27 18 -53 33 -58 33 -4 0
-25 11 -45 25 -20 14 -45 25 -55 25 -10 0 -23 9 -29 20 -6 11 -28 29 -49 40
-21 10 -41 26 -45 35 -4 12 -16 15 -47 13 -38 -3 -43 -6 -58 -44 -9 -23 -25
-52 -36 -65 -64 -76 -179 -139 -280 -154 -51 -8 -165 20 -165 41 0 5 -30 37
-66 70 -37 32 -74 68 -83 79 -9 10 -33 37 -54 58 -32 34 -41 39 -68 33 -29 -5
-99 -49 -143 -88 -11 -10 -24 -18 -30 -18 -5 0 -21 -11 -35 -24 -30 -29 -250
-144 -301 -158 -19 -5 -51 -13 -70 -19 -67 -18 -134 -21 -172 -8 -58 19 -52
45 32 130 39 38 70 73 70 77 0 4 21 24 45 46 24 21 42 42 40 46 -3 5 2 11 11
14 8 3 12 10 9 16 -3 5 1 10 9 10 9 0 16 4 16 10 0 5 21 31 48 58 26 27 58 63
72 80 14 18 29 32 33 32 10 0 46 41 47 53 0 14 28 37 44 37 9 0 16 8 16 19 0
11 9 23 20 26 11 3 20 13 20 21 0 8 7 17 15 20 8 4 15 12 15 19 0 7 7 15 15
19 8 3 15 12 15 21 0 8 7 15 15 15 8 0 15 5 15 10 0 6 7 10 15 10 8 0 15 9 15
20 0 13 7 20 20 20 11 0 20 4 20 9 0 14 70 80 102 97 15 8 28 20 28 28 0 7 12
18 26 24 14 7 23 16 19 21 -3 5 11 15 30 21 19 6 35 18 35 26 0 8 7 17 15 20
8 4 15 12 15 19 0 15 43 45 63 45 19 0 27 -52 20 -128 -7 -71 2 -112 22 -112
8 0 15 -5 15 -11 0 -19 65 -69 103 -80 38 -10 57 -6 57 12 0 6 7 17 15 25 8 8
17 41 21 74 4 38 12 64 22 69 9 5 13 16 9 30 -3 11 -2 21 2 21 4 0 18 24 32
53 13 28 32 58 41 65 9 7 18 27 20 45 4 37 38 53 38 18 0 -12 3 -21 8 -21 4 0
15 -18 25 -40 9 -22 21 -40 27 -40 5 0 9 -3 9 -7 -4 -24 3 -53 14 -65 7 -7 21
-32 31 -55 11 -24 23 -43 28 -43 4 0 8 -5 8 -12 0 -12 106 -118 119 -118 4 0
14 -11 21 -25 7 -14 19 -25 27 -25 7 0 13 -7 13 -15 0 -8 7 -15 15 -15 8 0 15
-7 15 -15 0 -8 7 -15 15 -15 8 0 15 -7 15 -15 0 -8 7 -15 15 -15 8 0 15 -4 15
-10 0 -5 9 -10 20 -10 11 0 23 -7 26 -15 4 -9 19 -15 36 -15 20 0 37 -8 50
-25 11 -14 26 -25 34 -25 8 0 14 -4 14 -10 0 -5 7 -10 15 -10 15 0 25 -6 60
-38 7 -6 18 -12 24 -12 6 0 11 -6 11 -14 0 -8 16 -16 40 -20 25 -4 43 -14 50
-26 6 -11 18 -20 26 -20 8 0 23 -13 32 -30 9 -16 23 -30 30 -30 6 0 12 -4 12
-10 0 -5 6 -10 14 -10 7 0 33 -22 57 -50 37 -42 49 -50 79 -50 19 0 41 4 49 9
23 15 4 72 -44 131 -44 53 -55 83 -36 95 5 3 30 6 55 7 25 1 46 5 46 8 0 4 11
13 25 20 31 17 33 59 6 104 -14 23 -33 35 -68 45 -26 8 -56 21 -65 29 -20 16
-24 42 -8 42 6 0 10 6 10 14 0 7 9 16 20 19 11 3 24 16 29 30 5 14 14 26 19
28 19 8 83 152 81 183 -2 17 0 36 3 42 4 5 3 16 -3 24 -5 8 -9 29 -9 47 0 46
-16 80 -39 88 -13 4 -21 15 -21 28 0 28 -60 92 -108 116 -23 11 -69 20 -122
24 -139 9 -224 -19 -265 -89 -25 -42 -34 -104 -15 -104 5 0 9 -8 8 -17 -4 -54
28 -76 97 -66 43 5 44 6 50 53 4 33 2 58 -9 84 -25 60 -8 76 85 76 71 0 159
-44 159 -80 0 -5 6 -10 14 -10 21 0 27 -28 28 -137 2 -103 -2 -116 -55 -205
-57 -96 -252 -192 -323 -159 -14 6 -34 11 -44 11 -36 0 -128 48 -206 107 -42
32 -89 67 -103 78 -14 10 -30 26 -35 34 -5 7 -24 31 -43 52 -20 22 -32 39 -28
39 3 0 -3 13 -14 29 -12 16 -21 37 -21 48 -1 10 -7 29 -15 43 -8 14 -14 39
-15 57 0 17 -4 34 -9 37 -5 3 -12 32 -16 64 -5 47 -1 78 19 152 14 51 32 100
41 110 8 9 15 22 15 28 0 6 11 19 23 29 29 22 50 60 42 73 -3 6 5 14 19 20 16
6 28 21 34 42 7 27 16 35 58 50 27 10 57 18 66 18 9 0 23 8 30 18 22 30 61 49
123 60 33 6 92 18 130 27 53 11 76 13 96 4 18 -7 38 -7 61 -1 18 5 48 7 67 4
30 -4 32 -2 29 19 -2 19 -10 25 -34 27 -21 2 -34 10 -37 21 -6 26 -89 69 -179
94 -43 12 -78 27 -78 32 0 6 18 30 40 54 22 23 40 46 40 50 0 4 11 13 25 19
15 7 25 20 25 32 0 11 7 20 15 20 9 0 18 7 22 16 3 8 17 20 31 25 14 5 22 12
19 15 -3 3 15 26 39 51 24 24 44 49 44 54 0 29 228 94 238 68 2 -5 15 -9 28
-9 22 0 24 4 24 43 0 56 15 108 40 135 11 11 20 28 20 37 0 8 5 15 10 15 6 0
10 9 10 19 0 11 5 23 10 26 6 3 10 15 10 26 0 10 5 19 10 19 6 0 10 7 10 15 0
9 11 20 24 25 15 5 27 20 31 39 4 17 11 31 16 31 5 0 39 30 75 68 36 37 73 74
82 82 9 8 30 29 47 47 37 40 85 45 86 11z m-6871 -950 c0 -16 -3 -19 -11 -11
-6 6 -8 16 -5 22 11 17 16 13 16 -11z"/>
</g>
</svg>
