<svg version="1.0" xmlns="http://www.w3.org/2000/svg"
 width="2039.000000pt" height="448.000000pt" viewBox="0 0 2039.000000 448.000000"
 preserveAspectRatio="xMidYMid meet">
<metadata>
Created by potrace 1.13, written by Peter Selinger 2001-2015
</metadata>
<g transform="translate(0.000000,448.000000) scale(0.100000,-0.100000)"
fill="currentColor" stroke="none">
<path d="M152 4438 c-16 -16 -15 -39 4 -66 18 -26 59 -29 73 -4 6 9 11 13 11
7 0 -11 20 15 20 28 0 4 -6 7 -13 7 -7 0 -18 9 -25 20 -14 22 -51 27 -70 8z"/>
<path d="M20188 4431 c-7 -12 -18 -21 -25 -21 -7 0 -13 -3 -13 -7 0 -12 20
-39 20 -29 0 6 6 2 13 -8 30 -41 108 18 81 61 -16 27 -60 29 -76 4z"/>
<path d="M314 4235 c-29 -29 -32 -86 -9 -142 8 -19 15 -46 15 -59 0 -13 9 -31
19 -41 10 -10 29 -39 41 -65 13 -28 35 -56 54 -67 17 -11 42 -34 55 -51 27
-37 166 -128 233 -154 25 -9 51 -23 57 -30 11 -13 26 -216 26 -347 0 -59 -4
-81 -18 -96 -21 -24 -22 -66 -2 -97 14 -21 16 -76 13 -412 -1 -214 -2 -443 -2
-509 1 -66 1 -149 1 -185 0 -36 1 -202 2 -370 3 -790 2 -844 -16 -857 -9 -7
-31 -13 -47 -13 -17 0 -78 -21 -136 -47 -85 -38 -123 -62 -198 -127 -75 -66
-98 -93 -123 -145 -26 -53 -30 -72 -26 -114 4 -43 10 -56 45 -89 36 -33 47
-38 90 -38 106 0 224 97 346 283 42 64 76 122 76 128 0 7 5 27 12 46 19 52 49
57 318 53 129 -1 258 -3 285 -2 28 0 109 0 180 0 72 0 144 1 160 2 37 3 73 3
105 1 14 -1 1877 1 4140 4 2263 3 4237 4 4385 4 149 -1 290 -2 315 -1 25 0
173 1 330 1 157 0 323 1 370 3 120 2 173 2 270 -1 205 -8 886 -5 1025 4 101 6
105 6 158 -1 26 -3 68 -1 92 5 33 8 51 8 72 -1 21 -8 707 -12 2758 -15 1502
-2 2741 -3 2755 -2 34 2 69 2 105 -1 17 -1 89 -2 160 -2 72 0 153 0 180 0 28
-1 156 1 285 2 269 4 299 -1 318 -53 7 -19 12 -39 12 -46 0 -6 34 -64 76 -128
122 -186 240 -283 346 -283 43 0 54 5 90 38 35 33 41 46 45 89 4 42 0 61 -26
114 -25 52 -48 79 -123 145 -75 65 -113 89 -198 127 -58 26 -119 47 -136 47
-16 0 -38 6 -47 12 -18 14 -19 68 -16 858 1 168 2 334 2 370 0 36 0 119 1 185
0 66 -1 295 -2 509 -3 336 -1 391 13 412 20 31 19 73 -2 97 -14 15 -18 37 -18
96 0 131 15 334 26 347 6 7 32 21 57 30 67 26 206 117 233 154 13 17 38 40 55
51 19 11 41 39 54 67 12 26 31 55 41 65 10 10 19 28 19 41 0 13 7 40 15 59 23
56 20 113 -9 142 -21 21 -31 23 -90 20 -44 -2 -73 -9 -85 -19 -10 -9 -25 -16
-34 -16 -17 0 -59 -25 -135 -81 -32 -23 -53 -50 -78 -102 -19 -39 -34 -82 -34
-95 0 -13 -4 -21 -9 -18 -11 7 -35 -69 -27 -83 4 -6 1 -23 -8 -38 -8 -16 -20
-42 -26 -60 -7 -17 -17 -33 -23 -36 -7 -2 -120 0 -252 5 -223 9 -933 4 -1280
-8 -99 -3 -165 -1 -192 7 -30 8 -47 8 -55 1 -16 -13 -96 -17 -121 -7 -11 4
-23 3 -30 -4 -14 -14 -113 -15 -122 -1 -4 6 -166 8 -448 5 -1242 -12 -1731
-15 -2237 -13 -562 2 -595 2 -890 -5 -123 -3 -168 -1 -175 8 -7 9 -32 11 -90
6 -44 -3 -111 -3 -150 0 -38 3 -95 3 -125 -1 -30 -3 -183 -2 -340 3 -333 9
-542 6 -561 -9 -10 -8 -117 -10 -339 -8 -777 6 -1621 6 -1697 -1 -59 -5 -91
-4 -113 5 -23 10 -34 10 -43 1 -15 -15 -54 -14 -60 2 -3 10 -11 10 -39 0 -43
-16 -833 -19 -843 -3 -4 6 -14 5 -29 -1 -15 -7 -35 -8 -57 -1 -19 5 -42 6 -52
3 -28 -10 -1261 -6 -1277 4 -22 14 -241 17 -560 8 -157 -5 -310 -6 -340 -3
-30 4 -86 4 -125 1 -38 -3 -106 -3 -150 0 -58 5 -83 3 -90 -6 -7 -9 -52 -11
-175 -8 -295 7 -328 7 -890 5 -506 -2 -995 1 -2237 13 -282 3 -444 1 -448 -5
-9 -14 -108 -13 -122 1 -7 7 -19 8 -30 4 -25 -10 -105 -6 -121 7 -8 7 -25 7
-55 -1 -27 -8 -93 -10 -192 -7 -347 12 -1057 17 -1280 8 -132 -5 -245 -7 -252
-5 -6 3 -16 19 -23 36 -6 18 -18 44 -26 60 -9 15 -12 32 -8 38 8 14 -16 90
-27 83 -5 -3 -9 5 -9 18 0 13 -15 56 -34 95 -25 52 -46 79 -78 102 -76 56
-118 81 -135 81 -9 0 -24 7 -34 16 -12 10 -41 17 -85 19 -59 3 -69 1 -90 -20z
m2426 -589 c129 0 370 1 535 2 165 2 516 0 780 -4 511 -7 1170 -10 1840 -8
226 1 460 1 520 1 61 0 335 0 610 1 275 0 667 -1 870 -2 435 -3 754 -5 810 -4
90 1 1795 0 2270 -1 281 -1 553 -1 605 0 52 2 111 2 130 1 41 -1 290 0 805 4
204 1 595 2 870 2 275 -1 550 -1 610 -1 61 0 295 0 520 -1 670 -2 1329 1 1840
8 264 4 615 6 780 4 432 -4 684 -3 1460 4 687 6 924 0 953 -24 11 -10 13 -28
9 -83 -3 -38 -2 -95 3 -125 5 -33 4 -74 -3 -102 -8 -36 -7 -54 2 -71 8 -16 10
-60 7 -151 -3 -71 -8 -131 -11 -134 -9 -10 -5 -53 5 -47 6 4 8 -63 4 -192 -7
-207 -6 -389 1 -533 2 -54 -1 -103 -10 -135 -11 -42 -14 -139 -4 -155 1 -3 3
-120 4 -260 2 -140 5 -393 7 -562 3 -169 1 -313 -3 -320 -6 -9 -178 -12 -806
-10 -439 0 -819 4 -845 7 -27 4 -48 3 -48 -2 0 -4 -523 -7 -1163 -5 -1685 5
-2552 4 -2637 -3 -41 -3 -108 -2 -148 3 -41 5 -75 4 -79 0 -5 -9 -116 -3 -133
7 -12 8 -41 -6 -34 -16 3 -5 1 -9 -5 -9 -5 0 -12 3 -14 7 -4 6 -359 8 -647 4
-14 -1 -113 2 -220 5 -107 3 -206 5 -220 4 -14 -1 -920 -3 -2015 -5 -1094 -2
-1999 -4 -2010 -5 -11 -1 -166 1 -345 5 -394 7 -327 7 -560 1 -107 -3 -206 -6
-220 -5 -288 4 -643 2 -647 -4 -2 -4 -9 -7 -14 -7 -6 0 -8 4 -5 9 7 10 -22 24
-34 16 -17 -10 -128 -16 -133 -7 -4 4 -38 5 -79 0 -40 -5 -107 -6 -148 -3 -85
7 -952 8 -2637 3 -640 -2 -1163 1 -1163 5 0 5 -21 6 -47 2 -27 -3 -407 -7
-846 -7 -628 -2 -800 1 -806 10 -4 7 -6 151 -3 320 2 169 5 422 7 562 1 140 3
257 4 260 10 16 7 113 -4 155 -9 32 -12 81 -10 135 7 144 8 326 1 533 -4 129
-2 196 4 192 10 -6 14 37 5 47 -3 3 -8 63 -11 134 -3 91 -1 135 7 151 9 17 10
35 2 71 -7 28 -8 69 -3 102 5 30 6 87 3 125 -4 56 -2 73 10 83 28 23 206 28
932 23 391 -3 816 -5 945 -5z"/>
<path d="M4220 3600 c-12 -7 -12 -16 -4 -49 14 -51 3 -71 -40 -71 -43 0 -59
19 -54 67 3 33 0 38 -18 41 -19 3 -23 -3 -29 -47 -4 -28 -11 -53 -15 -56 -5
-3 -346 -6 -759 -6 -554 0 -755 3 -772 11 -18 10 -21 18 -16 51 6 48 -17 75
-39 44 -8 -10 -14 -33 -14 -50 0 -38 -16 -55 -52 -55 -31 0 -48 28 -48 76 0
28 -28 44 -41 23 -5 -8 -6 -28 -3 -45 12 -66 39 -63 -629 -63 -682 0 -626 8
-627 -85 -1 -28 -2 -100 -3 -161 0 -60 0 -195 2 -300 2 -104 3 -258 2 -340 -1
-83 1 -163 4 -177 8 -33 -15 -48 -74 -48 -56 0 -91 -15 -91 -40 0 -22 18 -26
96 -21 49 3 67 -14 62 -61 l-3 -33 -70 -5 c-55 -4 -71 -9 -73 -22 -4 -21 29
-32 73 -24 23 5 39 1 54 -11 l22 -18 3 -515 c1 -367 5 -521 13 -536 7 -11 10
-30 7 -41 -3 -10 1 -24 8 -30 15 -13 399 -24 899 -27 366 -1 365 -1 371 -58 3
-31 31 -59 45 -45 4 4 10 29 13 55 4 39 9 48 27 50 31 5 63 -31 63 -72 0 -37
21 -62 45 -52 13 4 14 16 9 55 -5 43 -4 50 14 60 13 7 133 11 344 12 177 0
337 1 353 2 17 0 59 -1 95 -2 36 -2 211 -2 388 -2 344 2 352 1 352 -46 0 -35
18 -63 40 -63 16 0 20 7 20 38 0 81 79 94 81 14 1 -20 2 -41 4 -47 1 -5 3 -16
3 -23 1 -8 12 -12 30 -10 26 3 27 4 24 60 -4 69 -1 70 136 69 54 0 387 -2 742
-5 355 -3 702 -1 773 4 70 5 134 7 142 4 8 -4 18 -18 21 -33 10 -46 23 -71 38
-71 19 0 36 31 36 64 0 15 8 30 20 36 30 16 58 -4 81 -57 23 -54 43 -52 47 5
3 36 7 43 30 49 14 3 373 3 797 -1 653 -7 877 -7 1300 -2 28 0 87 -1 132 -2
98 -2 113 -13 113 -78 0 -48 18 -66 45 -44 12 10 14 24 9 61 -6 46 -5 49 21
61 24 11 29 10 46 -11 12 -15 16 -31 13 -51 -5 -21 -1 -31 13 -38 30 -17 47 0
39 41 -4 22 -2 38 6 44 10 8 193 10 253 2 6 0 265 2 576 6 403 5 569 4 573 -4
9 -15 59 -14 73 0 9 9 160 12 551 13 598 1 578 3 566 -61 -8 -41 9 -58 39 -41
14 7 18 17 13 38 -3 20 1 36 13 51 17 21 22 22 46 11 26 -12 27 -15 21 -61 -5
-37 -3 -51 9 -61 27 -22 45 -4 45 44 0 65 15 76 113 78 45 1 105 2 132 2 423
-5 647 -5 1300 2 424 4 783 4 797 1 23 -6 27 -13 30 -49 4 -57 24 -59 47 -5
23 53 51 73 81 57 12 -6 20 -21 20 -36 0 -33 17 -64 36 -64 15 0 28 25 38 71
3 15 13 29 21 33 8 3 72 1 142 -4 71 -5 418 -7 773 -4 355 3 688 5 742 5 137
1 140 0 136 -69 -3 -56 -2 -57 25 -60 17 -2 28 2 29 10 0 7 2 18 3 23 2 6 3
27 4 47 2 80 81 67 81 -14 0 -31 4 -38 20 -38 22 0 40 28 40 63 0 47 8 48 352
46 177 0 352 0 388 2 36 1 79 2 95 2 17 -1 176 -2 353 -2 211 -1 331 -5 344
-12 18 -10 19 -17 14 -60 -5 -39 -4 -51 9 -55 24 -10 45 15 45 52 0 41 32 77
63 72 18 -2 23 -11 27 -50 3 -26 9 -51 13 -55 14 -14 42 14 45 45 6 57 5 57
371 58 500 3 884 14 899 27 7 6 11 20 8 30 -3 11 0 30 7 41 8 15 12 169 13
536 l3 515 22 18 c15 12 31 16 54 11 44 -8 77 3 73 24 -2 13 -18 18 -73 22
l-70 5 -3 33 c-5 47 13 64 62 61 78 -5 96 -1 96 21 0 25 -35 40 -91 40 -59 0
-82 15 -74 48 3 14 5 94 4 177 -1 82 0 236 2 340 2 105 2 240 2 300 -1 61 -2
133 -3 161 -1 93 55 85 -627 85 -668 0 -641 -3 -629 63 3 17 2 37 -3 45 -13
21 -41 5 -41 -23 0 -48 -17 -76 -48 -76 -36 0 -52 17 -52 55 0 17 -6 40 -14
50 -22 31 -45 4 -39 -44 5 -33 2 -41 -16 -51 -17 -8 -218 -11 -772 -11 -413 0
-754 3 -759 6 -4 3 -11 28 -15 56 -6 44 -10 50 -29 47 -18 -3 -21 -8 -18 -41
5 -48 -11 -67 -54 -67 -38 0 -56 23 -43 55 13 33 10 62 -7 69 -29 11 -46 -13
-39 -56 12 -67 7 -69 -204 -68 -102 0 -510 0 -906 0 -797 1 -755 -3 -772 67
-9 40 -40 55 -36 18 8 -66 -27 -100 -72 -71 -20 13 -25 25 -25 56 0 34 -3 40
-20 40 -17 0 -20 -6 -19 -32 2 -18 -3 -43 -9 -54 l-11 -22 -1160 2 c-759 1
-1163 4 -1170 11 -5 6 -11 26 -13 45 -2 27 -8 36 -25 38 -20 3 -22 -2 -25 -45
l-3 -48 -40 0 -40 0 0 50 c0 45 -2 50 -24 53 -31 5 -43 -14 -35 -59 4 -27 1
-38 -10 -42 -8 -3 -246 -6 -528 -5 -282 0 -567 -3 -633 -7 -66 -3 -275 -2
-465 3 -190 5 -367 6 -395 3 -27 -3 -81 -2 -120 2 -81 9 -85 9 -314 3 -96 -2
-180 -2 -188 1 -10 4 -13 16 -9 42 8 45 -4 64 -35 59 -22 -3 -24 -8 -24 -53
l0 -50 -40 0 -40 0 -3 48 c-3 43 -5 48 -25 45 -17 -2 -23 -11 -25 -38 -2 -19
-8 -39 -13 -45 -7 -7 -411 -10 -1170 -11 l-1160 -2 -11 22 c-6 11 -11 36 -9
54 1 26 -2 32 -19 32 -17 0 -20 -6 -20 -40 0 -31 -5 -43 -25 -56 -45 -29 -80
5 -72 71 4 37 -27 22 -36 -18 -17 -70 25 -66 -772 -67 -396 0 -804 0 -906 0
-210 -1 -217 1 -205 66 5 22 3 41 -5 50 -13 16 -19 17 -39 4z m1607 -215 c150
-2 277 -7 283 -10 5 -3 10 -22 10 -41 0 -31 3 -35 23 -32 15 2 25 13 32 36 6
21 17 35 31 38 41 10 59 0 68 -39 13 -49 38 -46 47 6 3 20 9 40 12 43 3 4 131
5 284 4 153 -2 400 -3 548 -2 716 3 1449 0 1487 -7 3 0 15 -17 27 -36 25 -44
37 -44 55 -1 8 18 19 37 25 40 20 13 47 -4 62 -37 18 -40 49 -43 67 -5 24 50
46 54 190 32 24 -3 54 -1 70 5 18 8 47 9 89 3 35 -5 66 -5 71 0 5 5 128 8 273
7 145 -1 296 -1 334 0 39 0 121 -5 183 -11 85 -9 115 -9 124 0 15 15 55 16 63
2 7 -12 92 -13 99 -2 9 14 1103 9 1117 -5 6 -6 17 -22 23 -35 17 -34 48 -29
65 9 15 33 42 50 62 37 6 -3 17 -22 25 -40 18 -43 30 -43 55 1 12 19 24 36 27
36 38 7 771 10 1487 7 149 -1 395 0 548 2 153 1 281 0 284 -4 3 -3 9 -23 12
-43 9 -52 34 -55 47 -6 9 39 27 49 68 39 14 -3 25 -17 31 -38 7 -23 17 -34 33
-36 19 -3 22 1 22 32 0 19 4 38 10 41 5 3 139 8 297 11 159 3 304 6 323 6 19
1 300 -2 624 -5 626 -7 612 -6 600 -54 -4 -13 -3 -30 0 -39 6 -15 8 -15 27 2
12 11 19 28 17 42 -3 21 3 27 37 39 55 19 68 12 60 -35 -5 -29 -2 -42 9 -52
22 -17 46 3 46 40 0 57 -31 55 786 57 581 2 754 0 762 -10 6 -7 12 -25 14 -42
5 -46 32 -44 52 5 19 47 32 55 70 40 25 -9 28 -14 23 -39 -7 -33 11 -55 37
-45 9 4 20 19 23 35 3 16 12 34 20 41 11 9 148 12 570 11 635 -1 597 5 574
-82 -7 -28 -10 -55 -6 -60 5 -10 6 -343 2 -736 l-2 -140 -30 -3 c-59 -5 -75
-12 -75 -32 0 -14 9 -21 38 -26 57 -10 72 -21 72 -53 0 -35 -22 -55 -52 -48
-11 3 -29 2 -39 -4 -26 -14 -12 -39 22 -39 16 0 38 -9 48 -19 19 -19 20 -38
19 -528 0 -310 -4 -513 -10 -520 -5 -7 -28 -15 -51 -18 -82 -12 -1053 -25
-1117 -15 -31 5 -36 9 -40 40 -7 46 -31 46 -46 1 -18 -55 -84 -64 -84 -12 -1
65 -43 66 -64 1 l-11 -34 -305 1 c-168 1 -516 2 -773 2 -365 1 -468 4 -471 14
-3 6 -7 24 -10 38 -7 32 -35 46 -42 21 -14 -45 -31 -67 -56 -70 -28 -3 -31 2
-40 62 -3 22 -33 44 -45 33 -4 -4 -6 -22 -5 -40 4 -62 25 -59 -459 -63 -852
-8 -1337 -6 -1358 5 -12 7 -21 24 -23 44 -2 24 -8 32 -23 32 -15 0 -21 -8 -25
-35 -5 -32 -8 -35 -44 -38 -43 -4 -59 10 -51 44 5 24 -18 50 -35 39 -6 -4 -10
-21 -9 -39 5 -58 12 -57 -299 -57 -158 0 -296 0 -307 0 -11 0 -186 0 -390 0
-203 0 -563 -2 -800 -4 -236 -3 -461 -1 -500 3 l-70 7 -3 47 c-2 36 -8 48 -22
53 -31 10 -40 -2 -40 -51 0 -38 -4 -46 -26 -56 -36 -17 -58 0 -62 46 -2 22
-10 40 -19 43 -18 7 -32 -12 -26 -36 2 -9 -3 -25 -11 -36 -14 -20 -27 -20
-733 -22 -395 -2 -886 -5 -1092 -7 -206 -3 -392 -2 -415 2 -23 4 -68 5 -101 1
-37 -4 -65 -3 -72 3 -9 7 -18 6 -29 -3 -12 -10 -20 -10 -34 -1 -12 7 -21 8
-25 2 -19 -31 -102 22 -92 59 6 25 -8 45 -26 38 -9 -3 -17 -21 -19 -43 -4 -46
-26 -63 -62 -46 -22 10 -26 18 -26 56 0 49 -9 61 -40 51 -14 -5 -20 -17 -22
-53 l-3 -47 -70 -7 c-38 -4 -263 -6 -500 -3 -236 2 -596 4 -800 4 -203 0 -379
0 -390 0 -11 0 -149 0 -307 0 -311 0 -304 -1 -299 57 1 18 -3 35 -9 39 -17 11
-40 -15 -35 -39 8 -34 -8 -48 -51 -44 -36 3 -39 6 -44 38 -4 27 -10 35 -25 35
-15 0 -21 -8 -23 -32 -2 -20 -11 -37 -23 -44 -21 -11 -506 -13 -1358 -5 -484
4 -463 1 -459 63 1 18 -1 36 -5 40 -12 11 -42 -11 -45 -33 -9 -60 -12 -65 -40
-62 -25 3 -42 25 -56 70 -7 25 -35 11 -42 -21 -3 -14 -7 -32 -10 -38 -3 -10
-106 -13 -471 -14 -257 0 -605 -1 -773 -2 l-305 -1 -11 34 c-21 65 -63 64 -64
-1 0 -52 -66 -43 -84 12 -15 45 -39 45 -46 -1 -4 -31 -9 -35 -40 -40 -64 -10
-1035 3 -1117 15 -23 3 -46 11 -51 18 -6 7 -10 210 -10 520 -1 490 0 509 19
528 10 10 32 19 48 19 34 0 48 25 22 39 -10 6 -28 7 -39 4 -30 -7 -52 13 -52
48 0 32 15 43 73 53 28 5 37 12 37 26 0 20 -16 27 -75 32 l-30 3 -2 140 c-4
393 -3 726 2 736 4 5 1 32 -6 60 -23 87 -61 81 574 82 422 1 559 -2 570 -11 8
-7 17 -25 20 -41 3 -16 14 -31 23 -35 26 -10 44 12 37 45 -5 25 -2 30 23 39
38 15 51 7 70 -40 20 -49 47 -51 52 -5 2 17 8 35 14 42 8 10 181 12 762 10
817 -2 786 0 786 -57 0 -37 24 -57 46 -40 11 10 14 23 9 52 -8 47 5 54 60 35
34 -12 40 -18 37 -39 -2 -14 5 -31 17 -42 19 -17 21 -17 27 -2 3 9 4 26 0 39
-12 48 -27 47 599 52 324 3 591 8 594 11 3 3 26 3 51 -1 25 -4 168 -9 317 -10z"/>
<path d="M1915 3213 c-38 -2 -64 -7 -57 -12 7 -4 -102 -7 -242 -7 -181 1 -258
-2 -267 -11 -8 -8 -11 -170 -11 -625 0 -337 0 -624 0 -638 0 -14 0 -171 0
-349 0 -264 2 -326 14 -337 8 -8 45 -21 83 -28 57 -12 152 -13 510 -9 480 7
548 7 615 3 25 -1 351 -2 725 -1 374 1 849 1 1055 1 206 0 481 1 610 2 129 1
303 2 385 1 83 -1 384 -1 670 0 286 1 579 1 650 0 97 -2 1124 4 1585 8 19 0
901 0 1960 0 1059 -1 1943 -1 1965 -1 22 1 360 -1 750 -4 391 -3 769 -5 840
-3 72 1 364 1 650 0 286 -1 588 -1 670 0 83 1 256 0 385 -1 129 -1 404 -2 610
-2 206 0 681 0 1055 -1 374 -1 700 0 725 1 67 4 135 4 615 -3 358 -4 453 -3
510 9 38 7 75 20 83 28 12 11 14 73 14 337 0 178 0 335 0 349 0 14 0 301 0
638 0 455 -3 617 -11 625 -9 9 -86 12 -267 11 -140 0 -249 3 -243 7 13 8 -138
18 -159 11 -11 -4 -11 -6 0 -13 8 -5 -14 -9 -54 -9 -39 0 -68 4 -68 10 0 6 -7
10 -15 10 -8 0 -15 -4 -15 -10 0 -6 -48 -10 -125 -10 -69 0 -125 4 -125 9 0
17 -31 21 -55 5 -20 -13 -96 -15 -586 -14 -579 0 -711 3 -742 15 -9 4 -30 2
-45 -4 -19 -8 -128 -9 -367 -5 -187 4 -356 6 -375 6 -83 -2 -1081 -12 -1145
-11 -184 1 -735 0 -1150 -2 -253 -2 -482 1 -510 5 -36 5 -46 4 -35 -3 11 -8
-5 -9 -55 -4 -84 9 -916 9 -1067 0 -71 -4 -110 -2 -114 5 -4 6 -18 7 -38 2
-17 -4 -337 -9 -711 -11 -374 -2 -698 -4 -720 -5 -22 -1 -69 -1 -105 -1 -36 1
-285 2 -555 3 -269 0 -573 1 -675 1 -102 0 -202 5 -222 11 -27 8 -41 8 -50 0
-9 -7 -50 -9 -118 -5 -151 9 -982 9 -1065 0 -50 -5 -66 -4 -55 4 11 7 1 8 -35
3 -27 -4 -257 -7 -510 -5 -415 2 -966 3 -1150 2 -64 -1 -1062 9 -1145 11 -19
0 -188 -2 -375 -6 -239 -4 -348 -3 -367 5 -15 6 -36 8 -45 4 -31 -12 -163 -15
-742 -15 -490 -1 -566 1 -586 14 -24 16 -55 12 -55 -5 0 -5 -56 -9 -125 -9
-77 0 -125 4 -125 10 0 6 -7 10 -15 10 -8 0 -15 -4 -15 -10 0 -6 -29 -10 -67
-10 -41 0 -63 4 -55 9 11 7 10 10 -3 15 -9 3 -20 5 -23 4 -4 -1 -38 -4 -77 -5z
m280 -80 c243 -5 154 -5 808 -1 496 3 549 2 557 -12 8 -15 10 -39 11 -115 1
-18 -13 -1100 -14 -1165 0 -14 0 -63 0 -110 1 -235 -3 -449 -9 -456 -11 -10
-1764 -19 -2005 -9 -124 5 -133 11 -133 85 0 32 -4 70 -10 85 -6 16 -10 228
-10 548 -1 287 -1 551 -2 587 0 64 0 122 4 373 1 70 5 127 9 127 4 0 9 9 12
20 3 11 14 20 24 20 10 0 24 5 30 11 7 7 89 13 225 16 117 3 215 7 218 10 3 3
23 2 45 -2 22 -4 130 -9 240 -12z m1640 3 c19 -13 20 -24 17 -292 -2 -154 -3
-290 -4 -304 0 -14 0 -207 0 -430 1 -223 1 -414 0 -425 0 -11 2 -98 5 -193 3
-96 3 -180 0 -188 -10 -27 -60 -44 -130 -44 -75 0 -87 5 -97 37 -9 27 -19 278
-14 348 3 53 3 596 -1 825 -5 295 4 625 17 647 13 23 36 28 137 31 30 1 59 -4
70 -12z m321 -18 c20 -18 51 -48 69 -67 19 -19 46 -42 61 -52 14 -9 63 -52
108 -96 44 -43 103 -97 130 -118 27 -22 72 -64 100 -93 28 -30 65 -61 82 -70
17 -10 69 -52 115 -96 46 -43 95 -85 109 -94 24 -15 44 -33 151 -134 25 -24
80 -72 122 -108 42 -35 77 -68 77 -71 0 -4 24 -24 53 -45 28 -21 87 -71 129
-111 42 -40 81 -73 86 -73 4 0 37 -28 73 -63 35 -35 121 -109 191 -164 69 -55
142 -119 163 -141 35 -39 36 -44 41 -130 6 -113 -5 -127 -94 -120 -53 4 -64 9
-132 63 -41 33 -95 81 -120 106 -25 26 -58 53 -75 62 -32 16 -84 67 -69 67 5
0 -1 6 -13 13 -51 29 -160 121 -276 232 -68 66 -144 136 -168 155 -24 19 -68
58 -99 86 -30 28 -80 73 -110 100 -30 27 -87 79 -126 116 -40 38 -79 68 -87
68 -28 0 -87 42 -93 66 -3 13 -13 29 -21 36 -8 7 -19 23 -24 36 -7 17 -15 23
-28 19 -22 -5 -81 27 -81 43 0 6 5 8 10 5 6 -3 10 -1 10 4 0 6 -20 20 -45 32
-25 12 -54 32 -64 45 -10 13 -40 41 -67 62 -27 22 -84 74 -126 116 -43 42 -81
76 -85 76 -5 0 -36 26 -69 58 -51 48 -62 64 -68 100 -5 35 -2 49 14 72 20 28
25 29 108 33 48 1 91 4 95 5 4 1 24 -13 43 -30z m519 17 c121 -4 283 -6 360
-5 164 2 578 2 618 1 42 -1 44 -26 5 -58 -18 -15 -71 -63 -118 -107 -157 -146
-217 -201 -300 -271 -45 -38 -103 -91 -129 -116 -53 -54 -109 -89 -140 -89
-23 0 -115 67 -192 140 -26 25 -79 70 -118 100 -122 95 -143 113 -152 137 -5
13 -15 23 -23 23 -7 0 -16 7 -20 15 -3 8 -11 15 -18 15 -7 0 -32 17 -54 38
-51 45 -100 86 -137 113 -18 14 -27 29 -25 43 3 18 12 22 58 27 30 3 80 4 110
3 30 -2 154 -6 275 -9z m1684 -14 c10 -17 12 -148 11 -738 0 -201 -4 -313 -10
-313 -14 0 -12 -97 4 -200 7 -47 11 -88 9 -92 -4 -7 -11 -209 -14 -381 -2 -99
-13 -121 -66 -132 -33 -7 -33 -6 -33 34 0 33 -5 44 -26 58 -19 12 -30 14 -43
6 -22 -14 -27 -74 -7 -89 14 -10 11 -12 -18 -17 -19 -3 -47 -2 -63 2 l-28 7 0
140 c0 76 1 184 3 239 2 55 3 111 3 125 0 14 1 319 2 678 3 602 4 653 20 669
33 33 239 36 256 4z m2679 -935 l2 -949 -32 8 c-43 10 -49 10 -148 2 -107 -9
-136 2 -134 53 2 36 5 480 4 625 0 219 10 875 14 913 3 23 1 54 -4 67 -7 17
-6 60 2 125 l11 100 88 0 c48 0 90 4 93 8 3 4 26 6 53 3 l48 -6 3 -949z m276
949 c18 -9 39 -27 46 -40 7 -14 17 -25 22 -25 5 0 25 -15 44 -34 19 -18 47
-36 63 -39 20 -4 32 -15 39 -35 7 -20 24 -35 56 -50 25 -12 46 -28 46 -36 0
-8 15 -26 33 -41 17 -15 65 -57 105 -93 40 -37 81 -71 90 -76 9 -5 45 -34 78
-65 34 -31 94 -85 133 -119 75 -67 86 -93 49 -113 -30 -16 -132 -99 -136 -110
-9 -22 -48 -4 -124 56 -46 36 -110 87 -142 113 -33 26 -82 70 -111 98 -28 28
-61 54 -73 58 -12 4 -22 11 -22 15 0 5 -18 20 -40 35 -23 15 -74 58 -114 96
-40 39 -77 70 -81 70 -5 0 -41 34 -81 75 -40 41 -78 75 -83 75 -11 0 -17 181
-7 191 3 2 44 5 91 7 62 2 96 -2 119 -13z m1417 -2 c165 -3 302 -10 305 -14 2
-4 -21 -27 -52 -50 -31 -23 -66 -51 -77 -62 -11 -11 -52 -42 -90 -68 -38 -26
-93 -71 -123 -98 -30 -28 -59 -51 -64 -51 -6 0 -10 -4 -10 -9 0 -5 -20 -19
-45 -31 -25 -12 -45 -28 -45 -36 0 -8 -5 -14 -10 -14 -6 0 -15 -10 -21 -22 -5
-13 -32 -36 -60 -53 -27 -16 -64 -44 -82 -62 -17 -18 -37 -33 -43 -33 -5 0
-23 -13 -38 -29 -16 -16 -42 -35 -58 -42 -29 -12 -32 -10 -73 32 -43 45 -189
171 -228 198 -12 8 -49 37 -82 65 -33 28 -80 65 -105 81 -24 17 -69 55 -100
86 -30 31 -63 60 -72 65 -9 5 -42 33 -72 62 -31 28 -61 52 -66 52 -15 0 -12
16 5 30 13 11 92 12 383 7 202 -3 405 -2 452 3 47 4 104 6 128 4 24 -2 178 -7
343 -11z m571 0 c20 -23 28 -103 21 -193 l-6 -71 -38 -16 c-21 -8 -41 -23 -44
-33 -3 -10 -20 -25 -38 -34 -18 -8 -75 -52 -127 -98 -53 -46 -109 -92 -125
-102 -34 -22 -206 -161 -248 -200 -15 -14 -31 -26 -35 -26 -4 0 -15 -8 -23
-17 -9 -10 -46 -43 -84 -73 -169 -137 -332 -273 -351 -293 -26 -28 -92 -80
-122 -96 -13 -7 -52 -38 -87 -70 -35 -32 -115 -97 -177 -144 -62 -47 -133
-106 -158 -131 -24 -25 -48 -46 -53 -46 -9 0 -18 -6 -78 -59 -25 -23 -50 -41
-54 -41 -8 0 -124 -93 -161 -129 -18 -17 -34 -21 -96 -21 -42 0 -89 3 -106 6
l-31 6 3 67 c1 37 5 72 9 78 4 6 2 24 -4 41 -14 42 0 65 67 108 30 19 54 39
54 44 0 6 8 10 18 10 10 0 28 13 40 30 12 16 56 52 97 80 40 27 96 71 122 97
26 27 84 76 128 111 44 35 89 71 100 80 11 10 42 33 69 52 27 19 69 55 95 79
25 24 73 62 106 84 33 22 81 61 106 86 62 61 112 100 160 124 22 10 54 37 73
58 18 22 36 39 41 39 4 0 36 25 70 55 35 30 71 55 80 55 9 0 22 13 27 28 6 16
26 38 45 51 48 31 259 198 308 243 22 21 48 40 58 44 9 3 17 9 17 14 0 5 17
19 38 31 20 13 52 40 70 60 29 33 39 38 85 42 115 8 124 7 139 -10z m3005 -16
c16 -16 17 -72 20 -669 1 -359 2 -664 2 -678 0 -14 1 -70 3 -125 2 -55 3 -163
3 -239 l0 -140 -28 -7 c-16 -4 -44 -5 -63 -2 -29 5 -32 7 -18 17 20 15 15 75
-7 89 -13 8 -24 6 -43 -6 -21 -14 -26 -25 -26 -58 0 -40 0 -41 -32 -34 -54 11
-65 33 -67 132 -3 172 -10 374 -14 381 -2 4 2 45 9 92 16 103 18 200 4 200 -6
0 -10 112 -10 313 -1 592 1 721 11 738 17 33 223 29 256 -4z m1861 17 c21 -6
13 -42 -15 -63 -37 -27 -86 -68 -137 -113 -22 -21 -47 -38 -54 -38 -7 0 -15
-7 -18 -15 -4 -8 -13 -15 -20 -15 -8 0 -18 -10 -23 -23 -9 -24 -30 -42 -152
-137 -39 -30 -92 -75 -118 -100 -77 -73 -169 -140 -192 -140 -31 0 -87 35
-140 89 -26 25 -84 78 -129 116 -83 70 -143 125 -300 271 -47 44 -100 92 -118
107 -39 32 -37 57 5 58 15 0 132 1 258 0 487 0 626 1 815 8 179 7 306 5 338
-5z m330 -22 c18 -22 21 -34 16 -67 -8 -53 -21 -72 -89 -125 -31 -25 -91 -78
-133 -119 -42 -41 -99 -91 -126 -113 -27 -21 -57 -49 -67 -62 -10 -13 -39 -33
-64 -45 -25 -12 -45 -26 -45 -32 0 -5 5 -7 10 -4 6 3 10 1 10 -5 0 -16 -59
-48 -81 -43 -13 4 -21 -2 -28 -19 -5 -13 -16 -29 -24 -36 -8 -7 -18 -23 -21
-36 -6 -24 -65 -66 -93 -66 -8 0 -47 -30 -87 -68 -39 -37 -96 -89 -126 -116
-30 -27 -80 -72 -110 -100 -31 -28 -75 -67 -99 -86 -24 -19 -100 -89 -168
-155 -116 -111 -225 -203 -276 -232 -12 -7 -18 -13 -13 -13 15 0 -37 -51 -69
-67 -16 -9 -50 -36 -75 -62 -25 -25 -79 -73 -120 -106 -68 -54 -79 -59 -132
-63 -89 -7 -100 7 -94 120 5 86 6 91 41 130 21 22 94 86 163 141 70 55 156
129 191 164 36 35 69 63 73 63 5 0 44 33 86 73 42 40 101 90 130 111 28 21 52
41 52 45 0 3 35 36 77 71 42 36 97 84 122 108 107 101 127 119 151 134 14 9
63 51 109 94 46 44 98 86 115 96 17 9 54 40 82 70 28 29 73 71 100 93 27 21
86 75 130 118 45 44 94 87 108 96 15 10 42 33 61 52 97 98 90 94 195 91 89 -3
96 -5 118 -30z m220 31 c39 -4 56 -11 65 -27 12 -21 20 -357 16 -646 -4 -229
-4 -772 -1 -825 5 -70 -5 -321 -14 -348 -10 -32 -22 -37 -97 -37 -70 0 -120
17 -130 44 -3 8 -3 92 0 188 3 95 5 182 5 193 -1 11 -1 202 0 425 0 223 0 416
0 430 -1 14 -2 150 -4 304 -3 268 -2 279 17 292 21 15 61 17 143 7z m2036 -7
c108 -3 183 -9 189 -15 6 -6 20 -11 30 -11 10 0 21 -9 24 -20 3 -11 8 -20 12
-20 4 0 8 -57 9 -127 4 -251 4 -309 4 -373 -1 -36 -1 -300 -2 -587 0 -320 -4
-532 -10 -548 -6 -15 -10 -53 -10 -85 0 -74 -9 -80 -133 -85 -241 -10 -1994
-1 -2005 9 -6 7 -10 221 -9 456 0 47 0 96 0 110 -1 65 -15 1147 -14 1165 1 76
3 100 11 115 8 14 61 15 557 12 750 -5 1017 -2 1029 11 5 4 38 5 74 2 36 -3
145 -7 244 -9z m-12743 -6 c36 -20 15 -108 -35 -147 -14 -11 -41 -40 -61 -63
-20 -23 -52 -55 -73 -70 -20 -15 -55 -45 -78 -66 -22 -22 -79 -73 -125 -114
-46 -41 -135 -124 -196 -185 -154 -150 -185 -174 -245 -189 -22 -5 -37 3 -87
46 -34 28 -61 55 -61 59 0 5 17 23 37 41 20 18 68 63 106 101 39 37 74 67 78
67 4 0 16 15 26 33 11 18 40 43 65 56 28 16 55 40 71 67 22 37 177 174 197
174 4 0 16 13 27 29 10 16 53 61 97 100 l78 71 80 0 c43 0 88 -5 99 -10z
m2670 -12 c7 -13 11 -86 8 -148 -1 -14 -1 -133 -1 -265 1 -683 -12 -1407 -25
-1429 -3 -5 -27 -6 -54 -3 -30 4 -51 2 -55 -5 -5 -7 -58 -8 -168 -4 -266 11
-479 11 -483 1 -2 -6 -265 -9 -731 -8 -400 0 -732 1 -738 2 -6 1 -11 21 -11
49 1 66 -14 183 -25 205 -7 14 -5 25 9 40 18 20 19 31 11 142 -11 145 -11 130
1 184 5 26 5 69 1 103 -5 32 -5 109 -1 171 4 62 7 171 6 242 -1 72 1 137 6
146 5 9 4 64 -1 123 -8 92 -7 110 8 135 13 24 15 36 6 63 -11 31 -10 218 1
246 3 8 21 13 47 12 144 -1 1594 12 1597 16 2 2 134 2 294 0 241 -2 291 -5
298 -18z m2900 12 l76 0 11 -100 c8 -65 9 -108 2 -125 -5 -13 -7 -44 -4 -67 4
-38 14 -694 14 -913 -1 -145 2 -589 4 -625 2 -55 -27 -64 -176 -50 -68 6 -125
14 -127 16 -3 2 -6 152 -8 332 -1 180 -3 338 -3 352 -3 100 8 431 15 459 6 26
4 37 -7 45 -14 10 -14 19 0 84 12 54 13 78 4 94 -12 27 -25 132 -24 203 1 28
1 100 1 162 1 104 3 113 24 128 16 12 35 15 72 11 28 -3 84 -6 126 -6z m1814
-5 c264 -3 499 -5 523 -5 26 0 44 -4 47 -12 11 -28 12 -215 1 -246 -9 -27 -7
-39 6 -63 15 -25 16 -43 8 -135 -5 -59 -6 -114 -1 -123 5 -9 7 -74 6 -146 -1
-71 2 -180 6 -242 4 -62 4 -139 -1 -171 -4 -34 -4 -77 1 -103 12 -54 12 -39 1
-184 -8 -111 -7 -122 11 -142 14 -15 16 -26 9 -40 -11 -22 -26 -139 -25 -206
0 -27 -5 -47 -11 -48 -6 -1 -338 -2 -738 -2 -466 -1 -729 2 -731 8 -4 10 -217
10 -483 -1 -110 -4 -163 -3 -168 4 -4 7 -25 9 -55 5 -27 -3 -51 -2 -54 3 -13
22 -26 746 -25 1429 0 132 0 251 -1 265 -3 64 1 135 9 150 8 16 55 17 597 13
323 -1 804 -6 1068 -8z m1261 -56 c44 -39 87 -84 97 -100 11 -16 23 -29 27
-29 20 0 175 -137 197 -174 16 -27 43 -51 71 -67 25 -13 54 -38 65 -56 10 -18
22 -33 26 -33 4 0 39 -30 78 -67 38 -38 86 -83 106 -101 20 -18 37 -36 37 -41
0 -4 -27 -31 -61 -59 -50 -43 -65 -51 -87 -46 -60 15 -91 39 -245 189 -61 61
-150 144 -196 185 -46 41 -103 92 -125 114 -23 21 -58 51 -78 66 -21 15 -53
47 -73 70 -20 23 -47 52 -61 63 -49 38 -71 126 -36 146 9 6 54 11 98 11 l82 0
78 -71z m-10692 -198 c17 -15 85 -79 151 -140 66 -61 151 -142 189 -179 38
-37 95 -87 127 -112 32 -25 67 -57 79 -73 12 -15 35 -34 50 -42 16 -8 40 -25
53 -38 14 -12 36 -30 51 -40 14 -10 26 -26 26 -35 0 -18 -68 -89 -190 -200
-131 -119 -249 -229 -407 -380 -64 -61 -160 -128 -170 -118 -3 3 -8 30 -10 59
-3 42 -13 628 -13 690 1 9 1 32 1 50 2 60 3 401 3 495 -1 105 7 113 60 63z
m12542 -63 c0 -94 1 -435 3 -495 0 -18 0 -41 1 -50 0 -62 -10 -648 -13 -690
-2 -29 -7 -56 -10 -59 -10 -10 -106 57 -170 118 -158 151 -276 261 -407 380
-122 111 -190 182 -190 200 0 9 12 25 26 35 15 10 37 28 51 40 13 13 37 30 53
38 15 8 38 27 50 42 12 16 47 48 79 73 32 25 89 75 127 112 38 37 125 120 194
183 69 64 136 127 149 141 13 13 32 24 41 24 15 0 17 -12 16 -92z m-7346 37
c19 -19 37 -35 42 -35 4 0 45 -38 90 -84 113 -113 165 -156 193 -156 16 0 28
-9 37 -27 7 -15 33 -41 58 -57 25 -17 86 -71 136 -121 50 -49 110 -103 133
-119 68 -49 57 -72 -69 -157 -90 -60 -370 -287 -370 -300 0 -4 -20 -19 -44
-33 -24 -14 -80 -57 -125 -96 -45 -38 -86 -70 -91 -70 -6 0 -13 0 -16 1 -4 0
-10 -4 -13 -10 -4 -6 -12 -6 -20 -2 -15 10 -15 -22 -13 546 1 501 10 755 27
755 6 0 26 -16 45 -35z m-3150 10 c16 -19 8 -515 -9 -560 -9 -24 -9 -40 2 -70
18 -51 14 -600 -4 -621 -24 -29 -45 -15 -189 120 -19 19 -64 55 -100 82 -36
26 -109 88 -162 136 -54 48 -105 88 -113 88 -9 0 -19 9 -23 19 -4 11 -26 34
-48 53 -23 18 -56 50 -73 70 l-32 37 37 33 c59 52 74 67 74 76 0 4 13 16 29
26 16 11 36 32 45 48 9 15 45 49 79 75 34 26 91 76 127 112 36 36 111 107 167
156 166 146 169 148 193 120z m8451 -7 c52 -40 231 -201 299 -269 36 -36 93
-86 127 -112 34 -26 70 -60 79 -75 9 -16 29 -37 45 -48 16 -10 29 -22 29 -26
0 -9 15 -24 74 -76 l37 -33 -32 -37 c-17 -20 -50 -52 -73 -70 -22 -19 -44 -42
-48 -53 -4 -10 -14 -19 -23 -19 -8 0 -59 -40 -113 -88 -53 -48 -126 -110 -162
-136 -36 -27 -81 -63 -100 -82 -144 -135 -165 -149 -189 -120 -18 21 -22 570
-4 621 11 30 11 46 2 70 -17 45 -25 541 -9 560 17 20 27 19 61 -7z m-3150 -75
c13 -14 22 -118 17 -193 -1 -25 -1 -99 1 -122 3 -27 -9 -417 -14 -481 -4 -49
0 -90 16 -152 14 -59 17 -89 11 -102 -6 -10 -10 -41 -11 -68 -1 -122 -5 -139
-37 -131 -14 4 -67 39 -117 78 -89 69 -121 95 -277 236 -41 37 -111 96 -154
132 -43 36 -100 83 -125 105 -25 22 -61 52 -79 66 -40 31 -36 43 24 89 25 19
57 45 71 58 13 12 28 22 34 22 5 0 12 7 15 15 4 8 11 15 17 15 6 0 41 27 78
60 38 34 78 66 91 73 41 22 128 89 128 98 0 5 17 19 38 32 20 14 53 39 72 58
55 54 153 127 171 128 9 1 23 -6 30 -16z m-6470 -684 c39 -35 59 -60 59 -74 0
-15 -22 -41 -67 -81 -38 -32 -102 -90 -143 -130 -41 -40 -109 -101 -150 -136
-41 -34 -90 -79 -110 -98 -19 -19 -62 -57 -95 -84 -33 -28 -100 -90 -149 -138
l-89 -88 -88 0 -88 0 -10 35 c-15 57 4 110 57 153 25 20 55 46 66 58 12 12 48
43 81 69 33 27 76 64 95 84 49 50 237 224 280 258 19 16 51 43 70 61 109 99
187 162 203 162 10 0 45 -23 78 -51z m5733 -41 c98 -97 278 -248 295 -248 5 0
16 -8 23 -19 7 -10 60 -58 118 -106 58 -49 129 -111 159 -137 29 -27 70 -57
91 -68 20 -10 48 -34 62 -52 23 -30 24 -38 17 -97 -4 -34 -12 -68 -17 -73 -7
-7 -44 -6 -112 1 l-102 11 -78 68 c-43 37 -104 87 -135 112 -31 25 -70 58 -88
74 -18 16 -50 40 -72 54 -22 14 -51 37 -65 51 -61 63 -279 249 -322 276 -26
17 -54 43 -62 59 -14 28 -13 32 11 60 14 17 49 46 77 65 28 19 57 41 64 48 7
7 20 13 28 13 8 0 57 -42 108 -92z m5166 27 c41 -36 91 -80 110 -97 19 -18 51
-45 70 -61 43 -34 231 -208 280 -258 19 -20 62 -57 95 -84 33 -26 69 -57 81
-69 11 -12 41 -38 66 -58 53 -43 72 -96 57 -153 l-10 -35 -88 0 -88 0 -89 88
c-49 48 -116 110 -149 138 -33 27 -76 65 -95 84 -20 19 -69 64 -110 98 -41 35
-109 96 -150 136 -41 40 -105 98 -142 130 -44 38 -68 66 -68 80 0 26 106 125
135 126 11 0 54 -29 95 -65z m-10602 -247 c71 -62 176 -151 233 -198 56 -47
117 -99 135 -117 18 -18 54 -51 81 -74 125 -109 166 -150 155 -161 -8 -8 -19
-8 -38 1 -20 9 -30 9 -40 0 -9 -8 -33 -10 -67 -6 -28 4 -46 3 -39 -2 21 -13
-134 -21 -213 -11 -91 11 -400 14 -540 5 -117 -7 -200 -8 -411 -7 -103 1 -134
5 -143 16 -11 13 -8 20 16 41 60 53 69 62 94 91 40 45 247 232 314 283 31 23
185 162 242 219 56 54 73 48 221 -80z m10355 80 c57 -57 211 -196 242 -219 67
-51 274 -238 314 -283 25 -29 34 -38 94 -91 24 -21 27 -28 16 -41 -9 -11 -40
-15 -143 -16 -211 -1 -294 0 -411 7 -140 9 -449 6 -540 -5 -79 -10 -234 -2
-213 11 7 5 -11 6 -39 2 -34 -4 -58 -2 -67 6 -10 9 -20 9 -40 0 -19 -9 -30 -9
-38 -1 -11 11 30 52 155 161 27 23 63 56 81 74 18 18 79 70 135 117 57 47 162
136 233 198 148 128 165 134 221 80z m-5225 -6 c46 -47 213 -192 221 -192 4 0
39 -30 77 -66 38 -36 92 -83 119 -104 28 -21 78 -65 113 -98 35 -33 93 -80
128 -106 93 -66 87 -79 -41 -88 -160 -11 -678 -3 -683 11 -5 15 -59 14 -64 -1
-6 -17 -87 -11 -105 7 -20 20 -39 19 -63 -5 -24 -24 -75 -27 -84 -5 -6 16 -76
22 -90 8 -11 -12 -154 -14 -161 -3 -8 13 -52 13 -60 0 -3 -5 -42 -10 -86 -10
-65 0 -81 3 -86 17 -4 11 1 22 18 32 13 9 40 31 59 49 37 35 86 71 135 99 17
10 50 39 75 64 41 41 85 78 161 133 94 69 288 228 292 240 4 11 51 33 95 45 1
1 15 -12 30 -27z"/>
<path d="M2396 3058 c-7 -18 -18 -46 -23 -63 -12 -37 -45 -44 -91 -19 -25 13
-38 15 -50 7 -25 -15 -26 -40 -3 -48 30 -9 108 -101 122 -143 26 -81 83 -153
108 -138 5 3 11 18 14 34 3 16 16 34 30 41 15 8 32 32 43 60 10 26 41 71 72
103 54 57 61 81 27 94 -8 3 -40 -8 -71 -26 -31 -17 -65 -30 -77 -28 -22 3 -25
12 -52 136 -8 32 -34 27 -49 -10z"/>
<path d="M3454 3081 c-17 -4 -36 -11 -42 -15 -10 -6 -177 -25 -360 -41 -23 -2
-47 -7 -54 -11 -6 -4 -25 -9 -41 -10 -17 -2 -38 -10 -46 -18 -9 -7 -37 -23
-63 -34 -25 -11 -66 -38 -90 -59 -24 -22 -57 -49 -75 -61 -37 -26 -54 -69 -54
-143 0 -78 13 -110 72 -181 67 -80 106 -107 179 -120 101 -19 155 -1 237 80
87 86 123 133 159 207 16 33 48 84 71 113 24 30 43 58 43 64 0 14 68 107 102
140 29 28 36 66 16 86 -7 7 -14 12 -17 11 -4 -1 -20 -4 -37 -8z m-84 -116 c0
-22 -28 -75 -55 -105 -12 -14 -26 -42 -29 -62 -4 -21 -15 -43 -25 -50 -10 -7
-26 -29 -36 -48 -43 -84 -168 -197 -241 -218 -66 -19 -95 -15 -153 24 -71 48
-105 120 -95 202 5 45 14 63 52 106 81 91 172 138 252 129 25 -3 72 1 105 7
50 11 125 21 208 28 9 1 17 -5 17 -13z"/>
<path d="M3125 2889 c-92 -16 -160 -32 -180 -42 -11 -6 -50 -39 -87 -75 -53
-51 -68 -72 -68 -94 0 -36 34 -103 55 -112 61 -23 174 14 230 76 56 61 105
126 105 141 0 8 9 25 19 38 10 14 21 36 22 49 5 29 -16 34 -96 19z"/>
<path d="M1468 3053 c-25 -27 -25 -30 -13 -72 8 -24 22 -53 33 -65 11 -11 25
-37 31 -57 7 -21 29 -61 49 -90 21 -30 49 -75 64 -100 42 -72 156 -173 225
-199 116 -44 225 -36 314 24 48 31 64 56 95 139 l17 48 -26 27 c-15 16 -27 37
-27 48 -2 48 -69 123 -135 148 -16 6 -17 9 -5 16 8 6 11 10 5 11 -5 1 -14 3
-20 4 -5 1 -40 16 -76 33 -140 65 -319 112 -435 112 -64 0 -73 -2 -96 -27z
m217 -32 c89 -15 191 -48 275 -90 69 -34 81 -46 146 -132 68 -89 71 -97 71
-148 0 -49 -2 -55 -29 -70 -17 -9 -49 -28 -71 -43 -62 -39 -155 -39 -232 0
-50 25 -116 84 -143 127 -13 22 -41 63 -62 90 -20 28 -43 66 -50 85 -8 19 -22
46 -32 59 -10 13 -18 32 -18 43 0 10 -7 30 -16 43 -14 21 -14 28 -3 41 14 17
42 16 164 -5z"/>
<path d="M1597 2973 c-16 -16 -3 -47 57 -129 74 -104 95 -127 156 -175 66 -53
82 -59 149 -59 60 0 61 1 87 40 33 50 28 72 -30 136 -60 67 -170 131 -257 149
-38 8 -83 22 -99 30 -31 16 -53 19 -63 8z"/>
<path d="M2371 2549 c-13 -14 -26 -19 -40 -14 -31 9 -57 -10 -101 -76 -49 -70
-56 -103 -41 -184 8 -45 22 -73 54 -114 57 -73 93 -91 198 -94 75 -2 88 1 120
22 19 14 45 38 57 55 12 17 29 41 38 53 24 33 35 92 28 152 -6 46 -14 63 -58
114 -70 82 -90 94 -168 101 -60 6 -69 4 -87 -15z m126 -65 c74 -22 89 -39 103
-122 14 -84 1 -125 -51 -164 -53 -40 -75 -48 -128 -49 -43 -1 -55 3 -93 34
-51 42 -74 102 -63 168 11 66 96 140 168 148 5 1 34 -6 64 -15z"/>
<path d="M2414 2433 c-42 -8 -85 -55 -91 -100 -5 -40 -3 -46 36 -84 38 -38 44
-41 78 -34 74 13 97 66 68 151 -25 74 -32 79 -91 67z"/>
<path d="M1556 2514 c-4 -9 0 -27 9 -40 26 -39 18 -57 -36 -87 -28 -16 -53
-36 -56 -44 -9 -24 10 -47 47 -54 51 -11 65 -30 49 -72 -6 -19 -9 -42 -6 -50
8 -22 56 -33 76 -19 9 7 34 21 56 33 22 12 49 29 60 39 20 18 63 36 156 66 76
23 92 64 25 64 -18 0 -58 14 -89 30 -31 17 -61 30 -66 30 -18 0 -98 42 -151
80 -62 45 -65 46 -74 24z"/>
<path d="M3270 2492 c0 -19 -71 -98 -102 -114 -98 -51 -148 -67 -179 -58 -35
10 -49 6 -49 -15 0 -15 54 -45 81 -45 43 0 185 -87 243 -150 21 -22 36 -30 55
-28 36 4 38 37 5 87 -33 50 -27 71 20 69 41 -1 89 26 84 50 -2 9 -22 23 -45
32 -63 23 -91 45 -75 61 24 26 7 119 -23 119 -8 0 -15 -4 -15 -8z"/>
<path d="M2814 2162 c-47 -26 -151 -112 -169 -138 -18 -28 -21 -145 -4 -195 7
-19 22 -45 34 -59 12 -14 33 -44 45 -67 16 -30 34 -46 56 -53 18 -6 59 -28 91
-48 32 -21 81 -46 108 -56 28 -10 73 -28 100 -41 88 -42 172 -75 187 -75 8 0
49 -18 91 -40 41 -22 80 -40 86 -40 13 0 15 76 2 84 -9 6 -81 223 -81 244 0 5
-15 35 -32 65 -18 31 -55 95 -82 143 -51 89 -65 106 -178 212 -62 57 -88 76
-74 53 3 -5 -11 -3 -32 4 -69 24 -115 26 -148 7z m198 -92 c53 -23 108 -80
163 -168 22 -35 52 -79 68 -99 16 -21 27 -48 27 -67 0 -34 27 -113 47 -137 7
-8 13 -23 13 -33 0 -9 7 -30 15 -47 29 -54 1 -63 -79 -25 -28 13 -89 36 -136
51 -83 27 -185 77 -285 141 -52 33 -128 116 -132 144 -1 8 -7 34 -14 57 -15
55 -4 83 61 151 l50 52 79 0 c57 0 91 -6 123 -20z"/>
<path d="M2870 2030 c-8 -5 -25 -10 -36 -10 -39 0 -71 -35 -78 -87 l-6 -47 86
-87 c64 -64 102 -93 147 -114 147 -65 183 -85 206 -109 26 -27 61 -35 61 -13
-1 25 -70 183 -91 207 -12 13 -29 36 -37 50 -9 14 -29 40 -44 58 -15 18 -28
39 -28 46 0 19 -75 85 -116 102 -39 16 -44 17 -64 4z"/>
<path d="M1955 2160 c-16 -4 -50 -8 -74 -9 -42 -1 -50 -6 -126 -83 -60 -61
-87 -96 -101 -133 -10 -27 -30 -70 -45 -95 -15 -25 -30 -60 -34 -79 -15 -71
-76 -237 -101 -272 -30 -44 -47 -149 -23 -149 35 1 131 29 148 44 9 9 55 27
102 42 104 31 276 100 309 124 14 10 41 24 60 32 19 9 60 40 91 69 46 45 60
67 79 124 23 70 27 112 17 215 -4 43 -11 59 -31 75 -14 11 -26 24 -26 28 0 13
-41 48 -50 42 -5 -3 -11 3 -14 12 -5 15 -18 18 -78 19 -40 0 -86 -3 -103 -6z
m134 -91 c25 -12 53 -25 61 -29 20 -9 42 -75 41 -123 0 -97 -62 -189 -194
-285 -57 -42 -255 -122 -354 -142 -23 -5 -51 -15 -62 -22 -31 -19 -36 -2 -13
46 12 24 22 61 22 82 0 25 9 52 24 74 12 19 28 51 35 70 14 43 114 216 144
248 30 32 124 84 167 93 60 12 81 10 129 -12z"/>
<path d="M1952 2004 c-79 -33 -188 -163 -251 -300 -17 -37 -43 -73 -65 -90
-72 -58 -29 -104 45 -48 19 14 77 47 129 73 156 77 184 98 251 188 51 69 61
95 48 132 -16 45 -100 70 -157 45z"/>
<path d="M2435 1928 c-2 -7 -6 -30 -10 -51 -16 -95 -45 -145 -132 -227 -69
-64 -83 -83 -78 -99 8 -27 46 -36 86 -22 18 6 44 11 59 11 23 0 30 -7 44 -45
10 -24 14 -49 11 -55 -4 -6 -1 -25 5 -41 9 -22 19 -29 34 -27 20 3 26 17 44
107 10 48 32 59 76 38 55 -26 116 -6 122 39 1 8 -12 21 -29 28 -44 19 -96 76
-99 108 -1 15 -9 29 -19 31 -20 5 -79 125 -79 160 0 47 -24 78 -35 45z"/>
<path d="M3690 3110 c-33 -33 -6 -80 46 -80 33 0 34 2 34 38 0 61 -40 82 -80
42z"/>
<path d="M3701 2904 c-36 -46 -25 -76 32 -86 36 -7 57 14 57 57 0 57 -54 74
-89 29z"/>
<path d="M3702 2698 c-7 -7 -12 -31 -12 -55 0 -32 5 -45 20 -53 52 -28 107 62
64 104 -18 19 -55 21 -72 4z"/>
<path d="M3674 2455 c-21 -32 -7 -69 31 -87 62 -28 103 42 52 90 -31 29 -63
28 -83 -3z"/>
<path d="M3688 2224 c-11 -22 -10 -28 7 -40 30 -22 64 -17 75 11 14 38 3 55
-36 55 -27 0 -37 -5 -46 -26z"/>
<path d="M3701 2036 c-7 -8 -11 -30 -9 -48 3 -29 7 -33 34 -36 57 -6 86 51 42
82 -28 20 -52 20 -67 2z"/>
<path d="M3695 1850 c-16 -18 -17 -23 -4 -46 18 -35 53 -51 74 -34 23 19 18
56 -11 79 -33 26 -36 26 -59 1z"/>
<path d="M3697 1633 c-14 -13 -7 -50 13 -68 36 -33 83 13 54 53 -14 21 -53 30
-67 15z"/>
<path d="M3702 1444 c-30 -20 -29 -59 2 -79 48 -32 86 20 56 76 -13 23 -28 24
-58 3z"/>
<path d="M4002 3088 c-18 -18 -14 -34 14 -52 51 -34 97 2 58 45 -19 21 -54 25
-72 7z"/>
<path d="M4164 2962 c-21 -13 -25 -49 -9 -66 18 -17 65 -22 65 -7 0 5 3 16 6
24 3 9 -4 25 -15 36 -23 23 -30 25 -47 13z"/>
<path d="M4306 2824 c-24 -23 -19 -51 10 -71 48 -31 86 25 45 66 -25 25 -35
26 -55 5z"/>
<path d="M4445 2696 c-24 -18 -15 -57 17 -76 25 -13 29 -13 44 2 36 36 -20
104 -61 74z"/>
<path d="M4602 2548 c-7 -7 -12 -20 -12 -30 0 -22 42 -50 63 -42 24 9 29 34
12 60 -17 26 -44 31 -63 12z"/>
<path d="M4767 2413 c-14 -13 -6 -53 12 -63 51 -27 86 1 57 45 -16 24 -54 34
-69 18z"/>
<path d="M4932 2264 c-12 -8 -22 -21 -22 -29 0 -17 38 -45 62 -45 10 0 24 11
30 25 9 21 8 28 -7 45 -22 24 -34 25 -63 4z"/>
<path d="M5071 2136 c-33 -39 25 -116 67 -90 28 18 27 59 -4 83 -31 25 -47 26
-63 7z"/>
<path d="M5221 1996 c-18 -22 -10 -48 21 -66 30 -16 60 -7 66 21 7 38 -63 74
-87 45z"/>
<path d="M5390 1870 c-18 -4 -25 -13 -25 -30 0 -21 7 -27 38 -34 44 -11 63 1
52 33 -8 27 -34 39 -65 31z"/>
<path d="M5514 1746 c-24 -18 -10 -46 29 -60 29 -11 57 5 57 33 0 39 -49 54
-86 27z"/>
<path d="M5657 1623 c-26 -25 26 -90 62 -78 25 8 43 36 33 52 -14 22 -81 41
-95 26z"/>
<path d="M5816 1471 c-20 -22 -13 -44 18 -61 48 -25 88 27 50 64 -21 21 -47
20 -68 -3z"/>
<path d="M4896 3055 c-25 -63 -46 -75 -120 -68 -56 5 -63 3 -84 -20 -31 -33
-25 -58 17 -79 18 -9 43 -26 55 -37 12 -11 40 -27 61 -34 51 -17 85 -66 85
-119 0 -49 32 -98 64 -98 26 0 56 28 56 53 0 9 4 18 9 21 5 3 12 21 15 40 8
42 56 83 139 120 68 30 74 53 27 105 -33 35 -45 36 -161 16 -33 -6 -37 -4 -43
18 -3 14 -3 39 0 55 8 40 -23 72 -70 72 -30 0 -35 -4 -50 -45z"/>
<path d="M6202 3098 c-7 -7 -12 -27 -12 -45 0 -30 3 -33 28 -33 28 0 62 26 62
48 0 32 -54 54 -78 30z"/>
<path d="M6200 2900 c-37 -37 -17 -90 34 -90 41 0 61 64 28 93 -24 22 -38 21
-62 -3z"/>
<path d="M6211 2701 c-36 -51 -25 -91 25 -91 30 0 34 4 43 38 14 48 14 48 -5
66 -23 23 -40 20 -63 -13z"/>
<path d="M6192 2498 c-31 -31 5 -92 48 -81 26 7 52 50 45 73 -5 15 -15 20 -44
20 -20 0 -42 -5 -49 -12z"/>
<path d="M6195 2270 c-21 -40 -19 -55 8 -67 47 -22 93 29 67 76 -17 32 -56 27
-75 -9z"/>
<path d="M6206 2089 c-41 -32 -33 -67 20 -83 46 -14 73 54 36 87 -23 21 -24
21 -56 -4z"/>
<path d="M6202 1904 c-39 -27 -27 -94 19 -94 49 0 76 61 41 93 -23 21 -32 21
-60 1z"/>
<path d="M6180 1711 c-26 -50 37 -104 72 -61 24 29 23 46 -4 64 -30 21 -55 20
-68 -3z"/>
<path d="M6185 1526 c-18 -27 -13 -46 15 -64 45 -28 91 37 50 70 -30 24 -46
23 -65 -6z"/>
<path d="M8842 3097 c-23 -25 -21 -58 6 -89 20 -24 34 -23 60 5 15 16 22 36
22 65 0 41 -1 42 -33 42 -22 0 -41 -8 -55 -23z"/>
<path d="M8862 2900 c-29 -27 -28 -51 3 -80 34 -32 59 -18 63 34 5 62 -26 83
-66 46z"/>
<path d="M8858 2699 c-29 -16 -24 -84 7 -105 39 -26 60 -15 63 33 2 32 -2 47
-17 62 -24 24 -29 25 -53 10z"/>
<path d="M8845 2446 c-30 -45 20 -110 65 -86 16 8 20 21 20 60 l0 50 -35 0
c-25 0 -39 -6 -50 -24z"/>
<path d="M8850 2250 c-17 -32 -8 -71 20 -92 40 -29 60 -15 60 43 0 38 -4 51
-19 59 -30 15 -49 12 -61 -10z"/>
<path d="M8856 2018 c-34 -48 -11 -88 49 -88 25 0 26 2 23 53 -3 48 -5 52 -30
55 -18 2 -31 -4 -42 -20z"/>
<path d="M8841 1806 c-21 -25 -9 -69 22 -84 42 -20 67 -7 67 33 0 52 -60 86
-89 51z"/>
<path d="M8846 1578 c-20 -28 -20 -43 0 -62 20 -21 70 -21 78 0 10 25 7 59 -6
72 -19 19 -55 14 -72 -10z"/>
<path d="M8833 1399 c-21 -21 -15 -56 13 -78 32 -25 47 -26 64 -6 7 8 16 12
21 9 10 -6 0 57 -11 69 -13 15 -75 19 -87 6z"/>
<path d="M9142 3118 c-29 -29 -5 -68 40 -68 36 0 45 22 24 55 -18 27 -45 32
-64 13z"/>
<path d="M9250 2990 c0 -44 25 -66 60 -55 43 14 8 95 -40 95 -17 0 -20 -7 -20
-40z"/>
<path d="M9392 2901 c-8 -5 -12 -21 -10 -37 2 -23 8 -30 31 -32 28 -3 57 12
57 29 0 14 -38 49 -52 49 -7 0 -19 -4 -26 -9z"/>
<path d="M9522 2778 c-32 -32 10 -78 51 -56 32 16 15 68 -23 68 -9 0 -21 -5
-28 -12z"/>
<path d="M9662 2678 c-19 -19 -14 -34 19 -63 62 -51 107 -9 49 45 -35 33 -50
36 -68 18z"/>
<path d="M9822 2544 c-27 -19 -28 -45 -3 -68 25 -23 70 -17 88 11 14 20 13 24
-11 48 -29 29 -43 31 -74 9z"/>
<path d="M9937 2423 c-15 -15 -5 -43 24 -67 38 -32 56 -33 70 -2 16 35 -15 75
-57 76 -17 0 -34 -3 -37 -7z"/>
<path d="M10195 3044 c-8 -20 -19 -53 -25 -74 -15 -55 -29 -63 -100 -55 -74 9
-117 -6 -127 -43 -13 -51 4 -62 162 -100 17 -5 39 -21 51 -39 38 -57 72 -93
88 -93 10 0 28 26 46 64 35 74 111 146 153 146 27 0 57 23 57 44 0 19 -19 32
-67 46 -37 11 -45 11 -75 -8 -31 -20 -36 -20 -56 -6 -17 11 -22 25 -22 58 0
33 -6 48 -28 69 -15 15 -31 27 -35 27 -4 0 -13 -16 -22 -36z"/>
<path d="M11184 3056 c-3 -8 -4 -25 -2 -38 2 -18 10 -24 34 -26 41 -4 57 16
41 48 -15 29 -64 40 -73 16z"/>
<path d="M11025 2926 c-17 -12 -18 -18 -7 -40 19 -42 92 -34 92 10 0 39 -50
56 -85 30z"/>
<path d="M10872 2794 c-30 -21 -28 -52 4 -66 45 -21 85 30 54 68 -16 18 -30
18 -58 -2z"/>
<path d="M10703 2653 c-19 -7 -16 -72 2 -79 21 -9 75 15 75 33 0 42 -36 63
-77 46z"/>
<path d="M10528 2519 c-23 -13 -23 -32 1 -53 28 -25 75 -18 79 12 7 44 -37 66
-80 41z"/>
<path d="M10356 2378 c-36 -51 -10 -85 53 -68 34 9 41 15 41 35 0 25 -33 55
-62 55 -9 0 -24 -10 -32 -22z"/>
<path d="M10162 2224 c-12 -8 -22 -25 -22 -38 0 -22 37 -66 56 -66 18 0 64 55
64 76 0 43 -54 59 -98 28z"/>
<path d="M10015 2101 c-32 -14 -57 -47 -53 -73 2 -18 10 -24 37 -26 61 -6 110
72 62 98 -22 11 -20 11 -46 1z"/>
<path d="M9838 1940 c-24 -15 -39 -45 -32 -64 16 -41 111 6 102 51 -4 21 -44
28 -70 13z"/>
<path d="M9655 1795 c-25 -21 -28 -28 -19 -42 15 -24 73 -21 91 4 39 52 -19
82 -72 38z"/>
<path d="M9507 1672 c-20 -22 -22 -43 -5 -60 17 -17 42 -15 61 6 21 23 21 36
1 56 -20 21 -37 20 -57 -2z"/>
<path d="M9346 1541 c-26 -29 -17 -56 18 -56 36 0 56 27 40 53 -16 24 -37 26
-58 3z"/>
<path d="M9184 1415 c-12 -49 17 -77 62 -57 30 14 31 46 2 66 -33 23 -57 20
-64 -9z"/>
<path d="M14146 3094 c-9 -8 -16 -21 -16 -28 0 -21 35 -46 63 -46 24 0 27 4
27 33 0 53 -40 76 -74 41z"/>
<path d="M14147 2902 c-30 -33 -11 -92 29 -92 51 0 71 53 34 90 -25 25 -42 25
-63 2z"/>
<path d="M14136 2714 c-19 -18 -19 -18 -5 -66 9 -34 13 -38 43 -38 50 0 61 40
25 91 -23 33 -40 36 -63 13z"/>
<path d="M14125 2490 c-7 -23 19 -66 45 -73 26 -7 60 20 60 47 0 32 -19 46
-61 46 -29 0 -39 -5 -44 -20z"/>
<path d="M14140 2279 c-26 -47 20 -98 68 -76 26 12 28 27 7 67 -19 36 -58 41
-75 9z"/>
<path d="M14147 2092 c-34 -38 -8 -100 37 -86 53 16 61 51 20 83 -33 26 -37
26 -57 3z"/>
<path d="M14147 1902 c-21 -23 -21 -41 -1 -70 18 -26 69 -30 78 -6 12 31 6 63
-16 78 -29 21 -41 20 -61 -2z"/>
<path d="M14162 1714 c-27 -18 -28 -35 -4 -64 23 -28 59 -20 73 17 19 51 -22
80 -69 47z"/>
<path d="M14160 1532 c-41 -33 5 -98 50 -70 28 18 33 37 15 64 -19 29 -35 30
-65 6z"/>
<path d="M15409 3079 c-16 -16 -20 -29 -15 -51 3 -16 3 -41 0 -55 -6 -22 -10
-24 -43 -18 -116 20 -128 19 -161 -16 -47 -52 -41 -75 27 -105 83 -37 131 -78
139 -120 3 -19 10 -37 15 -40 5 -3 9 -13 9 -23 0 -23 31 -51 58 -51 30 0 62
50 62 98 0 53 34 102 85 119 21 7 49 23 61 34 12 11 37 28 55 37 42 21 48 46
17 79 -21 23 -28 25 -84 20 -74 -7 -95 5 -120 68 -15 41 -20 45 -50 45 -21 0
-42 -8 -55 -21z"/>
<path d="M16336 3081 c-41 -45 14 -81 64 -41 20 16 23 22 14 37 -16 26 -57 28
-78 4z"/>
<path d="M16199 2949 c-11 -11 -18 -27 -15 -36 3 -8 6 -19 6 -24 0 -15 47 -10
65 7 22 23 4 73 -27 74 -5 0 -17 -9 -29 -21z"/>
<path d="M16049 2819 c-41 -41 -3 -97 45 -66 29 20 34 48 10 71 -20 21 -30 20
-55 -5z"/>
<path d="M15922 2697 c-30 -14 -40 -54 -18 -75 15 -15 19 -15 44 -2 55 31 31
103 -26 77z"/>
<path d="M15745 2536 c-28 -43 8 -79 51 -51 26 17 31 44 12 63 -19 19 -46 14
-63 -12z"/>
<path d="M15575 2396 c-21 -32 -13 -56 18 -56 35 0 59 22 55 51 -5 36 -51 39
-73 5z"/>
<path d="M15415 2260 c-15 -17 -16 -24 -7 -45 6 -14 20 -25 30 -25 24 0 62 28
62 45 0 15 -37 45 -56 45 -6 0 -19 -9 -29 -20z"/>
<path d="M15276 2129 c-31 -24 -32 -65 -4 -83 42 -26 100 51 67 90 -16 19 -32
18 -63 -7z"/>
<path d="M15133 2000 c-53 -22 -31 -94 23 -74 36 12 52 39 38 62 -13 20 -31
24 -61 12z"/>
<path d="M14969 1859 c-39 -39 -14 -69 44 -52 25 7 32 14 32 33 0 34 -49 46
-76 19z"/>
<path d="M14822 1748 c-32 -32 2 -78 45 -62 39 14 53 42 29 60 -24 17 -58 18
-74 2z"/>
<path d="M14688 1619 c-35 -13 -42 -35 -18 -59 26 -26 42 -25 69 4 42 45 12
78 -51 55z"/>
<path d="M14526 1474 c-38 -37 2 -89 50 -64 31 17 38 39 18 61 -21 23 -47 24
-68 3z"/>
<path d="M16652 3118 c-7 -7 -12 -29 -12 -50 0 -36 1 -38 34 -38 52 0 79 47
46 80 -23 23 -50 26 -68 8z"/>
<path d="M16638 2919 c-22 -12 -24 -71 -4 -92 9 -9 26 -12 43 -9 57 10 68 40
32 86 -22 27 -43 32 -71 15z"/>
<path d="M16636 2694 c-43 -42 12 -132 64 -104 15 8 20 21 20 53 0 24 -5 48
-12 55 -17 17 -54 15 -72 -4z"/>
<path d="M16652 2457 c-48 -51 -8 -117 53 -89 38 18 52 55 31 87 -21 32 -55
32 -84 2z"/>
<path d="M16636 2235 c-3 -8 -1 -26 4 -40 11 -28 45 -33 75 -11 17 12 18 18 7
40 -9 21 -19 26 -46 26 -21 0 -36 -6 -40 -15z"/>
<path d="M16642 2034 c-44 -31 -15 -88 42 -82 27 3 31 7 34 36 6 57 -30 78
-76 46z"/>
<path d="M16656 1849 c-29 -23 -34 -60 -11 -79 21 -17 56 -1 74 34 13 23 12
28 -4 46 -23 25 -26 25 -59 -1z"/>
<path d="M16646 1619 c-17 -24 -7 -55 20 -66 23 -8 55 27 52 56 -4 36 -49 42
-72 10z"/>
<path d="M16650 1441 c-30 -56 8 -108 56 -76 31 20 32 59 2 79 -30 21 -45 20
-58 -3z"/>
<path d="M16901 3077 c-19 -19 -12 -57 17 -85 34 -33 102 -126 102 -140 0 -6
19 -34 43 -64 23 -29 55 -80 71 -113 36 -74 72 -121 159 -207 82 -81 136 -99
237 -80 73 13 112 40 179 120 59 71 72 103 72 181 0 74 -17 117 -54 143 -18
12 -51 39 -75 61 -24 21 -65 48 -90 59 -26 11 -54 27 -63 34 -8 8 -29 16 -46
18 -16 1 -35 6 -41 10 -7 4 -31 9 -54 11 -195 17 -350 35 -365 43 -32 16 -80
21 -92 9z m314 -119 c17 -5 73 -11 126 -13 133 -4 194 -32 281 -131 38 -43 47
-61 52 -106 10 -82 -24 -154 -95 -202 -58 -39 -87 -43 -153 -24 -73 21 -198
134 -241 218 -10 19 -26 41 -36 48 -10 7 -21 29 -25 50 -3 20 -17 48 -29 62
-27 30 -55 83 -55 104 0 12 13 14 73 10 39 -3 86 -10 102 -16z"/>
<path d="M17189 2893 c-4 -22 5 -50 22 -72 10 -13 19 -30 19 -38 0 -15 49 -80
105 -141 56 -62 169 -99 230 -76 21 9 55 76 55 111 0 22 -15 43 -62 89 -98 94
-90 90 -258 119 -98 17 -110 18 -111 8z"/>
<path d="M17966 3068 c-28 -125 -31 -133 -53 -136 -12 -2 -46 11 -77 28 -31
18 -63 29 -71 26 -34 -13 -27 -37 27 -94 31 -32 62 -77 72 -103 11 -28 28 -52
43 -60 14 -7 27 -25 30 -41 3 -16 9 -31 14 -34 25 -15 82 57 108 138 14 42 92
134 122 143 23 8 22 33 -3 48 -12 8 -25 6 -50 -7 -56 -30 -78 -20 -102 49 -23
64 -51 85 -60 43z"/>
<path d="M18701 3065 c-89 -20 -214 -61 -290 -97 -36 -17 -70 -32 -76 -33 -5
-1 -14 -3 -20 -4 -5 -1 -3 -5 5 -11 12 -7 11 -10 -5 -16 -66 -25 -133 -100
-135 -148 0 -11 -12 -32 -27 -48 l-26 -27 17 -48 c31 -83 47 -108 95 -139 89
-60 198 -68 314 -24 69 26 183 127 225 199 15 25 43 70 64 100 20 29 42 69 49
90 6 20 20 46 31 57 11 12 25 42 33 67 13 44 13 45 -14 71 -24 23 -34 26 -102
25 -40 0 -103 -7 -138 -14z m189 -40 c10 -12 9 -20 -4 -40 -9 -13 -16 -33 -16
-43 0 -11 -8 -30 -18 -43 -10 -13 -24 -40 -32 -59 -7 -19 -30 -57 -50 -85 -21
-27 -49 -68 -62 -90 -27 -43 -93 -102 -143 -127 -77 -39 -170 -39 -232 0 -22
15 -54 34 -71 43 -27 15 -29 21 -29 70 0 51 3 59 71 148 65 86 77 98 146 132
88 43 191 77 272 88 32 4 61 11 65 14 13 13 90 7 103 -8z"/>
<path d="M18748 2965 c-15 -8 -58 -22 -97 -30 -87 -18 -197 -82 -257 -149 -58
-64 -63 -86 -30 -136 26 -39 27 -40 87 -40 67 0 83 6 149 59 61 48 82 71 157
175 66 92 76 129 38 133 -11 2 -32 -4 -47 -12z"/>
<path d="M17921 2561 c-49 -6 -58 -12 -108 -65 -29 -31 -61 -69 -70 -82 -21
-33 -23 -159 -2 -194 32 -56 76 -109 109 -131 31 -21 45 -24 119 -22 105 3
141 21 198 94 32 41 46 69 54 114 15 81 8 114 -41 184 -44 66 -70 85 -101 76
-14 -5 -27 0 -40 14 -20 22 -28 23 -118 12z m137 -93 c109 -67 121 -206 24
-285 -38 -31 -50 -35 -93 -34 -53 1 -75 9 -128 49 -51 38 -65 80 -51 162 6 38
17 76 24 85 18 25 115 55 156 49 19 -3 50 -15 68 -26z"/>
<path d="M17933 2428 c-22 -26 -45 -110 -39 -143 8 -41 31 -61 79 -70 34 -7
40 -4 77 33 41 41 49 68 31 115 -19 50 -123 96 -148 65z"/>
<path d="M18780 2490 c-53 -38 -133 -80 -151 -80 -5 0 -35 -13 -66 -30 -31
-16 -71 -30 -89 -30 -67 0 -51 -41 25 -64 93 -30 136 -48 156 -66 11 -10 38
-27 60 -39 22 -12 47 -26 56 -33 20 -14 68 -3 76 19 3 8 0 31 -6 50 -16 42 -2
61 49 72 37 7 56 30 47 54 -3 8 -28 28 -56 44 -54 30 -62 48 -36 87 14 21 12
56 -4 56 -3 0 -31 -18 -61 -40z"/>
<path d="M17100 2474 c-14 -35 -12 -77 3 -93 15 -16 -13 -38 -76 -61 -23 -9
-43 -23 -45 -32 -5 -24 43 -51 84 -50 47 2 53 -19 20 -69 -33 -50 -31 -83 5
-87 19 -2 34 6 55 28 58 63 200 150 243 150 27 0 81 30 81 45 0 21 -14 25 -49
15 -31 -9 -81 7 -179 58 -31 16 -102 95 -102 114 0 19 -31 6 -40 -18z"/>
<path d="M17485 2166 c-28 -7 -57 -16 -64 -21 -10 -5 -12 -4 -7 3 16 26 -8 9
-72 -50 -113 -106 -127 -123 -178 -212 -27 -48 -64 -112 -81 -143 -18 -30 -33
-60 -33 -65 0 -21 -72 -238 -81 -244 -13 -8 -11 -84 2 -84 6 0 45 18 86 40 42
22 83 40 91 40 15 0 99 33 187 75 28 13 73 31 100 41 28 10 76 35 108 56 32
20 73 42 91 48 22 7 40 23 56 53 12 23 33 53 45 67 32 36 45 83 45 164 0 64
-3 75 -27 102 -59 65 -173 145 -205 143 -7 0 -36 -6 -63 -13z m165 -128 c65
-68 76 -96 61 -151 -7 -23 -13 -49 -14 -57 -4 -28 -80 -111 -132 -144 -100
-64 -202 -114 -285 -141 -47 -15 -108 -38 -136 -51 -80 -38 -108 -29 -79 25 8
17 15 38 15 47 0 10 6 25 13 33 20 24 47 103 47 137 0 19 11 46 28 67 15 20
45 64 67 99 92 146 152 186 283 187 l82 1 50 -52z"/>
<path d="M17474 2026 c-40 -18 -114 -84 -114 -102 0 -7 -13 -28 -28 -46 -15
-18 -35 -44 -44 -58 -8 -14 -25 -37 -37 -50 -21 -24 -90 -182 -91 -207 0 -22
35 -14 61 13 23 24 59 44 206 109 45 21 83 50 147 114 l86 87 -6 46 c-7 53
-27 76 -76 88 -18 5 -42 11 -53 14 -11 3 -34 -1 -51 -8z"/>
<path d="M18274 2147 c-3 -9 -9 -15 -14 -12 -9 6 -50 -29 -50 -42 0 -4 -12
-17 -26 -28 -20 -16 -27 -32 -31 -75 -10 -103 -6 -145 17 -215 19 -57 33 -79
79 -124 31 -29 72 -60 91 -69 19 -8 46 -22 60 -32 33 -24 205 -93 309 -124 47
-15 93 -33 102 -42 17 -15 113 -43 148 -44 24 0 7 105 -23 149 -25 35 -86 201
-101 272 -4 19 -19 54 -34 79 -15 25 -35 68 -45 95 -14 37 -40 72 -100 131
l-81 81 -70 8 c-38 4 -105 8 -148 9 -66 1 -78 -2 -83 -17z m261 -102 c33 -18
70 -44 82 -57 30 -32 130 -205 144 -248 7 -19 23 -51 35 -70 15 -22 24 -49 24
-74 0 -21 10 -58 22 -82 23 -48 18 -65 -13 -46 -11 7 -39 17 -62 22 -99 20
-297 100 -354 142 -132 96 -194 188 -194 285 -1 48 21 114 41 123 104 51 105
51 160 45 35 -4 77 -19 115 -40z"/>
<path d="M18390 2013 c-51 -8 -79 -25 -89 -54 -13 -37 -3 -63 48 -132 67 -90
95 -111 251 -188 52 -26 110 -59 129 -73 74 -56 117 -10 45 48 -22 17 -48 53
-65 90 -64 139 -172 267 -253 301 -19 8 -37 14 -38 14 -2 -1 -14 -4 -28 -6z"/>
<path d="M17946 1925 c-3 -9 -6 -28 -6 -42 0 -35 -59 -155 -79 -160 -10 -2
-18 -16 -19 -31 -3 -32 -55 -89 -99 -108 -17 -7 -30 -20 -29 -28 6 -45 67 -65
122 -39 44 21 66 10 76 -38 18 -90 24 -104 44 -107 15 -2 25 5 34 27 6 16 9
35 5 41 -3 6 1 31 11 55 14 38 21 45 44 45 15 0 41 -5 59 -11 40 -14 78 -5 86
22 6 16 -9 35 -75 97 -89 82 -113 122 -134 226 -13 60 -28 80 -40 51z"/>
<path d="M5905 3088 c-25 -29 -26 -33 -10 -44 12 -9 25 -10 45 -2 46 15 55 33
31 57 -28 28 -34 27 -66 -11z"/>
<path d="M5779 2999 c-26 -26 -22 -63 8 -67 28 -4 73 25 73 47 0 42 -47 54
-81 20z"/>
<path d="M5692 2908 c-26 -13 -40 -54 -23 -71 7 -7 19 -8 38 -1 23 8 28 15 28
43 0 38 -9 45 -43 29z"/>
<path d="M5550 2790 c-40 -40 -15 -77 38 -55 48 21 42 75 -9 75 -5 0 -18 -9
-29 -20z"/>
<path d="M5426 2667 c-51 -41 -14 -71 62 -51 12 4 22 14 22 24 0 54 -36 65
-84 27z"/>
<path d="M5293 2558 c-28 -13 -36 -34 -23 -59 14 -25 58 -24 88 0 27 23 28 39
5 57 -21 16 -40 16 -70 2z"/>
<path d="M5156 2435 c-9 -9 -16 -27 -16 -41 0 -19 5 -24 24 -24 13 0 34 9 47
19 20 16 22 23 13 38 -15 24 -48 28 -68 8z"/>
<path d="M8465 3070 c-49 -21 -86 -30 -125 -30 -75 0 -267 -62 -332 -106 -39
-28 -116 -113 -162 -182 -26 -38 -30 -53 -32 -124 -3 -92 9 -127 54 -155 15
-9 39 -27 54 -39 14 -12 56 -29 93 -39 64 -18 69 -18 114 -1 25 10 67 24 93
32 33 10 53 24 67 47 12 17 35 46 52 62 17 17 42 54 55 83 13 29 37 69 54 90
16 20 30 42 30 48 0 7 18 36 40 65 22 30 40 57 40 61 0 5 11 26 25 48 14 22
25 52 25 68 0 15 7 37 15 49 13 19 13 23 -1 37 -24 24 -81 19 -159 -14z m75
-38 c0 -15 -52 -136 -69 -162 -9 -14 -41 -74 -71 -133 -30 -60 -64 -114 -75
-119 -11 -6 -41 -30 -67 -54 -26 -24 -54 -44 -62 -44 -8 0 -27 -11 -42 -25
-22 -21 -37 -25 -86 -25 -75 0 -108 17 -147 77 -44 66 -46 81 -16 145 34 74
172 207 243 233 26 10 61 26 78 36 19 12 50 19 80 19 46 0 156 29 192 50 21
12 42 13 42 2z"/>
<path d="M8355 2931 c-22 -9 -64 -28 -92 -43 -29 -16 -63 -28 -75 -28 -23 0
-76 -31 -150 -87 -40 -30 -60 -78 -62 -148 -1 -38 2 -41 46 -65 l47 -25 28 23
c15 12 46 31 68 41 63 29 195 183 195 227 0 12 14 36 30 52 30 31 41 73 18 71
-7 -1 -31 -8 -53 -18z"/>
<path d="M6551 3082 c-11 -8 -9 -17 8 -53 11 -24 25 -51 30 -59 13 -23 48
-102 56 -130 11 -36 64 -131 91 -163 13 -16 24 -33 24 -40 0 -6 35 -45 78 -87
104 -103 190 -150 288 -157 62 -5 76 -3 101 14 15 11 47 30 70 42 50 25 73 63
74 123 0 24 4 52 8 63 11 27 -4 75 -44 144 -34 58 -89 102 -218 175 -72 41
-202 86 -246 86 -20 0 -41 4 -46 9 -23 23 -248 49 -274 33z m393 -108 c125
-40 178 -65 224 -105 18 -16 37 -29 41 -29 5 0 32 -35 61 -77 50 -75 52 -80
48 -135 -3 -40 -11 -65 -25 -80 -11 -13 -28 -37 -36 -53 -11 -23 -26 -33 -61
-43 -60 -16 -71 -15 -137 4 -40 12 -65 28 -98 63 -85 91 -159 187 -191 251
-18 36 -46 81 -61 100 -16 19 -29 45 -29 58 0 13 -7 36 -15 51 -8 16 -11 32
-7 36 16 17 179 -6 286 -41z"/>
<path d="M6767 2928 c-3 -7 12 -31 33 -53 21 -22 55 -74 76 -115 93 -183 299
-293 354 -190 18 34 -51 180 -112 235 -64 57 -153 100 -248 120 -91 18 -97 18
-103 3z"/>
<path d="M7560 3030 c-12 -17 -21 -43 -20 -58 1 -15 2 -33 1 -39 -1 -15 -47
-17 -56 -3 -9 15 -45 12 -51 -5 -7 -17 7 -32 58 -63 20 -13 40 -33 43 -45 4
-12 20 -51 38 -85 28 -57 32 -62 43 -45 77 115 86 126 148 182 28 24 34 56 14
64 -7 2 -30 -4 -50 -14 -21 -11 -46 -19 -56 -19 -25 0 -45 48 -36 84 7 29 -17
76 -41 76 -7 0 -23 -14 -35 -30z"/>
<path d="M7513 2516 c-58 -19 -96 -48 -131 -103 -72 -115 -54 -227 53 -321 77
-68 175 -81 270 -36 30 15 55 29 55 33 0 3 14 21 30 40 34 39 49 83 51 161 2
49 -2 61 -38 115 -47 69 -95 104 -156 116 -57 11 -85 10 -134 -5z m150 -70
c38 -16 94 -76 103 -112 17 -67 -22 -154 -90 -201 -58 -40 -92 -42 -161 -9
-77 35 -105 75 -105 145 0 136 132 228 253 177z"/>
<path d="M7523 2370 c-55 -24 -74 -55 -66 -103 3 -20 9 -37 13 -37 4 0 27 -16
51 -34 40 -32 48 -34 82 -27 44 11 73 43 82 91 8 49 -7 83 -48 109 -41 25 -59
25 -114 1z"/>
<path d="M8420 2478 c-44 -72 -123 -143 -197 -178 -34 -17 -67 -30 -72 -30
-15 0 -61 -22 -61 -29 0 -14 65 -41 98 -41 82 0 192 -77 222 -154 10 -27 38
-35 45 -13 2 6 6 33 10 60 5 39 3 47 -9 47 -9 0 -16 8 -16 18 0 14 22 30 76
56 48 24 79 46 86 62 14 31 11 33 -51 41 -31 3 -51 11 -51 19 0 9 -6 10 -30 1
-42 -16 -47 -4 -18 50 26 51 33 133 12 140 -7 2 -26 -20 -44 -49z"/>
<path d="M6690 2465 c-9 -11 -11 -36 -7 -86 7 -82 -5 -102 -69 -114 -22 -4
-45 -11 -51 -17 -39 -32 17 -88 86 -88 51 0 60 -17 39 -75 -13 -35 -14 -46 -2
-73 18 -43 44 -41 77 6 15 20 61 71 102 113 75 76 75 76 151 90 53 9 78 19 85
31 14 26 -24 38 -129 43 -77 4 -87 7 -116 34 -80 76 -92 89 -108 119 -19 35
-38 41 -58 17z"/>
<path d="M7130 2150 c-8 -5 -27 -10 -42 -10 -78 0 -246 -130 -288 -223 -11
-23 -38 -70 -59 -105 -22 -34 -52 -91 -68 -125 -15 -34 -37 -78 -50 -97 -13
-19 -23 -39 -23 -45 0 -6 -22 -37 -48 -68 -27 -32 -55 -69 -63 -83 -12 -23
-11 -27 6 -41 11 -8 31 -12 45 -9 61 12 121 32 195 66 55 26 121 45 212 63 87
17 143 33 163 47 16 11 51 27 78 35 107 32 247 189 255 285 3 48 -13 142 -33
179 -10 21 -31 46 -47 56 -15 10 -33 25 -38 33 -10 13 -133 52 -165 52 -8 0
-22 -5 -30 -10z m123 -80 c30 -11 63 -30 75 -43 26 -27 61 -104 62 -133 0 -45
-48 -131 -95 -170 -26 -22 -68 -58 -94 -80 -55 -49 -195 -99 -306 -110 -39 -3
-88 -14 -110 -24 -22 -10 -57 -23 -78 -29 -54 -14 -57 4 -15 92 19 40 41 90
48 112 7 22 33 63 57 92 24 28 48 67 54 85 10 39 57 90 114 126 22 13 49 33
61 43 22 21 115 56 151 58 12 0 46 -8 76 -19z"/>
<path d="M7091 1989 c-60 -36 -131 -101 -182 -166 -27 -34 -49 -67 -49 -72 0
-5 -10 -22 -23 -38 -35 -43 -68 -103 -62 -114 10 -15 42 -10 107 16 34 14 69
25 77 25 9 0 51 15 93 33 57 24 94 49 149 101 70 66 73 71 77 122 4 43 0 58
-18 83 -20 28 -26 31 -78 31 -40 0 -67 -6 -91 -21z"/>
<path d="M8085 2131 c-3 -6 -27 -7 -54 -4 -62 7 -148 -20 -179 -56 -30 -35
-92 -163 -99 -204 -13 -85 60 -196 176 -267 38 -22 77 -50 86 -60 10 -11 27
-20 38 -20 11 0 28 -6 36 -14 19 -17 75 -38 191 -73 77 -23 112 -35 220 -73
63 -22 84 -23 103 -2 17 18 16 21 -3 63 -11 24 -20 53 -20 64 0 39 -64 222
-86 246 -7 8 -19 31 -25 50 -16 46 -55 95 -163 202 -53 52 -106 94 -126 102
-19 6 -35 18 -35 25 0 7 -9 16 -20 21 -27 11 -33 10 -40 0z m28 -73 c32 -12
76 -37 95 -55 20 -19 42 -38 50 -42 8 -4 42 -41 77 -81 47 -54 75 -100 112
-184 64 -142 76 -174 77 -211 l1 -30 -58 3 c-36 2 -71 11 -93 24 -19 11 -51
24 -72 30 -76 19 -99 27 -197 68 -55 22 -103 47 -107 53 -4 7 -8 8 -8 2 0 -18
-132 120 -147 153 -19 45 -9 105 27 167 24 40 41 55 102 86 40 21 75 38 77 38
2 1 31 -9 64 -21z"/>
<path d="M7984 1976 c-32 -14 -74 -60 -74 -81 0 -27 41 -102 72 -132 45 -42
107 -83 128 -83 20 0 246 -113 270 -135 9 -8 24 -15 33 -15 29 0 20 45 -18 92
-19 24 -43 59 -54 79 -11 19 -27 41 -35 48 -9 8 -16 20 -16 27 0 19 -136 161
-182 190 -42 27 -78 30 -124 10z"/>
<path d="M7596 1852 c-3 -5 -10 -38 -16 -75 -6 -37 -15 -79 -21 -94 -14 -37
-66 -91 -104 -108 -66 -28 -92 -76 -60 -109 11 -11 23 -13 43 -6 15 5 51 11
79 15 51 5 53 5 58 -22 4 -15 10 -38 15 -50 20 -48 89 -9 76 43 -8 29 15 64
42 64 13 0 70 -35 82 -51 12 -16 53 -30 70 -24 20 6 27 39 12 61 -4 7 -29 24
-57 38 -60 32 -81 51 -110 97 -35 55 -75 161 -72 194 1 20 -3 30 -15 33 -9 2
-19 -1 -22 -6z"/>
<path d="M11472 3108 c-21 -21 -13 -53 21 -86 38 -37 48 -39 69 -14 27 31 29
64 6 89 -24 25 -76 31 -96 11z"/>
<path d="M11486 2898 c-21 -30 -20 -61 2 -81 25 -22 34 -21 60 6 28 29 28 51
0 77 -28 26 -43 25 -62 -2z"/>
<path d="M11495 2684 c-27 -29 -31 -54 -15 -85 13 -23 38 -24 68 -3 30 20 31
88 3 104 -27 14 -29 13 -56 -16z"/>
<path d="M11470 2449 c-26 -47 26 -113 70 -89 32 17 44 58 25 86 -21 32 -79
34 -95 3z"/>
<path d="M11484 2244 c-20 -19 -24 -31 -19 -52 6 -25 30 -52 46 -52 19 0 59
44 59 66 0 64 -42 83 -86 38z"/>
<path d="M11478 2029 c-20 -11 -23 -50 -8 -80 20 -37 100 -17 100 24 0 52 -48
82 -92 56z"/>
<path d="M11494 1797 c-51 -44 -8 -104 53 -75 47 22 41 98 -8 98 -10 0 -30
-10 -45 -23z"/>
<path d="M11492 1588 c-13 -13 -16 -47 -6 -72 13 -33 94 -10 94 27 0 43 -60
73 -88 45z"/>
<path d="M11503 1400 c-17 -7 -23 -18 -23 -38 0 -28 26 -62 47 -62 21 0 63 42
63 64 0 42 -36 56 -87 36z"/>
<path d="M11786 3084 c-14 -14 -14 -18 -1 -37 8 -12 15 -34 15 -49 0 -16 11
-46 25 -68 14 -22 25 -43 25 -48 0 -4 18 -31 40 -61 22 -29 40 -58 40 -65 0
-6 14 -28 30 -48 17 -21 41 -61 54 -90 13 -29 38 -66 55 -83 17 -16 40 -45 52
-62 14 -23 34 -37 67 -47 26 -8 68 -22 93 -32 45 -17 50 -17 114 1 37 10 79
27 93 39 15 12 39 30 54 39 45 28 57 63 54 155 -2 71 -6 86 -32 124 -46 69
-123 154 -162 182 -65 44 -257 106 -332 106 -39 0 -76 9 -125 30 -78 33 -135
38 -159 14z m194 -78 c41 -15 96 -26 123 -26 31 0 62 -7 81 -19 17 -10 52 -26
78 -36 71 -26 209 -159 243 -233 30 -64 28 -79 -16 -145 -39 -60 -72 -77 -147
-77 -49 0 -64 4 -86 25 -15 14 -34 25 -42 25 -8 0 -36 20 -62 44 -26 24 -56
48 -67 54 -11 5 -45 59 -75 119 -30 59 -62 119 -71 133 -18 27 -69 147 -69
163 0 10 -1 10 110 -27z"/>
<path d="M11990 2929 c0 -11 14 -34 30 -51 17 -16 30 -40 30 -52 0 -44 132
-198 195 -227 22 -10 53 -29 68 -41 l28 -23 47 25 c44 24 47 27 46 65 -2 70
-22 118 -62 148 -75 57 -128 87 -152 87 -14 0 -50 14 -80 31 -51 28 -124 59
-142 59 -5 0 -8 -9 -8 -21z"/>
<path d="M13728 3085 c-3 -3 -34 -10 -69 -16 -35 -6 -68 -14 -73 -20 -6 -5
-27 -9 -47 -9 -44 0 -174 -45 -246 -86 -129 -73 -184 -117 -218 -175 -40 -69
-55 -117 -44 -144 4 -11 8 -39 8 -63 1 -60 24 -98 74 -123 23 -12 55 -31 70
-42 25 -17 39 -19 101 -14 98 7 184 54 288 157 43 42 78 81 78 87 0 7 11 24
24 40 27 32 80 127 91 163 8 28 43 107 56 130 5 8 19 35 30 59 17 36 19 45 8
52 -15 9 -122 12 -131 4z m25 -71 c3 -4 0 -19 -8 -35 -8 -15 -15 -38 -15 -51
0 -13 -13 -39 -29 -58 -15 -19 -43 -64 -61 -100 -32 -64 -106 -160 -191 -251
-33 -35 -58 -51 -98 -63 -66 -19 -77 -20 -137 -4 -35 10 -50 20 -61 43 -8 16
-25 40 -36 53 -14 15 -22 40 -25 80 -4 55 -2 60 48 135 29 42 56 77 61 77 4 0
23 13 41 29 18 15 51 38 74 49 52 27 248 90 294 95 61 7 136 7 143 1z"/>
<path d="M13530 2924 c-86 -19 -177 -64 -238 -119 -61 -55 -130 -201 -112
-235 55 -103 261 7 354 190 21 41 55 93 76 115 61 65 44 75 -80 49z"/>
<path d="M12784 3035 c-11 -16 -14 -34 -10 -51 9 -36 -11 -84 -36 -84 -10 0
-35 8 -56 19 -20 10 -43 16 -49 14 -21 -8 -15 -40 13 -64 62 -56 71 -67 148
-182 11 -17 15 -12 43 45 18 34 34 73 38 85 3 12 23 32 43 45 51 31 65 46 58
63 -6 17 -42 20 -51 5 -9 -14 -55 -12 -56 3 -1 6 0 24 1 39 2 31 -34 88 -55
88 -8 0 -22 -11 -31 -25z"/>
<path d="M11935 2521 c-11 -19 3 -100 25 -139 27 -48 21 -61 -20 -45 -24 9
-30 8 -30 -1 0 -8 -20 -16 -51 -19 -62 -8 -65 -10 -51 -41 7 -16 38 -38 86
-62 54 -26 76 -42 76 -56 0 -10 -7 -18 -16 -18 -12 0 -14 -8 -9 -47 4 -27 8
-54 10 -60 7 -22 35 -14 45 13 30 77 140 154 222 154 33 0 98 27 98 41 0 7
-46 29 -61 29 -5 0 -38 13 -72 30 -74 35 -153 106 -197 178 -31 51 -43 61 -55
43z"/>
<path d="M12758 2521 c-56 -12 -105 -50 -151 -116 -36 -54 -40 -66 -38 -115 2
-78 17 -122 51 -161 16 -19 30 -37 30 -40 0 -4 25 -18 55 -33 95 -45 193 -32
270 36 112 99 127 222 41 339 -55 75 -159 111 -258 90z m151 -86 c85 -43 121
-188 64 -256 -32 -38 -115 -79 -159 -79 -42 0 -122 56 -146 102 -23 44 -33 98
-24 132 8 34 64 96 101 113 37 17 121 11 164 -12z"/>
<path d="M12769 2365 c-40 -26 -53 -59 -44 -108 9 -46 39 -78 82 -88 34 -7 42
-5 82 27 24 18 47 34 51 34 4 0 10 17 13 37 8 49 -12 79 -69 104 -59 25 -72
24 -115 -6z"/>
<path d="M13662 2448 c-16 -30 -28 -43 -108 -119 -29 -27 -39 -30 -116 -34
-105 -5 -143 -17 -129 -43 7 -12 32 -22 85 -31 76 -14 76 -14 151 -90 41 -42
87 -93 102 -113 33 -47 59 -49 77 -6 12 27 11 38 -2 73 -21 58 -12 75 39 75
69 0 125 56 87 88 -7 6 -30 13 -52 17 -64 12 -76 32 -69 114 4 50 2 75 -7 86
-20 24 -39 18 -58 -17z"/>
<path d="M13160 2141 c-35 -11 -69 -26 -75 -33 -5 -8 -23 -23 -38 -33 -16 -10
-37 -35 -47 -56 -20 -37 -36 -131 -33 -179 8 -96 148 -253 255 -285 27 -8 62
-24 78 -35 20 -14 76 -30 163 -47 91 -18 157 -37 212 -63 74 -34 134 -54 195
-66 14 -3 34 1 45 9 17 14 18 18 6 41 -8 14 -36 51 -63 83 -26 31 -48 62 -48
68 0 6 -10 26 -23 45 -13 19 -35 63 -50 97 -16 34 -46 91 -68 125 -21 35 -48
82 -59 105 -25 56 -136 164 -197 193 -43 21 -81 31 -163 45 -14 2 -54 -4 -90
-14z m145 -71 c32 -11 68 -29 80 -39 11 -10 38 -30 60 -43 57 -36 104 -87 114
-126 6 -18 30 -57 54 -85 24 -29 50 -70 57 -92 7 -22 29 -72 48 -112 42 -88
39 -106 -15 -92 -21 6 -56 19 -78 29 -22 10 -71 21 -110 24 -111 11 -251 61
-306 110 -26 22 -68 58 -94 80 -47 39 -95 125 -95 170 0 29 43 117 67 139 24
21 109 56 138 56 11 0 47 -8 80 -19z"/>
<path d="M13150 1979 c-18 -25 -22 -40 -18 -83 4 -51 7 -56 77 -122 55 -52 92
-77 149 -101 42 -18 84 -33 93 -33 8 0 43 -11 77 -25 65 -26 97 -31 107 -16 6
11 -27 71 -62 114 -13 16 -23 33 -23 38 0 17 -98 134 -147 176 -82 69 -112 83
-175 83 -52 0 -58 -3 -78 -31z"/>
<path d="M12285 2131 c-11 -5 -20 -14 -20 -21 0 -7 -16 -19 -35 -25 -20 -8
-73 -50 -126 -102 -108 -107 -147 -156 -163 -202 -6 -19 -18 -42 -25 -50 -22
-24 -86 -207 -86 -246 0 -11 -9 -40 -20 -64 -19 -42 -20 -45 -3 -63 19 -21 40
-20 103 2 108 38 143 50 220 73 116 35 172 56 191 73 8 8 25 14 36 14 11 0 28
9 38 20 9 10 48 38 86 60 116 71 189 182 176 267 -7 41 -69 169 -99 204 -31
36 -117 63 -179 56 -27 -3 -51 -2 -54 4 -7 10 -13 11 -40 0z m152 -90 c67 -34
82 -46 104 -88 36 -64 44 -121 26 -164 -15 -34 -147 -172 -147 -154 0 6 -4 5
-8 -2 -4 -6 -52 -31 -107 -53 -94 -39 -120 -48 -202 -69 -18 -5 -48 -18 -67
-29 -22 -13 -57 -22 -93 -24 l-58 -3 1 30 c1 37 13 70 76 210 58 129 114 202
234 305 34 28 125 75 156 79 4 1 42 -17 85 -38z"/>
<path d="M12300 1966 c-46 -31 -180 -172 -180 -190 0 -7 -7 -19 -16 -27 -8 -7
-24 -29 -35 -48 -11 -20 -35 -55 -54 -79 -38 -47 -47 -92 -18 -92 9 0 24 7 33
15 24 22 250 135 270 135 22 0 98 51 136 92 17 18 39 53 49 77 17 38 17 46 4
69 -38 67 -128 90 -189 48z"/>
<path d="M12775 1850 c-3 -5 -3 -19 0 -30 7 -22 -34 -133 -70 -189 -29 -46
-50 -65 -110 -97 -28 -14 -53 -31 -57 -38 -15 -22 -8 -55 12 -61 17 -6 58 8
70 24 12 16 69 51 82 51 27 0 50 -35 42 -64 -13 -52 56 -91 76 -43 5 12 11 35
15 50 5 27 7 27 58 22 28 -4 64 -10 79 -15 20 -7 32 -5 43 6 32 33 6 81 -61
110 -54 23 -101 85 -114 150 -6 33 -15 75 -19 94 -7 35 -33 52 -46 30z"/>
<path d="M14439 3099 c-24 -24 -15 -42 31 -57 20 -8 33 -7 45 2 16 11 15 15
-10 44 -32 38 -38 39 -66 11z"/>
<path d="M14562 3008 c-19 -19 -14 -44 14 -62 54 -36 100 8 55 53 -24 24 -51
27 -69 9z"/>
<path d="M14674 2906 c-3 -8 -4 -25 -2 -38 4 -27 52 -48 69 -31 18 18 2 58
-26 71 -33 15 -34 15 -41 -2z"/>
<path d="M14803 2803 c-7 -2 -13 -16 -13 -29 0 -19 8 -28 33 -39 52 -22 77 15
37 55 -20 20 -34 23 -57 13z"/>
<path d="M14906 2674 c-12 -31 -6 -52 17 -58 75 -20 112 10 61 51 -34 27 -69
30 -78 7z"/>
<path d="M15048 2556 c-24 -18 -23 -34 5 -57 29 -24 73 -25 87 0 13 26 5 46
-26 60 -32 14 -45 14 -66 -3z"/>
<path d="M15192 2438 c-18 -18 -15 -35 10 -52 35 -25 68 -21 68 8 0 45 -50 72
-78 44z"/>
<path d="M4118 2468 c-8 -24 10 -89 31 -112 39 -42 21 -69 -62 -96 -21 -6 -45
-23 -54 -37 -16 -25 -16 -26 6 -44 14 -11 39 -19 62 -19 50 0 58 -18 30 -63
-38 -63 -22 -147 29 -147 27 0 78 47 117 107 22 35 40 53 53 53 11 0 28 9 38
21 25 30 78 49 138 49 45 0 54 3 54 18 0 17 -77 60 -140 78 -14 4 -39 17 -55
30 -17 12 -42 27 -57 33 -15 6 -39 28 -52 50 -14 22 -45 51 -69 65 -49 29 -63
32 -69 14z"/>
<path d="M16219 2451 c-25 -15 -55 -45 -67 -65 -12 -20 -34 -41 -49 -47 -15
-6 -41 -21 -58 -33 -16 -13 -41 -26 -55 -30 -63 -18 -140 -61 -140 -78 0 -15
9 -18 54 -18 60 0 113 -19 138 -49 10 -12 27 -21 38 -21 13 0 31 -18 53 -53
39 -60 90 -107 117 -107 51 0 67 84 29 147 -28 45 -20 63 30 63 23 0 48 8 62
19 22 18 22 19 6 44 -9 14 -33 31 -54 37 -83 27 -101 54 -62 96 21 23 39 88
31 112 -6 19 -24 15 -73 -17z"/>
<path d="M9385 2466 c-16 -12 -20 -29 -23 -94 l-4 -80 -62 -6 c-33 -4 -71 -14
-83 -22 -26 -16 -21 -40 10 -50 12 -4 33 -15 47 -24 14 -10 42 -21 62 -24 21
-4 40 -11 43 -16 7 -11 -10 -47 -37 -77 -11 -11 -22 -39 -25 -60 -4 -34 -2
-41 22 -57 40 -26 66 -18 82 29 7 22 19 45 26 52 20 20 184 103 204 103 10 0
26 7 36 15 18 13 18 14 -2 34 -11 11 -39 25 -62 31 -42 12 -99 60 -99 85 0 7
-7 15 -15 19 -8 3 -15 14 -15 25 0 11 -7 26 -15 35 -8 8 -15 27 -15 43 0 49
-36 68 -75 39z"/>
<path d="M5683 2416 c-84 -86 -149 -134 -199 -147 -27 -8 -34 -15 -34 -35 0
-31 30 -44 104 -41 56 2 56 2 103 -52 27 -30 53 -68 59 -85 14 -40 57 -66 81
-50 22 14 22 64 2 112 -19 44 -7 60 74 100 55 28 67 38 67 58 0 18 -5 24 -21
24 -28 0 -100 21 -117 33 -10 8 -9 15 3 34 10 15 15 41 13 71 -3 44 -5 47 -32
50 -24 3 -40 -8 -103 -72z"/>
<path d="M14597 2483 c-13 -12 -7 -94 8 -117 12 -19 13 -25 3 -33 -17 -12 -89
-33 -117 -33 -16 0 -21 -6 -21 -24 0 -20 12 -30 67 -58 81 -40 93 -56 74 -100
-20 -48 -20 -98 2 -112 24 -16 67 10 81 50 6 17 32 55 59 85 47 54 47 54 103
52 74 -3 104 10 104 41 0 20 -7 27 -34 35 -50 13 -115 61 -198 146 -54 54 -81
75 -99 75 -14 0 -29 -3 -32 -7z"/>
<path d="M11006 2427 c-15 -19 -26 -43 -26 -53 0 -22 -100 -123 -140 -142 -14
-7 -43 -18 -65 -25 -22 -8 -40 -20 -40 -27 0 -7 44 -39 97 -69 112 -65 158
-105 158 -138 0 -18 9 -28 36 -39 64 -27 89 2 56 65 -36 69 -33 107 11 116 89
18 107 26 107 45 0 22 -28 42 -82 59 -57 19 -62 31 -33 87 30 59 31 79 5 122
-25 41 -52 41 -84 -1z"/>
<path d="M4716 2049 c-29 -23 -34 -56 -11 -65 26 -10 64 5 82 32 16 25 16 27
-2 40 -25 19 -38 18 -69 -7z"/>
<path d="M4615 1942 c-24 -17 -65 -74 -59 -83 3 -5 18 -9 34 -9 34 0 73 43 68
74 -3 22 -26 31 -43 18z"/>
<path d="M4445 1786 c-14 -14 -25 -34 -25 -46 0 -16 6 -20 33 -20 18 0 38 5
45 12 19 19 14 56 -8 68 -17 9 -25 6 -45 -14z"/>
<path d="M4291 1646 c-48 -51 1 -88 59 -44 40 29 38 62 -5 66 -22 2 -37 -4
-54 -22z"/>
<path d="M4145 1505 c-29 -28 -31 -38 -11 -54 36 -30 106 28 76 64 -18 21 -37
19 -65 -10z"/>
<path d="M4008 1395 c-9 -21 -9 -29 4 -41 32 -32 87 17 58 51 -19 23 -49 18
-62 -10z"/>
<path d="M10390 2021 c-7 -15 -5 -25 9 -42 16 -20 23 -22 47 -13 30 10 34 34
12 62 -16 18 -56 14 -68 -7z"/>
<path d="M10532 1928 c-17 -17 -15 -53 3 -68 12 -10 21 -10 40 -2 29 13 33 43
9 66 -19 19 -36 20 -52 4z"/>
<path d="M10657 1834 c-24 -24 15 -94 52 -94 34 0 42 23 21 58 -11 18 -24 32
-29 32 -5 0 -16 2 -23 5 -8 3 -17 2 -21 -1z"/>
<path d="M10812 1698 c-31 -31 8 -85 53 -74 31 8 33 38 5 66 -23 23 -41 25
-58 8z"/>
<path d="M10950 1575 c-19 -22 -4 -64 25 -71 54 -13 73 23 35 64 -24 26 -43
28 -60 7z"/>
<path d="M11076 1451 c-10 -15 4 -38 30 -50 54 -24 79 -4 43 35 -22 24 -63 32
-73 15z"/>
<path d="M11238 1339 c-10 -5 -18 -18 -18 -28 0 -24 35 -55 55 -47 18 7 39 56
28 67 -16 14 -48 18 -65 8z"/>
<path d="M15625 2056 c-18 -13 -18 -15 -2 -40 29 -43 97 -48 97 -7 0 20 -43
61 -64 61 -7 0 -21 -6 -31 -14z"/>
<path d="M15757 1943 c-26 -25 20 -93 63 -93 41 0 44 13 13 52 -40 48 -59 58
-76 41z"/>
<path d="M15917 1799 c-20 -11 -23 -49 -5 -67 18 -18 78 -15 78 4 0 42 -43 79
-73 63z"/>
<path d="M16037 1663 c-15 -15 -5 -41 23 -62 58 -42 106 -5 59 45 -21 23 -67
32 -82 17z"/>
<path d="M16200 1515 c-30 -36 40 -94 76 -64 20 16 18 26 -11 54 -28 29 -47
31 -65 10z"/>
<path d="M16340 1405 c-29 -34 26 -83 58 -51 13 12 13 20 4 41 -13 28 -43 33
-62 10z"/>
<path d="M4951 1842 c-6 -11 -15 -41 -21 -67 -10 -44 -49 -113 -85 -149 -12
-11 -28 -14 -65 -9 -46 5 -50 4 -61 -20 -10 -22 -8 -30 10 -55 23 -34 79 -57
111 -47 38 12 57 -4 85 -73 34 -80 42 -92 65 -92 23 0 39 21 72 94 28 64 41
71 93 53 24 -8 105 45 105 68 0 22 -31 47 -53 41 -12 -3 -27 4 -43 21 -17 18
-31 24 -48 21 -18 -4 -30 2 -44 22 -28 37 -55 118 -56 165 -1 36 -4 40 -28 43
-18 2 -30 -3 -37 -16z"/>
<path d="M15394 1845 c-4 -8 -3 -22 0 -31 8 -20 -30 -129 -56 -165 -14 -19
-26 -25 -44 -21 -17 3 -31 -3 -48 -21 -16 -17 -31 -24 -43 -21 -22 6 -53 -19
-53 -41 0 -23 81 -76 105 -68 52 18 65 11 93 -53 33 -73 49 -94 72 -94 23 0
31 12 65 92 28 69 47 85 85 73 32 -10 88 13 111 47 18 25 20 33 10 55 -11 24
-15 25 -61 20 -37 -5 -53 -2 -65 9 -36 36 -75 105 -85 149 -6 26 -15 56 -21
66 -12 23 -57 25 -65 4z"/>
<path d="M10245 1802 c-6 -4 -48 -51 -95 -106 -89 -104 -121 -126 -189 -126
-31 0 -41 -4 -46 -20 -3 -11 -4 -24 -1 -29 8 -12 66 -22 144 -25 51 -2 67 -7
85 -26 12 -12 16 -20 10 -16 -16 9 -18 -19 -3 -37 6 -7 19 -24 31 -39 14 -19
29 -28 49 -28 43 0 63 36 64 116 1 35 3 64 6 64 3 -1 13 -7 23 -15 30 -22 167
-3 167 24 0 13 -33 46 -50 49 -72 16 -142 86 -165 167 -9 30 -17 55 -18 55 -1
0 -7 -4 -12 -8z"/>
<path d="M121 114 c-26 -33 -26 -39 0 -65 13 -13 30 -19 47 -17 22 2 28 9 30
35 7 69 -39 96 -77 47z"/>
<path d="M20221 121 c-16 -29 -14 -81 4 -87 24 -10 64 5 76 27 9 18 7 26 -8
48 -25 33 -58 39 -72 12z"/>
</g>
</svg>
