<svg version="1.0" xmlns="http://www.w3.org/2000/svg"
 width="2147.000000pt" height="647.000000pt" viewBox="0 0 2147.000000 647.000000"
 preserveAspectRatio="xMidYMid meet">
<metadata>
Created by potrace 1.13, written by Peter Selinger 2001-2015
</metadata>
<g transform="translate(0.000000,647.000000) scale(0.100000,-0.100000)"
fill="currentColor" stroke="none">
<path d="M580 6405 c-83 -13 -113 -21 -175 -49 -187 -84 -231 -120 -284 -226
-21 -42 -42 -92 -47 -111 -4 -19 -9 -37 -10 -41 -4 -16 -4 -27 -7 -161 -4
-130 -3 -139 20 -172 12 -18 23 -45 23 -58 0 -37 157 -227 188 -227 14 0 42
-24 42 -35 0 -12 29 -35 44 -35 9 0 16 -7 16 -15 0 -8 7 -15 15 -15 8 0 15 -4
15 -10 0 -5 7 -10 15 -10 24 0 18 -10 -41 -72 -49 -51 -56 -63 -50 -88 3 -16
1 -32 -4 -35 -15 -9 -43 -114 -46 -170 -5 -103 15 -206 56 -290 21 -44 47
-100 57 -125 10 -24 43 -71 73 -103 30 -33 56 -63 58 -68 2 -5 10 -9 18 -9 7
0 29 -9 49 -20 20 -11 44 -20 55 -20 11 0 20 -7 20 -15 0 -8 9 -15 20 -15 11
0 20 -5 20 -11 0 -7 11 -9 30 -5 17 3 30 2 30 -2 0 -12 181 -33 220 -26 39 8
100 41 100 55 0 5 6 9 13 9 6 0 23 12 36 25 13 14 27 25 32 25 5 0 9 7 9 15 0
8 11 17 24 21 13 3 27 13 30 22 3 10 22 36 41 60 19 24 35 54 35 66 0 12 5 27
12 34 17 17 48 15 48 -3 0 -8 6 -15 13 -15 17 0 72 -62 69 -77 -2 -7 2 -13 8
-13 12 0 50 -36 50 -48 0 -4 16 -22 35 -41 19 -18 35 -39 35 -47 0 -8 3 -14 8
-14 4 0 19 -19 34 -43 15 -24 39 -49 53 -57 14 -8 25 -22 25 -34 0 -12 14 -34
31 -49 30 -26 31 -28 30 -119 -1 -89 8 -1401 10 -1463 1 -31 1 -138 2 -315 0
-58 -1 -141 -2 -185 -1 -44 -2 -89 -1 -100 0 -11 -2 -37 -6 -58 -4 -23 -2 -43
5 -51 7 -8 8 -17 3 -20 -5 -3 -9 -81 -9 -174 0 -93 -4 -196 -8 -230 -8 -72
-18 -76 -88 -40 -35 18 -57 22 -137 21 -114 -2 -184 -26 -194 -69 -4 -14 -16
-39 -28 -54 -19 -26 -20 -38 -15 -106 4 -55 10 -80 21 -86 9 -5 16 -16 16 -24
0 -9 25 -44 55 -77 30 -34 55 -68 55 -74 0 -7 -17 -21 -38 -32 -37 -19 -82
-63 -82 -80 0 -5 -7 -14 -16 -22 -8 -7 -28 -41 -45 -75 -46 -99 -38 -183 22
-244 29 -29 43 -34 94 -39 85 -7 176 -5 184 5 3 5 24 18 46 29 22 12 40 28 40
35 0 8 15 20 34 25 18 6 33 14 32 19 -3 10 18 26 35 26 6 0 14 -13 17 -29 4
-19 15 -32 36 -40 16 -7 37 -21 47 -32 9 -10 24 -19 33 -19 9 0 28 -11 43 -25
15 -14 32 -25 37 -25 6 0 14 -6 18 -14 5 -8 36 -15 85 -19 87 -6 118 -1 118
19 0 8 7 14 15 14 8 0 15 5 15 10 0 6 8 10 18 10 26 0 42 20 42 51 0 15 5 31
10 34 6 4 8 44 5 105 -3 63 -1 101 6 106 7 4 4 13 -7 25 -40 44 7 59 166 53
224 -10 449 -10 498 -2 29 5 58 6 64 2 6 -4 101 -8 209 -8 109 -1 201 -4 204
-8 4 -4 15 -4 24 1 31 16 91 23 91 10 0 -8 19 -10 69 -5 44 5 70 3 72 -3 6
-16 200 -34 251 -24 65 12 350 1 356 -14 6 -20 40 -15 47 6 4 15 19 22 53 26
26 4 57 11 69 17 11 6 27 7 34 2 8 -4 28 -7 46 -5 19 1 33 -2 33 -8 0 -14 93
-14 107 0 7 7 47 7 134 -1 69 -7 151 -9 184 -6 33 4 80 7 105 7 25 0 124 1
220 2 229 3 562 -2 625 -8 28 -3 52 -10 53 -15 5 -14 36 -12 51 3 14 14 464
21 491 7 8 -4 44 -2 80 4 62 11 142 8 322 -9 53 -5 82 -4 91 3 9 7 49 10 113
8 54 -2 125 1 157 6 40 8 61 8 65 1 10 -15 158 -27 167 -14 8 14 58 14 72 0 7
-7 28 -9 55 -5 87 12 215 15 296 6 61 -7 92 -6 120 4 39 13 72 11 72 -5 0 -15
59 -10 85 7 17 11 29 13 42 6 10 -5 105 -10 212 -11 124 -1 201 -6 215 -13 26
-14 64 -19 134 -18 30 1 52 -3 52 -9 0 -6 17 -11 37 -11 20 0 62 -5 93 -12 57
-11 104 -7 220 22 103 25 144 29 188 18 33 -8 61 -8 115 2 82 15 1047 22 1047
8 0 -4 12 -8 28 -8 18 0 35 -10 52 -30 28 -34 75 -41 94 -15 7 9 38 20 73 25
33 4 71 13 83 20 13 7 26 8 33 2 7 -5 58 -8 115 -7 56 1 102 -1 102 -5 0 -12
224 -9 239 3 18 15 158 18 779 18 266 0 489 -4 495 -9 14 -10 180 -7 246 4 29
5 45 3 50 -5 6 -9 15 -9 35 -2 33 13 70 14 383 11 138 -1 256 1 262 4 5 4 12
2 16 -4 3 -5 44 -10 91 -10 46 0 84 -4 84 -9 0 -14 106 -22 137 -10 36 14 175
13 183 -2 5 -8 18 -8 46 0 50 14 224 15 224 1 0 -13 67 -13 72 1 2 6 39 11 93
11 50 1 95 4 100 9 12 8 241 7 250 -2 9 -10 145 -1 193 12 30 8 50 9 65 2 23
-11 122 -9 209 3 28 4 53 2 60 -4 14 -11 164 -9 216 3 23 5 32 4 32 -5 0 -10
69 -12 323 -11 188 2 357 -2 407 -8 113 -15 120 -15 230 -7 52 4 116 14 142
23 41 14 52 15 88 3 23 -8 67 -13 98 -12 32 1 95 3 142 5 47 1 90 6 97 10 7 4
97 5 200 1 239 -9 1258 -9 1421 -1 84 4 122 3 122 -4 0 -7 7 -8 18 -3 9 5 124
8 255 9 l238 0 -8 -25 c-10 -35 -5 -165 9 -225 6 -27 20 -59 30 -71 10 -11 18
-26 18 -32 0 -7 7 -12 15 -12 8 0 17 -11 21 -25 4 -16 19 -30 45 -42 21 -9 39
-20 39 -25 0 -4 11 -8 25 -8 14 0 25 -3 25 -8 0 -28 167 -53 202 -30 13 8 37
18 53 21 17 3 51 11 76 18 40 10 49 9 72 -6 15 -9 27 -22 27 -27 0 -13 67 -72
136 -120 49 -35 60 -38 120 -38 48 0 76 6 107 23 23 12 44 25 45 29 2 5 13 8
24 8 15 0 18 5 13 20 -4 12 -2 20 4 20 6 0 25 12 42 28 27 23 30 32 26 65 -3
20 -2 37 3 37 14 0 20 124 6 140 -18 21 -36 77 -36 112 0 21 -6 31 -20 35 -10
3 -22 15 -26 27 -8 26 -74 96 -91 96 -20 0 -16 18 7 32 12 8 20 24 20 40 0 15
8 31 17 36 11 6 17 24 19 51 1 23 8 48 15 58 18 21 19 155 2 161 -7 2 -13 14
-13 26 0 45 -30 85 -82 111 -28 14 -64 36 -79 50 -62 51 -230 41 -353 -23 -26
-14 -30 -13 -41 2 -15 20 -27 221 -19 321 2 39 4 90 4 115 -3 82 -3 444 0 475
3 47 -8 247 -15 276 -4 15 -3 29 2 32 7 4 10 303 3 347 -1 8 -1 123 -1 255 1
132 1 249 1 260 0 11 0 73 0 138 0 65 -2 123 -5 128 -4 5 -1 9 4 9 14 0 14 86
0 210 -12 111 -17 290 -8 296 3 2 9 29 13 61 4 31 9 67 12 80 5 17 2 23 -10
23 -9 0 -16 7 -16 16 0 13 7 15 38 11 101 -15 185 -36 201 -51 10 -9 34 -16
54 -16 20 0 37 -4 37 -9 0 -29 356 -16 373 14 4 8 19 15 32 15 13 0 28 6 32
13 4 7 33 19 65 26 42 10 59 20 67 37 6 13 17 24 25 24 9 0 12 7 9 20 -4 15
-2 19 10 14 10 -3 20 2 27 16 6 11 21 25 33 29 22 9 32 24 59 89 7 17 16 32
20 32 5 0 8 9 8 20 0 11 4 20 9 20 9 0 22 61 26 123 1 21 5 40 9 44 9 10 7
133 -2 133 -5 0 -9 16 -10 35 -1 19 -8 51 -17 71 -30 71 -13 112 58 137 9 4
17 13 17 21 0 8 17 28 38 43 20 15 39 30 42 34 3 3 13 8 23 12 9 3 17 13 17
20 0 7 11 20 25 27 14 7 25 22 25 32 0 10 5 18 10 18 6 0 10 9 10 19 0 11 4
23 10 26 5 3 10 15 10 26 0 10 5 19 11 19 6 0 9 7 5 15 -3 8 0 15 5 15 7 0 9
11 6 27 -3 16 2 37 11 51 11 17 16 55 18 138 2 63 5 118 8 123 9 14 -4 206
-14 209 -6 2 -10 15 -10 29 0 13 -11 39 -25 57 -14 18 -25 40 -25 49 0 10 -4
17 -10 17 -5 0 -10 6 -10 13 0 24 -65 74 -150 115 -71 34 -105 44 -209 58 -96
14 -127 15 -142 6 -10 -7 -37 -12 -60 -12 -46 0 -145 -26 -154 -41 -4 -5 -16
-9 -27 -9 -22 0 -129 -91 -238 -201 -43 -44 -66 -76 -68 -93 -1 -15 -16 -44
-33 -66 -17 -21 -29 -43 -25 -48 3 -5 -1 -18 -9 -28 -8 -10 -15 -26 -15 -34 0
-8 -8 -31 -19 -50 -10 -19 -22 -50 -26 -68 -9 -43 -39 -71 -73 -67 -161 19
-164 19 -234 -14 -36 -17 -70 -31 -75 -31 -5 0 -24 -13 -43 -28 -19 -16 -45
-34 -57 -41 -13 -6 -23 -17 -23 -24 0 -7 -16 -28 -35 -47 -19 -19 -35 -39 -35
-44 0 -6 -15 -41 -34 -78 -43 -85 -65 -209 -48 -266 7 -22 9 -47 6 -56 -3 -9
-3 -45 1 -80 5 -48 15 -76 41 -116 19 -28 34 -60 34 -70 0 -10 5 -22 10 -25 6
-3 10 -14 10 -23 0 -10 11 -29 25 -44 14 -15 25 -31 25 -36 0 -14 64 -82 78
-82 6 0 12 -5 12 -10 0 -6 8 -18 17 -28 10 -10 30 -32 45 -49 l26 -31 -21 -42
c-39 -75 -59 -90 -124 -91 -32 0 -83 -3 -113 -5 -30 -2 -93 -4 -140 -3 -47 1
-96 1 -110 0 -14 -1 -153 -3 -310 -5 -157 -2 -505 -6 -775 -10 -466 -6 -753
-6 -930 -1 -44 1 -84 0 -89 -3 -5 -3 -225 -6 -490 -8 -264 -2 -755 -6 -1091
-9 -1271 -10 -1897 -8 -1923 9 -5 3 -58 1 -118 -5 -60 -6 -131 -10 -159 -9
-59 2 -148 0 -300 -6 -60 -2 -148 -3 -195 -2 -186 4 -344 2 -525 -5 -219 -10
-197 -9 -345 -7 -63 1 -148 0 -188 -2 -40 -2 -75 0 -78 4 -2 4 -177 7 -387 6
-260 0 -391 3 -410 11 -20 8 -41 8 -75 0 -26 -6 -130 -10 -232 -9 -102 1 -448
-2 -770 -6 -621 -9 -614 -9 -845 -1 -82 2 -173 0 -202 -5 -83 -14 -165 -17
-204 -7 -20 5 -96 9 -170 10 -192 2 -424 2 -569 1 -149 -1 -1510 -2 -1560 -1
-19 0 -93 -2 -165 -5 -106 -5 -1100 -18 -1360 -18 -140 0 -562 11 -623 16 -35
3 -86 0 -115 -6 -61 -13 -50 -13 -252 -2 -88 4 -189 8 -225 7 -36 -1 -292 -4
-570 -7 -278 -3 -559 -10 -624 -15 -68 -5 -130 -5 -143 0 -12 4 -56 8 -97 7
-40 0 -79 3 -85 6 -6 4 -58 1 -115 -5 -136 -16 -166 -7 -221 62 -22 28 -51 63
-64 77 -13 15 -38 51 -57 80 -19 28 -38 52 -42 52 -5 0 -17 18 -28 40 -10 22
-22 40 -26 40 -5 0 -8 15 -8 34 0 19 -5 36 -11 38 -22 7 3 38 32 38 18 0 29 5
29 14 0 8 21 21 47 30 25 9 53 22 62 30 9 9 35 33 58 54 24 22 56 42 73 45 16
4 30 10 30 15 0 9 45 65 93 113 15 16 27 32 27 37 0 5 11 21 25 36 13 14 27
42 31 61 3 19 10 35 14 35 4 0 11 10 15 23 10 33 9 305 -2 320 -5 6 -18 38
-27 69 -10 31 -28 69 -42 85 -13 15 -24 33 -24 40 0 7 -29 46 -65 87 -56 64
-78 81 -148 114 -45 22 -98 44 -117 50 -56 19 -216 29 -292 19 -78 -10 -118
-4 -118 18 0 8 -4 15 -10 15 -5 0 -10 7 -10 16 0 19 -66 132 -90 155 -10 8
-25 30 -34 47 -9 18 -31 45 -49 60 -17 15 -54 48 -82 73 -59 55 -174 112 -265
134 -36 8 -67 14 -70 14 -3 -1 -43 -7 -90 -14z m101 -216 c3 -6 19 -10 35 -8
61 5 81 -1 94 -26 7 -14 19 -25 26 -25 7 0 27 -13 44 -30 17 -16 35 -30 40
-30 6 0 10 -7 10 -16 0 -18 23 -44 40 -44 6 0 8 -5 5 -10 -3 -6 1 -13 9 -16 9
-3 16 -12 16 -20 0 -8 4 -14 9 -14 5 0 12 -13 16 -29 3 -15 14 -37 24 -48 10
-10 21 -36 25 -57 6 -32 50 -142 62 -155 7 -8 89 34 111 56 12 13 33 23 46 23
12 0 27 4 33 9 20 21 172 49 183 35 12 -17 51 -34 76 -34 14 0 25 -6 25 -13 0
-8 26 -22 62 -32 34 -11 72 -29 84 -42 13 -13 28 -23 35 -23 27 0 139 -103
139 -127 0 -7 5 -13 10 -13 6 0 10 -9 10 -20 0 -11 6 -20 13 -20 31 0 40 -43
39 -181 -1 -122 -4 -143 -26 -193 -14 -31 -29 -56 -35 -56 -5 0 -12 -9 -16
-20 -3 -11 -19 -32 -35 -47 -16 -15 -27 -30 -24 -35 3 -4 1 -8 -5 -8 -15 0
-99 -59 -113 -79 -32 -45 -245 -116 -310 -104 -30 6 -128 103 -128 127 0 9 -5
16 -10 16 -6 0 -27 25 -46 57 l-37 56 34 28 c19 16 37 29 42 29 4 0 7 5 7 12
0 14 105 118 120 118 5 0 10 7 10 15 0 8 5 15 11 15 5 0 7 5 4 10 -3 6 3 10
14 10 16 0 21 9 26 44 4 25 4 49 1 55 -13 20 -174 -82 -271 -171 -48 -45 -90
-39 -147 20 -25 26 -58 67 -74 92 -15 25 -48 66 -73 91 -43 43 -48 46 -78 37
-24 -6 -35 -16 -39 -35 -5 -17 -3 -28 4 -31 7 -2 12 -9 12 -17 0 -7 7 -18 15
-25 8 -7 13 -16 10 -20 -3 -4 6 -15 19 -24 14 -8 27 -25 31 -36 3 -11 19 -33
36 -49 16 -17 29 -40 29 -54 0 -15 10 -31 25 -41 14 -9 25 -25 25 -35 0 -20
-79 -101 -127 -131 -48 -29 -113 -102 -113 -126 0 -13 7 -30 16 -38 17 -17 64
-22 64 -7 0 5 16 19 36 32 20 12 53 39 74 60 21 22 46 39 54 39 9 0 21 11 26
25 6 16 17 25 31 25 24 0 69 -43 69 -66 0 -7 5 -14 10 -14 6 0 16 -12 22 -27
7 -16 19 -39 29 -53 31 -48 31 -96 -3 -184 -37 -100 -70 -133 -187 -188 -135
-64 -214 -66 -337 -8 -43 21 -69 41 -87 69 -14 21 -48 63 -76 92 -30 32 -51
63 -51 76 0 12 -11 46 -24 75 -20 45 -24 67 -22 138 3 101 20 191 41 206 8 6
15 16 15 21 0 12 66 73 80 73 5 0 10 5 10 11 0 5 16 25 36 43 l37 34 -21 30
c-14 18 -43 38 -79 52 -32 13 -63 27 -69 31 -6 5 -20 10 -32 12 -27 4 -55 29
-106 96 -52 68 -50 64 -84 141 -30 67 -58 216 -47 250 3 11 1 29 -6 42 -9 16
-9 23 0 26 6 2 11 15 11 28 0 29 51 140 78 172 11 12 26 22 33 22 6 0 24 13
39 28 15 16 40 32 56 36 16 3 52 13 79 21 55 16 184 12 196 -6z m20289 -81 c0
-5 16 -8 35 -8 24 0 39 -6 47 -20 9 -13 24 -20 45 -20 23 0 33 -5 33 -15 0 -8
8 -15 18 -15 10 0 28 -9 40 -20 12 -11 25 -20 30 -20 14 0 79 -93 90 -130 14
-43 18 -208 8 -272 -5 -26 -19 -68 -32 -94 -13 -26 -24 -52 -24 -58 0 -18
-143 -160 -180 -179 -19 -10 -53 -31 -75 -47 -22 -16 -47 -29 -55 -30 -9 0
-37 -22 -64 -49 l-48 -49 26 -46 c14 -26 26 -62 26 -81 0 -18 4 -37 10 -40 18
-11 38 -71 51 -153 13 -83 13 -84 -16 -211 -6 -24 -48 -77 -105 -133 -15 -14
-43 -31 -63 -36 -20 -6 -52 -23 -72 -38 -31 -24 -51 -29 -133 -37 -141 -14
-301 -9 -319 9 -8 8 -21 14 -29 14 -8 0 -43 14 -78 30 -67 32 -73 44 -39 78 7
7 15 29 19 49 4 23 13 37 25 40 11 3 19 11 19 18 0 7 7 18 15 25 8 7 13 16 10
20 -3 4 5 10 16 13 11 3 23 15 26 26 3 12 11 21 18 21 8 0 17 9 20 20 3 11 11
20 16 20 15 0 39 26 39 43 0 16 27 30 41 21 5 -3 9 -12 9 -20 0 -8 10 -14 23
-14 14 0 36 -14 54 -35 17 -19 37 -35 45 -35 7 0 24 -9 38 -20 14 -11 31 -20
39 -20 8 0 19 -7 25 -15 6 -8 32 -20 58 -27 42 -11 49 -10 68 7 11 10 20 26
20 36 0 18 -57 69 -117 105 -72 43 -150 99 -183 131 -33 33 -33 34 -12 40 17
4 22 13 22 37 0 26 8 38 50 70 28 21 50 42 50 47 0 11 16 32 43 57 9 9 17 21
17 27 0 6 16 26 35 45 19 19 35 43 35 52 0 9 6 21 14 25 7 4 18 18 25 31 6 12
18 22 27 22 8 0 17 7 21 16 3 9 21 30 39 48 24 24 32 38 27 54 -4 17 -1 22 13
23 21 0 57 41 68 75 10 32 -22 64 -70 71 -35 4 -45 1 -75 -25 -19 -17 -46 -53
-59 -81 -13 -28 -29 -51 -36 -51 -26 0 -147 -132 -149 -162 0 -3 -17 -24 -37
-47 -21 -22 -38 -44 -38 -49 0 -4 -14 -21 -31 -38 -17 -16 -41 -49 -53 -74
-31 -66 -60 -100 -87 -100 -29 0 -101 35 -124 60 -10 11 -23 20 -29 20 -6 0
-22 9 -36 20 -32 25 -62 25 -84 1 -16 -18 -17 -22 -3 -41 8 -12 25 -28 36 -36
12 -9 21 -23 21 -33 0 -17 32 -35 54 -32 4 1 18 -10 30 -24 12 -14 27 -25 33
-25 21 0 24 -38 6 -71 -34 -60 -40 -69 -56 -87 -10 -10 -17 -24 -17 -30 0 -6
-13 -20 -30 -32 -16 -12 -30 -26 -30 -31 0 -14 -76 -86 -98 -93 -15 -5 -28 1
-46 21 -14 15 -26 31 -26 34 0 4 -12 20 -28 36 -32 35 -80 126 -94 180 -19 73
-30 244 -18 291 6 24 8 47 5 52 -3 5 -1 11 5 15 5 3 10 15 10 26 0 26 27 73
61 106 9 8 14 23 12 32 -2 10 1 18 9 19 7 0 33 8 58 18 25 10 76 18 115 19 39
0 77 5 85 10 8 5 42 10 75 10 59 0 60 0 63 30 2 17 8 34 13 40 5 5 9 20 9 35
1 14 7 36 15 50 8 14 14 37 15 52 0 15 7 33 15 42 8 8 15 28 15 45 0 17 5 31
10 31 6 0 10 7 10 15 0 9 7 18 15 21 8 4 15 15 15 25 0 10 7 19 15 19 10 0 15
10 15 31 0 22 5 32 20 36 11 3 20 10 20 16 0 6 7 18 16 28 8 9 17 26 18 36 1
10 26 36 54 57 29 21 52 44 52 50 1 17 80 50 135 57 71 8 255 5 255 -3z
m-1025 -1935 c-15 -40 -24 -114 -16 -136 12 -32 5 -216 -10 -266 -8 -26 -23
-50 -38 -60 -14 -9 -37 -28 -49 -43 -13 -16 -30 -28 -38 -28 -7 0 -33 -19 -56
-43 -24 -23 -65 -56 -93 -74 -27 -18 -55 -41 -62 -52 -7 -11 -50 -34 -98 -52
-70 -27 -87 -37 -92 -58 -4 -15 -2 -26 5 -29 7 -2 12 -10 12 -18 0 -8 13 -23
30 -32 16 -9 30 -20 30 -24 0 -5 7 -8 15 -8 8 0 15 -6 15 -14 0 -7 9 -16 21
-19 11 -3 23 -15 26 -26 3 -12 10 -21 15 -21 13 0 67 -57 108 -113 18 -26 37
-47 42 -47 4 0 8 -7 8 -15 0 -8 5 -15 11 -15 16 0 69 -63 69 -82 0 -10 6 -18
14 -18 7 0 16 -14 20 -31 4 -20 26 -52 61 -85 46 -45 55 -60 56 -91 6 -190 9
-371 8 -488 -1 -236 0 -297 7 -372 4 -39 4 -80 0 -90 -10 -24 -16 -352 -7
-357 3 -2 5 -49 3 -103 -2 -54 -5 -185 -6 -291 -1 -161 -4 -195 -16 -201 -8
-5 -89 -11 -180 -15 -91 -3 -194 -8 -230 -11 -117 -9 -255 9 -589 76 -54 11
-196 66 -231 89 -14 9 -47 25 -75 35 -27 10 -61 26 -75 35 -14 10 -56 34 -95
55 -38 20 -79 45 -90 54 -11 10 -35 24 -53 31 -17 7 -45 27 -60 44 -52 58 -92
86 -126 86 -51 0 -70 -20 -64 -67 3 -22 0 -53 -7 -69 -6 -16 -15 -45 -19 -65
-3 -21 -13 -42 -21 -49 -8 -7 -15 -18 -15 -26 0 -7 -10 -19 -22 -25 -13 -6
-35 -22 -49 -36 -31 -29 -142 -68 -219 -78 -30 -4 -62 -11 -71 -16 -9 -4 -47
-4 -85 2 -49 7 -76 6 -96 -2 -33 -14 -123 1 -217 35 -57 21 -189 118 -191 141
0 6 -15 19 -32 30 -17 11 -38 34 -47 50 -9 17 -24 41 -34 55 -9 13 -17 36 -17
51 0 40 -22 54 -58 35 -36 -19 -145 -141 -149 -167 -2 -11 -14 -37 -28 -59
-14 -22 -25 -44 -25 -50 0 -17 -45 -11 -68 10 -12 11 -24 20 -27 20 -3 0 -18
12 -33 26 -15 14 -59 48 -99 75 -39 27 -78 57 -85 67 -7 10 -25 25 -39 33 -52
28 -114 73 -127 91 -7 10 -30 27 -50 37 -20 10 -46 28 -56 40 -11 12 -24 21
-30 21 -6 0 -29 16 -51 35 -22 19 -56 40 -75 46 -19 6 -42 18 -51 25 -8 8 -43
22 -77 33 -33 11 -71 26 -84 34 -13 8 -50 22 -83 32 -33 9 -95 28 -138 41 -43
14 -101 29 -130 34 -69 11 -107 18 -202 35 -52 10 -130 14 -225 12 -131 -2
-150 -5 -192 -26 -27 -14 -48 -28 -48 -33 0 -4 -8 -8 -17 -9 -10 0 -30 -8 -44
-17 -14 -9 -45 -28 -67 -42 -23 -14 -47 -36 -54 -50 -7 -14 -19 -33 -27 -43
-8 -10 -17 -30 -19 -44 -2 -15 -9 -41 -17 -58 -17 -43 -2 -198 24 -235 10 -14
21 -35 25 -48 4 -12 24 -29 44 -39 20 -9 39 -19 42 -22 15 -17 54 -31 85 -31
22 0 38 -6 41 -15 7 -17 119 -22 129 -5 3 5 19 10 36 10 16 0 29 4 29 10 0 5
18 21 40 35 48 30 59 50 72 129 15 87 13 126 -9 165 -25 46 -58 69 -123 86
-95 25 -108 22 -166 -35 -45 -45 -45 -51 2 -113 24 -33 44 -65 44 -74 0 -63
-68 -73 -126 -18 -20 19 -40 35 -44 35 -18 0 -20 71 -3 132 9 34 20 65 23 68
3 3 5 12 5 20 0 8 11 17 25 18 14 2 29 10 33 18 4 8 15 14 24 14 9 0 22 8 29
17 11 16 32 18 186 18 191 0 244 -8 253 -36 4 -11 14 -19 23 -19 10 0 23 -14
31 -31 7 -17 24 -34 37 -39 14 -6 24 -18 24 -29 0 -11 9 -23 20 -26 11 -3 20
-11 20 -16 0 -13 44 -11 58 3 19 19 198 20 275 1 37 -10 67 -21 67 -25 0 -4 9
-8 20 -8 11 0 20 -5 20 -10 0 -6 8 -14 18 -17 9 -4 22 -12 28 -17 6 -6 25 -22
43 -36 18 -14 39 -31 46 -37 8 -7 21 -13 29 -13 9 0 16 -6 16 -13 0 -8 12 -20
28 -28 15 -8 31 -20 35 -26 4 -7 14 -13 22 -13 8 0 19 -9 25 -19 5 -11 19 -23
30 -26 11 -3 20 -13 20 -21 0 -8 9 -14 20 -14 11 0 29 -9 40 -20 11 -11 26
-20 33 -20 8 0 20 -11 27 -25 7 -13 25 -28 39 -33 15 -5 35 -26 46 -46 13 -23
32 -41 53 -48 24 -9 32 -18 30 -33 -3 -19 -10 -20 -263 -22 -143 -1 -309 -1
-370 -1 -60 1 -171 0 -245 -1 -828 -10 -777 -11 -881 15 -123 30 -176 53 -240
103 -28 23 -56 41 -63 41 -7 0 -23 11 -36 25 -13 14 -25 23 -27 21 -6 -5 -83
73 -83 85 0 5 -36 46 -79 91 l-79 82 -48 -25 c-94 -47 -158 -99 -224 -179 -24
-30 -73 -85 -107 -123 -35 -37 -63 -71 -63 -76 0 -5 -25 -22 -57 -37 -52 -26
-69 -29 -217 -35 -89 -4 -199 -3 -246 2 -47 5 -119 9 -160 10 -41 0 -69 3 -62
6 6 2 12 13 12 23 0 12 10 20 33 24 23 5 40 18 62 51 17 25 38 48 48 51 10 3
25 16 33 30 9 13 23 24 30 24 8 0 38 23 66 50 28 28 58 50 65 50 8 0 11 5 8
10 -3 6 1 10 9 10 9 0 15 3 14 8 -3 8 156 162 168 162 3 0 28 23 56 50 28 28
66 58 85 66 18 9 33 20 33 25 0 16 35 50 68 66 17 8 32 19 32 24 0 5 6 9 14 9
7 0 19 6 25 14 7 8 26 18 42 21 16 4 29 11 29 16 0 5 7 9 15 9 8 0 15 5 15 10
0 6 13 10 29 10 17 0 33 4 36 10 3 5 19 10 34 10 15 0 43 7 61 17 18 9 54 16
79 15 59 -2 103 7 95 19 -3 5 22 9 58 9 73 0 125 22 147 62 13 22 13 40 4 118
-9 69 -9 98 0 117 8 18 8 29 -1 44 -7 10 -12 39 -12 63 0 25 -4 56 -9 69 -6
14 -7 28 -3 32 4 4 7 14 8 23 1 40 18 97 34 115 10 10 16 27 13 37 -6 23 76
110 103 110 10 0 26 8 36 17 61 55 261 57 355 5 12 -7 29 -12 37 -12 9 0 33
-16 55 -35 43 -40 52 -41 86 -19 20 13 23 21 18 47 -14 76 -3 228 19 255 7 8
11 17 10 19 -7 7 10 83 19 89 6 3 7 14 4 25 -4 11 -2 19 4 19 6 0 11 4 11 10
0 11 62 103 73 108 4 2 7 12 7 22 0 10 7 20 15 24 8 3 15 12 15 20 0 8 9 18
20 21 11 3 20 15 20 26 0 10 7 19 15 19 8 0 15 5 15 10 0 6 4 10 9 10 15 0 81
62 75 72 -3 4 1 8 9 8 8 0 37 18 63 40 27 22 58 40 68 40 11 0 39 7 63 16 33
13 60 15 128 9 47 -4 85 -10 85 -15 0 -4 22 -10 50 -14 27 -4 56 -13 64 -21 8
-8 24 -15 35 -15 12 0 21 -4 21 -10 0 -5 9 -10 20 -10 21 0 43 -16 95 -67 17
-18 37 -33 44 -33 6 0 11 -5 11 -10 0 -6 9 -21 20 -32 11 -12 30 -42 42 -67
12 -25 28 -52 35 -59 7 -7 13 -25 13 -40 0 -15 8 -40 17 -57 16 -29 20 -48 43
-185 12 -68 5 -191 -12 -223 -5 -10 -11 -27 -13 -38 -8 -40 -119 -164 -166
-185 -54 -24 -156 -54 -184 -54 -69 0 -72 3 -79 103 -9 132 -20 167 -58 200
-61 52 -106 67 -173 57 -73 -10 -155 -44 -155 -64 0 -8 -5 -16 -12 -18 -14 -5
-23 -148 -14 -211 4 -24 16 -54 26 -65 11 -12 20 -27 20 -34 0 -13 95 -114
181 -191 23 -20 53 -40 68 -43 14 -3 51 -14 81 -24 30 -10 81 -24 113 -31 31
-7 57 -16 57 -22 0 -14 177 20 221 43 9 4 42 11 74 15 53 7 95 30 95 53 0 4
17 14 38 21 61 23 81 40 88 79 4 21 17 51 29 67 23 31 47 100 38 108 -2 3 1
16 8 29 20 37 49 278 39 333 -1 6 -1 42 0 80 0 47 -5 80 -15 100 -9 17 -21 68
-28 115 -7 56 -19 98 -34 122 -13 21 -23 42 -23 48 0 30 -28 95 -49 114 -43
38 -109 106 -104 106 2 0 -11 15 -29 33 -18 19 -41 45 -50 59 -10 14 -37 35
-60 47 -24 11 -61 39 -83 62 -41 42 -196 124 -258 136 -18 3 -35 10 -38 15
-18 28 -331 -6 -464 -50 -60 -20 -136 -53 -165 -71 -8 -6 -32 -18 -53 -27 -21
-9 -59 -35 -85 -58 -26 -23 -68 -50 -94 -60 -26 -9 -66 -35 -90 -57 -92 -85
-165 -158 -161 -162 2 -3 -24 -32 -57 -66 -65 -66 -100 -116 -100 -142 0 -9
-21 -36 -47 -61 -89 -85 -258 -268 -268 -291 -15 -34 -113 -154 -131 -161 -9
-4 -14 -13 -10 -21 3 -10 -18 -40 -58 -83 -35 -37 -75 -87 -90 -111 -15 -23
-61 -77 -102 -118 -41 -41 -74 -80 -74 -87 0 -8 -31 -44 -69 -81 -38 -37 -80
-87 -93 -110 -28 -51 -106 -157 -125 -168 -7 -4 -57 -60 -112 -125 -55 -64
-150 -164 -211 -222 -61 -58 -157 -149 -213 -202 -69 -66 -124 -109 -172 -133
-38 -20 -72 -39 -75 -43 -3 -4 -36 -26 -75 -48 -104 -61 -182 -82 -390 -104
-106 -11 -390 0 -512 20 -34 6 -94 9 -135 9 -55 -2 -96 5 -163 25 -49 15 -105
31 -123 36 -18 4 -57 20 -85 34 -77 38 -169 77 -192 82 -54 11 -225 107 -277
156 -31 29 -93 87 -138 128 -120 109 -212 205 -235 242 -28 46 -68 50 -89 9
-14 -25 -15 -47 -7 -138 8 -85 7 -113 -4 -133 -7 -14 -19 -46 -25 -71 -18 -69
-70 -119 -192 -182 -112 -58 -165 -71 -271 -64 -165 11 -235 38 -366 144 -118
95 -202 177 -237 229 -18 29 -39 58 -46 65 -21 22 -58 104 -58 128 0 12 -13
36 -29 53 -28 30 -32 31 -68 22 -32 -8 -39 -14 -41 -39 -2 -16 -10 -38 -18
-49 -8 -11 -14 -38 -14 -59 0 -21 -7 -51 -15 -66 -8 -16 -17 -48 -21 -70 -4
-23 -22 -67 -40 -97 -19 -31 -34 -60 -34 -65 0 -5 -13 -23 -29 -41 -15 -18
-36 -50 -45 -70 -28 -58 -44 -57 -103 9 -29 32 -58 63 -64 68 -7 6 -38 35 -70
65 -69 66 -109 100 -116 100 -3 0 -21 18 -40 40 -30 34 -75 67 -155 115 -10 5
-42 26 -70 46 -134 92 -228 150 -264 163 -35 12 -80 32 -270 122 -28 13 -56
24 -62 24 -7 0 -12 5 -12 10 0 6 -13 10 -28 10 -15 0 -32 4 -38 9 -10 11 -66
26 -169 46 -38 7 -83 19 -100 26 -16 6 -52 15 -80 20 -27 4 -69 11 -92 14 -43
8 -199 -17 -235 -36 -10 -5 -26 -9 -37 -9 -45 0 -126 -51 -215 -136 -84 -82
-94 -96 -126 -174 -39 -98 -46 -202 -19 -255 27 -51 46 -98 58 -141 7 -26 19
-44 34 -51 12 -6 34 -27 47 -47 16 -23 33 -36 48 -36 12 0 22 -4 22 -10 0 -5
7 -10 15 -10 8 0 15 -4 15 -10 0 -5 9 -10 19 -10 11 0 21 -4 23 -10 2 -5 30
-15 63 -21 33 -6 70 -16 82 -21 28 -14 113 8 113 28 0 8 18 21 40 30 39 16 77
63 63 78 -4 3 1 6 10 6 10 0 17 8 17 20 0 11 5 20 10 20 6 0 10 7 10 15 0 8 5
15 10 15 6 0 10 40 10 100 0 60 -4 100 -10 100 -5 0 -10 9 -10 20 0 11 -4 20
-9 20 -5 0 -12 13 -16 29 -14 67 -128 118 -200 90 -112 -44 -156 -204 -73
-267 10 -7 18 -22 18 -33 0 -10 7 -19 15 -19 8 0 15 -2 15 -4 0 -2 3 -11 6
-20 4 -11 -5 -18 -34 -27 -49 -14 -101 -6 -133 22 -66 56 -91 84 -96 110 -3
16 -9 29 -14 29 -15 0 -10 73 6 104 8 15 15 47 15 70 0 35 6 48 45 89 25 26
50 47 55 47 6 0 10 9 10 20 0 15 9 22 30 27 24 4 29 10 25 23 -6 20 2 24 75
35 25 4 51 12 57 17 13 11 124 3 158 -11 66 -27 77 -31 85 -26 5 3 23 -8 41
-25 19 -16 39 -30 46 -30 7 0 25 -12 40 -26 15 -14 35 -32 44 -40 9 -8 21 -14
27 -14 7 0 12 -11 12 -25 0 -14 14 -47 30 -73 21 -34 30 -62 30 -90 0 -36 3
-42 25 -48 14 -3 31 -2 38 4 21 17 166 35 182 22 10 -8 15 -8 20 0 8 13 60 4
90 -15 11 -7 48 -16 82 -20 38 -4 64 -12 67 -21 3 -8 17 -14 31 -14 15 0 33
-7 41 -15 9 -8 30 -15 48 -15 30 0 115 -49 124 -72 2 -4 18 -8 35 -8 40 0 127
-54 127 -78 0 -26 20 -42 51 -42 20 0 28 -6 33 -24 4 -15 15 -26 28 -28 13 -2
32 -17 43 -35 11 -18 28 -32 38 -33 10 0 21 -8 24 -17 7 -20 42 -53 55 -53 4
0 8 -11 8 -24 0 -30 -16 -34 -98 -23 -35 4 -69 4 -75 -1 -7 -4 -277 -7 -602
-6 -324 2 -719 3 -877 4 -212 0 -305 5 -360 16 -78 16 -186 56 -230 86 -14 10
-33 18 -42 18 -9 0 -16 5 -16 10 0 6 -4 10 -9 10 -5 0 -27 17 -48 37 -22 21
-55 49 -72 63 -32 25 -72 64 -115 112 -13 15 -30 44 -36 65 -17 51 -48 93 -69
93 -9 0 -35 -9 -56 -21 -22 -12 -52 -28 -66 -35 -15 -8 -37 -30 -50 -49 -13
-19 -28 -35 -34 -35 -13 -1 -315 -295 -315 -307 0 -18 -63 -45 -118 -50 -96
-8 -676 -2 -686 8 -21 20 55 99 96 99 13 0 78 68 78 81 0 5 11 9 24 9 26 0 51
24 41 40 -3 6 3 10 15 10 34 0 80 30 136 88 12 12 25 22 30 22 5 0 21 11 36
25 15 14 32 25 38 25 5 0 10 5 10 10 0 6 5 10 10 10 6 0 23 11 38 25 15 14 34
25 44 25 9 0 29 11 44 25 14 13 42 28 62 31 33 6 102 63 102 84 0 5 19 15 41
22 24 7 44 20 46 29 3 10 24 23 50 31 25 7 55 23 68 35 12 13 38 29 58 38 19
8 42 22 51 31 9 9 31 20 49 25 18 4 50 13 72 19 22 5 92 15 155 20 63 6 118
14 122 18 5 5 -3 33 -17 63 -13 30 -25 62 -25 71 0 9 -4 18 -10 20 -16 5 -61
207 -63 284 -3 95 9 106 141 130 53 9 107 23 119 31 26 15 99 18 108 3 3 -5
46 -10 94 -10 63 0 92 -4 100 -14 6 -8 32 -17 56 -21 25 -3 45 -10 45 -16 0
-5 7 -9 15 -9 8 0 15 -4 15 -10 0 -5 14 -10 30 -10 28 0 30 3 30 35 0 19 5 35
10 35 6 0 10 8 10 17 0 9 4 30 9 47 6 17 18 58 27 91 9 33 23 63 30 67 6 5 15
32 19 60 4 29 12 59 17 66 6 6 7 12 3 12 -4 0 -2 7 6 16 7 9 14 23 15 32 10
70 48 162 82 196 16 17 33 46 37 64 4 20 28 54 61 87 30 31 54 60 54 65 0 6 9
10 20 10 10 0 23 6 27 13 4 8 16 16 26 20 9 3 17 13 17 22 0 8 9 15 21 15 16
0 19 4 14 19 -4 15 0 20 17 23 15 2 24 11 26 26 2 13 10 22 21 22 10 0 35 11
55 25 21 14 51 25 71 25 18 0 41 7 50 16 26 26 215 56 308 48 42 -3 80 -10 83
-15 3 -5 21 -9 40 -9 19 0 34 -4 34 -10 0 -5 9 -10 20 -10 11 0 20 -4 20 -10
0 -5 5 -10 10 -10 6 0 19 -8 29 -17 38 -35 48 -41 79 -48 18 -3 32 -13 32 -21
0 -8 7 -14 16 -14 18 0 44 -23 44 -39 0 -6 7 -11 15 -11 8 0 15 -6 15 -12 0
-7 14 -29 30 -48 17 -19 34 -47 37 -62 3 -16 9 -28 14 -28 5 0 9 -6 9 -14 0
-7 7 -19 15 -26 9 -7 15 -29 15 -51 0 -22 3 -39 8 -39 29 0 47 -150 26 -229
-50 -193 -188 -341 -318 -341 l-43 0 0 89 c0 75 -4 96 -24 128 -51 85 -148
146 -214 134 -39 -7 -94 -38 -147 -83 -30 -26 -78 -132 -78 -173 0 -15 11 -41
24 -58 13 -18 26 -44 30 -58 7 -32 63 -90 163 -169 7 -6 21 -10 33 -10 20 0
29 -4 77 -28 13 -7 39 -12 58 -12 19 0 35 -4 35 -10 0 -14 145 -13 189 1 72
23 91 32 91 40 0 5 8 9 18 9 13 0 14 2 4 9 -10 6 -5 10 17 14 17 4 40 16 51
27 11 11 24 20 30 20 6 0 10 5 10 10 0 6 7 10 15 10 9 0 18 7 21 15 4 8 13 15
20 15 8 0 19 11 25 23 6 13 24 31 40 41 16 9 29 21 29 25 0 4 11 21 25 37 24
28 29 39 26 57 -1 4 10 42 24 83 21 63 25 91 23 170 -2 52 -7 94 -11 94 -5 0
-6 3 -4 8 3 4 1 45 -3 92 -9 93 -48 201 -84 235 -12 11 -28 35 -35 52 -7 18
-17 33 -21 33 -5 0 -19 17 -32 37 -26 41 -61 93 -97 145 -13 19 -49 52 -79 74
-30 21 -75 58 -99 81 -24 23 -65 50 -91 59 -26 9 -71 28 -100 41 -29 12 -61
23 -71 23 -10 0 -36 6 -57 14 -83 29 -391 27 -429 -3 -5 -5 -39 -16 -74 -25
-63 -16 -75 -21 -206 -81 -38 -17 -82 -35 -97 -38 -15 -4 -33 -14 -42 -22 -8
-8 -19 -15 -25 -15 -6 0 -11 -3 -11 -8 0 -4 -16 -16 -35 -26 -19 -11 -35 -23
-35 -28 0 -4 -8 -8 -18 -8 -11 0 -27 -9 -38 -21 -10 -12 -39 -31 -64 -44 -25
-13 -72 -53 -105 -89 -33 -36 -64 -66 -69 -66 -4 0 -24 -14 -44 -31 -19 -17
-47 -35 -61 -40 -14 -6 -38 -30 -53 -54 -15 -25 -63 -72 -112 -111 -80 -62
-104 -92 -92 -112 5 -9 -76 -92 -122 -125 -43 -31 -232 -243 -232 -260 0 -8
-44 -56 -97 -107 -86 -80 -117 -115 -176 -193 -8 -9 -34 -38 -58 -65 -25 -26
-71 -78 -104 -117 -70 -84 -169 -197 -211 -241 -17 -18 -42 -47 -56 -66 -43
-56 -180 -191 -246 -241 -34 -27 -62 -51 -62 -55 0 -4 -17 -18 -38 -32 -20
-13 -57 -42 -82 -65 -25 -22 -70 -60 -99 -85 -30 -25 -66 -57 -82 -73 -15 -15
-81 -54 -146 -87 -65 -33 -134 -70 -154 -81 -20 -11 -64 -24 -97 -29 -56 -9
-65 -8 -124 19 -87 38 -215 116 -258 156 -19 18 -58 45 -87 60 -33 17 -56 38
-63 56 -9 21 -24 32 -60 44 -33 11 -65 33 -97 66 -26 27 -51 49 -55 49 -10 0
-43 26 -91 72 -22 21 -43 38 -47 38 -4 0 -63 57 -132 128 -136 137 -287 274
-333 301 -16 9 -44 31 -64 49 -19 17 -41 32 -47 32 -7 0 -25 14 -41 30 -42 45
-129 102 -160 105 -15 1 -63 8 -107 14 -43 6 -97 8 -120 5 -49 -8 -138 -55
-184 -98 -46 -44 -143 -190 -152 -229 -18 -81 28 -249 71 -260 11 -3 23 -14
25 -24 3 -10 17 -27 32 -38 35 -26 147 -28 165 -4 7 9 27 23 45 33 17 9 32 21
32 25 0 5 15 32 34 60 23 36 37 72 45 123 6 40 17 78 23 85 13 16 158 18 158
3 0 -5 7 -10 15 -10 8 0 20 -9 27 -20 7 -11 21 -20 31 -20 11 0 20 -10 23 -29
4 -17 14 -31 25 -34 12 -3 19 -14 19 -30 0 -14 4 -29 10 -32 5 -3 14 -24 20
-45 6 -22 15 -40 20 -40 6 0 10 -29 10 -64 0 -35 7 -80 16 -101 14 -35 18 -37
49 -32 19 3 37 1 40 -4 4 -5 16 -9 28 -9 12 0 28 -9 35 -20 7 -11 19 -20 27
-20 8 0 24 -8 34 -17 39 -36 50 -43 67 -43 9 0 18 -9 21 -20 3 -11 14 -20 24
-20 11 0 19 -7 19 -15 0 -8 9 -15 20 -15 11 0 20 -7 20 -15 0 -8 9 -15 20 -15
11 0 20 -4 20 -8 0 -5 18 -17 41 -27 22 -10 49 -29 59 -42 10 -13 23 -23 29
-23 6 0 11 -7 11 -15 0 -8 6 -15 13 -15 7 0 19 -9 27 -20 8 -11 19 -20 25 -20
5 0 23 -14 39 -30 16 -17 37 -30 47 -30 39 0 39 -70 0 -93 -27 -16 -58 -17
-320 -13 -162 3 -298 9 -308 14 -10 6 -52 8 -93 5 -41 -3 -203 -5 -360 -6
-191 0 -287 -4 -292 -11 -10 -16 -216 -16 -229 0 -5 6 -18 10 -27 7 -10 -2
-30 1 -46 6 -27 11 -27 12 -26 94 2 124 -11 320 -22 334 -5 6 -9 53 -8 105 0
51 -2 192 -6 313 -4 121 -6 227 -5 235 0 8 3 60 5 115 4 96 19 181 37 217 5
10 9 29 9 43 0 14 4 25 9 25 19 0 41 32 41 61 0 24 4 29 25 29 18 0 23 4 19
15 -4 10 0 15 15 15 12 0 29 4 39 9 9 5 85 19 167 31 83 12 170 25 195 29 36
5 46 11 48 29 5 36 -81 260 -106 276 -6 3 -20 25 -31 49 -17 35 -48 77 -111
154 -6 7 -10 14 -10 16 0 3 -16 22 -35 43 -19 21 -35 42 -35 47 0 11 -71 98
-116 142 -60 59 -132 154 -138 182 -10 52 -17 317 -10 411 7 96 20 116 42 67
6 -14 18 -25 27 -25 8 0 15 -5 15 -10 0 -13 100 -164 112 -168 4 -2 8 -10 8
-18 0 -8 5 -14 10 -14 6 0 10 -6 10 -12 1 -7 14 -29 30 -48 17 -19 30 -40 30
-46 0 -7 7 -14 15 -18 8 -3 15 -10 15 -16 0 -15 25 -40 40 -40 6 0 19 -20 29
-43 11 -24 30 -53 42 -63 13 -11 25 -24 26 -31 1 -6 15 -24 30 -41 41 -44 73
-89 73 -101 0 -6 5 -11 10 -11 6 0 10 -6 10 -13 0 -7 14 -27 30 -45 17 -18 30
-40 30 -49 0 -8 13 -27 28 -41 16 -15 37 -40 47 -57 11 -16 25 -34 32 -38 7
-4 13 -14 13 -21 0 -7 17 -29 37 -49 20 -21 33 -37 29 -37 -4 0 4 -14 18 -31
14 -17 26 -37 26 -45 0 -8 7 -14 15 -14 8 0 15 -7 15 -15 0 -8 5 -15 10 -15 6
0 10 -7 10 -15 0 -8 4 -15 9 -15 5 0 11 -10 15 -23 3 -12 14 -32 26 -44 11
-12 20 -26 20 -31 0 -14 92 -101 113 -108 9 -3 17 -14 17 -25 0 -10 7 -19 15
-19 8 0 15 -9 15 -20 0 -11 7 -20 15 -20 8 0 15 -8 15 -17 1 -22 28 -56 57
-71 11 -6 28 -27 37 -47 9 -19 22 -35 28 -35 15 0 88 -80 88 -97 0 -6 11 -23
25 -37 14 -14 25 -32 25 -41 0 -9 7 -18 15 -21 8 -4 15 -12 15 -19 0 -7 11
-16 25 -19 16 -4 25 -13 25 -26 0 -11 4 -20 9 -20 16 0 81 -63 81 -80 0 -8 16
-24 35 -34 19 -11 35 -24 35 -29 0 -16 33 -36 58 -37 17 0 27 -9 35 -30 6 -16
18 -30 27 -30 8 0 24 -12 35 -27 11 -14 25 -31 32 -37 32 -28 43 -36 53 -36 5
0 10 -7 10 -15 0 -9 9 -15 23 -15 12 0 31 -11 41 -25 10 -14 27 -25 37 -25 11
0 19 -4 19 -8 0 -4 20 -13 45 -20 25 -7 45 -16 45 -22 0 -5 7 -10 15 -10 8 0
15 -4 15 -10 0 -5 15 -10 34 -10 19 0 38 -4 41 -10 3 -5 15 -10 25 -10 10 0
20 -5 22 -10 2 -7 48 -11 118 -12 63 -1 120 -5 126 -10 15 -11 109 9 151 33
19 11 40 19 48 19 8 0 15 4 15 8 0 9 27 24 107 59 25 10 41 23 38 31 -2 6 0
12 6 12 15 0 111 101 129 136 8 16 21 33 27 37 7 4 13 15 13 22 0 8 6 15 13
15 8 0 20 11 27 25 7 14 19 25 27 25 8 0 13 12 13 34 0 19 4 37 9 41 11 6 41
63 41 77 0 5 7 16 15 24 8 9 15 24 15 35 0 10 5 19 10 19 6 0 10 15 10 34 0
19 5 47 11 63 14 34 17 55 24 155 7 116 -29 216 -120 328 -52 64 -201 210
-215 210 -8 0 -30 9 -48 20 -131 80 -403 41 -447 -63 -7 -18 -23 -44 -35 -59
-27 -36 -39 -153 -15 -162 9 -3 15 -18 15 -41 0 -25 4 -35 15 -35 9 0 27 -11
41 -25 14 -14 33 -25 43 -25 10 0 39 -18 64 -40 34 -31 53 -40 80 -40 20 0 39
-4 42 -10 3 -5 17 -10 30 -10 30 0 75 -19 97 -41 9 -9 22 -19 28 -21 7 -2 11
-33 11 -80 0 -84 -9 -109 -67 -185 -19 -24 -34 -49 -34 -54 0 -13 -16 -33 -66
-83 -90 -90 -148 -116 -278 -125 -88 -6 -108 -4 -161 14 -33 12 -76 31 -95 43
-19 12 -39 22 -44 22 -19 0 -122 75 -164 120 -85 88 -172 232 -172 284 0 19
-5 47 -10 62 -6 15 -15 69 -20 121 -7 75 -6 99 6 123 9 16 13 34 10 39 -4 5
-2 12 3 16 6 3 8 12 5 19 -3 8 -1 17 5 21 16 9 13 45 -4 51 -19 8 -63 -19 -93
-57 -40 -50 -199 -98 -307 -92 -87 4 -108 13 -163 65 -81 76 -83 97 -44 406
11 88 15 83 -148 168 -30 16 -57 32 -58 37 -2 4 -15 7 -29 7 -26 0 -133 65
-133 81 0 5 -12 15 -27 22 -16 6 -34 16 -42 22 -20 15 -192 185 -227 225 -17
19 -53 55 -80 80 -28 25 -61 63 -74 84 -26 42 -82 110 -159 191 -56 58 -107
133 -97 142 3 3 114 7 246 7 l240 1 0 -42 c0 -24 -1 -46 -2 -49 -2 -3 5 -10
14 -15 10 -6 18 -22 18 -37 1 -15 9 -45 20 -67 11 -22 19 -43 20 -47 0 -4 8
-17 17 -28 27 -31 51 -25 71 18 9 20 25 44 34 53 10 9 18 20 18 23 0 4 18 25
40 46 22 21 40 43 40 49 0 6 4 11 9 11 5 0 27 16 48 36 21 20 54 41 73 47 19
5 154 11 300 14 509 8 776 12 890 11 141 -1 360 1 500 4 116 2 310 -4 310 -10
0 -13 -46 -65 -68 -77 -15 -7 -59 -44 -99 -82 -40 -37 -78 -73 -85 -79 -7 -6
-21 -21 -30 -32 -10 -12 -30 -24 -45 -28 -15 -4 -71 -28 -125 -54 -58 -29
-117 -51 -150 -55 -29 -3 -87 -18 -128 -32 -65 -22 -87 -25 -175 -21 -89 3
-104 7 -142 32 -58 39 -77 33 -84 -29 -6 -55 -17 -85 -29 -85 -4 0 -10 -10
-14 -23 -5 -23 -128 -151 -162 -170 -30 -17 -138 0 -179 28 -21 14 -42 25 -46
25 -17 0 -9 48 11 72 11 12 36 41 55 63 19 22 35 45 35 51 0 7 6 23 13 36 8
16 11 49 7 100 -4 67 -8 79 -35 106 -38 39 -87 60 -159 68 -52 6 -58 5 -102
-27 -25 -19 -58 -46 -73 -60 -33 -30 -71 -137 -78 -219 -5 -48 -1 -64 25 -115
16 -33 44 -74 60 -92 17 -17 29 -33 27 -35 -2 -2 17 -15 43 -28 26 -14 49 -28
50 -32 2 -5 12 -8 23 -8 10 0 19 -7 19 -15 0 -9 9 -15 25 -15 14 0 25 -4 25
-10 0 -5 14 -10 30 -10 17 0 30 -4 30 -10 0 -5 9 -10 19 -10 11 0 22 -4 26 -9
11 -19 295 2 295 21 0 4 15 8 34 8 19 0 51 9 73 19 21 11 55 22 76 26 20 3 37
10 37 16 0 5 8 13 17 16 10 4 29 15 42 25 13 10 32 18 42 18 10 0 26 11 34 24
11 17 29 26 62 31 26 4 56 13 67 20 12 7 39 17 61 21 45 8 95 30 95 43 0 9 56
27 115 37 57 9 422 5 468 -5 21 -5 55 -21 76 -35 20 -14 44 -26 52 -26 15 0
59 70 59 93 0 7 9 23 20 37 11 14 20 35 20 48 0 13 6 22 16 22 10 0 14 6 10
15 -5 15 33 65 50 65 9 1 64 80 76 112 4 10 14 18 22 18 26 0 66 23 66 37 0 7
6 13 14 13 7 0 20 7 27 16 13 16 109 64 127 64 5 0 24 7 42 17 30 14 45 15
134 5 56 -7 115 -12 133 -12 32 0 151 -58 189 -91 11 -11 26 -19 32 -19 7 0
18 -11 24 -25 6 -14 17 -25 25 -25 7 0 17 -8 20 -17 4 -10 23 -38 41 -63 19
-25 41 -60 49 -77 7 -18 17 -33 22 -33 5 0 13 -25 16 -55 5 -40 13 -60 28 -70
27 -19 56 -19 63 -1 3 8 16 17 30 20 13 4 24 13 24 21 0 8 14 22 31 30 16 9
38 24 47 33 10 9 30 25 45 35 15 10 25 22 23 26 -3 4 6 14 19 21 14 7 25 19
25 26 0 8 12 16 28 20 15 3 46 14 69 25 24 10 49 19 56 19 7 0 33 20 59 45 26
25 52 45 58 45 5 0 10 7 10 15 0 9 9 15 23 15 12 0 42 18 66 40 25 22 48 40
53 40 4 0 22 14 40 30 17 17 41 30 53 30 13 0 40 7 61 16 33 14 88 17 386 17
244 0 351 -3 361 -11 7 -6 40 -14 73 -18 34 -4 74 -17 96 -31 21 -12 44 -23
52 -23 8 0 30 -9 48 -19 18 -10 50 -22 70 -25 21 -4 44 -13 52 -21 8 -8 22
-15 30 -15 9 0 16 -4 16 -10 0 -5 9 -10 20 -10 11 0 20 -4 20 -10 0 -5 7 -10
15 -10 9 0 18 -7 21 -15 4 -8 17 -15 30 -15 13 0 24 -4 24 -10 0 -5 6 -10 14
-10 7 0 21 -11 30 -25 9 -14 23 -25 31 -25 8 0 15 -5 15 -11 0 -5 22 -19 50
-31 27 -11 50 -24 50 -28 0 -12 98 -80 115 -80 8 0 15 -5 15 -11 0 -16 26 -39
44 -39 9 0 16 -5 16 -11 0 -13 38 -49 52 -49 4 0 8 -5 8 -11 0 -13 38 -49 52
-49 11 0 66 -49 112 -100 74 -82 111 -111 143 -115 13 -1 36 -16 52 -34 18
-20 37 -31 54 -31 22 0 27 -5 27 -25 0 -18 7 -26 25 -31 14 -3 25 -10 25 -15
0 -5 6 -9 14 -9 8 0 19 -13 25 -30 5 -16 16 -30 24 -30 8 0 17 -7 21 -15 3 -8
11 -15 18 -15 20 -1 78 -57 78 -76 0 -9 9 -18 20 -21 11 -3 20 -9 20 -14 0
-12 63 -79 75 -79 5 0 33 -25 61 -55 29 -30 57 -55 62 -55 6 0 18 -17 27 -38
10 -21 32 -49 51 -61 19 -13 34 -27 34 -32 0 -20 57 -88 87 -104 18 -10 33
-24 33 -31 0 -7 7 -17 16 -22 8 -5 21 -19 27 -32 7 -13 29 -33 49 -43 20 -11
41 -30 47 -43 6 -13 17 -24 26 -24 8 0 15 -4 15 -10 0 -19 68 -80 89 -80 12 0
25 -8 28 -17 4 -10 12 -22 20 -26 7 -4 13 -14 13 -21 0 -7 12 -22 26 -32 14
-10 39 -31 54 -46 16 -16 33 -28 39 -28 5 0 11 -10 13 -22 2 -13 11 -24 23
-27 11 -2 24 -9 28 -17 4 -8 12 -14 18 -14 9 0 21 -8 54 -37 7 -7 19 -13 25
-13 7 0 21 -11 31 -25 11 -13 35 -27 54 -31 19 -3 35 -12 35 -18 0 -20 50 -62
115 -96 33 -18 66 -41 73 -51 7 -11 20 -19 28 -19 8 0 17 -7 20 -15 4 -8 12
-15 19 -15 7 0 15 -7 19 -15 3 -8 13 -15 22 -15 9 0 25 -11 36 -25 11 -15 30
-25 44 -25 14 0 27 -6 30 -14 3 -7 21 -22 40 -32 19 -10 34 -22 34 -26 0 -5
13 -8 30 -8 16 0 45 -11 65 -24 20 -14 43 -22 51 -19 8 3 14 0 14 -6 0 -6 9
-11 20 -11 11 0 20 -4 20 -10 0 -5 17 -10 38 -10 21 0 44 -6 50 -12 16 -16
121 -47 202 -59 36 -6 72 -13 80 -18 18 -9 312 -5 464 6 72 6 111 13 114 21 2
6 14 12 26 12 12 0 29 9 39 20 9 11 25 20 34 20 29 0 96 27 107 42 6 8 20 18
31 21 11 4 25 17 30 29 6 14 22 25 40 28 19 3 31 12 33 25 3 11 10 24 18 28 8
4 14 15 14 22 0 8 7 15 16 15 11 0 14 6 9 20 -5 14 -2 20 10 20 8 0 20 11 25
25 5 14 16 25 24 25 8 0 17 15 20 35 4 19 13 35 20 35 19 0 40 45 32 72 -7 28
13 188 27 206 6 7 9 69 7 145 -6 352 -5 340 -28 389 -12 26 -22 51 -22 56 0 5
-15 29 -32 53 -18 24 -43 65 -56 90 -13 26 -40 60 -60 75 -19 16 -56 45 -80
65 -44 37 -87 53 -129 50 -12 -1 -32 4 -45 12 -37 24 -205 50 -318 50 -98 -1
-109 -3 -164 -32 -32 -17 -69 -31 -83 -31 -18 0 -43 -18 -84 -60 -33 -33 -59
-66 -59 -73 0 -8 -9 -43 -20 -77 -31 -96 -21 -202 19 -215 9 -3 24 -19 34 -36
11 -20 23 -29 32 -25 8 3 17 0 21 -5 13 -22 114 15 114 42 0 11 9 39 21 63 11
24 22 54 23 67 9 65 46 104 107 112 138 21 239 32 239 27 0 -7 51 -30 67 -30
8 0 16 -7 19 -15 4 -8 15 -15 25 -15 10 0 19 -4 19 -10 0 -5 9 -10 20 -10 11
0 23 -7 26 -15 4 -8 15 -15 25 -15 10 0 19 -4 19 -10 0 -5 6 -10 13 -10 13 0
77 -91 77 -110 0 -7 6 -24 14 -38 8 -15 22 -49 32 -75 9 -26 24 -52 32 -56 13
-7 16 -30 15 -125 0 -64 3 -118 7 -121 4 -2 1 -32 -6 -66 -7 -34 -15 -96 -18
-139 -4 -64 -9 -84 -35 -122 -17 -25 -31 -49 -31 -52 0 -8 -41 -67 -56 -81 -6
-5 -21 -24 -33 -42 -11 -17 -50 -48 -86 -67 -35 -20 -67 -41 -70 -46 -9 -15
-67 -41 -135 -60 -127 -36 -345 -21 -499 35 -73 26 -121 57 -192 123 -20 18
-43 34 -51 35 -20 3 -95 75 -120 115 -11 19 -31 45 -44 57 -13 13 -24 30 -24
38 0 7 -16 32 -35 54 -19 23 -35 48 -35 57 0 21 -32 86 -42 86 -4 0 -8 7 -8
16 0 31 -74 93 -118 100 -37 6 -46 2 -91 -30 -73 -54 -142 -64 -240 -36 -68
20 -150 65 -206 112 -122 105 -154 137 -191 189 -35 51 -44 72 -49 125 -4 35
-11 64 -16 64 -5 0 -6 14 -2 30 3 17 1 30 -4 30 -11 0 -1 84 17 155 41 159 0
197 -173 160 -63 -13 -110 -13 -243 -1 -48 5 -111 30 -139 56 -37 33 -214 140
-234 140 -10 0 -21 6 -24 14 -7 17 -176 136 -194 136 -7 0 -13 4 -13 8 0 5
-21 24 -47 42 -27 19 -86 68 -132 109 -46 42 -109 96 -140 120 -31 24 -78 65
-106 91 -27 26 -86 71 -130 100 -44 29 -96 67 -115 84 -19 18 -46 38 -60 44
-14 7 -52 30 -85 52 -33 21 -83 53 -111 70 -28 17 -60 40 -70 51 l-19 21 145
0 c569 1 740 -5 740 -26 0 -7 16 -20 36 -30 21 -9 46 -28 56 -42 13 -16 30
-24 49 -24 16 0 29 -5 29 -11 0 -16 26 -39 44 -39 9 0 16 -4 16 -10 0 -5 7
-10 15 -10 8 0 15 -7 15 -15 0 -8 11 -17 24 -21 14 -3 32 -16 40 -29 9 -13 34
-34 56 -46 22 -12 40 -26 40 -31 0 -14 107 -88 128 -88 20 0 47 32 36 43 -9 9
77 87 112 102 19 8 34 19 34 24 0 6 15 17 33 25 17 7 51 32 75 54 23 22 55 42
71 45 15 3 43 20 62 38 18 17 56 38 84 46 27 8 66 22 86 30 24 10 85 16 185
19 82 2 198 6 258 9 60 3 114 1 120 -4 6 -5 37 -5 74 1 39 6 68 6 75 0 16 -12
174 -14 182 -2 3 5 70 7 158 4 284 -9 610 -6 661 8 23 5 41 6 45 1 3 -5 120
-8 261 -7 270 2 320 -1 320 -20 0 -14 -109 -129 -146 -153 -16 -10 -39 -30
-52 -45 -12 -15 -39 -32 -60 -39 -37 -12 -126 -72 -151 -102 -7 -9 -29 -19
-50 -23 -20 -4 -49 -15 -66 -24 -58 -35 -208 -110 -220 -110 -7 0 -25 -6 -41
-14 -58 -29 -186 -39 -317 -27 -67 6 -140 18 -162 25 -127 43 -153 46 -179 18
-9 -11 -19 -44 -22 -78 -3 -32 -7 -66 -8 -75 -2 -16 -97 -131 -146 -177 -44
-41 -181 -91 -251 -92 -78 0 -299 153 -316 218 -3 15 -15 44 -25 64 -25 48
-17 98 15 98 45 0 67 -12 67 -35 0 -55 96 -97 134 -60 8 8 20 15 27 15 21 0
49 32 49 57 0 12 3 23 8 23 4 0 13 13 20 29 10 23 10 37 0 70 -7 23 -16 41
-20 41 -4 0 -5 6 -2 13 7 18 -40 77 -87 109 -46 31 -82 30 -154 -1 -53 -24
-165 -131 -165 -159 0 -12 -4 -22 -10 -22 -22 0 -3 -196 21 -211 6 -3 10 -10
10 -15 -1 -5 5 -16 12 -25 8 -9 17 -28 21 -43 4 -15 18 -45 31 -67 14 -21 25
-42 25 -46 0 -10 71 -73 82 -73 6 0 27 -13 48 -30 21 -17 45 -30 54 -30 9 0
16 -4 16 -10 0 -5 11 -10 23 -10 13 0 27 -3 31 -7 4 -4 37 -8 73 -10 37 -1 71
-7 77 -13 12 -12 156 -13 156 -1 0 5 33 11 73 14 69 4 179 27 222 47 11 4 61
21 110 37 54 17 89 33 87 41 -1 7 10 12 28 12 16 0 30 4 30 9 0 4 23 11 52 14
28 4 56 11 62 17 5 5 19 10 30 10 30 0 135 53 136 68 0 6 7 12 15 12 8 0 15 4
15 9 0 5 19 11 43 14 54 6 130 34 140 53 4 8 15 14 23 14 8 0 22 4 32 9 9 5
37 14 62 21 44 11 140 68 140 83 0 4 10 7 23 8 12 0 36 9 52 20 17 11 42 25
58 31 15 7 27 16 27 20 0 4 7 8 15 8 8 0 15 5 15 10 0 6 11 15 25 20 14 5 25
14 25 19 0 15 55 41 85 41 14 0 25 -4 25 -10 0 -5 7 -10 15 -10 9 0 26 -11 39
-25 13 -14 28 -25 33 -25 6 0 18 -11 27 -25 10 -14 28 -30 42 -35 14 -6 30
-23 35 -39 6 -16 21 -37 35 -46 13 -8 24 -22 24 -30 0 -8 7 -15 15 -15 8 0 15
-4 15 -10 0 -12 77 -33 96 -26 8 3 14 16 14 29 0 13 3 27 7 30 3 4 8 24 10 44
2 20 8 42 12 48 5 5 11 25 15 43 3 17 9 45 12 60 3 16 18 34 36 45 19 11 28
23 24 32 -3 8 -1 15 4 15 6 0 10 7 10 15 0 9 7 18 15 21 8 4 15 15 15 25 0 11
9 21 24 25 21 5 46 40 46 63 0 15 66 78 90 86 13 4 33 18 46 30 12 12 40 26
61 30 21 4 43 11 50 16 6 6 70 12 142 13 103 3 133 0 142 -11 7 -8 18 -12 26
-9 15 6 76 -25 109 -55 11 -10 28 -19 38 -19 9 0 15 -3 13 -7 -3 -5 13 -19 34
-33 21 -13 39 -28 39 -33 0 -5 18 -27 41 -49 28 -27 42 -51 46 -76 3 -20 11
-44 18 -52 23 -28 45 -83 45 -111 0 -33 30 -65 68 -72 42 -8 89 17 151 81 31
32 64 61 74 65 9 3 17 13 17 20 0 8 12 19 26 26 16 7 24 17 21 25 -4 9 3 16
19 20 14 4 38 19 54 34 40 38 58 52 68 52 5 0 22 16 38 35 17 21 38 35 51 35
12 0 25 4 28 10 3 5 15 10 26 10 10 0 19 6 19 13 0 17 58 54 98 62 17 4 32 12
32 20 0 26 117 57 230 60 41 1 94 5 116 9 26 5 44 4 48 -3 4 -6 15 -7 29 -2
24 10 93 15 142 13 24 -2 33 -9 41 -30 10 -27 16 -29 82 -35 59 -5 78 -11 109
-36 21 -16 50 -33 66 -36 15 -4 30 -11 33 -16 3 -5 16 -9 30 -9 17 0 24 -5 24
-20 0 -14 7 -20 24 -20 13 0 26 -7 30 -15 3 -8 12 -15 21 -15 8 0 15 -6 15
-14 0 -8 22 -31 50 -52 27 -21 52 -46 55 -56 4 -9 15 -20 25 -23 27 -9 120
-102 120 -120 0 -9 11 -20 25 -25 14 -5 28 -17 31 -25 4 -8 11 -15 18 -15 16
-1 63 -44 70 -66 6 -18 110 -134 120 -134 8 0 76 -72 76 -81 0 -5 13 -15 30
-24 16 -8 33 -27 36 -40 3 -14 10 -25 15 -25 5 0 9 -7 9 -15 0 -8 4 -15 9 -15
5 0 12 -13 16 -30 4 -17 11 -30 17 -30 15 0 58 -48 58 -66 0 -7 5 -14 10 -14
6 0 10 -6 10 -14 0 -8 8 -17 18 -21 11 -3 24 -17 30 -30 6 -14 16 -25 22 -25
6 0 9 -4 6 -9 -3 -5 9 -22 27 -37 19 -16 36 -37 40 -47 4 -9 15 -20 24 -23 42
-14 62 -28 65 -48 2 -12 13 -25 25 -31 13 -5 27 -22 32 -37 5 -14 19 -31 30
-38 12 -6 21 -17 21 -25 0 -8 6 -15 13 -15 6 0 21 -19 31 -42 23 -49 79 -115
107 -123 10 -4 19 -12 19 -19 0 -8 20 -32 45 -55 24 -22 51 -53 59 -68 17 -33
38 -56 95 -101 22 -19 41 -38 41 -42 0 -5 17 -26 38 -48 20 -21 53 -57 72 -80
19 -23 43 -41 53 -42 9 0 17 -6 17 -14 0 -8 16 -31 35 -52 19 -20 35 -41 35
-45 0 -5 7 -9 15 -9 7 0 18 -6 22 -13 4 -8 20 -22 36 -32 15 -9 27 -24 27 -31
0 -8 5 -14 10 -14 6 0 26 -16 46 -35 19 -19 41 -35 48 -35 8 0 16 -8 19 -19 2
-10 17 -21 33 -25 15 -4 34 -16 42 -27 7 -10 17 -19 22 -19 6 0 32 -14 58 -30
27 -17 57 -30 66 -30 9 0 16 -4 16 -10 0 -5 7 -10 15 -10 8 0 15 -4 15 -8 0
-4 23 -16 50 -26 28 -10 50 -22 50 -27 0 -5 14 -9 30 -9 17 0 30 -4 30 -10 0
-5 9 -10 20 -10 11 0 20 -4 20 -10 0 -5 17 -10 38 -10 21 0 42 -4 47 -9 15
-14 92 -20 305 -23 185 -3 198 -2 260 21 99 36 120 45 120 53 0 3 25 14 55 23
30 10 55 23 55 29 0 6 21 25 45 41 25 17 45 35 45 41 0 7 7 15 16 18 8 3 13
10 9 15 -3 5 -1 12 5 16 5 3 10 14 10 25 0 10 7 20 15 24 8 3 15 10 15 16 0 6
9 21 21 33 13 14 19 31 16 50 -2 15 0 27 5 27 4 0 8 14 8 30 0 17 5 30 10 30
6 0 10 8 10 18 0 10 3 22 8 26 8 9 11 51 12 226 1 94 -2 134 -14 162 -9 21
-16 49 -16 63 0 14 -9 44 -19 68 -11 23 -30 71 -41 107 -12 36 -28 69 -36 73
-8 4 -14 18 -14 30 0 12 -9 33 -20 47 -11 14 -20 32 -20 41 0 8 -14 28 -31 45
-17 16 -37 41 -45 56 -7 14 -27 32 -43 39 -17 7 -32 23 -35 35 -3 11 -25 34
-48 49 -24 16 -54 39 -68 51 -43 37 -319 132 -343 117 -5 -3 -56 -8 -115 -12
-92 -7 -117 -13 -175 -41 -74 -36 -92 -55 -102 -110 -12 -67 -16 -161 -8 -173
5 -7 18 -34 28 -62 27 -76 73 -111 153 -120 44 -5 67 -3 72 4 3 7 24 14 46 18
45 7 67 21 60 39 -3 7 2 15 11 19 13 4 14 8 5 17 -14 14 -16 98 -2 98 5 0 12
16 16 35 l6 35 82 -6 c51 -5 84 -12 89 -20 4 -8 15 -14 22 -14 8 0 15 -4 15
-10 0 -5 7 -10 16 -10 19 0 124 -109 124 -129 0 -4 10 -12 23 -18 17 -8 28
-30 45 -86 13 -42 27 -79 33 -82 5 -4 9 -17 9 -30 0 -12 7 -25 15 -29 8 -3 15
-16 15 -29 0 -13 3 -27 7 -31 12 -11 33 -80 33 -107 0 -14 4 -29 10 -35 30
-30 19 -281 -16 -348 -7 -16 -11 -39 -8 -52 10 -39 -84 -123 -198 -177 -163
-77 -164 -77 -372 -84 -204 -7 -239 5 -576 188 -80 44 -225 198 -273 290 -21
41 -37 80 -37 87 0 6 -3 12 -7 12 -12 0 -41 79 -54 145 -13 74 -20 295 -9 295
14 0 9 198 -5 217 -12 16 -16 15 -52 -10 -22 -15 -65 -33 -96 -39 -31 -7 -54
-15 -51 -19 6 -10 -57 -20 -125 -20 -103 -1 -273 98 -296 171 -3 11 -10 20
-15 20 -10 0 -22 91 -25 198 -2 47 1 82 7 82 5 0 6 9 3 20 -5 14 -2 20 9 20 9
0 16 7 16 15 0 8 5 15 10 15 6 0 10 14 10 32 0 17 -3 29 -6 25 -3 -3 -34 5
-69 18 -46 18 -101 27 -197 35 -73 6 -146 13 -163 16 -61 13 -171 72 -210 113
-22 23 -53 49 -70 58 -34 18 -82 69 -91 96 -3 9 -10 17 -15 17 -15 0 -88 56
-111 85 -33 43 -112 115 -125 115 -7 0 -13 7 -13 15 0 8 -11 17 -25 21 -14 3
-25 11 -25 18 0 6 -13 20 -30 29 -44 26 -100 82 -100 100 0 24 36 27 282 29
222 2 228 1 251 -20 13 -12 28 -22 34 -22 6 0 14 -11 17 -25 4 -14 18 -31 31
-37 13 -6 22 -15 19 -19 -3 -5 0 -9 6 -9 18 0 38 -25 46 -55 4 -15 15 -30 25
-32 11 -3 19 -9 19 -14 0 -10 37 -49 46 -49 3 0 15 -11 26 -25 11 -14 26 -25
34 -25 8 0 14 -4 14 -9 0 -5 14 -14 32 -22 17 -7 44 -25 59 -40 19 -18 44 -30
74 -34 25 -4 49 -13 53 -20 4 -7 22 -20 40 -29 17 -9 32 -21 32 -26 0 -6 20
-10 45 -10 51 0 65 16 47 53 -34 68 -55 241 -31 249 9 3 8 10 -1 28 -14 27 -9
165 7 181 21 21 142 30 408 29 154 -1 316 -1 360 1 44 1 206 3 360 5 154 1
292 5 308 8 15 3 27 2 27 -3 0 -5 53 -8 118 -7 64 1 158 -1 207 -4 50 -4 101
-3 115 2 26 10 428 13 438 4 2 -3 0 -12 -6 -19 -7 -8 -9 -17 -6 -20 4 -4 -4
-11 -18 -16 -13 -5 -30 -17 -38 -27 -8 -9 -45 -31 -81 -49 -36 -17 -80 -41
-96 -53 -17 -12 -35 -22 -41 -22 -5 0 -31 -9 -58 -19 -98 -38 -242 -61 -389
-63 -129 -1 -146 1 -213 25 -60 22 -77 25 -95 15 -25 -13 -53 -49 -49 -62 4
-12 -42 -88 -68 -111 -12 -11 -26 -30 -31 -42 -10 -26 -67 -64 -123 -83 -72
-23 -296 12 -296 46 0 7 14 28 30 46 17 18 31 40 31 50 1 18 5 36 8 41 1 1 4
26 6 56 3 39 -1 64 -15 91 -24 48 -33 54 -107 79 -74 25 -155 28 -173 6 -7 -8
-9 -15 -5 -15 5 0 2 -8 -6 -17 -16 -20 -33 -53 -48 -95 -10 -26 -6 -58 17
-175 10 -44 93 -153 118 -153 8 0 14 -5 14 -11 0 -16 31 -38 55 -39 22 -1 51
-20 53 -35 2 -14 203 -38 222 -27 8 5 24 6 35 1 34 -13 176 -10 258 6 44 8 96
12 118 9 33 -6 38 -4 33 9 -9 24 32 40 86 33 36 -5 50 -3 60 9 7 8 27 15 44
15 78 0 256 50 288 82 11 11 44 27 73 35 30 9 62 23 72 32 20 18 126 71 142
71 6 0 10 3 10 8 -4 22 3 32 21 32 11 0 25 9 32 21 7 11 30 29 51 40 20 11 37
24 37 29 0 6 5 10 10 10 14 0 57 40 44 40 -5 1 8 10 30 21 21 11 41 29 43 40
3 10 12 19 19 19 8 0 19 11 24 24 5 15 20 27 39 31 22 5 31 13 31 26 0 10 6
19 13 19 24 0 77 31 77 45 0 15 15 23 49 24 18 1 22 -3 16 -16z"/>
<path d="M5548 3644 c-16 -8 -28 -19 -28 -24 0 -5 -10 -10 -22 -12 -16 -2 -24
-12 -29 -34 -3 -17 -16 -41 -27 -52 -12 -12 -22 -31 -22 -42 0 -11 -4 -20 -10
-20 -5 0 -10 -7 -10 -15 0 -8 -3 -15 -8 -15 -12 0 -34 -59 -28 -75 3 -8 1 -15
-4 -15 -12 0 -1 -173 12 -178 4 -2 8 -19 8 -38 0 -19 4 -34 9 -34 4 0 11 -23
14 -51 4 -28 11 -56 16 -63 6 -7 13 -43 17 -81 4 -39 13 -77 21 -86 11 -14 13
-45 7 -168 -6 -138 -5 -151 10 -151 25 0 56 19 56 34 0 7 11 19 25 26 14 7 25
17 25 22 0 4 9 17 20 28 11 11 20 31 20 45 0 14 4 25 9 25 5 0 12 8 15 18 15
40 31 59 55 70 22 10 31 26 50 97 14 47 29 85 34 85 5 0 7 14 5 30 -3 17 -1
30 4 30 4 0 8 7 8 15 0 8 7 15 15 15 9 0 15 9 15 24 0 14 4 28 10 31 5 3 9 24
8 45 -1 27 5 47 18 61 16 17 20 40 22 129 4 102 2 110 -22 149 -14 22 -26 46
-27 53 0 17 -104 98 -152 121 -47 21 -102 21 -139 1z"/>
<path d="M13580 3651 c-8 -5 -31 -17 -50 -26 -37 -17 -93 -50 -127 -75 -29
-22 -62 -92 -46 -97 9 -3 5 -15 -12 -37 -13 -17 -27 -52 -31 -76 -4 -25 -10
-49 -14 -55 -8 -11 4 -322 16 -395 4 -25 10 -49 14 -55 4 -5 10 -32 14 -60 4
-27 10 -70 14 -95 4 -25 4 -70 -1 -100 -5 -37 -4 -61 4 -77 7 -12 9 -39 6 -62
-3 -23 -1 -44 4 -47 5 -3 7 -10 4 -15 -4 -5 -8 -39 -11 -77 -2 -37 -5 -80 -7
-97 -2 -26 1 -30 22 -27 45 5 75 26 83 59 5 18 16 38 26 45 19 14 34 43 53
101 9 24 19 37 31 37 13 0 18 8 18 26 0 14 14 43 30 64 17 21 30 42 30 48 0 5
6 12 13 15 18 7 50 108 41 130 -4 11 4 26 24 45 23 22 33 45 47 107 9 44 23
89 30 100 10 16 20 58 30 130 1 6 4 17 7 25 16 38 15 101 -2 255 -18 155 -21
168 -47 196 -67 73 -170 116 -213 90z"/>
<path d="M7719 3212 c-72 -19 -114 -55 -153 -129 -17 -34 -22 -118 -7 -127 5
-3 12 -21 15 -39 11 -61 108 -118 173 -103 15 4 39 9 53 12 39 9 70 26 70 41
0 7 6 13 14 13 8 0 15 16 18 44 8 64 -7 203 -23 222 -35 42 -119 77 -160 66z"/>
<path d="M15778 3047 c-20 -7 -56 -30 -81 -52 -34 -32 -42 -45 -36 -60 4 -11
8 -56 8 -101 1 -65 5 -84 19 -97 10 -10 24 -17 31 -17 6 0 14 -7 17 -15 4 -8
14 -15 23 -15 9 0 30 -8 46 -17 33 -18 173 -22 184 -6 3 5 14 12 24 16 10 4
16 11 12 16 -3 5 3 16 13 23 32 22 37 107 11 185 -29 85 -73 133 -123 133 -20
0 -36 5 -36 10 0 13 -66 11 -112 -3z"/>
<path d="M9260 2529 c-9 -16 -8 -25 6 -40 9 -10 21 -42 25 -71 5 -29 13 -54
19 -56 5 -2 10 -10 10 -18 0 -8 5 -14 11 -14 5 0 15 -13 20 -30 6 -16 14 -30
18 -30 16 0 35 -133 37 -260 6 -291 17 -464 30 -478 8 -7 14 -27 14 -43 0 -16
5 -29 10 -29 6 0 10 -9 10 -20 0 -11 6 -20 14 -20 8 0 27 -16 42 -36 42 -53
54 -64 70 -64 8 0 22 -4 32 -9 61 -31 74 -34 144 -28 48 4 76 11 84 22 6 8 19
15 28 15 23 0 56 18 56 31 0 5 11 21 25 35 14 14 23 30 20 35 -4 5 1 9 9 9 19
0 29 51 25 119 -2 28 0 52 4 54 13 4 21 117 8 117 -6 0 -11 18 -11 45 0 25 -4
45 -10 45 -5 0 -10 13 -10 29 0 18 -11 40 -30 59 -16 18 -30 41 -30 51 0 11
-7 26 -15 35 -8 8 -15 19 -15 25 0 6 -4 11 -10 11 -5 0 -10 7 -10 15 0 9 -34
49 -75 91 -41 41 -75 78 -75 81 0 4 -66 68 -112 109 -7 6 -21 23 -32 37 -10
15 -27 29 -37 32 -11 4 -19 13 -19 21 0 8 -4 14 -9 14 -4 0 -29 18 -55 41 -25
22 -46 38 -46 34 0 -3 -7 1 -16 9 -8 9 -23 16 -33 16 -9 0 -26 7 -37 15 -29
22 -71 19 -84 -6z"/>
<path d="M18725 2429 c-22 -5 -44 -14 -49 -19 -6 -6 -16 -10 -22 -10 -25 0
-64 -47 -64 -77 0 -16 -5 -34 -11 -40 -11 -11 -8 -86 6 -148 3 -16 8 -40 11
-52 2 -13 11 -23 19 -23 8 0 15 -7 15 -15 0 -10 10 -15 31 -15 17 0 45 -11 65
-26 31 -24 44 -27 140 -31 102 -4 174 7 174 27 0 5 12 21 28 37 19 20 26 36
24 56 -2 15 1 27 7 27 15 0 2 91 -15 111 -8 8 -14 32 -14 52 0 20 -4 37 -10
37 -5 0 -10 6 -10 14 0 14 -71 76 -99 87 -31 12 -187 18 -226 8z"/>
<path d="M17124 2353 c3 -21 10 -74 16 -119 5 -45 14 -94 20 -109 7 -17 8 -52
3 -89 -4 -34 -5 -65 -4 -71 8 -22 11 -185 4 -185 -5 0 -9 -14 -10 -31 -1 -18
-9 -39 -18 -49 -11 -12 -15 -39 -15 -96 0 -50 -6 -89 -15 -107 -18 -35 -15
-189 3 -195 7 -2 12 -11 12 -19 0 -25 52 -113 67 -113 7 0 16 -7 20 -16 3 -8
12 -13 19 -10 7 3 16 1 18 -3 16 -25 235 -18 244 8 2 6 12 11 23 11 12 0 19 7
19 19 0 11 9 23 20 26 11 3 20 12 20 18 0 7 6 24 14 39 17 32 22 253 6 263 -5
3 -10 17 -10 30 0 13 -4 27 -10 30 -5 3 -10 17 -10 31 0 14 -6 27 -13 30 -7 2
-14 19 -15 37 -2 17 -7 34 -12 35 -6 2 -10 12 -10 22 0 10 -7 25 -15 34 -10
10 -13 24 -9 40 4 19 0 31 -20 49 -14 13 -26 29 -26 35 0 6 -6 17 -13 24 -7 7
-19 40 -26 73 -7 33 -22 72 -32 87 -11 14 -19 39 -19 55 0 16 -11 44 -25 63
-14 19 -25 40 -25 47 0 7 -4 13 -10 13 -5 0 -10 7 -10 15 0 8 -4 15 -10 15 -5
0 -10 7 -10 15 0 8 -4 15 -9 15 -5 0 -12 8 -15 18 -7 21 -66 52 -97 52 -19 0
-21 -4 -15 -37z"/>
<path d="M4134 2303 c-32 -6 -114 -95 -114 -124 0 -9 5 -41 11 -73 10 -49 18
-62 54 -92 31 -25 52 -34 78 -34 62 0 186 38 188 58 3 31 10 47 23 54 20 11
21 64 2 110 -21 50 -75 87 -144 98 -58 10 -62 10 -98 3z"/>
<path d="M12086 2285 c-17 -7 -41 -22 -55 -34 -15 -13 -42 -32 -61 -44 -22
-14 -45 -42 -62 -77 -31 -64 -34 -87 -13 -126 8 -16 15 -36 15 -45 0 -32 71
-110 117 -130 57 -24 110 -24 215 1 66 15 89 26 110 50 15 16 25 36 22 44 -3
7 2 30 10 51 23 54 21 130 -5 171 -11 19 -24 34 -29 34 -4 0 -35 27 -68 60
-59 59 -62 60 -114 59 -29 0 -66 -6 -82 -14z"/>
</g>
</svg>
