<svg version="1.0" xmlns="http://www.w3.org/2000/svg"
 width="2556.000000pt" height="565.000000pt" viewBox="0 0 2556.000000 565.000000"
 preserveAspectRatio="xMidYMid meet">
<metadata>
Created by potrace 1.13, written by Peter Selinger 2001-2015
</metadata>
<g transform="translate(0.000000,565.000000) scale(0.100000,-0.100000)"
fill="currentColor" stroke="none">
<path d="M12802 5428 c-16 -16 -15 -35 1 -41 20 -8 39 8 35 28 -4 23 -20 29
-36 13z"/>
<path d="M12224 5299 c-9 -15 12 -33 30 -26 9 4 16 13 16 22 0 17 -35 21 -46
4z"/>
<path d="M12810 5285 c-5 -14 -12 -36 -16 -49 -3 -13 -39 -56 -80 -97 -76 -76
-93 -111 -80 -164 9 -35 41 -65 71 -65 42 0 31 -34 -20 -64 -25 -15 -63 -51
-84 -80 -37 -50 -43 -54 -103 -66 -35 -8 -82 -22 -105 -32 -48 -21 -52 -20
-150 44 -77 51 -98 79 -127 177 -23 78 -20 96 19 136 34 33 36 39 33 92 -2 34
-8 58 -16 61 -7 2 -26 -12 -44 -32 -18 -21 -41 -36 -54 -36 -28 0 -36 -21 -22
-58 11 -27 9 -35 -16 -71 -50 -72 -56 -188 -15 -294 14 -35 16 -53 9 -66 -12
-24 -61 -41 -114 -41 -23 0 -63 -7 -90 -15 -65 -20 -108 -19 -145 2 -27 16
-32 16 -46 3 -12 -13 -13 -21 -3 -48 8 -22 9 -37 3 -46 -121 -169 -184 -230
-214 -211 -17 10 -100 -6 -122 -24 -12 -10 -26 -41 -34 -75 -12 -51 -12 -65 2
-105 8 -25 30 -66 47 -90 17 -24 38 -62 46 -85 19 -50 36 -55 85 -22 21 15 48
26 61 26 31 0 67 16 144 66 83 53 109 82 117 128 11 68 -61 142 -152 156 -38
5 -40 7 -38 38 2 44 46 109 88 129 32 15 37 15 76 -2 40 -19 42 -19 55 0 8 10
14 33 14 51 0 17 6 37 14 43 21 18 115 43 136 36 11 -3 33 -31 50 -61 18 -30
43 -62 57 -72 50 -35 60 -51 78 -123 20 -84 38 -109 103 -140 99 -46 199 -20
195 52 -2 44 -27 62 -80 56 -50 -5 -55 6 -13 28 39 20 130 10 173 -19 57 -39
93 -97 100 -162 3 -32 2 -77 -3 -99 -5 -22 -12 -57 -15 -77 -7 -46 -18 -47
-83 -9 -62 36 -131 51 -202 42 -69 -9 -88 -19 -134 -75 -25 -31 -49 -49 -75
-56 -33 -9 -46 -21 -80 -75 -41 -66 -72 -88 -109 -78 -72 18 -193 -85 -176
-151 9 -36 63 -83 119 -101 60 -20 79 -36 96 -78 6 -18 35 -55 64 -83 34 -33
54 -62 59 -85 4 -23 24 -50 64 -88 85 -81 106 -91 188 -91 63 0 76 4 129 35
36 22 65 33 77 29 61 -19 121 -286 70 -313 -11 -6 -220 -10 -533 -10 -283 0
-797 -3 -1144 -7 -346 -3 -868 -7 -1160 -9 -291 -3 -759 -6 -1040 -9 -280 -3
-973 -8 -1540 -11 -1407 -8 -2248 -13 -2770 -18 -1964 -18 -3612 -21 -3664 -7
-34 9 -111 71 -111 90 0 5 20 32 45 61 47 55 50 66 22 83 -13 8 -30 3 -77 -22
-67 -37 -87 -36 -132 5 -21 20 -25 31 -21 58 5 32 5 32 -41 37 -26 3 -55 13
-65 22 -36 33 -73 2 -38 -33 6 -6 12 -33 12 -59 l0 -47 52 0 c46 -1 57 -5 88
-35 19 -19 35 -40 35 -47 0 -7 -16 -30 -35 -52 -36 -40 -44 -68 -23 -89 20
-20 35 -14 77 28 22 22 46 40 53 40 24 0 57 -29 93 -84 l35 -53 0 -479 c-1
-263 -3 -576 -6 -694 -2 -118 -6 -339 -7 -490 -3 -246 -5 -278 -21 -303 -10
-15 -30 -30 -44 -34 -21 -5 -31 1 -59 36 -38 45 -61 51 -86 23 -25 -28 -21
-49 19 -97 46 -56 42 -80 -14 -110 -36 -19 -49 -22 -72 -13 -55 19 -97 -35
-50 -64 28 -18 26 -25 -20 -74 -43 -47 -47 -56 -27 -72 9 -8 24 -3 57 19 40
27 50 29 92 24 54 -8 66 4 49 48 -12 30 6 57 53 81 33 17 47 12 108 -36 49
-38 82 -35 86 8 2 23 -6 40 -38 76 -22 25 -40 52 -40 60 0 8 12 25 26 39 24
23 34 24 172 29 81 3 379 1 662 -3 360 -5 532 -5 572 3 40 8 75 8 115 1 35 -6
351 -11 783 -12 399 -1 813 -2 920 -3 107 0 231 0 275 2 77 2 3972 -5 4475 -9
135 -1 391 -1 570 -1 179 0 534 0 790 0 256 0 706 -1 1000 -1 690 1 2860 1
3550 0 294 0 744 1 1000 1 256 0 611 0 790 0 179 0 435 0 570 1 503 4 4398 11
4475 9 44 -2 168 -2 275 -2 107 1 521 2 920 3 432 1 748 6 783 12 40 7 75 7
115 -1 40 -8 212 -8 572 -3 283 4 581 6 662 3 138 -5 148 -6 172 -29 14 -14
26 -31 26 -39 0 -8 -18 -35 -40 -60 -32 -36 -40 -53 -38 -76 4 -43 37 -46 86
-8 61 48 75 53 108 36 47 -24 65 -51 53 -81 -17 -44 -5 -56 49 -48 42 5 52 3
92 -24 33 -22 48 -27 57 -19 20 16 16 25 -27 72 -46 49 -48 56 -20 74 47 29 5
83 -50 64 -23 -9 -36 -6 -72 13 -56 30 -60 54 -14 110 40 49 45 74 18 98 -29
26 -47 21 -85 -24 -28 -35 -38 -41 -59 -36 -14 4 -34 19 -44 34 -16 25 -18 57
-21 303 -1 151 -5 372 -7 490 -3 118 -5 431 -6 694 l0 479 35 53 c36 55 69 84
93 84 7 0 31 -18 53 -40 42 -42 57 -48 77 -28 21 21 13 49 -23 89 -19 22 -35
45 -35 52 0 7 16 28 35 47 31 30 42 34 88 35 l52 0 0 47 c0 26 6 53 13 59 34
35 -3 66 -39 33 -10 -9 -39 -19 -65 -22 -46 -5 -46 -5 -41 -37 4 -27 0 -38
-21 -58 -45 -41 -65 -42 -132 -5 -47 25 -64 30 -77 22 -28 -17 -25 -28 22 -83
25 -29 45 -56 45 -61 0 -19 -77 -81 -111 -90 -52 -14 -1700 -11 -3664 7 -522
5 -1363 10 -2770 18 -566 3 -1259 8 -1540 11 -280 3 -751 7 -1045 9 -529 4
-1310 13 -1445 15 -38 1 -137 1 -220 0 -82 -1 -380 -1 -662 0 -391 1 -514 4
-522 13 -6 9 -7 51 -2 126 7 93 12 117 29 133 l20 20 59 -28 c46 -23 75 -30
138 -32 74 -3 83 -2 123 25 52 36 88 87 97 139 11 66 15 74 48 91 18 9 50 31
71 50 36 30 57 39 137 57 15 3 51 22 80 42 132 89 140 119 53 201 -31 29 -62
53 -70 53 -37 0 -95 43 -129 94 -20 31 -53 69 -72 87 -32 27 -42 31 -79 26
-52 -5 -72 7 -110 68 -16 25 -37 48 -47 51 -9 3 -29 16 -45 28 -32 28 -156 45
-188 27 -34 -19 -138 -53 -169 -55 l-30 -1 -2 75 c-5 136 57 214 198 251 91
24 151 -32 95 -90 -50 -53 -25 -82 73 -83 39 -1 68 5 89 17 31 18 69 88 74
135 2 20 17 32 70 59 37 19 70 42 73 52 3 9 15 29 26 43 25 32 63 34 139 5 75
-28 81 -36 48 -63 -33 -26 -35 -41 -9 -56 28 -15 65 -12 105 7 25 11 41 14 55
7 26 -12 131 -152 131 -175 0 -10 -17 -27 -41 -41 -69 -38 -96 -120 -60 -179
12 -19 21 -43 21 -54 0 -32 33 -73 83 -105 32 -20 48 -38 52 -57 9 -39 20 -58
35 -58 17 0 86 98 101 142 7 23 25 41 63 63 52 29 95 79 115 132 15 40 -27
117 -92 169 l-52 41 -82 -5 -82 -6 -71 80 c-38 44 -70 84 -70 89 0 5 14 20 30
32 23 16 30 29 28 48 -4 32 -27 36 -94 15 l-54 -17 -98 37 c-197 74 -222 86
-228 111 -3 13 3 48 16 80 18 50 20 69 14 153 -4 53 -13 114 -21 135 -13 38
-12 41 12 66 14 14 25 32 25 38 0 7 -21 33 -47 58 -51 48 -86 55 -107 22 -8
-13 -4 -30 17 -73 35 -73 34 -111 -7 -198 -28 -58 -47 -82 -100 -126 -67 -55
-212 -131 -250 -131 -11 0 -39 10 -61 23 -32 18 -41 30 -46 59 -7 47 -75 135
-129 168 -35 21 -40 29 -38 55 3 29 5 30 49 30 79 0 98 38 58 118 -12 23 -39
63 -60 89 -22 26 -46 67 -55 90 -30 87 -65 113 -84 63z m90 -205 c20 -11 35
-44 26 -58 -3 -5 -30 -17 -60 -27 l-55 -19 -40 27 c-46 31 -50 48 -20 78 19
19 29 21 76 15 30 -4 63 -11 73 -16z m-23 -287 c39 -21 59 -39 75 -71 29 -55
19 -63 -77 -61 -38 0 -88 -2 -110 -6 -33 -6 -45 -3 -67 15 -46 36 -34 69 44
120 55 36 71 36 135 3z m-772 -43 c59 -85 152 -153 260 -190 32 -11 75 -30 94
-42 20 -12 55 -31 78 -43 113 -56 213 -266 213 -448 0 -92 -43 -222 -108 -325
-41 -65 -53 -76 -116 -108 -143 -73 -278 -47 -336 65 -13 26 -7 110 11 143 16
29 106 68 160 68 37 0 55 -6 78 -26 40 -33 52 -56 41 -74 -7 -12 -13 -11 -32
7 -22 20 -68 43 -88 43 -5 0 -25 -14 -45 -31 -31 -27 -35 -37 -35 -79 0 -33 6
-55 22 -75 33 -42 82 -32 199 43 95 61 111 80 124 136 3 16 15 41 26 54 10 14
19 35 19 48 0 13 5 54 12 92 10 61 9 75 -10 138 -47 154 -146 223 -301 209
-53 -5 -89 -14 -118 -31 -68 -40 -74 -35 -71 48 l3 73 -46 5 c-88 10 -102 49
-39 111 22 22 40 42 40 44 0 2 -13 19 -29 37 -60 69 -85 148 -46 148 7 0 25
-18 40 -40z m1493 -8 c3 -25 -6 -41 -47 -86 -68 -75 -69 -105 -7 -134 24 -12
46 -28 49 -36 3 -8 -4 -34 -16 -58 -29 -56 -61 -68 -124 -45 -42 16 -48 16
-70 2 -30 -20 -29 -38 4 -81 30 -40 34 -87 11 -111 -22 -21 -33 -11 -48 42
-29 105 -154 144 -284 90 -83 -35 -121 -89 -155 -224 -24 -97 -27 -185 -6
-221 8 -14 14 -34 15 -45 0 -27 82 -140 112 -156 13 -6 33 -21 45 -32 19 -17
31 -19 85 -14 57 5 66 9 100 46 35 37 38 45 38 100 0 53 -3 62 -25 77 -44 28
-100 30 -140 3 -19 -13 -35 -26 -35 -29 0 -3 -10 -18 -23 -33 -26 -34 -57 -28
-57 10 0 26 54 83 104 110 56 29 203 -3 249 -55 49 -54 24 -185 -48 -251 -54
-50 -108 -66 -210 -63 -67 2 -86 7 -117 29 -75 52 -139 149 -157 238 -14 65
-10 267 6 345 11 52 59 150 73 150 6 0 31 21 57 46 29 30 68 55 105 70 32 12
80 38 106 57 26 19 83 52 127 72 67 32 94 53 170 131 50 52 95 92 100 91 6 -2
11 -17 13 -35z m-991 -133 c27 -7 58 -25 77 -44 45 -45 57 -46 112 -14 44 25
56 28 109 23 76 -7 157 -32 152 -47 -2 -7 -30 -28 -62 -47 -32 -19 -87 -61
-122 -92 -35 -32 -67 -58 -72 -58 -5 0 -33 30 -63 68 -84 102 -133 147 -183
166 -42 16 -55 33 -38 49 9 10 38 9 90 -4z m-1192 -421 c14 -6 25 -15 25 -19
0 -5 9 -13 20 -19 15 -8 27 -7 49 5 44 22 116 20 141 -5 42 -42 17 -108 -54
-141 -22 -11 -53 -26 -67 -34 -15 -9 -54 -18 -86 -21 -59 -6 -60 -6 -86 28
-15 19 -36 55 -47 81 -18 41 -20 53 -10 82 17 53 59 69 115 43z m2953 -113
c44 -37 59 -79 38 -109 -31 -48 -95 -46 -120 3 -19 35 -40 45 -57 24 -11 -12
-9 -22 9 -54 50 -86 11 -207 -50 -152 -17 15 -19 27 -15 68 5 49 4 51 -40 91
-47 43 -49 63 -10 81 12 6 36 8 52 6 24 -4 37 2 64 31 43 44 85 48 129 11z
m-1163 -304 c3 -5 -2 -17 -11 -26 -22 -21 -44 -4 -24 20 14 17 26 19 35 6z
m354 -17 c75 -15 111 -87 76 -153 -15 -31 -33 -41 -70 -41 -30 0 -58 -27 -47
-46 4 -7 29 -27 55 -44 52 -33 71 -68 62 -112 -8 -35 -49 -68 -86 -68 -23 0
-32 7 -48 38 -10 20 -30 46 -43 58 -36 32 -120 81 -150 88 -41 10 -34 31 20
57 42 21 54 35 106 127 61 106 64 108 125 96z m-1452 -32 c7 -4 22 -38 33 -74
17 -55 29 -74 70 -111 28 -25 50 -50 50 -56 0 -6 -12 -13 -27 -17 -44 -10
-111 -52 -147 -92 -38 -41 -53 -37 -76 19 -18 42 -1 72 49 95 50 22 53 45 11
84 -25 23 -30 36 -30 72 0 31 6 51 20 66 23 24 29 26 47 14z m288 -23 c-10
-15 -55 -11 -55 5 0 8 6 16 13 19 17 6 49 -12 42 -24z m419 -31 c25 -56 95
-130 178 -186 54 -37 54 -55 2 -72 -37 -13 -90 -63 -100 -95 -4 -11 -17 -31
-29 -45 -13 -14 -31 -43 -42 -65 -22 -49 -41 -50 -69 -5 -98 154 -139 199
-214 239 -33 18 -60 36 -60 40 0 13 20 26 77 48 66 27 154 104 185 161 25 46
45 40 72 -20z m-876 -79 c17 -6 33 -17 36 -26 24 -61 -88 -110 -145 -64 -20
16 -22 23 -14 47 7 20 21 33 45 41 44 15 41 15 78 2z m1918 -73 c19 -19 34
-39 34 -45 0 -18 -145 -84 -168 -77 -20 7 -52 76 -52 113 0 31 26 42 94 43 53
0 61 -3 92 -34z m-1374 -147 c71 -21 143 -71 167 -118 7 -14 19 -33 26 -41 33
-38 72 -188 94 -365 10 -75 9 -81 -10 -97 -44 -38 -74 -13 -84 69 -13 104 -70
259 -141 378 -44 75 -69 102 -116 126 -68 35 -134 22 -192 -39 -26 -28 -27
-33 -17 -65 20 -60 53 -82 129 -83 94 -3 92 -2 92 -24 0 -31 -35 -42 -121 -38
-92 4 -122 21 -157 89 -30 56 -26 128 8 164 22 23 101 60 150 69 37 6 96 -2
172 -25z m864 -5 c133 -89 152 -153 77 -266 -48 -71 -139 -88 -230 -43 -60 30
-88 58 -79 81 5 12 14 15 39 10 81 -17 105 -17 135 -2 37 19 52 44 52 85 0 61
-82 88 -182 61 -38 -11 -107 -69 -126 -106 -18 -34 -52 -212 -58 -304 -7 -93
-21 -126 -61 -141 -50 -19 -83 12 -65 62 6 14 5 38 0 58 -10 35 -1 106 28 230
30 127 83 193 199 250 121 60 207 68 271 25z m-960 -127 c33 -29 25 -47 -21
-47 -48 0 -65 9 -65 35 0 40 46 46 86 12z m-326 -568 c63 -1 406 -2 763 -2
356 0 666 0 690 -1 23 0 89 1 147 2 58 2 319 0 580 -3 522 -6 1472 -13 1840
-12 129 0 244 0 255 -1 98 -4 638 -10 740 -9 72 1 218 2 325 1 1397 -8 2342
-15 2640 -19 379 -6 1628 -16 2925 -22 789 -4 782 -4 995 -2 445 4 857 -2 880
-14 25 -13 25 -13 32 -202 14 -365 20 -1702 8 -1724 -10 -20 -18 -21 -338 -21
-180 -1 -601 -3 -937 -5 -335 -3 -1163 -7 -1840 -9 -676 -2 -1988 -6 -2915
-10 -927 -4 -1730 -6 -1785 -5 -55 1 -120 1 -145 1 -25 -1 -124 -1 -220 -2
-96 0 -187 0 -202 0 -16 0 -1668 -1 -3673 -1 -2005 0 -3657 1 -3672 1 -16 0
-107 0 -203 0 -96 1 -195 1 -220 2 -25 0 -90 0 -145 -1 -55 -1 -858 1 -1785 5
-927 4 -2238 8 -2915 10 -676 2 -1504 6 -1840 9 -335 2 -757 4 -937 5 -320 0
-328 1 -338 21 -12 22 -6 1359 8 1724 7 189 7 189 32 202 23 12 435 18 880 14
213 -2 206 -2 995 2 1297 6 2546 16 2925 22 298 4 1243 11 2640 19 107 1 254
0 325 -1 102 -1 642 5 740 9 11 1 126 1 255 1 277 -1 1170 5 1838 10 260 3
476 8 479 11 4 4 19 4 33 2 14 -3 77 -6 140 -7z"/>
<path d="M12748 3559 c-13 -17 -42 -42 -65 -56 -24 -14 -43 -32 -43 -42 0 -9
20 -31 45 -49 25 -18 58 -52 73 -77 15 -25 32 -45 38 -45 7 0 25 16 41 35 15
19 40 50 56 69 15 18 27 39 27 45 0 6 -17 22 -39 35 -41 27 -81 71 -81 91 0
28 -30 24 -52 -6z"/>
<path d="M11457 2603 c-7 -6 -1075 -17 -2852 -28 -390 -3 -863 -7 -1050 -10
-424 -6 -1634 -16 -3755 -32 -344 -2 -899 -6 -1235 -9 -715 -7 -1204 -9 -1260
-5 -92 5 -418 -8 -428 -18 -7 -7 -12 -114 -13 -303 -3 -538 -14 -1252 -20
-1348 -5 -89 -4 -97 16 -115 27 -24 17 -24 705 -24 281 0 553 0 605 -1 52 0
687 -3 1410 -5 723 -3 1659 -7 2080 -10 421 -3 779 -5 795 -5 38 1 -43 1 805
3 1138 3 1379 1 1431 -13 24 -7 52 -6 85 1 27 6 99 11 159 10 154 -2 3344 -11
3890 -11 546 0 3736 9 3890 11 61 1 132 -4 159 -10 33 -7 61 -8 85 -1 52 14
287 16 1436 13 402 -1 744 -2 760 -3 17 -1 39 -1 50 -1 87 3 1794 12 2865 16
723 2 1358 5 1410 5 52 1 325 1 605 1 688 0 678 0 705 24 20 18 21 26 16 115
-6 96 -17 810 -20 1348 -1 189 -6 296 -13 303 -10 10 -336 23 -428 18 -56 -4
-545 -2 -1260 5 -335 3 -891 7 -1235 9 -2121 16 -3331 26 -3755 32 -187 3
-659 7 -1050 10 -1384 9 -2164 15 -2500 21 -295 5 -3084 12 -3088 7z m1038
-103 c134 -54 183 -82 253 -147 37 -34 72 -63 77 -63 6 0 40 29 77 63 69 64
118 93 253 147 79 32 81 33 235 30 85 -1 161 -5 169 -10 24 -13 -17 -28 -114
-39 -134 -15 -273 -75 -364 -157 -47 -42 -112 -141 -142 -214 -18 -44 -17
-171 1 -225 18 -57 65 -121 108 -150 32 -22 48 -25 116 -25 72 0 85 3 133 32
62 38 99 100 84 141 -11 28 -82 87 -105 87 -8 0 -31 -8 -50 -17 -28 -13 -40
-14 -60 -5 -49 22 -46 101 4 127 33 17 42 61 15 71 -33 13 -36 40 -11 96 29
65 51 85 144 132 98 49 242 70 427 61 126 -6 155 -12 280 -55 33 -12 87 -30
120 -42 65 -22 125 -54 125 -68 0 -13 -19 -23 -64 -31 -32 -6 -54 -3 -101 16
-33 13 -88 25 -124 27 l-63 3 -12 -35 c-15 -48 -68 -67 -145 -51 -29 6 -58 8
-62 5 -5 -3 -9 -20 -9 -37 0 -18 -7 -42 -15 -54 -17 -24 -77 -48 -114 -45 -56
4 -85 66 -51 109 28 36 25 60 -14 99 -40 40 -69 43 -126 14 -46 -23 -65 -69
-55 -131 9 -52 47 -97 104 -121 25 -10 60 -35 78 -53 18 -19 38 -35 46 -35 8
0 50 23 92 51 43 28 88 55 99 59 12 5 45 24 73 43 54 35 151 64 291 88 56 10
87 10 136 1 35 -7 76 -12 92 -12 38 0 142 -61 211 -124 52 -47 102 -128 117
-188 7 -32 33 -42 70 -28 50 19 93 12 116 -17 11 -15 19 -31 17 -37 -19 -49
-18 -56 5 -65 13 -5 46 -13 73 -19 28 -6 78 -20 113 -32 80 -28 81 -46 4 -81
-113 -51 -133 -59 -153 -59 -14 0 -25 -11 -35 -36 -10 -24 -26 -40 -49 -50
-45 -19 -63 -18 -109 6 -22 10 -42 17 -46 15 -4 -3 -11 -33 -14 -67 -7 -60
-10 -66 -64 -118 -32 -31 -95 -77 -144 -103 -84 -46 -94 -49 -220 -64 -121
-14 -138 -14 -183 1 -27 8 -77 20 -110 26 -72 13 -102 23 -180 61 -133 64
-238 74 -325 31 -74 -36 -108 -87 -115 -168 -5 -56 -3 -64 20 -93 22 -26 34
-31 69 -31 27 0 49 7 62 19 11 10 30 24 42 30 37 20 38 55 3 108 -46 69 -41
86 29 85 24 -1 52 -10 72 -24 18 -13 35 -24 38 -26 2 -2 4 -22 5 -45 0 -36 3
-42 20 -38 39 7 167 1 186 -9 10 -6 26 -24 35 -41 18 -35 23 -35 149 0 88 25
137 27 128 6 -8 -23 -51 -42 -111 -50 -29 -4 -83 -18 -120 -32 -85 -32 -177
-52 -244 -54 -29 -1 -62 -5 -73 -9 -11 -4 -60 -3 -110 0 -75 6 -104 14 -175
47 -107 50 -142 87 -160 172 l-13 62 32 32 c35 37 39 66 12 91 -10 9 -26 34
-36 56 -17 37 -17 41 -1 65 22 33 39 32 69 -6 22 -28 28 -31 60 -25 21 4 45
18 57 33 47 59 8 137 -85 172 -80 30 -134 27 -199 -9 -67 -38 -69 -40 -100
-124 -39 -104 -37 -188 9 -281 67 -135 194 -249 335 -300 128 -46 436 -55 545
-15 28 10 113 39 190 63 122 39 228 84 415 176 60 29 191 110 265 163 33 24
80 54 105 68 25 14 59 36 75 48 17 12 91 49 165 83 74 34 144 69 155 79 23 20
59 33 160 55 39 9 93 25 120 35 28 10 58 21 69 24 34 11 -1 36 -50 36 -44 0
-158 39 -204 70 -14 9 -79 43 -145 75 -66 32 -130 67 -142 77 -12 11 -49 34
-82 52 -96 50 -282 167 -331 207 -25 20 -72 51 -105 68 -33 18 -85 47 -115 66
-87 53 -229 121 -295 140 -33 9 -85 26 -115 37 -30 11 -84 24 -119 29 -77 10
-131 27 -131 40 0 5 61 9 140 9 146 0 188 -7 320 -55 41 -14 89 -30 105 -35
34 -9 122 -55 146 -76 8 -8 23 -14 31 -14 41 0 195 -85 293 -161 33 -25 78
-56 101 -67 22 -11 46 -28 54 -37 7 -8 58 -41 114 -72 56 -31 113 -64 128 -75
14 -10 32 -18 40 -18 7 0 33 -14 58 -30 51 -34 136 -69 195 -81 22 -4 60 -14
85 -23 25 -9 87 -25 138 -36 108 -24 225 -19 305 11 26 11 63 19 82 19 34 0
68 12 154 53 62 30 131 102 170 178 l34 66 -13 62 c-14 66 -61 135 -117 172
-40 27 -131 26 -166 -1 -30 -23 -51 -80 -42 -110 11 -36 95 -63 95 -30 0 16
32 19 59 5 26 -13 41 -33 41 -55 0 -20 -57 -60 -95 -68 l-40 -8 3 -49 c4 -67
-22 -106 -89 -141 -50 -25 -57 -26 -148 -19 -52 4 -110 14 -128 23 -30 14 -37
14 -93 -3 -54 -16 -65 -17 -102 -4 -24 7 -61 28 -83 45 -23 17 -53 34 -68 38
-15 3 -34 18 -44 32 -16 26 -16 27 6 45 12 10 47 26 76 35 44 14 59 15 80 6
39 -18 56 -14 99 18 38 29 88 39 111 22 6 -4 16 -34 23 -67 15 -75 30 -90 91
-90 88 0 121 37 121 135 0 38 -7 58 -35 99 -20 28 -40 63 -45 76 -5 14 -17 25
-25 25 -20 0 -137 -39 -150 -50 -6 -5 -54 -25 -105 -45 -52 -20 -114 -45 -136
-56 -50 -24 -205 -43 -284 -35 -171 17 -217 23 -240 33 -38 17 -158 111 -225
178 -65 65 -188 132 -280 154 -60 15 -95 36 -95 57 0 13 6 15 28 10 15 -4 88
-11 162 -17 127 -9 139 -11 210 -47 61 -31 79 -46 98 -80 24 -44 62 -58 62
-24 1 55 87 128 178 153 54 15 102 18 247 18 252 -2 380 -11 380 -27 0 -7 -33
-26 -73 -43 -57 -22 -89 -29 -143 -29 -73 0 -73 0 -69 -52 2 -35 -39 -74 -92
-88 -55 -15 -72 -3 -73 53 -1 63 -24 87 -85 87 -48 0 -73 -17 -99 -67 -45 -87
49 -192 171 -193 79 0 120 16 383 147 169 85 246 118 290 125 33 5 85 14 115
20 73 13 137 13 183 0 68 -19 196 -103 234 -155 19 -26 40 -46 46 -44 6 2 15
18 19 35 5 17 31 54 58 81 42 42 63 54 131 76 44 14 90 25 103 25 13 0 36 5
53 10 28 10 71 7 203 -15 67 -11 141 -39 162 -62 12 -13 19 -25 17 -28 -3 -3
-31 1 -62 7 -43 9 -60 9 -68 1 -20 -20 -2 -41 43 -53 24 -7 88 -34 143 -62
161 -80 174 -85 305 -115 110 -25 144 -28 285 -27 219 0 236 4 307 74 52 50
58 60 58 97 0 75 -77 120 -137 78 -34 -24 -35 -52 -2 -89 32 -38 35 -48 15
-65 -15 -12 -111 -17 -142 -7 -11 3 -28 22 -37 41 -9 19 -23 35 -32 35 -8 0
-52 -18 -97 -40 -62 -30 -95 -40 -132 -40 -47 0 -170 31 -283 71 -58 21 -133
64 -133 78 0 5 17 11 38 15 79 13 109 7 202 -41 l92 -46 71 18 c74 18 142 52
187 90 40 34 102 73 145 91 33 14 61 16 162 11 134 -6 158 -14 212 -71 19 -20
40 -36 47 -36 6 0 40 13 75 29 90 40 184 64 254 65 86 1 80 -19 -21 -69 -72
-35 -119 -70 -269 -198 -73 -63 -223 -140 -300 -154 -117 -22 -345 -42 -374
-33 -14 4 -80 18 -146 30 -77 14 -140 32 -177 51 -32 16 -83 36 -114 44 -31 8
-85 31 -121 52 -96 56 -156 91 -172 99 -25 13 -46 -11 -47 -52 0 -52 -16 -78
-81 -138 -88 -80 -99 -115 -59 -194 34 -68 55 -83 123 -89 53 -5 62 -3 91 22
42 35 55 59 62 115 4 38 9 46 28 48 33 5 74 -14 108 -49 35 -37 53 -37 89 1
21 22 37 30 55 28 29 -4 38 -31 15 -50 -39 -32 -44 -39 -39 -53 5 -11 23 -15
69 -15 64 0 115 -12 115 -28 0 -10 -64 -38 -105 -46 -16 -3 -61 -13 -100 -22
-169 -39 -227 -43 -355 -27 -96 13 -165 48 -216 109 -104 128 -99 225 16 288
71 38 127 117 116 161 -8 31 -61 48 -121 39 -63 -9 -89 -32 -89 -80 -1 -57 -8
-63 -55 -51 -53 14 -84 -1 -112 -54 -36 -71 -12 -179 67 -297 50 -75 98 -118
195 -173 71 -40 74 -41 188 -46 120 -5 272 7 351 27 25 6 68 15 95 20 66 11
153 38 160 49 3 5 29 17 58 26 28 10 81 31 117 47 36 17 83 37 104 44 22 8 44
18 50 23 6 5 39 19 74 31 47 16 75 20 107 15 41 -6 45 -4 59 24 9 17 38 42 68
59 74 41 168 99 187 115 9 8 34 20 56 27 22 7 92 39 155 71 63 31 158 71 210
88 52 17 135 44 183 61 48 16 120 33 160 36 40 4 81 11 92 17 45 24 337 61
417 53 62 -6 189 -38 246 -62 82 -34 242 -152 242 -178 0 -16 52 -66 69 -66 8
0 29 13 46 29 16 16 74 59 129 95 100 66 206 110 311 127 28 4 93 15 145 24
159 28 634 9 875 -34 154 -27 425 -138 515 -210 19 -15 55 -40 80 -56 24 -15
76 -55 116 -89 114 -98 193 -160 222 -175 15 -8 52 -33 82 -56 98 -74 312
-173 403 -186 110 -16 311 -30 342 -24 137 26 291 73 358 110 63 33 117 74
117 89 0 6 15 32 34 58 18 26 41 75 50 108 16 58 16 63 -3 130 -20 72 -85 164
-126 180 -32 12 -183 12 -206 0 -29 -16 -52 -76 -44 -116 7 -40 56 -84 94 -84
15 0 46 14 69 31 49 36 72 33 72 -11 0 -47 -55 -102 -111 -109 -39 -6 -44 -9
-43 -31 1 -14 7 -39 14 -56 8 -17 10 -42 6 -57 -10 -42 -71 -102 -129 -128
-46 -21 -70 -24 -223 -27 -154 -4 -181 -1 -282 21 -117 26 -223 77 -301 143
-34 29 -206 152 -296 211 -22 14 -59 43 -82 64 -22 21 -58 47 -80 58 -21 10
-68 46 -105 78 -37 32 -98 78 -137 103 -111 71 -99 84 66 74 l118 -7 35 -36
c19 -20 56 -60 81 -89 26 -28 49 -52 51 -52 3 0 8 21 11 46 5 49 27 85 70 117
24 19 42 20 252 20 180 -1 241 -4 301 -19 72 -16 78 -16 123 0 63 22 226 20
226 -4 0 -21 -61 -48 -134 -61 -56 -10 -63 -14 -76 -45 -24 -58 -110 -80 -181
-47 -35 17 -36 17 -50 -2 -8 -10 -14 -31 -14 -46 0 -39 -42 -76 -96 -84 -82
-12 -138 33 -80 64 38 21 51 54 36 91 -19 47 -55 70 -109 70 -55 0 -82 -17
-106 -65 -47 -101 66 -248 221 -285 17 -4 71 -4 120 0 76 7 101 13 165 46 40
21 102 64 137 96 34 32 79 66 100 77 20 10 72 46 114 79 42 32 90 64 105 69
56 20 130 34 210 40 67 5 94 2 155 -17 108 -33 137 -50 181 -105 66 -82 86
-138 82 -220 -5 -96 -27 -166 -65 -213 -50 -63 -31 -73 76 -41 39 12 45 10
115 -24 72 -35 75 -38 107 -106 19 -40 33 -85 34 -108 1 -66 -55 -158 -114
-189 -33 -17 -108 -18 -143 -2 -41 19 -53 -3 -23 -44 26 -34 45 -95 57 -187 6
-42 3 -70 -14 -131 -33 -111 -64 -151 -159 -201 -90 -47 -177 -63 -260 -48
-28 6 -82 14 -121 19 -46 5 -95 20 -145 44 -41 20 -79 36 -85 36 -6 0 -38 20
-71 45 -155 118 -240 155 -354 155 -123 0 -228 -61 -244 -142 -11 -54 -7 -109
10 -138 10 -16 14 -35 10 -45 -6 -16 -16 -17 -89 -12 -115 8 -154 23 -183 69
-31 49 -54 48 -95 -3 -18 -23 -47 -48 -66 -55 -33 -14 -177 -19 -207 -8 -23 9
-20 29 8 47 13 9 49 38 79 65 52 45 99 71 231 131 27 12 78 25 113 28 62 6 66
8 106 55 73 86 144 116 307 127 82 6 85 7 98 36 32 69 63 105 112 130 l51 26
152 -11 c266 -18 286 -22 380 -73 67 -35 159 -138 155 -172 -4 -26 -59 -33
-78 -11 -19 23 -70 19 -111 -8 -46 -32 -66 -94 -43 -137 19 -39 82 -79 120
-79 42 0 114 31 140 61 34 40 57 114 52 172 -11 115 -150 246 -320 301 -125
40 -313 64 -390 49 -29 -6 -66 -9 -83 -6 -16 2 -57 -6 -90 -17 -33 -12 -90
-32 -127 -45 -37 -13 -77 -30 -90 -39 -12 -9 -30 -16 -38 -16 -9 0 -59 -27
-111 -61 -52 -33 -121 -74 -153 -92 -33 -17 -83 -53 -112 -79 -28 -27 -56 -48
-62 -48 -5 0 -36 -19 -68 -43 -33 -24 -90 -60 -129 -81 -38 -22 -107 -63 -153
-93 -157 -101 -195 -116 -302 -121 -73 -3 -100 0 -115 11 -16 12 -17 17 -6 30
7 9 29 21 49 28 96 32 335 179 497 306 33 26 83 61 111 77 28 17 69 43 90 57
69 46 158 96 184 104 14 4 43 25 66 45 27 25 61 43 100 54 88 25 104 33 104
56 0 11 -6 22 -12 24 -99 28 -245 118 -346 211 -31 28 -68 58 -81 64 -25 14
-98 70 -195 151 -57 48 -115 90 -236 171 -67 44 -248 120 -310 130 -25 4 -72
15 -105 24 -33 9 -89 21 -125 25 -36 4 -103 16 -150 25 -88 18 -116 18 -380
-5 -113 -9 -159 -18 -230 -44 -25 -8 -57 -16 -71 -16 -71 0 -259 -121 -280
-179 -5 -14 -14 -35 -19 -46 -5 -11 -16 -50 -24 -86 -14 -62 -14 -70 4 -118
22 -61 71 -126 111 -146 66 -35 218 -4 272 55 37 41 38 110 2 145 -38 39 -66
30 -80 -27 -10 -40 -29 -51 -71 -43 -86 16 -108 98 -54 205 34 68 55 85 131
105 42 11 63 11 91 3 36 -11 39 -10 78 30 66 65 151 77 241 32 54 -28 64 -44
49 -80 -7 -17 -10 -33 -7 -37 4 -3 75 1 159 10 293 29 465 -3 641 -120 75 -50
117 -113 117 -177 0 -46 13 -52 56 -25 53 32 110 31 163 -4 56 -37 70 -67 46
-103 -21 -33 -6 -47 37 -32 86 30 315 -70 282 -123 -10 -18 -115 -90 -151
-105 -22 -10 -59 -14 -101 -12 l-67 3 -1 -48 c-2 -70 -13 -77 -129 -80 l-99
-3 -2 -32 c-4 -73 -116 -174 -229 -207 -27 -7 -108 -19 -179 -25 -72 -6 -133
-13 -137 -16 -16 -10 -218 15 -248 30 -22 12 -61 17 -127 18 -112 2 -126 -6
-117 -72 5 -34 1 -43 -25 -70 -17 -16 -40 -30 -51 -30 -11 0 -32 -5 -46 -12
-19 -8 -38 -8 -80 1 -68 15 -110 49 -122 99 -8 36 -10 37 -63 42 -70 7 -107
31 -120 80 -20 73 20 183 75 205 43 19 76 19 99 2 18 -13 18 -16 -2 -68 -18
-48 -18 -58 -7 -86 25 -60 86 -70 137 -24 30 27 33 34 32 88 0 68 -27 128 -83
186 -74 78 -151 95 -256 56 -67 -25 -99 -57 -124 -124 -11 -27 -27 -65 -36
-83 -27 -53 -8 -183 40 -277 41 -82 58 -100 130 -142 77 -45 72 -59 -23 -68
-67 -6 -87 -4 -123 12 -92 41 -114 73 -143 206 -10 45 -44 35 -112 -31 -61
-59 -226 -152 -270 -152 -11 0 -24 -4 -30 -10 -29 -29 -346 -57 -411 -36 -50
16 -8 38 97 51 30 4 78 16 105 26 28 11 56 19 63 19 7 0 53 14 101 31 83 29
94 36 172 114 171 171 182 193 149 311 -11 41 -28 86 -37 100 -47 72 -195 104
-248 54 -14 -13 -29 -38 -33 -54 -8 -31 6 -115 26 -152 15 -27 53 -61 80 -69
34 -10 27 -41 -15 -64 -52 -27 -135 -6 -167 43 -19 31 -45 33 -76 8 -18 -14
-24 -33 -29 -82 -7 -75 -27 -95 -116 -115 -86 -20 -132 11 -145 99 -8 60 -28
66 -102 29 -114 -58 -199 -79 -364 -89 -79 -5 -101 -3 -155 16 -35 12 -86 38
-112 58 -48 37 -117 132 -117 162 0 9 -6 25 -14 36 -8 11 -18 38 -21 60 -7 39
-30 74 -47 74 -5 0 -26 -11 -46 -25 -73 -50 -148 -24 -174 60 -13 39 -15 40
-68 47 -96 12 -227 87 -214 122 6 17 77 76 111 94 12 7 52 15 89 19 l68 8 12
40 c21 77 113 117 185 79 36 -18 59 -12 59 14 0 11 27 46 60 79 50 50 81 69
186 117 119 54 185 76 284 96 73 14 218 -19 286 -65 74 -51 89 -36 53 51 -11
28 -10 36 5 59 10 15 38 36 62 46 50 22 47 23 146 -43 67 -45 90 -78 87 -126
-1 -21 -1 -43 0 -49 2 -19 46 -16 62 4 20 23 109 63 143 63 45 0 103 -39 140
-94 41 -62 50 -96 32 -122 -14 -19 -15 -18 -45 4 -23 17 -44 22 -90 22 -57 0
-61 -2 -88 -37 -23 -30 -28 -48 -32 -110 -3 -70 -2 -76 25 -104 36 -38 82 -50
149 -39 145 24 218 112 217 266 -1 123 -34 194 -140 302 -90 93 -195 152 -268
152 -23 0 -55 5 -69 10 -15 6 -78 13 -140 16 -95 4 -127 1 -197 -16 -46 -12
-110 -27 -144 -35 -33 -7 -78 -21 -99 -30 -22 -8 -99 -36 -171 -60 -117 -39
-320 -127 -429 -187 -22 -12 -64 -33 -93 -48 -28 -15 -62 -36 -75 -47 -12 -11
-51 -30 -87 -42 -36 -12 -81 -32 -100 -44 -45 -30 -137 -77 -150 -77 -5 0 -43
-15 -82 -34 -40 -19 -107 -48 -148 -64 -44 -17 -75 -35 -75 -43 0 -8 33 -31
73 -51 41 -20 97 -59 125 -86 29 -26 72 -61 97 -77 25 -16 66 -48 92 -71 26
-23 64 -49 85 -59 21 -10 65 -44 98 -76 226 -220 259 -246 366 -297 187 -89
203 -94 419 -121 71 -10 101 -15 160 -28 23 -5 21 -6 -18 -18 -53 -16 -330 -3
-407 20 -27 8 -63 17 -80 21 -32 8 -193 94 -237 128 -15 12 -51 37 -79 56 -29
19 -91 73 -139 120 -114 113 -235 214 -329 275 -43 28 -99 64 -126 82 -52 35
-146 73 -240 98 -76 20 -291 34 -370 24 -33 -4 -86 -8 -117 -8 -32 -1 -72 -7
-90 -15 -53 -22 -100 -37 -138 -45 -48 -11 -166 -66 -207 -97 -19 -14 -52 -48
-73 -76 -38 -47 -40 -54 -40 -117 0 -130 57 -221 158 -254 66 -22 104 -21 151
3 93 47 109 135 31 175 -37 19 -68 19 -115 0 -50 -22 -67 -7 -63 54 3 41 7 48
44 73 36 24 43 34 48 73 11 73 60 105 206 138 69 16 270 39 330 38 111 -1 212
-21 226 -43 14 -22 -35 -45 -125 -58 -49 -7 -111 -10 -138 -7 -26 3 -56 1 -65
-4 -19 -10 -24 -54 -8 -64 32 -20 -18 -85 -66 -85 -13 0 -38 13 -56 29 -39 34
-100 61 -137 61 -14 0 -41 -9 -59 -20 -46 -28 -41 -58 12 -77 66 -22 106 -61
138 -132 17 -36 32 -68 34 -70 6 -6 95 50 133 84 20 17 50 39 66 48 49 26 192
87 204 87 6 0 24 8 38 17 15 10 56 21 92 25 192 21 195 21 246 -1 26 -11 54
-21 62 -21 26 0 103 -60 130 -101 15 -22 44 -49 65 -60 49 -25 115 -84 132
-118 20 -40 28 -96 17 -124 -13 -34 -78 -105 -112 -123 -35 -17 -381 -20 -426
-3 -66 25 -128 29 -223 15 -52 -8 -102 -17 -110 -20 -19 -7 -261 -15 -277 -8
-26 9 -11 33 48 77 69 51 138 75 215 75 56 0 80 16 70 48 -11 33 11 72 49 87
57 24 100 19 140 -17 l36 -31 42 40 c65 63 111 79 136 49 9 -11 9 -23 -3 -51
-22 -52 -8 -107 40 -156 33 -34 44 -39 84 -39 122 0 182 129 111 243 -25 40
-80 92 -108 101 -37 12 -150 28 -223 33 -109 6 -194 -24 -420 -149 -36 -21
-200 -130 -258 -172 -81 -60 -254 -101 -330 -78 -20 7 -56 17 -80 22 -30 8
-62 28 -103 66 -32 30 -66 54 -74 54 -9 0 -60 -26 -115 -58 -154 -92 -258
-108 -430 -70 -79 18 -176 61 -210 93 -14 13 -65 45 -115 70 -49 26 -108 60
-130 76 -22 16 -56 36 -75 45 -111 52 -120 54 -217 54 -188 0 -331 -69 -402
-195 -33 -59 -37 -84 -20 -118 25 -49 51 -67 95 -67 37 0 45 4 63 34 30 49 27
90 -9 123 -49 43 -39 69 33 93 30 9 48 10 81 0 37 -10 53 -9 117 10 62 19 81
21 119 12 25 -6 57 -13 72 -16 15 -4 42 -19 60 -34 18 -16 56 -44 83 -62 28
-18 74 -54 104 -79 30 -25 73 -55 95 -66 23 -11 41 -27 41 -35 0 -12 -20 -16
-113 -18 -126 -3 -152 5 -152 46 -1 35 -25 64 -78 93 -24 13 -58 32 -75 41
-18 10 -51 18 -74 18 -38 0 -47 -6 -127 -85 -47 -46 -98 -91 -114 -99 -34 -18
-201 -29 -255 -16 -20 4 -53 22 -73 39 l-36 32 -54 -31 c-31 -17 -68 -30 -88
-30 -19 0 -47 -5 -62 -10 -33 -13 -66 -4 -62 18 2 9 32 32 67 52 35 20 72 48
83 62 23 33 165 152 230 193 26 17 72 49 103 73 82 63 181 96 325 107 95 7
132 1 270 -45 111 -37 176 -69 245 -119 64 -47 160 -101 180 -101 13 0 15 10
9 63 l-6 63 46 47 c39 40 46 53 46 86 0 51 -28 85 -87 105 -63 21 -76 20 -111
-9 -42 -35 -50 -79 -23 -116 36 -49 29 -59 -42 -59 -85 0 -109 17 -105 73 3
41 3 42 -37 50 -35 8 -66 20 -152 60 -82 38 28 97 180 97 61 0 86 5 140 30 80
36 136 38 204 9 46 -20 82 -21 125 -4 29 12 55 -27 63 -95 8 -66 19 -82 73
-112 18 -9 40 -33 49 -53 16 -33 16 -39 2 -63 -19 -34 -52 -39 -85 -13 -35 27
-43 27 -92 -9 -40 -29 -42 -32 -42 -84 0 -72 5 -83 53 -107 31 -16 50 -19 85
-14 39 6 57 17 120 78 85 82 125 155 116 209 -3 18 -19 67 -35 109 -32 81
-107 174 -164 202 -52 26 -167 50 -240 50 -88 1 -258 -30 -307 -55 -21 -10
-59 -21 -85 -25 -27 -3 -76 -17 -111 -30 -34 -12 -74 -23 -87 -23 -61 0 -375
-145 -485 -225 -139 -100 -294 -188 -482 -275 -48 -22 -91 -40 -96 -40 -4 0
-52 -20 -107 -44 -55 -24 -145 -54 -200 -66 -227 -51 -246 -53 -535 -50 l-275
3 -80 38 c-68 32 -95 53 -180 141 -55 57 -115 124 -132 150 -18 27 -40 48 -48
48 -8 0 -30 -21 -48 -47 -17 -27 -77 -94 -132 -151 -85 -88 -112 -109 -180
-141 l-80 -38 -275 -3 c-289 -3 -308 -1 -535 50 -55 12 -145 42 -200 66 -55
24 -103 44 -107 44 -5 0 -48 18 -96 40 -188 87 -343 175 -482 275 -110 80
-424 225 -485 225 -13 0 -53 11 -87 23 -35 13 -84 27 -111 30 -26 4 -64 15
-85 25 -49 25 -219 56 -307 55 -73 0 -188 -24 -240 -50 -57 -28 -132 -121
-164 -202 -16 -42 -32 -91 -35 -109 -9 -54 31 -127 116 -209 63 -61 81 -72
120 -78 35 -5 54 -2 85 14 48 24 53 35 53 107 0 52 -2 55 -42 84 -49 36 -57
36 -92 9 -33 -26 -66 -21 -85 13 -14 24 -14 30 2 63 9 20 31 44 49 53 54 30
65 46 73 112 8 68 34 107 63 95 43 -17 79 -16 125 4 68 29 124 27 204 -9 54
-25 79 -30 140 -30 152 0 262 -59 180 -97 -86 -40 -117 -52 -152 -60 -40 -8
-40 -9 -37 -50 4 -56 -20 -73 -105 -73 -71 0 -78 10 -42 59 27 37 19 81 -23
116 -35 29 -48 30 -111 9 -59 -20 -87 -54 -87 -105 0 -33 7 -46 46 -86 l46
-47 -6 -63 c-6 -53 -4 -63 9 -63 20 0 116 54 180 101 69 50 134 82 245 119
138 46 175 52 270 45 144 -11 243 -44 325 -107 31 -24 77 -56 103 -73 65 -41
207 -160 230 -193 11 -14 48 -42 83 -62 35 -20 65 -43 67 -52 4 -22 -29 -31
-62 -18 -15 5 -43 10 -62 10 -20 0 -57 13 -88 30 l-54 31 -36 -32 c-20 -17
-53 -35 -73 -39 -54 -13 -221 -2 -255 16 -16 8 -67 53 -114 99 -80 79 -89 85
-127 85 -23 0 -56 -8 -74 -18 -17 -9 -51 -28 -75 -41 -53 -29 -77 -58 -78 -93
0 -41 -26 -49 -152 -46 -93 2 -113 6 -113 18 0 8 18 24 41 35 22 11 65 41 95
66 30 25 77 61 104 79 28 18 65 46 83 62 18 15 45 30 60 34 15 3 47 10 72 16
38 9 57 7 119 -12 64 -19 80 -20 117 -10 33 10 51 9 81 0 72 -24 82 -50 33
-93 -36 -33 -39 -74 -9 -123 18 -30 26 -34 63 -34 44 0 70 18 95 67 17 34 13
59 -20 118 -71 126 -214 195 -402 195 -97 0 -106 -2 -217 -54 -19 -9 -53 -29
-75 -45 -22 -16 -80 -50 -130 -76 -49 -25 -101 -57 -115 -70 -34 -32 -131 -75
-210 -93 -172 -38 -276 -22 -430 70 -55 32 -106 58 -115 58 -8 0 -42 -24 -74
-54 -41 -38 -73 -58 -103 -66 -24 -5 -60 -15 -80 -22 -76 -23 -249 18 -330 78
-58 42 -222 151 -258 172 -132 73 -195 103 -265 127 -86 29 -155 30 -295 6
-88 -15 -96 -18 -135 -53 -78 -68 -105 -152 -73 -225 24 -55 67 -83 128 -83
40 0 51 5 84 39 48 49 62 104 40 156 -12 28 -12 40 -3 51 25 30 71 14 136 -49
l42 -40 36 31 c40 36 83 41 140 17 38 -15 60 -54 49 -87 -10 -32 14 -48 70
-48 77 0 146 -24 215 -75 59 -44 74 -68 49 -77 -17 -7 -259 1 -278 8 -8 3 -58
12 -110 20 -95 14 -157 10 -223 -15 -45 -17 -391 -14 -426 3 -34 18 -99 89
-112 123 -11 28 -3 84 17 124 17 34 83 93 132 118 21 11 50 38 65 60 27 41
104 101 130 101 8 0 36 10 62 21 51 22 54 22 246 1 36 -4 77 -15 92 -25 14 -9
32 -17 38 -17 12 0 155 -61 204 -87 17 -9 46 -31 66 -48 38 -34 127 -90 133
-84 2 2 17 34 34 70 32 71 72 110 138 132 53 19 58 49 12 77 -18 11 -45 20
-59 20 -37 0 -98 -27 -137 -61 -18 -16 -43 -29 -56 -29 -48 0 -98 65 -66 85
16 10 11 54 -8 64 -9 5 -39 7 -65 4 -27 -3 -89 0 -138 7 -90 13 -139 36 -125
58 14 22 115 42 226 43 60 1 261 -22 330 -38 146 -33 195 -65 206 -138 5 -39
12 -49 48 -73 37 -25 41 -32 44 -73 4 -61 -13 -76 -63 -54 -47 19 -78 19 -115
0 -78 -40 -62 -128 31 -175 47 -24 85 -25 151 -3 101 33 158 124 158 254 0 63
-2 70 -40 117 -21 28 -54 62 -73 76 -41 31 -159 86 -207 97 -38 8 -85 23 -138
45 -18 8 -58 14 -90 15 -31 0 -84 4 -117 8 -79 10 -294 -4 -370 -24 -94 -25
-188 -63 -240 -98 -27 -18 -83 -54 -126 -82 -94 -61 -215 -162 -329 -275 -48
-47 -110 -101 -139 -120 -28 -19 -64 -44 -79 -56 -44 -34 -205 -120 -237 -128
-16 -4 -52 -13 -80 -21 -77 -23 -354 -36 -407 -20 -39 12 -41 13 -18 18 59 13
89 18 160 28 216 27 232 32 419 121 107 51 140 77 366 297 33 32 77 66 98 76
21 10 59 36 85 59 26 23 67 55 92 71 25 16 68 51 97 77 28 27 84 66 125 86 40
20 73 43 73 51 0 8 -31 26 -75 43 -41 16 -108 45 -148 64 -39 19 -77 34 -82
34 -13 0 -105 47 -150 77 -19 12 -64 32 -100 44 -36 12 -75 31 -87 42 -13 11
-47 32 -75 47 -29 15 -71 36 -93 48 -109 60 -312 148 -429 187 -72 24 -149 52
-171 60 -21 9 -66 23 -99 30 -34 8 -98 23 -144 35 -70 17 -102 20 -197 16 -62
-3 -125 -10 -140 -16 -14 -5 -46 -10 -69 -10 -73 0 -178 -59 -268 -152 -106
-108 -139 -179 -140 -302 -1 -154 72 -242 217 -266 67 -11 113 1 149 39 27 28
28 34 25 104 -4 62 -9 80 -32 110 -27 35 -31 37 -88 37 -46 0 -67 -5 -90 -22
-30 -22 -31 -23 -45 -4 -42 58 84 216 172 216 34 0 123 -40 143 -63 16 -20 60
-23 62 -4 1 6 1 28 0 49 -3 48 20 81 87 126 99 66 96 65 146 43 24 -10 52 -31
62 -46 15 -23 16 -31 5 -59 -36 -87 -21 -102 53 -51 68 46 213 79 286 65 99
-20 165 -42 284 -96 105 -48 136 -67 186 -117 33 -33 60 -68 60 -79 0 -26 23
-32 59 -14 72 38 164 -2 185 -79 l12 -40 68 -8 c37 -4 77 -12 89 -19 34 -18
105 -77 111 -94 13 -35 -118 -110 -214 -122 -53 -7 -55 -8 -68 -47 -26 -84
-101 -110 -174 -60 -20 14 -41 25 -46 25 -17 0 -40 -35 -47 -74 -3 -22 -13
-49 -21 -60 -8 -11 -14 -27 -14 -36 0 -30 -69 -125 -117 -162 -26 -20 -77 -46
-112 -58 -54 -19 -76 -21 -155 -16 -165 10 -250 31 -364 89 -74 37 -94 31
-102 -29 -13 -88 -59 -119 -145 -99 -89 20 -109 40 -116 115 -5 49 -11 68 -29
82 -31 25 -57 23 -76 -8 -32 -49 -115 -70 -167 -43 -42 23 -49 54 -14 64 26 8
64 42 79 69 20 37 34 121 26 152 -4 16 -19 41 -33 54 -53 50 -201 18 -248 -54
-9 -14 -26 -59 -37 -100 -33 -118 -22 -140 149 -311 78 -78 89 -85 172 -114
48 -17 94 -31 101 -31 7 0 36 -8 63 -19 28 -10 75 -22 105 -26 67 -8 120 -24
120 -35 0 -39 -393 -21 -434 20 -6 6 -19 10 -30 10 -44 0 -209 93 -270 152
-68 66 -102 76 -112 31 -29 -133 -51 -165 -143 -206 -36 -16 -56 -18 -123 -12
-95 9 -100 23 -23 68 72 42 89 60 130 142 48 94 67 224 40 277 -9 18 -25 56
-36 83 -25 67 -57 99 -124 124 -105 39 -182 22 -256 -56 -56 -58 -83 -118 -83
-186 -1 -54 2 -61 32 -88 51 -46 112 -36 137 24 11 28 11 38 -7 86 -20 52 -20
55 -2 68 23 17 56 17 99 -2 55 -22 95 -132 75 -205 -13 -49 -50 -73 -120 -80
-53 -5 -55 -6 -63 -42 -12 -50 -54 -84 -122 -99 -42 -9 -61 -9 -80 -1 -14 7
-35 12 -46 12 -11 0 -34 14 -51 30 -26 27 -30 36 -25 70 9 66 -5 74 -117 72
-66 -1 -105 -6 -127 -18 -30 -15 -232 -40 -248 -30 -4 3 -65 10 -137 16 -71 6
-151 18 -179 25 -113 33 -225 134 -229 207 l-2 32 -99 3 c-116 3 -127 10 -129
80 l-1 48 -67 -3 c-42 -2 -79 2 -101 12 -36 15 -141 87 -151 105 -33 53 196
153 282 123 43 -15 58 -1 37 32 -24 36 -10 66 46 103 53 35 110 36 163 4 43
-27 56 -21 56 25 0 64 42 127 117 177 176 117 348 149 641 120 84 -9 155 -13
159 -10 3 4 0 20 -7 37 -15 36 -5 52 49 80 90 45 175 33 241 -32 39 -40 42
-41 78 -30 28 8 49 8 91 -3 76 -20 97 -37 131 -105 54 -107 32 -189 -54 -205
-42 -8 -61 3 -71 43 -14 57 -42 66 -80 27 -36 -35 -35 -104 3 -145 53 -59 205
-90 271 -55 40 20 89 85 111 146 18 48 18 56 4 118 -8 36 -19 75 -24 86 -5 11
-14 32 -19 46 -21 58 -209 179 -280 179 -14 0 -46 8 -71 16 -71 26 -117 35
-230 44 -264 23 -292 23 -380 5 -47 -9 -114 -21 -150 -25 -36 -4 -92 -16 -125
-25 -33 -9 -80 -20 -105 -24 -62 -10 -243 -86 -310 -130 -121 -81 -179 -123
-236 -171 -97 -81 -170 -137 -195 -151 -13 -6 -50 -36 -81 -64 -101 -93 -247
-183 -346 -211 -6 -2 -12 -13 -12 -24 0 -23 16 -31 104 -56 39 -11 73 -29 100
-54 23 -20 52 -41 66 -45 26 -8 115 -58 184 -104 21 -14 62 -40 90 -57 28 -16
78 -51 111 -77 162 -127 401 -274 497 -306 20 -7 42 -19 49 -28 11 -13 10 -18
-6 -30 -15 -11 -42 -14 -115 -11 -107 5 -145 20 -302 121 -46 30 -114 71 -153
93 -38 21 -96 57 -129 81 -32 24 -63 43 -68 43 -6 0 -34 21 -62 48 -29 26 -79
62 -112 79 -32 18 -101 59 -153 92 -52 34 -102 61 -111 61 -8 0 -26 7 -38 16
-13 9 -53 26 -90 39 -37 13 -94 33 -127 45 -33 11 -73 19 -90 17 -16 -3 -54 0
-83 6 -77 15 -265 -9 -390 -49 -170 -55 -309 -186 -320 -301 -5 -58 18 -132
52 -172 26 -30 98 -61 140 -61 38 0 101 40 120 79 23 43 3 105 -43 137 -41 27
-92 31 -111 8 -19 -22 -74 -15 -78 11 -4 34 88 137 155 172 94 51 114 55 380
73 l152 11 51 -26 c49 -25 80 -61 112 -130 13 -29 16 -30 98 -36 163 -11 234
-41 307 -127 40 -47 44 -49 106 -55 35 -3 86 -16 113 -28 132 -60 179 -86 231
-131 30 -27 66 -56 79 -65 28 -18 31 -38 8 -47 -30 -11 -174 -6 -207 8 -19 7
-48 32 -66 55 -41 51 -64 52 -95 3 -29 -46 -68 -61 -183 -69 -73 -5 -83 -4
-89 12 -4 10 0 29 10 45 17 29 21 84 10 138 -16 81 -121 142 -244 142 -114 0
-199 -37 -354 -155 -33 -25 -65 -45 -71 -45 -6 0 -44 -16 -85 -36 -50 -24 -99
-39 -145 -44 -38 -5 -93 -13 -121 -19 -83 -15 -170 1 -260 48 -95 50 -126 90
-159 201 -17 61 -20 89 -14 131 12 92 31 153 57 187 30 41 18 63 -23 44 -35
-16 -110 -15 -143 2 -59 31 -115 123 -114 189 1 23 15 68 34 108 32 68 35 71
107 106 70 34 76 36 115 24 107 -32 126 -22 76 41 -38 47 -60 117 -65 213 -4
82 16 138 82 220 44 55 73 72 181 105 61 19 88 22 155 17 80 -6 154 -20 210
-40 15 -5 63 -37 105 -69 42 -33 94 -69 114 -79 21 -11 66 -45 100 -77 35 -32
97 -75 137 -96 64 -33 89 -39 165 -46 134 -11 211 15 287 97 60 64 80 133 54
188 -24 48 -51 65 -106 65 -54 0 -90 -23 -109 -70 -15 -37 -2 -70 36 -91 58
-31 2 -76 -80 -64 -54 8 -96 45 -96 84 0 15 -6 36 -14 46 -14 19 -15 19 -50 2
-71 -33 -157 -11 -181 47 -13 31 -20 35 -76 45 -73 13 -134 40 -134 61 0 24
163 26 226 4 45 -16 51 -16 123 0 60 15 121 18 301 19 210 0 228 -1 252 -20
43 -32 65 -68 70 -117 3 -25 8 -46 11 -46 2 0 25 24 51 52 25 29 62 69 81 89
l35 36 118 7 c165 10 177 -3 66 -74 -39 -25 -100 -71 -137 -103 -37 -32 -84
-68 -105 -78 -22 -11 -58 -37 -80 -58 -23 -21 -60 -50 -82 -64 -90 -59 -262
-182 -296 -211 -78 -66 -184 -117 -301 -143 -101 -22 -128 -25 -282 -21 -153
3 -177 6 -223 27 -58 26 -119 86 -129 128 -4 15 -2 40 6 57 7 17 13 42 14 56
1 22 -4 25 -43 31 -56 7 -111 62 -111 109 0 44 23 47 72 11 23 -17 54 -31 69
-31 38 0 87 44 94 84 8 40 -15 100 -44 116 -23 12 -174 12 -206 0 -41 -16
-106 -108 -126 -180 -19 -67 -19 -72 -3 -130 9 -33 32 -82 50 -108 19 -26 34
-52 34 -58 0 -15 54 -56 117 -89 67 -37 221 -84 358 -110 31 -6 232 8 342 24
91 13 305 112 403 186 30 23 67 48 82 56 29 15 108 77 222 175 40 34 92 74
116 89 25 16 61 41 80 56 61 49 290 153 405 185 150 41 344 62 640 70 208 5
266 3 345 -11 52 -9 118 -20 145 -24 105 -17 211 -61 311 -127 55 -36 113 -79
129 -95 17 -16 37 -29 45 -29 17 0 70 49 70 65 0 27 158 144 242 179 57 24
184 56 246 62 80 8 372 -29 417 -53 11 -6 52 -13 92 -17 40 -3 112 -20 160
-36 48 -17 131 -44 183 -61 52 -17 147 -57 210 -88 63 -32 133 -64 155 -71 22
-7 47 -19 56 -27 19 -16 113 -74 187 -115 30 -17 59 -42 68 -59 14 -28 18 -30
59 -24 32 5 60 1 107 -15 35 -12 68 -26 74 -31 6 -5 28 -15 50 -23 21 -7 68
-27 104 -44 36 -16 89 -37 117 -47 29 -9 55 -21 58 -26 7 -11 94 -38 160 -49
28 -5 70 -14 95 -20 79 -20 231 -32 351 -27 114 5 117 6 188 46 97 55 145 98
195 173 79 118 103 226 67 297 -28 53 -59 68 -112 54 -47 -12 -54 -6 -55 51 0
48 -26 71 -89 80 -60 9 -113 -8 -121 -39 -11 -44 45 -123 116 -161 115 -63
120 -160 16 -288 -51 -61 -120 -96 -216 -109 -128 -16 -186 -12 -355 27 -38 9
-83 19 -100 22 -41 8 -105 36 -105 46 0 16 51 28 115 28 66 0 90 17 59 42 -38
33 -45 42 -42 57 6 29 51 25 83 -9 36 -38 54 -38 89 -1 34 35 75 54 108 49 19
-2 24 -10 28 -48 7 -56 20 -80 62 -115 29 -25 38 -27 91 -22 68 6 89 21 123
89 40 79 29 114 -59 194 -65 60 -81 86 -81 138 -1 41 -22 65 -47 52 -16 -8
-76 -43 -172 -99 -36 -21 -90 -44 -121 -52 -31 -8 -82 -28 -114 -44 -37 -19
-100 -37 -177 -51 -66 -12 -132 -26 -146 -30 -29 -9 -257 11 -374 33 -77 14
-227 91 -300 154 -150 128 -197 163 -269 198 -101 50 -107 70 -21 69 70 -1
164 -25 254 -65 35 -16 69 -29 75 -29 7 0 28 16 47 36 54 57 78 65 212 71 101
5 129 3 162 -11 43 -18 105 -57 145 -91 45 -38 113 -72 187 -90 l71 -18 92 46
c93 48 123 54 203 41 20 -4 37 -10 37 -15 0 -39 -309 -149 -416 -149 -37 0
-70 10 -132 40 -45 22 -89 40 -97 40 -9 0 -23 -16 -32 -35 -9 -19 -26 -38 -37
-41 -31 -10 -127 -5 -142 7 -20 17 -17 27 15 65 33 37 32 65 -2 89 -60 42
-137 -3 -137 -78 0 -37 6 -47 58 -97 71 -70 88 -74 307 -74 141 -1 175 2 285
27 131 30 144 35 305 115 55 28 119 55 143 62 45 12 63 33 43 53 -8 8 -25 8
-68 -1 -31 -6 -59 -10 -62 -7 -2 3 5 15 17 28 21 23 95 51 162 62 132 22 175
25 203 15 17 -5 40 -10 53 -10 13 0 59 -11 103 -25 68 -22 89 -34 131 -76 27
-27 53 -64 58 -81 4 -17 13 -33 19 -35 6 -2 27 18 46 44 38 52 166 136 234
155 46 13 110 13 183 0 30 -6 82 -15 115 -20 44 -7 121 -40 290 -125 263 -131
304 -147 383 -147 122 1 216 106 171 193 -26 50 -51 67 -99 67 -61 0 -84 -24
-85 -87 -1 -56 -18 -68 -73 -53 -53 14 -94 53 -92 88 4 52 4 52 -69 52 -54 0
-86 7 -143 29 -40 17 -73 36 -73 43 0 16 128 25 380 27 145 0 193 -3 247 -18
91 -25 177 -98 178 -153 0 -34 38 -20 62 24 19 34 37 49 98 80 71 36 83 38
210 47 74 6 147 13 163 17 21 5 27 3 27 -10 0 -21 -35 -42 -95 -57 -92 -22
-215 -89 -280 -154 -67 -67 -187 -161 -225 -178 -23 -10 -69 -16 -240 -33 -79
-8 -234 11 -284 35 -22 11 -84 36 -136 56 -51 20 -99 40 -105 45 -13 11 -130
50 -150 50 -8 0 -20 -11 -25 -25 -5 -13 -25 -48 -45 -76 -28 -41 -35 -61 -35
-99 0 -98 33 -135 121 -135 61 0 76 15 91 90 7 33 17 63 23 67 23 17 73 7 111
-22 43 -32 60 -36 99 -18 21 9 36 8 80 -6 29 -9 64 -25 76 -35 22 -18 22 -19
6 -45 -10 -14 -29 -29 -44 -32 -15 -4 -45 -21 -68 -38 -22 -17 -59 -38 -83
-45 -37 -13 -48 -12 -102 4 -56 17 -63 17 -93 3 -18 -9 -76 -19 -128 -23 -91
-7 -98 -6 -148 19 -67 35 -93 74 -89 141 l3 49 -40 8 c-38 8 -95 48 -95 68 0
22 15 42 41 55 27 14 59 11 59 -5 0 -33 84 -6 95 30 9 30 -12 87 -42 110 -35
27 -126 28 -166 1 -56 -37 -103 -106 -117 -172 l-13 -62 34 -66 c39 -76 108
-148 170 -178 86 -41 120 -53 154 -53 19 0 56 -8 82 -19 80 -30 197 -35 305
-11 51 11 113 27 138 36 25 9 63 19 85 23 59 12 144 47 195 81 25 16 51 30 58
30 8 0 26 8 40 18 15 11 72 44 128 75 56 31 107 64 114 72 8 9 32 26 54 37 23
11 68 42 101 67 98 76 252 161 293 161 8 0 23 6 31 14 24 21 112 67 146 76 17
5 64 21 105 35 132 48 174 55 320 55 79 0 140 -4 140 -9 0 -13 -54 -30 -131
-40 -35 -5 -89 -18 -119 -29 -30 -11 -82 -28 -115 -37 -66 -19 -208 -87 -295
-140 -30 -19 -82 -48 -115 -66 -33 -17 -80 -48 -105 -68 -49 -40 -235 -157
-331 -207 -33 -18 -70 -41 -82 -52 -12 -10 -76 -45 -142 -77 -66 -32 -131 -66
-145 -75 -46 -31 -160 -70 -204 -70 -49 0 -84 -25 -50 -36 11 -3 42 -14 69
-24 28 -10 82 -26 120 -35 101 -22 137 -35 160 -55 11 -10 81 -45 155 -79 74
-34 149 -71 165 -83 17 -12 50 -34 75 -48 25 -14 72 -44 105 -68 74 -53 205
-134 265 -163 187 -92 293 -137 415 -176 77 -24 163 -53 190 -63 65 -24 168
-30 335 -20 108 6 150 13 210 35 141 51 268 165 335 300 46 93 48 177 9 281
-31 84 -33 86 -100 124 -65 36 -119 39 -199 9 -93 -35 -132 -113 -85 -172 12
-15 36 -29 57 -33 32 -6 38 -3 60 25 30 38 47 39 69 6 16 -24 16 -28 -1 -65
-10 -22 -26 -47 -36 -56 -27 -25 -23 -54 12 -91 l32 -32 -13 -62 c-18 -85 -53
-122 -160 -172 -71 -33 -100 -41 -175 -47 -49 -3 -99 -4 -110 0 -11 4 -44 8
-73 9 -67 2 -159 22 -244 54 -37 14 -91 28 -120 32 -60 8 -103 27 -111 50 -9
21 40 19 128 -6 126 -35 131 -35 149 0 9 17 25 35 35 41 19 10 147 16 186 9
17 -4 20 2 20 38 1 23 3 43 5 45 3 2 20 13 38 26 20 14 48 23 72 24 70 1 75
-16 29 -85 -35 -53 -34 -88 3 -108 12 -6 31 -20 42 -30 13 -12 35 -19 62 -19
35 0 47 5 69 31 23 29 25 37 20 93 -7 81 -41 132 -115 168 -87 43 -192 33
-325 -31 -78 -38 -108 -48 -180 -61 -33 -6 -82 -18 -110 -26 -45 -15 -62 -15
-183 -1 -126 15 -136 18 -220 64 -49 26 -112 72 -144 103 -54 52 -57 58 -64
118 -3 34 -10 64 -14 67 -4 2 -24 -5 -46 -15 -46 -24 -64 -25 -109 -6 -23 10
-39 26 -49 50 -10 25 -21 36 -35 36 -20 0 -40 8 -153 59 -77 35 -76 53 5 81
34 12 85 26 112 32 70 14 98 27 92 41 -17 45 -16 55 4 80 22 29 65 36 115 17
37 -14 63 -4 70 28 15 60 65 141 117 188 69 63 173 124 211 124 16 0 57 5 92
12 49 9 80 9 136 -1 140 -24 237 -53 291 -88 28 -19 61 -38 73 -43 11 -4 56
-31 99 -59 42 -28 84 -51 92 -51 8 0 28 16 46 35 18 18 53 43 78 53 57 24 95
69 104 121 10 62 -9 108 -55 131 -57 29 -86 26 -126 -14 -39 -39 -42 -63 -14
-99 34 -43 5 -105 -51 -109 -37 -3 -97 21 -114 45 -8 12 -15 36 -15 54 0 17
-4 34 -9 37 -4 3 -33 1 -62 -5 -77 -16 -130 3 -145 51 l-12 35 -63 -3 c-36 -2
-91 -14 -124 -27 -47 -19 -69 -22 -101 -16 -45 8 -64 18 -64 31 0 14 60 46
125 68 33 12 87 30 120 42 125 43 154 49 280 55 185 9 329 -12 427 -61 93 -47
115 -67 144 -132 25 -56 22 -83 -11 -96 -27 -10 -18 -54 15 -71 50 -26 53
-105 4 -127 -20 -9 -32 -8 -60 5 -19 9 -42 17 -50 17 -23 0 -94 -59 -105 -87
-15 -41 22 -103 84 -141 48 -29 61 -32 133 -32 68 0 84 3 116 25 43 29 90 93
108 150 18 54 19 181 1 225 -30 73 -95 172 -142 214 -91 82 -230 142 -364 157
-88 10 -133 24 -120 37 7 7 261 21 305 16 14 -1 61 -16 105 -34z m-4645 -15
c14 -8 51 -14 85 -14 34 0 71 6 85 14 32 18 101 19 124 2 30 -22 15 -50 -44
-79 -48 -23 -68 -27 -150 -27 -95 -1 -95 -1 -157 40 -68 44 -77 54 -68 69 9
15 96 11 125 -5z m9780 0 c34 -19 133 -19 171 1 38 19 124 16 124 -5 0 -8 -29
-34 -64 -58 l-65 -43 -95 1 c-83 0 -103 4 -151 27 -59 29 -74 57 -44 79 23 17
92 16 124 -2z m-15141 -1499 c9 -11 9 -20 2 -35 -24 -43 -11 -92 38 -144 26
-28 26 -29 6 -43 -14 -11 -34 -14 -70 -9 -27 3 -132 6 -233 7 -136 1 -185 4
-193 14 -8 10 -2 17 28 29 92 39 152 55 197 53 l48 -3 14 46 c20 66 56 99 109
99 25 0 48 -6 54 -14z m20795 -12 c14 -15 32 -48 40 -73 l14 -46 48 3 c45 2
105 -14 197 -53 30 -12 36 -19 28 -29 -8 -10 -57 -13 -193 -14 -101 -1 -205
-4 -233 -7 -36 -5 -56 -2 -70 9 -20 14 -20 15 6 43 49 52 62 101 38 144 -16
30 5 49 56 49 32 0 48 -6 69 -26z m-12858 -166 c55 -27 67 -52 32 -62 -13 -3
-78 -6 -146 -6 -104 0 -124 2 -129 16 -13 33 93 86 158 80 20 -2 58 -15 85
-28z m4993 0 c31 -16 46 -31 46 -44 0 -18 -9 -19 -115 -22 -132 -3 -180 3
-180 23 0 15 21 29 85 57 50 22 102 17 164 -14z"/>
<path d="M2012 2127 c-6 -7 -17 -29 -26 -50 -9 -22 -27 -52 -41 -69 -39 -46
-35 -98 11 -142 42 -40 65 -50 99 -42 30 8 68 60 69 95 1 19 7 27 23 29 18 3
29 -8 53 -46 l30 -49 97 -6 c88 -5 106 -3 177 21 79 26 126 57 109 71 -4 5
-44 5 -88 1 -77 -8 -136 -2 -200 19 -84 27 -122 45 -154 69 -20 16 -48 33 -63
39 -15 7 -34 23 -43 37 -20 30 -40 39 -53 23z"/>
<path d="M23581 2100 c-22 -22 -45 -40 -51 -40 -7 0 -29 -13 -49 -29 -34 -27
-71 -44 -156 -72 -64 -21 -123 -27 -200 -19 -44 4 -84 4 -88 -1 -17 -14 30
-45 109 -71 71 -24 89 -26 177 -21 l97 6 30 49 c24 38 35 49 53 46 16 -2 22
-10 23 -29 1 -35 39 -87 69 -95 34 -8 57 2 99 42 45 44 50 96 11 142 -13 16
-33 50 -44 75 -11 24 -24 48 -30 51 -5 4 -28 -12 -50 -34z"/>
<path d="M11387 2080 c-56 -15 -88 -33 -144 -87 -41 -38 -55 -60 -68 -107 -16
-54 -16 -62 -1 -93 23 -49 70 -74 131 -71 44 3 52 7 72 37 28 42 29 90 3 124
-26 33 -25 45 5 59 18 8 35 8 69 -2 41 -11 48 -10 79 9 76 47 201 47 252 1 11
-9 33 -20 48 -24 45 -11 74 -47 83 -102 4 -28 17 -61 30 -77 13 -16 24 -33 24
-38 0 -15 61 -41 84 -35 29 7 63 -3 70 -21 8 -21 -31 -69 -73 -87 -21 -10 -56
-15 -85 -14 l-49 3 -47 -69 c-67 -97 -128 -142 -199 -148 -30 -3 -77 1 -102 7
-44 12 -50 11 -86 -11 -44 -27 -89 -30 -121 -8 -28 19 -28 35 0 83 19 33 20
43 10 65 -15 34 -74 60 -118 51 -19 -3 -44 -19 -59 -37 -23 -28 -27 -39 -22
-81 4 -42 11 -55 57 -102 45 -46 65 -57 134 -79 100 -32 256 -36 340 -9 161
51 293 125 327 180 13 21 60 77 106 125 46 47 83 95 83 105 0 10 -10 24 -22
32 -52 32 -133 111 -222 215 -104 122 -161 164 -261 191 -71 20 -274 28 -328
15z"/>
<path d="M13980 2076 c-137 -29 -190 -64 -308 -204 -86 -102 -168 -181 -219
-213 -13 -8 -23 -22 -23 -32 0 -10 37 -58 83 -105 46 -48 93 -104 106 -125 34
-55 166 -129 327 -180 84 -27 240 -23 340 9 69 22 89 33 134 79 46 47 53 60
57 102 5 42 1 53 -22 81 -15 18 -40 34 -59 37 -44 9 -103 -17 -118 -51 -10
-22 -9 -32 10 -65 28 -48 28 -64 0 -83 -32 -22 -77 -19 -121 8 -36 22 -42 23
-86 11 -25 -6 -72 -10 -102 -7 -71 6 -132 51 -199 148 l-47 69 -49 -3 c-29 -1
-64 4 -85 14 -42 18 -81 66 -73 88 7 17 42 27 71 20 22 -6 83 20 83 35 0 5 11
22 24 38 13 16 26 49 30 77 9 55 38 91 83 102 15 4 37 15 48 24 51 46 176 46
252 -1 31 -19 38 -20 79 -9 34 10 51 10 69 2 30 -14 31 -26 5 -59 -26 -34 -25
-82 3 -124 20 -30 28 -34 72 -37 61 -3 108 22 131 71 15 31 15 39 -1 93 -13
47 -27 69 -68 108 -77 73 -121 89 -252 92 -66 2 -136 -2 -175 -10z"/>
<path d="M6435 2016 c-36 -15 -99 -43 -140 -64 -39 -19 -135 -102 -194 -166
-69 -76 -191 -190 -247 -232 -35 -26 -28 -49 23 -72 21 -10 70 -36 110 -60 39
-23 74 -42 78 -42 9 0 79 -55 149 -117 33 -29 63 -53 68 -53 5 0 33 -16 63
-35 101 -64 216 -102 260 -85 15 6 59 10 100 10 70 0 76 2 136 44 87 59 129
128 129 209 0 51 -4 62 -29 88 -37 36 -80 38 -153 6 -83 -37 -88 -49 -62 -159
9 -41 -29 -47 -93 -14 -49 24 -83 70 -83 109 0 25 -20 31 -105 32 -77 0 -84 3
-170 50 -49 28 -100 54 -112 58 -35 13 -28 33 28 87 65 62 121 80 254 80 l96
0 -6 53 c-6 48 -4 56 20 85 37 44 75 62 128 62 59 0 71 -16 63 -80 -8 -59 3
-84 44 -105 35 -18 120 -20 142 -2 30 24 48 62 48 104 0 38 -5 48 -55 96 -66
66 -139 103 -225 117 -85 13 -227 11 -265 -4z"/>
<path d="M18940 2019 c-77 -12 -151 -52 -215 -116 -50 -48 -55 -58 -55 -96 0
-42 18 -80 48 -104 22 -18 107 -16 142 2 41 21 52 46 44 105 -8 64 4 80 63 80
53 0 91 -18 128 -62 24 -29 26 -37 20 -85 l-6 -53 96 0 c133 0 189 -18 254
-80 56 -54 63 -74 29 -87 -13 -4 -63 -30 -113 -58 -86 -47 -93 -50 -170 -50
-85 -1 -105 -7 -105 -32 0 -39 -34 -85 -83 -109 -64 -33 -102 -27 -93 14 26
110 21 122 -62 159 -73 32 -116 30 -153 -6 -25 -26 -29 -37 -29 -88 0 -81 42
-150 129 -209 60 -42 66 -44 136 -44 41 0 85 -4 100 -10 44 -17 159 21 260 85
30 19 58 35 63 35 5 0 35 24 68 52 70 63 140 118 149 118 4 0 39 19 78 42 40
24 89 50 110 60 51 23 58 46 23 72 -56 42 -178 156 -247 232 -59 64 -155 147
-194 166 -46 24 -106 50 -145 65 -39 14 -185 15 -270 2z"/>
<path d="M3998 1999 c-74 -6 -101 -14 -181 -53 -118 -57 -150 -91 -166 -177
-20 -103 11 -151 97 -151 73 0 92 13 92 68 0 35 -5 50 -25 68 -44 41 -27 66
57 83 43 9 71 -3 120 -52 25 -25 50 -45 56 -45 5 0 26 14 47 30 32 25 46 30
94 30 31 0 61 -4 67 -8 17 -11 34 -48 34 -74 0 -35 18 -48 65 -48 31 0 52 -8
84 -32 49 -38 57 -61 39 -105 -16 -38 -106 -102 -154 -110 -33 -5 -34 -7 -34
-49 0 -55 -30 -78 -100 -77 -64 1 -90 16 -90 53 0 49 -34 39 -66 -19 -29 -54
-59 -71 -123 -71 -48 0 -63 12 -60 46 7 95 0 125 -40 165 -21 22 -48 39 -60
39 -57 0 -164 -85 -174 -139 -6 -30 -3 -50 19 -123 20 -61 96 -127 174 -150
55 -16 182 -34 210 -30 8 1 42 7 75 13 153 26 299 41 397 40 59 0 110 4 113 9
3 5 0 49 -6 99 l-11 89 38 64 c20 35 49 77 62 93 32 38 97 77 142 85 43 7 47
32 5 40 -56 12 -103 41 -159 100 -50 52 -56 64 -57 102 -2 87 -6 92 -87 99
-39 4 -91 16 -114 27 -70 32 -159 60 -213 67 -27 4 -57 8 -65 9 -8 2 -54 0
-102 -5z"/>
<path d="M21485 1995 c-75 -13 -143 -35 -213 -67 -23 -11 -75 -23 -114 -27
-81 -7 -85 -12 -87 -99 -1 -38 -7 -50 -57 -102 -56 -59 -103 -88 -159 -100
-42 -8 -38 -33 5 -40 45 -8 110 -47 142 -85 13 -16 42 -58 62 -93 l38 -64 -11
-89 c-6 -50 -9 -94 -6 -99 3 -5 54 -9 113 -9 98 1 244 -14 397 -40 33 -6 67
-12 75 -13 28 -4 155 14 210 30 78 23 154 89 174 150 22 73 25 93 19 123 -10
54 -117 139 -174 139 -12 0 -39 -17 -60 -39 -40 -40 -47 -70 -40 -165 3 -34
-12 -46 -60 -46 -64 0 -94 17 -123 71 -32 58 -66 68 -66 19 0 -37 -26 -52 -90
-53 -70 -1 -100 22 -100 77 0 42 -1 44 -34 49 -48 8 -138 72 -154 110 -18 44
-10 67 39 105 32 24 53 32 84 32 47 0 65 13 65 48 0 26 17 63 34 74 6 4 36 8
67 8 48 0 62 -5 94 -30 21 -16 42 -30 47 -30 6 0 31 20 56 45 49 49 77 61 120
52 84 -17 101 -42 57 -83 -20 -18 -25 -33 -25 -68 0 -55 19 -68 92 -68 86 0
117 48 97 151 -16 86 -48 120 -164 176 -69 34 -109 46 -156 50 -35 3 -77 7
-94 9 -16 1 -61 -3 -100 -9z"/>
<path d="M9122 1888 c-5 -7 -28 -49 -50 -93 -46 -91 -59 -106 -124 -134 -35
-15 -48 -26 -48 -41 0 -11 8 -23 18 -26 45 -14 91 -43 129 -81 38 -40 73 -56
73 -34 0 5 23 34 50 65 55 59 162 126 204 126 29 0 76 19 76 31 0 12 -35 29
-60 29 -49 0 -179 91 -208 146 -14 26 -43 32 -60 12z"/>
<path d="M16468 1876 c-29 -55 -159 -146 -208 -146 -25 0 -60 -17 -60 -29 0
-12 47 -31 76 -31 42 0 149 -67 204 -126 27 -31 50 -60 50 -65 0 -22 35 -6 73
34 38 38 84 67 130 81 9 3 17 15 17 26 0 15 -14 26 -52 44 -64 28 -71 36 -128
145 -50 95 -77 114 -102 67z"/>
<path d="M11635 1873 c-11 -2 -41 -13 -66 -24 -40 -18 -49 -29 -80 -91 -32
-66 -37 -72 -86 -92 -61 -24 -68 -46 -25 -71 15 -9 38 -32 51 -50 42 -62 147
-115 226 -115 90 1 198 107 180 177 -9 36 -48 39 -106 9 -28 -14 -57 -26 -64
-26 -18 0 -28 34 -20 70 9 42 25 51 67 38 47 -14 111 14 116 51 5 31 -70 108
-118 121 -36 10 -42 11 -75 3z"/>
<path d="M13935 1870 c-45 -14 -118 -92 -113 -121 5 -37 69 -65 116 -51 42 13
58 4 67 -38 8 -36 -2 -70 -20 -70 -7 0 -36 12 -64 26 -58 30 -97 27 -106 -9
-18 -70 90 -176 180 -177 79 0 184 53 226 115 13 18 36 41 51 50 43 25 36 47
-25 71 -49 20 -54 26 -86 92 -31 62 -40 73 -80 91 -57 25 -107 33 -146 21z"/>
<path d="M12791 1784 c-11 -15 -21 -30 -21 -34 0 -4 -20 -27 -45 -52 -62 -63
-59 -81 21 -143 36 -27 71 -50 79 -50 8 0 43 23 79 50 79 61 82 80 26 138 -22
23 -50 58 -63 77 -29 44 -49 48 -76 14z"/>
<path d="M5236 1731 c-9 -9 -16 -23 -16 -30 0 -7 -25 -38 -55 -70 -30 -32 -55
-64 -55 -72 0 -8 20 -32 45 -52 25 -21 52 -51 60 -67 20 -38 39 -38 62 0 19
33 69 70 127 94 20 8 36 22 36 30 0 8 -27 29 -61 47 -49 26 -65 42 -85 80 -29
58 -37 64 -58 40z"/>
<path d="M20383 1738 c-6 -7 -20 -31 -31 -54 -16 -31 -35 -48 -81 -73 -34 -18
-61 -39 -61 -47 0 -8 16 -22 36 -30 58 -24 108 -61 127 -94 23 -38 42 -38 62
0 8 16 35 46 60 67 25 20 45 44 45 52 0 8 -25 40 -55 72 -30 32 -55 64 -55 72
0 8 -8 21 -19 31 -14 13 -20 14 -28 4z"/>
<path d="M1940 1321 c-49 -7 -120 -53 -120 -78 0 -8 15 -33 34 -54 39 -46 50
-94 30 -126 -28 -44 -7 -92 35 -78 29 9 39 25 55 89 13 50 14 63 1 99 -12 36
-12 45 0 64 34 51 96 36 116 -29 18 -54 55 -78 93 -60 36 16 36 69 -1 113 -51
60 -120 77 -243 60z"/>
<path d="M23535 1312 c-87 -41 -127 -138 -69 -164 38 -18 75 6 93 60 20 65 82
80 116 29 12 -19 12 -28 0 -64 -13 -36 -12 -49 1 -99 16 -64 26 -80 55 -89 42
-14 63 34 35 78 -21 32 -9 80 31 126 19 23 33 48 31 57 -2 9 -21 29 -43 45
-34 24 -53 29 -125 34 -71 5 -92 3 -125 -13z"/>
<path d="M12190 5220 c0 -5 5 -10 10 -10 6 0 10 5 10 10 0 6 -4 10 -10 10 -5
0 -10 -4 -10 -10z"/>
</g>
</svg>
