<svg version="1.0" xmlns="http://www.w3.org/2000/svg"
 width="1521.000000pt" height="408.000000pt" viewBox="0 0 1521.000000 408.000000"
 preserveAspectRatio="xMidYMid meet">
<metadata>
Created by potrace 1.13, written by Peter Selinger 2001-2015
</metadata>
<g transform="translate(0.000000,408.000000) scale(0.100000,-0.100000)"
fill="currentColor" stroke="none">
<path d="M281 4070 c-8 -4 -49 -8 -90 -7 -78 0 -131 -19 -131 -48 0 -7 -9 -24
-21 -38 l-20 -26 22 -30 c18 -24 21 -38 16 -73 -6 -42 -5 -45 78 -143 46 -54
93 -103 104 -107 12 -4 26 -19 33 -33 9 -20 18 -25 49 -25 25 0 47 -8 67 -25
21 -18 42 -25 70 -25 32 0 47 -7 70 -30 17 -16 38 -30 47 -30 12 0 14 -4 6
-19 -6 -11 -7 -38 -2 -69 5 -30 4 -53 -1 -54 -13 -5 -21 -135 -9 -142 9 -6 5
-112 -5 -127 -2 -4 0 -10 6 -14 12 -8 13 -58 1 -70 -5 -6 -3 -36 6 -75 8 -36
14 -76 12 -90 -1 -14 -3 -55 -3 -93 -1 -37 -5 -67 -9 -67 -5 0 -5 -5 -2 -11 4
-5 6 -51 6 -101 -1 -54 3 -96 10 -104 8 -10 8 -14 1 -14 -14 0 -13 -310 1
-327 6 -8 6 -13 0 -13 -12 0 -12 -569 0 -587 4 -6 3 -14 -3 -18 -6 -4 -7 -51
-4 -128 7 -144 7 -166 2 -402 -4 -135 -1 -191 9 -224 17 -54 12 -71 -22 -71
-25 0 -59 -22 -49 -32 2 -3 -34 -8 -80 -10 -57 -4 -90 -11 -100 -21 -9 -8 -30
-18 -47 -22 -17 -4 -33 -13 -36 -21 -3 -8 -11 -14 -18 -14 -7 0 -15 -6 -18
-14 -3 -8 -19 -17 -36 -21 -17 -4 -31 -11 -31 -16 0 -5 -7 -9 -15 -9 -8 0 -21
-13 -29 -28 -8 -16 -31 -41 -50 -56 -32 -24 -36 -32 -36 -73 0 -29 6 -53 16
-64 9 -10 19 -32 23 -50 9 -43 70 -85 149 -101 63 -12 63 -12 125 21 38 21 92
64 139 112 42 44 82 79 90 79 15 0 38 44 38 74 0 12 5 28 10 36 7 12 10 8 11
-15 0 -26 2 -27 9 -10 5 11 9 32 9 48 1 15 5 27 10 27 4 0 7 19 5 43 -6 77 -2
80 81 72 42 -4 75 -3 79 3 3 5 34 7 68 4 35 -2 77 -5 93 -6 17 0 33 -5 36 -9
4 -5 96 -8 205 -7 110 1 208 2 219 2 70 -3 180 0 238 7 42 4 67 3 67 -3 0 -5
7 -1 15 10 12 16 14 17 15 2 0 -15 20 -17 198 -18 108 -1 211 -1 227 0 17 1
93 3 170 5 77 2 154 4 170 5 17 0 116 -4 220 -9 124 -6 196 -6 209 1 18 10
149 6 261 -8 33 -4 101 -6 150 -4 133 5 293 4 353 -2 29 -3 54 -2 57 1 2 4 41
6 87 4 226 -9 344 -9 356 0 8 6 12 5 12 -3 0 -8 18 -10 63 -7 34 3 62 6 62 8
0 1 12 2 28 3 15 1 27 -1 27 -4 0 -3 330 -6 733 -7 978 -3 929 -3 944 9 9 7
13 7 13 -1 0 -6 11 -8 29 -5 16 4 32 1 35 -5 4 -6 12 -9 17 -5 8 5 275 6 399
2 14 -1 48 0 75 2 45 2 335 3 590 1 55 -1 133 -1 173 -1 47 0 72 -4 72 -11 0
-8 4 -8 14 0 10 8 56 11 153 7 76 -2 143 -5 148 -7 6 -1 18 1 28 6 10 4 34 3
53 -3 19 -5 36 -6 39 -2 3 5 51 9 108 10 56 1 109 2 117 2 8 0 101 0 205 0
105 -1 208 -1 230 -1 22 0 78 0 125 0 343 -1 2242 0 2310 1 180 3 319 3 712
-1 317 -3 411 -1 423 9 11 9 15 9 15 1 0 -9 63 -11 238 -9 130 1 284 2 342 0
58 -1 134 -2 170 -2 36 1 88 1 115 1 28 -1 88 1 135 4 180 10 611 12 659 2 28
-5 58 -6 68 -1 22 10 273 13 273 3 0 -7 77 -5 179 5 22 2 44 0 47 -5 3 -5 19
-9 35 -9 18 0 39 -9 53 -22 13 -13 34 -32 47 -43 13 -11 25 -26 25 -32 1 -7 2
-26 3 -43 0 -19 14 -44 36 -69 19 -21 35 -48 35 -59 0 -11 31 -51 73 -94 72
-74 123 -108 158 -108 9 0 19 -6 22 -12 2 -9 25 -13 66 -13 49 0 65 4 72 17 6
10 28 21 51 24 23 4 49 15 58 24 20 20 36 93 22 98 -5 1 -5 18 1 42 15 53 1
89 -46 119 -27 18 -34 28 -27 36 8 9 -2 18 -35 34 -25 12 -48 28 -51 36 -4 8
-12 15 -19 15 -7 0 -15 7 -18 14 -3 8 -22 18 -42 22 -20 3 -39 13 -42 20 -4
10 -26 14 -77 15 -90 1 -108 7 -150 47 -32 30 -34 35 -24 65 6 19 10 110 8
222 -3 269 -3 277 4 412 3 77 2 124 -4 128 -6 4 -7 12 -3 18 12 18 12 587 0
587 -6 0 -6 5 0 12 14 18 15 328 1 328 -7 0 -7 4 1 14 7 8 11 50 10 104 0 50
2 96 6 101 3 6 3 11 -2 11 -4 0 -8 30 -9 67 0 38 -2 79 -3 93 -2 14 4 54 12
90 9 39 11 69 6 74 -12 13 -11 63 1 71 6 4 8 10 6 14 -10 15 -14 121 -5 127
12 7 4 137 -9 142 -5 1 -6 24 -1 54 5 28 4 58 0 67 -11 20 6 45 36 55 11 4 26
13 33 21 7 9 23 12 43 8 40 -6 102 9 102 26 0 15 25 31 51 31 11 0 31 11 44
25 13 14 29 25 35 25 20 0 175 191 175 217 0 13 6 26 14 29 15 6 13 48 -5 101
-12 36 -52 73 -79 73 -10 0 -20 8 -23 19 -3 12 -17 21 -43 25 -56 9 -118 7
-122 -5 -2 -5 -18 -9 -35 -9 -21 0 -36 -7 -44 -19 -6 -10 -27 -21 -46 -25 -37
-7 -107 -73 -107 -101 0 -8 -6 -15 -13 -15 -7 0 -19 -16 -27 -35 -8 -19 -19
-35 -26 -35 -8 0 -15 -19 -19 -47 -3 -27 -13 -61 -21 -76 -9 -15 -15 -45 -13
-65 1 -20 1 -47 0 -59 l-1 -21 -297 -1 c-164 0 -372 0 -463 0 -201 1 -189 1
-332 -3 -65 -2 -118 0 -118 5 0 11 -119 0 -135 -13 -9 -7 -21 -7 -41 1 -24 9
-158 12 -374 8 -8 -1 -73 2 -145 4 -156 7 -110 6 -354 2 -149 -2 -206 -7 -211
-16 -7 -10 -11 -9 -22 2 -12 12 -80 14 -389 14 -207 0 -383 -4 -393 -9 -14 -7
-17 -6 -12 2 5 9 -13 12 -66 13 -40 1 -77 0 -83 -1 -5 -1 -146 -3 -313 -4
-255 -1 -305 -4 -313 -16 -8 -11 -12 -12 -16 -2 -3 8 -27 12 -67 12 -35 0 -66
3 -69 7 -4 4 -254 5 -555 3 -666 -4 -766 -4 -1244 1 -309 3 -381 1 -402 -11
-23 -12 -32 -12 -64 0 -28 10 -116 13 -374 14 -186 0 -338 4 -338 9 0 4 -9 5
-21 2 -11 -4 -128 -6 -260 -5 -131 1 -247 1 -256 1 -289 -5 -573 -6 -573 -1 0
4 -400 3 -540 -2 -14 0 -47 2 -75 6 -67 9 -61 9 -135 -4 -43 -7 -86 -8 -123
-2 -34 5 -58 5 -59 0 -2 -6 -33 -6 -78 0 -41 5 -131 8 -199 6 -90 -4 -126 -1
-132 7 -5 9 -17 9 -51 0 -30 -9 -51 -9 -70 -2 -14 5 -29 7 -32 4 -11 -11 -121
-12 -133 -1 -7 6 -13 6 -13 1 0 -12 -223 -12 -232 1 -4 6 -28 6 -69 -2 -38 -7
-67 -8 -74 -2 -6 5 -27 5 -50 0 -21 -5 -42 -7 -46 -4 -11 6 -326 4 -704 -4
-246 -6 -346 -5 -395 4 -60 11 -83 11 -147 -2 -16 -3 -23 0 -23 12 0 13 -6 15
-32 9 -28 -6 -125 -14 -203 -16 -11 -1 -54 1 -95 4 -182 13 -215 14 -223 3 -6
-8 -10 -8 -13 0 -5 12 -52 7 -69 -6 -5 -5 -28 -5 -51 -1 -22 4 -109 6 -193 4
-106 -2 -158 0 -167 8 -8 6 -35 10 -62 9 -26 -2 -66 -3 -89 -4 -24 -1 -43 -3
-43 -6 0 -3 -216 -5 -480 -5 -467 0 -479 0 -494 20 -10 12 -15 38 -15 65 1 25
-6 59 -15 75 -9 17 -16 49 -16 72 0 43 -38 103 -65 103 -7 0 -19 14 -27 30 -7
17 -19 30 -25 30 -7 0 -13 6 -13 14 0 27 -67 74 -117 82 -26 4 -57 13 -68 20
-12 8 -26 10 -34 4z m110 -152 c16 -13 42 -33 59 -46 16 -13 30 -29 30 -35 0
-6 14 -26 32 -44 25 -26 32 -43 36 -86 3 -42 0 -56 -13 -67 -22 -18 -124 -19
-177 -1 -36 12 -108 82 -108 105 0 5 -9 19 -20 31 -11 12 -25 47 -31 78 -16
79 -8 87 88 87 63 0 80 -4 104 -22z m14628 -12 c36 -19 61 -58 61 -95 0 -23
-12 -40 -57 -81 -32 -28 -85 -65 -118 -81 -33 -17 -64 -35 -69 -40 -6 -5 -22
-9 -37 -9 -15 0 -32 -7 -39 -15 -15 -18 -51 -20 -68 -3 -15 15 -16 54 -2 63 6
3 10 18 10 32 0 14 14 44 32 67 44 56 134 146 146 146 5 0 15 7 22 15 16 19
82 20 119 1z m-10606 -478 c21 -11 81 -12 347 -4 52 2 103 7 112 11 26 10 238
-11 238 -25 0 -4 18 -7 40 -7 22 1 40 5 40 10 0 12 38 8 43 -5 4 -10 8 -10 15
1 15 21 500 20 513 0 6 -9 9 -10 9 -2 0 7 18 12 48 12 26 0 97 2 157 6 170 8
205 8 273 0 44 -6 62 -5 62 4 0 15 47 14 52 -1 3 -9 51 -12 179 -11 96 1 189
-2 206 -7 20 -5 44 -4 62 3 20 7 53 7 117 0 49 -6 90 -8 92 -5 1 4 80 6 175 5
399 -6 1713 -4 1729 2 9 4 54 5 100 3 167 -9 648 -13 650 -7 2 4 48 8 103 9
55 0 114 1 130 2 122 2 209 -2 214 -9 3 -4 144 -9 314 -10 275 -2 307 -1 307
13 0 15 13 16 108 9 59 -4 109 -11 110 -16 5 -13 152 -12 152 1 0 6 28 10 65
10 37 0 65 -4 65 -10 0 -5 25 -10 55 -10 30 0 55 5 55 10 0 6 93 10 260 10
167 0 260 -4 260 -10 0 -5 18 -10 40 -10 29 0 40 4 40 15 0 8 9 15 20 15 11 0
20 -7 20 -15 0 -10 11 -15 35 -15 24 0 35 5 35 15 0 21 46 19 60 -2 8 -13 13
-14 16 -5 7 14 54 17 54 2 0 -14 57 -13 62 2 7 20 118 21 262 3 101 -13 141
-14 149 -6 13 13 158 15 173 3 5 -5 112 -4 238 1 173 7 234 6 251 -3 25 -14
158 -10 322 9 84 10 113 10 155 -1 39 -10 103 -13 233 -10 261 6 402 5 430 -2
26 -7 35 -41 13 -48 -16 -6 -15 -226 1 -257 10 -18 11 -46 5 -110 -5 -47 -7
-112 -5 -143 2 -38 -1 -58 -8 -58 -17 0 -13 -57 4 -64 19 -7 21 -66 2 -66 -11
0 -13 -18 -10 -82 3 -46 9 -93 15 -104 6 -14 7 -34 1 -55 -7 -29 -8 -433 -1
-634 1 -33 0 -92 -3 -131 -3 -49 0 -79 10 -97 13 -24 12 -29 -1 -44 -25 -28
-22 -113 3 -113 13 0 11 -38 -2 -46 -7 -4 -9 -23 -5 -50 4 -31 2 -46 -8 -51
-11 -7 -12 -38 -5 -166 5 -87 14 -175 21 -194 11 -30 10 -37 -3 -46 -21 -16
-31 -45 -17 -49 8 -3 7 -14 -3 -36 -16 -37 -40 -47 -114 -45 -197 3 -296 1
-333 -9 -27 -7 -82 -8 -145 -4 -110 7 -562 20 -639 18 -27 -1 -65 -2 -85 -3
-21 0 -92 0 -158 1 -185 2 -762 -8 -835 -16 -47 -4 -76 -2 -100 8 -32 13 -278
15 -845 5 -27 0 -207 0 -400 1 -192 1 -365 1 -382 1 -18 -1 -57 0 -87 1 -30 1
-63 -3 -73 -8 -10 -5 -79 -13 -154 -16 -114 -6 -142 -5 -175 9 -29 12 -54 14
-106 9 -42 -4 -68 -3 -68 3 0 6 -131 10 -360 10 -213 -1 -360 -5 -360 -10 0
-6 -26 -6 -62 -2 -111 12 -292 15 -338 5 -48 -11 -790 -19 -790 -9 0 3 -134 5
-297 4 -171 -1 -303 3 -310 8 -14 10 -173 -1 -173 -12 0 -9 -815 -3 -960 8
-63 4 -117 4 -120 0 -10 -14 -515 -21 -635 -9 -60 6 -130 11 -155 10 -25 -1
-65 -1 -90 0 -25 0 -191 -1 -370 -2 -179 -1 -390 -1 -470 -1 -80 1 -190 0
-245 0 -55 -1 -149 0 -210 0 -125 2 -470 1 -530 -1 -22 -1 -48 -5 -57 -10 -10
-4 -38 -5 -63 -2 -25 3 -66 9 -92 12 -27 4 -85 1 -130 -6 -71 -10 -89 -10
-131 4 -41 14 -67 15 -164 7 -64 -5 -135 -5 -159 -1 -25 5 -51 4 -61 -1 -22
-12 -65 -11 -73 1 -4 7 -44 8 -108 5 -127 -7 -230 -8 -470 -2 -111 3 -187 1
-187 -5 0 -5 -31 -7 -72 -4 -163 13 -352 15 -365 4 -9 -7 -21 -7 -40 1 -17 6
-88 10 -173 10 -80 -1 -159 1 -176 3 -59 6 -61 12 -58 238 1 163 -1 213 -14
243 -12 31 -12 43 -2 65 14 31 23 332 10 332 -4 0 -8 25 -9 55 0 30 3 55 7 55
9 0 7 838 -2 847 -9 9 -7 153 2 153 9 0 9 41 -1 57 -10 16 -7 166 4 180 11 13
1 63 -12 63 -15 0 -10 73 7 124 11 30 14 59 9 84 -4 20 -7 56 -8 80 -1 23 -5
42 -9 42 -5 0 -8 16 -8 35 l0 35 54 0 c34 0 57 -5 60 -12 5 -10 7 -10 12 0 7
14 44 16 44 2 0 -5 5 -10 10 -10 6 0 10 7 10 15 0 11 11 15 40 15 29 0 40 -4
40 -15 0 -8 9 -15 20 -15 11 0 20 5 20 10 0 6 9 10 20 10 11 0 20 -4 20 -10 0
-5 16 -10 35 -10 19 0 35 5 35 10 0 6 9 10 20 10 11 0 20 -3 20 -7 0 -10 279
-7 304 3 10 4 57 2 104 -4 61 -8 89 -8 98 -1 17 14 249 15 442 2 102 -7 165
-8 189 -1 21 6 140 8 284 6 137 -1 249 0 249 5 0 4 14 7 30 7 20 0 30 -5 30
-15 0 -8 9 -15 20 -15 11 0 20 7 20 15 0 21 217 21 277 0 33 -11 49 -12 70 -4
18 7 177 12 457 15 235 1 431 5 434 8 11 11 233 6 255 -6z m-3865 -2950 c17
-17 15 -53 -3 -68 -8 -7 -15 -21 -15 -31 0 -18 -11 -28 -115 -106 -62 -46
-133 -83 -161 -83 -12 0 -33 9 -48 21 -41 32 -34 85 19 147 20 24 116 92 130
92 4 0 21 6 38 14 49 22 59 24 103 25 22 1 45 -4 52 -11z m14338 -58 c19 -10
55 -34 79 -54 24 -20 47 -36 51 -36 4 0 18 -10 31 -22 24 -22 32 -81 13 -93
-5 -3 -10 -14 -10 -24 0 -10 -9 -30 -21 -45 -17 -22 -28 -26 -71 -26 -50 0
-53 2 -120 69 -41 41 -68 77 -68 90 0 12 -6 21 -16 21 -8 0 -29 13 -45 29 -31
32 -40 86 -16 110 17 17 146 4 193 -19z"/>
<path d="M830 3340 c-17 -10 -22 -159 -20 -505 2 -260 2 -252 -11 -580 -8
-225 -8 -304 0 -318 9 -14 9 -26 0 -52 -10 -26 -10 -67 0 -191 11 -143 10
-160 -4 -170 -9 -7 -12 -14 -6 -15 6 -3 6 -32 1 -79 -5 -48 -5 -79 2 -87 6 -7
7 -47 3 -100 -7 -108 18 -443 34 -443 3 -1 51 -3 106 -6 134 -7 255 -7 262 0
9 9 51 7 57 -2 5 -9 484 -8 493 2 10 10 73 7 73 -4 0 -6 47 -7 133 -3 72 4
152 7 177 6 25 -1 250 -1 500 -1 250 0 489 0 530 0 41 -1 644 -1 1340 -1 696
0 1362 0 1480 0 118 0 528 -1 910 -1 382 -1 738 -2 790 -3 151 -3 411 -2 590
1 91 1 251 0 355 -4 105 -3 302 0 439 6 178 8 251 9 259 1 14 -14 387 -15 387
-1 0 6 9 10 20 10 11 0 20 -5 20 -10 0 -7 165 -9 508 -5 592 7 549 7 635 -1
45 -4 67 -2 67 5 0 8 57 11 180 11 113 0 180 -4 180 -10 0 -6 50 -10 130 -10
88 0 130 4 130 11 0 7 14 9 43 5 23 -3 53 -5 67 -4 51 5 629 -1 745 -7 74 -4
162 -2 229 5 60 7 111 8 115 3 5 -6 1526 -11 1594 -5 9 1 17 9 17 17 0 8 6 25
13 36 10 17 10 23 0 26 -15 6 -17 33 -3 33 14 0 13 27 -1 32 -9 3 -9 16 -1 53
8 33 10 127 6 275 -3 124 -4 243 -4 265 7 298 7 317 -6 322 -19 7 -18 43 1 43
17 0 22 75 5 85 -13 8 -13 45 -1 45 6 0 6 12 0 32 -5 20 -5 64 1 115 6 57 6
92 -2 114 -8 24 -8 37 1 50 14 24 14 62 0 76 -7 7 -11 67 -10 177 1 100 -3
167 -9 171 -12 7 -14 65 -2 65 4 0 7 108 5 240 -1 203 0 240 13 240 26 0 14
18 -17 25 -27 6 -217 8 -309 3 -56 -3 -280 -2 -335 2 -27 2 -53 7 -56 12 -4 6
-19 3 -37 -6 -25 -13 -65 -16 -196 -16 -91 0 -167 3 -169 8 -6 8 -281 5 -415
-4 -54 -4 -88 -2 -96 5 -13 11 -162 8 -174 -3 -9 -10 -71 -6 -77 4 -3 6 -17 7
-31 4 -13 -3 -31 -1 -38 5 -10 8 -16 9 -21 1 -8 -13 -62 -13 -70 0 -4 6 -12 7
-18 3 -6 -4 -104 -8 -217 -9 -113 -2 -227 -4 -255 -4 -27 0 -106 3 -175 8 -69
5 -126 5 -128 0 -5 -12 -42 -10 -42 2 0 13 -197 13 -202 0 -2 -6 -82 -9 -208
-8 -113 0 -317 0 -454 0 -189 -1 -252 1 -259 11 -7 9 -10 9 -14 0 -6 -15 -73
-18 -73 -3 0 6 -7 10 -15 10 -8 0 -15 -4 -15 -10 0 -5 -13 -10 -30 -10 -16 0
-30 4 -30 9 0 5 -43 8 -95 7 -52 0 -95 -4 -95 -8 0 -12 -38 -9 -42 2 -2 8 -32
7 -98 -1 -57 -7 -139 -9 -205 -5 -142 9 -614 10 -622 2 -11 -10 -43 -7 -43 5
0 11 -32 9 -139 -7 -31 -5 -46 -3 -52 7 -8 12 -10 12 -18 0 -7 -11 -24 -12
-77 -6 -37 4 -73 9 -81 12 -7 3 -13 -2 -13 -10 0 -22 -119 -34 -161 -16 -41
16 -1005 18 -1154 1 -66 -7 -131 -8 -190 -2 -49 5 -182 9 -295 10 -113 0 -279
5 -370 10 -111 7 -166 7 -168 0 -4 -12 -52 -13 -52 -1 0 5 -58 8 -130 7 -71 0
-130 -4 -130 -8 0 -12 -48 -10 -52 2 -2 5 -18 6 -42 0 -21 -5 -150 -7 -285 -4
-135 2 -293 -1 -350 -7 -86 -8 -109 -7 -135 5 -25 12 -40 12 -81 3 -46 -10
-91 -12 -279 -9 -43 1 -72 6 -77 14 -6 9 -13 9 -34 0 -29 -13 -225 -17 -225
-4 0 5 -26 7 -57 6 -32 -1 -186 -8 -343 -14 -157 -7 -314 -9 -350 -5 -36 3
-103 6 -150 5 -181 -3 -258 -3 -345 3 -110 7 -94 7 -354 1 -147 -4 -223 -2
-241 6 -23 10 -35 8 -71 -10 -36 -19 -48 -20 -78 -12 -45 14 -294 31 -338 25
-18 -3 -33 -10 -33 -15 0 -7 -180 -6 -250 2 -8 1 -55 -4 -104 -11 -70 -10 -91
-10 -94 -1 -5 16 -66 15 -109 0 -27 -10 -38 -10 -54 0 -14 9 -25 9 -39 2 -25
-14 -87 -13 -96 1 -5 8 -37 10 -105 6 -55 -3 -99 -3 -99 1 0 4 -37 7 -83 8
-45 0 -107 3 -137 7 -30 4 -62 2 -70 -3z m1750 -134 c0 -19 100 -19 115 0 7
10 20 11 50 5 83 -19 465 -31 635 -21 210 13 398 14 430 3 14 -4 314 -8 668
-8 353 0 642 -2 642 -5 0 -4 146 -4 160 0 18 6 110 4 110 -3 0 -7 116 -1 129
8 4 2 36 0 71 -5 36 -4 69 -5 75 -2 5 4 64 5 130 3 306 -6 564 -11 605 -9 68
2 72 2 263 -7 155 -7 177 -10 175 -24 -2 -9 -12 -17 -24 -19 -11 -2 -42 -25
-68 -52 -27 -28 -53 -50 -58 -50 -5 0 -26 16 -46 35 l-37 35 -80 -6 c-54 -4
-96 -14 -128 -30 -27 -13 -67 -27 -90 -30 -23 -4 -54 -16 -70 -26 -25 -18 -34
-18 -97 -9 -38 6 -71 11 -74 11 -3 0 -6 7 -6 15 0 9 -6 12 -16 8 -9 -3 -20 0
-24 8 -6 9 -24 12 -54 10 -25 -1 -46 2 -46 6 0 9 -130 30 -247 40 -29 3 -53
10 -53 15 0 7 -18 8 -49 4 -30 -4 -52 -2 -56 4 -4 6 -72 8 -193 4 -103 -3
-220 -7 -261 -8 -55 -1 -76 -6 -85 -18 -8 -11 -32 -18 -78 -21 -36 -2 -69 -6
-74 -9 -5 -3 -30 -9 -56 -12 -26 -4 -51 -14 -56 -21 -5 -11 -39 -16 -123 -21
-99 -6 -117 -5 -131 10 -9 9 -24 16 -32 16 -9 0 -16 4 -16 10 0 13 -78 50
-105 50 -11 0 -31 7 -44 16 -41 29 -112 8 -219 -64 l-54 -37 -36 21 c-21 11
-68 38 -107 59 -38 21 -71 42 -73 46 -2 4 -16 5 -33 2 -17 -2 -29 0 -29 6 0 6
-8 11 -18 11 -10 0 -23 5 -30 12 -16 16 -182 11 -249 -8 -29 -8 -58 -14 -65
-13 -19 4 -68 -22 -68 -36 0 -6 -13 -24 -30 -40 -26 -25 -34 -27 -76 -21 -28
3 -60 17 -82 35 -21 15 -52 36 -69 45 -18 9 -33 21 -33 25 0 24 -211 43 -225
21 -3 -5 -19 -10 -34 -10 -15 0 -43 -5 -62 -12 -39 -14 -137 -79 -169 -113
-18 -19 -27 -22 -53 -14 -17 5 -42 20 -57 34 -24 23 -36 26 -142 32 -105 5
-120 4 -160 -16 -24 -11 -52 -21 -61 -21 -10 0 -40 -18 -68 -40 -28 -22 -58
-40 -67 -40 -10 0 -26 -7 -36 -15 -26 -19 -73 -19 -111 1 -47 25 -146 54 -185
54 -25 0 -39 6 -48 21 -11 17 -19 20 -53 14 -31 -5 -45 -3 -59 10 -12 11 -26
14 -41 10 -13 -4 -24 -2 -29 5 -8 13 -157 32 -247 30 l-63 -1 0 40 c0 48 -22
43 215 45 88 1 165 5 172 9 6 4 14 3 17 -1 3 -5 97 -7 208 -5 112 2 217 3 233
2 17 -1 37 -1 45 -1 8 0 69 0 135 0 66 1 129 1 140 1 11 0 65 1 120 2 55 1
105 1 110 -1 17 -6 135 12 141 21 8 14 24 10 24 -5z m6831 -38 c16 -3 29 -1
29 3 0 13 639 10 705 -4 33 -7 80 -9 105 -6 25 3 62 4 82 1 21 -2 43 0 50 6 9
7 29 7 65 0 29 -6 60 -7 70 -3 26 11 182 12 186 1 4 -13 97 -8 114 6 10 8 17
7 26 -4 10 -14 20 -14 72 -3 37 8 69 9 83 4 12 -5 33 -9 45 -9 134 -4 177 -4
177 2 0 8 225 2 240 -7 16 -10 181 -7 194 4 6 5 32 6 57 2 25 -4 54 -4 65 0
29 11 173 10 194 -1 16 -8 344 -11 880 -8 14 0 34 0 45 -1 42 -3 171 -4 195
-2 14 2 36 3 50 2 14 0 61 0 105 0 44 0 89 0 100 -1 11 0 38 0 60 1 22 0 74 0
115 -2 41 -1 107 -1 145 -1 39 1 102 0 140 -1 39 -1 103 -1 143 1 39 1 72 -2
72 -6 0 -11 51 -14 64 -3 6 5 23 9 38 8 22 -2 28 -7 28 -24 0 -31 -28 -43 -99
-43 -37 0 -61 -4 -61 -11 0 -7 -21 -8 -65 -4 -48 5 -65 4 -65 -5 0 -8 -10 -9
-30 -5 -34 8 -210 -13 -225 -26 -5 -5 -22 -9 -37 -9 -16 0 -36 -4 -46 -9 -9
-5 -55 -17 -101 -27 -46 -10 -89 -24 -96 -31 -8 -7 -21 -13 -31 -13 -9 0 -27
-11 -40 -25 -28 -31 -54 -33 -47 -5 3 11 0 20 -6 20 -6 0 -11 7 -11 15 0 8 -5
15 -12 15 -6 0 -26 11 -44 25 -18 14 -40 25 -49 25 -9 0 -14 4 -11 9 9 14 -46
23 -91 16 -57 -10 -136 -38 -156 -56 -23 -21 -76 -32 -91 -20 -6 5 -27 12 -46
16 -19 4 -38 12 -41 17 -3 4 -37 20 -75 34 -63 23 -83 26 -217 25 -82 0 -154
-4 -160 -9 -19 -14 -70 -25 -62 -12 4 6 -16 10 -59 10 -48 0 -74 -5 -98 -20
-34 -20 -106 -27 -124 -11 -18 17 -82 32 -160 37 -43 2 -81 9 -84 14 -8 12
-190 5 -199 -7 -6 -10 -53 -22 -98 -26 -13 -1 -23 -9 -23 -17 0 -9 -21 -22
-53 -32 -63 -21 -113 -23 -120 -5 -11 30 -118 51 -266 52 -132 2 -147 0 -192
-21 -50 -25 -133 -32 -144 -14 -3 6 -19 10 -34 10 -35 0 -91 19 -91 31 0 5
-18 9 -40 9 -22 0 -40 5 -40 10 0 6 -16 10 -36 10 -19 0 -33 4 -30 9 7 11 -49
24 -91 21 -18 -1 -33 2 -33 7 0 5 -18 8 -40 6 -29 -2 -42 1 -46 12 -6 14 -52
15 -383 11 -350 -3 -380 -5 -440 -25 -35 -11 -75 -21 -90 -21 -14 0 -35 -7
-45 -15 -11 -8 -32 -15 -48 -15 -15 0 -28 -4 -28 -10 0 -5 -13 -10 -30 -10
-16 0 -30 -4 -30 -10 0 -5 -10 -10 -22 -10 -13 0 -29 -4 -37 -9 -10 -7 -23 -3
-39 10 -14 10 -41 19 -61 19 -20 0 -44 7 -55 15 -10 7 -42 17 -72 21 -30 3
-54 10 -54 14 0 12 -141 22 -155 10 -7 -6 -21 -9 -31 -9 -41 4 -63 -2 -68 -18
-12 -37 -103 -57 -136 -30 -8 7 -21 23 -28 37 -7 14 -29 36 -48 50 l-36 24 38
13 c47 17 374 25 374 10 0 -6 13 -7 33 -2 17 3 204 7 415 7 296 1 386 4 400
14 14 10 18 10 20 -1 2 -7 16 -15 33 -17z m-1881 4 c0 -4 15 -8 34 -9 53 -2
62 -13 24 -31 -18 -10 -40 -31 -48 -47 l-14 -30 -48 49 c-48 49 -48 49 -25 62
25 14 77 18 77 6z m-277 -148 c63 -21 110 -77 103 -119 -7 -38 -61 -85 -98
-85 -38 0 -98 53 -80 71 18 19 15 68 -5 76 -10 4 -21 11 -24 16 -4 5 -29 -7
-57 -27 -43 -31 -53 -45 -68 -93 -15 -47 -16 -64 -6 -111 13 -61 52 -112 86
-112 35 0 43 -13 41 -60 -1 -25 2 -49 6 -55 3 -5 9 -22 13 -37 3 -16 13 -28
22 -28 11 0 13 -6 9 -21 -10 -30 73 -108 120 -113 21 -2 55 -27 55 -41 0 -8 4
-15 9 -15 5 0 11 -10 13 -22 2 -15 9 -22 21 -22 10 1 17 -5 17 -16 0 -18 115
-150 131 -150 5 0 14 12 20 27 6 16 21 42 34 59 13 17 27 44 31 60 4 16 11 35
17 41 5 7 6 29 2 49 -6 33 -3 40 29 70 20 19 46 34 58 34 11 0 36 11 54 25 18
14 37 25 43 25 6 0 17 14 26 30 9 17 20 30 25 30 6 0 10 26 10 59 0 37 5 63
14 70 32 27 46 161 18 180 -4 3 -21 23 -36 43 -47 63 -125 61 -112 -4 11 -57
-88 -74 -141 -25 -55 50 4 136 95 138 26 0 74 2 107 2 47 2 70 -3 106 -23 57
-31 159 -147 159 -182 0 -13 4 -28 8 -34 27 -30 38 -172 13 -167 -6 2 -10 0
-8 -5 4 -13 -36 -57 -70 -77 -18 -11 -33 -27 -33 -36 0 -9 -11 -20 -24 -23
-16 -4 -31 -20 -43 -45 -11 -24 -26 -41 -38 -43 -12 -2 -21 -12 -23 -25 -2
-13 -10 -23 -18 -23 -8 0 -14 -5 -14 -10 0 -6 -11 -23 -25 -38 -14 -15 -25
-35 -25 -44 0 -10 -7 -18 -15 -18 -8 0 -15 -6 -15 -14 0 -7 -16 -31 -35 -52
-19 -21 -35 -42 -35 -47 0 -4 -7 -15 -15 -23 -8 -8 -12 -21 -9 -29 3 -8 -6
-25 -20 -38 -14 -13 -26 -32 -26 -41 0 -9 -7 -16 -15 -16 -8 0 -15 -8 -15 -18
0 -10 -9 -28 -20 -40 -11 -12 -20 -25 -20 -31 0 -5 -7 -12 -16 -15 -33 -13
-63 -5 -83 20 -22 28 -44 92 -36 105 3 4 -8 13 -23 20 -21 9 -32 24 -41 56 -7
24 -17 43 -21 43 -4 0 -15 17 -26 38 -10 20 -32 52 -47 71 -16 18 -36 50 -45
70 -14 30 -84 111 -96 111 -8 0 -96 92 -96 100 0 6 -4 10 -10 10 -5 0 -18 8
-28 18 -11 9 -32 26 -47 37 -16 11 -34 26 -41 33 -7 6 -20 12 -29 12 -11 0
-15 5 -11 15 3 8 1 15 -4 15 -6 0 -10 9 -10 20 0 11 -6 20 -13 20 -9 0 -11 15
-7 58 3 31 2 79 -1 105 -5 47 -4 50 28 71 17 12 51 46 74 74 24 29 48 52 54
52 6 0 33 11 61 24 58 29 121 33 187 10z m-638 -141 c13 -19 13 -25 -3 -52
-16 -29 -42 -42 -42 -21 0 6 -8 10 -17 10 -28 1 -66 34 -61 56 7 36 99 41 123
7z m1935 14 c3 0 13 3 23 8 17 7 57 -17 57 -35 0 -11 -69 -40 -95 -40 -13 0
-28 -7 -32 -15 -5 -8 -22 -17 -38 -20 -26 -5 -32 -2 -48 26 -17 30 -17 32 0
45 10 7 23 14 29 14 6 0 17 7 24 15 9 11 22 14 44 9 17 -3 33 -6 36 -7z
m-4345 -13 c24 -24 15 -46 -30 -71 -50 -28 -99 -29 -127 -4 -24 23 -18 51 10
51 10 0 27 9 37 20 23 25 86 27 110 4z m1070 -81 c2 -40 -1 -73 -6 -73 -5 0
-9 -16 -9 -35 0 -19 -3 -35 -7 -35 -16 0 -31 -52 -26 -85 4 -26 2 -35 -8 -35
-17 0 -39 -45 -39 -77 0 -13 -4 -23 -10 -23 -5 0 -10 -7 -10 -17 0 -22 -32
-93 -42 -93 -4 0 -5 -7 -1 -16 4 -10 0 -20 -10 -26 -10 -5 -17 -15 -17 -22 0
-8 -6 -19 -14 -25 -8 -7 -17 -25 -21 -39 -3 -15 -15 -32 -28 -37 -12 -6 -26
-25 -31 -42 -5 -18 -13 -33 -17 -33 -5 0 -9 -7 -9 -15 0 -8 -4 -15 -10 -15 -5
0 -12 -11 -16 -25 -3 -14 -12 -25 -20 -25 -8 0 -14 -8 -14 -19 0 -10 -9 -21
-20 -24 -11 -3 -20 -13 -20 -24 0 -10 -20 -38 -45 -63 -24 -25 -44 -51 -45
-57 0 -7 -6 -13 -12 -13 -16 -1 -78 -56 -78 -70 0 -5 -7 -10 -15 -10 -8 0 -15
-7 -15 -15 0 -8 -11 -17 -25 -21 -14 -3 -25 -10 -25 -15 0 -5 -11 -9 -25 -9
-15 0 -25 -6 -25 -14 0 -21 -58 -78 -102 -101 -21 -11 -38 -24 -38 -30 0 -10
-22 -23 -110 -67 -25 -13 -55 -33 -67 -45 -12 -11 -41 -24 -65 -28 -48 -8 -78
-24 -78 -41 0 -7 -22 -15 -49 -19 -28 -4 -58 -15 -71 -27 -12 -12 -41 -23 -66
-26 -24 -2 -44 -9 -44 -13 0 -5 -13 -9 -29 -9 -17 0 -33 -5 -37 -11 -3 -6 -16
-8 -27 -5 -12 3 -26 1 -31 -3 -6 -5 -27 -11 -46 -14 -19 -2 -60 -11 -90 -20
-30 -8 -90 -17 -132 -19 -43 -2 -78 -6 -78 -10 0 -5 -7 -8 -15 -8 -8 0 -15 5
-15 10 0 6 -7 10 -15 10 -8 0 -19 10 -26 21 -11 22 -9 50 11 129 6 25 11 52
12 60 1 8 12 34 25 57 12 23 23 55 23 72 0 16 6 34 14 38 9 5 16 28 18 58 3
43 6 50 26 53 14 2 22 10 22 22 0 10 4 21 8 24 5 3 8 19 7 37 -1 18 4 33 12
36 7 3 13 9 13 15 0 5 11 24 25 42 14 18 25 39 25 46 0 7 23 43 50 80 28 37
50 71 50 76 1 17 59 87 91 108 31 22 89 25 89 5 0 -5 13 -9 30 -9 16 0 50 -5
74 -12 46 -12 76 -46 76 -86 0 -12 5 -24 10 -27 15 -9 11 -67 -5 -89 -8 -11
-15 -28 -15 -38 0 -10 -7 -18 -15 -18 -8 0 -15 -4 -15 -10 0 -5 -22 -10 -49
-10 -46 0 -50 2 -60 31 -6 18 -11 45 -11 61 l0 28 -36 -15 c-20 -8 -49 -15
-64 -15 -29 0 -123 -67 -134 -96 -11 -30 -6 -63 19 -112 28 -56 26 -71 -13
-94 -27 -16 -82 -105 -82 -132 0 -26 -61 -151 -87 -178 -30 -32 -25 -58 13
-58 14 0 69 14 122 31 149 47 156 49 194 49 20 0 41 7 48 15 7 8 28 18 49 21
51 10 218 96 267 138 22 19 55 62 73 96 30 57 35 61 60 56 14 -4 71 -9 126
-12 86 -6 102 -4 114 10 7 9 19 16 27 16 21 0 84 60 84 80 0 10 6 23 14 30 11
8 14 28 12 68 -4 65 6 92 34 92 10 0 25 6 33 14 7 8 25 16 38 18 13 2 23 9 22
16 -2 6 5 12 16 12 19 0 51 39 51 61 0 7 11 27 25 45 14 18 25 36 25 41 0 5 9
16 20 26 11 9 20 28 20 41 0 14 6 29 14 33 15 9 46 92 46 123 0 21 10 48 51
136 16 34 29 67 29 73 0 6 5 11 10 11 6 0 10 12 10 28 0 17 8 32 20 40 12 7
20 18 18 25 -1 7 4 27 11 45 23 55 4 61 -80 24 -39 -18 -83 -32 -96 -32 -13 0
-66 -14 -116 -31 -104 -34 -134 -59 -143 -120 -4 -23 -12 -39 -20 -39 -8 0
-14 -6 -14 -14 0 -8 -4 -17 -9 -20 -10 -6 -119 21 -135 33 -18 14 -66 22 -66
12 0 -6 -23 -13 -52 -17 -38 -5 -61 -15 -88 -41 -21 -18 -42 -33 -47 -33 -5 0
-16 -12 -24 -27 -8 -16 -20 -32 -26 -36 -8 -5 -13 -30 -13 -63 l0 -55 26 20
c39 31 89 28 125 -8 24 -24 29 -38 29 -76 0 -27 -6 -52 -15 -61 -8 -8 -50 -20
-95 -26 l-80 -12 -41 39 c-58 57 -69 83 -69 165 0 59 4 77 26 110 14 21 23 44
19 49 -3 6 2 14 12 18 27 10 147 95 156 110 5 8 16 11 27 8 12 -4 19 1 23 16
4 15 13 20 34 19 37 -3 70 9 77 26 3 8 16 14 30 14 14 0 28 5 32 11 3 6 15 8
27 5 12 -3 32 3 48 15 15 10 34 19 43 19 8 0 28 5 43 11 54 22 68 27 109 38
23 6 50 11 61 11 11 0 26 7 33 15 8 10 30 15 61 15 26 0 50 4 54 9 3 5 20 8
38 5 17 -3 59 -1 92 5 107 16 107 17 110 -66z m353 68 c9 -5 73 -14 142 -20
69 -6 126 -15 128 -21 2 -5 17 -10 33 -10 16 0 29 -4 29 -10 0 -5 20 -10 45
-10 26 0 45 -5 45 -11 0 -7 10 -9 25 -5 17 4 25 2 25 -6 0 -17 43 -35 103 -44
33 -4 53 -14 66 -30 11 -14 29 -24 45 -24 14 0 26 -4 26 -8 0 -9 59 -36 78
-35 6 1 12 -5 12 -13 0 -8 9 -14 20 -14 11 0 20 -4 20 -10 0 -5 11 -12 25 -16
14 -3 25 -10 25 -14 0 -5 9 -6 20 -3 14 4 20 0 20 -11 0 -9 5 -16 10 -16 6 0
10 -11 10 -25 0 -14 4 -25 10 -25 23 0 -10 -177 -35 -186 -8 -3 -17 -14 -20
-25 -4 -10 -13 -19 -21 -19 -8 0 -14 -4 -14 -10 0 -5 -7 -10 -15 -10 -8 0 -15
-4 -15 -10 0 -5 -9 -10 -20 -10 -11 0 -20 -5 -20 -11 0 -6 -9 -8 -22 -3 -31
10 -62 7 -66 -6 -7 -20 -32 -10 -32 13 0 12 -7 32 -15 44 -8 11 -16 47 -17 79
l-3 59 48 9 c83 16 55 51 -74 89 -34 10 -64 11 -123 5 -93 -11 -106 -7 -106
29 0 15 -4 33 -8 38 -16 24 -66 55 -87 55 -28 0 -139 67 -191 115 -84 77 -130
7 -51 -79 9 -11 17 -27 17 -35 1 -29 37 -96 69 -126 43 -41 127 -147 152 -193
38 -67 98 -139 159 -186 64 -51 77 -74 60 -107 -14 -25 -19 -129 -6 -129 4 0
5 -7 2 -16 -4 -10 3 -26 19 -42 14 -13 25 -30 25 -36 2 -45 134 -120 154 -87
3 5 24 7 45 4 25 -4 51 0 72 11 50 25 77 20 115 -21 19 -20 34 -43 34 -50 0
-7 7 -13 16 -13 8 0 30 -16 48 -35 19 -19 38 -35 45 -35 6 0 11 -3 11 -8 0 -4
15 -13 33 -20 17 -7 40 -18 49 -23 10 -5 25 -9 34 -9 15 0 74 -29 84 -41 3 -4
21 -5 40 -4 21 1 45 -5 62 -16 14 -11 35 -19 45 -19 24 0 91 -56 131 -109 25
-33 42 -20 32 23 -4 19 -8 71 -9 115 -2 90 -9 117 -47 166 -29 39 -125 95
-161 95 -22 0 -23 3 -23 70 0 40 -4 70 -10 70 -5 0 -10 8 -10 18 0 10 -9 28
-20 40 -11 12 -20 26 -20 33 0 14 -30 38 -47 39 -6 0 -13 -10 -15 -21 -6 -41
-52 -64 -124 -62 -76 2 -94 16 -94 70 0 21 -4 52 -9 68 -7 26 -4 36 23 67 27
31 40 38 87 44 29 4 66 13 80 20 15 7 29 11 31 8 3 -2 17 0 32 5 19 8 26 7 26
-1 0 -9 3 -9 11 -1 14 14 50 2 76 -24 35 -36 83 -107 83 -125 0 -10 10 -20 25
-24 14 -3 25 -12 25 -18 0 -7 14 -28 30 -46 17 -18 30 -40 30 -47 0 -7 5 -13
11 -13 6 0 8 -8 5 -17 -6 -19 25 -63 44 -63 6 0 10 -8 8 -17 -2 -10 3 -26 12
-36 8 -10 23 -28 33 -39 9 -12 17 -31 17 -44 0 -12 7 -29 14 -37 8 -8 15 -23
14 -33 -2 -34 23 -105 38 -111 8 -3 13 -11 11 -18 -3 -6 6 -56 19 -111 25
-105 30 -164 14 -164 -5 0 -10 -7 -10 -16 0 -12 -6 -15 -21 -11 -12 3 -22 0
-26 -9 -3 -8 -9 -14 -15 -14 -5 0 -7 4 -4 9 11 17 -77 38 -142 33 -48 -3 -67
-1 -80 11 -17 15 -126 33 -184 30 -20 -1 -28 3 -28 15 0 15 -2 15 -11 2 -8
-11 -12 -12 -16 -2 -2 6 -16 12 -29 12 -13 0 -24 4 -24 9 0 6 -20 13 -44 16
-35 6 -43 10 -39 23 5 13 0 14 -35 8 -37 -5 -42 -4 -42 13 0 14 -10 21 -36 25
-19 4 -37 13 -40 21 -3 7 -23 16 -44 20 -21 4 -41 13 -44 21 -3 8 -17 14 -31
14 -15 0 -24 4 -20 10 3 6 -3 10 -14 10 -12 0 -21 5 -21 10 0 6 -6 10 -13 10
-6 0 -25 14 -40 30 -16 17 -37 30 -48 30 -10 0 -19 5 -19 10 0 6 -9 10 -20 10
-11 0 -19 5 -17 12 1 6 -15 20 -35 31 -21 11 -38 24 -38 29 0 7 -29 37 -75 76
-8 6 -19 12 -25 12 -5 0 -10 11 -10 25 0 15 -6 25 -15 25 -13 0 -61 44 -106
96 -9 11 -27 28 -40 39 -14 11 -35 41 -48 68 -13 26 -29 47 -36 47 -10 0 -65
97 -65 115 0 6 -11 21 -40 53 -8 10 -24 34 -35 55 -11 20 -23 37 -26 37 -4 0
-5 9 -2 21 7 24 -15 69 -34 69 -7 0 -13 3 -13 8 0 28 -24 142 -34 167 -7 16
-19 44 -26 60 -8 17 -15 43 -17 58 -1 15 -7 36 -13 47 -5 10 -10 43 -10 74 0
30 -4 58 -10 61 -6 4 -4 16 6 31 17 25 58 32 92 15z m-4288 -13 c0 -5 16 -8
35 -8 19 0 35 -4 35 -9 0 -5 39 -11 86 -12 69 -3 87 -7 95 -21 7 -13 22 -18
51 -18 44 0 108 -19 108 -32 0 -12 57 -38 83 -38 13 0 37 -11 53 -25 16 -14
35 -23 42 -20 14 5 30 -5 65 -43 11 -12 38 -27 59 -33 21 -5 38 -14 38 -19 0
-6 6 -10 14 -10 8 0 17 -11 20 -24 3 -14 15 -27 26 -31 28 -9 33 -36 19 -120
-11 -61 -16 -75 -31 -75 -11 0 -18 -7 -18 -20 0 -11 -4 -20 -9 -20 -5 0 -12
-11 -15 -25 -4 -14 -12 -25 -20 -25 -7 0 -19 -7 -26 -15 -8 -10 -31 -15 -67
-15 -47 0 -59 4 -84 29 -40 41 -40 91 0 132 36 36 54 37 79 2 26 -36 52 -26
52 21 0 37 -49 106 -76 106 -7 0 -18 9 -24 20 -6 12 -21 20 -35 20 -14 0 -25
5 -25 10 0 6 -37 10 -90 10 -79 0 -91 2 -102 20 -7 11 -18 20 -24 20 -7 0 -15
20 -18 45 -6 38 -11 45 -29 45 -13 0 -29 8 -38 18 -8 10 -42 24 -75 31 -105
22 -139 33 -156 48 -9 8 -25 13 -35 11 -33 -6 -27 -38 15 -82 26 -27 46 -60
58 -98 15 -48 21 -57 46 -62 19 -4 28 -12 28 -25 0 -11 5 -23 11 -27 6 -3 9
-19 5 -35 -3 -16 -1 -29 4 -29 6 0 10 -12 10 -27 0 -51 33 -144 61 -175 16
-16 29 -32 29 -34 0 -11 36 -44 48 -44 15 0 62 -45 62 -60 0 -5 9 -10 20 -10
11 0 20 -5 20 -11 0 -6 7 -17 15 -25 11 -11 15 -37 15 -90 0 -41 6 -84 13 -96
23 -41 71 -78 99 -78 16 0 28 -4 28 -10 0 -13 46 -13 68 1 28 17 96 -10 102
-41 7 -32 20 -52 45 -66 11 -6 24 -19 29 -30 9 -20 49 -44 73 -44 7 0 13 -4
13 -10 0 -5 9 -10 20 -10 11 0 20 -4 20 -10 0 -5 13 -10 28 -10 32 0 52 -16
52 -42 0 -10 6 -18 13 -18 6 0 24 -6 39 -14 14 -8 46 -17 70 -21 80 -12 218
-48 218 -57 0 -4 9 -8 20 -8 11 0 20 -7 20 -15 0 -8 6 -15 14 -15 8 0 36 -18
62 -41 52 -45 77 -47 82 -7 2 19 -3 30 -17 38 -15 7 -21 21 -21 45 0 43 -9 65
-26 65 -8 0 -14 10 -14 23 0 30 -70 116 -95 117 -11 0 -29 13 -40 29 -11 17
-27 32 -37 34 -16 5 -18 17 -18 101 0 57 -4 96 -10 96 -5 0 -10 11 -10 25 0
19 -8 29 -31 39 -17 7 -36 24 -43 37 -6 13 -20 24 -31 24 -16 0 -21 -8 -23
-37 -3 -35 -6 -38 -45 -49 -23 -7 -63 -13 -89 -15 -40 -2 -53 2 -76 25 -31 28
-49 100 -36 136 12 29 107 126 120 121 6 -2 16 0 22 6 17 17 137 22 172 8 16
-7 30 -17 30 -22 0 -5 4 -7 8 -4 5 3 16 -8 26 -25 9 -16 21 -29 27 -29 5 0 9
-7 9 -15 0 -8 20 -36 45 -62 25 -25 45 -50 45 -55 0 -4 5 -8 10 -8 6 0 10 -7
10 -15 0 -8 5 -15 10 -15 6 0 10 -6 10 -13 0 -8 9 -22 20 -32 11 -10 25 -36
31 -57 5 -22 18 -47 27 -56 18 -19 42 -78 42 -105 0 -9 5 -17 10 -17 6 0 10
-6 10 -14 0 -8 7 -16 15 -20 9 -3 15 -18 15 -35 0 -16 5 -33 10 -36 6 -3 10
-17 10 -30 0 -13 6 -30 13 -37 19 -20 50 -137 51 -190 0 -27 4 -48 8 -48 16 0
7 -22 -19 -46 -24 -22 -31 -24 -92 -18 -36 4 -68 10 -71 13 -3 3 -27 6 -53 6
-26 0 -51 5 -55 11 -7 10 -152 45 -186 45 -10 0 -25 7 -33 15 -8 7 -30 14 -49
14 -19 0 -34 5 -34 10 0 6 -9 10 -20 10 -11 0 -20 5 -20 10 0 6 -6 10 -14 10
-7 0 -19 7 -26 15 -7 8 -27 17 -45 21 -18 3 -42 14 -54 25 -11 10 -28 19 -39
19 -23 0 -59 26 -50 36 10 9 -22 33 -44 34 -10 0 -18 5 -18 10 0 6 -7 10 -15
10 -9 0 -18 7 -21 15 -4 8 -15 15 -25 15 -10 0 -19 5 -19 10 0 6 -7 10 -15 10
-9 0 -18 7 -21 15 -4 8 -14 15 -24 15 -10 0 -21 8 -25 19 -3 10 -18 21 -33 24
-17 4 -33 16 -40 31 -8 18 -20 26 -36 26 -17 0 -26 7 -30 24 -3 14 -15 28 -26
31 -11 3 -20 12 -20 18 0 18 -34 44 -49 39 -8 -3 -11 0 -7 7 7 11 -53 81 -70
81 -5 0 -16 11 -24 24 -37 57 -76 105 -87 106 -6 0 -15 9 -18 20 -3 11 -11 20
-16 20 -5 0 -9 16 -9 35 0 22 -5 35 -13 35 -7 0 -24 18 -37 40 -14 22 -28 40
-32 40 -4 0 -10 15 -14 34 -3 19 -12 37 -19 39 -7 3 -16 18 -20 34 -3 15 -15
36 -26 46 -10 10 -19 29 -19 42 0 13 -5 27 -10 30 -6 3 -15 26 -21 50 -7 28
-18 47 -30 50 -10 4 -19 13 -19 21 0 8 -4 14 -10 14 -5 0 -10 7 -10 15 0 8 -5
15 -11 15 -7 0 -9 11 -6 29 4 19 1 33 -8 41 -8 7 -15 25 -15 41 0 16 -4 29
-10 29 -10 0 -5 125 6 141 6 11 194 7 194 -3z m8170 -12 c0 -7 9 -16 20 -19
20 -5 28 -41 11 -51 -4 -3 -11 -34 -13 -70 -3 -35 -12 -74 -21 -86 -8 -12 -13
-30 -10 -41 3 -10 0 -19 -6 -19 -6 0 -11 -6 -11 -14 0 -7 -7 -19 -15 -26 -8
-7 -15 -23 -15 -36 0 -14 -4 -32 -10 -42 -13 -23 -40 -109 -40 -127 0 -8 -4
-15 -10 -15 -5 0 -10 -9 -10 -20 0 -11 -4 -20 -8 -20 -5 0 -17 -18 -28 -40
-10 -22 -25 -40 -31 -40 -7 0 -13 -5 -13 -11 0 -17 -42 -100 -60 -120 -8 -9
-28 -33 -45 -54 -16 -21 -38 -45 -47 -54 -10 -8 -18 -21 -18 -28 0 -7 -7 -13
-15 -13 -8 0 -15 -8 -15 -18 0 -10 -11 -25 -25 -32 -14 -7 -25 -19 -25 -27 0
-7 -7 -13 -15 -13 -23 0 -51 -33 -65 -76 -17 -51 -39 -84 -56 -84 -8 0 -14 -4
-14 -10 0 -5 -11 -10 -24 -10 -35 0 -56 -10 -56 -26 0 -8 -7 -14 -15 -14 -8 0
-15 -4 -15 -10 0 -5 -9 -10 -20 -10 -11 0 -23 -7 -26 -15 -4 -8 -14 -15 -23
-15 -9 0 -25 -11 -35 -25 -10 -13 -38 -32 -62 -41 -24 -9 -44 -21 -44 -26 0
-5 -8 -11 -17 -15 -10 -3 -32 -16 -48 -28 -17 -12 -44 -25 -62 -29 -19 -5 -33
-15 -36 -27 -3 -13 -13 -20 -24 -18 -33 5 -104 -13 -110 -27 -3 -8 -12 -14
-21 -14 -20 0 -85 -23 -92 -32 -3 -4 -41 -10 -85 -14 -44 -4 -83 -11 -86 -17
-6 -8 -63 -22 -139 -32 -14 -2 -51 -9 -82 -16 -32 -7 -60 -10 -64 -7 -3 4 1
52 10 108 9 55 16 114 16 131 0 16 4 37 9 47 5 9 19 58 31 107 13 50 27 96 33
103 5 7 7 15 4 18 -3 3 7 24 23 45 16 22 31 57 35 78 4 24 18 49 36 67 16 15
29 33 29 40 0 6 23 40 51 75 28 35 55 74 60 87 5 12 15 22 24 22 8 0 15 8 15
18 0 10 9 25 20 35 11 9 20 28 20 42 0 29 -2 28 40 13 41 -14 61 -29 122 -91
35 -36 48 -57 48 -78 0 -16 4 -29 9 -29 5 0 11 -12 14 -27 3 -16 9 -40 13 -55
10 -43 -3 -91 -35 -126 -25 -27 -37 -32 -76 -32 -35 0 -52 6 -70 25 -14 13
-25 33 -25 44 0 33 -22 71 -41 71 -21 0 -76 -62 -85 -94 -3 -13 -1 -56 5 -96
5 -41 8 -77 5 -82 -3 -4 -16 -8 -30 -8 -13 0 -24 -4 -24 -8 0 -5 -21 -23 -47
-39 -78 -51 -97 -76 -95 -129 3 -65 -14 -121 -39 -129 -14 -5 -19 -14 -17 -28
2 -12 6 -21 11 -19 4 1 21 2 38 2 18 0 28 4 24 10 -3 6 2 13 12 17 10 3 25 12
33 18 8 7 34 15 57 18 24 3 63 15 89 27 41 20 55 22 144 16 55 -4 101 -3 104
2 5 8 58 21 107 27 10 1 30 12 47 24 17 11 34 21 39 21 5 0 23 13 41 30 18 16
37 30 43 30 5 0 9 5 9 11 0 20 61 89 80 89 9 0 23 6 29 14 6 8 33 19 58 26 88
22 153 116 154 225 1 39 5 65 12 65 6 0 20 9 31 19 12 10 41 30 66 44 45 25
98 94 99 129 1 10 10 34 22 55 13 24 19 46 15 64 -3 16 -2 31 3 33 5 3 11 43
14 88 10 135 24 252 32 273 5 11 17 28 27 38 19 18 19 19 1 33 -11 8 -43 13
-79 14 -57 0 -64 -3 -107 -40 -25 -22 -55 -40 -66 -40 -12 0 -21 -6 -21 -14 0
-8 -11 -24 -25 -37 -13 -13 -25 -30 -25 -36 0 -9 -27 -12 -97 -12 -68 1 -109
-4 -134 -15 -40 -17 -89 -68 -89 -92 0 -9 -7 -22 -15 -30 -18 -19 -19 -51 -2
-87 16 -35 34 -41 63 -22 30 20 84 19 113 -1 49 -35 7 -168 -60 -189 -11 -4
-19 -13 -19 -21 0 -8 -9 -14 -20 -14 -11 0 -20 5 -20 11 0 7 -11 8 -29 4 -16
-3 -32 -2 -35 3 -3 5 -21 13 -40 16 -30 6 -36 13 -50 53 -9 26 -16 54 -16 63
0 9 -8 25 -19 36 -14 16 -18 32 -15 69 3 27 9 54 15 62 7 7 8 13 5 13 -4 0 3
15 16 33 13 17 23 35 23 39 0 3 3 10 8 14 4 4 7 3 7 -3 0 -17 66 21 94 54 22
27 71 48 126 56 9 2 29 12 45 24 17 11 49 26 72 33 24 7 50 21 59 32 10 10 28
18 41 18 14 0 45 15 71 32 42 30 55 33 132 36 47 2 89 8 95 13 5 5 17 9 27 9
10 0 17 3 17 8 -3 18 3 20 33 12 21 -7 36 -6 45 2 7 6 37 12 65 15 28 2 54 6
57 8 9 10 21 5 21 -9z m-7295 -18 c36 0 65 -4 65 -9 0 -5 5 -9 11 -9 20 0 38
-34 39 -72 l0 -37 -37 6 c-49 7 -204 74 -210 91 -11 27 6 44 37 37 16 -4 59
-7 95 -7z m7885 -8 c3 -4 19 -10 35 -13 17 -3 59 -10 94 -16 35 -7 72 -16 82
-22 11 -5 36 -10 56 -11 23 0 56 -12 83 -29 25 -15 57 -31 73 -34 15 -4 27
-11 27 -15 0 -4 18 -10 40 -14 26 -4 40 -11 40 -21 0 -8 6 -15 14 -15 8 0 21
-6 28 -13 7 -8 27 -17 43 -21 16 -4 32 -11 35 -15 10 -13 60 -41 74 -41 14 0
30 -13 94 -71 12 -12 22 -30 22 -41 0 -11 4 -16 11 -12 8 5 8 1 0 -14 -6 -11
-11 -39 -11 -61 0 -34 -3 -41 -20 -41 -13 0 -20 -7 -20 -20 0 -11 -4 -20 -9
-20 -5 0 -12 -12 -15 -26 -6 -21 -12 -25 -31 -21 -19 3 -25 0 -25 -14 0 -16
-8 -19 -56 -19 -48 0 -59 4 -85 29 -21 22 -29 39 -29 66 0 27 8 44 29 66 36
36 54 37 79 2 26 -36 52 -26 52 21 0 37 -49 106 -76 106 -7 0 -18 9 -24 20 -6
12 -21 20 -35 20 -19 0 -25 5 -25 21 0 19 -4 21 -35 16 -19 -3 -35 -2 -35 4 0
5 -24 9 -54 9 -35 0 -58 5 -66 15 -7 8 -21 15 -31 15 -11 0 -19 5 -19 10 0 6
-7 10 -15 10 -9 0 -15 9 -15 25 0 20 -5 25 -26 25 -16 0 -34 10 -47 26 -19 24
-25 26 -73 20 -29 -3 -54 -2 -56 3 -5 15 -168 -10 -168 -25 0 -18 9 -21 70
-25 43 -3 60 -9 77 -29 13 -14 23 -30 23 -36 0 -18 31 -74 41 -74 5 0 9 -9 9
-19 0 -11 5 -23 11 -27 6 -3 9 -19 5 -35 -3 -16 -1 -29 4 -29 6 0 10 -12 10
-27 0 -51 33 -144 61 -175 16 -16 29 -32 29 -34 0 -11 36 -44 48 -44 15 0 62
-45 62 -60 0 -5 9 -10 20 -10 11 0 20 -5 20 -11 0 -6 7 -17 15 -25 11 -11 15
-37 15 -90 0 -41 6 -84 13 -96 23 -41 71 -78 99 -78 16 0 28 -4 28 -10 0 -13
46 -13 68 1 28 17 96 -10 102 -41 7 -32 20 -52 45 -66 11 -6 24 -19 29 -30 9
-20 49 -44 73 -44 7 0 13 -4 13 -10 0 -5 9 -10 20 -10 11 0 20 -4 20 -10 0 -5
13 -10 29 -10 17 0 33 -4 36 -10 3 -5 17 -10 30 -10 13 0 27 -4 30 -10 3 -5
19 -10 35 -10 15 0 30 -4 32 -9 3 -9 77 -21 143 -24 17 -1 35 -5 40 -8 6 -4
29 -12 53 -18 24 -7 57 -27 77 -46 l34 -35 16 22 c21 30 19 52 -8 96 -12 20
-29 50 -37 66 -8 16 -34 44 -57 63 l-43 35 6 64 c4 46 1 71 -10 91 -8 16 -17
39 -20 53 -6 27 -88 120 -106 120 -15 0 -51 21 -81 48 -21 18 -36 23 -70 20
-52 -4 -67 -32 -25 -48 47 -18 43 -108 -6 -108 -13 0 -41 -3 -63 -7 -36 -6
-45 -3 -74 21 -27 23 -32 33 -29 60 3 24 -1 35 -12 38 -11 3 -9 6 8 11 12 4
22 14 22 21 0 8 26 41 57 74 39 42 67 62 90 66 18 3 36 10 39 15 9 15 41 10
55 -7 8 -9 33 -25 56 -35 24 -10 43 -25 43 -34 0 -8 5 -15 10 -15 6 0 10 -6
10 -14 0 -8 9 -22 21 -30 12 -8 18 -19 14 -25 -3 -6 -2 -11 3 -11 5 0 15 -11
22 -25 7 -14 19 -25 27 -25 7 0 13 -7 13 -16 0 -9 9 -27 20 -41 11 -14 20 -34
20 -45 0 -11 11 -34 25 -52 14 -18 25 -39 25 -47 0 -8 11 -26 25 -41 14 -15
25 -34 25 -42 0 -23 11 -46 20 -41 4 3 7 -15 6 -40 -1 -35 2 -45 18 -49 13 -3
17 -11 13 -27 -3 -12 -2 -29 2 -38 28 -55 48 -128 54 -194 7 -76 2 -84 -56
-90 -54 -6 -177 12 -177 25 0 5 -15 8 -32 8 -18 0 -46 7 -63 16 -17 9 -42 13
-57 10 -15 -3 -30 -1 -33 4 -3 5 -20 7 -37 3 -26 -5 -30 -3 -25 10 6 16 -11
27 -44 27 -11 0 -29 9 -41 20 -12 11 -36 22 -54 26 -18 3 -41 14 -53 25 -11
10 -28 19 -39 19 -23 0 -59 26 -50 36 10 9 -22 33 -44 34 -10 0 -18 5 -18 10
0 6 -7 10 -15 10 -9 0 -18 7 -21 15 -4 8 -15 15 -25 15 -10 0 -19 5 -19 10 0
6 -7 10 -15 10 -9 0 -18 7 -21 15 -4 8 -14 15 -24 15 -10 0 -21 8 -25 19 -3
10 -18 21 -33 24 -17 4 -33 16 -40 31 -8 18 -20 26 -36 26 -17 0 -26 7 -30 24
-3 14 -15 28 -26 31 -11 3 -20 12 -20 18 0 18 -34 44 -49 39 -8 -3 -11 0 -7 7
7 11 -53 81 -70 81 -5 0 -16 11 -24 24 -37 57 -76 105 -87 106 -6 0 -15 9 -18
20 -3 11 -11 20 -16 20 -5 0 -9 16 -9 35 0 22 -5 35 -13 35 -7 0 -24 18 -37
40 -14 22 -28 40 -32 40 -4 0 -10 15 -14 34 -3 19 -12 37 -19 39 -7 3 -16 18
-20 34 -3 15 -15 36 -26 46 -10 10 -19 29 -19 42 0 13 -5 27 -10 30 -6 3 -15
26 -21 50 -7 28 -18 47 -30 50 -14 5 -19 16 -19 46 0 22 -5 39 -11 39 -7 0
-10 13 -7 35 3 28 0 35 -17 37 -17 3 -20 9 -17 47 1 24 -2 49 -8 56 -8 10 -8
20 1 37 7 13 11 25 10 28 -8 17 148 17 159 0z m2268 14 c53 -6 67 -12 102 -45
22 -21 56 -45 75 -55 19 -9 35 -23 35 -30 0 -8 5 -14 10 -14 6 0 10 -9 10 -21
0 -12 14 -34 31 -50 38 -36 33 -55 -20 -69 -23 -6 -45 -20 -51 -30 -6 -11 -16
-20 -22 -20 -13 0 -148 -138 -148 -151 0 -5 -5 -9 -11 -9 -14 0 -59 -51 -59
-66 0 -6 -11 -16 -24 -23 -13 -8 -26 -26 -30 -42 -3 -16 -11 -29 -17 -29 -18
0 -48 -40 -42 -56 3 -8 0 -14 -7 -14 -17 0 -36 -22 -44 -53 -3 -15 -11 -27
-16 -27 -6 0 -10 -9 -10 -20 0 -11 -6 -20 -14 -20 -8 0 -18 -9 -21 -20 -4 -11
-17 -32 -31 -47 -13 -14 -24 -36 -24 -48 0 -13 -6 -28 -14 -35 -8 -6 -12 -18
-9 -26 3 -7 -9 -28 -26 -45 -21 -21 -30 -37 -26 -49 3 -10 1 -21 -5 -25 -5 -3
-10 -16 -10 -28 -1 -25 -22 -57 -39 -57 -6 0 -11 9 -11 19 0 11 -7 26 -15 35
-8 8 -15 21 -15 29 0 26 -43 122 -67 148 -13 14 -23 31 -23 38 0 14 -21 54
-57 109 -13 19 -23 46 -23 59 0 13 -7 26 -15 29 -8 4 -15 9 -15 13 0 3 -29 37
-65 76 -36 38 -80 93 -98 122 -17 29 -37 53 -43 53 -7 0 -15 11 -18 25 -4 14
-11 25 -17 25 -12 0 -79 66 -79 78 0 4 -20 23 -45 42 -39 29 -44 37 -43 69 1
20 -2 44 -7 54 -6 15 5 31 56 79 43 40 69 58 82 54 10 -2 30 2 45 10 15 8 46
14 68 14 28 0 44 5 48 15 7 18 53 19 81 2 71 -42 85 -55 90 -79 11 -48 -1 -65
-57 -79 -39 -9 -53 -9 -56 0 -2 6 -17 11 -33 11 -19 0 -29 5 -29 15 0 8 -9 19
-21 25 -26 14 -69 5 -69 -15 0 -7 -8 -16 -18 -20 -19 -5 -42 -63 -42 -102 0
-11 7 -26 15 -33 8 -7 15 -23 15 -36 0 -13 5 -24 10 -24 6 0 14 -8 17 -17 9
-25 34 -42 61 -43 13 0 22 -6 22 -15 0 -8 4 -15 10 -15 5 0 12 -17 15 -37 11
-62 13 -66 70 -125 43 -46 61 -58 85 -58 16 0 30 -4 30 -10 0 -5 7 -10 15 -10
12 0 15 -14 15 -65 0 -50 6 -74 25 -109 14 -25 25 -51 25 -59 0 -7 11 -24 25
-37 14 -13 25 -29 25 -37 0 -7 6 -13 13 -12 15 0 97 125 97 148 0 9 7 36 16
61 9 25 14 61 11 82 -6 46 11 63 75 72 26 4 50 11 53 17 4 5 15 9 26 9 10 0
19 3 19 8 0 4 20 29 44 56 39 43 46 58 58 125 13 75 13 76 46 79 20 2 32 9 32
18 0 8 7 17 15 20 8 4 15 14 15 24 0 11 5 22 10 25 13 8 13 81 0 106 -6 11
-21 19 -35 19 -14 0 -34 6 -45 13 -17 10 -22 9 -29 -1 -4 -8 -27 -16 -50 -19
-22 -3 -41 -10 -41 -14 0 -5 -23 -9 -52 -9 -64 0 -88 19 -88 70 0 41 8 51 60
69 19 7 44 17 55 22 19 8 55 14 101 18 12 0 49 -2 82 -5z m622 -3 c0 -5 9 -11
20 -14 25 -6 26 -29 3 -49 -32 -27 -60 -28 -82 -2 -26 30 -26 32 2 55 23 19
57 25 57 10z m-9346 -26 c18 -14 38 -25 45 -25 28 0 111 -71 111 -95 0 -7 5
-15 11 -17 14 -5 -7 -118 -22 -118 -14 0 -39 -26 -39 -39 0 -6 -6 -11 -14 -11
-7 0 -35 -20 -61 -44 -26 -24 -54 -51 -63 -59 -32 -28 -72 -75 -72 -85 0 -6
-18 -30 -40 -53 -29 -32 -38 -48 -34 -65 4 -17 -1 -27 -22 -41 -40 -26 -93
-84 -100 -110 -3 -13 -12 -23 -19 -23 -7 0 -16 -11 -19 -25 -3 -13 -21 -39
-38 -57 -18 -18 -31 -41 -30 -50 2 -9 -7 -36 -20 -60 -32 -62 -48 -109 -48
-145 0 -20 -5 -33 -12 -33 -26 1 -48 28 -48 57 0 44 -23 92 -69 148 -23 27
-44 64 -47 82 -3 18 -10 33 -15 33 -5 0 -9 5 -9 11 0 6 -11 25 -25 43 -14 18
-25 38 -25 44 0 6 -7 9 -15 6 -11 -5 -15 1 -15 19 0 15 -10 33 -25 45 -14 11
-25 25 -25 31 0 6 -4 11 -10 11 -5 0 -12 11 -16 25 -3 14 -12 25 -20 25 -8 0
-14 5 -14 11 0 13 -25 39 -38 39 -6 0 -13 13 -17 29 -3 17 -14 31 -26 34 -10
3 -19 12 -19 21 0 9 -7 16 -15 16 -8 0 -15 5 -15 10 0 6 -5 10 -11 10 -5 0
-39 30 -75 66 -66 68 -71 81 -55 145 7 30 106 119 132 119 9 0 22 7 29 16 22
25 79 44 134 44 40 0 63 -7 98 -29 54 -34 68 -56 68 -104 0 -38 -16 -55 -72
-82 -52 -24 -88 -14 -88 24 0 21 6 30 21 34 30 8 21 41 -13 45 -36 4 -98 -38
-115 -79 -15 -37 -17 -89 -3 -89 6 0 10 -10 10 -23 0 -26 21 -77 32 -77 4 0
19 -11 34 -25 18 -17 34 -23 49 -19 31 8 55 -20 57 -64 1 -42 2 -47 12 -84 4
-15 15 -29 23 -32 8 -4 13 -12 10 -20 -7 -17 11 -36 35 -36 10 0 18 -3 18 -7
0 -5 13 -15 29 -24 25 -15 28 -23 35 -89 6 -64 11 -80 43 -122 21 -26 44 -48
53 -48 23 0 40 20 40 47 0 12 8 27 18 32 17 9 50 96 57 149 2 15 7 26 13 25 6
-1 16 4 22 12 7 8 18 15 25 15 6 0 20 9 30 20 10 11 24 20 32 20 7 0 13 7 13
15 0 8 9 19 20 25 11 6 18 15 15 20 -3 5 -2 28 1 51 5 29 13 43 25 46 11 3 19
12 19 19 0 8 15 24 33 36 19 12 53 51 77 87 38 56 44 72 42 113 -2 60 -34 126
-67 134 -29 7 -47 -2 -44 -24 5 -52 2 -55 -51 -50 -27 3 -50 1 -50 -3 0 -5 -9
-9 -20 -9 -13 0 -20 7 -20 20 0 11 -4 20 -10 20 -16 0 -12 60 5 66 8 4 15 12
15 19 0 21 55 55 87 55 16 0 33 4 39 9 9 10 42 17 82 20 13 0 38 -10 56 -24z
m7402 -27 c-4 -29 -12 -58 -18 -65 -12 -15 -44 -17 -53 -3 -3 5 -32 17 -63 25
-31 9 -65 20 -74 25 -10 6 -24 10 -32 10 -21 0 -30 19 -16 35 11 14 50 18 204
23 l59 2 -7 -52z m3004 -68 c0 -61 -5 -90 -22 -125 -12 -25 -28 -45 -35 -45
-7 0 -13 -6 -13 -14 0 -8 -9 -17 -19 -21 -12 -3 -23 -22 -30 -50 -6 -24 -15
-47 -21 -50 -5 -3 -10 -17 -10 -30 0 -13 -9 -32 -19 -42 -11 -10 -23 -31 -26
-46 -4 -16 -13 -31 -20 -34 -7 -2 -16 -20 -19 -39 -4 -19 -10 -34 -14 -34 -4
0 -18 -18 -32 -40 -13 -22 -30 -40 -37 -40 -8 0 -13 -13 -13 -35 0 -19 -4 -35
-9 -35 -5 0 -13 -9 -16 -20 -3 -11 -12 -20 -18 -20 -11 -1 -50 -49 -87 -106
-8 -13 -19 -24 -24 -24 -17 0 -77 -70 -70 -81 4 -7 1 -10 -7 -7 -15 5 -49 -21
-49 -39 0 -6 -9 -15 -20 -18 -11 -3 -23 -17 -26 -31 -4 -17 -13 -24 -30 -24
-16 0 -28 -8 -36 -26 -7 -15 -23 -27 -40 -31 -15 -3 -30 -14 -33 -24 -4 -11
-15 -19 -25 -19 -10 0 -20 -7 -24 -15 -3 -8 -12 -15 -21 -15 -8 0 -15 -4 -15
-10 0 -5 -9 -10 -19 -10 -10 0 -21 -7 -25 -15 -3 -8 -12 -15 -21 -15 -8 0 -15
-4 -15 -10 0 -5 -8 -10 -17 -10 -23 -1 -55 -25 -45 -34 9 -10 -27 -36 -50 -36
-11 0 -28 -9 -39 -19 -12 -11 -36 -22 -55 -26 -27 -5 -34 -11 -34 -29 0 -16
-10 -27 -41 -40 -22 -10 -43 -15 -46 -12 -3 3 -14 -4 -24 -15 -10 -12 -23 -18
-28 -14 -6 3 -11 2 -11 -4 0 -5 -12 -9 -27 -9 -16 0 -49 -7 -75 -16 -25 -9
-53 -13 -62 -10 -9 3 -16 2 -16 -4 0 -11 -55 -18 -227 -28 -145 -8 -148 -7
-140 95 3 44 11 80 20 88 10 10 13 28 10 57 -4 30 -1 45 11 55 9 7 16 22 16
32 0 10 5 21 10 24 6 3 10 19 10 34 0 15 5 32 11 38 6 6 12 17 13 24 5 22 16
52 32 82 7 16 14 33 14 39 0 5 10 24 22 41 13 18 22 37 20 44 -1 7 6 17 17 22
25 14 91 104 91 125 0 9 9 21 20 28 11 7 20 23 20 35 0 24 34 53 62 53 10 0
18 4 18 10 0 5 3 9 8 7 4 -1 17 8 30 21 39 39 118 25 168 -30 76 -83 72 -180
-12 -267 -30 -30 -42 -35 -93 -39 -52 -4 -60 -2 -75 19 -18 26 -21 74 -6 84
30 18 -11 40 -55 29 -15 -4 -40 -25 -56 -47 -33 -46 -38 -100 -13 -148 25 -48
15 -68 -49 -103 -78 -42 -101 -79 -98 -161 2 -61 1 -64 -31 -86 -18 -12 -34
-23 -35 -23 -10 -5 -10 -55 1 -69 14 -18 15 -18 43 0 15 10 44 34 63 53 37 36
111 80 136 80 8 0 14 4 14 9 0 14 100 61 129 61 29 0 156 67 211 110 20 16 49
48 65 72 16 24 40 60 54 82 25 38 25 38 76 31 27 -4 77 -8 111 -9 77 -1 121
26 170 107 l36 57 -18 45 c-19 50 -9 75 28 75 11 0 47 14 79 31 70 37 144 122
160 182 6 23 23 66 39 97 26 54 44 128 42 182 -1 21 9 32 53 60 72 44 71 58
-4 58 -49 0 -72 -6 -128 -36 -88 -46 -99 -57 -134 -126 -31 -62 -46 -69 -74
-38 -15 17 -31 20 -101 20 -81 0 -82 0 -113 -35 -22 -25 -31 -46 -31 -71 0
-47 26 -57 52 -21 25 35 43 34 79 -2 43 -43 41 -93 -7 -137 -33 -32 -39 -34
-107 -34 -93 0 -129 21 -162 93 -28 60 -32 127 -10 180 14 33 92 109 138 134
45 24 117 53 131 53 8 0 18 4 21 10 11 18 70 39 130 46 33 3 67 12 75 19 26
21 112 46 183 52 37 3 70 10 73 14 3 5 70 9 150 9 l144 0 0 -80z m-6475 -57
c31 -46 32 -72 3 -108 -19 -25 -26 -27 -70 -23 -53 6 -98 37 -98 70 0 10 16
36 36 58 29 32 43 40 70 40 27 0 38 -7 59 -37z m6678 -155 c4 -66 7 -186 7
-264 l0 -144 -25 12 c-28 13 -50 0 -60 -35 -58 -207 -76 -237 -137 -237 -21 0
-38 -4 -38 -10 0 -5 -7 -10 -15 -10 -8 0 -15 -5 -15 -10 0 -6 -16 -26 -35 -44
-25 -25 -35 -43 -35 -66 0 -24 -7 -35 -30 -48 -16 -9 -30 -20 -30 -24 0 -5 -6
-8 -13 -8 -19 0 -71 -59 -90 -102 -19 -39 -21 -80 -8 -146 12 -60 25 -71 51
-42 11 13 20 26 20 30 0 16 79 90 97 90 10 0 38 -9 61 -20 57 -28 75 -66 70
-147 -6 -90 -23 -105 -130 -114 -81 -8 -84 -7 -143 26 -77 43 -135 104 -135
143 0 16 -9 40 -19 54 -13 16 -17 29 -10 39 12 19 11 63 -2 91 -13 29 3 78 26
78 8 0 15 5 15 10 0 6 7 10 15 10 8 0 15 7 15 15 0 8 7 15 15 15 8 0 15 7 15
15 0 8 4 15 8 15 5 0 15 11 22 25 7 14 20 25 27 25 7 0 17 8 20 18 4 9 20 31
35 47 15 17 28 38 28 47 0 9 5 20 10 23 6 4 8 11 5 16 -4 5 0 9 8 9 17 0 47
42 47 64 0 8 8 21 19 28 10 7 21 23 25 35 4 11 18 28 31 37 14 9 25 23 25 31
0 23 22 65 34 65 10 0 36 44 36 62 0 4 7 16 17 27 9 11 17 32 19 47 2 15 10
32 19 36 8 5 15 22 15 38 0 17 5 30 10 30 6 0 10 12 10 26 0 14 6 32 14 39 7
8 16 33 20 57 12 75 26 118 40 118 10 0 15 -31 19 -122z m-2265 6 c28 -32 27
-81 -2 -98 -11 -6 -28 -19 -38 -28 -11 -11 -34 -18 -57 -18 -32 0 -44 6 -70
35 -38 44 -39 74 -4 115 26 32 28 32 87 26 49 -5 66 -11 84 -32z m-10971 -50
c7 -7 13 -24 13 -38 0 -14 5 -26 10 -26 6 0 10 -13 10 -30 0 -16 7 -33 15 -38
9 -4 17 -21 19 -36 2 -15 10 -36 19 -47 10 -11 17 -23 17 -27 0 -18 26 -62 36
-62 12 0 34 -42 34 -65 0 -8 11 -22 25 -31 13 -9 27 -26 31 -37 4 -12 15 -28
25 -35 11 -7 19 -20 19 -28 0 -22 30 -64 47 -64 8 0 12 -4 8 -9 -3 -5 -1 -12
5 -16 5 -3 10 -14 10 -23 0 -9 13 -30 28 -47 15 -16 31 -38 35 -47 3 -10 13
-18 20 -18 7 0 20 -11 27 -25 7 -14 17 -25 22 -25 4 0 8 -7 8 -15 0 -8 7 -15
15 -15 8 0 15 -7 15 -15 0 -8 7 -15 15 -15 8 0 15 -4 15 -10 0 -5 7 -10 15
-10 23 0 39 -49 26 -78 -13 -28 -14 -72 -2 -91 7 -10 3 -23 -10 -39 -10 -14
-19 -38 -19 -54 0 -39 -58 -100 -135 -143 -59 -33 -62 -34 -143 -26 -107 9
-124 24 -130 114 -5 81 13 119 70 147 23 11 51 20 61 20 18 0 97 -74 97 -90 0
-4 9 -17 20 -30 26 -29 39 -18 51 42 13 66 11 107 -8 146 -19 43 -71 102 -90
102 -7 0 -13 3 -13 8 0 4 -14 15 -30 24 -23 13 -30 24 -30 48 0 23 -10 41 -35
66 -19 18 -35 38 -35 44 0 5 -7 10 -15 10 -8 0 -15 5 -15 10 0 6 -17 10 -38
10 -61 0 -79 30 -137 237 -10 35 -32 48 -60 35 l-25 -12 0 184 c0 100 3 186 7
190 10 9 64 -4 80 -20z m2183 1 c63 -33 88 -98 52 -141 -35 -44 -178 -35 -196
11 -16 42 -6 87 25 116 35 33 74 37 119 14z m6597 -21 c7 -7 13 -24 13 -38 0
-14 5 -26 10 -26 6 0 10 -13 10 -30 0 -16 7 -33 15 -38 9 -4 17 -21 19 -36 2
-15 10 -36 19 -47 10 -11 17 -23 17 -27 0 -18 26 -62 36 -62 12 0 34 -42 34
-65 0 -8 11 -22 25 -31 13 -9 27 -26 31 -37 4 -12 15 -28 25 -35 11 -7 19 -20
19 -28 0 -22 30 -64 47 -64 8 0 12 -4 8 -9 -3 -5 -1 -12 5 -16 5 -3 10 -14 10
-23 0 -9 13 -30 28 -47 15 -16 31 -38 35 -47 3 -10 13 -18 20 -18 7 0 20 -11
27 -25 7 -14 17 -25 22 -25 4 0 8 -7 8 -15 0 -8 7 -15 15 -15 8 0 15 -7 15
-15 0 -8 7 -15 15 -15 8 0 15 -4 15 -10 0 -5 7 -10 15 -10 23 0 39 -49 26 -78
-13 -28 -14 -72 -2 -91 7 -10 3 -23 -10 -39 -10 -14 -19 -38 -19 -54 0 -39
-58 -100 -135 -143 -59 -33 -62 -34 -143 -26 -107 9 -124 24 -130 114 -5 81
13 119 70 147 23 11 51 20 61 20 18 0 97 -74 97 -90 0 -4 9 -17 20 -30 26 -29
39 -18 51 42 13 66 11 107 -8 146 -19 43 -71 102 -90 102 -7 0 -13 3 -13 8 0
4 -14 15 -30 24 -23 13 -30 24 -30 48 0 23 -10 41 -35 66 -19 18 -35 38 -35
44 0 5 -7 10 -15 10 -8 0 -15 5 -15 10 0 6 -17 10 -38 10 -53 0 -73 26 -106
135 -45 152 -59 166 -115 119 -43 -36 -81 -113 -81 -166 0 -29 -8 -54 -26 -80
-25 -35 -30 -38 -75 -38 -27 0 -49 -4 -49 -10 0 -5 -7 -10 -15 -10 -10 0 -15
-10 -15 -34 0 -18 -7 -39 -15 -46 -8 -6 -21 -36 -30 -65 -18 -65 -37 -85 -76
-85 -30 0 -59 -19 -59 -39 0 -6 -4 -11 -10 -11 -5 0 -10 -11 -10 -24 0 -14 -4
-28 -10 -31 -5 -3 -10 -27 -10 -52 0 -72 58 -147 76 -98 4 8 15 15 25 15 12 0
19 7 19 19 0 27 43 51 90 51 33 0 48 -6 71 -29 31 -32 36 -59 17 -112 -31 -91
-73 -114 -189 -106 -67 4 -86 9 -108 30 -14 13 -42 33 -61 45 -70 41 -140 136
-140 188 0 18 5 45 11 61 6 15 12 37 15 48 4 21 61 75 103 97 42 22 92 67 140
124 13 16 41 49 62 74 21 25 41 57 44 72 4 14 22 44 41 66 19 22 34 49 34 61
0 11 9 26 19 33 21 15 71 103 71 124 0 7 8 18 18 23 9 6 14 11 10 11 -4 0 5
21 21 48 16 26 32 61 36 79 3 17 13 37 20 43 8 7 17 28 21 49 9 51 22 63 58
55 16 -3 36 -12 43 -20z m-4387 -199 c0 -8 7 -15 15 -15 8 0 15 -6 15 -14 0
-7 7 -19 16 -27 8 -7 13 -21 11 -31 -3 -10 -1 -18 5 -18 13 0 29 -19 52 -60
11 -19 22 -37 25 -40 3 -3 16 -23 28 -45 12 -22 27 -39 32 -38 6 2 11 -4 11
-12 0 -8 3 -15 8 -15 4 0 15 -17 24 -37 9 -21 53 -75 97 -121 45 -45 81 -89
81 -97 0 -8 7 -15 15 -15 8 0 15 -3 15 -7 0 -5 14 -17 30 -28 16 -11 30 -24
30 -28 0 -10 26 -37 36 -37 10 0 54 -53 54 -66 0 -6 11 -17 25 -24 22 -12 23
-15 10 -34 -8 -11 -15 -33 -15 -49 0 -16 -10 -42 -22 -58 -13 -16 -34 -43 -47
-60 -13 -16 -45 -41 -72 -54 -40 -21 -63 -25 -134 -25 -47 0 -85 4 -85 9 0 5
-13 12 -30 16 -16 4 -30 11 -30 16 0 5 -6 9 -14 9 -15 0 -38 97 -25 106 5 3 9
14 9 24 0 22 51 50 89 50 33 -1 57 -19 70 -53 12 -31 41 -36 62 -10 13 15 21
133 9 133 -3 0 -11 14 -18 30 -8 18 -21 30 -32 30 -12 0 -20 8 -22 22 -2 14
-11 24 -23 26 -59 9 -63 12 -70 52 -8 50 -82 143 -125 158 -23 8 -30 17 -30
36 0 14 -4 28 -10 31 -5 3 -10 19 -10 34 0 35 -19 91 -31 91 -5 0 -9 6 -9 13
0 7 -9 19 -20 27 -11 8 -20 22 -20 31 0 9 -6 19 -14 22 -14 6 -24 -9 -50 -75
-8 -21 -20 -38 -25 -38 -6 0 -11 -12 -11 -26 0 -14 -7 -32 -16 -41 -8 -9 -13
-22 -9 -31 3 -8 1 -20 -4 -26 -5 -6 -11 -22 -13 -36 -2 -20 -10 -26 -40 -31
-21 -3 -47 -14 -59 -25 -31 -28 -59 -88 -59 -128 0 -47 -9 -66 -31 -66 -10 0
-19 -4 -19 -10 0 -5 -14 -10 -30 -10 -40 0 -80 -39 -80 -77 0 -39 34 -143 50
-153 8 -5 22 2 39 20 37 39 102 47 157 18 51 -27 63 -46 71 -108 5 -45 3 -51
-24 -79 -17 -16 -33 -37 -36 -46 -4 -8 -17 -15 -30 -15 -32 0 -87 20 -87 31 0
5 -6 9 -14 9 -21 0 -88 32 -114 55 -32 28 -82 136 -82 178 0 22 -6 37 -15 41
-19 7 -19 65 0 90 8 11 15 32 15 47 0 16 6 32 14 36 7 4 19 18 25 31 7 13 18
21 24 19 12 -4 47 33 47 50 0 4 20 24 45 43 24 19 45 40 45 45 0 6 17 26 36
45 55 55 135 180 128 202 -3 10 -1 18 5 18 22 0 91 88 91 117 0 20 63 93 79
93 6 0 11 -7 11 -15z m-3373 -190 c34 -39 30 -68 -16 -104 -47 -38 -94 -41
-128 -9 -33 31 -32 90 3 125 22 22 32 25 72 20 34 -4 53 -12 69 -32z m11131
-1 c49 -34 13 -137 -53 -150 -47 -8 -79 6 -99 47 -22 45 -20 56 16 90 37 33
98 40 136 13z m-6710 -16 c15 -15 16 -84 1 -93 -5 -4 -14 -18 -19 -31 -8 -19
-17 -24 -44 -24 -41 0 -76 37 -76 80 0 15 9 39 21 54 16 21 29 26 63 26 23 0
47 -5 54 -12z m4342 -44 c25 -29 30 -43 28 -72 l-3 -37 -52 -3 c-75 -4 -93 8
-93 64 0 63 13 84 54 84 26 0 41 -8 66 -36z m-6356 -38 c28 -48 34 -94 14
-114 -16 -16 -82 -15 -111 1 -65 36 -74 75 -31 126 20 25 34 31 64 31 35 0 41
-4 64 -44z m4266 -32 c34 -31 40 -42 40 -77 0 -60 -21 -77 -92 -77 -52 0 -63
4 -89 29 -21 22 -29 39 -29 66 0 27 8 44 29 66 43 42 89 40 141 -7z m-3253
-312 c34 -41 27 -101 -13 -116 -17 -7 -91 11 -111 27 -23 17 -15 76 13 104 32
32 78 26 111 -15z m-4453 -38 c18 -18 26 -37 26 -60 0 -36 -12 -47 -67 -59
l-33 -7 0 76 c0 73 1 76 24 76 13 0 35 -12 50 -26z m13256 -60 l0 -76 -32 7
c-56 12 -68 23 -68 59 0 40 41 86 76 86 23 0 24 -3 24 -76z m-4476 39 c21 -21
26 -35 24 -62 -3 -32 -7 -37 -43 -49 -56 -18 -121 -1 -128 34 -2 14 0 27 4 30
5 3 9 14 9 24 0 22 43 47 81 49 16 1 37 -9 53 -26z m-5124 -220 c0 -29 -6 -53
-17 -65 -22 -24 -79 -23 -121 2 -18 11 -39 20 -48 20 -28 0 27 59 61 66 18 3
45 14 60 24 43 28 65 12 65 -47z m6007 31 c16 -3 49 -23 73 -45 24 -21 58 -44
77 -51 80 -29 2 -52 -92 -27 -22 6 -56 14 -75 17 -24 5 -36 14 -39 27 -2 11
-9 24 -17 28 -15 8 -19 39 -7 50 8 9 41 9 80 1z m-8746 -65 c41 -32 51 -59 23
-59 -9 0 -22 -7 -29 -16 -16 -22 -66 -11 -99 23 -26 26 -34 53 -16 53 6 0 10
7 10 15 0 28 68 18 111 -16z m6879 -32 c-1 -57 -28 -89 -72 -85 -31 3 -33 6
-36 46 -2 33 0 42 13 42 19 0 57 21 68 38 14 22 27 2 27 -41z m-2375 -47 c10
-11 24 -20 32 -20 7 0 13 -11 13 -25 0 -38 -30 -48 -121 -40 -73 7 -79 9 -79
30 0 27 15 40 66 59 53 20 68 19 89 -4z m6885 -7 c0 -10 -12 -29 -25 -42 -14
-13 -25 -26 -25 -30 0 -12 -60 -32 -87 -29 -23 2 -29 8 -31 36 -3 29 1 34 32
47 20 9 36 20 36 25 0 6 23 10 50 10 41 0 50 -3 50 -17z m-8980 -35 c0 -5 9
-18 20 -30 11 -12 20 -28 20 -35 0 -7 5 -13 10 -13 6 0 10 -6 10 -13 0 -17 92
-87 114 -87 9 0 16 -4 16 -9 0 -33 167 -40 228 -10 44 23 118 34 135 21 74
-60 243 -94 371 -74 47 8 79 20 110 42 42 31 46 31 83 19 21 -8 40 -17 43 -20
3 -3 26 -11 51 -18 60 -17 446 -12 457 6 4 6 20 15 35 18 15 4 30 11 33 16 9
16 68 9 99 -11 17 -11 42 -20 58 -20 15 0 27 -5 27 -11 0 -7 44 -9 138 -7 118
3 141 6 157 21 12 12 26 16 41 13 14 -4 24 -2 24 4 0 5 5 10 11 10 6 0 25 11
43 25 18 14 38 25 44 25 6 0 20 10 32 22 12 13 20 17 20 9 0 -11 3 -11 15 -1
8 7 15 8 15 3 0 -12 125 -53 163 -53 15 0 27 -4 27 -8 0 -8 40 -18 180 -45 36
-6 95 -12 133 -12 37 1 67 -3 67 -6 0 -10 100 -5 124 6 13 6 21 4 24 -3 4 -14
58 -16 67 -3 3 5 31 7 63 4 61 -5 104 -7 112 -3 3 1 14 4 25 6 93 14 162 27
175 32 8 3 19 4 24 3 6 -1 19 2 30 8 12 5 44 12 71 14 59 4 147 28 157 41 11
16 228 7 261 -11 38 -19 318 -16 339 5 19 20 42 14 73 -18 28 -29 84 -55 118
-52 9 0 17 -4 17 -10 0 -5 7 -8 15 -4 8 3 19 -3 25 -13 15 -30 122 -44 296
-40 125 3 155 7 170 21 11 9 33 20 49 24 50 12 85 34 95 59 12 32 47 33 59 2
9 -22 83 -66 161 -94 19 -7 72 -13 117 -13 45 0 94 -5 109 -10 48 -19 236 10
329 50 97 42 126 57 168 87 l47 35 88 -12 c133 -18 235 -11 303 23 65 31 79
33 79 11 0 -10 5 -14 16 -10 8 3 24 -3 35 -13 22 -20 69 -32 137 -34 24 -1 42
-6 42 -13 0 -10 52 -29 72 -26 3 1 35 -8 69 -19 36 -12 75 -18 91 -15 17 3 33
0 42 -9 8 -8 22 -12 30 -9 18 7 21 -12 6 -36 -8 -13 -53 -15 -287 -18 -368 -3
-474 -2 -495 4 -10 3 -18 2 -18 -3 0 -5 -21 -15 -46 -22 -36 -11 -78 -12 -195
-5 -81 5 -159 6 -171 2 -39 -11 -568 -9 -568 2 0 14 -203 13 -217 -1 -6 -6
-22 -7 -43 -2 -17 5 -78 5 -133 0 -102 -8 -175 -6 -362 11 -264 25 -409 32
-439 23 -17 -5 -123 -9 -236 -8 -211 3 -282 -3 -288 -22 -5 -15 -22 -14 -22 2
0 16 -98 38 -103 24 -2 -6 -24 -6 -60 0 -31 6 -57 6 -57 2 0 -4 -46 -6 -102
-4 -57 2 -152 1 -213 -4 -60 -4 -112 -4 -115 0 -7 9 -93 11 -355 5 -224 -4
-307 -5 -1185 -5 -311 0 -590 -2 -620 -4 -30 -2 -59 -2 -65 1 -7 5 -573 12
-795 12 -8 0 -160 -2 -337 -3 -178 -1 -323 1 -323 6 0 11 -38 9 -42 -3 -2 -6
-27 -6 -68 0 -36 5 -100 10 -142 10 -105 0 -103 29 2 44 77 12 102 18 96 23
-3 3 0 15 5 26 7 11 14 15 18 9 9 -15 61 -17 94 -3 16 6 33 8 39 5 6 -4 19 4
29 17 14 18 21 21 27 11 7 -10 17 -9 53 3 44 15 78 29 111 46 10 5 29 9 42 9
14 0 28 5 31 10 3 6 13 10 22 10 8 0 29 10 46 23 17 12 41 27 52 33 24 12 75
14 75 2z m-2010 -80 c36 -13 68 -27 72 -33 4 -5 10 -6 14 -2 4 4 18 -2 30 -14
16 -15 32 -20 53 -17 17 3 31 1 31 -4 0 -4 14 -8 30 -8 17 0 30 -4 30 -8 0 -4
35 -16 78 -26 42 -10 88 -23 102 -28 26 -11 60 -18 98 -19 24 -1 30 -24 8 -32
-8 -3 -70 -6 -138 -7 -67 -1 -130 -2 -138 -3 -45 -2 -453 15 -465 19 -8 4 -15
1 -15 -5 0 -6 -13 -11 -30 -11 -16 0 -30 4 -30 9 0 13 -108 21 -137 10 -31
-11 -196 -14 -214 -4 -15 10 -229 7 -244 -3 -12 -8 -426 -14 -472 -6 -20 3
-33 11 -33 19 0 8 -4 15 -10 15 -6 0 -10 27 -10 60 0 47 3 60 15 60 9 0 19
-10 24 -22 5 -14 35 -37 76 -57 64 -33 73 -35 164 -34 63 1 109 7 133 17 21 9
53 16 73 16 20 0 50 6 68 14 18 7 55 16 82 20 28 4 68 16 91 26 42 18 134 26
134 11 0 -5 15 -14 33 -21 17 -6 44 -18 59 -26 45 -24 125 -4 209 52 38 26 72
51 75 56 10 15 89 8 154 -14z m11920 -28 c0 -11 5 -20 10 -20 6 0 10 -33 10
-80 l0 -80 -102 -2 c-57 -1 -114 -1 -128 -1 -14 1 -209 4 -435 7 -225 4 -420
9 -432 12 -13 2 -23 0 -23 -6 0 -6 -52 -10 -141 -10 -120 0 -144 -3 -154 -16
-11 -15 -33 -16 -236 -7 -123 6 -248 8 -276 6 -48 -4 -53 -3 -53 15 0 20 33
32 91 32 16 0 44 9 64 20 19 11 35 15 35 10 0 -6 12 -5 28 3 15 8 52 20 82 28
30 7 60 16 65 20 6 4 47 12 93 19 45 6 97 20 116 30 31 19 36 19 83 5 29 -9
79 -36 113 -62 67 -50 106 -61 216 -62 55 -1 64 2 93 29 17 17 31 35 31 41 0
5 4 8 9 4 5 -3 12 4 16 15 8 25 29 25 65 0 15 -10 47 -22 71 -26 58 -8 112
-25 120 -36 4 -6 78 -10 175 -9 145 1 180 4 243 24 61 18 78 28 97 57 13 19
24 40 24 47 0 7 7 13 15 13 8 0 15 -9 15 -20z"/>
</g>
</svg>
