<svg version="1.0" xmlns="http://www.w3.org/2000/svg"
 width="4122.000000pt" height="247.000000pt" viewBox="0 0 4122.000000 247.000000"
 preserveAspectRatio="xMidYMid meet">
<metadata>
Created by potrace 1.13, written by Peter Selinger 2001-2015
</metadata>
<g transform="translate(0.000000,247.000000) scale(0.100000,-0.100000)"
fill="currentColor" stroke="none">
<path d="M37455 2227 c-47 -9 -67 -18 -90 -43 -102 -108 -102 -108 -107 -162
-3 -29 -8 -55 -10 -58 -3 -3 -136 -5 -294 -4 -159 1 -296 2 -304 2 -8 0 -147
-2 -307 -5 -172 -3 -293 -1 -293 4 0 5 -7 9 -15 9 -8 0 -15 -3 -15 -7 0 -5
-25 -8 -55 -9 -30 0 -55 3 -55 8 0 4 -7 8 -15 8 -8 0 -15 -4 -15 -10 0 -6 -42
-10 -105 -10 -63 0 -105 4 -105 10 0 6 -7 10 -15 10 -8 0 -15 -4 -15 -9 0 -13
-142 -12 -157 1 -9 7 -17 7 -26 0 -8 -7 -26 -8 -50 -2 -23 5 -39 4 -43 -2 -3
-5 -23 -8 -43 -7 -20 2 -42 0 -49 -5 -7 -4 -12 -2 -12 3 0 6 -9 11 -20 11 -11
0 -20 -4 -20 -10 0 -14 -57 -13 -62 1 -3 9 -15 8 -43 -2 -30 -11 -39 -11 -42
-1 -3 6 -11 12 -18 12 -7 0 -16 -6 -19 -12 -5 -10 -7 -10 -12 0 -7 14 -34 16
-34 2 0 -5 -25 -10 -55 -10 -60 0 -63 4 -70 83 -2 18 -3 38 -4 45 -1 6 -7 12
-15 12 -8 0 -21 8 -28 19 -7 10 -28 21 -45 25 -18 3 -46 9 -63 12 -16 4 -30
10 -30 15 0 12 -37 11 -45 -1 -3 -5 -19 -10 -36 -10 -16 0 -29 -4 -29 -10 0
-5 -4 -10 -10 -10 -5 0 -19 -8 -31 -17 -49 -41 -69 -65 -69 -86 0 -12 -11 -35
-25 -51 -14 -16 -25 -24 -25 -18 0 16 -27 15 -33 0 -3 -10 -7 -10 -18 -1 -10
8 -27 9 -52 3 -21 -4 -39 -4 -43 1 -2 5 -13 3 -24 -3 -14 -9 -22 -9 -33 1 -9
6 -18 8 -21 3 -3 -5 -24 -7 -47 -5 -27 2 -46 -1 -51 -9 -4 -8 -8 -8 -8 -2 0 6
-26 11 -65 11 -36 1 -65 -3 -65 -7 0 -4 -17 -4 -37 1 -47 11 -103 12 -103 2 0
-5 -13 -8 -30 -8 -16 0 -30 3 -30 6 0 12 -304 7 -312 -5 -5 -8 -8 -7 -8 2 0 6
-9 12 -20 12 -11 0 -20 -5 -20 -11 0 -7 -7 -8 -17 -4 -30 12 -246 15 -260 3
-9 -7 -17 -7 -28 2 -8 7 -23 9 -37 4 -40 -13 -877 -9 -890 4 -16 16 -68 15
-68 -1 0 -9 -11 -12 -33 -9 -31 4 -32 5 -29 43 4 36 0 43 -61 106 l-65 67 -87
-11 c-48 -6 -91 -16 -95 -23 -4 -7 -13 -9 -19 -6 -12 8 -41 -16 -41 -32 0 -6
-3 -12 -7 -14 -14 -6 -43 -69 -43 -92 0 -12 -9 -29 -19 -38 -16 -13 -26 -15
-60 -6 -26 7 -50 7 -68 1 -34 -12 -62 -10 -131 6 -39 10 -56 10 -66 2 -10 -8
-31 -9 -72 -2 -42 6 -61 6 -66 -2 -10 -16 -185 -14 -200 1 -19 19 -73 14 -93
-8 -15 -17 -20 -17 -39 -6 -11 8 -46 16 -78 19 -44 4 -60 2 -75 -11 -10 -9
-29 -16 -43 -15 -14 0 -57 1 -97 2 -53 1 -76 5 -88 18 -14 13 -21 14 -36 5
-10 -7 -19 -8 -19 -3 0 5 -18 9 -40 9 -22 0 -40 -5 -40 -11 0 -6 -17 -7 -44
-4 -34 5 -45 3 -50 -8 -6 -18 -36 -20 -36 -4 0 8 -21 10 -74 5 -60 -5 -77 -4
-89 9 -19 18 -37 20 -37 3 0 -9 -3 -9 -12 0 -15 15 -88 16 -88 1 0 -8 -4 -8
-12 -2 -15 11 -58 10 -77 -1 -7 -5 -18 -3 -24 3 -8 8 -16 6 -29 -6 -11 -10
-18 -11 -18 -5 0 16 -27 15 -33 0 -4 -10 -6 -10 -6 0 -1 16 -28 16 -35 0 -5
-10 -7 -10 -12 0 -7 16 -31 16 -38 0 -5 -10 -7 -10 -12 0 -7 16 -81 16 -87 0
-4 -10 -6 -10 -6 0 -1 16 -31 16 -31 0 0 -9 -3 -9 -12 0 -7 7 -29 12 -50 12
-37 0 -38 1 -38 38 0 40 -21 73 -52 85 -11 4 -18 17 -18 32 0 19 -5 25 -21 25
-11 0 -17 4 -14 10 3 5 -3 10 -14 10 -12 0 -21 5 -21 10 0 6 -13 10 -29 10
-17 0 -33 5 -36 10 -9 14 -72 12 -78 -2 -4 -10 -8 -9 -17 2 -9 11 -13 12 -17
2 -2 -6 -11 -12 -19 -12 -8 0 -14 -4 -14 -10 0 -5 -5 -10 -11 -10 -16 0 -37
-25 -45 -54 -3 -14 -10 -26 -14 -26 -4 0 -10 -25 -13 -57 -3 -31 -12 -60 -19
-64 -7 -5 -34 -6 -60 -4 -31 3 -48 1 -48 -6 0 -7 -5 -8 -12 -2 -15 10 -108 11
-125 0 -6 -4 -14 -3 -18 3 -4 6 -11 8 -16 4 -11 -6 -1224 -16 -1504 -12 -11 0
-75 -1 -142 -2 -67 -1 -128 2 -135 6 -21 13 -339 16 -355 3 -12 -11 -94 -13
-233 -7 -25 1 -52 -1 -61 -5 -10 -5 -23 -2 -33 9 -13 13 -31 15 -85 12 l-69
-4 -7 78 c-3 43 -11 78 -16 78 -6 0 -8 4 -5 9 3 5 -1 12 -10 15 -9 4 -14 9
-11 12 8 8 -10 25 -44 43 -34 17 -198 7 -247 -15 -65 -30 -132 -119 -132 -176
0 -13 -9 -31 -19 -40 -16 -13 -26 -15 -60 -6 -26 7 -50 7 -68 1 -34 -12 -62
-10 -131 6 -39 10 -56 10 -66 2 -10 -8 -31 -9 -72 -2 -42 6 -61 6 -66 -2 -10
-16 -185 -14 -200 1 -19 19 -73 14 -93 -8 -15 -17 -20 -17 -39 -6 -11 8 -46
16 -78 19 -44 4 -60 2 -75 -11 -10 -9 -29 -16 -43 -15 -14 0 -57 1 -97 2 -53
1 -76 5 -88 18 -14 13 -21 14 -36 5 -10 -7 -19 -8 -19 -3 0 5 -18 9 -40 9 -22
0 -40 -5 -40 -11 0 -6 -17 -7 -44 -4 -34 5 -45 3 -50 -8 -6 -18 -36 -20 -36
-4 0 8 -21 10 -74 5 -60 -5 -77 -4 -89 9 -19 18 -37 20 -37 3 0 -9 -3 -9 -12
0 -15 15 -88 16 -88 1 0 -8 -4 -8 -12 -2 -15 11 -58 10 -77 -1 -7 -5 -18 -3
-24 3 -8 8 -16 6 -29 -6 -11 -10 -18 -11 -18 -5 0 16 -27 15 -33 -1 -4 -9 -6
-9 -6 1 -1 16 -28 16 -35 -1 -5 -9 -7 -9 -12 1 -7 16 -31 16 -38 -1 -5 -9 -7
-9 -12 1 -7 16 -81 16 -87 -1 -4 -9 -6 -9 -6 1 -1 16 -31 16 -31 0 0 -9 -3 -9
-12 0 -7 7 -29 12 -50 12 -37 0 -38 1 -38 38 0 40 -21 73 -52 85 -11 4 -18 17
-18 32 0 19 -5 25 -21 25 -11 0 -17 5 -14 10 3 6 -3 10 -14 10 -12 0 -21 5
-21 10 0 6 -13 10 -29 10 -17 0 -33 5 -36 10 -9 14 -72 12 -78 -2 -4 -10 -8
-9 -17 2 -9 11 -13 12 -17 3 -2 -7 -11 -13 -19 -13 -8 0 -14 -4 -14 -10 0 -5
-5 -10 -11 -10 -16 0 -37 -25 -45 -54 -3 -14 -10 -26 -14 -26 -4 0 -10 -25
-13 -57 -3 -31 -12 -60 -19 -64 -7 -5 -34 -6 -60 -4 -31 3 -48 1 -48 -6 0 -7
-5 -8 -12 -2 -15 10 -108 11 -125 0 -6 -4 -14 -3 -18 3 -4 6 -11 8 -16 4 -15
-9 -1109 -10 -1109 -1 0 5 -5 5 -10 2 -6 -4 -17 -1 -25 5 -8 7 -23 9 -37 4
-40 -13 -877 -9 -890 4 -16 16 -68 15 -68 -1 0 -9 -11 -12 -33 -9 -31 4 -32 5
-29 43 4 36 0 43 -61 106 l-65 67 -87 -11 c-48 -6 -91 -16 -95 -23 -4 -7 -13
-9 -19 -6 -12 8 -41 -16 -41 -32 0 -6 -3 -12 -7 -14 -14 -6 -43 -69 -43 -92 0
-12 -9 -29 -19 -38 -16 -13 -26 -15 -60 -6 -26 7 -50 7 -68 1 -34 -12 -62 -10
-131 6 -39 10 -56 10 -66 2 -10 -8 -31 -9 -72 -2 -42 6 -61 6 -66 -2 -10 -16
-185 -14 -200 1 -19 19 -73 14 -93 -8 -15 -17 -20 -17 -39 -6 -11 8 -46 16
-78 19 -44 4 -60 2 -75 -11 -10 -9 -29 -16 -43 -15 -14 0 -57 1 -97 2 -53 1
-76 5 -88 18 -14 13 -21 14 -36 5 -10 -7 -19 -8 -19 -3 0 5 -18 9 -40 9 -22 0
-40 -5 -40 -11 0 -6 -17 -7 -44 -4 -34 5 -45 3 -50 -8 -6 -18 -36 -20 -36 -4
0 8 -21 10 -74 5 -60 -5 -77 -4 -89 9 -19 18 -37 20 -37 3 0 -9 -3 -9 -12 0
-15 15 -88 16 -88 1 0 -8 -4 -8 -12 -2 -15 11 -58 10 -77 -1 -7 -5 -18 -3 -24
3 -8 8 -16 6 -29 -6 -11 -10 -18 -11 -18 -5 0 16 -27 15 -33 0 -4 -10 -6 -10
-6 0 -1 16 -28 16 -35 0 -5 -10 -7 -10 -12 0 -7 16 -31 16 -38 -1 -5 -9 -7 -9
-12 1 -3 6 -23 12 -44 12 -21 0 -41 -6 -43 -12 -4 -10 -6 -10 -6 0 -1 16 -31
16 -31 0 0 -9 -3 -9 -12 0 -7 7 -29 12 -50 12 -37 0 -38 1 -38 38 0 40 -21 73
-52 85 -11 4 -18 17 -18 32 0 19 -5 25 -21 25 -11 0 -17 4 -14 10 3 5 -3 10
-14 10 -12 0 -21 5 -21 10 0 6 -13 10 -29 10 -17 0 -33 5 -36 10 -9 14 -72 12
-78 -2 -4 -10 -8 -9 -17 2 -9 11 -13 12 -17 3 -2 -7 -11 -13 -19 -13 -8 0 -14
-4 -14 -10 0 -5 -5 -10 -11 -10 -16 0 -37 -25 -45 -54 -3 -14 -10 -26 -14 -26
-4 0 -10 -25 -13 -57 -3 -31 -12 -60 -19 -64 -7 -5 -34 -6 -60 -4 -31 3 -48 1
-48 -6 0 -7 -5 -8 -12 -2 -15 10 -108 11 -125 0 -6 -4 -14 -3 -18 3 -4 6 -11
8 -16 4 -11 -6 -1224 -16 -1504 -12 -11 0 -75 -1 -142 -2 -67 -1 -128 2 -135
6 -21 13 -339 16 -355 3 -12 -11 -94 -13 -233 -7 -25 1 -52 -1 -61 -5 -10 -5
-23 -2 -33 9 -13 13 -31 15 -85 12 l-69 -4 -7 78 c-3 43 -11 78 -16 78 -6 0
-8 4 -5 9 3 5 -1 12 -10 15 -9 4 -14 9 -11 12 8 8 -10 25 -44 43 -34 17 -198
7 -247 -15 -65 -30 -132 -119 -132 -176 0 -13 -9 -31 -19 -40 -16 -13 -26 -15
-60 -6 -26 7 -50 7 -68 1 -34 -12 -62 -10 -131 6 -39 10 -56 10 -66 2 -10 -8
-31 -9 -72 -2 -42 6 -61 6 -66 -2 -10 -16 -185 -14 -200 1 -19 19 -73 14 -93
-8 -15 -17 -20 -17 -39 -6 -11 8 -46 16 -78 19 -44 4 -60 2 -75 -11 -10 -9
-29 -16 -43 -15 -14 0 -57 1 -97 2 -53 1 -76 5 -88 18 -14 13 -21 14 -36 5
-10 -7 -19 -8 -19 -3 0 5 -18 9 -40 9 -22 0 -40 -5 -40 -11 0 -6 -17 -7 -44
-4 -34 5 -45 3 -50 -8 -6 -18 -36 -20 -36 -4 0 8 -21 10 -74 5 -60 -5 -77 -4
-89 9 -19 18 -37 20 -37 3 0 -9 -3 -9 -12 0 -15 15 -88 16 -88 1 0 -8 -4 -8
-12 -2 -15 11 -58 10 -77 -1 -7 -5 -18 -3 -24 3 -8 8 -16 6 -29 -6 -11 -10
-18 -11 -18 -5 0 16 -27 15 -33 0 -4 -10 -6 -10 -6 0 -1 16 -28 16 -35 -1 -5
-9 -7 -9 -12 1 -7 16 -31 16 -38 -1 -5 -9 -7 -9 -12 1 -7 16 -81 16 -87 0 -4
-10 -6 -10 -6 0 -1 16 -31 16 -31 0 0 -9 -3 -9 -12 0 -7 7 -29 12 -50 12 -37
0 -38 1 -38 38 0 40 -21 73 -52 85 -11 4 -18 17 -18 32 0 19 -5 25 -21 25 -11
0 -17 5 -14 10 3 5 -3 10 -14 10 -12 0 -21 5 -21 10 0 6 -13 10 -29 10 -17 0
-33 5 -36 10 -9 14 -72 12 -78 -3 -4 -9 -8 -8 -17 3 -9 11 -13 12 -17 2 -2 -6
-11 -12 -19 -12 -8 0 -14 -4 -14 -10 0 -5 -5 -10 -11 -10 -16 0 -37 -25 -45
-54 -3 -14 -10 -26 -14 -26 -4 0 -10 -25 -13 -57 -3 -31 -12 -60 -19 -64 -7
-5 -34 -6 -60 -4 -31 3 -48 1 -48 -6 0 -7 -5 -8 -12 -2 -15 10 -108 11 -125 0
-6 -4 -14 -3 -18 3 -4 6 -11 8 -16 4 -11 -6 -1224 -16 -1504 -12 -11 0 -75 -1
-142 -2 -67 -1 -128 2 -135 6 -21 13 -339 16 -355 3 -12 -11 -94 -13 -233 -7
-25 1 -52 -1 -61 -5 -10 -5 -23 -2 -33 8 -13 13 -32 16 -89 13 l-72 -3 -3 78
c-2 43 -7 77 -13 77 -6 0 -8 4 -5 9 3 5 -1 12 -10 15 -9 4 -14 9 -11 12 7 7
-17 34 -31 34 -5 0 -15 7 -22 15 -7 8 -25 15 -41 15 -16 0 -29 4 -29 9 0 5 -6
11 -13 14 -17 6 -97 -14 -97 -25 0 -4 -5 -8 -11 -8 -14 0 -39 -25 -39 -39 0
-6 -4 -11 -10 -11 -5 0 -10 -6 -10 -14 0 -8 -4 -16 -10 -18 -5 -1 -13 -38 -16
-80 -4 -43 -10 -78 -13 -79 -70 -9 -1013 -13 -1041 -4 -11 4 -20 3 -20 -2 0
-9 -387 -9 -397 0 -3 4 -12 2 -20 -5 -21 -17 -359 -9 -372 9 -8 12 -151 15
-151 3 0 -6 -11 -10 -25 -10 -14 0 -25 -6 -25 -12 0 -9 -3 -10 -8 -2 -6 9
-221 11 -566 3 -11 0 -22 5 -25 10 -8 12 -119 5 -135 -9 -14 -11 -56 -2 -56
12 0 6 -19 8 -44 7 -23 -2 -47 0 -52 5 -5 5 -8 40 -6 78 4 58 2 68 -12 68 -10
0 -14 4 -11 10 3 5 2 10 -2 10 -5 0 -26 16 -46 35 -25 24 -46 35 -67 35 -17 0
-30 4 -30 8 0 5 -13 9 -30 9 -16 0 -30 -4 -30 -9 0 -4 -7 -8 -15 -8 -8 0 -15
-4 -15 -10 0 -5 -10 -10 -23 -10 -20 0 -25 -9 -39 -67 -19 -80 -22 -123 -8
-123 6 0 10 -7 10 -15 0 -18 72 -16 -780 -20 -426 -1 -669 1 -677 8 -9 6 -17
6 -25 0 -19 -15 -118 -26 -118 -13 0 13 -127 14 -135 0 -4 -6 -15 -6 -32 1
-30 11 -784 14 -917 3 -62 -5 -86 -4 -86 5 0 6 -9 11 -20 11 -11 0 -20 -5 -20
-11 0 -6 -28 -10 -77 -9 -68 2 -116 -2 -133 -10 -3 -1 -23 -2 -45 -2 -22 0
-46 -5 -53 -11 -8 -6 -27 -10 -43 -9 -18 1 -36 -5 -49 -18 -23 -23 -40 -19
-40 11 0 28 -25 23 -57 -9 -16 -16 -40 -32 -55 -36 -16 -3 -28 -11 -28 -17 0
-11 -25 -39 -35 -39 -3 0 -30 -25 -60 -55 -29 -30 -58 -55 -64 -55 -6 0 -11
-6 -11 -12 0 -12 -17 -32 -75 -86 -11 -10 -44 -44 -73 -75 -29 -31 -61 -59
-72 -62 -11 -4 -20 -13 -20 -21 0 -8 -9 -14 -19 -14 -11 0 -26 -7 -35 -15 -8
-8 -18 -15 -23 -15 -4 0 -16 -11 -26 -24 -11 -15 -33 -26 -58 -30 -21 -3 -39
-10 -39 -14 0 -11 -90 -36 -127 -35 -18 1 -33 -3 -33 -8 0 -5 -16 -9 -35 -9
-19 0 -35 -4 -35 -10 0 -6 -26 -10 -58 -10 -45 0 -63 -5 -81 -21 -12 -11 -20
-26 -19 -31 6 -17 142 -56 220 -63 115 -10 128 -11 135 -18 3 -4 17 -7 31 -7
14 0 32 -8 41 -18 10 -12 29 -19 50 -19 19 0 37 -5 39 -11 2 -7 14 -12 27 -12
13 0 30 -7 38 -15 8 -7 28 -17 43 -21 16 -4 41 -20 56 -36 14 -15 31 -28 38
-28 14 0 40 -25 40 -38 0 -6 13 -13 29 -17 27 -6 49 -26 185 -170 61 -63 106
-125 106 -143 0 -8 6 -12 14 -9 10 4 13 1 9 -9 -3 -9 1 -14 12 -14 9 0 33 -16
53 -35 20 -20 48 -38 62 -42 14 -3 38 -17 53 -30 16 -12 39 -23 51 -23 12 0
27 -5 33 -11 5 -5 25 -12 44 -14 19 -3 35 -9 37 -15 2 -5 35 -10 72 -10 38 0
71 -3 73 -8 3 -4 139 -7 303 -7 274 1 299 -1 313 -17 9 -10 21 -18 29 -18 7 0
11 -4 7 -9 -3 -5 -1 -12 5 -16 6 -4 8 -10 5 -15 -7 -11 16 -50 30 -50 6 0 16
-9 23 -20 7 -11 19 -20 27 -20 8 0 15 -4 15 -10 0 -5 7 -10 15 -10 8 0 15 -4
15 -10 0 -5 7 -10 15 -10 8 0 15 -4 15 -10 0 -16 96 -12 110 5 7 8 25 15 39
15 15 0 37 9 49 20 12 11 24 20 27 20 10 0 35 28 35 39 0 6 3 11 8 11 13 0 31
49 19 53 -6 2 0 15 14 31 l25 27 867 0 c538 1 872 -3 880 -9 14 -10 108 -9
150 3 37 10 127 12 127 3 0 -4 64 -7 143 -7 80 1 170 -4 206 -12 54 -11 65
-11 75 2 9 12 66 14 361 12 193 -1 355 -2 360 -2 13 -1 36 -51 24 -51 -17 0
-9 -23 21 -57 17 -18 30 -38 30 -43 0 -6 7 -10 15 -10 8 0 15 -7 15 -15 0 -23
58 -33 128 -22 34 6 62 14 62 19 0 4 5 8 11 8 22 0 56 52 69 106 12 48 16 54
39 55 105 4 311 3 313 -1 2 -3 95 -2 208 1 113 3 308 5 433 3 171 -1 239 2
274 12 37 11 49 11 61 1 12 -9 180 -12 761 -12 410 0 772 3 804 6 31 3 57 2
57 -3 0 -4 16 -8 35 -8 19 0 35 5 35 10 0 20 21 9 60 -30 22 -22 40 -49 40
-60 0 -10 9 -24 19 -30 11 -5 22 -18 25 -27 4 -10 22 -28 41 -40 28 -18 49
-23 105 -23 65 0 72 2 104 32 18 18 36 45 40 61 3 15 13 27 21 27 8 0 15 7 15
15 0 8 10 23 21 34 20 18 33 20 160 17 85 -2 139 1 139 6 0 6 11 7 28 3 39
-11 156 -14 162 -4 7 11 59 13 133 5 34 -3 57 -2 57 4 0 12 57 14 63 3 4 -7
908 -9 915 -3 7 7 69 5 79 -3 13 -9 250 -4 260 7 10 10 25 7 18 -4 -4 -7 73
-10 225 -10 146 0 229 -4 225 -10 -17 -27 105 -164 156 -174 87 -17 107 -10
175 60 35 36 64 72 64 80 0 8 5 14 10 14 6 0 10 9 10 20 0 19 7 20 194 20 147
0 195 3 199 12 3 10 7 10 20 -1 13 -10 80 -12 347 -10 184 2 330 0 330 -5 0
-5 15 -5 33 -1 17 4 366 9 773 10 408 1 747 5 753 9 6 4 11 2 11 -3 0 -6 16
-11 35 -11 19 0 35 5 35 10 0 20 21 9 60 -30 22 -22 40 -49 40 -60 0 -10 9
-24 19 -30 11 -5 22 -18 25 -27 4 -10 22 -28 41 -40 28 -18 49 -23 105 -23 65
0 72 2 104 32 18 18 36 45 40 61 3 15 13 27 21 27 8 0 15 7 15 15 0 8 10 23
21 34 20 18 33 20 160 17 85 -2 139 1 139 6 0 6 11 7 27 3 40 -11 157 -14 163
-4 7 11 59 13 132 5 35 -3 58 -2 58 4 0 12 57 14 63 3 4 -7 908 -9 915 -3 7 7
69 5 79 -3 13 -9 250 -4 260 7 10 10 25 7 18 -4 -4 -7 73 -10 225 -10 146 0
229 -4 225 -10 -17 -27 105 -164 156 -174 87 -17 107 -10 175 60 35 36 64 72
64 80 0 8 5 14 10 14 6 0 10 9 10 20 0 19 7 20 194 20 147 0 195 3 199 13 3 9
7 9 20 -2 13 -10 80 -12 347 -10 184 2 331 0 333 -5 2 -5 26 -3 55 3 73 15
274 15 290 -1 10 -10 14 -10 20 -1 6 9 94 13 345 15 185 2 337 0 337 -4 0 -5
9 -8 20 -8 11 0 20 5 20 10 0 11 75 12 134 2 32 -6 40 -11 41 -32 1 -13 7 -26
13 -28 7 -2 12 -12 12 -23 0 -11 7 -22 15 -25 8 -4 15 -12 15 -18 0 -7 16 -21
35 -32 19 -10 35 -22 35 -26 0 -5 7 -8 15 -8 8 0 15 -4 15 -10 0 -5 25 -10 55
-10 48 0 59 4 89 32 18 18 36 45 40 60 3 16 13 28 21 28 8 0 15 7 15 15 0 8
10 23 21 34 20 18 33 20 160 17 85 -2 139 1 139 6 0 6 11 7 28 3 39 -11 156
-14 162 -4 7 11 59 13 133 5 34 -3 57 -2 57 4 0 12 57 14 63 3 4 -7 908 -9
915 -3 7 7 69 5 79 -3 13 -9 250 -4 260 7 10 10 25 7 18 -4 -4 -7 73 -10 225
-10 146 0 229 -4 225 -10 -17 -27 105 -164 156 -174 87 -17 107 -10 175 60 35
36 64 72 64 80 0 8 5 14 10 14 6 0 10 9 10 20 0 19 7 20 194 20 147 0 195 3
199 13 3 9 7 9 20 -2 13 -10 80 -12 347 -10 184 2 330 0 330 -5 0 -5 15 -5 33
-1 17 4 366 9 773 10 408 1 747 5 753 9 6 4 11 2 11 -3 0 -6 16 -11 35 -11 19
0 35 5 35 10 0 20 21 9 60 -30 22 -22 40 -49 40 -60 0 -10 9 -24 19 -30 11 -5
22 -18 25 -27 4 -10 22 -28 41 -40 28 -18 49 -23 105 -23 65 0 72 2 104 33 18
17 36 44 40 60 3 15 13 27 21 27 8 0 15 7 15 15 0 8 10 23 21 34 20 18 33 20
160 17 85 -2 139 1 139 6 0 6 11 7 28 3 39 -11 156 -14 162 -4 7 11 59 13 133
5 34 -3 57 -2 57 4 0 12 57 14 63 3 4 -7 908 -9 915 -3 7 7 69 5 79 -3 13 -9
250 -4 260 7 10 10 25 7 18 -4 -4 -7 73 -10 225 -10 146 0 229 -4 225 -10 -17
-27 105 -164 156 -174 87 -17 107 -10 175 60 35 36 64 72 64 80 0 8 5 14 10
14 6 0 10 9 10 20 0 19 7 20 194 20 147 0 195 3 199 13 3 9 7 9 20 -2 13 -10
80 -12 347 -10 184 2 331 0 333 -5 2 -5 26 -3 55 3 73 15 274 15 290 -1 10
-10 14 -10 20 -1 6 9 94 13 345 15 185 2 337 0 337 -4 0 -5 9 -8 20 -8 11 0
20 5 20 10 0 11 75 12 134 2 32 -6 40 -11 41 -32 1 -13 7 -26 13 -28 7 -2 12
-12 12 -23 0 -11 7 -22 15 -25 8 -4 15 -12 15 -18 0 -7 16 -21 35 -32 19 -10
35 -22 35 -27 0 -9 53 -5 119 9 45 9 141 102 141 136 l0 26 498 6 c273 3 779
9 1125 12 l628 6 24 -28 c14 -16 25 -38 25 -49 1 -23 33 -65 49 -65 6 0 11 -4
11 -10 0 -5 7 -10 15 -10 8 0 15 -4 15 -10 0 -5 18 -10 40 -10 22 0 40 -4 40
-10 0 -5 7 -10 15 -10 24 0 95 24 95 32 0 5 7 8 15 8 8 0 15 5 15 10 0 6 5 10
10 10 23 0 60 50 60 80 0 16 5 30 10 30 6 0 10 6 10 13 0 30 107 60 134 38 17
-14 326 -13 326 1 0 4 18 8 40 8 22 0 40 -4 40 -10 0 -13 87 -13 95 0 9 14
452 13 460 -1 4 -6 26 -8 58 -4 75 9 1157 11 1157 3 0 -5 6 -8 13 -8 6 0 23
-18 37 -40 13 -22 28 -40 33 -40 11 0 77 -68 77 -79 0 -21 171 -34 178 -13 2
7 13 12 24 12 30 0 85 61 97 106 20 73 26 75 264 76 677 3 672 2 709 35 9 8
25 12 36 9 11 -4 24 0 32 9 7 8 22 15 35 15 12 0 38 16 58 35 23 22 46 35 63
35 19 0 25 4 21 14 -4 10 -1 13 9 9 8 -3 14 1 14 9 0 18 46 81 102 138 24 25
67 73 96 107 34 39 65 64 82 68 16 3 36 17 44 31 9 13 22 24 29 24 7 0 26 13
41 29 16 16 40 32 55 36 14 4 34 15 44 26 10 10 28 19 42 19 13 0 25 5 27 12
2 6 19 11 38 10 22 0 40 6 51 19 9 10 26 19 37 19 11 0 24 5 27 10 3 6 17 7
29 4 13 -3 29 0 37 8 8 8 41 15 76 16 66 3 205 42 211 60 1 5 -7 20 -19 31
-18 16 -36 21 -81 21 -32 0 -58 4 -58 10 0 6 -15 10 -34 10 -19 0 -36 6 -39
13 -3 9 -8 9 -16 1 -12 -11 -28 -9 -113 12 -16 3 -28 10 -28 15 0 5 -18 12
-41 15 -23 4 -51 17 -65 30 -12 13 -26 24 -29 24 -4 0 -13 7 -21 15 -9 8 -24
15 -35 15 -10 0 -19 7 -19 15 0 8 -7 15 -15 15 -16 0 -135 116 -135 131 0 5
-4 9 -10 9 -13 0 -80 66 -80 79 0 6 -5 11 -11 11 -6 0 -35 25 -64 55 -30 30
-57 55 -60 55 -10 0 -35 28 -35 39 0 6 -12 14 -27 17 -16 4 -40 20 -56 36 -15
15 -31 28 -36 28 -5 0 -11 5 -13 11 -5 16 -116 49 -163 49 -26 0 -48 6 -55 15
-7 8 -17 12 -23 8 -5 -3 -271 -7 -591 -9 -320 -1 -749 -4 -954 -6 -204 -2
-372 0 -372 5 0 4 -18 7 -40 7 -38 0 -40 2 -42 33 0 17 0 40 0 50 3 29 -128
157 -160 157 -14 0 -31 7 -38 15 -7 8 -18 14 -24 14 -6 -1 -38 -7 -71 -12z
m75 -76 c0 -5 21 -14 47 -21 52 -12 63 -23 63 -57 0 -13 5 -23 10 -23 6 0 10
-6 10 -14 0 -8 5 -16 12 -18 7 -3 11 -22 10 -51 -4 -63 13 -87 60 -87 20 0 38
5 40 11 3 8 37 7 123 -1 87 -9 187 -11 360 -5 132 5 488 9 791 9 441 1 554 4
567 14 12 10 21 11 36 3 11 -6 38 -11 60 -11 22 0 43 -4 46 -10 3 -5 29 -10
56 -10 36 0 56 -6 71 -20 12 -11 34 -20 48 -20 18 0 35 -10 50 -30 12 -16 31
-32 41 -35 11 -4 19 -12 19 -18 0 -7 9 -19 20 -27 11 -8 20 -20 20 -27 0 -7 9
-13 20 -13 11 0 20 -6 20 -14 0 -8 6 -16 14 -19 7 -3 16 -21 20 -40 4 -19 13
-40 21 -47 8 -7 15 -19 15 -27 0 -7 6 -16 13 -19 8 -3 11 -17 9 -39 -3 -25 0
-36 12 -41 12 -4 16 -19 16 -54 0 -27 7 -75 15 -107 11 -45 12 -80 5 -158 -16
-176 -26 -225 -49 -241 -12 -9 -21 -24 -21 -35 0 -11 -11 -31 -25 -45 -14 -14
-25 -28 -25 -33 0 -4 -17 -23 -38 -42 -20 -19 -52 -53 -70 -76 -19 -24 -40
-43 -48 -43 -8 0 -14 -7 -14 -15 0 -9 -11 -20 -25 -25 -14 -5 -25 -14 -25 -20
0 -5 -9 -10 -19 -10 -11 0 -32 -6 -48 -14 -58 -29 -139 -65 -163 -72 -14 -4
-220 -8 -458 -8 -430 -1 -433 -1 -458 -23 -25 -22 -32 -53 -13 -53 8 0 8 -4 0
-14 -8 -9 -8 -16 -2 -20 16 -10 -20 -46 -46 -46 -13 0 -23 -4 -23 -8 0 -11
-69 -32 -106 -32 -43 0 -74 11 -74 25 0 7 -13 23 -29 36 -16 14 -34 42 -40 64
-6 22 -18 45 -28 51 -20 12 -582 12 -1678 0 -352 -4 -658 -7 -680 -6 -22 0
-49 -7 -60 -16 -20 -15 -20 -15 -1 -30 18 -13 19 -14 2 -14 -13 0 -17 -6 -14
-18 5 -18 -13 -42 -32 -42 -5 0 -10 -4 -10 -10 0 -5 -5 -10 -10 -10 -6 0 -19
-8 -30 -18 -13 -12 -38 -18 -77 -20 -49 -2 -61 1 -73 18 -8 11 -18 20 -23 20
-17 0 -36 28 -47 70 -19 71 -17 71 -217 64 -98 -3 -430 -6 -738 -8 -308 -2
-562 -4 -565 -5 -3 -1 -202 -2 -442 -2 -346 -1 -439 -3 -448 -14 -8 -9 -7 -14
3 -18 18 -7 13 -62 -6 -82 -9 -8 -23 -15 -31 -15 -9 0 -16 -4 -16 -9 0 -11
-134 -24 -160 -16 -11 4 -20 13 -20 21 0 8 -4 14 -9 14 -9 0 -22 49 -23 87 l0
22 -292 5 c-267 4 -376 5 -541 5 -33 -1 -105 0 -160 1 -104 2 -335 3 -370 3
-11 0 -191 -2 -400 -3 -209 -1 -445 -5 -525 -9 l-145 -6 -3 -27 c-2 -16 -8
-28 -13 -28 -6 0 -8 -4 -5 -8 3 -5 -4 -15 -15 -22 -10 -8 -19 -18 -19 -23 0
-21 -34 -39 -85 -44 -30 -3 -55 -10 -55 -14 0 -5 -7 -9 -15 -9 -8 0 -15 5 -15
10 0 6 -6 10 -13 10 -7 0 -19 9 -27 20 -8 11 -20 20 -27 20 -19 0 -45 42 -33
54 15 15 12 55 -4 72 -16 15 -46 19 -46 6 0 -4 -46 -6 -102 -5 -249 9 -366 7
-408 -7 -35 -12 -47 -12 -78 0 -42 17 -398 21 -420 6 -6 -5 -51 -5 -100 -1
-105 8 -51 8 -789 4 l-603 -3 -36 -29 c-27 -23 -35 -36 -31 -54 2 -13 0 -26
-5 -29 -4 -3 -6 -10 -3 -15 4 -5 0 -9 -7 -9 -8 0 -20 -9 -28 -20 -8 -11 -20
-20 -27 -20 -7 0 -13 -5 -13 -11 0 -8 -20 -9 -67 -4 -63 7 -93 21 -93 44 0 6
-4 11 -9 11 -4 0 -9 23 -10 51 0 39 -6 57 -23 74 -23 23 -24 23 -358 25 -184
1 -407 1 -495 -1 -88 -1 -289 -1 -447 0 -202 1 -288 -2 -288 -9 0 -6 -3 -9 -8
-6 -17 10 -876 9 -1132 -3 l-145 -6 -3 -28 c-2 -15 -8 -27 -13 -27 -6 0 -8 -4
-5 -8 3 -5 -4 -15 -15 -22 -10 -8 -19 -18 -19 -23 0 -21 -34 -39 -85 -44 -30
-3 -55 -10 -55 -14 0 -5 -7 -9 -15 -9 -8 0 -15 5 -15 10 0 6 -6 10 -13 10 -7
0 -19 9 -27 20 -8 11 -20 20 -27 20 -19 0 -45 42 -33 54 15 15 12 55 -4 72
-16 15 -46 19 -46 6 0 -4 -46 -6 -102 -5 -249 9 -366 7 -408 -7 -35 -12 -47
-12 -78 0 -42 17 -398 21 -420 6 -6 -5 -51 -5 -100 -1 -105 8 -51 8 -789 4
l-603 -3 -36 -29 c-27 -23 -35 -36 -31 -54 2 -13 0 -26 -5 -29 -4 -3 -6 -10
-3 -15 4 -5 0 -9 -7 -9 -8 0 -20 -9 -28 -20 -8 -11 -20 -20 -27 -20 -7 0 -13
-4 -13 -10 0 -5 -16 -10 -35 -10 -28 0 -35 4 -35 20 0 13 -7 20 -19 20 -30 0
-51 11 -51 26 0 8 -4 14 -9 14 -9 0 -22 49 -23 87 l0 22 -292 5 c-267 4 -376
5 -541 5 -33 -1 -105 0 -160 1 -104 2 -335 3 -370 3 -11 0 -191 -2 -400 -3
-209 -1 -445 -5 -525 -9 l-145 -6 -3 -28 c-2 -15 -8 -27 -13 -27 -6 0 -8 -4
-5 -8 3 -5 -4 -15 -15 -22 -10 -8 -19 -18 -19 -23 0 -21 -34 -39 -85 -44 -30
-3 -55 -10 -55 -14 0 -5 -7 -9 -15 -9 -8 0 -15 5 -15 10 0 6 -6 10 -13 10 -7
0 -19 9 -27 20 -8 11 -20 20 -27 20 -19 0 -45 42 -33 54 15 15 12 55 -4 72
-16 15 -46 19 -46 6 0 -4 -46 -6 -102 -5 -249 9 -366 7 -408 -7 -35 -12 -47
-12 -78 0 -42 17 -398 21 -420 6 -6 -5 -51 -5 -100 -1 -105 8 -51 8 -789 4
l-603 -3 -36 -29 c-27 -23 -35 -36 -31 -54 2 -13 0 -26 -5 -29 -4 -3 -6 -10
-3 -15 4 -5 0 -9 -7 -9 -8 0 -20 -9 -28 -20 -8 -11 -20 -20 -27 -20 -7 0 -13
-5 -13 -11 0 -8 -20 -9 -67 -4 -63 7 -93 21 -93 44 0 6 -4 11 -9 11 -4 0 -9
23 -10 51 0 39 -6 57 -23 74 -23 23 -24 23 -358 25 -184 1 -407 1 -495 -1 -88
-1 -289 -1 -447 0 -202 1 -288 -2 -288 -9 0 -6 -3 -9 -8 -6 -17 10 -876 9
-1132 -3 l-145 -6 -3 -27 c-2 -16 -8 -28 -13 -28 -6 0 -8 -4 -5 -8 3 -5 -4
-15 -15 -22 -10 -8 -19 -18 -19 -23 0 -21 -34 -39 -85 -44 -30 -3 -55 -10 -55
-14 0 -5 -7 -9 -15 -9 -8 0 -15 5 -15 10 0 6 -6 10 -13 10 -7 0 -19 9 -27 20
-8 11 -20 20 -27 20 -19 0 -45 42 -33 54 15 15 12 55 -4 72 -16 15 -46 19 -46
6 0 -4 -46 -6 -103 -5 -248 9 -365 7 -407 -7 -35 -12 -47 -12 -78 0 -42 17
-398 21 -420 6 -6 -5 -51 -5 -100 -1 -105 8 -51 8 -789 4 l-603 -3 -36 -29
c-27 -23 -35 -36 -31 -54 2 -13 0 -26 -5 -29 -4 -3 -6 -10 -3 -15 4 -5 0 -9
-7 -9 -8 0 -20 -9 -28 -20 -8 -11 -20 -20 -27 -20 -7 0 -13 -5 -13 -11 0 -8
-20 -9 -67 -4 -63 7 -93 21 -93 44 0 6 -4 11 -9 11 -4 0 -9 23 -10 51 0 39 -6
57 -23 74 -23 23 -24 23 -353 25 -182 1 -384 1 -450 0 -66 0 -356 0 -645 1
-289 1 -545 1 -570 0 -25 -2 -290 -3 -590 -5 -300 -1 -550 -5 -557 -9 -11 -7
-39 -109 -34 -123 2 -3 -12 -19 -30 -35 -22 -19 -43 -29 -65 -29 -18 0 -34 -6
-37 -13 -3 -7 -17 1 -38 24 -59 62 -66 74 -64 115 3 74 3 74 -267 74 -152 0
-238 4 -238 10 0 6 -9 10 -20 10 -11 0 -20 -6 -20 -12 0 -9 -3 -9 -9 1 -8 12
-12 12 -24 2 -12 -9 -16 -9 -20 1 -3 10 -9 11 -25 1 -16 -10 -22 -10 -25 0 -3
9 -9 9 -26 0 -27 -17 -118 -17 -124 0 -3 9 -7 9 -19 -1 -13 -10 -17 -10 -20 0
-4 10 -8 10 -19 1 -21 -17 -119 -29 -119 -14 0 6 -9 11 -20 11 -11 0 -20 -4
-20 -10 0 -5 -13 -10 -30 -10 -16 0 -30 5 -30 10 0 15 -30 12 -31 -2 0 -10 -2
-10 -6 0 -6 16 -43 16 -43 0 0 -9 -2 -10 -8 -2 -9 15 -214 15 -224 0 -5 -7 -8
-7 -8 2 0 6 -9 12 -20 12 -11 0 -20 -6 -20 -12 0 -9 -3 -9 -8 -3 -9 13 -481
14 -501 1 -7 -5 -16 -5 -20 0 -3 5 -57 7 -120 4 -62 -3 -118 -2 -125 2 -6 4
-163 8 -348 8 -260 0 -337 3 -341 13 -3 9 -7 9 -20 -1 -10 -8 -39 -13 -79 -12
-106 3 -322 -13 -333 -24 -6 -6 -11 -35 -11 -63 0 -41 -5 -58 -24 -78 -13 -14
-33 -25 -45 -25 -11 0 -29 -6 -40 -14 -23 -16 -81 -14 -97 2 -7 7 -24 12 -38
12 -15 0 -38 9 -51 21 -20 17 -24 30 -23 77 0 33 -5 62 -12 70 -9 8 -47 12
-118 12 -58 0 -107 4 -110 8 -3 5 -20 7 -38 5 -91 -11 -281 -13 -293 -3 -7 6
-16 7 -19 2 -7 -11 -228 -5 -236 7 -3 4 -25 9 -49 9 -31 2 -50 9 -67 25 -13
13 -48 30 -79 37 -30 7 -55 17 -55 22 0 4 -7 8 -15 8 -8 0 -15 7 -15 15 0 8
-6 15 -12 15 -15 0 -58 43 -58 57 0 5 -12 21 -27 35 -16 15 -47 47 -71 72 -24
25 -48 46 -53 46 -5 0 -9 8 -9 19 0 10 -8 21 -19 24 -10 2 -21 17 -25 33 -4
15 -18 41 -32 57 -16 20 -24 41 -24 68 0 22 -6 50 -14 62 -21 34 -28 207 -10
273 8 30 14 77 14 104 0 28 5 50 10 50 6 0 10 18 10 40 0 22 5 40 10 40 6 0
10 6 10 14 0 8 6 21 13 28 8 7 17 26 21 42 9 36 46 86 63 86 7 0 13 6 13 13 0
7 9 19 20 27 11 8 20 20 20 27 0 7 5 13 10 13 6 0 19 9 30 20 l20 20 0 -20 c0
-11 5 -20 10 -20 6 0 10 5 10 10 0 6 9 10 20 10 11 0 20 4 20 10 0 5 7 7 15 4
8 -4 21 -2 28 3 11 9 73 22 133 27 11 1 24 5 30 8 5 3 209 6 454 7 245 0 663
2 930 5 364 3 487 1 492 -7 6 -9 13 -9 28 1 16 10 62 13 169 11 82 -1 153 1
160 5 6 4 11 2 11 -3 0 -15 77 -14 83 1 4 11 7 11 18 0 8 -8 46 -12 108 -12
53 0 116 -5 141 -11 31 -7 46 -7 48 0 5 14 162 15 162 1 0 -5 7 -10 15 -10 8
0 15 3 15 8 0 4 25 8 55 10 30 1 55 -2 55 -7 0 -5 16 -9 35 -9 19 0 35 4 35 9
0 5 7 9 15 9 8 0 15 5 15 10 0 6 7 10 15 10 17 0 21 36 4 42 -5 2 -13 37 -16
78 -7 91 -2 97 87 104 57 4 65 2 88 -22 21 -20 27 -38 30 -84 4 -53 2 -60 -16
-65 -22 -5 -41 -59 -26 -73 8 -7 110 -15 124 -10 3 1 259 3 570 5 311 1 567 4
570 5 13 7 300 4 300 -2 0 -14 80 -9 81 5 0 9 2 9 6 0 5 -14 43 -18 43 -5 0 4
29 8 65 8 36 1 65 -2 65 -7 0 -5 27 -9 60 -9 33 0 60 4 60 10 0 14 37 12 43
-2 3 -10 9 -10 26 0 12 7 21 8 21 2 0 -5 7 -10 15 -10 8 0 15 6 15 13 0 9 3 8
9 -2 7 -11 34 -12 137 -7 226 11 838 9 842 -3 4 -13 42 -15 42 -2 0 5 9 12 20
16 16 5 19 14 18 46 -1 21 -5 39 -10 39 -20 0 -5 57 28 101 42 57 60 69 106
69 48 0 83 -19 98 -55 15 -32 14 -108 -1 -113 -5 -2 -9 -10 -9 -18 0 -8 -4
-14 -10 -14 -5 0 -10 -11 -10 -24 0 -22 6 -25 57 -33 32 -4 162 -8 288 -8 132
1 233 -3 236 -9 4 -5 15 -5 25 -1 11 4 27 7 38 6 11 -2 16 2 12 8 -8 12 7 15
18 4 4 -5 52 -9 106 -9 54 -1 114 -4 134 -8 20 -4 36 -3 36 1 0 12 104 10 112
-2 5 -6 11 -6 17 0 6 6 49 10 98 8 48 -1 105 2 126 6 20 5 39 5 42 1 4 -6 877
-6 1196 1 41 1 84 -3 95 -8 27 -15 126 -16 135 -2 4 8 45 11 120 11 131 -1
169 4 169 23 0 7 4 15 9 17 5 1 11 28 12 58 3 47 9 60 38 87 31 31 38 33 103
33 38 0 74 -5 81 -10 78 -66 94 -98 76 -163 -9 -33 -8 -41 8 -53 17 -13 114
-20 125 -9 2 3 290 7 639 10 349 2 639 4 644 5 6 0 218 0 472 -1 308 -1 467 2
475 9 7 6 30 13 50 17 l38 7 -6 69 c-5 54 -4 73 8 87 8 9 18 25 21 35 9 23 48
37 105 36 63 -1 71 -5 132 -72 42 -46 53 -66 57 -101 3 -24 0 -52 -5 -63 -11
-19 -7 -20 61 -26 40 -3 163 -5 274 -3 127 1 204 -2 206 -8 2 -6 11 -6 23 -1
10 4 27 7 38 6 11 -2 16 2 12 8 -8 12 7 15 18 4 4 -5 52 -9 106 -9 54 -1 114
-4 134 -8 20 -4 36 -3 36 1 0 12 104 10 112 -2 5 -6 11 -6 17 0 6 6 49 10 98
8 48 -1 105 2 126 6 20 5 39 5 42 1 4 -6 877 -6 1196 1 41 1 84 -3 95 -8 27
-15 126 -16 135 -2 4 8 45 11 120 11 131 -1 169 4 169 23 0 7 4 15 9 17 5 2
11 28 12 58 3 47 9 60 38 88 31 30 38 32 103 32 38 0 74 -5 81 -10 78 -66 94
-98 76 -163 -9 -33 -8 -41 8 -53 17 -13 114 -20 125 -9 2 3 290 7 639 10 349
2 639 4 644 5 6 0 218 0 473 -1 333 -1 467 2 475 10 6 6 19 11 29 11 20 0 29
16 33 58 3 42 21 77 49 95 28 19 111 23 121 6 4 -6 19 -7 36 -4 24 6 35 1 61
-24 l31 -30 -16 -47 c-12 -38 -13 -50 -2 -60 10 -10 92 -12 401 -7 652 9 750
9 765 -3 12 -10 460 -12 920 -3 41 1 84 -3 95 -8 27 -15 126 -16 135 -2 4 8
45 11 120 11 131 -1 169 4 169 23 0 7 4 15 9 17 5 2 11 28 12 58 3 47 9 60 38
87 31 31 38 33 103 33 38 0 74 -5 81 -10 78 -66 94 -98 76 -163 -9 -33 -8 -41
8 -53 17 -13 114 -20 125 -9 2 3 290 7 639 10 349 2 639 4 644 5 6 0 218 0
472 -1 308 -1 467 2 475 9 7 6 30 13 50 17 l38 7 -6 69 c-5 54 -4 73 8 87 8 9
18 25 21 35 9 23 48 37 105 36 63 -1 71 -5 132 -72 42 -46 53 -66 57 -101 3
-24 0 -52 -5 -63 -11 -19 -7 -20 61 -26 40 -3 163 -5 274 -3 127 1 204 -2 206
-8 2 -6 11 -6 23 -1 10 4 27 7 38 6 11 -2 16 2 12 8 -8 12 7 15 18 4 4 -5 52
-9 106 -9 54 -1 114 -4 134 -8 20 -4 36 -3 36 1 0 12 104 10 112 -2 5 -6 11
-6 17 0 6 6 49 10 98 8 48 -1 105 2 126 6 20 5 39 5 42 1 4 -6 877 -6 1196 1
41 1 84 -3 95 -8 27 -15 126 -16 135 -2 4 8 45 11 120 11 131 -1 169 4 169 23
0 7 4 15 9 17 5 2 11 28 12 58 3 47 9 60 38 88 31 30 38 32 103 32 38 0 74 -5
81 -10 78 -66 94 -98 76 -163 -9 -33 -8 -41 8 -53 17 -13 114 -20 125 -9 2 3
290 7 639 10 349 2 639 4 644 5 6 0 218 0 473 -1 333 -1 467 2 475 10 6 6 19
11 29 11 20 0 29 16 33 58 3 42 21 77 49 95 28 19 111 23 121 6 4 -6 19 -7 36
-4 24 6 35 1 61 -24 l31 -30 -16 -47 c-12 -38 -13 -50 -2 -60 10 -10 93 -12
401 -8 404 5 1386 12 1839 13 169 1 270 -3 287 -10 15 -6 34 -9 43 -5 19 7 19
40 0 60 -8 8 -15 22 -15 30 0 9 7 16 15 16 8 0 15 7 15 15 0 8 4 15 9 15 5 0
23 14 41 30 27 26 40 30 86 30 30 0 54 -4 54 -10 0 -5 7 -10 15 -10 8 0 15 -4
15 -10 0 -5 5 -10 11 -10 25 0 41 -32 40 -78 -1 -84 -35 -77 376 -75 203 1
368 3 368 3 0 0 369 3 820 6 451 3 848 8 883 11 l62 5 -2 66 c-2 45 1 67 10
69 6 3 12 12 12 20 0 27 62 83 93 83 15 0 27 5 27 10 0 6 16 10 35 10 19 0 35
-4 35 -9z m-36583 -606 c3 -9 -1 -23 -10 -33 -22 -25 -31 -62 -16 -62 7 0 5
-7 -7 -16 -10 -8 -14 -17 -9 -20 6 -2 8 -23 6 -46 -3 -24 -5 -118 -5 -210 -1
-173 -5 -188 -40 -153 -8 8 -21 15 -29 15 -8 0 -28 13 -45 30 -17 16 -41 31
-54 32 -27 4 -88 39 -88 50 0 4 -18 8 -40 8 -22 0 -60 9 -83 20 -24 11 -63 24
-87 28 -41 7 -69 32 -36 32 9 0 16 5 16 10 0 6 12 10 28 10 38 0 102 19 102
30 0 6 9 10 21 10 23 0 79 30 79 42 0 4 7 8 15 8 8 0 15 4 15 9 0 5 12 12 27
16 15 3 44 24 65 46 20 21 44 39 53 39 21 0 45 24 45 44 0 9 3 16 8 16 4 0 15
14 24 30 19 33 35 38 45 15z m39388 -35 c9 -16 20 -30 26 -30 6 0 7 -5 4 -11
-9 -13 28 -49 50 -49 9 0 33 -18 54 -40 20 -22 46 -41 57 -44 37 -8 64 -18 64
-25 0 -11 57 -41 79 -41 12 0 21 -4 21 -10 0 -11 64 -30 103 -30 15 0 27 -4
27 -10 0 -5 7 -10 16 -10 33 0 5 -25 -36 -32 -24 -4 -63 -17 -87 -28 -23 -11
-60 -20 -81 -20 -26 0 -42 -6 -52 -20 -8 -11 -20 -20 -27 -20 -7 0 -13 -4 -13
-9 0 -5 -14 -12 -31 -16 -17 -4 -45 -20 -62 -36 -16 -16 -36 -29 -44 -29 -8 0
-21 -7 -29 -15 -9 -8 -19 -15 -22 -15 -4 0 -8 72 -9 160 -2 96 -7 169 -14 182
-7 12 -9 39 -5 64 3 24 2 44 -2 44 -4 0 -7 13 -8 29 -1 16 -8 37 -18 46 -17
18 -20 28 -9 38 14 15 33 6 48 -23z"/>
<path d="M35163 1683 c-73 -2 -133 -8 -133 -12 0 -5 -8 -7 -17 -5 -11 3 -35
-11 -63 -36 -24 -22 -48 -40 -52 -40 -4 0 -8 -7 -8 -15 0 -8 -9 -15 -19 -15
-20 0 -35 -25 -25 -41 3 -5 0 -9 -6 -9 -5 0 -9 -13 -8 -29 1 -17 -5 -38 -15
-49 -9 -10 -17 -28 -17 -40 0 -12 -4 -22 -9 -22 -4 0 -11 -46 -15 -102 -4 -57
-12 -118 -19 -136 -9 -27 -9 -35 3 -42 21 -13 -5 -86 -34 -94 -27 -7 -155 -7
-181 0 -35 10 -51 61 -54 179 -2 64 -8 113 -14 117 -6 3 -10 22 -9 42 1 20 -3
36 -8 36 -5 0 -12 11 -16 25 -3 14 -10 25 -15 25 -5 0 -9 7 -9 15 0 18 -6 26
-73 96 -39 41 -51 48 -63 38 -10 -8 -14 -8 -14 0 0 6 -7 11 -15 11 -8 0 -15 3
-15 8 0 4 -19 16 -41 27 -39 18 -63 19 -593 17 -303 -1 -582 -2 -621 -3 -38 0
-112 3 -164 8 -54 6 -114 6 -140 1 -25 -4 -127 -10 -226 -12 l-180 -4 -39 -33
c-105 -90 -166 -162 -147 -173 10 -7 3 -46 -9 -46 -4 0 -8 -38 -8 -84 -1 -46
-6 -96 -12 -110 -5 -15 -10 -60 -10 -99 0 -61 -3 -75 -21 -91 -12 -10 -25 -14
-30 -9 -4 4 -46 6 -93 3 -101 -6 -114 0 -108 53 2 20 0 43 -5 50 -5 6 -8 31
-7 55 1 23 -2 40 -7 36 -5 -3 -9 11 -9 31 0 20 -6 43 -14 50 -7 8 -16 32 -20
54 -3 23 -10 41 -14 41 -5 0 -9 14 -9 31 0 17 -4 34 -10 37 -6 4 -14 18 -18
31 -7 22 -35 61 -63 85 -6 6 -28 26 -48 44 -19 17 -46 32 -60 32 -13 0 -24 4
-24 9 0 5 -7 12 -16 15 -29 11 -227 16 -304 7 -52 -5 -77 -5 -82 3 -5 8 -12 8
-25 0 -13 -8 -27 -8 -47 -1 -20 7 -34 7 -47 -2 -23 -13 -69 -15 -69 -2 0 6
-26 7 -62 4 -77 -7 -778 -4 -976 4 -104 4 -146 2 -157 -7 -8 -6 -60 -14 -116
-17 -71 -4 -102 -10 -106 -20 -3 -7 -11 -13 -19 -13 -8 0 -14 -4 -14 -9 0 -5
-13 -12 -30 -16 -21 -5 -30 -13 -30 -26 0 -12 -9 -21 -25 -25 -14 -3 -25 -12
-25 -20 0 -8 -5 -14 -11 -14 -6 0 -9 -7 -5 -15 3 -8 1 -15 -5 -15 -6 0 -9 -6
-6 -14 3 -8 -1 -17 -9 -20 -9 -3 -12 -10 -9 -16 3 -5 2 -10 -3 -10 -11 0 -18
-52 -28 -200 -4 -57 -13 -104 -22 -118 -10 -15 -13 -36 -9 -62 l5 -40 -123 0
c-89 0 -126 4 -134 13 -8 10 -7 17 1 25 8 8 8 15 -1 26 -8 10 -9 16 -1 21 6 3
7 11 3 17 -3 7 -8 61 -9 121 -1 61 -6 113 -11 116 -4 3 -9 15 -10 26 -4 46
-26 125 -34 125 -5 0 -9 7 -9 15 0 8 -4 15 -10 15 -5 0 -10 4 -10 10 0 15 -91
100 -106 100 -8 0 -14 4 -14 9 0 5 -10 12 -22 16 -27 8 -1335 8 -1349 0 -5 -4
-9 -1 -9 4 0 14 -27 14 -32 1 -2 -6 -19 -5 -47 1 -34 8 -46 7 -52 -3 -5 -7 -9
-8 -9 -2 0 15 -262 16 -273 1 -6 -9 -10 -9 -14 1 -6 15 -33 16 -33 1 0 -8 -4
-8 -12 -1 -14 10 -545 15 -562 4 -5 -3 -39 -4 -75 -3 -56 2 -70 -1 -85 -18
-11 -12 -23 -21 -29 -21 -18 0 -77 -32 -77 -42 0 -6 -14 -23 -31 -39 -19 -17
-29 -35 -25 -44 3 -8 1 -15 -5 -15 -6 0 -8 -4 -4 -9 3 -6 -3 -14 -12 -20 -10
-5 -15 -12 -11 -16 3 -4 -2 -34 -11 -68 -11 -42 -18 -108 -19 -202 -3 -118 -6
-142 -20 -153 -13 -10 -45 -12 -122 -9 -134 5 -139 8 -133 58 3 21 1 44 -4 51
-5 7 -8 32 -7 56 1 23 -2 40 -7 36 -5 -3 -9 11 -9 31 0 20 -6 43 -14 50 -7 8
-16 32 -20 54 -3 23 -10 41 -14 41 -5 0 -9 14 -9 31 0 17 -4 34 -10 37 -6 4
-14 18 -18 31 -7 22 -35 61 -63 85 -6 6 -28 26 -48 44 -19 17 -46 32 -60 32
-13 0 -24 4 -24 9 0 5 -7 12 -16 15 -29 11 -227 16 -304 7 -52 -5 -77 -5 -82
3 -5 8 -12 8 -25 0 -13 -8 -27 -8 -47 -1 -20 7 -34 7 -47 -2 -23 -13 -69 -15
-69 -2 0 6 -26 7 -62 4 -77 -7 -778 -4 -976 4 -104 4 -146 2 -157 -7 -8 -6
-60 -14 -116 -17 -71 -4 -102 -10 -106 -20 -3 -7 -11 -13 -19 -13 -8 0 -14 -4
-14 -9 0 -5 -13 -12 -30 -16 -21 -5 -30 -13 -30 -26 0 -12 -9 -21 -25 -25 -14
-3 -25 -12 -25 -20 0 -8 -5 -14 -11 -14 -6 0 -9 -7 -5 -15 3 -8 1 -15 -5 -15
-6 0 -9 -6 -6 -14 3 -8 -1 -17 -9 -20 -9 -3 -12 -10 -9 -16 3 -5 2 -10 -3 -10
-11 0 -18 -52 -28 -200 -4 -57 -13 -104 -22 -118 -10 -15 -13 -36 -9 -62 l5
-40 -123 0 c-89 0 -126 4 -134 13 -8 10 -7 17 1 25 8 8 8 15 -1 26 -8 10 -9
16 -1 21 6 3 7 11 3 17 -3 7 -8 61 -9 121 -1 61 -6 113 -11 116 -4 3 -9 15
-10 26 -4 46 -26 125 -34 125 -5 0 -9 7 -9 15 0 8 -4 15 -10 15 -5 0 -10 4
-10 10 0 15 -91 100 -106 100 -8 0 -14 4 -14 9 0 5 -10 12 -22 16 -13 3 -315
6 -673 5 -357 -1 -681 -2 -720 -2 -38 0 -112 4 -164 9 -54 6 -114 6 -140 1
-25 -4 -127 -10 -226 -12 l-180 -4 -39 -33 c-105 -90 -166 -162 -147 -173 10
-7 3 -46 -9 -46 -4 0 -8 -38 -8 -84 -1 -46 -6 -96 -12 -110 -5 -15 -10 -60
-10 -99 0 -61 -3 -75 -21 -91 -12 -10 -25 -14 -30 -9 -4 4 -46 6 -93 3 -101
-6 -114 0 -108 53 2 20 0 43 -5 50 -5 6 -8 31 -7 55 1 23 -2 40 -7 36 -5 -3
-9 11 -9 31 0 20 -6 43 -14 50 -7 8 -16 32 -20 54 -3 23 -10 41 -14 41 -5 0
-9 14 -9 31 0 17 -4 34 -10 37 -6 4 -14 18 -18 31 -7 22 -35 61 -63 85 -6 6
-28 26 -48 44 -19 17 -46 32 -60 32 -13 0 -24 4 -24 9 0 5 -7 12 -16 15 -29
11 -227 16 -304 7 -52 -5 -77 -5 -82 3 -5 8 -12 8 -25 0 -13 -8 -27 -8 -47 -1
-20 7 -34 7 -47 -2 -23 -13 -69 -15 -69 -2 0 6 -26 7 -62 4 -77 -7 -778 -4
-976 4 -104 4 -146 2 -157 -7 -8 -6 -60 -14 -116 -17 -71 -4 -102 -10 -106
-20 -3 -7 -11 -13 -19 -13 -8 0 -14 -4 -14 -9 0 -5 -13 -12 -30 -16 -21 -5
-30 -13 -30 -26 0 -12 -9 -21 -25 -25 -14 -3 -25 -12 -25 -20 0 -8 -5 -14 -11
-14 -6 0 -9 -7 -5 -15 3 -8 1 -15 -5 -15 -6 0 -9 -6 -6 -14 3 -8 -1 -17 -9
-20 -9 -3 -12 -10 -9 -16 3 -5 2 -10 -3 -10 -11 0 -18 -52 -28 -200 -4 -57
-13 -104 -22 -118 -10 -15 -13 -36 -9 -62 l5 -40 -123 0 c-89 0 -126 4 -134
13 -8 10 -7 17 1 25 8 8 8 15 -1 26 -8 10 -9 16 -1 21 6 3 7 11 3 17 -3 7 -8
61 -9 121 -1 61 -6 113 -11 116 -4 3 -9 15 -10 26 -4 46 -26 125 -34 125 -5 0
-9 7 -9 15 0 8 -4 15 -10 15 -5 0 -10 4 -10 10 0 15 -91 100 -106 100 -8 0
-14 4 -14 9 0 5 -10 12 -22 16 -27 8 -1335 8 -1349 0 -5 -4 -9 -1 -9 4 0 14
-27 14 -32 1 -2 -6 -19 -5 -47 1 -34 8 -46 7 -52 -3 -5 -7 -9 -8 -9 -2 0 15
-262 16 -273 1 -6 -9 -10 -9 -14 1 -6 15 -33 16 -33 1 0 -8 -4 -8 -12 -1 -14
10 -545 15 -562 4 -5 -3 -39 -4 -75 -3 -56 2 -70 -1 -85 -18 -11 -12 -23 -21
-29 -21 -18 0 -77 -32 -77 -42 0 -6 -14 -23 -31 -39 -19 -17 -29 -35 -25 -44
3 -8 1 -15 -5 -15 -6 0 -8 -4 -4 -9 3 -6 -3 -14 -12 -20 -10 -5 -15 -12 -11
-16 3 -4 -2 -34 -11 -68 -11 -42 -18 -108 -19 -202 -3 -118 -6 -142 -20 -153
-13 -10 -45 -12 -122 -9 -134 5 -139 8 -133 58 3 21 1 44 -4 51 -5 7 -8 32 -7
56 1 23 -2 40 -7 36 -5 -3 -9 11 -9 31 0 20 -6 43 -14 50 -7 8 -16 32 -20 54
-3 23 -10 41 -14 41 -5 0 -9 14 -9 31 0 17 -4 34 -10 37 -6 4 -14 18 -18 31
-7 22 -35 61 -63 85 -6 6 -28 26 -48 43 -19 18 -46 33 -60 33 -13 0 -24 4 -24
9 0 5 -7 12 -16 15 -29 11 -227 16 -304 7 -52 -5 -77 -5 -82 3 -5 8 -12 8 -25
0 -13 -8 -27 -8 -47 -1 -20 7 -34 7 -47 -2 -23 -13 -69 -15 -69 -2 0 6 -26 7
-62 4 -77 -7 -778 -4 -976 4 -104 4 -146 2 -157 -7 -8 -6 -60 -14 -116 -17
-71 -4 -102 -10 -106 -20 -3 -7 -11 -13 -19 -13 -8 0 -14 -4 -14 -9 0 -5 -14
-12 -30 -16 -21 -5 -30 -13 -30 -26 0 -12 -9 -21 -25 -25 -14 -3 -25 -12 -25
-20 0 -8 -5 -14 -11 -14 -6 0 -9 -7 -5 -15 3 -8 1 -15 -5 -15 -6 0 -9 -6 -6
-14 3 -8 -1 -17 -9 -20 -9 -3 -12 -10 -9 -16 3 -5 2 -10 -3 -10 -11 0 -18 -52
-28 -200 -4 -57 -13 -104 -22 -118 -10 -15 -13 -36 -9 -62 l5 -40 -123 0 c-89
0 -126 4 -134 13 -8 10 -7 17 1 25 8 8 8 15 -1 26 -8 10 -9 16 -1 21 6 3 7 11
3 17 -3 7 -8 61 -9 121 -1 61 -6 113 -11 116 -4 3 -9 15 -10 26 -4 46 -26 125
-34 125 -5 0 -9 7 -9 15 0 8 -4 15 -10 15 -5 0 -10 4 -10 10 0 15 -91 100
-106 100 -8 0 -14 4 -14 9 0 5 -10 12 -23 16 -26 8 -1334 8 -1348 0 -5 -4 -9
-1 -9 4 0 14 -27 14 -32 1 -2 -6 -19 -5 -47 1 -34 8 -46 7 -52 -3 -5 -7 -9 -8
-9 -2 0 15 -262 16 -273 1 -6 -9 -10 -9 -14 1 -6 15 -33 16 -33 1 0 -8 -4 -8
-12 -1 -14 10 -545 15 -562 4 -5 -3 -39 -4 -75 -3 -56 2 -70 -1 -85 -18 -11
-12 -23 -21 -29 -21 -18 0 -77 -32 -77 -42 0 -6 -14 -23 -31 -39 -19 -17 -29
-35 -25 -44 3 -8 1 -15 -5 -15 -6 0 -8 -4 -4 -9 3 -6 -3 -14 -12 -20 -10 -5
-15 -12 -11 -16 3 -4 -2 -34 -11 -68 -11 -42 -18 -108 -19 -202 -2 -116 -6
-142 -19 -152 -17 -13 -305 -19 -348 -7 -30 8 -46 48 -26 62 14 10 14 13 -3
27 -11 8 -14 15 -8 15 16 0 15 27 0 33 -10 4 -10 7 -1 14 17 12 11 118 -8 141
-12 14 -13 22 -5 35 8 13 8 20 -3 26 -11 7 -11 9 0 13 11 4 12 9 1 27 -6 11
-12 31 -12 44 0 12 -9 30 -20 40 -11 9 -20 26 -20 37 0 11 -4 20 -10 20 -5 0
-10 7 -10 15 0 8 -4 15 -10 15 -5 0 -10 5 -10 10 0 18 -49 62 -61 54 -6 -3
-15 -1 -19 6 -6 10 -60 14 -221 16 -138 2 -215 7 -217 14 -5 13 -32 13 -32 0
0 -6 -57 -10 -150 -10 -93 0 -150 4 -150 10 0 6 -7 10 -15 10 -8 0 -15 -4 -15
-10 0 -6 -48 -10 -125 -10 -77 0 -125 4 -125 10 0 13 -67 13 -75 0 -8 -13 -72
-13 -80 1 -9 13 -107 1 -117 -15 -6 -8 -8 -7 -8 2 0 17 -1295 11 -1313 -7 -6
-6 -24 -11 -39 -11 -15 0 -28 -4 -28 -9 0 -10 -10 -14 -62 -25 -16 -4 -28 -13
-28 -21 0 -8 -4 -15 -8 -15 -5 0 -9 -14 -9 -32 0 -18 -5 -34 -11 -36 -7 -2
-10 -8 -6 -13 3 -5 -2 -9 -12 -9 -11 0 -15 -6 -11 -19 3 -11 -2 -30 -11 -42
-17 -25 -20 -34 -29 -123 -3 -38 -9 -53 -14 -45 -9 14 -14 -87 -10 -181 1 -25
-2 -50 -6 -56 -10 -14 -233 -27 -253 -14 -13 8 -12 11 5 24 19 13 19 15 3 21
-10 4 -15 12 -11 18 12 20 12 81 0 89 -9 6 -9 8 1 8 16 0 16 27 0 33 -9 4 -10
8 -2 14 12 9 14 167 1 179 -4 4 -7 22 -7 41 0 18 -4 33 -9 33 -5 0 -7 8 -4 18
2 11 -6 32 -21 49 -14 17 -26 38 -26 47 0 9 -4 16 -10 16 -5 0 -10 5 -10 11 0
17 -23 35 -53 43 -15 3 -27 11 -27 16 0 6 -7 10 -15 10 -8 0 -15 4 -15 8 0 5
-17 8 -37 6 -21 -1 -38 -3 -38 -4 0 -1 -1109 -7 -1779 -9 -257 0 -404 3 -412
10 -15 12 -99 6 -137 -9 -16 -7 -53 -12 -83 -12 -30 0 -54 -4 -54 -10 0 -5 -9
-10 -20 -10 -11 0 -20 -4 -20 -10 0 -5 -11 -10 -25 -10 -16 0 -25 -6 -25 -15
0 -8 -7 -15 -15 -15 -8 0 -15 -5 -15 -11 0 -13 -25 -39 -39 -39 -20 0 -73 -63
-68 -82 3 -11 0 -18 -10 -18 -8 0 -12 -4 -9 -9 3 -5 -1 -12 -10 -15 -8 -3 -12
-10 -9 -16 3 -5 2 -10 -3 -10 -6 0 -13 -12 -17 -28 -12 -43 -15 -172 -5 -172
6 0 13 -18 16 -41 4 -22 12 -46 19 -52 6 -7 15 -29 19 -49 4 -21 13 -44 21
-52 8 -8 15 -21 15 -30 0 -8 11 -25 23 -38 53 -52 97 -88 107 -88 5 0 10 -4
10 -10 0 -5 14 -10 30 -10 20 0 30 -5 30 -15 0 -18 37 -38 55 -31 8 3 21 -1
29 -9 8 -8 33 -15 55 -15 23 0 41 -4 41 -10 0 -16 99 -12 116 5 9 8 25 13 37
10 16 -4 34 6 66 34 24 22 56 43 72 46 16 4 29 11 29 16 0 5 7 9 15 9 8 0 15
7 15 15 0 8 5 15 10 15 6 0 10 6 10 14 0 8 6 17 13 19 9 4 8 8 -3 16 -9 6 -10
11 -3 11 20 0 69 93 69 130 -1 19 3 38 9 42 5 4 10 35 11 70 1 35 3 69 3 76 1
10 36 13 159 11 86 -1 174 2 194 6 26 5 38 4 38 -4 0 -8 36 -9 122 -4 85 4
119 3 115 -4 -5 -7 0 -9 13 -6 12 3 21 0 22 -8 0 -8 2 -25 4 -39 2 -14 5 -56
8 -95 5 -78 35 -205 48 -205 4 0 8 -5 8 -11 0 -6 7 -17 15 -25 8 -9 15 -24 15
-35 0 -10 5 -19 10 -19 6 0 10 -5 10 -11 0 -14 25 -39 39 -39 6 0 11 -4 11
-10 0 -5 7 -10 16 -10 9 0 25 -9 34 -20 10 -12 31 -22 47 -23 15 -1 35 -10 44
-20 23 -24 118 -33 324 -30 94 1 172 3 175 3 25 7 346 -2 354 -10 14 -14 49
-13 64 2 9 9 18 9 37 0 32 -15 80 -15 106 -1 27 14 102 14 107 0 5 -16 207
-15 224 2 15 15 102 14 120 0 19 -15 753 -10 771 5 7 6 39 14 70 18 31 4 57
11 57 15 0 5 9 9 20 9 10 0 29 4 42 9 13 5 35 12 49 15 14 3 31 16 38 30 7 13
25 30 39 37 35 20 93 99 87 119 -3 10 1 23 10 30 18 15 20 40 4 40 -8 0 -8 4
0 14 7 8 12 34 11 58 -1 60 8 190 14 195 6 7 388 5 394 -2 8 -8 8 -165 0 -165
-4 0 -5 -21 -2 -48 8 -73 26 -152 36 -152 4 0 8 -5 8 -11 0 -6 29 -40 63 -75
47 -47 71 -64 90 -64 16 0 32 -8 39 -20 9 -14 24 -20 49 -20 28 0 38 -5 42
-20 5 -20 11 -20 214 -16 114 3 404 5 643 4 239 0 485 1 545 3 126 3 676 0
810 -5 228 -8 282 -8 301 2 10 5 39 16 64 23 46 14 100 54 100 76 0 7 5 13 10
13 6 0 10 5 10 11 0 7 8 19 18 28 54 50 85 256 44 287 -11 9 -12 13 -4 14 13
0 17 30 4 30 -4 0 -8 16 -9 35 -1 19 3 35 8 35 5 0 9 6 9 14 0 17 51 22 203
22 59 -1 107 2 107 7 0 4 7 7 15 7 8 0 15 -4 15 -10 0 -5 7 -10 15 -10 11 0
15 -11 16 -37 1 -66 7 -107 16 -110 4 -2 7 -44 5 -94 -2 -63 0 -94 8 -99 7 -4
13 -20 13 -36 2 -33 10 -45 90 -128 34 -35 68 -61 80 -61 12 -1 33 -7 47 -15
18 -10 77 -13 240 -11 934 6 1245 10 1307 16 62 6 74 4 79 -9 8 -20 38 -21 53
-2 9 11 20 12 49 4 46 -13 92 -14 101 -2 3 5 101 9 217 10 135 0 217 4 225 11
8 5 31 13 53 16 39 6 86 49 128 118 10 16 25 36 36 47 10 10 24 45 31 77 7 33
17 68 22 77 14 27 9 126 -7 139 -19 16 -18 74 2 93 10 10 33 16 64 16 27 0 50
5 52 11 3 9 10 8 25 -1 17 -11 22 -27 27 -99 4 -48 4 -94 1 -103 -4 -9 -2 -19
4 -23 6 -3 11 -22 11 -41 0 -19 4 -34 10 -34 5 0 9 -8 7 -17 -3 -26 35 -163
46 -163 13 0 37 -27 37 -41 0 -16 68 -79 86 -79 8 0 14 -4 14 -8 0 -5 19 -15
43 -23 67 -22 987 -17 987 6 0 8 41 13 133 15 152 4 698 1 832 -4 228 -8 282
-8 301 2 10 5 39 16 64 23 46 14 100 54 100 76 0 7 5 13 10 13 6 0 10 5 10 11
0 7 8 19 18 28 54 50 85 256 44 287 -11 9 -12 13 -4 14 13 0 17 30 4 30 -4 0
-8 16 -9 35 -1 19 3 35 8 35 5 0 9 6 9 14 0 17 51 22 203 22 59 -1 107 2 107
7 0 4 7 7 15 7 8 0 15 -4 15 -10 0 -5 7 -10 15 -10 11 0 15 -11 16 -37 1 -66
7 -107 16 -110 4 -2 7 -44 5 -94 -2 -63 0 -94 8 -99 7 -4 13 -20 13 -36 2 -33
10 -45 90 -128 34 -35 68 -61 80 -61 12 -1 33 -7 47 -15 18 -10 77 -13 240
-11 934 6 1245 10 1307 16 62 6 74 4 79 -9 8 -20 38 -21 53 -2 9 11 20 12 49
4 46 -13 92 -14 101 -2 3 5 101 9 217 10 135 0 217 4 225 11 8 5 31 13 53 16
39 6 86 49 128 118 10 16 25 36 36 47 10 10 24 45 31 77 7 33 17 68 22 77 14
27 9 126 -7 139 -19 16 -18 74 2 93 10 10 33 16 64 16 27 0 50 5 52 11 3 9 10
8 25 -1 17 -11 22 -27 27 -99 4 -48 4 -94 1 -103 -4 -9 -2 -19 4 -23 6 -3 11
-22 11 -41 0 -19 4 -34 10 -34 5 0 9 -8 7 -17 -3 -26 35 -163 46 -163 13 0 37
-27 37 -41 0 -16 68 -79 86 -79 8 0 14 -4 14 -8 0 -37 202 -43 952 -31 151 2
249 0 251 -5 2 -6 57 -9 130 -8 81 2 127 -1 127 -8 0 -5 7 -10 15 -10 8 0 15
4 15 9 0 32 297 39 343 8 17 -11 28 -13 32 -6 4 5 16 7 27 3 12 -4 24 -1 30 7
7 11 11 11 15 2 7 -19 23 -16 44 8 15 18 26 21 60 16 39 -5 99 16 99 36 0 12
27 37 39 37 6 0 11 5 11 10 0 6 17 29 38 51 20 22 40 53 43 67 4 15 7 109 8
209 1 203 -1 196 74 189 20 -2 37 0 37 5 0 5 7 9 15 9 8 0 15 -4 15 -10 0 -5
7 -10 15 -10 11 0 15 -11 16 -37 1 -66 7 -107 16 -110 4 -2 7 -44 5 -94 -2
-63 0 -94 8 -99 7 -4 13 -20 13 -36 2 -33 10 -45 90 -128 34 -35 68 -61 80
-61 12 -1 33 -7 47 -15 18 -10 77 -13 240 -11 934 6 1245 10 1307 16 62 6 74
4 79 -9 8 -20 38 -21 53 -2 9 11 20 12 49 4 46 -13 92 -14 101 -2 3 5 101 9
217 10 135 0 217 4 225 11 8 5 31 13 53 16 39 6 86 49 128 118 10 16 25 36 36
47 10 10 24 45 31 77 7 33 17 68 22 77 14 27 9 126 -7 139 -19 16 -18 74 2 93
10 10 33 16 64 16 27 0 50 5 52 11 3 9 10 8 25 -1 17 -11 22 -27 27 -99 4 -48
4 -94 1 -103 -4 -9 -2 -19 4 -23 6 -3 11 -22 11 -41 0 -19 4 -34 10 -34 5 0 9
-8 7 -17 -3 -26 35 -163 46 -163 13 0 37 -27 37 -41 0 -16 68 -79 86 -79 8 0
14 -4 14 -8 0 -5 19 -15 43 -23 67 -22 987 -17 987 6 0 8 41 13 133 15 152 4
698 1 832 -4 228 -8 282 -8 301 2 10 5 39 16 64 23 46 14 100 54 100 76 0 7 5
13 10 13 6 0 10 5 10 11 0 7 8 19 18 28 54 50 85 256 44 287 -11 9 -12 13 -4
14 13 0 17 30 4 30 -4 0 -8 16 -9 35 -1 19 3 35 8 35 5 0 9 6 9 14 0 17 51 22
203 22 59 -1 107 2 107 7 0 4 7 7 15 7 8 0 15 -4 15 -10 0 -5 7 -10 15 -10 11
0 15 -11 16 -37 1 -66 7 -107 16 -110 4 -2 7 -44 5 -94 -2 -63 0 -94 8 -99 7
-4 13 -20 13 -36 2 -33 10 -45 90 -128 34 -35 68 -61 80 -61 12 -1 33 -7 47
-15 18 -10 77 -13 240 -11 934 6 1245 10 1307 16 62 6 74 4 79 -9 8 -20 38
-21 53 -2 9 11 20 12 49 4 46 -13 92 -14 101 -2 3 5 101 9 217 10 135 0 217 4
225 11 8 5 31 13 53 16 39 6 86 49 128 118 10 16 25 36 36 47 10 10 24 45 31
77 7 33 17 68 22 77 14 27 9 126 -7 139 -19 16 -18 74 2 93 10 10 33 16 64 16
27 0 50 5 52 11 3 9 10 8 25 -1 17 -11 22 -27 27 -99 4 -48 4 -94 1 -103 -4
-9 -2 -19 4 -23 6 -3 11 -22 11 -41 0 -19 4 -34 10 -34 5 0 9 -8 7 -17 -3 -26
35 -163 46 -163 13 0 37 -27 37 -41 0 -16 68 -79 86 -79 8 0 14 -4 14 -8 0
-37 202 -43 952 -31 151 2 249 0 251 -5 2 -6 57 -9 130 -8 81 2 127 -1 127 -8
0 -5 7 -10 15 -10 8 0 15 4 15 9 0 32 297 39 343 8 17 -11 28 -13 32 -6 4 5
16 7 27 3 12 -4 24 -1 30 7 7 11 11 11 15 2 7 -19 23 -16 44 8 15 18 26 21 60
16 39 -5 99 16 99 36 0 12 27 37 39 37 6 0 11 6 11 13 1 6 19 30 40 52 22 22
40 50 40 62 0 12 5 25 10 28 6 3 10 19 10 36 0 16 4 29 9 29 14 0 21 43 10 56
-7 8 -6 14 3 17 10 3 11 9 1 25 -10 16 -10 22 0 25 9 3 9 9 0 25 -9 14 -9 23
-2 27 6 4 6 12 2 18 -5 7 -10 34 -11 60 -4 70 7 76 117 72 51 -2 95 -6 99 -10
4 -4 6 -42 5 -86 -2 -47 1 -79 7 -79 6 0 10 -18 10 -40 0 -22 4 -40 9 -40 4 0
11 -23 14 -51 4 -28 13 -62 22 -75 8 -13 15 -29 15 -36 0 -8 9 -20 20 -28 11
-8 20 -20 20 -28 0 -15 65 -82 80 -82 5 0 10 -4 10 -10 0 -5 9 -10 19 -10 11
0 21 -5 23 -11 2 -6 17 -12 34 -13 17 -2 35 -6 41 -9 13 -8 13 -8 683 -1 327
3 633 6 678 6 59 1 86 -3 92 -12 4 -7 15 -10 24 -7 9 4 16 2 16 -3 0 -17 35
-11 46 8 10 15 29 18 115 20 60 2 106 8 110 14 4 7 22 8 47 5 29 -5 43 -3 52
8 7 8 21 15 31 15 11 0 19 5 19 10 0 6 7 10 15 10 18 0 85 63 85 80 0 7 8 20
19 29 10 9 22 31 25 49 4 17 12 32 18 32 6 0 8 10 4 24 -4 15 0 28 9 36 18 15
20 40 4 40 -8 0 -7 5 1 15 10 12 10 19 2 27 -8 8 -8 15 -1 24 6 7 7 19 3 26
-5 7 -7 27 -5 45 1 18 -2 33 -7 33 -5 0 -12 12 -15 26 -6 34 33 79 61 70 12
-4 26 0 36 9 14 15 21 15 76 -1 l60 -17 1 -86 c0 -119 7 -171 24 -198 8 -12
15 -31 15 -42 0 -10 16 -33 35 -50 26 -22 35 -39 35 -61 0 -20 5 -30 15 -30 8
0 15 -5 15 -11 0 -14 25 -39 39 -39 6 0 11 -4 11 -9 0 -5 15 -13 33 -16 17 -4
39 -13 47 -19 41 -33 92 -37 455 -33 198 3 380 8 405 11 51 8 290 8 558 0 100
-3 182 -2 182 3 0 4 62 8 137 8 100 0 137 3 141 13 2 6 18 12 36 12 17 0 40 6
51 14 11 7 32 16 47 20 43 10 186 162 199 211 6 22 16 43 23 48 8 5 7 9 -3 16
-11 7 -10 13 8 32 17 18 21 31 16 54 -3 17 -7 55 -9 85 -3 70 9 84 69 78 24
-3 45 -2 47 1 2 4 30 5 63 2 l59 -6 -1 -77 c-1 -43 3 -78 8 -78 5 0 9 -16 9
-35 0 -19 5 -35 10 -35 6 0 10 -13 10 -30 0 -20 11 -39 35 -63 19 -19 35 -39
35 -46 0 -6 4 -11 10 -11 5 0 12 -11 16 -25 3 -14 12 -25 20 -25 8 0 14 -4 14
-10 0 -5 7 -10 15 -10 8 0 15 -4 15 -10 0 -5 6 -10 13 -10 7 0 23 -11 35 -25
13 -14 33 -25 47 -25 14 0 25 -4 25 -10 0 -5 6 -10 14 -10 7 0 19 -7 26 -15 7
-8 21 -15 30 -15 10 0 20 -5 22 -10 2 -6 34 -15 71 -20 37 -6 85 -14 106 -19
27 -6 50 -4 77 6 22 8 55 11 77 8 20 -3 37 -1 37 3 0 5 36 12 79 15 74 5 141
28 141 49 0 4 7 8 15 8 8 0 15 5 15 10 0 6 8 10 18 10 19 1 82 54 82 70 0 5 4
10 8 10 9 0 64 52 93 87 9 11 19 32 23 48 4 15 14 34 22 42 8 9 14 25 12 37
-1 11 1 26 5 33 4 6 3 14 -3 18 -5 3 -10 35 -10 71 0 35 -4 72 -9 82 -5 9 -14
43 -21 75 -6 31 -15 57 -20 57 -5 0 -12 17 -16 38 -5 27 -23 53 -71 100 -34
35 -63 67 -63 72 0 5 -20 12 -45 16 -25 3 -45 10 -45 15 0 5 -13 9 -28 9 -16
0 -37 9 -47 20 -17 18 -33 19 -442 20 -234 0 -429 3 -434 6 -5 3 -15 2 -21 -3
-14 -9 -43 -10 -218 -13 -63 -1 -127 1 -142 5 -16 4 -28 3 -28 -1 0 -12 -103
-12 -111 0 -4 5 -24 5 -45 1 -22 -4 -142 -8 -269 -9 -163 -1 -237 -5 -253 -14
-12 -7 -26 -11 -31 -8 -15 10 -86 -16 -125 -45 -22 -16 -44 -29 -49 -29 -12 0
-37 -26 -37 -39 0 -6 -4 -11 -10 -11 -5 0 -10 -7 -10 -15 0 -8 -4 -15 -10 -15
-5 0 -10 -5 -10 -11 0 -6 -7 -17 -15 -25 -8 -9 -18 -33 -21 -55 -4 -21 -10
-39 -15 -39 -16 0 -30 -77 -36 -200 -4 -80 -11 -129 -19 -137 -14 -14 -111
-17 -132 -4 -9 5 -16 55 -21 172 -12 224 -17 261 -42 281 -11 9 -23 33 -26 52
-4 24 -21 50 -54 83 -46 46 -52 49 -136 63 -62 11 -149 15 -286 14 -109 -1
-199 -3 -202 -5 -7 -7 -820 -2 -878 6 -36 5 -62 3 -70 -3 -8 -7 -18 -7 -27 -2
-8 6 -42 9 -75 8 -33 -1 -120 -4 -192 -5z m32 -77 c454 10 586 10 591 3 8 -13
151 -11 160 2 3 6 17 8 33 4 14 -4 216 -8 448 -9 233 -2 426 -5 430 -9 3 -4
18 -7 33 -7 14 0 41 -13 60 -30 19 -16 40 -29 47 -30 6 0 15 -10 18 -22 4 -13
16 -33 28 -45 15 -17 18 -31 14 -58 -4 -21 0 -46 8 -63 13 -24 19 -119 14
-227 -1 -16 -2 -41 -3 -55 -1 -44 -13 -48 -163 -46 -78 0 -144 3 -146 6 -3 3
-8 44 -10 91 -6 99 -24 169 -44 169 -8 0 -25 11 -39 25 -13 13 -33 29 -44 35
-26 14 -270 12 -270 -2 0 -6 -8 -7 -17 -3 -19 7 -464 8 -888 2 -190 -3 -269
-8 -292 -18 -18 -7 -33 -17 -33 -21 0 -4 -8 -17 -17 -28 -20 -23 -52 -114 -53
-148 0 -12 -6 -25 -14 -28 -11 -4 -14 -19 -12 -52 1 -27 -3 -52 -9 -59 -13
-13 -155 -13 -155 0 0 4 -5 7 -11 7 -6 0 -17 6 -24 14 -12 12 -12 18 5 38 14
18 16 28 8 36 -8 8 -8 15 1 26 9 10 9 16 1 21 -6 4 -9 14 -6 22 4 9 1 31 -6
51 -10 28 -10 36 0 39 6 3 12 11 12 18 0 7 -6 16 -12 18 -9 4 -10 8 -2 14 6 4
12 31 13 58 1 30 7 54 15 61 8 5 18 23 22 40 7 28 48 91 69 106 5 4 19 8 31 8
11 0 30 9 42 20 12 11 35 20 52 20 16 0 30 5 30 11 0 6 8 7 23 2 12 -4 40 -8
62 -7z m4439 -1 c11 -8 28 -15 38 -15 10 0 18 -4 18 -9 0 -5 11 -12 25 -15 14
-4 25 -11 25 -16 0 -6 7 -10 15 -10 8 0 15 -7 15 -15 0 -8 7 -15 15 -15 9 0
12 -6 9 -15 -4 -10 0 -15 15 -15 12 0 20 -4 19 -8 -3 -8 47 -62 57 -62 16 0
35 -32 35 -58 0 -17 5 -32 11 -34 8 -3 12 -44 13 -124 1 -102 -2 -123 -16
-138 -10 -10 -18 -24 -18 -33 0 -35 -47 -113 -68 -113 -6 0 -39 -29 -74 -64
-47 -46 -75 -65 -102 -70 -20 -4 -36 -10 -36 -15 0 -14 -103 -32 -210 -36 -58
-2 -120 -6 -137 -10 -22 -5 -33 -3 -33 4 0 6 -8 11 -19 11 -10 0 -24 7 -31 15
-7 8 -21 15 -31 15 -24 0 -72 22 -82 37 -4 7 -17 13 -28 13 -11 0 -25 4 -32
10 -7 5 -27 21 -44 36 -18 14 -33 32 -33 39 0 8 -9 16 -19 20 -17 5 -35 38
-32 58 1 5 -8 21 -19 37 -11 15 -20 37 -20 48 0 11 -6 25 -14 31 -9 8 -13 27
-11 54 1 25 -3 46 -12 55 -12 13 -10 47 4 62 6 7 363 10 386 4 14 -4 17 -17
17 -68 0 -78 14 -119 45 -136 14 -7 25 -17 25 -22 0 -4 9 -8 19 -8 11 0 21 -5
23 -11 4 -13 41 -14 113 -3 40 6 57 15 92 51 24 24 41 48 38 53 -4 6 -2 10 2
10 5 0 9 34 10 76 2 68 0 78 -22 100 -30 30 -107 43 -131 23 -11 -9 -17 -10
-23 -1 -7 11 -149 12 -1125 8 -271 -1 -361 -5 -364 -14 -2 -7 -10 -12 -18 -12
-8 0 -14 -4 -14 -9 0 -5 -15 -12 -33 -15 -22 -4 -39 -15 -47 -31 -7 -14 -17
-25 -22 -25 -4 0 -8 -7 -8 -15 0 -8 -4 -15 -10 -15 -5 0 -10 -7 -10 -15 0 -8
-4 -15 -10 -15 -5 0 -10 -14 -10 -31 0 -16 -5 -50 -11 -75 l-11 -44 -107 -2
c-58 -1 -124 -2 -146 -3 -22 0 -45 1 -50 2 -6 2 -12 59 -13 142 -2 115 0 140
13 151 9 7 13 21 10 31 -4 11 0 26 10 35 9 9 13 24 10 34 -4 14 13 37 64 88
65 64 74 71 123 77 29 3 77 13 106 21 37 10 57 12 66 5 7 -6 34 -8 62 -5 27 3
72 2 101 -4 33 -6 72 -6 105 0 29 5 323 10 655 10 331 0 624 3 650 8 85 14
226 11 247 -5z m-36472 -25 c80 0 108 3 108 13 0 7 3 8 8 2 11 -16 132 -18
132 -3 0 10 2 10 9 -1 7 -10 45 -12 185 -10 97 2 176 1 176 -2 0 -3 75 -5 168
-5 92 1 182 -2 201 -7 39 -10 130 -99 123 -120 -1 -5 2 -15 8 -22 18 -22 23
-80 22 -260 0 -93 -1 -177 -1 -185 -1 -12 -20 -15 -113 -15 -62 -1 -128 -4
-145 -8 -26 -5 -37 -2 -53 15 -12 13 -18 29 -14 40 3 10 2 23 -3 30 -4 7 -8
29 -9 48 0 19 -6 48 -12 63 -7 16 -12 33 -12 38 0 15 -42 69 -54 69 -6 0 -20
14 -31 30 -18 26 -26 30 -68 30 -27 0 -58 -5 -69 -11 -15 -8 -22 -8 -28 0 -10
17 -74 25 -98 12 -15 -8 -34 -8 -71 1 -37 8 -70 8 -128 0 -46 -6 -82 -7 -88
-2 -12 10 -115 10 -664 3 -276 -3 -346 -2 -353 9 -8 10 -11 10 -15 1 -2 -7
-19 -13 -37 -13 -18 0 -38 6 -45 13 -11 10 -14 10 -18 0 -3 -7 -20 -13 -38
-13 -18 0 -36 6 -38 13 -4 9 -8 9 -14 1 -5 -7 -63 -13 -156 -16 -89 -2 -152
-9 -158 -15 -6 -6 -18 -9 -26 -6 -22 9 -53 -35 -53 -74 0 -18 5 -33 10 -33 6
0 10 -13 10 -30 0 -16 4 -30 8 -30 4 0 13 -13 19 -30 11 -29 14 -30 72 -30 34
0 61 4 61 9 0 5 10 11 22 13 13 2 24 11 27 23 2 11 7 23 13 26 5 3 10 19 11
35 2 30 18 54 36 54 6 0 11 4 11 8 0 5 43 10 95 11 116 3 127 -4 114 -70 -4
-24 -8 -70 -9 -102 0 -44 -5 -63 -20 -80 -11 -11 -28 -38 -37 -59 -9 -21 -23
-38 -30 -38 -7 0 -13 -3 -13 -7 0 -5 -20 -17 -45 -28 -25 -11 -45 -23 -45 -27
0 -5 -9 -8 -19 -8 -11 0 -21 -5 -23 -10 -7 -22 -209 -34 -236 -14 -9 7 -27 14
-39 14 -12 0 -28 7 -37 15 -8 8 -18 15 -22 15 -3 0 -14 8 -23 18 -9 9 -29 22
-46 28 -20 6 -29 16 -27 27 2 9 -2 17 -8 17 -5 0 -10 7 -10 15 0 8 -7 15 -16
15 -8 0 -12 4 -9 10 3 5 -5 21 -20 34 -46 43 -82 241 -49 277 8 9 14 26 12 36
-2 10 6 29 19 42 12 14 28 38 34 55 17 39 64 86 86 86 10 0 24 9 31 20 8 14
23 20 47 20 19 0 35 5 35 10 0 6 14 10 30 10 17 0 30 4 30 10 0 14 738 12 746
-2 5 -7 46 -8 128 -3 66 4 187 7 269 6 112 -2 147 1 147 10 0 10 3 10 12 1 8
-8 49 -12 120 -12z m2024 -9 c74 0 134 4 134 9 0 4 17 4 38 -1 54 -13 480 -10
485 4 2 7 8 7 18 1 8 -5 93 -9 189 -9 96 0 193 -4 214 -9 29 -7 37 -6 32 2
-10 16 86 16 101 1 9 -9 39 -9 120 0 129 13 136 13 129 3 -4 -7 427 -8 444 -1
3 1 82 2 175 3 113 1 174 -3 182 -10 6 -6 30 -14 52 -18 23 -3 41 -11 41 -16
0 -6 7 -10 15 -10 8 0 15 -4 15 -10 0 -5 7 -10 15 -10 8 0 15 -4 15 -10 0 -5
8 -10 17 -10 13 0 14 -3 5 -12 -16 -16 -15 -28 3 -28 14 0 20 -12 16 -33 -1
-4 5 -18 14 -30 8 -12 15 -43 15 -68 0 -26 5 -49 10 -51 7 -2 12 -57 13 -143
l2 -140 -165 -5 c-91 -3 -166 -2 -168 2 -2 4 -10 8 -17 8 -7 0 -18 14 -24 30
-6 20 -7 30 0 30 6 0 7 5 2 13 -4 6 -8 37 -9 66 0 32 -6 57 -12 59 -7 2 -12
10 -12 18 0 17 -44 64 -60 64 -5 0 -10 4 -10 8 0 5 -31 16 -68 26 -63 16 -111
17 -583 11 -283 -3 -523 -6 -534 -6 -11 0 -191 2 -400 3 -294 2 -383 0 -393
-9 -7 -7 -22 -13 -32 -13 -21 0 -100 -70 -100 -88 0 -7 -5 -12 -11 -12 -6 0
-8 -7 -5 -16 3 -8 -1 -22 -9 -30 -8 -9 -15 -33 -15 -55 0 -21 -5 -39 -11 -39
-6 0 -8 -9 -4 -21 5 -14 0 -26 -14 -38 -19 -16 -39 -18 -175 -16 -160 2 -185
7 -166 30 8 9 8 15 0 20 -6 3 -8 11 -4 16 3 5 7 64 9 130 3 68 9 127 16 135 6
7 8 22 4 32 -3 12 1 26 11 36 9 9 13 23 10 31 -3 8 -1 15 4 15 6 0 10 5 10 11
0 12 25 39 37 39 4 0 15 15 24 33 12 25 23 33 48 35 18 2 35 10 38 18 4 11 14
13 33 9 18 -4 31 -1 40 9 8 10 21 14 36 10 16 -4 24 -2 25 7 0 11 2 11 6 1 3
-9 40 -12 139 -11z m5019 -4 c566 -3 695 -8 695 -27 0 -4 20 -13 45 -19 28 -7
45 -17 45 -26 0 -8 7 -15 16 -15 8 0 13 -4 9 -9 -3 -5 -1 -12 4 -16 6 -3 8
-12 5 -19 -3 -8 0 -17 5 -21 6 -3 9 -10 6 -15 -3 -5 -1 -11 5 -15 5 -3 10 -15
10 -25 0 -10 5 -20 11 -22 8 -3 12 -63 14 -185 l3 -182 -153 1 c-85 0 -158 -3
-163 -6 -13 -8 -22 17 -22 62 0 21 -9 48 -20 62 -11 14 -20 35 -20 48 0 13
-11 33 -25 46 -14 13 -25 26 -25 30 0 9 -26 36 -35 36 -3 0 -14 8 -25 18 -15
13 -36 17 -107 17 -48 0 -91 4 -94 8 -3 5 -177 8 -385 8 -208 -1 -578 0 -821
0 -318 1 -443 -2 -443 -10 0 -6 -7 -11 -15 -11 -8 0 -15 -4 -15 -10 0 -5 -5
-10 -11 -10 -20 0 -79 -70 -79 -94 0 -14 -7 -31 -15 -40 -17 -17 -20 -36 -5
-36 6 0 10 -24 10 -54 l0 -53 -67 -7 c-84 -8 -333 -9 -341 -2 -3 3 -7 61 -9
128 -3 91 0 138 11 182 12 47 13 62 4 67 -9 6 -8 10 5 15 9 3 17 12 17 20 0 8
5 14 10 14 6 0 10 7 10 15 0 8 5 15 11 15 6 0 8 8 4 19 -7 22 25 61 50 61 8 0
15 5 15 10 0 6 6 10 14 10 8 0 16 3 18 8 2 4 16 14 32 22 26 13 110 15 615 12
322 -2 861 -4 1196 -5z m1986 -1 c14 -3 40 -1 58 4 22 6 46 5 76 -5 34 -10 54
-10 80 -2 24 7 54 7 102 -1 60 -10 69 -10 80 5 10 13 17 14 35 6 18 -9 597
-17 943 -14 11 0 29 -6 40 -13 11 -7 31 -16 45 -19 14 -3 49 -29 79 -57 29
-27 57 -50 61 -50 37 0 103 -249 94 -353 -7 -74 -17 -87 -72 -88 -26 -1 -64
-2 -85 -3 -42 -3 -100 34 -77 49 6 4 10 16 7 26 -3 10 -2 21 2 24 10 6 -9 125
-20 125 -5 0 -9 6 -9 12 0 7 -18 29 -40 49 -51 46 -66 48 -360 44 -124 -2
-449 -5 -723 -6 l-499 -2 -57 -56 c-31 -31 -65 -74 -76 -96 -10 -22 -24 -52
-32 -67 -7 -14 -13 -35 -13 -47 0 -11 -10 -30 -22 -41 -21 -20 -33 -21 -168
-19 -147 2 -178 10 -159 40 12 20 11 63 -2 76 -9 9 -8 15 3 26 11 11 14 35 13
86 -2 39 1 71 5 71 4 0 8 25 9 55 1 41 6 62 21 77 11 12 20 28 20 35 0 7 5 13
10 13 6 0 10 7 10 15 0 8 4 15 10 15 9 0 35 19 64 46 6 6 17 9 25 6 7 -2 23 0
34 6 28 14 187 27 292 24 44 -1 94 2 110 7 17 5 37 8 45 6 8 -2 27 -6 41 -9z
m4114 1 c566 -3 695 -8 695 -27 0 -4 20 -13 45 -19 28 -7 45 -17 45 -26 0 -8
7 -15 16 -15 8 0 13 -4 9 -9 -3 -5 -1 -12 4 -16 6 -3 8 -12 5 -19 -3 -8 0 -17
5 -21 6 -3 9 -10 6 -15 -3 -5 -1 -11 5 -15 5 -3 10 -15 10 -25 0 -10 5 -20 11
-22 8 -3 12 -63 14 -185 l3 -182 -153 1 c-85 0 -158 -3 -163 -6 -13 -8 -22 17
-22 62 0 21 -9 48 -20 62 -11 14 -20 35 -20 48 0 13 -11 33 -25 46 -14 13 -25
26 -25 30 0 9 -26 36 -35 36 -3 0 -14 8 -25 18 -15 13 -36 17 -107 17 -48 0
-91 4 -94 8 -3 5 -177 8 -385 8 -208 -1 -578 0 -821 0 -318 1 -443 -2 -443
-10 0 -6 -7 -11 -15 -11 -8 0 -15 -4 -15 -10 0 -5 -5 -10 -11 -10 -20 0 -79
-70 -79 -94 0 -14 -7 -31 -15 -40 -17 -17 -20 -36 -5 -36 6 0 10 -24 10 -54
l0 -53 -67 -7 c-84 -8 -333 -9 -341 -2 -3 3 -7 61 -9 128 -3 91 0 138 11 182
12 47 13 62 4 67 -9 6 -8 10 5 15 9 3 17 12 17 20 0 8 5 14 10 14 6 0 10 7 10
15 0 8 5 15 11 15 6 0 8 8 4 19 -7 22 25 61 50 61 8 0 15 5 15 10 0 6 6 10 14
10 8 0 16 3 18 8 2 4 16 14 32 22 26 13 110 15 615 12 322 -2 861 -4 1196 -5z
m1986 -1 c14 -3 40 -1 58 4 22 6 46 5 76 -5 34 -10 54 -10 80 -2 24 7 54 7
102 -1 60 -10 69 -10 80 5 10 13 17 14 35 6 18 -9 597 -17 943 -14 11 0 29 -6
40 -13 11 -7 31 -16 45 -19 14 -3 49 -29 79 -57 29 -27 57 -50 61 -50 37 0
103 -249 94 -353 -7 -74 -17 -87 -72 -88 -26 -1 -64 -2 -85 -3 -42 -3 -100 34
-77 49 6 4 10 16 7 26 -3 10 -2 21 2 24 10 6 -9 125 -20 125 -5 0 -9 6 -9 12
0 7 -18 29 -40 49 -51 46 -66 48 -360 44 -124 -2 -449 -5 -723 -6 l-499 -2
-57 -56 c-31 -31 -65 -74 -76 -96 -10 -22 -24 -52 -32 -67 -7 -14 -13 -35 -13
-47 0 -11 -10 -30 -22 -41 -21 -20 -33 -21 -168 -19 -147 2 -178 10 -159 40
12 20 11 63 -2 76 -9 9 -8 15 3 26 11 11 14 35 13 86 -2 39 1 71 5 71 4 0 8
25 9 55 1 41 6 62 21 77 11 12 20 28 20 35 0 7 5 13 10 13 6 0 10 7 10 15 0 8
4 15 10 15 9 0 35 19 64 46 6 6 17 9 25 6 7 -2 23 0 34 6 28 14 187 27 292 24
44 -1 94 2 110 7 17 5 37 8 45 6 8 -2 27 -6 41 -9z m2950 2 c4 -6 38 -11 81
-10 40 0 327 3 638 6 546 5 651 1 670 -25 3 -4 24 -12 48 -18 25 -7 42 -18 42
-26 0 -8 7 -15 16 -15 8 0 13 -4 9 -9 -3 -5 -1 -12 4 -16 6 -3 8 -12 5 -19 -3
-8 0 -17 5 -21 6 -3 9 -10 6 -15 -3 -5 -1 -11 5 -15 5 -3 10 -15 10 -25 0 -10
5 -20 11 -22 8 -3 12 -63 14 -185 l3 -182 -153 1 c-85 0 -158 -3 -163 -6 -13
-8 -22 17 -22 62 0 21 -9 48 -20 62 -11 14 -20 35 -20 48 0 13 -11 33 -25 46
-14 13 -25 26 -25 30 0 9 -26 36 -35 36 -3 0 -14 8 -25 18 -15 13 -36 17 -107
17 -48 0 -91 4 -94 9 -4 5 -187 9 -408 10 -220 0 -401 4 -401 8 0 15 -28 8
-34 -8 -4 -12 -13 -14 -29 -9 -78 23 -98 25 -113 10 -19 -18 -38 -19 -56 -2
-13 13 -104 9 -154 -8 -13 -4 -27 -1 -37 9 -19 20 -25 20 -43 1 -9 -8 -26 -15
-38 -15 -30 0 -82 -53 -90 -91 -3 -18 -13 -37 -20 -43 -10 -7 -16 -35 -18 -83
-2 -52 -7 -74 -17 -78 -21 -8 -259 -8 -272 1 -8 5 -7 9 2 14 10 7 10 12 1 22
-9 11 -9 17 0 26 8 8 8 15 -2 27 -10 12 -10 15 0 15 10 0 11 17 6 70 -4 42 -2
79 4 90 5 10 11 36 13 58 4 43 27 102 40 102 12 0 37 27 37 39 0 6 7 11 16 11
11 0 15 6 12 18 -6 23 15 42 47 42 14 0 25 4 25 9 0 5 73 9 163 9 184 1 387
11 387 21 0 11 94 10 101 -1z m2680 -2 c14 -3 40 -1 58 4 22 6 46 5 76 -5 34
-10 54 -10 80 -2 24 7 54 7 102 -1 60 -10 69 -10 80 5 10 13 17 14 35 6 18 -9
597 -17 943 -14 11 0 29 -6 40 -13 11 -7 31 -16 45 -19 14 -3 49 -29 79 -57
29 -27 57 -50 61 -50 37 0 103 -249 94 -353 -7 -74 -17 -87 -72 -88 -26 -1
-64 -2 -85 -3 -42 -3 -100 34 -77 49 6 4 10 16 7 26 -3 10 -2 21 2 24 10 6 -9
125 -20 125 -5 0 -9 6 -9 12 0 7 -18 29 -40 49 -51 46 -66 48 -360 44 -124 -2
-449 -5 -723 -6 l-499 -2 -57 -56 c-31 -31 -65 -74 -76 -96 -10 -22 -24 -52
-32 -67 -7 -14 -13 -35 -13 -47 0 -11 -10 -30 -22 -41 -21 -20 -33 -21 -168
-19 -147 2 -178 10 -159 40 12 20 11 63 -2 76 -9 9 -8 15 3 26 11 11 14 35 13
86 -2 39 1 71 5 71 4 0 8 25 9 55 1 41 6 62 21 77 11 12 20 28 20 35 0 7 5 13
10 13 6 0 10 7 10 15 0 8 4 15 10 15 9 0 35 19 64 46 6 6 17 9 25 6 7 -2 23 0
34 6 28 14 187 27 292 24 44 -1 94 2 110 7 17 5 37 8 45 6 8 -2 27 -6 41 -9z
m4114 1 c566 -3 695 -8 695 -27 0 -4 20 -13 45 -19 28 -7 45 -17 45 -26 0 -8
7 -15 16 -15 8 0 13 -4 9 -9 -3 -5 -1 -12 4 -16 6 -3 8 -12 5 -19 -3 -8 0 -17
5 -21 6 -3 9 -10 6 -15 -3 -5 -1 -11 5 -15 5 -3 10 -15 10 -25 0 -10 5 -20 11
-22 8 -3 12 -63 14 -185 l3 -182 -153 1 c-85 0 -158 -3 -163 -6 -13 -8 -22 17
-22 62 0 21 -9 48 -20 62 -11 14 -20 35 -20 48 0 13 -11 33 -25 46 -14 13 -25
26 -25 30 0 9 -26 36 -35 36 -3 0 -14 8 -25 18 -15 13 -36 17 -107 17 -48 0
-91 4 -94 8 -3 5 -177 8 -385 8 -208 -1 -578 0 -821 0 -318 1 -443 -2 -443
-10 0 -6 -7 -11 -15 -11 -8 0 -15 -4 -15 -10 0 -5 -5 -10 -11 -10 -20 0 -79
-70 -79 -94 0 -14 -7 -31 -15 -40 -17 -17 -20 -36 -5 -36 6 0 10 -24 10 -54
l0 -53 -67 -7 c-84 -8 -333 -9 -341 -2 -3 3 -7 61 -9 128 -3 91 0 138 11 182
12 47 13 62 4 67 -9 6 -8 10 5 15 9 3 17 12 17 20 0 8 5 14 10 14 6 0 10 7 10
15 0 8 5 15 11 15 6 0 8 8 4 19 -7 22 25 61 50 61 8 0 15 5 15 10 0 6 6 10 14
10 8 0 16 3 18 8 2 4 16 14 32 22 26 13 110 15 615 12 322 -2 861 -4 1196 -5z
m1986 -1 c14 -3 40 -1 58 4 22 6 46 5 76 -5 34 -10 54 -10 80 -2 24 7 54 7
102 -1 60 -10 69 -10 80 5 10 13 17 14 35 6 18 -9 597 -17 943 -14 11 0 29 -6
40 -13 11 -7 31 -16 45 -19 14 -3 49 -29 79 -57 29 -27 57 -50 61 -50 37 0
103 -249 94 -353 -7 -74 -17 -87 -72 -88 -26 -1 -64 -2 -85 -3 -42 -3 -100 34
-77 49 6 4 10 16 7 26 -3 10 -2 21 2 24 10 6 -9 125 -20 125 -5 0 -9 6 -9 12
0 7 -18 29 -40 49 -51 46 -66 48 -360 44 -124 -2 -449 -5 -723 -6 l-499 -2
-57 -56 c-31 -31 -65 -74 -76 -96 -10 -22 -24 -52 -32 -67 -7 -14 -13 -35 -13
-47 0 -11 -10 -30 -22 -41 -21 -20 -33 -21 -168 -19 -147 2 -178 10 -159 40
12 20 11 63 -2 76 -9 9 -8 15 3 26 11 11 14 35 13 86 -2 39 1 71 5 71 4 0 8
25 9 55 1 41 6 62 21 77 11 12 20 28 20 35 0 7 5 13 10 13 6 0 10 7 10 15 0 8
4 15 10 15 9 0 35 19 64 46 6 6 17 9 25 6 7 -2 23 0 34 6 28 14 187 27 292 24
44 -1 94 2 110 7 17 5 37 8 45 6 8 -2 27 -6 41 -9z m2950 2 c6 -10 680 -11
992 -1 77 3 127 0 127 -5 0 -6 23 -15 50 -22 28 -7 50 -16 50 -20 0 -5 15 -10
33 -12 19 -2 31 -8 30 -15 -2 -7 6 -13 18 -13 11 0 18 -4 15 -8 -2 -4 9 -17
25 -27 16 -11 29 -24 29 -29 0 -5 8 -16 18 -25 11 -9 22 -29 26 -46 4 -16 12
-33 18 -36 14 -9 27 -75 29 -154 1 -38 4 -74 7 -80 12 -20 6 -61 -12 -82 -13
-15 -28 -21 -52 -20 -18 2 -36 6 -40 10 -10 9 -59 9 -68 0 -4 -4 -21 -8 -37
-9 -23 -1 -29 2 -29 20 0 11 -4 28 -10 36 -6 9 -5 17 2 21 9 6 8 12 -1 23 -7
8 -10 20 -6 25 3 6 2 27 -4 46 -11 41 -105 135 -134 135 -10 0 -28 5 -40 12
-13 6 -57 10 -105 9 -66 -1 -84 1 -88 14 -7 17 -30 20 -36 5 -1 -5 -49 -13
-105 -16 -83 -6 -104 -4 -108 7 -4 11 -30 14 -115 13 -60 0 -115 -5 -122 -11
-16 -13 -288 -14 -288 -2 0 16 -28 10 -34 -7 -4 -12 -13 -14 -29 -9 -78 23
-98 25 -113 10 -19 -18 -38 -19 -56 -2 -13 13 -104 9 -154 -8 -13 -4 -27 -1
-37 9 -19 20 -25 20 -43 1 -9 -8 -26 -15 -38 -15 -30 0 -82 -53 -90 -91 -3
-18 -13 -37 -20 -43 -10 -7 -16 -35 -18 -83 -2 -52 -7 -74 -17 -78 -21 -8
-259 -8 -272 1 -8 5 -7 9 2 14 10 7 10 12 1 22 -9 11 -9 17 0 26 8 8 8 15 -2
27 -10 12 -10 15 0 15 10 0 11 17 6 70 -4 42 -2 79 4 90 5 10 11 36 13 58 4
43 27 102 40 102 12 0 37 27 37 39 0 6 7 11 16 11 11 0 15 6 12 18 -6 23 15
42 47 42 14 0 25 4 25 9 0 5 73 9 163 9 184 1 387 11 387 21 0 11 94 10 101
-1z m3229 -287 c0 -5 20 -7 44 -6 33 3 49 -2 65 -16 18 -17 21 -31 21 -114 0
-84 2 -96 22 -115 12 -11 29 -20 37 -20 8 0 26 -11 40 -24 20 -18 46 -26 110
-36 88 -12 356 -15 386 -4 9 4 20 3 24 -3 4 -6 55 -7 141 -2 74 5 277 8 450 8
173 1 365 2 427 4 l112 4 55 53 c33 32 55 62 55 74 0 12 4 41 9 66 6 24 8 59
5 77 -5 31 -4 33 24 33 17 0 64 3 104 6 101 9 109 1 109 -112 0 -49 -4 -84
-10 -84 -5 0 -10 -16 -10 -35 0 -19 -4 -35 -10 -35 -5 0 -10 -7 -10 -15 0 -8
-4 -15 -8 -15 -5 0 -14 -18 -21 -40 -9 -29 -17 -40 -31 -40 -11 0 -20 -5 -20
-11 0 -14 -26 -39 -40 -39 -7 0 -29 -13 -49 -29 -46 -36 -93 -43 -306 -43
-127 -1 -167 -4 -176 -14 -13 -16 -115 -19 -124 -4 -8 13 -58 13 -70 1 -16
-15 -125 -25 -125 -12 0 6 -7 11 -15 11 -8 0 -15 -4 -15 -10 0 -6 -90 -10
-249 -10 -156 0 -252 4 -256 10 -10 16 -137 12 -159 -5 -20 -15 -97 -21 -110
-8 -4 4 -44 6 -90 4 -52 -2 -86 1 -90 8 -5 7 -39 10 -87 9 -61 -1 -83 3 -97
15 -10 10 -26 17 -36 17 -9 0 -14 5 -11 10 3 6 2 10 -2 10 -5 0 -16 12 -25 28
-9 15 -28 39 -42 54 -14 15 -26 36 -26 46 0 11 -11 31 -25 46 -18 20 -23 34
-19 52 4 15 2 24 -6 24 -6 0 -8 5 -5 10 4 6 2 16 -3 23 -5 7 -10 45 -11 86 -2
61 1 76 17 91 12 12 28 17 41 13 12 -3 21 -1 21 6 0 6 16 11 35 11 19 0 35 -4
35 -9z m-512 -23 c14 -27 19 -230 7 -273 -4 -16 -14 -36 -22 -43 -7 -7 -13
-23 -13 -36 0 -50 -110 -160 -164 -163 -16 0 -31 -6 -35 -11 -3 -5 -36 -12
-73 -15 -37 -4 -76 -10 -85 -16 -11 -5 -244 -11 -568 -12 -978 -6 -1009 -5
-1036 27 -6 8 -22 14 -35 14 -13 0 -34 11 -48 25 -14 14 -30 25 -36 25 -12 0
-40 24 -40 35 0 3 -9 16 -21 28 -11 12 -23 34 -26 50 -3 15 -9 27 -13 27 -4 0
-10 23 -13 51 -4 28 -11 57 -17 63 -5 7 -8 15 -5 18 3 2 0 42 -6 87 -8 55 -8
85 -1 94 7 8 40 12 94 12 l83 0 6 -65 c5 -63 42 -160 61 -160 5 0 14 -13 19
-30 6 -16 15 -30 20 -30 5 0 9 -6 9 -14 0 -9 16 -17 42 -21 60 -10 668 -12
668 -2 0 4 4 5 10 2 11 -7 393 -10 406 -3 5 2 115 5 244 7 l235 3 43 45 c30
31 42 51 39 64 -3 10 -2 21 2 23 4 3 8 46 8 96 1 51 4 95 8 98 4 4 49 7 101 8
52 1 97 4 101 8 14 13 40 5 51 -16z m978 -26 c36 -44 38 -49 36 -111 -4 -106
1 -102 -105 -95 -103 7 -147 23 -194 71 -29 28 -32 36 -23 58 6 15 10 43 10
64 0 57 11 62 132 60 l106 -2 38 -45z m2870 34 c8 -9 14 -35 14 -66 0 -70 -35
-105 -117 -116 -39 -5 -58 -3 -61 5 -2 6 -8 11 -14 11 -13 0 -38 26 -38 39 0
6 -3 11 -7 11 -5 0 -9 25 -11 55 -3 61 -2 61 88 68 105 8 132 7 146 -7z
m-4179 -12 c7 -6 10 -14 6 -17 -3 -3 -7 -49 -8 -102 -3 -75 -8 -101 -21 -116
-9 -11 -22 -18 -28 -17 -6 1 -21 -3 -33 -10 -13 -7 -33 -10 -47 -6 -13 3 -27
1 -30 -5 -9 -14 -46 -14 -46 -1 0 6 -8 10 -17 11 -11 0 -13 3 -5 6 15 6 16 40
0 45 -7 3 -13 16 -13 29 -1 14 -4 30 -8 36 -8 13 1 43 14 43 5 0 9 13 9 28 0
18 11 40 31 60 30 30 33 31 107 29 43 -1 82 -7 89 -13z m-31955 -16 c14 -16
18 -39 19 -92 1 -101 5 -140 18 -144 6 -2 11 -8 11 -14 0 -21 58 -58 90 -58
11 0 31 -6 43 -14 19 -13 128 -14 762 -10 1085 7 1033 6 1039 20 2 6 23 15 45
19 24 4 42 13 43 21 0 8 1 20 2 27 1 6 8 17 16 24 8 7 11 13 7 13 -4 0 1 10
12 22 17 17 20 32 17 90 -1 41 2 72 8 76 6 3 88 6 181 7 133 0 172 -3 181 -14
16 -21 7 -240 -11 -268 -8 -12 -15 -30 -15 -40 0 -10 -12 -29 -25 -42 -14 -13
-25 -27 -25 -32 0 -5 -5 -9 -11 -9 -6 0 -20 -11 -31 -25 -11 -14 -30 -25 -43
-25 -13 0 -27 -4 -30 -10 -3 -5 -15 -10 -25 -10 -10 0 -20 -5 -22 -12 -2 -6
-20 -11 -39 -11 -18 0 -37 -4 -40 -9 -3 -4 -93 -10 -200 -12 -107 -2 -194 -5
-194 -6 0 0 -274 -3 -610 -5 -335 -2 -617 -4 -625 -5 -8 0 -55 2 -105 6 -49 4
-97 6 -105 6 -163 -6 -293 -3 -299 7 -5 8 -27 10 -71 6 -35 -3 -66 -2 -69 2
-11 15 -60 43 -76 43 -8 0 -15 5 -15 10 0 6 -5 10 -12 10 -22 0 -118 103 -118
126 0 12 -9 33 -20 47 -15 19 -17 27 -8 31 10 4 9 8 -2 18 -17 15 -19 24 -22
123 -3 83 13 114 63 124 17 3 91 7 162 8 121 2 132 0 149 -19z m341 11 c22 0
45 -6 54 -14 8 -8 25 -15 38 -15 44 0 85 -85 85 -176 0 -70 -15 -84 -91 -84
-33 0 -59 4 -59 10 0 6 -32 9 -79 8 -61 -1 -86 3 -106 16 -35 23 -65 54 -65
66 0 5 -11 12 -25 16 -24 6 -25 10 -25 80 0 65 3 75 21 85 12 6 38 9 58 7 20
-3 45 -1 56 3 11 5 38 6 60 3 22 -4 57 -6 78 -5z m30215 5 c35 -5 52 -11 52
-21 0 -7 14 -16 30 -19 17 -4 30 -13 30 -20 0 -8 5 -14 10 -14 6 0 10 -5 10
-10 0 -6 9 -30 20 -52 21 -44 27 -118 10 -118 -5 0 -10 -7 -10 -15 0 -17 -18
-19 -53 -6 -13 5 -50 6 -83 2 -78 -9 -177 9 -207 37 -13 12 -29 22 -36 22 -7
0 -10 4 -6 9 3 6 -1 13 -9 18 -8 4 -15 13 -17 18 -1 6 -4 16 -7 23 -2 7 -2 28
1 47 3 19 2 35 -4 35 -5 0 -9 14 -9 31 l0 31 63 -6 c35 -4 73 -3 87 3 30 12
58 13 128 5z m4146 -31 c0 -21 3 -41 9 -45 6 -3 11 -26 11 -49 1 -41 -1 -44
-32 -55 -19 -6 -37 -16 -41 -23 -8 -13 -37 -18 -148 -25 -67 -4 -73 -3 -73 14
0 10 -5 22 -11 26 -8 5 -7 10 4 16 12 6 15 17 10 38 -3 19 -1 30 6 30 6 0 11
5 11 11 0 11 25 39 35 39 3 0 16 9 27 20 13 11 29 18 39 15 10 -3 23 1 31 9 8
10 32 15 68 16 l56 0 -2 -37z m-36319 17 c3 -5 28 -10 55 -10 33 0 50 -5 54
-15 3 -8 1 -15 -4 -15 -6 0 -10 -6 -10 -14 0 -21 -48 -56 -76 -56 -13 0 -24 5
-24 10 0 6 -6 10 -13 10 -8 0 -13 17 -15 50 -1 38 1 50 12 50 8 0 18 -4 21
-10z m10523 -10 c12 -11 26 -20 32 -20 18 0 0 -102 -21 -123 -11 -10 -19 -22
-19 -27 0 -6 -7 -10 -15 -10 -8 0 -15 -5 -15 -11 0 -20 -33 -38 -67 -39 -18 0
-33 -4 -33 -10 0 -6 -48 -10 -123 -10 -111 0 -126 2 -142 20 -17 19 -17 20 -1
20 9 0 15 4 12 9 -4 5 0 11 6 14 10 3 10 7 1 18 -23 29 22 109 62 109 8 0 15
5 15 10 0 6 6 10 14 10 7 0 19 7 27 16 8 10 21 13 36 9 13 -3 23 -1 23 5 0 6
34 10 85 10 50 0 85 4 85 10 0 16 14 12 38 -10z m250 5 c1 -1 4 -74 5 -161 2
-168 3 -164 -49 -218 -11 -12 -29 -34 -39 -49 -9 -15 -24 -27 -31 -27 -8 0
-14 -4 -14 -10 0 -5 -7 -10 -15 -10 -8 0 -15 -4 -15 -10 0 -6 -33 -10 -80 -10
-44 0 -80 -4 -80 -8 0 -5 -19 -7 -42 -6 -24 1 -50 -3 -58 -10 -17 -15 -82 -14
-102 0 -7 6 -35 9 -63 8 -27 -1 -72 -4 -100 -5 -27 -1 -59 -8 -69 -15 -15 -10
-24 -10 -40 -1 -33 18 -903 18 -934 0 -12 -8 -28 -11 -34 -7 -14 9 -198 11
-198 3 0 -11 -40 -18 -46 -8 -3 5 -104 9 -225 9 -139 0 -219 4 -219 10 0 6 -7
10 -15 10 -8 0 -15 5 -15 10 0 6 -7 10 -15 10 -8 0 -15 -5 -15 -11 0 -6 -13 3
-30 19 -16 17 -30 34 -30 39 0 5 -8 15 -19 22 -10 8 -16 21 -14 30 2 10 -3 23
-11 30 -10 8 -16 29 -16 55 0 22 -6 53 -14 68 -9 18 -11 29 -4 36 7 7 7 25 -1
56 -6 25 -11 65 -11 90 0 53 -19 47 168 50 63 0 118 -2 124 -5 5 -3 14 -37 21
-75 6 -38 14 -71 17 -74 3 -3 12 -24 18 -47 8 -25 19 -43 27 -43 8 0 15 -7 15
-15 0 -10 10 -15 31 -15 17 0 45 -6 62 -14 18 -8 61 -17 97 -21 66 -5 904 -7
1210 -2 91 1 171 -2 178 -7 7 -5 17 -4 25 2 8 7 57 8 142 3 72 -3 145 -4 162
-1 24 4 55 27 113 84 44 43 77 83 74 87 -3 5 0 9 6 9 8 0 10 21 7 70 l-4 70
34 0 c18 0 33 4 33 9 0 7 89 4 98 -4z m598 7 c52 -2 62 -5 67 -22 3 -11 0 -20
-5 -20 -7 0 -8 -21 -4 -62 4 -35 7 -72 7 -82 0 -21 32 -71 64 -98 70 -61 58
-58 214 -60 80 0 153 0 161 1 8 1 110 4 225 6 116 2 229 7 251 10 23 4 44 3
47 -2 3 -4 47 -7 99 -5 51 2 201 5 333 6 254 4 365 12 365 27 0 4 17 13 38 19
21 6 60 32 91 61 54 51 55 52 52 105 -1 33 2 54 8 54 6 0 11 7 11 15 0 8 7 15
15 15 8 0 15 5 15 11 0 7 38 10 120 7 66 -1 120 0 120 5 0 15 29 6 34 -10 13
-49 17 -83 8 -83 -13 0 -9 -49 5 -76 25 -45 -2 -234 -33 -234 -7 0 -15 -14
-19 -30 -4 -20 -13 -30 -24 -30 -10 0 -31 -11 -46 -24 -15 -13 -34 -22 -42
-19 -7 3 -19 0 -27 -6 -10 -8 -102 -12 -302 -12 -165 -1 -294 -5 -301 -11 -7
-6 -14 -5 -18 2 -5 7 -25 9 -58 5 -77 -10 -217 -11 -217 -2 0 10 -128 9 -135
-2 -3 -6 -18 -6 -38 0 -47 13 -107 11 -107 -3 0 -9 -3 -10 -8 -2 -11 16 -82
16 -82 0 0 -11 -62 -14 -336 -15 -185 -1 -341 -4 -347 -8 -5 -3 -42 -7 -81 -7
-93 -2 -241 33 -262 62 -8 11 -24 22 -36 24 -14 2 -24 13 -29 32 -5 16 -16 38
-27 50 -22 25 -45 119 -48 196 -1 30 -5 88 -9 129 -5 48 -4 75 3 80 9 5 139 7
288 3z m5252 -12 c12 -11 26 -20 32 -20 18 0 0 -102 -21 -123 -11 -10 -19 -22
-19 -27 0 -6 -7 -10 -15 -10 -8 0 -15 -5 -15 -11 0 -20 -33 -38 -67 -39 -18 0
-33 -4 -33 -10 0 -6 -48 -10 -123 -10 -111 0 -126 2 -142 20 -17 19 -17 20 -1
20 9 0 15 4 12 9 -4 5 0 11 6 14 10 3 10 7 1 18 -23 29 22 109 62 109 8 0 15
5 15 10 0 6 6 10 14 10 7 0 19 7 27 16 8 10 21 13 36 9 13 -3 23 -1 23 5 0 6
34 10 85 10 50 0 85 4 85 10 0 16 14 12 38 -10z m250 5 c1 -1 4 -74 5 -161 2
-168 3 -164 -49 -218 -11 -12 -29 -34 -39 -49 -9 -15 -24 -27 -31 -27 -8 0
-14 -4 -14 -10 0 -5 -7 -10 -15 -10 -8 0 -15 -4 -15 -10 0 -6 -33 -10 -80 -10
-44 0 -80 -4 -80 -8 0 -5 -19 -7 -42 -6 -24 1 -50 -3 -58 -10 -17 -15 -82 -14
-102 0 -7 6 -35 9 -63 8 -27 -1 -72 -4 -100 -5 -27 -1 -59 -8 -69 -15 -15 -10
-24 -10 -40 -1 -33 18 -903 18 -934 0 -12 -8 -28 -11 -34 -7 -14 9 -198 11
-198 3 0 -11 -40 -18 -46 -8 -3 5 -104 9 -225 9 -139 0 -219 4 -219 10 0 6 -7
10 -15 10 -8 0 -15 5 -15 10 0 6 -7 10 -15 10 -8 0 -15 -5 -15 -11 0 -6 -13 3
-30 19 -16 17 -30 34 -30 39 0 5 -8 15 -19 22 -10 8 -16 21 -14 30 2 10 -3 23
-11 30 -10 8 -16 29 -16 55 0 22 -6 53 -14 68 -9 18 -11 29 -4 36 7 7 7 25 -1
56 -6 25 -11 65 -11 90 0 53 -19 47 168 50 63 0 118 -2 124 -5 5 -3 14 -37 21
-75 6 -38 14 -71 17 -74 3 -3 12 -24 18 -47 8 -25 19 -43 27 -43 8 0 15 -7 15
-15 0 -10 10 -15 31 -15 17 0 45 -6 62 -14 18 -8 61 -17 97 -21 66 -5 904 -7
1210 -2 91 1 171 -2 178 -7 7 -5 17 -4 25 2 8 7 57 8 142 3 72 -3 145 -4 162
-1 24 4 55 27 113 84 44 43 77 83 74 87 -3 5 0 9 6 9 8 0 10 21 7 70 l-4 70
34 0 c18 0 33 4 33 9 0 7 89 4 98 -4z m598 7 c52 -2 62 -5 67 -22 3 -11 0 -20
-5 -20 -7 0 -8 -21 -4 -62 4 -35 7 -72 7 -82 0 -11 10 -33 22 -50 19 -28 37
-45 87 -88 18 -16 286 -26 410 -16 47 4 306 7 575 6 429 0 494 2 520 16 17 9
36 16 43 16 24 0 124 111 119 131 -3 11 -1 21 3 24 5 3 8 35 8 70 -1 36 2 68
6 72 4 4 52 7 106 8 87 0 101 -2 106 -17 3 -10 2 -23 -1 -28 -4 -6 -2 -16 3
-23 5 -7 12 -47 16 -89 5 -60 3 -92 -13 -150 -35 -129 -41 -142 -71 -177 -25
-28 -39 -35 -80 -39 -28 -2 -50 -8 -50 -13 0 -4 -15 -10 -32 -13 -18 -3 -393
-8 -832 -11 -440 -3 -804 -9 -809 -12 -5 -3 -42 -7 -81 -7 -93 -2 -241 33
-262 62 -8 11 -24 22 -36 24 -14 2 -24 13 -29 32 -5 16 -16 38 -27 50 -22 25
-45 119 -48 196 -1 30 -5 88 -9 129 -5 48 -4 75 3 80 9 5 139 7 288 3z m1727
-4 c3 -10 8 -10 21 1 15 13 20 12 40 -10 l23 -25 -17 -69 c-18 -73 -60 -125
-100 -125 -11 0 -20 -4 -20 -9 0 -13 -133 -23 -161 -12 -13 5 -20 10 -15 10 5
1 3 7 -3 15 -9 10 -9 16 -1 21 8 5 8 11 -1 21 -10 12 -8 17 6 28 13 9 15 15 7
20 -19 11 -15 22 23 63 19 21 35 43 35 49 0 15 35 23 88 19 23 -1 45 2 48 6 8
13 22 11 27 -3z m3055 -8 c12 -11 26 -20 32 -20 18 0 0 -102 -21 -123 -11 -10
-19 -22 -19 -27 0 -6 -7 -10 -15 -10 -8 0 -15 -5 -15 -11 0 -20 -33 -38 -67
-39 -18 0 -33 -4 -33 -10 0 -6 -48 -10 -123 -10 -111 0 -126 2 -142 20 -17 19
-17 20 -1 20 9 0 15 4 12 9 -4 5 0 11 6 14 10 3 10 7 1 18 -23 29 22 109 62
109 8 0 15 5 15 10 0 6 6 10 14 10 7 0 19 7 27 16 8 10 21 13 36 9 13 -3 23
-1 23 5 0 6 34 10 85 10 50 0 85 4 85 10 0 16 14 12 38 -10z m250 5 c1 -1 4
-74 5 -161 2 -168 3 -164 -49 -218 -11 -12 -29 -34 -39 -49 -9 -15 -24 -27
-31 -27 -8 0 -14 -4 -14 -10 0 -5 -7 -10 -15 -10 -8 0 -15 -4 -15 -10 0 -6
-33 -10 -80 -10 -44 0 -80 -4 -80 -8 0 -5 -19 -7 -42 -6 -24 1 -50 -3 -58 -10
-17 -15 -82 -14 -102 0 -7 6 -35 9 -63 8 -27 -1 -72 -4 -100 -5 -27 -1 -59 -8
-69 -15 -15 -10 -24 -10 -40 -1 -33 18 -903 18 -934 0 -12 -8 -28 -11 -34 -7
-14 9 -198 11 -198 3 0 -11 -40 -18 -46 -8 -3 5 -104 9 -225 9 -139 0 -219 4
-219 10 0 6 -7 10 -15 10 -8 0 -15 5 -15 10 0 6 -7 10 -15 10 -8 0 -15 -5 -15
-11 0 -6 -13 3 -30 19 -16 17 -30 34 -30 39 0 5 -8 15 -19 22 -10 8 -16 21
-14 30 2 10 -3 23 -11 30 -10 8 -16 29 -16 55 0 22 -6 53 -14 68 -9 18 -11 29
-4 36 7 7 7 25 -1 56 -6 25 -11 65 -11 90 0 53 -19 47 168 50 63 0 118 -2 124
-5 5 -3 14 -37 21 -75 6 -38 14 -71 17 -74 3 -3 12 -24 18 -47 8 -25 19 -43
27 -43 8 0 15 -7 15 -15 0 -10 10 -15 31 -15 17 0 45 -6 62 -14 18 -8 61 -17
97 -21 66 -5 904 -7 1210 -2 91 1 171 -2 178 -7 7 -5 17 -4 25 2 8 7 57 8 142
3 72 -3 145 -4 162 -1 24 4 55 27 113 84 44 43 77 83 74 87 -3 5 0 9 6 9 8 0
10 21 7 70 l-4 70 34 0 c18 0 33 4 33 9 0 7 89 4 98 -4z m598 7 c52 -2 62 -5
67 -22 3 -11 0 -20 -5 -20 -7 0 -8 -21 -4 -62 4 -35 7 -72 7 -82 0 -21 32 -71
64 -98 70 -61 58 -58 214 -60 80 0 153 0 161 1 8 1 110 4 225 6 116 2 229 7
251 10 23 4 44 3 47 -2 3 -4 47 -7 99 -5 51 2 201 5 333 6 254 4 365 12 365
27 0 4 17 13 38 19 21 6 60 32 91 61 54 51 55 52 52 105 -1 33 2 54 8 54 6 0
11 7 11 15 0 8 7 15 15 15 8 0 15 5 15 11 0 7 38 10 120 7 66 -1 120 0 120 5
0 15 29 6 34 -10 13 -49 17 -83 8 -83 -13 0 -9 -49 5 -76 25 -45 -2 -234 -33
-234 -7 0 -15 -14 -19 -30 -4 -20 -13 -30 -24 -30 -10 0 -31 -11 -46 -24 -15
-13 -34 -22 -42 -19 -7 3 -19 0 -27 -6 -10 -8 -102 -12 -302 -12 -165 -1 -294
-5 -301 -11 -7 -6 -14 -5 -18 2 -5 7 -25 9 -58 5 -77 -10 -217 -11 -217 -2 0
10 -128 9 -135 -2 -3 -6 -18 -6 -38 0 -47 13 -107 11 -107 -3 0 -9 -3 -10 -8
-2 -11 16 -82 16 -82 0 0 -11 -62 -14 -336 -15 -185 -1 -341 -4 -347 -8 -5 -3
-42 -7 -81 -7 -93 -2 -241 33 -262 62 -8 11 -24 22 -36 24 -14 2 -24 13 -29
32 -5 16 -16 38 -27 50 -22 25 -45 119 -48 196 -1 30 -5 88 -9 129 -5 48 -4
75 3 80 9 5 139 7 288 3z m5252 -12 c12 -11 26 -20 32 -20 18 0 0 -102 -21
-123 -11 -10 -19 -22 -19 -27 0 -6 -7 -10 -15 -10 -8 0 -15 -5 -15 -11 0 -20
-33 -38 -67 -39 -18 0 -33 -4 -33 -10 0 -6 -48 -10 -123 -10 -111 0 -126 2
-142 20 -17 19 -17 20 -1 20 9 0 15 4 12 9 -4 5 0 11 6 14 10 3 10 7 1 18 -23
29 22 109 62 109 8 0 15 5 15 10 0 6 6 10 14 10 7 0 19 7 27 16 8 10 21 13 36
9 13 -3 23 -1 23 5 0 6 34 10 85 10 50 0 85 4 85 10 0 16 14 12 38 -10z m250
5 c1 -1 4 -74 5 -161 2 -168 3 -164 -49 -218 -11 -12 -29 -34 -39 -49 -9 -15
-24 -27 -31 -27 -8 0 -14 -4 -14 -10 0 -5 -7 -10 -15 -10 -8 0 -15 -4 -15 -10
0 -6 -33 -10 -80 -10 -44 0 -80 -4 -80 -8 0 -5 -19 -7 -42 -6 -24 1 -50 -3
-58 -10 -17 -15 -82 -14 -102 0 -7 6 -35 9 -63 8 -27 -1 -72 -4 -100 -5 -27
-1 -59 -8 -69 -15 -15 -10 -24 -10 -40 -1 -33 18 -903 18 -934 0 -12 -8 -28
-11 -34 -7 -14 9 -198 11 -198 3 0 -11 -40 -18 -46 -8 -3 5 -104 9 -225 9
-139 0 -219 4 -219 10 0 6 -7 10 -15 10 -8 0 -15 5 -15 10 0 6 -7 10 -15 10
-8 0 -15 -5 -15 -11 0 -6 -13 3 -30 19 -16 17 -30 34 -30 39 0 5 -8 15 -19 22
-10 8 -16 21 -14 30 2 10 -3 23 -11 30 -10 8 -16 29 -16 55 0 22 -6 53 -14 68
-9 18 -11 29 -4 36 7 7 7 25 -1 56 -6 25 -11 65 -11 90 0 53 -19 47 168 50 63
0 118 -2 124 -5 5 -3 14 -37 21 -75 6 -38 14 -71 17 -74 3 -3 12 -24 18 -47 8
-25 19 -43 27 -43 8 0 15 -7 15 -15 0 -10 10 -15 31 -15 17 0 45 -6 62 -14 18
-8 61 -17 97 -21 66 -5 904 -7 1210 -2 91 1 171 -2 178 -7 7 -5 17 -4 25 2 8
7 57 8 142 3 72 -3 145 -4 162 -1 24 4 55 27 113 84 44 43 77 83 74 87 -3 5 0
9 6 9 8 0 10 21 7 70 l-4 70 34 0 c18 0 33 4 33 9 0 7 89 4 98 -4z m598 7 c52
-2 62 -5 67 -22 3 -11 0 -20 -5 -20 -7 0 -8 -21 -4 -62 4 -35 7 -72 7 -82 0
-11 10 -33 22 -50 19 -28 37 -45 87 -88 18 -16 286 -26 410 -16 47 4 306 7
575 6 429 0 494 2 520 16 17 9 36 16 43 16 24 0 124 111 119 131 -3 11 -1 21
3 24 5 3 8 35 8 70 -1 36 2 68 6 72 4 4 52 7 106 8 87 0 101 -2 106 -17 3 -10
2 -23 -1 -28 -4 -6 -2 -16 3 -23 5 -7 12 -47 16 -89 5 -60 3 -92 -13 -150 -35
-129 -41 -142 -71 -177 -25 -28 -39 -35 -80 -39 -28 -2 -50 -8 -50 -13 0 -4
-15 -10 -32 -13 -18 -3 -393 -8 -832 -11 -440 -3 -804 -9 -809 -12 -5 -3 -42
-7 -81 -7 -93 -2 -241 33 -262 62 -8 11 -24 22 -36 24 -14 2 -24 13 -29 32 -5
16 -16 38 -27 50 -22 25 -45 119 -48 196 -1 30 -5 88 -9 129 -5 48 -4 75 3 80
9 5 139 7 288 3z m1727 -4 c3 -10 8 -10 21 1 15 13 20 12 40 -10 l23 -25 -17
-69 c-18 -73 -60 -125 -100 -125 -11 0 -20 -4 -20 -9 0 -13 -133 -23 -161 -12
-13 5 -20 10 -15 10 5 1 3 7 -3 15 -9 10 -9 16 -1 21 8 5 8 11 -1 21 -10 12
-8 17 6 28 13 9 15 15 7 20 -19 11 -15 22 23 63 19 21 35 43 35 49 0 15 35 23
88 19 23 -1 45 2 48 6 8 13 22 11 27 -3z m-25543 -19 c8 -9 27 -19 41 -22 23
-6 28 -16 44 -78 18 -77 14 -139 -10 -139 -8 0 -15 -4 -15 -10 0 -14 -46 -12
-70 3 -17 10 -22 9 -30 -3 -6 -10 -10 -11 -10 -2 0 6 -7 12 -15 12 -8 0 -15
-6 -16 -12 0 -10 -2 -10 -6 0 -3 7 -26 12 -62 12 -45 0 -62 4 -76 20 -10 11
-14 20 -9 20 5 0 0 7 -10 15 -11 8 -16 15 -10 15 5 0 1 7 -10 15 -14 11 -17
21 -11 42 7 28 13 72 14 106 1 16 10 17 91 14 50 -2 90 -1 90 3 0 14 65 5 80
-11z m2214 4 c13 -49 17 -83 8 -83 -13 0 -9 -49 5 -76 25 -45 -2 -234 -33
-234 -7 0 -15 -13 -19 -30 -4 -20 -13 -30 -24 -30 -10 0 -31 -11 -46 -24 -15
-13 -34 -22 -42 -19 -7 3 -19 0 -27 -6 -10 -8 -102 -12 -302 -12 -165 -1 -294
-5 -301 -11 -7 -6 -14 -5 -18 2 -5 7 -25 9 -58 5 -77 -10 -217 -11 -217 -2 0
10 -128 9 -135 -2 -3 -6 -18 -6 -38 0 -47 13 -107 11 -108 -3 0 -9 -2 -10 -5
-1 -7 17 -274 18 -275 1 0 -10 -2 -10 -6 0 -3 7 -25 12 -62 12 -32 0 -62 5
-69 12 -9 9 -15 10 -20 2 -4 -7 -48 -13 -105 -16 -71 -3 -101 -8 -107 -18 -7
-12 -12 -10 -28 8 -22 25 -38 28 -46 10 -5 -10 -7 -10 -12 0 -7 14 -34 16 -34
2 0 -5 -25 -10 -55 -10 -30 0 -55 5 -55 10 0 6 -9 10 -20 10 -11 0 -20 -6 -20
-12 0 -9 -4 -8 -10 2 -8 12 -13 13 -30 2 -26 -16 -67 -16 -73 1 -3 9 -9 9 -25
0 -16 -10 -22 -10 -26 0 -3 9 -8 8 -16 -3 -9 -11 -13 -12 -17 -2 -6 14 -43 16
-43 2 0 -5 -13 -10 -30 -10 -16 0 -30 5 -30 10 0 14 -27 12 -34 -2 -5 -10 -7
-10 -12 0 -7 16 -34 16 -35 0 0 -10 -2 -10 -6 0 -2 6 -11 12 -19 12 -8 0 -14
5 -14 10 0 6 -19 10 -43 10 -31 0 -46 5 -57 20 -8 11 -20 20 -27 20 -7 0 -13
5 -13 10 0 6 -5 10 -12 10 -20 0 -66 60 -73 96 -3 19 -13 38 -21 41 -13 5 -13
7 -2 14 10 7 11 12 1 28 -8 13 -9 22 -2 26 6 4 6 11 1 18 -5 7 -8 48 -6 92 1
44 3 88 3 97 1 16 17 18 196 17 190 -1 200 -2 196 -31 -2 -21 31 -174 39 -176
5 -2 10 -10 10 -18 0 -24 62 -74 90 -74 14 0 32 -6 38 -12 18 -18 920 -23
1004 -6 36 6 63 7 70 1 7 -5 54 -7 103 -6 50 2 198 5 330 7 254 4 365 12 365
27 0 4 17 13 38 19 21 6 60 32 91 61 54 51 55 52 52 105 -1 33 2 54 8 54 6 0
11 7 11 15 0 8 7 15 15 15 8 0 15 5 15 11 0 7 38 10 120 7 66 -1 120 0 120 5
0 15 29 6 34 -10z m1029 5 c3 -10 7 -10 18 -2 17 14 92 10 97 -5 2 -6 15 -11
28 -11 14 0 36 -13 54 -31 28 -30 30 -36 30 -113 0 -94 -11 -115 -44 -85 -13
13 -29 18 -42 15 -31 -8 -145 5 -138 15 3 5 -8 9 -25 9 -31 0 -91 51 -91 78 0
6 -3 12 -8 12 -8 0 -32 71 -32 95 0 12 14 15 65 15 37 0 65 4 65 10 0 14 18
12 23 -2z m3041 0 c5 -10 7 -10 12 0 8 17 34 15 34 -3 0 -8 3 -15 8 -15 4 0
23 -14 41 -30 32 -30 70 -120 51 -120 -5 0 -12 -16 -16 -35 -5 -30 -10 -35
-43 -40 -20 -3 -48 -8 -63 -10 -15 -2 -30 0 -33 5 -3 6 -16 10 -28 10 -12 0
-33 9 -47 20 -14 11 -29 20 -35 20 -5 0 -23 21 -39 46 -21 34 -27 52 -22 74 3
17 9 44 12 60 l6 30 78 0 c53 0 80 -4 84 -12z m3059 0 c3 -10 7 -10 18 -2 17
14 92 10 97 -5 2 -6 15 -11 28 -11 14 0 36 -13 54 -31 28 -30 30 -36 30 -113
0 -94 -11 -115 -44 -85 -13 13 -29 18 -42 15 -31 -8 -145 5 -138 15 3 5 -8 9
-25 9 -31 0 -91 51 -91 78 0 6 -3 12 -8 12 -8 0 -32 71 -32 95 0 12 14 15 65
15 37 0 65 4 65 10 0 14 18 12 23 -2z m3041 0 c5 -10 7 -10 12 0 8 17 34 15
34 -3 0 -8 3 -15 8 -15 4 0 23 -14 41 -30 32 -30 70 -120 51 -120 -5 0 -12
-16 -16 -35 -5 -30 -10 -35 -43 -40 -20 -3 -48 -8 -63 -10 -15 -2 -30 0 -33 5
-3 6 -16 10 -28 10 -12 0 -33 9 -47 20 -14 11 -29 20 -35 20 -5 0 -23 21 -39
46 -21 34 -27 52 -22 74 3 17 9 44 12 60 l6 30 78 0 c53 0 80 -4 84 -12z
m2589 0 c3 -10 7 -10 18 -2 17 14 92 10 97 -5 2 -6 15 -11 28 -11 14 0 36 -13
54 -31 28 -30 30 -36 30 -113 0 -94 -11 -115 -44 -85 -13 13 -29 18 -42 15
-31 -8 -145 5 -138 15 3 5 -8 9 -25 9 -31 0 -91 51 -91 78 0 6 -3 12 -8 12 -8
0 -32 71 -32 95 0 12 14 15 65 15 37 0 65 4 65 10 0 14 18 12 23 -2z m3041 0
c5 -10 7 -10 12 0 8 17 34 15 34 -3 0 -8 3 -15 8 -15 4 0 23 -14 41 -30 32
-30 70 -120 51 -120 -5 0 -12 -16 -16 -35 -5 -30 -10 -35 -43 -40 -20 -3 -48
-8 -63 -10 -15 -2 -30 0 -33 5 -3 6 -16 10 -28 10 -12 0 -33 9 -47 20 -14 11
-29 20 -35 20 -5 0 -23 21 -39 46 -21 34 -27 52 -22 74 3 17 9 44 12 60 l6 30
78 0 c53 0 80 -4 84 -12z m3059 0 c3 -10 7 -10 18 -2 17 14 92 10 97 -5 2 -6
15 -11 28 -11 14 0 36 -13 54 -31 28 -30 30 -36 30 -113 0 -94 -11 -115 -44
-85 -13 13 -29 18 -42 15 -31 -8 -145 5 -138 15 3 5 -8 9 -25 9 -31 0 -91 51
-91 78 0 6 -3 12 -8 12 -8 0 -32 71 -32 95 0 12 14 15 65 15 37 0 65 4 65 10
0 14 18 12 23 -2z m3041 0 c5 -10 7 -10 12 0 8 17 34 15 34 -3 0 -8 3 -15 8
-15 4 0 23 -14 41 -30 32 -30 70 -120 51 -120 -5 0 -12 -16 -16 -35 -5 -30
-10 -35 -43 -40 -20 -3 -48 -8 -63 -10 -15 -2 -30 0 -33 5 -3 6 -16 10 -28 10
-12 0 -33 9 -47 20 -14 11 -29 20 -35 20 -5 0 -23 21 -39 46 -21 34 -27 52
-22 74 3 17 9 44 12 60 l6 30 78 0 c53 0 80 -4 84 -12z m-25814 -40 c9 -56 -1
-94 -30 -127 -16 -17 -34 -31 -39 -31 -6 0 -11 -7 -11 -15 0 -10 -10 -15 -31
-15 -17 0 -37 -7 -45 -15 -10 -9 -34 -15 -63 -15 -27 0 -62 -3 -78 -6 -34 -7
-75 22 -52 37 10 6 10 11 1 22 -10 12 -9 16 4 21 16 6 15 8 -2 22 -14 11 -15
17 -6 20 6 3 12 19 12 35 0 38 28 69 62 69 16 0 28 5 28 10 0 6 7 10 15 10 8
0 15 4 15 9 0 5 46 8 108 5 l107 -4 5 -32z m3334 30 c5 -10 7 -10 12 0 7 15
174 17 174 2 0 -5 6 -10 14 -10 9 0 15 -15 18 -46 3 -43 1 -47 -44 -89 -30
-27 -54 -42 -63 -39 -8 4 -15 1 -15 -5 0 -6 -6 -11 -14 -11 -8 0 -16 -5 -18
-11 -2 -6 -43 -15 -90 -21 -74 -9 -90 -8 -110 6 -18 13 -19 16 -5 16 17 0 24
25 10 33 -5 3 -7 30 -7 61 2 68 30 106 82 106 17 0 32 5 32 10 0 14 17 12 24
-2z m6100 0 c5 -10 7 -10 12 0 7 15 174 17 174 2 0 -5 6 -10 14 -10 9 0 15
-15 18 -46 3 -43 1 -47 -44 -89 -30 -27 -54 -42 -63 -39 -8 4 -15 1 -15 -5 0
-6 -6 -11 -14 -11 -8 0 -16 -5 -18 -11 -2 -6 -43 -15 -90 -21 -74 -9 -90 -8
-110 6 -18 13 -19 16 -5 16 17 0 24 25 10 33 -5 3 -7 30 -7 61 2 68 30 106 82
106 17 0 32 5 32 10 0 14 17 12 24 -2z m11730 0 c5 -10 7 -10 12 0 7 15 174
17 174 2 0 -5 6 -10 14 -10 9 0 15 -15 18 -46 3 -43 1 -47 -44 -89 -30 -27
-54 -42 -63 -39 -8 4 -15 1 -15 -5 0 -6 -6 -11 -14 -11 -8 0 -16 -5 -18 -11
-2 -6 -43 -15 -90 -21 -74 -9 -90 -8 -110 6 -18 13 -19 16 -5 16 17 0 24 25
10 33 -5 3 -7 30 -7 61 2 68 30 106 82 106 17 0 32 5 32 10 0 14 17 12 24 -2z"/>
</g>
</svg>
