<svg version="1.0" xmlns="http://www.w3.org/2000/svg"
 width="4955.000000pt" height="7135.000000pt" viewBox="0 0 4955.000000 7135.000000"
 preserveAspectRatio="xMidYMid meet">
<metadata>
Created by potrace 1.13, written by Peter Selinger 2001-2015
</metadata>
<g transform="translate(0.000000,7135.000000) scale(0.100000,-0.100000)"
fill="currentColor" stroke="none">
<path d="M6996 70263 c-16 -17 -159 -35 -291 -38 -140 -2 -174 -6 -250 -28
-57 -17 -1486 -17 -1506 -1 -9 8 -87 15 -205 19 -171 7 -195 6 -228 -10 -29
-14 -42 -15 -59 -7 -12 6 -71 13 -132 16 -60 2 -144 9 -185 14 -153 21 -941
-3 -997 -30 -16 -8 -32 -6 -67 7 -40 15 -67 17 -184 12 -103 -4 -153 -2 -204
9 -51 12 -76 13 -105 5 -21 -6 -49 -11 -63 -11 -14 0 -38 -7 -54 -15 -34 -18
-68 -19 -84 -3 -9 9 -17 9 -34 0 -14 -7 -94 -14 -208 -16 -102 -3 -211 -10
-243 -16 -33 -6 -65 -9 -73 -6 -8 3 -141 11 -295 17 -262 10 -282 10 -300 -7
-10 -9 -19 -27 -19 -39 0 -12 -3 -25 -7 -29 -4 -4 -6 -22 -4 -41 2 -23 -4 -40
-18 -54 -17 -17 -21 -34 -21 -91 0 -63 3 -74 25 -95 16 -14 22 -26 15 -30 -6
-3 -8 -10 -5 -15 3 -5 1 -11 -5 -15 -13 -8 -13 -92 0 -100 14 -9 13 -248 -1
-262 -7 -7 -8 -43 -4 -104 3 -52 7 -125 9 -164 3 -38 8 -78 11 -88 4 -9 4 -30
1 -45 -4 -15 -7 -35 -7 -44 0 -10 -4 -20 -10 -23 -11 -7 -12 -118 -1 -129 4
-4 7 -11 8 -14 0 -4 3 -14 7 -22 20 -52 36 -164 31 -219 -6 -50 -3 -67 15
-102 13 -24 19 -48 15 -58 -4 -9 -8 -20 -9 -26 0 -5 -4 -17 -7 -25 -14 -33
-16 -208 -4 -232 18 -34 31 -244 17 -253 -6 -3 -9 -10 -6 -15 3 -5 1 -11 -5
-15 -13 -8 -13 -102 1 -110 6 -4 9 -42 8 -95 -1 -48 2 -94 7 -101 11 -19 7
-130 -5 -142 -7 -7 -6 -17 1 -31 10 -17 18 -335 19 -656 0 -123 -12 -243 -26
-262 -17 -26 -20 -84 -4 -93 6 -4 9 -30 8 -59 -1 -29 2 -59 7 -67 5 -8 9 -467
10 -1074 1 -820 4 -1080 14 -1148 10 -65 10 -97 2 -125 -11 -38 -9 -1266 3
-1464 3 -58 2 -105 -4 -116 -10 -20 -13 -120 -11 -387 0 -88 1 -362 1 -610 0
-519 0 -462 -1 -765 -2 -477 9 -1836 15 -1855 3 -11 2 -61 -3 -110 -4 -50 -5
-191 -2 -315 8 -266 -1 -440 -27 -510 -8 -22 -8 -54 0 -67 10 -16 11 -319 1
-335 -5 -7 -9 -15 -10 -18 0 -3 -4 -14 -9 -24 -6 -13 -3 -29 8 -48 17 -30 23
-79 11 -91 -4 -3 -6 -49 -5 -101 1 -57 -2 -97 -8 -101 -14 -8 -15 -335 -1
-335 6 0 10 -22 10 -49 0 -28 -4 -53 -10 -56 -14 -9 -13 -88 2 -103 8 -8 8
-15 -1 -26 -10 -12 -13 -202 -16 -853 -2 -584 -6 -847 -14 -866 -6 -16 -11
-43 -11 -61 0 -36 23 -101 40 -111 16 -10 12 -52 -9 -86 -18 -30 -19 -46 -14
-218 5 -169 -3 -282 -25 -341 -10 -28 -10 -40 -1 -46 10 -6 13 -317 2 -327 -8
-9 -7 -67 2 -90 11 -25 11 -149 1 -172 -10 -22 -11 -133 -2 -142 12 -12 6
-209 -6 -221 -9 -9 -9 -15 0 -24 7 -7 12 -23 12 -38 0 -33 28 -111 47 -132 10
-11 13 -24 8 -35 -5 -10 -9 -20 -10 -23 -1 -3 -9 -23 -18 -44 -21 -48 -32
-196 -20 -251 9 -37 1 -141 -14 -185 -9 -25 -9 -61 -1 -66 10 -6 11 -138 1
-148 -4 -4 -6 -24 -4 -45 1 -22 -4 -48 -11 -60 -10 -17 -10 -25 0 -41 15 -24
16 -66 2 -75 -14 -9 -13 -98 2 -130 9 -21 9 -31 0 -46 -15 -23 -16 -76 -1 -84
6 -4 10 -34 9 -68 -1 -34 1 -70 5 -80 4 -10 2 -24 -5 -32 -7 -8 -9 -15 -5 -15
4 0 3 -6 -4 -13 -16 -20 -19 -573 -3 -589 15 -15 16 -114 2 -123 -6 -3 -10
-48 -10 -100 0 -52 4 -97 10 -100 13 -8 13 -152 0 -160 -14 -9 -13 -48 2 -63
9 -9 9 -15 0 -24 -15 -15 -16 -84 -2 -93 14 -8 14 -542 0 -550 -7 -4 -7 -12 0
-25 13 -24 13 -73 0 -86 -15 -15 -17 -771 -2 -786 15 -15 16 -54 2 -63 -13 -8
-13 -52 0 -60 14 -9 12 -69 -2 -83 -17 -17 -16 -378 1 -395 14 -14 14 -70 0
-84 -15 -15 -15 -2311 0 -2326 14 -14 15 -323 1 -332 -14 -9 -12 -141 2 -165
9 -14 9 -24 1 -42 -12 -23 -25 -285 -25 -478 1 -58 0 -418 -1 -800 -1 -382 -1
-742 0 -800 2 -209 5 -1384 5 -1755 0 -209 0 -393 0 -410 0 -16 0 -131 -1
-255 -2 -124 0 -247 4 -275 4 -31 1 -83 -9 -135 -8 -47 -18 -154 -22 -238 -3
-84 -10 -155 -15 -158 -5 -3 -9 -243 -9 -547 1 -454 3 -545 15 -561 11 -15 13
-45 8 -150 -3 -72 -9 -135 -14 -141 -14 -19 -20 -148 -23 -536 -2 -213 -7
-392 -11 -398 -3 -7 -1 -34 6 -61 11 -43 10 -57 -4 -103 -25 -78 -25 -332 0
-359 15 -17 17 -90 17 -951 -1 -951 -1 -1182 -4 -1297 -4 -148 -5 -300 -3
-375 3 -192 -5 -1851 -11 -1955 -3 -63 -1 -349 4 -635 6 -286 13 -648 15 -805
3 -167 9 -288 15 -294 6 -6 10 -37 10 -70 0 -34 7 -151 15 -261 9 -110 13
-211 10 -225 -7 -33 -19 -1143 -16 -1371 2 -126 0 -178 -8 -184 -9 -5 -9 -10
0 -21 16 -19 22 -1578 19 -4889 -1 -753 -1 -1390 0 -1415 3 -139 0 -167 -20
-193 -23 -28 -26 -57 -8 -75 9 -9 9 -15 0 -24 -14 -14 -16 -119 -3 -134 10
-11 22 -482 13 -488 -6 -4 -7 -63 -1 -76 2 -5 5 -482 8 -1099 1 -197 -2 -318
-8 -324 -7 -7 -6 -17 1 -31 13 -25 12 -390 -2 -416 -5 -9 -4 -23 2 -34 14 -24
12 -455 -2 -472 -8 -8 -8 -14 0 -19 13 -8 11 -293 -2 -301 -5 -3 -6 -10 -3
-15 10 -15 17 -387 8 -392 -5 -3 -5 -45 -1 -94 8 -112 10 -558 2 -566 -5 -4
-9 -272 -4 -272 6 0 0 -537 -6 -546 -8 -13 -29 -343 -40 -649 -10 -254 -12
-5235 -3 -5298 5 -34 9 -201 9 -370 -1 -470 6 -1907 11 -2077 1 -27 -2 -277
-5 -555 -8 -568 -8 -628 3 -755 4 -50 4 -142 -1 -205 -8 -115 -11 -927 -4
-939 6 -10 6 -115 0 -826 -4 -352 -6 -660 -7 -685 0 -25 3 -198 6 -385 10
-487 11 -771 4 -782 -4 -6 -8 -362 -11 -792 l-4 -781 38 0 c22 0 41 -4 44 -9
10 -15 525 -24 1256 -21 480 1 767 -11 829 -36 39 -16 177 -19 186 -4 5 8 11
7 20 0 8 -7 27 -10 42 -9 15 2 34 -1 42 -5 8 -5 69 -11 137 -14 114 -4 123 -3
145 17 12 11 28 22 33 22 17 2 1106 10 1236 9 205 -1 353 -9 364 -20 13 -13
46 -13 46 0 0 13 257 13 265 0 8 -13 62 -13 70 0 8 14 41 13 65 -2 15 -9 24
-9 43 1 26 14 75 12 227 -10 99 -14 71 -13 865 -5 402 4 619 10 637 17 19 8
32 8 46 0 25 -13 224 -15 238 -2 5 5 63 11 130 14 94 5 127 3 148 -9 35 -18
178 -19 206 -2 16 10 24 10 40 0 24 -15 66 -16 75 -2 8 13 222 13 230 0 8 -13
162 -13 170 0 7 12 282 12 290 0 10 -17 92 -20 716 -25 426 -3 635 -8 655 -16
33 -12 198 -4 252 13 21 6 178 11 405 12 286 1 371 4 375 14 5 16 84 16 100 0
10 -10 17 -10 32 0 23 14 102 16 116 3 7 -8 221 -17 259 -11 6 1 49 1 97 0 51
-1 89 3 93 9 8 14 101 14 127 0 22 -12 2078 -27 2788 -20 217 2 510 2 651 1
221 -1 257 1 268 14 14 17 66 22 75 7 8 -13 279 -24 626 -26 925 -6 1237 -6
1345 -1 66 3 224 2 350 -3 183 -6 235 -5 252 6 18 11 33 11 80 0 42 -9 98 -11
203 -6 80 4 249 5 375 2 287 -6 1433 -9 1695 -4 107 2 472 0 810 -3 338 -4
626 -6 640 -6 14 1 81 3 150 6 144 5 116 5 500 2 504 -2 3099 -3 3150 0 14 1
255 0 535 -3 281 -2 578 -3 660 -3 222 1 231 1 610 1 193 0 782 -2 1310 -3
528 -1 1811 -2 2850 -1 1040 1 1904 2 1920 1 17 0 229 -3 473 -5 244 -3 450
-9 459 -13 8 -5 32 -6 54 -2 21 4 41 5 44 2 3 -4 24 -5 46 -3 22 1 46 -3 54
-9 11 -9 23 -9 50 1 27 10 40 10 54 2 36 -23 700 -35 931 -17 108 8 53 8 575
1 248 -4 754 -6 1125 -6 371 0 725 -1 785 -3 61 -2 189 -2 285 -1 96 2 362 2
590 2 508 -1 507 -1 547 18 30 14 36 14 71 -3 35 -18 70 -19 622 -17 322 0
601 1 620 1 19 0 143 -1 275 -3 200 -2 1377 -5 1510 -3 22 0 117 -1 212 -2
100 0 180 3 191 9 13 7 49 6 112 -2 85 -10 93 -10 105 7 10 13 20 16 37 10 63
-20 242 -29 493 -24 149 3 344 2 435 -1 91 -3 228 -2 305 2 258 16 474 19 503
7 18 -7 211 -11 595 -13 420 -1 570 -4 579 -13 14 -14 72 -16 97 -2 27 14 225
17 242 3 14 -11 302 -23 312 -13 3 3 83 2 179 -2 153 -5 177 -4 208 11 19 10
47 21 62 24 14 4 47 30 72 58 36 41 46 59 46 87 0 19 7 43 15 52 13 15 13 33
-1 165 -17 151 -15 177 19 255 14 33 10 50 -19 77 -47 44 -56 105 -24 166 20
37 20 56 20 4585 0 4510 0 4547 -20 4559 -19 12 -19 22 -13 345 3 183 9 337
14 343 12 13 11 142 -1 150 -13 8 -13 52 0 60 13 8 13 382 0 390 -5 3 -10 42
-10 86 0 46 4 79 10 79 13 0 13 37 0 45 -13 8 -13 52 0 60 15 9 13 211 -2 235
-10 16 -10 24 0 40 16 26 16 97 0 103 -10 3 -10 8 1 21 17 20 17 184 1 200
-13 13 -13 63 0 71 14 9 13 208 -1 222 -8 8 -8 13 0 17 15 10 14 132 -1 156
-10 16 -10 24 0 40 15 25 17 386 2 395 -14 9 -12 83 2 87 9 3 13 154 17 634 9
1149 1 1825 -20 1832 -13 5 -12 379 1 387 5 3 10 41 10 83 0 42 7 169 15 280
12 163 13 366 9 1009 -5 789 -4 806 15 839 30 51 36 99 17 129 -9 14 -21 60
-26 103 -11 103 -26 961 -20 1182 3 96 4 276 4 400 -5 746 -7 1543 -6 2310 1
562 4 627 29 700 3 8 4 41 3 73 -1 32 4 64 10 72 15 18 16 233 1 248 -13 13
-15 93 -2 101 4 3 11 27 14 53 4 27 10 66 15 88 4 22 5 92 1 155 -11 163 -11
200 -4 530 8 374 8 343 -4 425 -13 92 -13 244 0 324 26 161 29 315 9 386 -13
45 -18 140 -12 220 8 92 -9 1250 -18 1259 -14 14 -13 49 3 78 17 33 14 481 -4
514 -10 19 -9 26 1 40 19 21 20 1058 1 1077 -14 14 -15 197 -1 197 6 0 10 36
10 89 0 50 -4 93 -10 96 -13 8 -13 218 0 231 14 14 14 354 1 367 -15 15 -15
1087 -1 1087 6 0 10 50 10 129 0 76 -4 132 -10 136 -13 8 -13 58 1 72 8 8 7
16 -2 31 -10 16 -10 24 -1 35 16 19 18 625 2 641 -14 14 -13 69 2 84 10 10 10
17 0 32 -9 14 -12 193 -12 722 -1 387 0 708 1 713 1 6 -1 17 -4 25 -5 13 -8
68 -18 320 -3 64 12 204 23 217 7 9 7 17 0 26 -17 20 -20 470 -4 490 9 10 10
17 2 22 -13 8 -13 52 0 60 6 4 8 11 4 16 -10 17 -4 1193 6 1203 13 13 13 83 0
91 -6 4 -10 158 -11 408 -1 221 -4 508 -5 637 -4 348 -4 414 5 423 5 5 4 27
-1 50 -9 41 -3 615 7 625 3 3 1 10 -5 17 -11 14 -20 1304 -8 1355 9 44 -7 238
-23 274 -10 21 -10 40 -1 89 7 34 15 195 18 357 3 162 8 341 12 398 4 57 4
106 0 110 -10 10 -20 587 -24 1432 -2 410 -4 759 -6 775 -1 17 1 334 5 705 8
883 9 1271 1 1685 -5 281 -9 346 -22 374 -17 36 -17 98 -1 117 5 6 11 63 13
125 6 157 10 928 9 1554 -2 1226 5 1679 27 1754 5 18 5 33 -1 36 -12 8 -12 72
1 80 6 4 8 10 5 15 -3 5 -8 123 -11 262 -3 139 -9 271 -14 293 -14 58 -11 169
5 260 8 44 15 106 15 138 0 31 6 67 13 78 10 17 10 23 0 26 -16 6 -18 134 -2
150 14 14 14 129 0 147 -8 9 -12 45 -10 98 1 59 -3 94 -16 123 -15 37 -15 52
-3 180 15 160 14 300 -1 319 -7 8 -9 51 -7 112 14 312 19 390 27 401 7 7 6 14
-1 18 -5 3 -10 26 -10 51 0 25 -5 76 -11 114 -8 55 -7 77 5 112 15 47 24 153
13 165 -10 9 -8 100 2 145 5 20 6 40 2 45 -3 4 -4 68 -1 141 3 83 1 137 -5
143 -6 6 -10 81 -10 184 0 103 4 178 10 184 6 6 8 46 5 98 -3 48 -3 215 0 371
3 182 1 287 -5 293 -11 11 -9 504 1 521 4 5 5 65 5 133 -1 84 2 130 11 144 10
16 9 25 -2 46 -11 21 -11 30 -2 45 7 12 8 21 2 25 -14 9 -12 99 2 113 14 14
12 142 -2 156 -13 13 -13 56 0 56 6 0 10 11 10 25 0 14 -5 25 -10 25 -7 0 -11
49 -10 143 1 78 0 144 -1 147 -5 14 -6 196 -1 205 3 5 5 24 3 41 -1 18 2 35 8
39 15 8 15 455 1 455 -14 0 -13 66 2 90 10 15 9 24 -2 46 -12 22 -15 68 -13
222 1 121 6 199 12 205 14 14 14 54 1 62 -13 8 -13 182 0 190 6 3 10 44 10 90
0 46 -4 87 -10 90 -5 3 -10 26 -10 51 0 24 5 44 10 44 14 0 13 123 -1 137 -12
12 -17 549 -5 560 3 4 1 12 -5 19 -13 16 -2 171 12 180 12 7 11 221 -1 229
-14 9 -13 78 2 93 14 14 12 361 -3 377 -13 13 -11 62 3 85 10 16 10 24 0 40
-14 24 -16 86 -2 95 6 3 10 15 10 26 0 10 -4 19 -10 19 -13 0 -13 127 0 135 6
4 10 78 10 190 0 112 -4 186 -10 190 -15 9 -13 92 3 98 16 5 11 475 -5 495 -8
9 -8 16 0 24 15 15 16 114 2 123 -14 8 -13 138 1 152 8 8 8 13 0 17 -15 10
-14 169 1 184 9 9 9 15 0 24 -15 15 -16 60 -2 74 14 14 14 584 0 598 -13 13
-13 53 0 61 13 8 13 45 0 45 -13 0 -13 37 0 45 13 8 13 212 0 220 -6 4 -8 10
-5 15 3 5 2 11 -2 13 -5 3 -8 122 -8 265 0 205 3 262 14 275 9 12 10 21 3 30
-14 17 -27 223 -14 231 6 4 7 20 1 43 -10 43 -12 137 -3 145 4 5 8 259 3 286
0 4 -2 93 -4 197 -1 105 -5 315 -8 467 -12 645 -8 1383 8 1408 10 17 11 72 1
88 -4 6 -2 20 4 31 5 11 6 22 2 25 -8 5 -25 207 -24 291 0 328 11 686 21 699
7 8 8 17 3 20 -9 5 -22 92 -24 161 -2 57 15 250 23 267 6 10 5 19 -1 23 -12 7
-14 82 -2 88 9 6 8 64 -1 74 -9 8 -9 208 -1 216 7 7 6 109 -1 267 -3 47 -1
109 4 138 4 29 5 55 1 57 -22 13 -13 210 10 240 18 24 32 312 29 582 l-4 282
-27 28 c-25 26 -27 34 -25 100 2 72 2 73 -36 109 -31 30 -41 35 -65 29 -53
-14 -142 -17 -156 -5 -10 7 -16 8 -21 0 -8 -13 -58 -13 -71 0 -14 14 -356 15
-384 0 -16 -9 -25 -9 -33 -1 -16 16 -104 13 -131 -4 -23 -15 -81 -11 -92 6 -7
12 -111 11 -119 -1 -9 -15 -47 -12 -69 5 -17 13 -23 13 -40 2 -14 -9 -72 -16
-164 -21 l-143 -6 -25 27 c-19 20 -27 24 -36 15 -7 -7 -24 -12 -38 -12 -14 0
-32 -6 -39 -12 -8 -9 -63 -13 -189 -15 -97 -1 -195 -2 -217 -4 -46 -2 -125 10
-140 22 -6 4 -17 4 -25 -2 -20 -13 -251 -9 -272 5 -13 8 -23 8 -38 -2 -26 -16
-172 -16 -188 0 -17 17 -409 15 -425 -1 -16 -16 -249 -15 -265 1 -10 10 -17
10 -32 0 -23 -14 -52 -16 -66 -3 -18 17 -149 21 -179 5 -33 -17 -420 -21 -430
-4 -9 14 -78 13 -93 -2 -8 -8 -140 -12 -488 -15 -408 -2 -482 -1 -507 12 -35
17 -73 20 -82 5 -4 -6 -60 -10 -135 -10 -75 0 -131 4 -135 10 -3 6 -36 10 -72
10 -50 0 -72 -5 -95 -21 -26 -19 -33 -20 -72 -9 -31 8 -104 10 -252 6 -115 -3
-216 -6 -224 -7 -8 -1 -194 1 -414 4 -265 4 -402 9 -409 16 -14 14 -293 15
-302 1 -9 -14 -101 -12 -125 2 -15 10 -27 10 -56 -1 -26 -9 -39 -10 -47 -2
-14 14 -54 14 -62 1 -8 -13 -102 -13 -110 0 -5 8 -11 8 -20 0 -9 -7 -114 -11
-317 -13 -250 -1 -307 1 -325 13 -19 12 -27 12 -43 2 -11 -6 -42 -12 -70 -12
-28 0 -59 6 -70 12 -16 10 -24 10 -40 0 -24 -15 -216 -17 -225 -2 -3 6 -39 10
-80 10 -41 0 -77 -4 -80 -10 -9 -15 -308 -13 -323 2 -9 9 -15 9 -24 0 -15 -15
-74 -16 -83 -2 -4 6 -83 10 -205 10 -122 0 -201 -4 -205 -10 -3 -6 -48 -10
-100 -10 -52 0 -97 4 -100 10 -3 6 -17 10 -30 10 -13 0 -27 -4 -30 -10 -8 -13
-111 -13 -135 0 -10 6 -73 13 -140 17 -118 6 -121 6 -146 -18 -26 -24 -26 -24
-227 -21 -184 3 -205 6 -236 25 -33 20 -35 20 -64 4 -45 -26 -274 -44 -341
-27 -28 7 -59 18 -68 24 -13 8 -21 7 -30 -2 -15 -15 -164 -17 -173 -2 -8 13
-58 13 -71 1 -14 -15 -482 -17 -497 -2 -14 14 -57 14 -57 0 0 -8 -11 -9 -32
-4 -66 15 -229 17 -245 4 -11 -10 -165 -12 -721 -10 -420 1 -711 6 -718 12
-12 10 -109 7 -120 -4 -12 -11 -119 -8 -131 4 -15 15 -316 15 -321 0 -5 -14
-69 -15 -77 -1 -9 14 -111 12 -135 -2 -16 -10 -24 -10 -41 0 -26 17 -716 19
-732 3 -14 -14 -184 -14 -192 -1 -8 13 -98 13 -112 -1 -8 -8 -13 -8 -17 0 -9
14 -342 15 -351 1 -9 -14 -278 -13 -292 1 -8 8 -13 8 -17 0 -10 -16 -298 -15
-314 1 -9 9 -15 9 -24 0 -15 -15 -48 -16 -48 -2 0 6 -13 10 -30 10 -16 0 -30
-4 -30 -10 0 -13 -73 -13 -86 0 -13 13 -518 14 -522 1 -2 -5 -17 -2 -34 6 -24
13 -50 14 -127 9 -52 -4 -101 -12 -108 -18 -7 -6 -29 -7 -50 -3 -78 14 -165
17 -176 6 -14 -14 -124 -15 -132 -1 -8 13 -242 13 -250 0 -8 -13 -592 -13
-600 0 -8 13 -92 13 -100 0 -8 -13 -48 -13 -61 0 -14 14 -178 17 -195 3 -18
-14 -216 -16 -225 -2 -4 7 -10 7 -18 0 -20 -17 -511 -17 -531 -1 -12 10 -21
10 -41 1 -34 -15 -515 -16 -531 0 -6 6 -51 11 -109 10 -123 0 -147 4 -159 31
-14 31 -32 33 -39 4 -5 -19 -15 -27 -42 -32 -20 -4 -257 -3 -527 1 -271 4
-501 7 -512 6 -11 0 -426 -2 -921 -4 -741 -2 -904 -5 -918 -16 -11 -9 -20 -10
-28 -3 -8 6 -98 13 -211 16 -109 3 -206 9 -215 14 -9 4 -111 7 -227 5 -115 -1
-242 2 -281 8 -44 6 -92 6 -129 1 -59 -10 -115 0 -115 19 0 5 -58 9 -130 9
-71 0 -130 -4 -130 -8 0 -12 -115 -33 -177 -32 -10 1 -153 2 -318 5 -396 5
-619 14 -623 26 -5 13 -66 11 -79 -2 -16 -16 -513 -15 -540 1 -17 11 -25 9
-51 -10 -31 -23 -35 -23 -117 -12 -60 8 -94 8 -113 1 -29 -11 -137 5 -148 22
-7 12 -64 12 -64 0 0 -13 -199 -24 -214 -12 -7 6 -15 8 -19 5 -5 -5 -396 -17
-477 -15 -19 1 -123 1 -230 0 -391 -4 -1120 -4 -1310 0 -107 2 -265 0 -350 -4
-85 -5 -168 -8 -185 -8 -56 -1 -249 2 -325 5 -41 1 -97 2 -125 1 -27 0 -309 0
-625 0 -632 1 -754 0 -1065 -10 -115 -3 -248 -5 -295 -3 -275 8 -2213 -9
-2224 -20 -13 -13 -79 -13 -92 0 -12 12 -543 8 -587 -5 -17 -4 -37 -3 -50 3
-12 6 -58 13 -102 16 -62 4 -83 1 -96 -10 -14 -12 -108 -15 -625 -20 -489 -4
-1003 -11 -1239 -16 -16 0 -169 2 -340 5 -323 5 -441 13 -463 30 -9 7 -16 7
-24 -1 -15 -15 -534 -17 -543 -2 -9 14 -121 12 -145 -2 -15 -10 -24 -9 -45 2
-20 11 -83 13 -298 13 -222 -1 -281 1 -322 14 -40 13 -77 15 -210 9 -257 -11
-676 -9 -715 3 -19 6 -59 11 -87 11 -29 0 -53 5 -53 10 0 12 -43 14 -54 3z
m17516 -249 c5 -3 5 -11 -1 -18 -18 -22 4 -35 56 -34 29 1 58 -3 65 -9 7 -6
60 -13 118 -16 83 -4 112 -2 138 10 22 11 36 12 45 5 7 -7 147 -12 382 -14
343 -3 373 -2 409 15 36 18 41 18 80 3 52 -20 245 -23 264 -4 9 9 15 9 24 0
15 -15 80 -16 96 0 9 9 17 9 34 0 21 -10 378 -19 1013 -25 178 -1 342 10 351
25 7 11 58 10 70 -2 16 -16 450 -18 465 -2 15 14 111 16 125 2 10 -10 446 -26
654 -24 58 1 213 2 345 3 132 2 318 -2 414 -7 99 -6 185 -6 197 -2 38 15 163
14 964 -3 111 -2 291 7 296 15 3 5 146 7 317 6 277 -2 315 -1 341 14 26 15 33
15 55 3 35 -20 230 -31 416 -24 83 3 326 3 540 1 215 -3 408 -4 430 -3 22 1
60 2 85 2 415 -7 1265 9 1339 24 23 5 36 4 41 -5 7 -11 108 -14 487 -16 997
-5 1145 -3 1167 15 15 13 21 13 39 1 12 -7 51 -14 87 -15 36 -1 98 -5 138 -10
72 -8 185 7 206 26 14 12 133 11 141 -1 4 -6 53 -10 115 -10 62 0 111 4 115
10 9 15 228 13 244 -2 12 -13 686 -20 1461 -16 451 2 526 1 1095 -5 667 -7
968 -15 1017 -26 22 -5 40 -5 46 1 8 8 205 21 272 19 8 0 551 -3 1205 -6 655
-4 1199 -6 1210 -6 11 0 124 0 250 1 298 1 580 -5 594 -14 6 -4 17 -4 24 1 14
9 615 16 637 7 21 -8 191 -7 213 2 10 3 22 3 27 -2 5 -5 95 -6 211 -1 115 5
206 4 211 -1 5 -5 33 -5 66 0 89 13 1454 -2 1471 -16 11 -8 15 -8 18 2 6 17
265 17 293 0 15 -10 22 -10 32 0 8 8 56 12 159 12 123 0 149 -3 160 -16 15
-18 20 -426 18 -1349 -4 -1933 -4 -1972 -17 -1988 -9 -10 -10 -17 -2 -22 13
-8 14 -304 0 -339 -6 -17 -6 -27 1 -31 13 -9 2 -1436 -11 -1449 -16 -16 -13
-611 2 -636 10 -16 10 -24 0 -40 -16 -25 -16 -85 0 -110 10 -16 10 -24 1 -39
-9 -15 -14 -348 -18 -1383 -3 -750 -8 -1680 -11 -2068 -4 -388 -7 -916 -6
-1175 0 -258 1 -1010 1 -1670 1 -660 0 -1254 -3 -1320 -6 -186 -18 -319 -29
-327 -7 -4 -5 -18 5 -40 22 -46 30 -304 13 -356 -9 -26 -10 -41 -3 -50 15 -17
5 -162 -13 -189 -11 -18 -11 -25 -1 -35 14 -14 16 -64 2 -73 -6 -4 -10 -85
-10 -210 0 -125 4 -206 10 -210 14 -9 12 -59 -2 -73 -9 -9 -13 -54 -13 -150 0
-111 3 -141 16 -160 14 -19 16 -40 12 -110 -3 -48 -9 -91 -14 -97 -12 -12 -12
-368 0 -380 10 -12 23 -319 14 -329 -11 -11 -12 -35 -2 -42 18 -10 10 -80 -11
-99 -25 -23 -25 -31 1 -80 16 -32 19 -51 14 -92 -4 -29 -11 -53 -16 -53 -12 0
-12 -113 0 -125 14 -16 25 -261 12 -270 -6 -3 -8 -11 -5 -17 12 -20 7 -859 -5
-871 -13 -13 -15 -243 -2 -251 11 -7 11 -156 0 -156 -13 0 -11 -38 2 -46 6 -3
9 -20 7 -36 -3 -16 -1 -31 4 -34 10 -6 9 -1392 -2 -1399 -9 -6 2 -73 18 -102
14 -25 13 53 11 -1508 -1 -594 -1 -1249 0 -1455 0 -206 -1 -485 -3 -620 -7
-491 -7 -987 -1 -1510 3 -294 6 -546 6 -560 0 -14 1 -117 2 -230 2 -256 1
-330 -2 -660 -2 -146 0 -286 4 -310 4 -30 1 -57 -8 -80 -11 -28 -12 -68 -6
-200 8 -171 -2 -352 -20 -373 -6 -8 -6 -18 -1 -27 5 -8 6 -18 3 -24 -4 -5 -5
-34 -4 -63 1 -32 -3 -60 -10 -69 -18 -22 -19 -808 -1 -825 14 -15 16 -55 2
-64 -13 -8 -13 -62 1 -70 6 -4 9 -21 8 -39 -1 -17 1 -38 4 -46 3 -8 9 -28 13
-45 5 -16 9 -394 11 -840 1 -445 2 -828 3 -850 3 -238 -7 -1413 -12 -1421 -6
-9 -9 -634 -6 -1249 0 -38 0 -232 0 -430 -1 -198 4 -394 10 -435 5 -41 11
-234 13 -428 2 -241 6 -357 14 -365 15 -15 14 -53 -1 -77 -10 -16 -10 -24 0
-41 10 -16 11 -24 1 -35 -9 -11 -12 -171 -14 -638 -2 -344 -6 -629 -10 -636
-6 -9 -21 -951 -17 -1070 12 -388 20 -1639 11 -1745 -5 -49 -12 -109 -17 -133
-6 -26 -6 -45 0 -48 7 -5 12 -420 9 -804 0 -39 -8 -142 -11 -150 -1 -3 -1 -9
0 -15 3 -12 13 -1029 12 -1175 -1 -170 -12 -333 -23 -356 -10 -20 -8 -91 7
-212 4 -37 2 -57 -8 -69 -10 -13 -14 -83 -16 -322 -4 -449 -4 -545 1 -766 2
-110 0 -222 -5 -250 -10 -52 -11 -261 -3 -400 4 -66 5 -344 2 -670 -2 -177 16
-811 23 -820 5 -5 10 -137 12 -292 2 -216 0 -285 -9 -294 -16 -16 -17 -115 -3
-124 7 -4 10 -63 9 -162 0 -85 2 -157 5 -160 8 -8 8 -78 0 -86 -3 -3 -5 -63
-5 -132 1 -83 -2 -131 -9 -141 -17 -19 -18 -320 -2 -336 14 -14 16 -70 3 -84
-6 -5 -11 -319 -13 -776 -2 -604 0 -770 10 -779 15 -16 17 -185 2 -194 -5 -3
-10 -44 -10 -90 0 -46 5 -87 10 -90 6 -3 10 -17 10 -30 0 -13 -4 -27 -10 -30
-15 -9 -13 -241 2 -265 10 -15 10 -22 0 -32 -8 -8 -12 -47 -12 -116 0 -86 3
-109 19 -130 35 -50 36 -114 4 -202 -3 -8 -5 -34 -4 -58 2 -24 -2 -48 -7 -55
-6 -7 -13 -111 -15 -232 -3 -121 -10 -232 -16 -247 -7 -19 -7 -98 -1 -250 11
-238 17 -306 32 -325 6 -7 4 -19 -4 -32 -10 -17 -10 -25 0 -41 15 -24 16 -76
2 -85 -8 -5 -7 -11 1 -21 9 -11 9 -20 1 -37 -19 -35 -21 -729 -3 -750 7 -9 11
-28 9 -42 -3 -14 -1 -28 3 -31 12 -7 11 -91 -1 -99 -6 -4 -8 -11 -4 -16 3 -5
1 -16 -5 -23 -17 -20 -19 -180 -2 -200 11 -13 11 -22 3 -39 -6 -12 -13 -64
-17 -116 -5 -76 -3 -98 10 -117 9 -14 13 -29 10 -34 -3 -5 -1 -11 5 -15 5 -3
10 -17 10 -30 0 -13 -5 -27 -10 -30 -6 -4 -8 -10 -5 -14 10 -17 7 -702 -4
-714 -17 -21 -40 -244 -40 -377 4 -962 -7 -4002 -16 -4041 -5 -27 -3 -43 9
-60 16 -26 26 -215 11 -238 -4 -7 -2 -40 5 -72 10 -46 10 -72 2 -112 -9 -41
-29 -682 -25 -787 1 -14 5 -398 9 -855 8 -832 8 -1484 0 -2510 -3 -345 0 -593
7 -665 5 -63 10 -128 10 -145 -1 -16 -3 -332 -5 -701 -3 -369 -8 -676 -13
-683 -4 -8 -9 -437 -11 -954 -4 -848 -3 -946 12 -1006 18 -69 15 -232 -6 -316
-13 -54 -13 -369 1 -436 6 -30 12 -164 14 -299 5 -310 20 -563 36 -588 7 -11
9 -27 6 -36 -5 -13 -24 -16 -116 -16 -62 0 -112 4 -116 10 -8 13 -252 13 -260
0 -8 -13 -152 -13 -160 0 -8 13 -152 13 -160 0 -8 -13 -78 -13 -91 -1 -9 9
-889 15 -1814 12 -267 -1 -489 -1 -495 0 -5 0 -196 0 -424 -1 -288 -1 -419 -5
-432 -13 -14 -8 -26 -8 -51 1 -22 7 -116 12 -278 12 -135 0 -249 0 -255 0 -5
0 -92 0 -192 0 -115 0 -184 -3 -188 -10 -8 -13 -68 -13 -81 -1 -6 7 -782 18
-846 12 -36 -4 -1161 0 -1167 3 -12 8 -395 10 -421 2 -14 -4 -35 -12 -47 -18
-17 -8 -26 -8 -37 1 -8 7 -32 12 -53 11 -21 -1 -42 -1 -48 1 -41 11 -3746 26
-3764 14 -5 -3 -121 -5 -258 -5 -514 1 -641 0 -746 -8 -60 -4 -111 -4 -113 0
-6 10 -571 9 -641 -1 -34 -5 -56 -4 -63 3 -13 13 -890 13 -910 1 -6 -4 -67 -6
-135 -6 -77 1 -126 -2 -130 -9 -8 -13 -72 -13 -80 0 -8 13 -142 13 -150 1 -8
-14 -165 -11 -187 2 -13 9 -21 8 -30 -1 -15 -15 -194 -17 -203 -2 -9 14 -111
12 -135 -2 -15 -10 -22 -10 -32 0 -15 15 -64 16 -73 2 -4 -7 -11 -7 -18 -2
-16 13 -384 26 -391 14 -3 -5 -31 -5 -68 1 -58 8 -5138 17 -5348 9 -47 -2
-164 -1 -260 2 -96 3 -382 5 -635 5 -830 -1 -1025 0 -1433 1 -394 2 -818 -14
-836 -31 -15 -14 -260 -11 -274 3 -8 8 -15 8 -27 -2 -12 -10 -18 -10 -30 0
-18 15 -229 27 -238 13 -3 -5 -40 -6 -89 -2 -46 4 -86 4 -91 0 -4 -4 -32 -3
-61 2 -34 6 -124 7 -246 1 -105 -5 -194 -6 -197 -1 -5 9 -107 10 -116 1 -9 -9
-113 -8 -128 2 -15 9 -315 8 -330 -2 -15 -9 -256 -7 -270 2 -23 14 -1101 17
-1307 3 -100 -6 -185 -16 -188 -20 -7 -12 -151 -11 -159 1 -8 13 -82 13 -90 0
-9 -15 -158 -13 -173 2 -15 15 -222 12 -236 -3 -12 -11 -93 -12 -100 -1 -8 13
-203 24 -371 20 -165 -3 -198 -3 -520 6 -227 6 -1445 6 -2010 1 -190 -2 -331
-7 -346 -13 -15 -6 -30 -7 -35 -2 -5 5 -229 12 -499 16 -526 9 -506 8 -610 5
-38 -1 -169 0 -290 3 -414 9 -610 9 -1080 0 -258 -5 -491 -8 -517 -8 -27 1
-100 1 -163 1 -63 0 -134 1 -157 1 -307 7 -3256 5 -3358 -2 -147 -10 -187 -11
-420 -2 -204 8 -1030 13 -1100 6 -30 -3 -113 -2 -185 2 -218 12 -823 12 -895
-1 -36 -6 -94 -11 -130 -11 -36 0 -80 -4 -97 -9 -18 -5 -35 -6 -38 -2 -19 31
-341 40 -1060 32 -198 -3 -769 -5 -1270 -4 -500 0 -946 0 -990 0 -44 0 -118 7
-165 15 -47 8 -92 12 -100 8 -12 -5 -285 -5 -793 1 -49 0 -91 -2 -94 -5 -9 -9
-141 -7 -147 2 -2 4 -62 4 -132 0 -70 -4 -132 -4 -137 -1 -16 10 -160 3 -194
-9 -18 -7 -35 -10 -38 -7 -2 3 -7 498 -10 1100 -3 602 -8 1398 -12 1769 -8
811 -8 681 1 1005 12 460 15 2041 4 2140 -5 50 -9 232 -7 405 3 367 3 349 -6
553 -4 86 -12 160 -16 163 -13 7 -11 361 1 369 16 10 11 63 -10 102 -25 47
-25 88 -1 134 23 42 40 156 42 279 1 47 1 351 2 675 0 325 1 615 2 645 9 178
12 4656 4 4845 -6 121 -10 234 -9 250 8 304 14 1171 14 2110 0 187 0 435 0
550 1 362 -14 1034 -24 1061 -14 35 -12 88 5 159 16 65 12 303 -6 359 -6 20
-5 33 4 44 6 8 14 36 16 61 6 77 4 773 -4 971 -7 196 -7 218 1 795 3 204 7
575 10 825 3 321 8 462 16 478 9 18 9 28 0 42 -15 25 -17 835 -2 845 13 8 13
58 -1 72 -14 14 -13 481 1 498 6 7 11 497 15 1271 3 692 7 1610 10 2039 3 746
-1 925 -26 949 -13 14 -11 60 3 74 9 9 9 15 0 24 -8 8 -12 49 -12 118 0 58 -5
144 -11 190 -14 114 -14 275 0 388 7 59 11 229 9 463 -1 276 1 372 10 381 15
15 17 224 2 233 -13 8 -13 48 0 61 17 17 21 670 25 3429 3 2665 5 2847 36
2879 12 13 12 46 0 46 -15 0 -19 49 -5 75 7 14 9 27 3 30 -12 8 -12 48 1 61
14 14 15 221 0 239 -12 15 -13 48 -24 620 -3 149 -8 287 -12 308 -5 31 -1 46
20 77 l26 40 0 285 c0 210 -3 291 -12 305 -10 16 -10 24 0 40 19 31 17 398 -3
436 -10 21 -15 61 -15 137 0 95 3 111 21 137 18 24 21 37 16 80 -4 29 -10 57
-15 64 -5 6 -12 36 -16 67 -5 45 -3 58 9 63 8 3 15 16 15 29 0 14 6 40 14 58
11 27 13 89 9 304 -5 347 -5 1514 1 2860 4 1070 0 1267 -29 1311 -11 18 -15
53 -15 153 0 76 4 132 10 136 6 3 10 28 10 56 0 27 -4 49 -10 49 -6 0 -10 57
-10 150 0 104 3 150 11 150 8 0 8 4 1 13 -7 9 -20 184 -22 302 -2 97 15 342
23 347 7 4 14 68 19 160 8 162 2 211 -34 260 -14 20 -20 48 -22 105 -2 43 -7
102 -11 131 -7 44 -5 55 9 65 34 25 30 507 -5 542 -15 15 -10 67 8 80 15 11
17 35 17 188 1 127 4 179 14 189 17 17 17 299 0 316 -15 15 -13 485 2 490 13
5 13 75 -1 89 -14 14 -16 877 -2 895 6 7 17 47 24 88 14 83 16 264 9 845 -4
376 8 667 30 707 14 24 12 122 -1 135 -11 11 -34 475 -31 638 3 187 26 585 34
585 12 0 10 68 -2 75 -14 9 -13 558 1 572 8 8 12 253 13 840 2 455 6 1224 9
1708 4 484 7 941 6 1015 -1 74 -2 169 -3 210 0 41 2 91 4 110 5 33 3 35 -25
38 -59 7 -70 39 -35 107 14 27 20 59 20 102 0 34 4 64 9 67 5 3 19 31 31 61
l23 56 -22 29 c-18 25 -21 43 -21 115 0 50 -5 93 -12 105 -10 16 -10 24 0 40
15 24 17 276 2 285 -13 8 -13 142 0 150 13 8 13 362 0 370 -13 8 -13 282 0
290 13 8 13 132 0 140 -13 8 -13 72 0 80 14 8 14 642 0 650 -13 8 -13 52 0 60
15 10 13 880 -2 905 -9 14 -9 24 0 42 9 17 13 479 16 1908 3 1037 8 2189 11
2560 8 805 8 736 3 1090 -3 157 -1 375 3 485 16 422 8 1705 -12 1940 -6 72
-15 135 -20 142 -13 15 -24 147 -14 170 4 10 7 38 6 63 -1 29 6 59 19 85 27
53 26 97 -5 133 -34 40 -34 92 0 126 30 30 31 54 6 104 l-19 37 79 -4 c61 -2
85 1 104 13 28 18 179 23 190 6 3 -5 30 -10 60 -10 30 0 57 5 60 10 8 12 167
13 180 1 6 -5 105 -11 222 -14 191 -5 215 -4 245 13 31 16 55 17 269 13 128
-3 239 -10 246 -15 9 -7 652 -23 863 -21 36 1 227 1 425 1 431 -1 449 0 639 6
109 4 155 2 172 -7 19 -10 42 -11 92 -4 37 6 204 11 372 11 168 1 311 6 319
10 22 14 88 19 96 7 10 -17 51 -13 90 10 31 19 41 20 80 10 24 -6 77 -11 118
-11 46 0 86 -6 103 -14 21 -12 51 -14 128 -9 56 3 107 11 115 16 18 15 429 13
444 -2 6 -6 25 -11 43 -11 17 0 47 -6 65 -13 51 -19 687 -17 749 2 25 8 49 18
55 23 13 12 309 10 321 -2 6 -6 85 -13 180 -15 93 -3 184 -10 203 -16 22 -8
76 -9 165 -4 154 9 179 10 271 6 39 -2 159 2 268 9 125 7 203 8 210 2 7 -6 99
-8 227 -5 118 3 271 3 340 2 223 -6 435 4 456 22 10 8 18 8 27 0 7 -6 65 -12
128 -14 63 -3 131 -9 152 -15 23 -6 51 -7 70 -2 26 7 409 6 637 -1 30 -1 156
1 280 6 247 8 226 8 597 5 144 -1 266 0 271 4 10 6 505 6 727 1 77 -2 1013 -7
2080 -10 1067 -4 2041 -7 2165 -8 124 -1 288 -1 365 1 167 3 978 5 1478 3 231
-1 365 3 378 9 13 8 25 7 41 -1 12 -6 60 -12 107 -12 47 0 424 1 836 2 413 0
777 1 810 1 33 1 281 3 550 5 720 6 976 12 988 24 14 14 94 14 102 1 3 -5 30
-10 60 -10 30 0 57 5 60 10 3 6 33 10 65 10 32 0 62 -4 65 -10 9 -14 68 -13
83 2 9 9 18 8 37 -2 21 -11 30 -12 46 -1 13 8 52 11 110 10 49 -1 92 1 96 5
13 12 149 6 168 -8 21 -15 27 -8 55 53 10 22 14 23 62 17 29 -4 56 -10 60 -12z"/>
<path d="M37075 69271 c-13 -22 -82 -46 -131 -45 l-51 0 -6 -62 c-7 -67 2
-111 30 -153 10 -14 18 -28 19 -31 0 -3 5 -14 10 -25 5 -11 9 -55 9 -97 l0
-77 -49 -50 c-61 -62 -118 -82 -221 -76 -86 4 -118 12 -171 40 -69 37 -81 49
-94 92 -18 58 12 212 50 263 63 85 64 89 48 162 -14 62 -84 75 -164 31 l-49
-27 -975 -3 c-536 -1 -1067 -3 -1180 -3 -113 0 -380 2 -595 4 -214 3 -448 2
-519 -2 -71 -5 -224 -4 -340 0 -116 5 -298 10 -404 11 -132 2 -196 7 -204 15
-15 15 -80 16 -94 2 -13 -13 -170 -28 -187 -18 -16 10 -160 9 -217 -1 -46 -9
-90 -49 -90 -82 0 -54 83 -138 213 -213 26 -15 50 -34 55 -40 4 -7 32 -29 62
-49 30 -21 74 -52 97 -70 72 -55 144 -97 167 -97 23 0 96 -45 96 -59 0 -16
-133 -19 -200 -5 -36 7 -88 14 -116 14 -46 0 -56 5 -115 53 -35 29 -82 63
-104 77 -66 39 -173 130 -194 164 -11 18 -32 38 -46 44 -14 7 -36 17 -50 23
-13 7 -54 41 -90 75 -36 35 -65 61 -65 58 0 -3 -14 6 -31 20 -17 14 -36 26
-43 26 -7 0 -27 7 -45 16 -18 9 -42 13 -56 10 -26 -7 -55 -52 -55 -85 0 -25
54 -88 83 -97 12 -4 36 -17 53 -30 17 -13 34 -24 38 -24 13 0 131 -103 141
-124 7 -14 22 -22 45 -24 26 -3 40 -11 55 -35 11 -18 29 -33 40 -36 24 -4 115
-80 115 -96 0 -8 -27 -15 -72 -20 -130 -13 -159 -12 -177 11 -9 12 -29 28 -44
35 -15 8 -48 35 -75 60 -26 25 -75 65 -109 88 -35 23 -63 48 -63 56 0 8 -16
21 -35 29 -19 8 -54 33 -77 55 -62 57 -128 108 -163 124 -16 8 -47 34 -68 58
-21 24 -45 52 -54 62 -18 19 -73 23 -102 7 -21 -11 -23 -11 -766 -10 -895 2
-1216 -1 -1241 -10 -15 -6 -26 -5 -30 1 -4 6 -11 6 -20 -2 -11 -9 -18 -9 -26
-1 -15 15 -75 16 -83 2 -5 -8 -11 -8 -20 0 -9 7 -175 11 -531 11 -609 0 -615
0 -627 -8 -12 -7 -123 -7 -135 1 -6 3 -22 2 -36 -4 -16 -6 -27 -6 -31 0 -6 10
-158 14 -167 5 -9 -9 -357 -7 -371 2 -6 4 -123 7 -258 5 -198 -2 -252 0 -281
12 -19 8 -66 15 -104 15 -91 1 -84 1 -274 6 l-166 5 -34 -35 c-26 -27 -42 -35
-68 -35 l-35 0 6 -46 c5 -51 30 -83 89 -117 21 -11 38 -25 38 -30 0 -5 9 -20
20 -34 11 -14 20 -36 20 -49 0 -25 15 -40 25 -24 11 18 25 11 25 -13 0 -13
-10 -33 -22 -45 -142 -135 -138 -132 -192 -132 -27 0 -88 -5 -134 -12 -74 -11
-86 -10 -96 3 -10 15 -31 22 -98 36 -16 3 -42 22 -58 42 -41 48 -41 48 -72 72
-18 13 -28 30 -28 47 0 15 -9 38 -20 52 -11 14 -20 30 -20 36 0 6 -15 28 -32
50 -18 22 -38 48 -44 59 -20 37 -74 26 -74 -14 0 -9 -9 -34 -20 -56 -11 -22
-20 -55 -20 -75 0 -21 -10 -50 -25 -73 -14 -20 -24 -41 -21 -45 9 -15 -27 -45
-104 -85 -19 -10 -51 -26 -70 -37 -46 -25 -221 -28 -277 -5 -19 8 -42 15 -50
15 -25 0 -102 59 -118 91 -14 25 -14 39 -4 92 11 56 18 67 68 114 39 37 63 53
81 51 50 -2 60 3 80 42 24 47 26 97 4 128 -18 26 -74 53 -89 42 -55 -38 -378
-48 -1375 -42 -157 1 -382 1 -500 1 -118 -1 -533 1 -922 5 -646 6 -712 5 -760
-10 -29 -9 -57 -21 -63 -25 -5 -5 -21 -9 -37 -9 -35 0 -155 -65 -174 -96 -9
-13 -25 -26 -36 -30 -12 -3 -39 -23 -62 -44 -23 -20 -74 -56 -114 -80 -40 -23
-96 -66 -126 -95 -29 -29 -62 -56 -73 -59 -10 -3 -38 -24 -62 -46 -23 -22 -47
-40 -53 -40 -6 0 -25 -13 -43 -28 -29 -26 -41 -29 -161 -40 -251 -22 -321 -25
-329 -12 -10 17 31 57 75 72 22 8 85 55 150 113 62 55 127 107 145 116 43 21
108 72 162 128 48 49 56 86 23 116 -24 22 -89 14 -131 -15 -15 -11 -41 -23
-57 -26 -19 -4 -42 -21 -61 -45 -17 -21 -88 -87 -158 -148 -71 -61 -136 -118
-146 -126 -10 -9 -37 -25 -60 -35 -56 -26 -74 -39 -116 -80 -20 -19 -58 -50
-86 -70 l-50 -35 -136 -3 c-114 -3 -137 -1 -149 13 -7 8 -11 17 -9 19 2 2 40
28 84 59 44 30 96 72 114 91 19 20 40 36 47 36 7 0 21 11 31 24 11 13 39 34
63 46 25 12 66 45 92 71 26 27 55 49 65 49 28 0 83 61 83 92 0 32 -30 70 -85
108 -35 24 -54 30 -98 30 -29 0 -57 -3 -60 -7 -9 -8 -77 -7 -100 2 -10 4 -24
2 -32 -5 -12 -10 -18 -10 -29 -1 -10 8 -16 9 -21 1 -3 -6 -10 -8 -15 -5 -17
10 -183 6 -193 -4 -14 -14 -144 -14 -152 -1 -4 6 -53 10 -115 10 -62 0 -111
-4 -115 -10 -8 -13 -78 -13 -90 -1 -15 15 -97 16 -122 3 -27 -15 -269 -16
-278 -2 -8 13 -108 13 -121 0 -17 -17 -1570 -16 -1590 1 -11 9 -18 9 -26 1
-15 -15 -152 -16 -178 -2 -13 7 -26 6 -45 -4 -23 -12 -151 -14 -803 -10 -463
2 -778 8 -781 13 -9 14 -58 24 -78 16 -10 -4 -56 -6 -103 -5 -60 1 -94 -3
-115 -14 -17 -9 -35 -16 -42 -16 -6 0 -21 -12 -32 -26 -13 -16 -31 -26 -46
-26 -18 0 -27 -7 -31 -24 -3 -13 -12 -28 -20 -35 -21 -17 -17 -57 8 -77 53
-42 78 -72 78 -94 0 -13 -22 -47 -54 -82 l-53 -60 -121 -4 -121 -4 -51 32
c-61 39 -80 86 -62 149 7 21 12 46 12 56 0 9 9 28 20 42 33 43 23 110 -20 133
-38 20 -159 37 -210 29 -46 -7 -318 -14 -470 -11 -192 3 -362 2 -420 -3 -36
-3 -78 -2 -95 3 -16 4 -124 6 -240 2 -115 -3 -232 -2 -258 3 -32 5 -53 5 -61
-2 -9 -8 -295 -11 -927 -10 -628 1 -923 -2 -941 -10 -16 -6 -28 -18 -28 -29 0
-31 -26 -56 -101 -95 -53 -28 -85 -53 -113 -88 -21 -28 -41 -48 -43 -45 -3 3
-20 -6 -38 -19 -17 -14 -36 -25 -41 -25 -5 0 -26 -14 -48 -30 -21 -16 -52 -32
-70 -36 -18 -4 -45 -22 -64 -45 -18 -21 -43 -41 -55 -45 -12 -3 -35 -22 -50
-41 -16 -18 -44 -40 -64 -48 -19 -8 -52 -30 -75 -49 -22 -19 -54 -38 -70 -42
-39 -8 -341 5 -358 16 -21 13 12 54 67 87 27 15 50 30 53 33 3 3 12 10 22 15
9 6 44 32 78 58 34 27 74 53 88 60 15 6 62 38 106 70 43 33 95 64 115 69 43
12 136 101 146 141 16 62 -45 97 -111 62 -16 -8 -38 -15 -50 -15 -12 0 -38
-11 -58 -25 -20 -14 -43 -25 -49 -25 -7 0 -30 -18 -50 -39 -34 -36 -137 -111
-211 -154 -17 -10 -52 -40 -77 -67 -26 -27 -70 -63 -98 -80 -28 -18 -51 -35
-51 -39 0 -4 -34 -41 -75 -83 l-74 -75 -90 -7 c-113 -9 -231 1 -231 20 0 21
168 178 202 188 20 6 48 31 76 68 25 32 50 58 55 58 18 0 98 72 110 98 15 33
51 69 74 74 9 2 20 13 23 26 3 12 21 32 40 44 l35 23 -30 3 c-16 1 -39 7 -50
12 -24 10 -102 20 -109 13 -3 -3 -65 -4 -140 -4 -84 1 -137 -2 -141 -9 -8 -13
-132 -13 -140 0 -8 13 -52 13 -60 0 -5 -8 -11 -7 -21 1 -11 9 -20 9 -37 1 -28
-14 -2305 -33 -3781 -32 -708 1 -730 0 -750 -19 -12 -11 -31 -21 -44 -23 -21
-3 -18 -8 33 -63 61 -66 75 -101 75 -189 0 -48 5 -65 26 -93 21 -28 23 -37 13
-49 -10 -13 -14 -13 -29 1 -20 18 -28 19 -27 3 1 -33 -4 -48 -16 -48 -8 0 -22
-9 -32 -20 -16 -18 -31 -20 -125 -20 -93 0 -109 3 -124 19 -10 11 -15 25 -11
30 4 7 -5 11 -24 11 -17 0 -42 11 -59 25 -17 14 -37 23 -45 19 -9 -3 -29 10
-50 33 -20 20 -39 35 -42 31 -3 -3 1 -36 10 -74 13 -57 23 -76 65 -120 27 -28
52 -63 55 -77 4 -13 16 -29 28 -34 14 -7 26 -26 34 -55 9 -35 21 -51 53 -71
34 -23 40 -33 40 -62 0 -18 -4 -37 -10 -40 -5 -3 -10 -23 -10 -43 -1 -63 -75
-129 -158 -139 l-50 -5 -84 74 c-46 41 -93 80 -106 87 -12 6 -22 20 -22 31 0
28 -22 73 -46 92 -12 10 -24 31 -27 47 -3 16 -17 42 -31 57 l-25 29 -1 -106
c0 -58 3 -108 6 -112 8 -7 8 -106 1 -127 -9 -25 -15 -607 -21 -1930 -4 -690
-8 -1736 -11 -2325 -3 -687 -9 -1073 -15 -1079 -13 -13 -13 -56 0 -56 6 0 10
-85 10 -235 0 -150 -4 -235 -10 -235 -13 0 -13 -87 0 -95 13 -8 13 -92 0 -100
-13 -8 -13 -62 0 -70 13 -8 13 -48 0 -61 -11 -11 -17 -405 -6 -422 3 -6 2 -13
-4 -17 -11 -7 -14 -48 -4 -57 3 -4 5 -104 4 -223 0 -119 3 -222 8 -229 18 -25
34 -90 32 -134 -4 -75 -1 -87 25 -127 14 -20 42 -67 62 -103 20 -37 49 -85 64
-106 16 -22 29 -44 29 -49 0 -5 10 -23 23 -40 23 -32 73 -122 108 -194 11 -24
24 -43 29 -43 6 0 10 -7 10 -16 0 -8 32 -48 70 -89 l70 -74 0 -69 c0 -38 3
-103 6 -145 4 -48 3 -77 -3 -77 -13 0 -57 70 -78 124 -10 25 -24 51 -31 57 -8
6 -14 15 -14 20 0 5 -19 39 -43 76 -43 68 -107 193 -107 210 0 5 -16 24 -35
43 -19 18 -32 37 -29 41 2 4 0 10 -6 14 -5 3 -10 18 -10 33 0 15 -9 42 -20 60
-40 66 -110 23 -110 -68 0 -37 13 -73 60 -171 34 -68 65 -131 71 -139 5 -8 18
-28 29 -45 11 -16 20 -39 20 -51 0 -11 13 -33 28 -50 16 -16 36 -42 45 -59 31
-58 97 -225 97 -246 0 -12 22 -47 48 -78 90 -105 89 -101 91 -248 1 -73 -1
-133 -4 -133 -19 0 -111 110 -130 154 -41 95 -66 145 -75 151 -6 3 -22 32 -37
63 -15 31 -42 78 -61 105 -58 80 -94 87 -142 27 -17 -22 -29 -40 -25 -40 4 0
2 -6 -4 -13 -6 -8 -8 -16 -5 -19 8 -8 7 -260 -1 -281 -4 -9 -4 -25 0 -34 9
-23 10 -81 2 -90 -9 -8 -9 -148 0 -156 8 -9 7 -77 -2 -99 -4 -9 -3 -23 1 -30
10 -15 10 -50 1 -64 -8 -14 -18 -1340 -17 -2289 0 -401 0 -748 0 -770 -5 -251
-12 -1405 -9 -1465 6 -150 -12 -1485 -21 -1494 -17 -17 -11 -62 10 -81 14 -13
20 -31 20 -62 0 -23 4 -43 8 -43 4 0 23 16 42 35 42 43 87 59 143 49 23 -4 67
-8 97 -8 83 -2 104 -21 123 -111 10 -42 17 -107 17 -145 0 -63 -3 -73 -29
-102 -25 -28 -37 -33 -97 -39 -70 -8 -128 2 -169 27 -27 17 -100 7 -121 -17
-16 -18 -18 -99 -20 -1137 -3 -1202 -4 -3702 -1 -3792 3 -126 -12 -412 -23
-425 -8 -9 -8 -15 0 -20 5 -3 10 -40 10 -81 0 -41 5 -83 12 -93 9 -14 8 -40
-1 -107 -7 -49 -17 -93 -22 -99 -5 -5 -9 -36 -9 -68 0 -44 5 -65 20 -84 26
-33 25 -83 0 -128 -11 -20 -18 -40 -15 -45 2 -4 -2 -13 -10 -20 -11 -9 -15
-34 -15 -97 0 -77 3 -88 26 -115 14 -17 36 -52 49 -77 12 -26 41 -69 64 -96
23 -27 46 -65 52 -85 7 -19 21 -48 33 -65 30 -43 44 -66 58 -95 7 -14 28 -44
48 -67 19 -24 50 -60 68 -82 17 -21 32 -43 32 -49 0 -5 7 -12 15 -16 8 -3 15
-13 15 -23 0 -10 16 -42 35 -72 19 -29 35 -55 35 -57 0 -3 16 -26 35 -51 l35
-46 -3 -181 c-3 -147 -6 -181 -17 -181 -8 0 -19 10 -25 21 -6 12 -16 29 -23
37 -7 8 -36 61 -66 118 -73 142 -85 162 -133 226 -24 30 -43 63 -43 73 0 10
-7 23 -16 31 -17 14 -84 112 -84 123 0 5 -9 21 -20 36 -11 16 -20 32 -19 37 2
9 -7 35 -24 72 -12 24 -92 91 -108 91 -5 0 -9 -47 -9 -105 l0 -106 38 -52 c21
-29 43 -63 50 -77 6 -14 28 -47 47 -74 19 -26 35 -57 35 -69 0 -27 40 -95 107
-183 49 -65 93 -156 93 -193 0 -8 17 -35 38 -60 21 -25 47 -62 58 -81 10 -19
22 -37 25 -40 4 -3 19 -29 34 -58 l28 -54 -13 -98 c-6 -54 -9 -120 -6 -147 4
-28 2 -54 -4 -63 -9 -13 -13 -12 -28 8 -9 13 -40 50 -68 83 -28 32 -64 84 -78
115 -15 31 -37 71 -50 88 -13 17 -27 42 -31 56 -4 14 -18 41 -31 60 -13 19
-24 39 -24 45 0 6 -12 27 -26 46 -27 37 -47 76 -61 124 -8 25 -16 31 -44 33
-19 2 -38 8 -43 13 -21 20 -38 10 -34 -21 3 -17 1 -33 -4 -36 -11 -7 -11 -141
0 -148 5 -3 7 -18 4 -34 -2 -16 1 -33 7 -36 14 -9 15 -73 1 -81 -13 -8 -13
-72 0 -80 8 -5 7 -11 -1 -21 -9 -11 -9 -18 -1 -26 17 -17 16 -310 0 -326 -9
-9 -9 -15 0 -24 14 -14 16 -94 2 -103 -14 -9 -12 -61 2 -85 10 -16 10 -24 1
-39 -18 -29 -18 -1122 -1 -1152 10 -17 10 -23 1 -26 -16 -6 -18 -209 -3 -218
13 -8 13 -158 1 -170 -9 -10 -19 -1200 -11 -1209 3 -2 2 -55 -2 -118 -8 -145
-10 -343 -2 -350 7 -8 7 -218 0 -226 -9 -8 -7 -180 2 -186 9 -5 8 -53 -1 -63
-12 -11 -8 -391 3 -398 8 -5 8 -11 1 -19 -10 -12 -18 -916 -23 -2413 -1 -438
0 -484 15 -501 16 -17 15 -23 -23 -97 -35 -69 -40 -87 -40 -147 0 -37 4 -68 9
-68 12 0 60 50 89 93 13 20 28 37 32 37 4 0 27 17 51 38 63 55 114 77 180 77
42 -1 62 -6 85 -23 58 -46 116 -106 126 -131 31 -84 26 -344 -8 -382 -9 -10
-24 -19 -33 -19 -9 0 -29 -9 -46 -20 -16 -11 -40 -20 -52 -20 -12 0 -25 -4
-28 -10 -3 -5 -30 -10 -58 -10 -29 0 -70 -5 -92 -11 -22 -5 -55 -14 -73 -19
-19 -4 -42 -16 -53 -26 -19 -17 -19 -18 22 -60 23 -24 55 -46 71 -49 15 -4 30
-11 33 -16 4 -5 18 -9 33 -9 15 0 41 -9 57 -20 22 -14 47 -20 91 -20 56 0 63
-3 94 -35 19 -19 30 -35 26 -35 -5 0 -4 -6 2 -13 6 -7 14 -54 18 -105 7 -90 6
-94 -26 -164 -69 -149 -121 -198 -209 -198 -117 0 -224 100 -238 221 -3 30
-12 64 -19 76 -11 18 -12 27 -3 41 16 26 -14 72 -47 72 l-24 0 0 -224 c0 -139
4 -227 10 -231 14 -9 13 -78 -2 -93 -9 -9 -8 -18 2 -37 11 -21 12 -30 2 -45
-15 -24 -16 -57 -2 -65 14 -9 12 -69 -2 -83 -10 -10 -10 -17 0 -32 14 -24 16
-86 2 -95 -6 -3 -10 -17 -10 -30 0 -13 4 -27 10 -30 14 -9 13 -68 -2 -83 -9
-9 -9 -15 0 -24 15 -15 17 -224 2 -233 -13 -8 -13 -82 0 -90 14 -9 13 -68 -2
-83 -9 -9 -9 -15 0 -24 16 -16 15 -110 0 -127 -11 -11 -10 -14 0 -18 15 -6 18
-618 2 -628 -14 -8 -14 -562 0 -570 13 -8 13 -82 0 -90 -13 -8 -13 -302 0
-310 13 -8 13 -85 0 -85 -14 0 -14 -337 0 -345 5 -3 10 -17 10 -30 0 -13 -5
-27 -10 -30 -13 -8 -13 -145 0 -145 6 0 10 -18 10 -39 0 -22 -4 -43 -10 -46
-13 -8 -13 -252 0 -260 6 -4 10 -148 10 -400 0 -252 -4 -396 -10 -400 -6 -4
-10 -82 -10 -200 0 -118 4 -196 10 -200 15 -9 13 -198 -2 -213 -10 -10 -10
-17 0 -32 6 -11 12 -39 12 -63 0 -24 -6 -49 -12 -55 -10 -10 -10 -17 0 -32 15
-24 16 -102 1 -117 -14 -14 -13 -553 1 -567 15 -15 12 -35 -12 -68 -19 -28
-20 -35 -10 -75 7 -24 12 -50 12 -58 0 -16 99 -142 149 -189 17 -17 31 -36 31
-43 0 -7 4 -13 9 -13 5 0 19 -19 31 -43 12 -23 43 -66 69 -95 25 -30 51 -61
56 -70 6 -9 20 -25 33 -35 12 -10 22 -27 22 -37 0 -10 13 -31 30 -46 16 -16
35 -42 42 -58 11 -28 74 -96 89 -96 4 0 12 -14 18 -32 6 -17 17 -39 25 -47 12
-14 36 -219 36 -307 0 -32 -24 -31 -47 2 -10 14 -36 49 -59 77 -22 29 -39 58
-37 65 3 6 0 12 -6 12 -6 0 -11 6 -11 13 0 8 -21 40 -46 73 -25 32 -55 75 -65
94 -11 19 -37 67 -58 105 -21 39 -50 88 -65 109 -14 21 -26 43 -26 48 0 5 -19
34 -42 65 -24 30 -52 68 -63 83 -23 33 -65 60 -92 60 -22 0 -53 -48 -53 -83 0
-17 18 -47 50 -83 27 -31 47 -61 44 -65 -3 -5 18 -39 45 -76 28 -37 51 -75 51
-84 0 -9 8 -24 19 -33 10 -9 24 -37 31 -62 8 -27 31 -65 58 -95 24 -27 56 -72
71 -98 39 -73 130 -202 157 -224 13 -10 24 -24 24 -30 0 -12 36 -68 82 -128
33 -44 47 -124 25 -153 -10 -14 -12 -29 -6 -55 14 -59 11 -131 -5 -131 -23 0
-160 187 -226 309 -14 25 -42 69 -61 96 -20 28 -41 65 -47 82 -11 32 -60 105
-74 111 -4 2 -15 20 -25 40 -9 20 -27 51 -40 69 -12 17 -27 43 -33 58 -5 14
-18 28 -27 32 -10 3 -30 15 -45 25 -47 33 -52 19 -44 -131 3 -74 11 -140 16
-145 14 -14 13 -59 -1 -73 -16 -16 -14 -912 1 -927 14 -14 14 -513 0 -521 -14
-9 -12 -101 2 -125 10 -16 10 -24 0 -40 -14 -23 -16 -66 -3 -75 13 -7 13 -362
1 -370 -15 -9 -13 -228 3 -244 9 -11 9 -14 0 -18 -18 -7 -19 -904 -1 -933 9
-14 9 -24 0 -42 -8 -16 -13 -172 -17 -513 -5 -476 -17 -1980 -15 -2020 5 -127
-4 -1986 -9 -2030 -5 -33 -6 -181 -4 -329 3 -220 7 -272 19 -292 11 -15 14
-33 9 -54 -10 -46 7 -60 74 -60 144 -2 265 -71 325 -187 17 -34 22 -98 8 -107
-5 -3 -9 -31 -9 -63 -1 -55 -29 -143 -45 -143 -5 0 -8 -6 -8 -12 0 -7 -12 -26
-27 -43 -41 -47 -81 -41 -172 24 -48 34 -88 55 -112 58 -34 5 -43 1 -73 -29
-34 -34 -35 -38 -29 -86 4 -41 2 -54 -12 -69 -17 -16 -18 -36 -10 -308 4 -159
10 -384 12 -500 10 -524 10 -549 -4 -577 -7 -15 -13 -40 -13 -56 0 -15 -5 -33
-12 -40 -9 -9 -9 -15 0 -24 16 -16 16 -152 0 -178 -9 -14 -9 -25 -1 -42 19
-39 27 -80 29 -153 1 -38 5 -86 9 -106 5 -25 2 -44 -7 -60 -12 -20 -15 -115
-17 -554 -2 -523 -2 -530 -24 -560 l-21 -29 -3 -1216 c-1 -668 -3 -1226 -3
-1240 -1 -14 0 -108 1 -210 1 -102 1 -237 -1 -300 -1 -63 1 -136 5 -163 5 -31
3 -58 -5 -78 -16 -38 2 -101 37 -129 13 -10 23 -21 23 -25 0 -4 20 -36 45 -71
25 -34 45 -69 45 -76 0 -7 25 -44 56 -83 31 -38 62 -81 69 -95 7 -14 33 -44
57 -66 23 -23 68 -74 98 -114 30 -40 71 -91 91 -114 20 -23 39 -49 42 -59 4
-9 13 -17 20 -17 8 0 20 -14 27 -31 8 -17 40 -63 72 -101 l58 -70 0 -87 c0
-49 3 -129 6 -179 l7 -92 -24 0 c-17 0 -36 15 -64 51 -22 28 -55 67 -74 87
-19 21 -50 62 -71 93 -20 31 -62 81 -93 112 -31 30 -57 62 -57 70 0 8 -27 50
-60 93 -33 43 -60 83 -60 88 0 15 -100 106 -116 106 -8 0 -14 -9 -14 -19 0
-37 32 -146 51 -173 11 -14 19 -31 19 -36 0 -6 8 -17 18 -24 9 -7 26 -31 37
-52 17 -34 90 -125 154 -191 11 -12 23 -34 27 -50 10 -41 56 -103 98 -132 20
-13 36 -32 36 -41 0 -10 20 -38 45 -62 25 -24 45 -49 45 -54 0 -5 20 -36 45
-67 25 -32 45 -66 45 -78 0 -31 -18 -71 -33 -71 -16 0 -104 103 -206 240 -43
58 -85 111 -95 119 -9 7 -25 32 -35 55 -10 22 -44 70 -75 105 -31 36 -56 70
-56 77 0 7 -8 19 -17 26 -10 7 -22 20 -28 29 -5 9 -31 45 -57 80 -27 34 -48
70 -48 79 0 8 -5 22 -10 30 -9 13 -11 13 -20 0 -5 -8 -10 -29 -10 -45 0 -17
-6 -39 -14 -50 -21 -32 -27 -87 -12 -116 18 -35 22 -215 5 -235 -9 -11 -9 -18
-1 -26 15 -15 15 -71 1 -85 -13 -13 -14 -3026 -2 -3046 10 -17 11 -47 1 -53
-12 -8 -10 -68 4 -82 10 -10 10 -17 0 -32 -16 -25 -15 -85 0 -110 10 -16 10
-24 0 -40 -14 -22 -16 -96 -4 -104 11 -7 11 -85 0 -92 -12 -8 -10 -461 2 -469
13 -8 13 -62 0 -70 -14 -9 -14 -2022 0 -2030 13 -8 10 -104 -2 -111 -5 -3 -9
-29 -8 -57 0 -29 1 -169 1 -311 0 -143 4 -265 8 -270 11 -15 10 -48 -2 -64 -7
-9 -7 -16 1 -24 15 -15 16 -74 2 -83 -6 -3 -10 -21 -10 -38 -1 -18 -7 -43 -15
-57 -9 -15 -14 -54 -15 -100 0 -42 -4 -80 -9 -85 -5 -6 -12 -47 -16 -93 -5
-70 -4 -83 9 -88 23 -9 55 34 56 72 0 17 7 37 15 44 8 7 15 24 15 38 0 28 39
92 56 92 6 0 21 11 34 25 13 14 42 31 64 37 23 6 53 22 68 36 25 23 32 24 91
18 45 -5 75 -15 98 -32 18 -13 43 -24 55 -24 12 0 45 -21 73 -46 50 -45 51
-47 51 -104 0 -33 -5 -62 -10 -65 -6 -3 -10 -24 -10 -46 0 -32 -7 -46 -35 -75
-19 -19 -35 -42 -35 -51 0 -10 -14 -32 -32 -50 -29 -30 -30 -33 -11 -33 12 0
25 -4 28 -10 9 -14 67 0 91 21 12 12 36 19 60 19 21 0 48 7 58 15 11 8 26 15
34 15 8 0 28 12 45 26 30 25 36 26 119 22 63 -4 96 -11 115 -24 16 -10 37 -23
48 -29 25 -13 45 -52 45 -90 0 -32 -35 -109 -73 -159 -18 -22 -23 -40 -20 -62
4 -27 0 -36 -31 -59 -20 -15 -34 -31 -31 -35 3 -5 1 -11 -5 -15 -5 -3 -10 -17
-10 -30 0 -26 -54 -95 -74 -95 -7 0 -23 -11 -36 -25 -13 -14 -31 -25 -39 -25
-9 0 -29 -7 -45 -15 -15 -8 -37 -15 -47 -15 -10 0 -21 -5 -24 -11 -4 -6 -21
-9 -38 -7 -23 2 -32 -1 -32 -12 0 -12 24 -16 125 -22 69 -4 150 -4 180 0 69
10 206 8 375 -7 72 -6 192 -11 267 -11 84 0 139 -4 143 -10 5 -8 11 -8 19 -1
17 14 329 20 931 19 259 0 634 1 835 3 201 1 736 4 1190 5 454 1 836 3 850 4
76 7 438 -14 462 -26 14 -8 62 -16 105 -19 103 -6 159 -19 183 -40 18 -16 22
-17 54 -1 19 9 49 19 68 23 18 3 39 15 46 25 18 25 41 23 71 -6 33 -31 121
-47 121 -22 0 29 -49 95 -88 120 -37 23 -57 43 -77 76 -23 39 -73 99 -78 94
-8 -8 -77 26 -121 60 -22 17 -74 65 -115 107 -42 42 -94 87 -116 101 -22 14
-49 35 -59 47 -11 11 -24 21 -30 21 -6 0 -31 20 -54 45 -23 25 -49 45 -56 45
-19 0 -46 28 -46 47 0 13 14 15 103 11 91 -4 108 -8 142 -31 22 -15 46 -27 53
-27 14 0 31 -14 202 -165 47 -41 91 -75 99 -75 8 0 29 -16 48 -35 33 -34 177
-145 189 -145 9 0 34 -28 34 -37 0 -5 15 -17 34 -25 19 -9 58 -37 87 -62 30
-26 75 -64 101 -86 25 -22 49 -40 53 -40 5 0 13 -7 19 -16 7 -8 30 -18 52 -21
37 -5 41 -3 58 30 19 33 19 35 0 73 -13 25 -33 45 -60 59 -22 11 -79 55 -125
98 -46 44 -100 87 -120 98 -20 10 -39 25 -42 34 -4 8 -19 21 -34 27 -15 7 -61
41 -100 75 -40 35 -79 63 -87 63 -8 0 -16 4 -18 8 -2 4 -24 20 -49 35 -48 27
-133 119 -122 131 3 3 30 6 59 6 29 0 56 4 59 10 8 12 72 13 79 1 3 -5 17 -12
32 -15 30 -8 147 -99 169 -132 8 -12 39 -34 69 -49 30 -15 88 -53 128 -86 40
-32 76 -59 79 -59 4 0 24 -17 46 -37 22 -21 75 -64 118 -96 82 -60 188 -151
233 -199 14 -16 30 -28 36 -28 6 0 27 -11 46 -24 61 -41 74 -41 120 0 l41 37
622 3 c1303 6 1845 6 2237 1 223 -2 445 0 493 5 74 8 92 7 112 -6 28 -18 58
-20 86 -6 24 13 24 17 -3 60 -12 19 -22 37 -23 40 -1 10 -55 112 -70 133 -9
12 -15 43 -15 72 0 44 4 55 29 79 17 16 38 34 49 40 11 6 31 19 45 29 48 34
217 62 231 38 3 -5 22 -12 42 -15 44 -9 114 -71 149 -133 25 -46 34 -120 16
-138 -5 -6 -25 -40 -45 -76 l-35 -67 31 -41 c33 -46 47 -49 123 -25 47 15 85
16 298 11 23 0 83 0 132 1 50 1 117 2 150 2 33 0 496 2 1030 5 759 5 975 3
993 -6 17 -10 31 -10 55 -2 20 7 98 9 207 7 96 -2 191 -3 210 -2 19 0 85 1
145 1 61 0 128 0 150 0 22 0 67 1 100 0 33 0 168 0 300 0 132 -1 251 -1 265
-1 14 -1 95 -1 180 0 671 2 1161 -16 1212 -43 28 -15 104 -11 118 6 16 19 70
19 96 0 14 -10 47 -14 122 -15 113 0 119 4 85 62 -16 25 -100 88 -120 88 -3 0
-14 6 -22 14 -9 8 -45 29 -81 48 -36 19 -81 45 -100 56 -19 12 -42 25 -50 29
-8 4 -19 13 -25 20 -5 7 -26 21 -45 32 -19 10 -62 33 -95 51 -67 37 -93 50
-148 75 -20 10 -37 23 -37 31 0 7 -19 18 -42 24 -24 6 -50 15 -58 20 -8 6 -22
13 -30 16 -23 9 -53 23 -75 37 -99 61 -149 87 -162 87 -29 0 -83 24 -80 35 5
14 117 19 130 6 14 -14 84 -14 92 -1 4 7 11 7 18 2 7 -5 39 -12 72 -15 67 -5
196 -66 250 -116 17 -16 53 -41 80 -56 28 -15 59 -35 70 -46 11 -10 38 -25 60
-32 38 -14 144 -80 155 -97 3 -4 23 -16 45 -28 22 -11 66 -43 97 -70 32 -28
68 -54 80 -57 13 -4 35 -19 50 -34 43 -43 142 -112 207 -144 25 -13 60 -17
138 -17 l103 0 0 28 c0 31 -25 66 -55 76 -11 4 -21 7 -22 7 -16 -2 -87 42
-107 66 -27 32 -93 75 -136 88 -14 4 -43 23 -66 41 -23 19 -44 34 -49 34 -4 0
-16 11 -27 25 -11 14 -24 25 -30 25 -5 0 -23 11 -40 25 -16 14 -37 25 -46 25
-21 1 -52 23 -52 38 0 7 -17 20 -37 30 -21 11 -51 27 -68 36 -16 9 -37 16 -45
16 -8 0 -29 9 -47 20 l-32 19 17 31 c19 33 62 47 110 36 15 -4 35 -7 44 -7 30
0 227 -114 235 -135 3 -8 11 -14 18 -14 8 0 34 -16 59 -35 26 -19 51 -35 57
-35 7 0 22 -11 35 -25 13 -14 27 -25 31 -25 4 0 26 -14 47 -30 22 -17 45 -30
53 -30 7 0 36 -24 65 -54 29 -29 64 -57 78 -61 14 -4 44 -23 67 -41 23 -19 44
-34 47 -34 3 0 14 -7 24 -16 20 -18 119 -78 176 -107 34 -16 53 -18 135 -13
53 3 125 10 161 15 39 6 234 8 480 5 400 -5 509 -6 725 -4 55 0 134 -2 175 -4
41 -3 107 -1 145 4 39 5 113 5 165 1 72 -6 104 -4 132 6 24 10 43 11 55 5 10
-5 144 -10 298 -11 541 -4 736 -9 750 -21 9 -8 15 -8 20 0 5 7 62 10 179 9
142 -2 177 1 203 14 17 9 35 21 38 27 4 6 18 1 34 -11 37 -27 114 -37 137 -18
10 8 23 28 30 46 12 26 11 37 -1 66 -15 37 -67 87 -91 87 -8 0 -19 11 -24 25
-5 14 -13 25 -18 25 -31 0 -36 158 -7 206 21 34 79 63 100 52 12 -7 30 -6 57
3 29 9 41 10 50 1 7 -7 20 -12 29 -12 31 0 198 -137 212 -172 3 -9 22 -21 42
-27 48 -13 64 -36 65 -88 0 -24 4 -43 9 -43 11 0 71 79 71 93 0 5 11 22 25 39
14 16 25 38 25 49 0 35 27 86 68 127 49 49 109 68 245 76 88 5 99 4 117 -14
11 -11 24 -20 28 -20 17 0 72 -32 72 -41 0 -6 14 -30 30 -54 22 -33 30 -55 30
-89 0 -25 -4 -48 -10 -51 -5 -3 -10 -18 -10 -32 0 -15 -8 -35 -17 -46 -14 -14
-18 -36 -18 -88 0 -62 2 -69 19 -69 11 0 30 -10 44 -22 l24 -23 996 -2 c1301
-3 1393 -3 2212 -2 382 1 778 1 880 0 172 -1 328 13 346 31 11 11 648 10 660
-1 5 -5 52 -11 105 -13 l96 -3 55 43 c30 23 62 42 70 42 9 0 25 16 37 35 11
19 31 39 43 44 13 5 39 24 58 43 19 19 57 49 83 67 27 18 109 94 182 167 84
84 141 134 154 134 11 0 37 18 57 40 55 59 115 85 140 60 14 -14 100 -32 159
-34 84 -2 75 -22 -77 -172 -195 -192 -408 -420 -408 -436 0 -28 24 -38 92 -38
54 0 68 3 68 15 0 9 8 19 17 22 23 9 123 108 123 122 0 7 8 15 18 19 28 11
129 106 197 185 22 25 45 47 50 47 10 0 84 69 144 133 19 21 37 37 41 37 5 0
27 16 50 35 l41 34 82 -5 c131 -9 159 -34 88 -78 -22 -14 -45 -34 -53 -44 -12
-17 -164 -140 -211 -171 -12 -8 -52 -33 -88 -56 -36 -24 -92 -68 -125 -98 -32
-30 -68 -56 -79 -58 -11 -2 -28 -19 -37 -38 -9 -19 -30 -40 -45 -46 -15 -7
-37 -22 -47 -34 l-19 -21 154 -2 c203 -2 248 1 283 18 33 16 152 19 161 4 8
-13 112 -13 120 0 8 14 58 13 73 -2 8 -8 15 -8 28 3 14 11 250 13 1480 11
1337 -1 1467 -3 1496 -18 35 -18 132 -14 151 5 17 17 140 13 173 -4 31 -17
137 -12 161 7 11 9 177 6 382 -7 68 -5 101 -3 118 6 19 10 28 10 43 1 11 -7
54 -12 96 -12 75 0 76 1 69 23 -3 12 -9 33 -12 47 -2 14 -7 32 -10 40 -10 24
-10 34 -1 46 5 7 13 46 17 88 9 79 22 106 50 106 9 0 31 9 49 20 51 32 126 27
202 -12 34 -18 65 -39 68 -48 3 -8 21 -35 40 -60 32 -43 34 -48 29 -110 -2
-36 -7 -73 -12 -83 -7 -17 3 -18 211 -17 491 4 3645 -9 3654 -15 6 -4 152 -3
326 1 l315 7 6 29 c4 19 13 30 29 34 14 4 32 16 42 28 9 12 44 42 78 68 67 51
174 162 174 181 0 7 24 28 52 47 50 34 76 58 211 198 56 58 64 62 106 63 25 1
99 3 164 5 109 3 117 2 117 -15 0 -11 -51 -67 -122 -135 -68 -64 -150 -147
-183 -185 -64 -72 -186 -181 -204 -181 -6 0 -11 -4 -11 -9 0 -4 -27 -25 -60
-45 -52 -32 -80 -60 -80 -80 0 -3 21 -6 46 -6 63 0 180 58 247 122 29 28 75
61 104 73 28 13 59 31 70 42 10 10 35 26 56 35 20 10 37 24 37 31 0 16 61 77
77 77 6 0 13 9 16 20 3 11 13 23 24 27 10 3 25 12 33 19 8 7 41 36 73 64 35
31 67 50 82 50 13 0 28 6 32 14 25 45 131 93 147 67 3 -5 23 -12 43 -15 48 -8
51 -8 91 0 48 9 42 -23 -13 -64 -25 -18 -45 -38 -45 -45 0 -7 -15 -22 -33 -35
-17 -13 -56 -41 -86 -62 -30 -22 -60 -40 -67 -40 -14 0 -131 -92 -184 -145
-19 -19 -46 -39 -60 -45 -39 -16 -115 -74 -178 -135 -31 -30 -64 -58 -74 -61
-34 -10 -18 -23 39 -30 89 -11 1765 4 1777 16 13 13 96 13 96 0 0 -6 37 -10
90 -10 53 0 90 4 90 10 0 13 157 13 165 0 3 -6 26 -10 50 -10 24 0 47 4 50 10
8 13 122 13 130 0 9 -14 528 -13 542 1 8 8 17 8 31 0 28 -15 148 -14 172 1 16
10 24 10 40 0 24 -15 92 -16 107 -1 8 8 13 8 17 0 9 -14 143 -15 151 -1 8 13
182 13 190 0 8 -13 102 -13 110 0 8 13 118 13 131 1 5 -6 61 -12 124 -15 63
-3 155 -8 204 -12 101 -6 156 1 156 20 0 19 -77 86 -99 86 -10 0 -39 16 -64
35 -25 19 -53 35 -61 35 -26 0 -94 69 -107 108 -6 20 -15 41 -20 47 -20 21 -7
60 37 111 40 47 50 54 83 54 20 0 42 5 48 11 8 8 13 8 17 0 4 -6 36 -11 72
-11 63 0 124 -20 124 -40 0 -5 15 -17 33 -25 17 -8 47 -26 66 -40 30 -22 37
-24 55 -12 32 21 50 60 43 89 -4 14 -29 49 -57 78 -27 29 -50 57 -50 63 0 6
-20 29 -44 53 -33 31 -46 52 -51 83 -4 22 -11 41 -16 41 -14 0 -11 64 6 96 8
17 25 40 38 52 21 20 30 22 82 16 54 -7 61 -11 126 -76 38 -38 69 -72 69 -77
0 -4 11 -21 25 -37 13 -15 27 -41 30 -56 4 -16 24 -52 46 -80 21 -29 39 -62
39 -75 0 -12 5 -25 10 -28 6 -4 8 -10 5 -15 -3 -4 2 -13 10 -20 8 -7 15 -23
15 -36 0 -30 12 -36 43 -21 35 16 41 49 28 155 -8 61 -10 929 -7 2907 3 1551
5 2829 6 2840 0 11 1 502 1 1090 1 589 2 1263 3 1500 1 413 0 430 -18 433 -32
7 -96 -30 -157 -89 -33 -31 -59 -61 -59 -67 0 -6 -40 -53 -88 -104 -48 -51
-112 -126 -142 -165 -41 -55 -61 -73 -79 -73 -23 0 -23 1 -17 63 9 79 37 230
45 237 4 3 12 16 18 30 6 14 48 66 92 115 45 50 90 109 101 132 10 23 24 44
30 48 13 8 80 112 80 124 0 5 8 15 17 22 9 8 52 58 95 112 83 104 95 139 60
170 -26 24 -77 32 -90 15 -6 -7 -26 -31 -45 -53 -53 -64 -151 -188 -162 -207
-5 -9 -26 -42 -45 -74 -19 -31 -41 -67 -47 -79 -17 -29 -40 -48 -51 -41 -15 9
-8 151 8 171 8 10 14 21 13 24 0 3 5 21 13 40 19 46 18 68 -5 81 -14 7 -18 16
-13 32 8 25 51 106 80 149 57 87 73 107 101 133 17 17 31 35 31 41 0 7 8 19
18 29 11 9 27 41 37 71 11 30 23 55 27 55 4 0 8 6 8 13 0 24 59 79 78 73 33
-11 59 32 67 109 10 106 9 135 -3 195 -9 41 -11 331 -6 1140 3 597 6 1103 5
1125 -1 447 1 2009 4 2235 4 281 7 905 6 1163 l-1 109 -53 55 c-46 48 -58 55
-91 55 -27 0 -45 -7 -65 -26 -36 -35 -148 -51 -201 -29 -51 21 -80 52 -86 95
-4 21 -13 43 -20 49 -8 7 -14 31 -14 58 0 45 3 49 78 124 l77 77 92 0 c67 0
94 -4 100 -14 20 -33 94 -47 147 -26 23 9 26 15 26 63 0 29 -5 58 -10 63 -11
11 -16 1152 -5 1162 8 8 6 100 -3 105 -9 6 -8 64 1 74 9 9 9 71 -1 76 -8 6 -7
111 2 125 9 14 10 588 1 603 -11 17 -11 61 -1 78 5 7 3 24 -5 38 -11 20 -11
28 0 45 13 22 17 339 4 361 -8 14 -8 75 0 84 9 9 9 458 0 467 -11 10 -12 50
-1 62 8 11 6 359 -2 486 -2 27 0 51 3 55 10 9 9 271 -1 277 -5 3 -6 20 -3 38
9 59 12 640 3 652 -9 12 -8 78 1 93 4 6 4 13 0 17 -8 8 -7 135 1 143 8 8 8 88
-1 96 -8 8 -7 77 1 97 8 19 2 883 -6 923 -3 15 -1 30 4 33 4 3 6 10 2 15 -7
13 -8 199 0 206 10 10 7 1301 -3 1307 -4 3 -7 16 -5 28 2 13 8 50 14 83 10 69
9 550 -2 561 -10 10 -46 -23 -54 -50 -4 -11 -38 -52 -76 -90 -38 -39 -76 -82
-83 -97 -8 -14 -36 -45 -62 -67 -27 -22 -59 -61 -72 -89 -25 -51 -78 -113 -96
-113 -16 0 -69 -62 -88 -102 -22 -47 -57 -82 -69 -70 -20 20 -13 126 10 171
12 23 22 55 22 71 0 16 4 31 9 34 4 3 11 23 14 43 5 29 24 56 82 117 41 43 75
83 75 87 0 5 4 9 10 9 5 0 17 16 26 35 9 20 38 55 65 79 54 49 129 143 129
163 0 7 7 13 15 13 8 0 41 32 75 70 54 64 60 75 60 115 0 25 -2 45 -4 45 -3 0
-27 -11 -53 -25 -52 -27 -283 -249 -283 -272 0 -19 -171 -198 -190 -198 -8 0
-21 -4 -28 -8 -23 -15 -26 23 -3 54 18 24 19 32 9 49 -10 16 -10 25 5 49 9 16
17 45 17 65 0 50 24 103 49 111 15 4 21 15 21 34 0 28 36 71 59 71 7 0 22 11
33 25 11 14 26 25 34 25 8 0 14 6 14 13 0 14 83 95 121 120 15 9 37 36 49 61
16 35 34 53 76 76 l54 32 -2 278 c-2 213 0 282 10 291 16 17 16 143 0 169 -10
15 -9 24 2 45 11 21 11 32 2 59 -15 39 -16 162 -2 171 6 3 10 37 10 75 0 38
-4 72 -10 75 -5 3 -10 19 -10 35 0 16 5 32 10 35 13 8 13 52 0 60 -8 5 -8 11
0 20 7 8 10 62 9 145 0 72 2 134 5 137 8 8 8 138 0 145 -7 8 -8 207 0 215 8 8
8 338 -1 346 -3 4 -6 25 -6 47 0 22 3 43 6 47 9 8 9 238 1 246 -8 8 -8 97 0
117 3 8 8 872 11 1920 3 1048 7 1963 9 2033 3 112 2 129 -14 137 -18 10 -20
34 -3 65 22 43 47 132 44 163 -1 18 2 32 8 32 18 0 12 83 -7 108 -16 21 -21
22 -67 12 -28 -6 -56 -14 -63 -19 -7 -4 -18 -46 -25 -93 -17 -114 -52 -159
-170 -218 -71 -36 -88 -41 -127 -36 -44 6 -100 46 -100 72 0 7 -19 34 -41 61
l-42 47 7 88 c5 74 11 97 42 155 57 109 140 172 247 188 89 14 109 71 43 127
-33 30 -83 37 -115 17 -24 -16 -62 -5 -92 25 -31 31 -46 61 -54 110 -3 21 -17
49 -31 63 -15 14 -31 50 -41 86 -13 52 -14 73 -4 133 7 39 11 75 9 80 -4 13
44 74 58 74 6 0 17 7 24 15 7 9 15 13 18 11 2 -3 34 11 71 31 48 26 78 36 112
37 58 0 111 -30 122 -70 5 -16 17 -47 27 -69 10 -22 21 -57 24 -79 6 -44 27
-72 62 -80 29 -8 80 17 88 41 3 10 4 77 4 149 -2 97 1 136 11 148 10 12 11 19
2 30 -14 17 -21 613 -7 635 10 15 11 77 3 101 -16 44 -16 132 -1 161 13 25 13
33 2 46 -18 23 -24 356 -7 398 7 17 11 39 10 50 -1 11 -4 41 -7 68 -3 26 -3
55 1 65 12 27 14 42 5 47 -5 3 -9 95 -9 205 -1 110 -5 210 -10 222 -4 13 -6
68 -3 123 2 55 6 271 7 479 2 209 7 391 11 405 9 37 9 95 -1 112 -13 21 -17
903 -4 937 6 15 10 95 9 185 0 88 3 164 8 170 19 25 21 61 5 79 -9 10 -13 18
-8 18 4 0 3 6 -3 13 -7 9 -12 93 -13 238 -1 154 -5 239 -15 272 -12 42 -11 53
3 88 12 31 14 60 9 137 -4 53 -7 106 -7 117 -4 74 11 459 18 468 10 14 9 35
-1 58 -6 14 -3 254 4 334 2 17 0 38 -5 48 -4 9 -4 25 0 35 5 9 9 22 10 27 0 6
5 18 9 28 5 10 3 23 -4 32 -7 8 -10 21 -7 30 4 8 2 17 -2 19 -15 10 -22 126
-9 149 7 12 12 25 13 29 0 3 3 10 8 14 11 11 9 172 -3 179 -5 3 -10 37 -10 75
0 38 5 72 10 75 12 7 13 48 3 59 -5 4 -8 11 -9 14 0 4 -4 15 -9 25 -4 11 -3
23 3 29 6 6 8 16 6 23 -3 7 -1 16 5 20 14 8 14 52 0 60 -6 4 -9 34 -8 71 1 35
-1 67 -4 71 -10 10 -8 111 2 117 5 3 7 24 4 47 -4 24 -1 50 7 64 10 19 10 27
1 39 -7 8 -10 20 -7 25 4 5 2 12 -4 16 -12 8 -13 72 -1 79 5 3 7 15 4 25 -3
10 0 22 6 25 6 4 11 18 11 30 0 28 25 92 40 101 16 10 12 40 -8 58 -30 27 -79
22 -110 -12 -15 -16 -51 -54 -79 -85 -29 -31 -53 -60 -53 -66 0 -14 -73 -79
-89 -80 -8 0 -90 -75 -183 -167 -163 -163 -217 -203 -244 -182 -13 10 -5 59
21 129 11 30 14 59 10 87 -6 41 -6 42 51 85 77 58 183 167 196 200 5 15 33 44
61 64 29 21 74 58 102 84 27 25 63 52 78 60 16 8 33 22 38 32 5 10 16 18 23
18 31 0 86 94 86 148 0 18 5 42 11 53 10 20 10 20 -23 3 -18 -9 -57 -40 -88
-69 -61 -57 -206 -175 -216 -175 -13 0 -94 -73 -94 -85 0 -7 -22 -22 -49 -34
-33 -14 -57 -33 -71 -55 -25 -41 -75 -86 -96 -86 -20 0 -19 108 2 138 10 14
14 39 13 66 -2 24 2 50 7 58 6 7 14 21 17 31 4 9 17 22 29 27 13 5 46 35 73
66 69 78 259 281 366 391 80 84 89 96 89 131 0 21 7 47 15 58 17 22 21 139 5
149 -6 4 -8 10 -5 15 3 4 -1 13 -8 18 -18 16 -14 3138 5 3195 9 30 9 43 0 58
-16 25 -17 1065 -2 1074 6 4 8 15 5 25 -3 10 -2 21 4 24 5 3 12 51 16 106 7
92 6 101 -14 126 -19 25 -21 39 -21 198 0 113 4 176 11 183 11 11 10 32 -7
124 -3 23 -2 39 5 43 15 9 15 562 1 571 -5 3 -10 26 -10 50 0 24 5 47 10 50
12 8 14 871 2 879 -12 7 -87 -20 -132 -49 -22 -14 -45 -25 -52 -25 -7 0 -34
-11 -60 -25 -62 -33 -102 -33 -125 1 -10 14 -28 38 -41 54 -19 24 -24 48 -32
141 -5 62 -6 117 -3 123 17 29 117 136 127 136 6 0 28 9 49 20 38 21 116 27
133 11 8 -9 125 -51 139 -51 4 0 5 26 4 58 -1 32 1 63 5 70 3 6 6 572 6 1258
0 1232 0 1247 20 1279 20 32 20 50 20 490 0 252 -2 460 -5 463 -10 10 -5 88 6
99 8 8 8 13 0 17 -11 7 -16 98 -5 108 3 4 5 59 5 123 0 64 -2 119 -5 123 -9 8
-7 260 2 266 4 2 5 22 3 43 -3 21 -6 181 -8 357 -3 235 0 322 8 333 9 10 9 17
1 25 -15 15 -17 524 -3 532 10 7 9 31 -2 42 -8 9 -9 48 -1 56 3 3 5 63 5 133
0 70 -2 130 -5 133 -12 11 -6 288 6 300 9 9 9 15 0 24 -14 14 -17 134 -4 142
5 3 7 18 4 34 -2 16 1 33 7 36 7 5 11 67 11 187 0 164 -1 179 -17 179 -10 0
-32 -15 -49 -33 -18 -17 -60 -59 -95 -92 -35 -33 -104 -103 -155 -155 -50 -52
-117 -113 -148 -135 -30 -22 -56 -45 -56 -50 0 -13 -102 -115 -114 -115 -4 0
-15 -9 -24 -20 -10 -11 -28 -21 -41 -22 -24 -3 -25 -2 -27 82 -2 107 16 176
56 215 16 16 30 34 30 39 0 6 19 30 43 53 23 23 62 68 87 99 25 32 77 90 115
129 167 171 280 305 257 305 -13 0 65 73 101 93 37 21 37 21 37 86 -1 59 -14
101 -34 101 -19 0 -112 -81 -186 -162 -47 -51 -111 -118 -142 -148 -31 -30
-113 -110 -182 -177 -68 -68 -132 -123 -140 -123 -21 0 -30 43 -16 71 7 12 12
47 12 78 -1 73 24 108 185 257 173 161 322 314 329 339 10 29 69 99 99 115 14
7 25 19 25 25 0 6 11 22 25 35 24 22 25 29 25 135 0 75 -5 122 -14 141 -19 39
-31 201 -16 219 10 12 17 445 7 463 -4 7 -13 963 -22 2417 -9 1406 -17 2250
-22 2258 -3 5 -4 41 -2 80 7 176 9 592 3 606 -8 22 -8 106 0 120 4 6 4 15 1
21 -8 14 -7 728 2 742 16 27 26 110 27 233 0 72 5 137 10 145 6 8 9 32 7 53
-1 21 3 44 9 52 8 9 12 82 13 223 l2 209 -29 41 c-20 30 -36 42 -53 42 -28 0
-85 -27 -96 -46 -4 -8 -9 -55 -10 -104 -1 -60 -6 -93 -14 -98 -7 -5 -16 -30
-19 -58 -4 -27 -13 -59 -20 -71 -8 -12 -14 -31 -14 -41 0 -22 -30 -52 -53 -52
-9 0 -19 -4 -22 -10 -13 -22 -70 -6 -175 49 -21 11 -27 50 -29 178 l-1 111 48
41 c26 23 55 41 64 41 9 0 39 26 67 58 l50 57 -27 6 c-15 3 -43 15 -62 25 -47
26 -66 21 -138 -36 -43 -35 -70 -50 -91 -50 -17 0 -40 -4 -53 -9 -39 -16 -63
-24 -70 -25 -3 -1 -10 -4 -14 -8 -4 -5 -29 -8 -56 -8 -46 0 -53 3 -98 50 -35
36 -51 61 -55 88 -3 20 -10 45 -16 54 -15 28 -11 85 6 92 8 3 15 12 15 21 0
21 90 105 114 105 10 0 33 9 51 20 24 15 61 22 144 29 123 10 141 19 167 80
23 54 18 70 -25 90 -37 16 -83 17 -648 13 -515 -4 -2643 -4 -2813 -1 -30 1
-311 1 -625 1 -313 0 -667 1 -785 2 l-215 1 -52 -29 c-50 -27 -53 -30 -53 -68
0 -30 8 -50 32 -80 30 -38 31 -42 19 -75 -18 -47 -2 -63 35 -36 l28 20 85 -73
c146 -124 331 -323 331 -355 0 -23 -15 -25 -190 -19 l-155 6 -31 29 c-16 17
-33 38 -37 48 -4 9 -18 22 -32 27 -40 15 -90 56 -106 87 -15 28 -47 62 -99
102 -16 13 -30 27 -30 31 0 9 -116 130 -125 130 -14 0 -146 113 -171 146 -16
20 -39 38 -56 41 -16 3 -31 10 -34 14 -11 19 -54 9 -70 -16 -31 -47 0 -135 55
-158 34 -15 107 -74 196 -159 100 -96 232 -208 244 -208 15 0 33 -38 29 -62
-4 -27 -79 -54 -107 -38 -11 5 -45 10 -75 10 -30 0 -79 5 -108 11 -51 11 -61
18 -253 209 -262 259 -395 381 -470 430 -32 21 -85 26 -101 10 -12 -12 -407
-7 -502 5 -34 5 -57 3 -66 -4 -13 -11 -499 -18 -956 -13 -96 1 -345 -1 -553
-4 -343 -6 -379 -5 -403 11 -20 13 -28 14 -40 4 -22 -18 -489 -16 -511 2 -20
18 -188 18 -205 1 -19 -19 -113 -14 -150 7 -45 26 -75 34 -83 22z m7681 -1045
c635 -3 796 -7 813 -18 17 -10 25 -10 41 0 25 15 82 16 98 0 9 -9 15 -9 24 0
14 14 104 16 113 2 8 -14 41 -13 65 2 16 10 24 10 40 0 12 -7 58 -12 124 -12
l104 0 7 -112 c3 -62 7 -553 8 -1091 1 -699 5 -980 13 -985 15 -9 38 -274 30
-337 -4 -27 -9 -74 -12 -102 -3 -29 -10 -53 -15 -53 -5 0 -9 -151 -10 -357 0
-197 -5 -407 -10 -468 -6 -60 -13 -236 -16 -390 -3 -177 -9 -285 -15 -293 -8
-9 -8 -16 0 -24 13 -13 17 -100 5 -112 -11 -11 -12 -35 -2 -42 13 -8 11 -68
-3 -82 -9 -9 -9 -15 0 -24 9 -9 12 -109 12 -388 0 -206 5 -582 11 -835 7 -354
10 -1218 5 -1585 -2 -165 18 -1360 23 -1360 8 0 31 -2775 30 -3600 0 -305 2
-591 5 -635 3 -44 8 -834 11 -1755 4 -1061 9 -1678 15 -1684 14 -14 13 -173
-1 -182 -8 -4 -8 -9 0 -17 14 -14 14 -84 1 -92 -5 -3 -10 -19 -10 -35 0 -16 5
-32 10 -35 6 -4 10 -128 10 -340 0 -212 -4 -336 -10 -340 -14 -9 -13 -302 1
-310 6 -5 10 -96 10 -268 0 -144 2 -419 4 -612 10 -740 4 -1870 -10 -1883 -3
-3 0 -11 6 -19 17 -20 21 -4458 4 -4499 -9 -23 -9 -35 1 -59 9 -22 12 -133 13
-425 0 -379 -5 -450 -30 -450 -15 0 -10 -22 8 -42 13 -14 17 -40 19 -101 3
-170 16 -2497 20 -3872 4 -933 9 -1434 15 -1442 7 -8 7 -18 0 -32 -14 -24 -15
-1397 -2 -1405 10 -7 9 -76 -2 -93 -4 -6 -3 -14 3 -18 15 -9 12 -84 -6 -134
-15 -45 -11 -125 8 -137 5 -3 8 -91 8 -201 -1 -107 1 -197 4 -201 8 -7 8 -717
0 -725 -8 -7 -8 -126 0 -147 2 -8 8 -829 11 -1825 3 -995 8 -2368 10 -3050 3
-682 8 -2108 11 -3170 4 -1403 8 -1936 16 -1953 9 -17 9 -25 0 -34 -15 -15
-17 -414 -2 -423 6 -3 10 -26 10 -50 0 -24 -4 -47 -10 -50 -5 -3 -10 -17 -10
-30 0 -13 5 -27 10 -30 6 -3 10 -37 10 -75 0 -38 -4 -72 -10 -75 -5 -3 -10
-19 -10 -35 0 -16 5 -32 10 -35 14 -8 13 -92 -1 -101 -8 -4 -8 -9 0 -17 14
-14 15 -97 1 -97 -6 0 -5 -8 2 -20 11 -17 10 -22 -2 -30 -12 -7 -12 -12 -2
-22 15 -15 17 -224 2 -233 -5 -3 -10 -28 -10 -55 0 -27 5 -52 10 -55 6 -3 10
-24 10 -45 0 -21 -4 -42 -10 -45 -5 -3 -10 -26 -10 -50 0 -24 5 -47 10 -50 6
-3 10 -44 10 -90 0 -46 -4 -87 -10 -90 -5 -3 -10 -21 -10 -40 0 -19 5 -37 10
-40 14 -9 12 -91 -2 -115 -10 -16 -10 -24 0 -40 17 -28 17 -661 0 -678 -10
-10 -10 -17 0 -33 9 -14 12 -83 12 -262 -1 -133 2 -250 5 -259 4 -10 4 -25 1
-34 -7 -19 -8 -1755 -1 -1762 9 -10 5 -48 -7 -60 -9 -9 -9 -15 0 -24 14 -14
17 -204 3 -212 -4 -3 -6 -18 -3 -33 12 -54 13 -2965 2 -2979 -8 -8 -8 -14 0
-19 14 -9 14 -747 0 -761 -7 -7 -6 -19 4 -38 12 -23 14 -278 15 -1704 0 -922
3 -2170 6 -2772 2 -602 7 -1889 11 -2860 3 -1039 10 -1766 15 -1768 12 -5 11
-69 -1 -77 -14 -8 -14 -482 0 -490 6 -3 10 -17 10 -30 0 -13 -4 -27 -10 -30
-5 -3 -10 -28 -10 -55 0 -27 5 -52 10 -55 6 -4 10 -192 10 -530 0 -338 -4
-526 -10 -530 -5 -3 -10 -17 -10 -30 0 -13 5 -27 10 -30 6 -3 10 -26 10 -50 0
-24 -4 -47 -10 -50 -13 -8 -13 -102 0 -110 17 -10 11 -51 -10 -70 -17 -15 -24
-16 -43 -7 -23 12 -468 32 -857 37 -364 6 -538 13 -559 24 -13 7 -22 8 -26 1
-3 -5 -21 -10 -40 -10 -19 0 -37 5 -40 10 -4 7 -14 6 -28 -2 -30 -17 -1923
-16 -1940 1 -15 15 -60 14 -76 -2 -18 -18 -877 -13 -899 5 -12 10 -254 13
-1136 15 -617 1 -1173 5 -1236 8 -150 9 -107 9 -650 -2 -261 -6 -513 -9 -560
-7 -47 3 -92 4 -100 5 -8 0 -634 -3 -1389 -6 -901 -3 -1378 -8 -1385 -15 -13
-13 -83 -13 -91 0 -9 14 -508 13 -522 -1 -10 -10 -147 -7 -311 6 -47 4 -78 3
-86 -4 -19 -16 -472 -17 -491 -1 -10 8 -19 8 -34 1 -28 -15 -276 -14 -301 1
-15 10 -24 9 -45 -2 -22 -12 -31 -12 -63 0 -31 12 -306 14 -1850 12 -1197 -1
-1819 -5 -1832 -12 -24 -13 -97 -13 -105 0 -8 13 -352 13 -360 0 -3 -6 -26
-10 -50 -10 -24 0 -47 4 -50 10 -4 6 -68 10 -160 10 -92 0 -156 -4 -160 -10
-8 -13 -72 -13 -80 0 -9 14 -462 13 -471 -1 -4 -7 -19 -8 -38 -4 -94 19 -161
22 -189 6 -22 -13 -31 -13 -47 -3 -24 15 -196 16 -205 2 -8 -13 -158 -13 -171
0 -14 14 -513 15 -527 1 -14 -14 -124 -15 -132 -1 -8 13 -102 13 -110 0 -8
-13 -112 -13 -120 0 -9 15 -241 13 -265 -2 -15 -10 -22 -10 -31 -1 -9 9 -16 9
-30 0 -15 -9 -24 -9 -39 1 -24 15 -246 17 -255 2 -9 -14 -78 -13 -93 2 -9 9
-21 8 -51 -2 -23 -7 -54 -10 -77 -5 -78 14 -176 17 -187 6 -15 -15 -70 -14
-85 1 -9 9 -12 9 -12 0 0 -16 -1045 -18 -1055 -2 -8 14 -41 13 -65 -2 -15 -10
-22 -10 -32 0 -15 15 -50 16 -66 0 -9 -9 -15 -9 -24 0 -15 15 -63 16 -90 1
-14 -8 -23 -8 -31 0 -14 14 -104 15 -112 1 -3 -5 -17 -10 -30 -10 -13 0 -27 5
-30 10 -8 13 -52 13 -61 -1 -4 -7 -20 -8 -43 -4 -31 6 -103 8 -193 6 -13 -1
-48 2 -80 5 -34 3 -64 1 -77 -6 -16 -8 -30 -8 -56 1 -27 10 -37 10 -50 -1 -12
-10 -19 -10 -27 -2 -15 15 -55 16 -63 2 -3 -5 -28 -10 -55 -10 -27 0 -52 5
-55 10 -8 13 -62 13 -70 0 -8 -13 -72 -13 -80 0 -3 6 -24 10 -46 10 -21 0 -39
-4 -39 -10 0 -13 -177 -13 -185 0 -8 12 -62 13 -69 1 -9 -14 -214 -13 -236 1
-15 10 -22 10 -32 0 -16 -16 -593 -17 -604 -1 -5 8 -9 8 -14 -1 -11 -17 -740
-15 -787 2 -25 9 -38 9 -60 -1 -34 -15 -445 -16 -473 -1 -25 13 -73 13 -87 -1
-10 -10 -64 -9 -220 7 -43 4 -63 2 -63 -5 0 -14 -77 -14 -86 0 -4 8 -9 8 -17
0 -14 -14 -154 -14 -163 0 -4 8 -9 8 -17 0 -14 -14 -144 -15 -152 -1 -8 14
-682 14 -690 0 -8 -13 -48 -13 -80 2 -19 9 -28 9 -37 0 -15 -15 -114 -16 -123
-2 -3 6 -17 10 -30 10 -13 0 -27 -4 -30 -10 -8 -13 -75 -13 -75 0 0 13 -37 13
-45 0 -8 -13 -51 -13 -77 1 -15 8 -27 8 -45 -2 -19 -10 -28 -11 -44 -1 -16 10
-27 10 -55 0 -28 -10 -39 -10 -55 0 -28 18 -250 18 -278 0 -17 -10 -25 -10
-41 0 -26 16 -481 17 -512 1 -14 -8 -28 -7 -49 2 -23 9 -33 9 -42 0 -14 -14
-54 -15 -62 -1 -8 14 -462 14 -470 0 -3 -5 -19 -10 -35 -10 -16 0 -32 5 -35
10 -9 15 -221 13 -245 -2 -16 -10 -24 -10 -43 2 -28 18 -347 16 -378 -3 -15
-9 -24 -9 -41 2 -26 16 -161 17 -166 1 -5 -15 -85 -11 -106 5 -19 14 -72 11
-90 -6 -14 -13 -43 -11 -65 3 -15 9 -25 9 -46 0 -32 -15 -121 -16 -130 -2 -8
13 -232 13 -240 0 -9 -14 -121 -12 -145 2 -16 10 -24 10 -40 0 -24 -14 -62
-16 -76 -2 -14 14 -763 15 -777 1 -15 -15 -239 -15 -254 0 -15 15 -622 13
-640 -3 -10 -8 -20 -8 -38 0 -15 7 -26 8 -30 2 -8 -13 -52 -13 -60 0 -8 14
-272 13 -280 0 -5 -8 -11 -7 -21 1 -11 9 -18 9 -26 1 -15 -15 -224 -16 -233
-1 -9 13 -284 10 -307 -5 -12 -7 -24 -6 -43 4 -21 11 -30 12 -45 2 -26 -16
-250 -16 -285 0 -21 9 -31 9 -46 0 -14 -9 -121 -12 -401 -12 -211 1 -466 0
-568 -2 -240 -4 -342 0 -354 12 -13 13 -59 13 -73 -1 -12 -12 -453 -6 -511 6
-21 5 -42 3 -56 -5 -23 -12 -107 -9 -187 5 -23 4 -39 3 -43 -4 -9 -14 -202
-15 -211 -1 -8 13 -92 13 -100 0 -8 -13 -58 -13 -72 1 -7 7 -27 9 -55 4 -89
-14 -250 -17 -280 -4 -22 9 -32 9 -41 0 -14 -14 -54 -15 -62 -1 -9 15 -320 13
-345 -2 -16 -10 -24 -10 -40 0 -24 14 -176 16 -185 2 -8 -13 -128 -13 -142 1
-7 7 -46 8 -114 4 -57 -3 -352 -8 -655 -11 -470 -4 -553 -2 -563 10 -13 16
-86 11 -109 -7 -8 -6 -548 -11 -1585 -14 -2263 -5 -2084 -6 -2094 9 -11 18 -3
950 9 965 6 7 5 14 -2 18 -13 8 -13 102 0 110 13 8 13 192 0 200 -13 8 -13
102 0 110 13 8 13 82 0 90 -14 8 -14 432 0 440 13 8 13 392 0 400 -16 10 -13
750 2 775 10 16 10 24 0 40 -15 24 -16 66 -2 75 13 8 13 72 0 80 -13 8 -14
552 -1 560 14 8 15 1301 1 1310 -13 8 -13 68 0 81 6 6 11 360 14 984 2 536 4
989 5 1005 0 17 -1 1242 -3 2723 -3 1988 -6 2696 -15 2705 -14 14 -16 473 -1
482 14 8 13 88 -1 102 -17 17 -17 2266 0 2286 8 10 9 17 1 22 -14 8 -13 41 2
65 10 16 10 24 0 40 -14 24 -16 96 -2 105 13 8 13 152 0 160 -13 8 -13 82 0
90 6 4 5 13 -3 25 -9 16 -9 24 1 40 15 24 17 186 2 195 -13 8 -13 72 0 80 13
8 12 413 -1 421 -15 9 -12 1577 3 1592 9 9 9 15 0 24 -15 15 -16 144 -2 153
15 9 13 350 -2 375 -10 16 -10 24 0 40 14 24 16 126 2 135 -14 9 -12 69 3 83
9 10 12 125 12 507 0 382 -3 497 -12 506 -15 15 -17 65 -3 74 14 8 14 892 0
900 -13 8 -13 48 0 61 16 16 15 911 -1 930 -16 19 -15 990 1 1010 15 17 16
522 1 537 -14 14 -15 54 -1 62 13 8 13 152 0 160 -13 8 -13 162 0 170 13 8 13
162 0 170 -13 8 -13 312 0 320 15 9 13 518 -2 533 -9 9 -9 18 0 37 15 33 17
371 2 380 -13 8 -13 188 0 201 5 5 10 130 11 300 1 228 -2 295 -12 312 -11 17
-11 24 -1 34 15 15 16 120 0 136 -9 9 -8 18 3 38 12 23 14 97 11 443 -2 247
-7 420 -12 425 -13 13 -13 53 0 61 13 8 13 62 0 70 -13 8 -13 332 0 340 13 8
13 52 0 60 -13 8 -13 192 0 200 13 8 13 92 0 100 -13 8 -13 112 0 120 13 8 13
122 0 130 -13 8 -13 62 0 70 14 8 13 158 -1 172 -15 15 -12 218 3 243 10 15
10 24 2 38 -9 13 -13 219 -15 713 -4 602 -2 697 11 717 13 19 13 25 1 45 -12
18 -14 162 -14 905 1 636 4 887 12 895 15 15 14 110 -1 125 -9 9 -12 393 -14
1584 -2 865 -2 1740 -2 1943 1 204 1 586 0 850 -1 264 -2 1370 -3 2458 -1
1810 0 1979 15 1996 20 22 20 41 1 77 -17 34 -21 179 -5 189 8 5 8 11 0 20 -8
9 -11 173 -11 542 1 290 2 551 3 578 1 28 1 124 0 215 -1 91 -2 233 -2 315 0
83 -2 602 -5 1155 -5 1127 -5 1538 1 1685 14 311 18 691 8 707 -4 5 -5 832 -3
1836 1 1005 3 1863 3 1907 0 44 -1 517 -3 1050 -3 1366 5 2269 21 2295 10 15
10 22 0 32 -15 15 -16 140 0 156 8 8 8 15 -1 26 -17 20 -19 1492 -2 1509 14
14 15 124 1 132 -13 8 -12 235 1 251 14 17 13 452 -1 469 -8 9 -8 20 -2 32 10
18 27 489 22 593 -4 80 -5 1325 -2 1390 5 82 -10 310 -19 310 -13 0 -11 227 1
235 5 3 10 21 10 40 0 19 -5 37 -10 40 -13 8 -13 52 0 60 13 8 13 242 0 250
-6 3 -10 19 -10 35 0 16 4 32 10 35 13 8 13 62 0 70 -13 8 -13 142 0 150 6 3
10 21 10 40 0 19 -4 37 -10 40 -12 8 -13 52 -1 59 19 12 23 95 5 131 -13 27
-14 39 -5 48 14 14 16 553 1 562 -5 3 -10 17 -10 30 0 13 5 27 10 30 13 8 13
82 0 90 -8 5 -7 12 2 22 18 22 15 2787 -3 2809 -9 11 -9 20 0 37 8 15 13 119
15 317 10 682 16 833 35 860 l18 25 849 3 c467 2 1110 6 1429 10 319 3 621 6
670 6 50 0 146 -1 215 -1 69 0 139 0 155 0 17 0 165 0 330 0 165 1 1459 2
2875 3 3046 2 2844 0 2869 16 15 9 25 9 46 0 32 -15 121 -16 130 -2 8 13 58
13 71 0 15 -15 991 -15 1010 0 11 10 17 10 29 0 9 -8 78 -13 210 -17 158 -3
201 -2 224 10 18 9 33 11 39 5 5 -5 199 -9 466 -9 355 -1 460 2 472 12 12 10
20 10 35 1 12 -8 58 -12 127 -11 59 1 242 -2 407 -7 165 -4 350 -8 410 -8 194
1 510 16 522 26 6 5 45 9 85 8 40 -1 78 -1 83 0 12 2 358 1 365 -1 17 -5 37
-3 47 4 6 4 13 4 16 0 3 -4 137 -6 299 -3 161 3 297 4 302 1 5 -2 45 -3 90 -2
54 1 93 -3 118 -13 34 -14 38 -14 61 4 19 15 41 20 90 20 36 0 68 -3 71 -8 2
-4 52 -3 110 2 68 6 110 6 116 0 6 -6 40 -7 91 -2 45 5 89 6 98 2 23 -10 44
-11 58 -1 18 13 722 10 738 -3 10 -8 15 -8 20 0 5 9 102 11 347 9 187 -2 341
-6 343 -9 2 -4 34 -3 72 2 37 4 165 8 283 9 118 1 242 2 275 2 192 3 596 -7
601 -15 3 -5 11 -5 19 2 15 13 402 13 410 0 3 -5 20 -4 38 1 17 5 147 9 287 9
140 -1 482 -1 759 -1 301 1 509 -3 514 -8 6 -6 16 -6 26 0 10 7 101 7 254 2
132 -4 241 -5 244 0 5 9 187 10 196 1 4 -4 27 -7 52 -7 25 0 48 3 52 7 9 9
201 8 206 -2 6 -8 55 -7 78 2 17 7 289 3 347 -6 18 -2 35 -1 38 4 6 9 138 11
147 2 3 -3 40 -6 82 -6 42 0 79 3 82 6 11 11 109 6 121 -6 8 -8 15 -8 28 3 14
11 95 14 463 14 245 0 460 -3 477 -6 17 -3 56 -2 86 4 44 8 61 7 86 -5 22 -12
33 -13 41 -5 8 8 122 12 359 14 647 4 3385 13 3672 12 157 -1 299 -1 315 -1
115 2 2675 12 3154 12 326 0 598 3 603 6 5 3 85 5 178 4 107 0 171 3 175 10 8
13 202 13 210 0 3 -5 24 -10 45 -10 21 0 42 5 45 10 4 6 68 10 160 10 92 0
156 -4 160 -10 9 -15 638 -13 653 2 9 9 15 9 24 0 15 -15 51 -15 66 0 17 17
2015 16 2036 -1 10 -8 16 -9 21 -1 8 14 471 14 480 0 4 -7 12 -7 25 0 25 13
143 13 157 -1 8 -8 17 -8 31 0 29 15 235 14 250 -1 9 -9 15 -9 24 0 15 15 344
17 353 2 3 -5 46 -10 95 -10 49 0 92 5 95 10 9 14 198 13 213 -2 8 -8 15 -8
28 3 14 12 235 14 1452 16 789 1 1437 4 1439 7 2 2 131 2 286 0 155 -2 638 -6
1073 -8z"/>
</g>
</svg>
