<svg version="1.0" xmlns="http://www.w3.org/2000/svg"
 width="4536.000000pt" height="5803.000000pt" viewBox="0 0 4536.000000 5803.000000"
 preserveAspectRatio="xMidYMid meet">
<metadata>
Created by potrace 1.13, written by Peter Selinger 2001-2015
</metadata>
<g transform="translate(0.000000,5803.000000) scale(0.100000,-0.100000)"
fill="currentColor" stroke="none">
<path d="M6790 57773 c-36 -7 -119 -16 -185 -17 -66 -2 -142 -9 -169 -15 -69
-16 -1028 -25 -1166 -11 -99 10 -243 14 -510 12 -63 -1 -133 4 -155 10 -22 6
-95 12 -162 13 -110 1 -123 0 -123 -16 0 -15 -24 -17 -252 -24 -278 -8 -437
-5 -722 15 -134 10 -200 11 -230 3 -43 -11 -208 -3 -326 15 -91 14 -480 8
-693 -11 -131 -11 -187 -12 -209 -5 -19 7 -75 9 -144 5 -82 -4 -128 -1 -169 9
-40 11 -65 12 -93 5 -92 -24 -129 -31 -162 -29 -73 3 -367 -12 -404 -21 -23
-6 -75 -6 -130 -1 -50 5 -163 11 -251 15 -204 8 -198 12 -203 -144 -3 -87 -1
-109 11 -119 14 -12 13 -18 -2 -55 -16 -38 -17 -72 -14 -332 3 -159 5 -306 5
-325 0 -19 -3 -62 -7 -95 -6 -49 -3 -74 16 -135 15 -51 22 -97 21 -144 -1 -41
5 -82 14 -104 11 -26 12 -43 5 -66 -14 -45 -15 -186 -1 -300 9 -74 9 -110 1
-140 -9 -30 -9 -75 -1 -166 6 -69 10 -145 9 -170 -1 -25 -1 -54 -1 -65 2 -26
13 -534 12 -560 -1 -97 -10 -190 -20 -214 -9 -23 -9 -58 3 -168 12 -112 14
-290 12 -938 -2 -664 0 -817 12 -899 11 -73 12 -109 5 -135 -11 -37 -8 -1079
3 -1229 3 -40 1 -81 -4 -90 -10 -19 -14 -111 -11 -322 1 -107 1 -749 1 -920
-2 -333 -1 -529 4 -1095 4 -368 7 -690 7 -715 0 -25 1 -137 1 -250 2 -281 -3
-421 -15 -443 -11 -21 -13 -65 -9 -237 2 -79 -1 -140 -9 -166 -9 -30 -9 -47
-2 -61 8 -14 8 -63 2 -165 -6 -80 -10 -239 -9 -354 3 -622 -9 -1611 -20 -1631
-17 -33 -13 -84 9 -121 23 -38 25 -67 5 -102 -10 -20 -12 -60 -8 -186 4 -113
2 -172 -7 -198 -8 -25 -11 -110 -10 -269 1 -128 1 -252 1 -277 -1 -25 -1 -134
-1 -242 -1 -192 0 -199 25 -252 l26 -55 -21 -48 c-24 -55 -36 -173 -23 -223 5
-19 6 -51 1 -70 -16 -70 -29 -584 -18 -715 4 -51 4 -100 -1 -114 -10 -25 -10
-103 -6 -1046 1 -308 1 -704 0 -880 -3 -314 -3 -362 -2 -675 1 -85 1 -175 1
-200 6 -1638 1 -2628 -13 -2709 -7 -39 -9 -94 -4 -145 4 -44 6 -335 4 -646 -2
-311 -3 -605 -2 -655 6 -623 5 -2033 -2 -2045 -2 -3 1 -61 6 -129 7 -102 5
-134 -8 -185 -20 -77 -21 -227 -24 -4701 -2 -3082 -1 -3375 15 -3543 9 -100
15 -186 12 -191 -6 -9 -19 -932 -17 -1171 9 -877 13 -2359 11 -4225 -1 -627
-1 -1158 0 -1180 3 -99 -1 -140 -15 -161 -13 -20 -14 -50 -9 -186 4 -90 8
-379 9 -643 2 -264 4 -570 5 -680 2 -110 2 -243 2 -295 -1 -52 -1 -108 0 -125
1 -42 0 -414 -3 -575 -1 -74 -3 -416 -5 -760 -1 -344 -3 -632 -4 -640 -1 -8
-1 -127 0 -265 1 -137 -3 -326 -9 -420 -14 -214 -14 -352 -1 -360 13 -8 13
-52 0 -60 -7 -4 -10 -308 -10 -879 0 -764 2 -875 15 -886 19 -16 19 -59 0 -80
-13 -14 -14 -297 -13 -2306 0 -1259 1 -2307 0 -2329 0 -22 -3 -229 -7 -460 -7
-476 -7 -519 4 -630 4 -44 4 -122 -1 -175 -8 -97 -11 -767 -3 -779 6 -10 5
-74 -7 -1261 -1 -19 2 -163 6 -320 9 -405 10 -646 3 -657 -4 -6 -8 -303 -11
-662 l-4 -651 23 0 c13 0 27 -5 30 -10 3 -6 43 -10 88 -10 71 0 84 -3 95 -20
17 -27 95 -28 114 -1 13 18 20 18 272 -2 197 -15 263 -17 280 -8 15 9 141 10
461 7 502 -6 639 -11 708 -26 58 -12 207 -13 207 -2 0 5 10 13 23 18 21 10
960 11 1635 3 166 -2 302 -1 302 3 0 5 378 8 840 8 498 0 840 -4 840 -9 0 -22
140 -33 273 -23 73 6 314 11 537 11 223 0 502 3 620 7 118 4 233 6 255 5 22
-1 236 -2 475 -4 239 -1 442 -5 450 -9 8 -4 254 -9 546 -12 354 -4 540 -9 560
-16 32 -13 181 -4 200 11 14 12 152 22 284 22 58 0 186 0 285 0 99 0 207 0
240 1 33 0 119 0 190 -1 72 0 180 -1 240 0 100 0 380 0 530 0 33 0 508 -4
1055 -9 547 -5 1146 -7 1330 -6 184 2 429 3 543 2 137 -1 213 2 221 9 10 8 48
8 137 0 68 -6 255 -12 414 -14 596 -6 1063 -6 1160 -1 55 3 186 2 290 -3 143
-6 195 -4 211 5 15 9 31 9 65 0 31 -7 89 -9 175 -4 71 3 212 4 314 1 229 -6
1189 -9 1405 -4 88 2 320 0 515 -3 195 -4 364 -6 375 -6 27 2 222 10 265 11
19 0 161 -2 315 -6 154 -3 289 -6 300 -5 49 3 233 10 265 10 19 0 145 -1 280
-2 339 -2 2430 -3 2645 -1 17 1 175 0 352 -1 253 -1 323 -4 323 -14 0 -13 775
-13 4310 2 850 4 1556 6 1570 6 14 -1 189 -3 390 -6 201 -3 390 -7 420 -9 30
-2 118 -7 195 -10 77 -3 190 -10 250 -13 123 -8 440 -6 555 3 41 4 82 7 90 7
8 0 301 -3 650 -7 349 -4 732 -7 850 -7 118 0 373 0 565 0 422 0 422 0 462 14
24 9 38 9 58 0 26 -12 283 -18 595 -14 80 1 300 1 490 1 413 -1 417 -1 456 13
24 9 40 8 75 -5 42 -15 241 -17 1019 -9 14 0 153 -1 310 -3 684 -9 1000 -10
1002 -3 2 4 26 4 53 0 28 -4 151 -5 275 -2 124 3 288 2 365 -1 77 -3 193 -2
257 3 130 9 296 10 618 4 412 -9 566 -9 735 2 179 10 229 10 310 -4 28 -5 151
-7 275 -4 124 3 288 2 365 -1 77 -3 190 -3 250 2 206 15 395 19 423 7 18 -7
183 -12 492 -13 256 -1 476 -5 490 -9 14 -4 73 -2 133 3 69 7 116 7 132 1 14
-5 153 -10 308 -11 263 -2 285 0 327 18 61 27 110 84 110 127 0 19 7 39 15 46
19 16 19 37 0 74 -13 25 -15 504 -15 4067 0 3007 -3 4040 -11 4045 -9 5 -10
47 -4 153 5 105 17 1165 16 1521 0 677 1 1045 6 1470 9 707 8 1042 -3 1305
-12 298 -9 623 7 780 10 97 14 317 14 860 0 680 2 733 18 775 18 42 18 47 2
95 -14 40 -19 114 -26 380 -5 182 -9 440 -8 575 2 265 2 519 0 810 -3 493 -3
1095 -1 1470 2 228 5 1976 7 3885 3 2838 6 3472 17 3485 9 11 13 62 15 180 2
91 4 167 6 169 2 2 -5 11 -15 20 -20 16 -20 36 -21 994 0 549 4 984 9 990 5 7
5 90 1 192 -5 99 -6 194 -2 210 3 17 7 66 8 110 4 121 3 1711 -1 1940 -3 242
-3 289 -1 665 1 260 -1 1298 -3 1500 0 41 -8 99 -17 127 -13 43 -14 61 -4 95
6 24 14 160 18 303 9 349 9 377 -1 705 -4 157 -10 564 -12 905 -2 341 -4 631
-5 645 -1 14 1 275 4 580 12 1037 6 1668 -17 1725 -8 20 -9 45 -4 75 16 90 23
520 21 1425 -1 709 3 1163 11 1290 17 268 14 538 -10 813 -4 39 0 92 10 141
23 114 23 598 0 643 -14 27 -14 43 -3 147 16 134 15 246 0 265 -11 13 -10 63
3 261 10 138 8 248 -4 314 -9 52 -9 70 3 100 12 29 14 88 10 316 -5 324 -5
375 -1 825 2 184 1 373 0 420 -5 138 6 5089 12 5520 4 217 5 465 4 550 -2 284
-5 483 -9 680 -1 107 -3 238 -2 290 1 206 -4 917 -9 1120 -11 413 -8 1004 6
1230 2 36 -1 119 -7 185 -5 66 -10 131 -10 145 1 14 4 149 7 300 8 331 7 379
-5 401 -6 11 -5 45 2 91 12 86 20 861 8 921 -5 26 -2 69 6 112 28 151 37 295
33 533 -3 233 -4 242 -26 264 -18 20 -22 34 -19 81 2 50 -1 60 -25 83 -26 27
-28 27 -185 29 -274 5 -386 5 -463 0 -110 -6 -292 -3 -315 5 -5 2 -21 1 -35
-3 -14 -3 -75 -9 -137 -12 -105 -6 -112 -5 -131 15 -15 17 -24 19 -38 11 -42
-22 -115 -30 -222 -24 -80 4 -119 2 -141 -7 -25 -10 -40 -10 -74 -1 -46 13
-490 25 -722 19 -127 -3 -333 -3 -520 -1 -38 1 -194 1 -345 1 -151 0 -336 1
-410 1 -74 1 -214 -1 -310 -4 -96 -2 -211 0 -255 4 -46 6 -82 6 -85 1 -3 -5
-113 -7 -250 -4 -258 6 -349 6 -625 -1 -93 -2 -206 0 -249 4 -44 5 -89 6 -100
1 -28 -10 -401 -15 -666 -8 -177 5 -219 3 -238 -8 -18 -12 -30 -12 -60 -3 -31
9 -311 8 -392 -2 -8 -1 -166 2 -350 7 -184 4 -524 6 -755 4 -231 -2 -458 -4
-505 -3 -133 1 -1494 1 -1595 1 -264 -2 -1144 10 -1233 17 -93 7 -104 6 -123
-11 -19 -17 -35 -19 -187 -16 -123 3 -174 8 -196 19 -23 12 -34 13 -54 4 -14
-7 -74 -17 -134 -23 -90 -9 -119 -9 -161 3 -33 9 -94 14 -167 13 -209 -2 -503
-3 -655 -2 -82 0 -400 0 -705 0 -305 0 -647 2 -760 5 -238 6 -210 6 -415 3
-88 -1 -263 -2 -390 -1 -126 1 -538 -1 -915 -3 -377 -3 -721 -1 -765 2 -44 4
-152 5 -240 2 -88 -3 -175 -1 -193 4 -23 7 -36 6 -40 -1 -5 -8 -58 -9 -172 -6
-91 3 -228 3 -305 2 -126 -3 -330 -4 -520 -2 -123 1 -624 2 -800 1 -264 -2
-474 -2 -545 0 -36 1 -128 -1 -205 -4 -161 -7 -240 5 -248 36 -7 26 -24 26
-32 0 -4 -12 -19 -22 -41 -26 -20 -4 -216 -3 -437 1 -221 4 -411 7 -422 6 -11
0 -360 -3 -775 -6 -415 -3 -764 -6 -775 -7 -48 -4 -347 12 -363 20 -9 4 -93 7
-187 5 -93 -1 -199 2 -235 8 -39 6 -83 6 -111 1 -34 -7 -56 -5 -79 4 -43 18
-203 18 -266 0 -59 -18 -29 -17 -366 -11 -138 2 -246 8 -257 15 -29 15 -199
12 -257 -4 -45 -14 -65 -16 -119 -15 -175 4 -264 8 -330 14 -71 6 -254 6 -400
1 -27 -1 -99 1 -160 5 -89 5 -114 3 -133 -9 -20 -13 -35 -14 -94 -4 -46 7 -79
7 -98 1 -20 -8 -43 -6 -84 6 -36 11 -68 14 -89 9 -26 -6 -491 -17 -592 -14
-16 0 -102 0 -190 -1 -318 -4 -933 -4 -1095 0 -91 2 -223 0 -295 -4 -71 -5
-141 -8 -155 -8 -53 -1 -208 2 -265 5 -33 1 -80 1 -105 1 -25 0 -261 0 -525 0
-530 1 -617 0 -880 -9 -99 -4 -211 -6 -250 -4 -104 4 -179 3 -1050 -5 -979 -8
-1476 -8 -1527 0 -23 4 -44 2 -52 -4 -16 -13 -506 -22 -506 -9 0 5 -82 8 -182
7 -101 -1 -200 2 -221 6 -23 5 -42 3 -51 -4 -9 -7 -118 -13 -327 -17 -279 -5
-681 -13 -749 -15 -75 -3 -577 10 -590 15 -20 7 -821 21 -1023 18 -130 -3
-166 0 -203 14 -38 14 -65 16 -177 10 -225 -11 -538 -11 -592 1 -85 20 -157
21 -225 6z m15679 -189 c17 -4 31 -12 30 -18 -4 -30 3 -36 39 -35 20 0 84 -4
140 -10 66 -6 113 -6 129 0 13 5 34 7 46 4 12 -2 154 -6 315 -9 239 -4 301 -2
335 10 29 10 49 12 71 5 18 -6 226 -11 476 -12 245 -1 463 -3 485 -5 22 -1 89
-5 149 -9 60 -3 114 -9 120 -13 19 -11 2529 -11 2651 1 101 10 177 11 303 5
81 -4 236 5 249 14 6 5 121 7 255 4 188 -3 252 -1 282 9 26 9 45 10 60 4 34
-15 212 -24 346 -18 69 3 271 3 450 1 179 -3 341 -4 360 -3 50 3 82 3 195 -2
55 -2 262 0 460 5 386 9 445 9 1005 4 527 -5 732 -4 955 4 28 1 128 -6 205
-15 46 -5 82 -3 125 8 50 12 116 14 385 9 179 -3 400 -6 493 -6 92 -1 167 -3
167 -6 0 -3 66 -4 148 -2 167 4 151 4 1067 3 374 0 734 0 800 1 262 2 1208
-13 1334 -22 74 -5 139 -6 144 -3 7 4 174 15 227 14 676 -7 2168 -13 3995 -15
3288 -4 3403 -5 3412 -19 8 -13 14 -525 12 -1117 -2 -841 -6 -1682 -13 -2315
-21 -2130 -26 -2922 -31 -5440 -8 -3102 -4 -7850 6 -8000 4 -71 5 -161 0 -200
-4 -38 -7 -466 -5 -950 3 -1454 3 -1503 0 -1705 -7 -382 -7 -861 -1 -1285 3
-236 6 -439 6 -450 0 -11 1 -96 2 -190 1 -199 1 -254 -2 -560 -2 -126 0 -241
4 -255 3 -14 0 -41 -8 -60 -11 -28 -11 -60 -3 -165 9 -130 13 -972 7 -2130 -1
-341 -2 -636 -2 -655 4 -169 -6 -1178 -11 -1186 -6 -9 -9 -560 -6 -1039 0 -33
0 -196 0 -363 -1 -167 4 -329 10 -360 9 -50 22 -528 19 -732 0 -41 -2 -308 -5
-592 -2 -284 -7 -522 -11 -528 -6 -9 -20 -801 -17 -895 12 -286 19 -1360 10
-1455 -4 -47 -7 -245 -7 -440 0 -195 0 -368 0 -385 -5 -114 0 -989 5 -1071 5
-69 3 -112 -5 -137 -17 -51 -21 -270 -25 -1572 -3 -809 -1 -1242 9 -1557 9
-267 10 -449 5 -469 -5 -18 -6 -114 -1 -228 4 -114 4 -271 -2 -372 -8 -152 -9
-222 -4 -404 1 -22 0 -310 -2 -640 -6 -1096 -2 -1486 13 -1510 24 -37 28 -82
12 -133 -17 -54 -25 -144 -31 -353 -2 -80 -9 -157 -14 -172 -11 -29 2 -360 18
-442 9 -50 8 -155 -4 -536 -6 -172 -4 -223 10 -309 14 -82 15 -114 7 -159 -19
-99 -22 -139 -13 -164 6 -16 6 -62 0 -125 -8 -76 -7 -106 2 -123 8 -16 11
-116 10 -356 0 -184 -3 -338 -6 -342 -12 -21 -34 -217 -34 -311 0 -58 0 -323
1 -590 0 -267 0 -993 -1 -1615 -2 -988 -4 -1133 -17 -1153 -14 -21 -13 -26 5
-55 15 -24 21 -53 22 -113 2 -44 -1 -86 -5 -92 -4 -7 -2 -35 4 -62 9 -37 9
-62 1 -97 -8 -38 -28 -584 -23 -653 1 -8 4 -328 8 -710 8 -693 8 -1237 0
-2100 -2 -276 0 -492 7 -550 5 -52 10 -106 9 -120 0 -14 -3 -263 -5 -555 -3
-291 -10 -604 -16 -695 -6 -91 -11 -192 -10 -225 4 -247 3 -431 -5 -625 -6
-156 -5 -249 3 -303 8 -58 8 -101 -1 -173 -11 -89 -11 -101 11 -189 20 -78 23
-108 18 -177 -4 -46 -11 -98 -17 -117 -14 -49 -14 -296 0 -356 7 -27 13 -142
15 -255 4 -207 18 -439 30 -496 l7 -31 -399 3 c-281 2 -4752 3 -5588 1 -545
-1 -1687 6 -1825 12 -143 6 -197 5 -238 -6 -30 -7 -59 -10 -65 -6 -12 8 -231
11 -1032 16 -362 2 -479 -1 -509 -10 -22 -8 -49 -10 -60 -6 -21 7 -112 8
-1056 17 -680 6 -1520 7 -1530 1 -5 -3 -100 -5 -212 -4 -111 0 -273 0 -358 -1
-85 0 -346 0 -580 1 -758 2 -1062 0 -1230 -9 -180 -10 -691 -8 -1195 3 -620
13 -1034 17 -2446 21 -1265 4 -1428 3 -1439 -11 -10 -12 -38 -15 -136 -15 -87
0 -124 3 -124 12 0 8 -52 9 -202 4 -234 -9 -200 -9 -393 -2 -82 3 -321 5 -530
5 -592 -1 -833 0 -1210 1 -242 1 -413 -4 -555 -15 -141 -12 -243 -15 -325 -10
-66 4 -334 8 -595 9 -261 1 -496 6 -521 10 -26 4 -49 4 -52 -1 -5 -8 -607 -8
-1432 2 -383 4 -525 3 -650 -9 -177 -15 -435 -19 -468 -7 -12 5 -67 5 -122 0
-60 -5 -146 -4 -215 3 -63 5 -173 9 -245 7 -140 -4 -155 -4 -435 5 -215 6
-1279 6 -1680 0 -311 -5 -434 -5 -670 1 -130 4 -530 6 -610 4 -8 0 -98 2 -200
5 -333 9 -500 9 -900 0 -217 -4 -412 -8 -432 -7 -21 0 -81 1 -133 1 -112 0
-59 -1 -630 6 -252 3 -462 2 -465 -3 -3 -4 -66 -4 -140 0 -217 12 -2193 3
-2270 -11 -39 -7 -83 -8 -110 -3 -54 9 -126 11 -629 15 -212 2 -408 1 -435 -2
-28 -3 -98 -2 -156 2 -142 10 -703 14 -717 5 -6 -4 -62 -11 -125 -16 -92 -8
-125 -7 -178 6 -73 18 -258 21 -755 13 -165 -2 -613 -3 -995 -2 -382 2 -778 2
-880 1 -102 -2 -502 -1 -890 1 -388 2 -754 0 -815 -4 -81 -6 -118 -4 -140 5
-40 17 -1345 23 -1388 7 -15 -6 -30 -9 -32 -6 -3 2 -7 416 -10 919 -3 503 -8
1166 -12 1474 -7 656 -7 542 2 900 11 426 10 1657 -2 1825 -5 80 -7 237 -3
350 4 119 2 224 -3 250 -14 64 -13 738 1 830 15 94 15 121 12 591 -1 212 1
513 5 670 7 357 15 1414 13 1869 -2 442 -2 340 0 1070 2 733 -5 1173 -19 1246
-6 31 -6 60 -1 75 10 25 15 411 15 1064 0 443 0 877 1 1125 2 313 -14 850 -26
894 -9 35 -8 55 5 109 13 50 16 91 11 174 -3 59 -9 120 -14 134 -5 17 -4 31 3
38 6 6 13 30 16 54 6 66 3 655 -4 817 -7 156 -7 186 1 655 11 639 15 1062 14
1475 0 738 0 822 5 830 4 6 8 652 19 2740 2 379 0 699 -5 730 -5 30 -12 111
-14 180 -3 69 -10 175 -17 235 -14 135 -14 226 1 330 7 48 11 179 10 325 -1
135 1 337 5 450 3 113 8 313 11 445 3 132 8 3106 11 6609 4 5143 3 6381 -7
6433 -10 49 -10 66 -1 72 15 9 18 439 3 454 -17 17 -13 58 6 72 14 10 17 36
21 161 6 225 7 411 2 489 -2 39 -3 223 -4 410 0 187 0 378 0 425 0 47 7 1521
17 3275 9 1755 17 3435 18 3735 1 300 6 844 11 1210 14 958 16 1285 22 3040 3
866 8 1829 11 2140 8 674 7 617 3 915 -3 132 -1 314 3 405 9 204 11 694 4
1150 -5 378 -9 441 -31 575 -16 99 -11 226 12 282 19 44 17 74 -3 103 -10 14
-23 53 -28 87 l-11 62 66 16 c46 12 73 25 92 46 l27 29 303 -5 c167 -2 335 -7
373 -11 53 -4 80 -2 108 9 31 14 68 14 264 7 236 -10 797 -24 893 -22 30 0
190 0 355 0 348 -1 370 0 529 6 85 3 126 1 144 -8 18 -9 39 -10 85 -2 34 5
154 9 267 9 113 0 284 -1 380 -1 96 0 283 -1 415 -3 254 -3 281 -2 469 5 83 3
127 1 145 -8 19 -9 40 -10 76 -3 28 5 167 10 310 11 146 2 271 8 285 13 14 6
34 7 45 2 32 -12 55 -10 55 5 0 12 7 13 32 5 18 -5 61 -9 95 -9 34 0 73 -4 87
-10 17 -6 80 -5 193 5 180 16 397 8 464 -18 25 -9 110 -12 309 -12 242 0 281
2 328 19 46 16 74 17 195 13 332 -13 391 -17 424 -28 23 -7 70 -9 141 -4 128
9 149 9 227 6 33 -2 134 2 223 9 103 7 168 8 175 2 7 -6 87 -8 192 -5 99 2
225 3 280 2 137 -4 166 -4 275 6 115 9 100 10 285 -5 186 -14 188 -14 420 -5
242 9 285 8 725 -6 25 -1 131 2 235 6 227 8 224 8 445 3 96 -2 204 0 240 4 62
7 441 8 635 2 50 -1 826 -5 1725 -9 899 -4 1721 -7 1825 -8 105 -1 242 -1 305
1 133 3 800 5 1235 3 165 0 306 3 313 8 8 5 29 3 50 -4 21 -7 68 -11 107 -9
164 9 1263 10 1294 1 22 -6 36 -5 40 2 5 7 242 10 751 11 410 0 822 3 915 6
94 3 285 7 425 8 140 2 305 7 366 11 71 5 118 4 130 -3 14 -8 22 -5 36 13 10
13 18 28 18 34 0 12 23 14 69 5z"/>
<path d="M32957 56947 c-20 -15 -42 -21 -81 -21 l-54 -1 -6 -55 c-5 -48 -1
-63 27 -120 26 -54 32 -77 32 -132 0 -65 -1 -69 -39 -107 -50 -51 -110 -71
-193 -66 -62 4 -152 35 -185 63 -10 8 -22 30 -29 49 -16 50 14 172 59 238 28
42 33 56 29 88 -10 77 -61 96 -140 55 l-42 -22 -820 -3 c-1132 -4 -1141 -4
-1490 2 -170 2 -358 1 -416 -4 -58 -4 -186 -4 -285 1 -157 8 -430 18 -549 20
-22 1 -73 -3 -113 -9 -39 -5 -78 -6 -85 -1 -6 4 -39 8 -72 8 -127 -1 -182 -32
-171 -99 7 -42 31 -69 110 -120 33 -22 79 -54 101 -71 117 -91 251 -180 272
-180 19 0 83 -38 83 -49 0 -16 -107 -19 -166 -5 -32 7 -78 14 -101 14 -35 0
-51 8 -100 48 -32 27 -69 55 -83 62 -47 25 -142 104 -155 130 -7 14 -33 36
-57 48 -24 13 -65 44 -93 69 -96 91 -194 133 -228 98 -46 -46 -25 -102 54
-143 62 -33 173 -120 181 -143 5 -13 17 -19 36 -19 20 0 35 -9 50 -30 13 -16
27 -30 33 -30 14 0 99 -70 99 -81 0 -5 -15 -9 -34 -9 -19 0 -57 -5 -85 -12
-44 -10 -53 -9 -77 8 -14 10 -38 26 -51 36 -14 9 -42 32 -62 50 -20 19 -58 49
-84 67 -27 18 -51 39 -54 47 -2 7 -24 24 -46 38 -23 13 -52 35 -64 48 -12 12
-46 39 -75 58 -29 19 -78 61 -109 93 -40 41 -63 57 -82 57 -22 0 -27 5 -27 26
0 21 -4 25 -17 19 -10 -4 -897 -9 -1972 -11 -1123 -2 -1959 -8 -1965 -13 -10
-8 -42 -13 -83 -11 -10 0 -79 2 -153 5 l-136 6 -29 -31 c-19 -20 -38 -30 -58
-30 -29 0 -29 -1 -24 -41 6 -45 34 -81 75 -98 24 -10 48 -48 66 -105 5 -15 9
-16 21 -6 13 10 15 8 15 -14 0 -14 -8 -33 -17 -41 -10 -8 -40 -35 -67 -60 -42
-40 -54 -45 -93 -45 -25 0 -75 -5 -111 -12 -56 -10 -66 -10 -76 4 -7 9 -33 19
-59 23 -35 5 -54 15 -72 37 -14 16 -25 33 -25 36 0 4 -14 15 -30 24 -17 9 -30
25 -30 35 0 26 -46 112 -85 158 -28 32 -38 38 -51 30 -19 -12 -54 -99 -54
-135 0 -14 -9 -38 -20 -55 -11 -16 -20 -37 -20 -46 0 -19 -24 -36 -117 -85
-56 -30 -72 -34 -141 -34 -119 0 -227 43 -258 102 -13 25 -13 35 0 84 12 45
23 63 57 92 24 21 52 37 64 38 11 1 27 2 36 3 18 1 49 61 49 94 0 12 -7 33
-16 45 -25 36 -56 43 -112 27 -81 -24 -390 -31 -1107 -26 -132 1 -328 1 -435
-1 -107 -1 -305 -1 -440 -1 -135 1 -254 1 -265 1 -11 0 -285 3 -609 6 -575 7
-589 6 -642 -14 -30 -11 -64 -20 -75 -20 -25 0 -125 -56 -142 -80 -6 -9 -26
-24 -42 -32 -17 -9 -38 -25 -49 -37 -10 -11 -50 -39 -88 -62 -38 -23 -89 -62
-113 -86 -24 -24 -47 -43 -52 -43 -4 0 -26 -16 -47 -35 -22 -19 -44 -35 -49
-35 -5 0 -22 -11 -37 -24 -23 -19 -47 -25 -137 -34 -217 -23 -260 -25 -268
-12 -9 15 19 45 58 61 18 7 78 51 134 98 56 47 134 109 173 136 39 28 80 62
91 77 23 31 25 71 4 88 -19 16 -75 6 -118 -21 -18 -10 -39 -19 -47 -19 -9 0
-32 -19 -51 -43 -49 -58 -256 -231 -299 -250 -19 -8 -64 -40 -98 -70 -94 -82
-112 -88 -238 -85 -71 2 -109 7 -111 15 -2 6 24 31 59 54 35 23 92 68 128 100
36 31 83 66 106 77 23 12 48 31 56 44 8 13 28 30 44 38 46 22 84 62 84 86 0
27 -31 67 -73 92 -30 19 -44 20 -242 15 -115 -4 -300 -6 -410 -6 -110 1 -218
1 -240 0 -22 0 -121 -1 -220 -2 -99 -1 -472 -3 -830 -3 -357 -1 -702 -2 -765
-3 -420 -5 -1030 -3 -1220 3 -281 10 -437 9 -468 -3 -14 -5 -38 -20 -54 -34
-16 -13 -34 -22 -41 -19 -13 5 -47 -59 -47 -87 0 -7 18 -30 40 -50 22 -20 40
-45 40 -55 0 -11 -20 -41 -44 -69 l-43 -49 -101 -4 c-91 -4 -105 -2 -137 18
-19 12 -43 36 -51 53 -14 27 -15 38 -3 86 7 31 19 65 26 76 17 25 17 66 0 89
-19 27 -141 54 -193 45 -38 -7 -261 -13 -394 -11 -30 0 -120 0 -200 -1 -80 0
-165 0 -190 0 -41 1 -159 2 -500 2 -63 0 -171 0 -240 1 -69 0 -150 -2 -180 -5
-30 -4 -66 -2 -80 2 -14 5 -104 7 -200 3 -96 -3 -191 -2 -210 2 -19 4 -37 3
-40 -2 -3 -6 -225 -9 -536 -9 -292 1 -541 -2 -553 -6 -12 -3 -27 -21 -35 -38
-10 -23 -31 -41 -78 -66 -39 -21 -75 -49 -92 -73 -15 -21 -32 -38 -37 -38 -5
0 -40 -20 -77 -44 -37 -25 -79 -47 -94 -51 -15 -4 -34 -18 -43 -32 -9 -13 -29
-30 -44 -36 -16 -7 -40 -27 -55 -44 -15 -18 -34 -33 -42 -33 -7 0 -28 -13 -47
-30 -55 -48 -78 -53 -232 -45 -77 4 -143 9 -148 12 -14 9 13 42 60 70 27 17
78 52 115 79 37 27 86 60 109 74 23 14 58 38 78 54 20 15 56 37 81 48 52 22
104 69 120 108 16 39 -1 70 -38 70 -63 0 -181 -51 -223 -96 -13 -14 -67 -55
-120 -90 -52 -35 -112 -82 -133 -104 -20 -22 -55 -49 -76 -60 -22 -11 -40 -24
-40 -28 0 -4 -27 -35 -59 -69 -59 -60 -59 -60 -131 -67 -80 -8 -200 1 -200 15
0 15 140 143 170 155 15 7 40 28 55 48 15 20 50 52 77 72 27 20 61 54 74 76
14 21 36 43 49 48 14 5 25 15 25 22 0 7 14 25 32 39 l32 27 -69 8 c-39 5 -77
8 -85 7 -17 -2 -528 -10 -1195 -18 -821 -10 -1834 -17 -2095 -13 -140 1 -511
2 -825 0 -313 -1 -842 -2 -1174 -2 -510 0 -606 -2 -620 -14 -9 -8 -26 -16 -39
-18 -22 -3 -21 -5 19 -48 53 -58 69 -96 69 -164 0 -30 5 -58 10 -61 6 -3 10
-20 10 -38 0 -24 -3 -28 -12 -19 -16 16 -29 15 -22 -2 3 -8 -7 -26 -23 -40
-27 -25 -32 -26 -123 -24 -88 3 -96 5 -105 26 -5 12 -19 22 -30 22 -11 0 -31
8 -45 17 -13 9 -32 18 -41 18 -9 1 -28 15 -42 31 -14 16 -28 26 -32 22 -14
-14 27 -123 60 -158 18 -19 40 -49 49 -66 8 -17 21 -34 29 -37 7 -3 18 -22 25
-44 8 -25 22 -45 43 -57 l31 -18 -7 -67 c-6 -55 -12 -71 -38 -99 -30 -31 -79
-52 -124 -52 -34 0 -184 132 -199 176 -7 20 -21 46 -32 57 -10 12 -24 36 -31
54 -7 18 -19 37 -26 43 -9 8 -12 -64 -14 -346 0 -196 -3 -359 -6 -363 -2 -4
-7 -520 -10 -1147 -10 -2007 -15 -2848 -21 -3334 -9 -724 -6 -1027 12 -1068 8
-19 13 -58 12 -87 -2 -54 16 -92 135 -285 22 -36 69 -117 105 -180 37 -66 87
-139 118 -172 53 -55 54 -58 54 -116 0 -32 3 -87 7 -122 8 -85 -9 -78 -62 26
-23 43 -59 108 -81 144 -22 36 -54 94 -71 130 -17 36 -41 74 -52 84 -11 10
-24 35 -27 55 -11 59 -31 91 -59 91 -32 0 -55 -35 -55 -83 0 -39 75 -210 125
-283 14 -20 25 -45 25 -54 0 -10 11 -28 25 -42 25 -25 115 -223 115 -253 0
-10 17 -38 38 -64 77 -92 78 -96 81 -213 1 -60 -1 -108 -5 -108 -20 0 -91 93
-125 163 -66 137 -143 263 -170 277 -31 17 -57 11 -79 -19 -20 -29 -21 -44
-25 -408 -13 -1177 -16 -1649 -15 -2193 0 -333 0 -621 0 -640 -4 -192 -12
-1174 -9 -1225 3 -84 -11 -1238 -16 -1243 -11 -11 -4 -60 10 -72 9 -7 15 -29
15 -52 l0 -40 39 35 c45 40 85 52 133 39 19 -5 48 -7 64 -5 18 3 45 -2 61 -11
25 -13 33 -26 47 -80 24 -97 21 -169 -7 -202 -34 -39 -124 -51 -196 -24 -56
20 -112 17 -133 -7 -8 -11 -12 -245 -14 -946 -3 -997 -4 -3079 -2 -3162 1 -27
-2 -117 -6 -200 -10 -190 -8 -293 6 -315 8 -13 8 -36 -1 -86 -23 -123 -25
-190 -7 -215 21 -30 20 -69 -1 -111 -9 -18 -20 -41 -25 -50 -4 -10 -8 -47 -8
-82 0 -69 9 -87 108 -226 22 -30 48 -73 59 -95 37 -76 76 -140 107 -177 69
-83 85 -106 116 -163 18 -33 50 -84 71 -114 l39 -55 -3 -148 c-2 -81 -6 -150
-9 -153 -8 -9 -51 53 -92 135 -55 107 -85 159 -123 209 -18 24 -33 49 -33 56
0 7 -6 18 -14 24 -23 20 -93 143 -101 179 -7 33 -57 91 -95 112 -19 10 -20 8
-20 -80 l0 -90 70 -106 c39 -59 70 -113 70 -121 0 -22 29 -73 77 -135 42 -55
93 -154 93 -181 0 -7 13 -28 28 -47 15 -19 48 -66 72 -105 48 -76 46 -62 37
-248 -4 -102 -12 -125 -31 -93 -6 11 -27 38 -47 60 -36 41 -85 121 -162 266
-21 41 -47 86 -57 100 -9 14 -24 45 -32 70 -12 38 -19 46 -44 48 -16 2 -35 9
-42 14 -21 18 -25 3 -24 -89 5 -1229 0 -3149 -14 -5158 -9 -1370 -9 -1498 6
-1522 12 -19 10 -28 -19 -82 -28 -53 -32 -69 -29 -123 l3 -62 30 35 c108 123
191 179 264 179 61 0 160 -83 180 -152 16 -50 17 -231 3 -269 -15 -39 -102
-79 -192 -89 -82 -8 -173 -35 -190 -55 -16 -19 68 -92 117 -101 21 -3 52 -15
69 -25 20 -12 50 -19 81 -19 39 0 54 -5 72 -23 22 -24 41 -106 41 -179 0 -52
-62 -179 -107 -218 -34 -30 -40 -32 -98 -28 -109 7 -173 69 -197 192 -5 28 -9
64 -9 80 1 37 -15 66 -37 66 -17 0 -18 -126 -17 -2462 1 -1355 -1 -2497 -4
-2538 -3 -41 -3 -163 0 -270 4 -157 3 -200 -9 -218 -28 -48 33 -181 118 -257
13 -11 45 -53 71 -93 27 -41 71 -99 97 -130 26 -32 54 -69 62 -84 7 -16 17
-28 21 -28 5 0 17 -17 28 -39 11 -21 33 -49 49 -62 51 -43 70 -94 82 -213 13
-140 13 -146 -4 -146 -15 0 -69 73 -116 156 -14 24 -48 77 -76 116 -27 40 -53
81 -57 91 -22 59 -170 286 -202 310 -28 20 -59 20 -77 -3 -28 -34 -22 -64 22
-115 22 -25 40 -51 40 -57 0 -5 18 -35 40 -67 22 -31 40 -62 40 -68 0 -6 6
-16 13 -22 8 -6 19 -28 25 -49 7 -22 29 -59 50 -83 21 -24 41 -51 44 -59 7
-20 109 -172 143 -212 15 -18 47 -64 72 -103 37 -56 45 -78 44 -110 -1 -22 -1
-77 0 -122 0 -52 -4 -83 -10 -83 -12 0 -97 113 -155 205 -21 33 -58 92 -82
130 -24 39 -44 75 -44 82 0 6 -16 33 -36 58 -20 26 -44 61 -53 79 -50 87 -65
107 -95 126 -59 36 -60 33 -51 -97 4 -65 8 -136 7 -158 0 -22 0 -211 1 -420 2
-673 -4 -2611 -9 -2905 -5 -260 -16 -1518 -14 -1565 5 -117 -4 -1663 -10
-1700 -12 -80 -2 -486 13 -503 6 -8 12 -34 12 -56 l0 -41 65 -7 c130 -13 200
-49 248 -128 30 -52 41 -98 25 -114 -4 -4 -9 -30 -10 -57 -1 -51 -28 -115 -64
-158 -32 -39 -72 -33 -154 22 -38 26 -80 47 -93 47 -13 0 -37 -13 -53 -29 -26
-26 -29 -35 -23 -70 5 -31 2 -44 -11 -58 -17 -16 -17 -35 -10 -258 8 -237 13
-456 19 -730 2 -104 -1 -147 -11 -168 -20 -39 -23 -266 -6 -330 8 -26 11 -62
7 -81 -3 -20 0 -50 7 -70 11 -31 11 -40 -2 -64 -13 -23 -16 -96 -18 -467 -2
-384 -5 -443 -19 -465 -14 -22 -16 -127 -18 -1040 -2 -558 -3 -1024 -4 -1035
-1 -11 0 -90 1 -175 1 -85 1 -200 -1 -255 -1 -55 1 -113 5 -128 5 -17 2 -45
-5 -67 -14 -43 -17 -37 78 -174 28 -42 52 -80 52 -84 0 -12 109 -153 166 -215
30 -32 72 -84 94 -115 21 -31 59 -79 84 -107 26 -27 46 -53 46 -56 0 -4 22
-35 50 -69 l50 -63 2 -98 c4 -194 4 -194 -13 -194 -18 0 -132 127 -176 198
-18 29 -45 61 -59 71 -14 11 -46 49 -70 85 -102 156 -164 231 -191 231 -17 0
-16 -20 3 -88 20 -71 89 -181 172 -275 34 -40 66 -85 69 -102 4 -18 28 -51 60
-82 29 -29 53 -56 53 -61 0 -4 16 -23 35 -42 19 -19 35 -38 35 -44 0 -5 18
-33 41 -63 33 -45 39 -59 34 -83 -4 -17 -11 -33 -17 -36 -13 -8 -62 46 -148
161 -33 44 -76 100 -95 125 -20 25 -50 66 -68 92 -18 26 -68 94 -111 150 -43
57 -86 120 -94 141 -18 44 -29 47 -37 10 -4 -16 -13 -51 -21 -80 -12 -40 -13
-56 -4 -73 9 -16 10 -91 5 -278 -4 -142 -7 -455 -7 -697 0 -242 0 -1394 0
-2560 0 -2280 1 -2384 8 -2520 4 -87 -3 -147 -24 -210 -16 -46 -34 -277 -23
-288 15 -15 50 32 51 65 0 15 5 30 10 33 6 3 10 18 10 32 0 33 79 108 130 124
19 6 45 20 57 31 19 17 30 19 75 14 30 -4 67 -16 83 -26 17 -11 37 -20 46 -20
8 0 34 -16 57 -36 38 -33 42 -40 41 -82 -1 -88 -14 -140 -42 -166 -15 -14 -27
-31 -27 -39 0 -7 -11 -24 -25 -37 l-25 -23 24 -12 c28 -15 70 -9 87 11 6 8 26
14 43 14 32 0 79 20 126 53 28 19 104 23 162 7 21 -6 54 -26 74 -45 33 -31 36
-39 31 -74 -2 -21 -22 -65 -43 -97 -24 -38 -37 -69 -35 -86 2 -19 -5 -31 -23
-43 -16 -11 -28 -30 -32 -52 -7 -37 -48 -93 -68 -93 -7 0 -21 -9 -31 -20 -10
-11 -22 -20 -28 -20 -5 0 -23 -7 -41 -15 -18 -9 -52 -19 -76 -23 -25 -4 -45
-12 -45 -17 0 -14 199 -27 255 -17 55 10 168 7 320 -7 125 -11 309 -14 550 -7
85 2 340 4 565 4 226 0 539 1 698 2 211 1 287 -1 287 -10 0 -6 4 -9 9 -6 14 9
356 15 781 15 217 -1 530 0 695 2 165 1 593 3 950 5 358 1 659 3 670 4 46 5
362 -12 385 -21 14 -5 54 -11 90 -14 36 -3 82 -9 102 -14 27 -6 40 -5 48 4 6
7 45 14 98 17 69 4 91 2 105 -10 16 -14 17 -13 17 15 0 17 7 36 15 43 13 10
10 15 -18 34 -17 12 -36 31 -42 41 -22 44 -65 91 -85 92 -27 2 -159 102 -193
146 -14 19 -50 50 -79 70 -30 19 -78 58 -107 86 -29 28 -59 51 -66 51 -16 0
-45 27 -45 42 0 7 30 9 88 6 119 -6 150 -24 335 -185 40 -35 77 -63 82 -63 6
0 23 -13 38 -29 15 -16 63 -54 106 -85 44 -30 81 -59 83 -64 1 -5 21 -21 43
-36 22 -14 65 -47 95 -72 141 -115 166 -125 196 -78 16 23 16 28 1 59 -9 19
-31 42 -49 51 -18 9 -61 43 -96 76 -35 32 -80 69 -100 82 -20 13 -46 33 -56
45 -11 11 -23 21 -28 21 -5 0 -35 22 -66 48 -31 27 -85 66 -119 86 -63 37
-131 110 -114 120 5 4 47 7 93 9 79 2 87 0 128 -28 24 -16 62 -49 85 -71 22
-23 56 -49 75 -59 55 -28 351 -256 459 -353 68 -62 120 -98 164 -115 11 -4 28
4 52 24 l35 31 442 4 c471 4 945 6 1403 5 154 0 370 0 480 1 110 0 353 -2 540
-4 187 -3 371 -1 409 4 56 7 73 5 92 -7 27 -18 48 -19 75 -5 18 10 16 16 -36
116 -46 87 -56 113 -53 147 3 36 9 46 55 83 77 63 191 90 248 60 17 -9 35 -16
42 -16 21 0 83 -61 104 -101 26 -51 24 -106 -4 -149 -46 -70 -48 -84 -21 -124
28 -40 40 -43 104 -20 42 15 65 16 248 11 20 0 69 0 107 1 39 1 95 2 125 2 30
0 417 2 860 5 610 5 810 3 827 -6 16 -9 30 -9 50 -1 17 6 87 9 173 7 80 -2
159 -4 175 -3 17 0 71 1 120 1 50 -1 106 0 125 0 19 0 58 0 85 0 28 0 140 0
250 -1 110 0 209 -1 220 -1 11 0 79 0 150 0 446 3 691 -4 909 -26 144 -14 183
-15 201 -5 14 8 35 10 52 5 15 -4 53 -9 83 -11 54 -5 55 -4 33 13 -12 10 -44
31 -70 47 -75 45 -167 103 -273 171 -41 27 -91 58 -110 70 -19 12 -54 34 -77
48 -24 15 -62 39 -85 54 -24 14 -55 34 -70 45 -15 10 -32 18 -39 18 -24 0 -68
41 -71 68 -2 18 -10 28 -23 30 -33 5 -75 24 -75 34 0 5 58 6 143 3 134 -6 146
-8 212 -39 39 -18 85 -46 104 -61 42 -36 124 -89 171 -111 35 -16 131 -73 140
-84 3 -3 28 -20 56 -38 28 -18 60 -42 70 -53 10 -12 32 -28 49 -36 16 -9 53
-35 80 -58 28 -22 78 -58 113 -78 60 -35 69 -37 148 -37 l84 0 0 28 c0 39 -17
56 -75 77 -28 10 -62 32 -76 49 -15 17 -51 43 -80 56 -30 13 -94 55 -143 92
-49 37 -97 68 -107 68 -10 0 -25 10 -33 22 -15 23 -64 52 -148 87 -27 11 -48
25 -48 30 0 23 41 51 72 51 79 -1 143 -31 306 -146 35 -24 65 -44 68 -44 2 0
25 -16 51 -36 27 -20 59 -41 73 -47 14 -6 48 -33 77 -59 28 -26 57 -48 63 -48
6 0 37 -19 68 -43 31 -24 94 -65 140 -91 l82 -48 78 5 c42 3 104 10 136 16 51
8 533 7 816 -3 47 -2 108 1 136 5 27 4 88 4 135 0 64 -6 91 -5 112 6 17 9 34
10 45 5 9 -5 109 -10 222 -11 113 -1 228 -4 255 -6 28 -2 77 1 110 5 33 5 96
5 140 1 60 -6 87 -4 108 6 17 9 34 10 45 5 9 -5 123 -10 252 -11 129 -1 321
-4 425 -6 418 -11 502 -9 540 14 l35 20 34 -20 c22 -12 48 -19 68 -17 27 2 36
10 51 41 18 36 18 38 0 70 -11 17 -35 42 -54 55 -18 12 -44 42 -57 65 -19 35
-22 51 -16 92 11 88 31 105 128 111 81 4 128 -19 219 -108 39 -37 76 -68 83
-68 24 0 44 -31 44 -71 0 -21 4 -39 10 -39 15 0 100 134 100 157 0 12 15 43
33 69 41 62 105 89 225 97 71 4 86 3 101 -12 10 -10 30 -21 43 -24 16 -4 38
-26 58 -57 31 -48 32 -55 26 -112 -3 -36 -13 -69 -23 -80 -12 -14 -17 -37 -18
-79 0 -52 2 -59 19 -59 11 0 28 -8 39 -18 18 -16 69 -17 748 -19 546 -1 729 2
729 10 0 9 357 12 1445 11 795 -1 1460 -4 1477 -8 28 -5 40 0 77 29 24 19 48
35 54 35 6 0 26 17 46 38 49 50 97 91 146 122 22 15 90 77 152 138 61 62 119
112 127 112 8 0 32 18 52 39 45 50 74 56 150 35 32 -10 77 -18 99 -18 27 -1
41 -6 43 -16 1 -8 -48 -65 -110 -126 -193 -191 -340 -353 -336 -372 2 -13 15
-18 61 -20 l58 -3 101 98 c56 54 138 134 182 179 45 44 97 92 117 107 19 15
41 37 48 50 7 13 27 32 44 42 18 10 45 29 60 41 25 21 35 23 90 18 89 -8 109
-13 105 -28 -4 -16 -118 -121 -171 -156 -20 -14 -37 -32 -37 -40 0 -8 -65 -80
-145 -160 l-145 -145 77 -5 c43 -3 98 -2 123 3 76 14 401 18 1634 18 896 -1
1197 -4 1221 -13 26 -9 48 -9 103 2 43 8 90 10 123 5 30 -4 70 -6 89 -5 19 1
181 1 358 1 303 -1 324 1 317 17 -19 45 -25 97 -15 125 5 17 10 45 10 64 0 50
14 70 66 93 101 44 201 13 268 -84 34 -49 38 -61 34 -103 -3 -26 -8 -56 -13
-66 -7 -17 2 -18 176 -17 491 4 4000 -9 4009 -15 5 -3 127 -3 270 1 l260 7 6
24 c4 12 10 23 15 23 4 0 32 20 61 45 29 25 75 64 102 88 27 23 65 63 83 89
19 26 56 60 83 77 26 16 61 46 77 67 55 73 116 124 148 125 16 0 78 3 138 5
86 3 107 1 107 -10 0 -7 -53 -65 -117 -127 -65 -63 -140 -139 -168 -169 -27
-30 -88 -83 -135 -118 -147 -109 -157 -122 -94 -122 49 0 157 53 207 102 23
22 67 53 99 69 32 16 58 34 58 39 0 6 7 10 15 10 8 0 48 33 88 73 96 95 195
177 214 177 8 0 34 16 56 36 39 33 45 35 91 29 27 -3 57 -10 66 -15 9 -5 22
-5 31 1 20 12 49 11 49 -2 0 -19 -111 -122 -180 -166 -98 -63 -170 -115 -193
-141 -12 -13 -59 -48 -104 -78 -46 -30 -83 -58 -83 -62 0 -4 -23 -25 -50 -47
-47 -37 -49 -40 -28 -47 32 -9 768 -10 768 0 0 4 1008 7 2240 6 1780 -1 2242
-3 2254 -13 17 -14 188 -12 202 2 11 11 -36 57 -75 74 -19 8 -49 26 -66 39
-18 13 -37 24 -43 24 -21 0 -75 55 -93 95 -27 59 -24 84 19 134 l37 43 99 -1
c72 0 105 -5 120 -16 100 -72 140 -94 157 -84 26 13 42 47 35 74 -3 12 -21 40
-41 61 -19 22 -54 62 -78 89 -72 82 -86 184 -33 234 20 19 30 21 75 15 46 -6
59 -13 106 -60 30 -30 56 -63 60 -74 3 -11 10 -20 15 -20 5 0 13 -15 20 -34 6
-18 26 -55 45 -82 19 -27 35 -55 35 -62 0 -8 6 -28 14 -45 8 -18 16 -40 20
-49 7 -23 17 -23 45 3 22 20 22 26 15 88 -7 51 -11 4705 -5 4811 1 14 1 367 1
785 0 418 3 982 6 1252 6 463 6 493 -11 499 -30 12 -100 -31 -156 -96 -30 -35
-83 -95 -119 -135 -36 -39 -84 -97 -107 -128 -45 -60 -83 -76 -83 -36 0 38 41
221 55 248 7 14 40 55 71 91 32 36 73 89 93 119 20 29 52 77 71 106 19 29 65
90 103 136 93 116 99 153 27 173 -30 9 -34 7 -65 -30 -47 -55 -158 -207 -208
-284 -23 -36 -46 -64 -51 -63 -22 6 -17 87 10 165 26 75 27 81 11 93 -23 17
-22 24 17 93 41 73 72 117 109 159 34 36 45 55 85 138 34 69 75 117 95 110 44
-17 76 149 48 252 -8 30 -9 295 -5 950 3 499 5 924 5 943 -1 362 1 1671 4
1860 4 234 7 742 5 968 l0 93 -43 45 c-49 53 -92 61 -130 26 -32 -30 -132 -45
-172 -25 -47 24 -64 43 -71 79 -3 19 -10 37 -15 40 -5 3 -9 24 -9 47 0 39 5
48 63 105 l63 62 73 0 c58 0 78 -4 98 -20 28 -22 82 -26 114 -10 14 8 19 21
19 55 0 24 -5 47 -11 51 -9 5 -10 219 -4 838 5 457 7 858 5 891 -2 33 -3 94
-3 135 2 149 2 389 3 2490 0 1174 3 2218 6 2320 3 102 2 219 -1 260 l-7 75
-22 -28 c-11 -16 -45 -54 -75 -85 -29 -31 -64 -73 -77 -93 -12 -20 -36 -46
-53 -58 -16 -12 -44 -46 -60 -75 -17 -30 -55 -74 -85 -100 -29 -25 -61 -61
-70 -80 -20 -42 -44 -68 -57 -61 -16 11 -10 106 10 149 11 23 24 66 30 97 10
48 20 64 77 124 36 38 79 88 95 111 16 23 44 55 62 71 18 15 48 48 65 73 18
25 59 75 92 110 54 58 60 69 60 108 l0 43 -42 -25 c-44 -26 -238 -212 -238
-228 0 -13 -143 -163 -155 -163 -5 0 -15 -4 -22 -8 -18 -12 -25 10 -11 35 7
13 14 39 14 58 2 39 19 126 29 152 4 10 15 20 26 23 11 4 19 15 19 29 0 22 37
66 56 66 5 0 15 9 22 20 7 11 19 20 27 20 8 0 15 6 15 13 0 14 85 97 99 97 6
0 22 20 37 45 16 28 43 55 71 72 l45 26 -2 201 c-2 111 0 356 3 546 8 426 16
1680 23 3415 3 726 6 1369 8 1428 3 85 0 110 -10 114 -20 7 -17 28 10 97 31
77 43 193 24 219 -12 16 -19 17 -61 6 -55 -13 -62 -23 -71 -101 -10 -82 -46
-127 -140 -173 -89 -44 -131 -43 -168 5 -13 17 -38 49 -57 73 -33 41 -33 43
-27 116 12 148 113 266 246 287 75 12 88 54 32 102 -24 20 -34 22 -87 18 -40
-4 -65 -2 -76 7 -24 19 -46 58 -53 95 -3 19 -17 47 -30 63 -36 42 -52 124 -37
186 7 27 11 54 9 59 -6 23 34 58 112 97 93 46 149 53 193 24 24 -15 51 -76 66
-149 15 -69 54 -97 101 -73 36 19 41 38 39 135 -2 123 0 563 4 740 1 40 -1 98
-5 210 -1 19 -1 103 -1 185 3 450 1 679 -6 698 -4 12 -6 60 -3 107 7 141 14
665 10 825 -7 403 7 1085 24 1111 4 6 1 25 -7 41 -11 22 -15 76 -16 218 -1
128 -6 203 -15 228 -12 33 -12 43 2 69 13 24 15 48 10 112 -3 45 -7 90 -7 101
-1 11 1 103 5 205 3 102 7 275 8 385 0 110 4 210 9 221 4 13 2 57 -7 105 -13
73 -13 88 0 121 12 28 14 72 11 200 -2 90 -6 170 -10 179 -3 8 -1 28 4 42 7
18 7 62 0 136 -6 70 -7 135 0 185 6 50 6 89 -1 113 -12 44 6 153 33 201 11 18
19 41 19 51 0 47 -67 56 -106 14 -14 -16 -43 -47 -65 -69 -21 -23 -39 -47 -39
-54 0 -14 -54 -61 -89 -77 -14 -6 -84 -70 -155 -142 -116 -117 -173 -160 -190
-144 -12 12 -6 51 15 97 15 35 19 58 14 86 -6 37 -5 39 41 72 64 44 153 136
166 170 5 15 24 35 41 46 18 10 55 40 83 65 29 26 55 47 59 47 14 0 108 86
121 112 8 15 14 41 14 58 0 17 5 41 11 52 9 17 4 15 -33 -10 -24 -17 -50 -38
-58 -47 -7 -9 -69 -59 -137 -111 -68 -52 -123 -99 -123 -105 0 -6 -19 -19 -43
-29 -24 -11 -50 -31 -57 -46 -16 -28 -66 -74 -82 -74 -6 0 -8 20 -4 53 3 28 8
77 12 108 l6 57 140 143 c77 79 162 171 189 204 28 33 73 81 101 106 42 37 52
53 60 95 18 94 20 152 6 181 -12 24 -13 238 -10 1348 5 2235 6 2271 21 2379
12 87 12 101 -1 125 -14 23 -15 127 -11 894 3 477 2 867 -1 867 -4 0 -37 -14
-74 -32 -117 -55 -176 -78 -199 -78 -15 0 -32 15 -53 47 -27 40 -33 60 -40
137 -10 100 -12 93 44 159 66 79 154 105 234 71 20 -9 49 -20 63 -24 l26 -8 7
87 c4 48 6 542 6 1097 0 944 1 1011 18 1034 16 24 17 121 18 1605 1 869 5
1662 9 1763 8 200 5 208 -47 154 -57 -59 -97 -98 -208 -204 -63 -61 -151 -145
-195 -188 -85 -82 -131 -117 -142 -106 -13 13 -11 141 3 186 10 32 40 73 100
140 47 52 93 106 102 120 8 14 40 50 71 80 88 88 211 229 211 243 0 15 41 55
83 80 24 16 27 23 27 75 0 31 -4 64 -10 72 -15 24 -56 -5 -155 -109 -49 -52
-110 -115 -135 -139 -25 -24 -93 -90 -152 -148 -59 -57 -112 -104 -117 -104
-16 0 -23 38 -10 61 6 12 11 44 10 69 -1 62 25 97 155 215 136 124 242 233
271 278 13 21 51 66 84 100 l60 61 -4 106 c-2 58 -10 143 -17 190 -9 66 -9 89
0 104 9 15 11 108 6 390 -11 672 -16 1141 -21 1951 -3 440 -8 1054 -11 1365
-12 1098 -10 1880 5 1930 8 25 15 90 16 145 1 55 7 136 14 180 7 44 14 150 15
235 1 146 0 157 -22 193 -28 44 -54 48 -102 15 -31 -22 -32 -26 -34 -93 -2
-70 -17 -143 -41 -200 -7 -16 -15 -37 -18 -46 -6 -17 -60 -49 -82 -49 -7 0
-27 7 -46 15 -97 45 -96 43 -98 182 l-1 92 44 35 c23 20 48 36 54 36 6 0 29
21 51 47 l40 47 -42 14 c-23 8 -46 18 -51 22 -13 12 -52 -5 -100 -45 -24 -19
-54 -35 -67 -35 -13 0 -48 -9 -77 -20 -29 -11 -71 -20 -94 -20 -35 0 -46 6
-79 41 -55 60 -74 154 -41 207 46 77 159 131 274 132 64 0 94 14 118 52 31 51
26 73 -17 90 -32 12 -111 14 -468 11 -839 -7 -1745 -8 -1747 -3 -2 3 -52 3
-113 0 -60 -3 -326 -5 -590 -3 -264 1 -527 1 -585 1 -105 -1 -1963 4 -2305 6
-169 1 -183 0 -222 -22 -39 -20 -43 -26 -43 -59 0 -24 9 -48 26 -70 23 -30 25
-38 15 -60 -16 -35 0 -51 29 -30 21 15 26 13 94 -43 78 -63 246 -237 266 -276
7 -13 11 -27 7 -30 -9 -9 -255 -4 -282 6 -13 5 -34 23 -46 40 -13 17 -42 41
-65 55 -22 13 -49 37 -59 52 -27 42 -224 235 -277 271 -25 18 -59 47 -75 66
-32 37 -95 71 -118 62 -22 -8 -38 -51 -31 -81 8 -30 28 -51 107 -110 30 -22
79 -63 109 -92 30 -29 91 -82 135 -119 44 -36 84 -74 89 -84 13 -27 2 -47 -30
-53 -43 -8 -210 11 -241 27 -16 8 -99 86 -186 173 -87 87 -193 188 -235 225
-138 121 -146 128 -152 129 -3 0 -131 0 -285 0 -154 -1 -615 0 -1025 0 -410 1
-770 2 -800 1 -685 -6 -1434 -2 -1480 8 -42 9 -70 9 -114 1 -86 -16 -132 -14
-176 9 -46 24 -39 24 -73 -3z m-6559 -867 c28 -5 249 -14 492 -20 365 -10 444
-9 457 2 21 17 161 18 171 1 5 -8 84 -12 282 -13 151 -2 286 -2 300 -2 14 0
561 3 1215 6 655 3 1420 8 1700 12 609 7 1919 16 2345 16 168 0 1054 0 1970 1
1538 1 4639 -2 5000 -4 85 -1 362 -1 615 0 253 1 524 0 603 -1 78 -2 142 -1
142 2 0 5 910 3 1225 -4 99 -1 221 -4 271 -5 l91 -1 7 -82 c4 -46 7 -432 6
-858 0 -720 1 -786 20 -930 23 -178 25 -252 8 -283 -8 -15 -14 -142 -19 -422
-4 -229 -12 -423 -19 -455 -14 -71 -15 -1121 0 -1715 11 -473 12 -539 10
-1311 0 -293 2 -549 5 -570 8 -56 35 -2951 34 -3514 -1 -261 1 -534 5 -605 4
-72 9 -612 11 -1200 6 -1516 16 -3179 21 -3525 2 -162 3 -524 2 -805 -1 -280
0 -692 2 -915 2 -223 3 -1127 2 -2010 -1 -883 -1 -1616 -1 -1630 0 -14 2 -182
4 -375 3 -307 1 -353 -13 -377 -13 -22 -13 -29 -2 -43 8 -9 14 -46 16 -88 8
-259 24 -3628 23 -4987 0 -470 0 -868 0 -885 0 -16 4 -133 10 -260 5 -126 10
-626 10 -1110 1 -484 4 -1314 7 -1845 3 -531 7 -1431 9 -2000 3 -569 7 -1618
10 -2330 10 -2365 28 -8490 32 -10795 2 -1213 9 -3151 18 -4950 15 -2840 15
-3238 3 -3252 -7 -8 -21 -12 -37 -8 -34 7 -488 26 -716 30 -99 2 -243 7 -320
10 -268 13 -735 2 -735 -17 0 -6 -8 -7 -17 -3 -10 3 -121 8 -248 11 -126 2
-288 6 -360 9 -71 3 -232 7 -358 8 -215 2 -227 1 -227 -17 0 -13 -5 -16 -17
-11 -10 3 -121 8 -248 11 -126 2 -288 6 -360 10 -157 7 -269 7 -565 -1 -124
-3 -292 -2 -375 3 -93 6 -190 6 -255 0 -72 -7 -216 -6 -455 3 -192 7 -741 14
-1220 15 -478 1 -915 5 -970 9 -122 9 -48 9 -675 -2 -600 -10 -999 -7 -1027
10 -4 2 -78 1 -163 -4 -85 -5 -670 -11 -1300 -14 -630 -3 -1404 -8 -1720 -11
-316 -3 -609 -5 -650 -4 -41 0 -176 3 -300 6 -338 7 -2115 10 -2435 4 -261 -5
-281 -4 -293 12 -13 18 -76 26 -85 11 -3 -5 -121 -10 -264 -11 -142 -2 -265
-7 -273 -12 -8 -4 -144 -8 -302 -9 -157 -1 -310 -6 -340 -11 -55 -8 -401 -6
-643 6 -160 7 -357 7 -577 -2 -97 -4 -168 -3 -168 2 0 6 -976 8 -2357 7 -1983
-2 -3037 -2 -3213 0 -19 1 -57 0 -85 -2 -36 -1 -2178 8 -2285 10 -8 0 -332 1
-720 1 -388 0 -725 1 -750 1 -50 1 -264 -2 -350 -5 -48 -2 -99 -1 -167 1 -10
1 -166 0 -348 -1 -181 -1 -472 -1 -645 -1 -173 0 -367 0 -430 -1 -63 0 -133 1
-155 4 -22 2 -497 0 -1055 -5 -558 -4 -1026 -7 -1040 -6 -49 2 -406 3 -2705 3
-858 0 -1565 4 -1570 8 -6 5 -33 4 -60 -2 -33 -7 -793 -12 -2195 -14 -1180 -3
-2170 -4 -2200 -3 -30 1 -129 2 -220 3 l-165 1 1 85 c0 47 4 1396 8 2999 4
1753 11 2922 17 2932 5 10 5 36 0 66 -5 27 -9 946 -10 2153 0 1158 -3 2296 -6
2530 -8 689 -9 1620 0 3575 4 1012 8 1982 7 2155 0 173 0 621 0 995 0 892 -1
985 -8 997 -10 15 -6 736 5 948 4 96 5 220 2 275 -6 85 -6 524 -2 2020 0 138
1 304 2 370 3 169 -7 1830 -11 1955 -1 23 -5 998 -4 1160 0 80 1 168 3 195 2
38 5 1287 3 1595 -6 1257 -11 2759 -10 2995 1 171 1 490 0 710 -7 2176 -4
3688 8 3711 10 18 11 32 2 61 -13 46 -20 816 -10 1118 1 22 1 101 0 175 -1 74
-2 191 -2 260 0 69 -3 503 -5 965 -6 940 -5 1292 1 1410 13 232 17 572 8 587
-4 5 -5 694 -3 1531 1 837 3 1551 3 1587 0 36 -1 430 -3 875 -1 446 1 1058 4
1360 4 303 6 595 6 650 0 55 -1 332 -2 615 -1 283 2 695 6 915 4 220 7 409 7
420 -3 104 -1 336 4 445 4 74 6 144 6 155 -6 118 -9 1124 -3 1165 4 30 3 75
-2 100 -7 34 -11 908 -6 1120 1 19 1 213 1 430 -1 548 -4 2599 -4 2630 -1 39
10 502 17 750 5 156 11 231 20 245 13 21 20 21 721 23 390 2 879 5 1086 7 208
2 378 1 378 -3 0 -7 716 -5 1460 6 250 3 484 6 520 5 36 0 112 0 170 0 58 0
116 0 130 -1 14 0 138 1 275 1 455 2 4068 5 4160 4 154 -2 849 0 1090 3 281 4
1041 3 1110 -1 61 -3 320 -3 355 0 14 2 198 3 410 3 212 -1 430 -1 485 0 55 0
219 -4 365 -8 353 -11 416 -10 680 5 261 15 1253 17 1291 2 17 -6 31 -5 45 2
13 8 103 12 279 13 518 3 860 4 1390 5 297 1 565 1 595 2 48 0 914 -1 2330 -4
228 -1 798 0 1265 1 468 1 1008 1 1200 1 193 0 368 0 390 0 85 1 111 1 135 -1
14 -2 117 2 230 8 113 7 504 17 870 23 365 6 671 15 680 19 20 12 105 12 168
0z"/>
</g>
</svg>
